<?xml version="1.0" encoding="utf-8"?>
<!-- Generator: Adobe Illustrator 16.0.0, SVG Export Plug-In . SVG Version: 6.00 Build 0)  -->
<!DOCTYPE svg PUBLIC "-//W3C//DTD SVG 1.1//EN" "http://www.w3.org/Graphics/SVG/1.1/DTD/svg11.dtd">
<svg version="1.1" id="Capa_1" xmlns="http://www.w3.org/2000/svg" xmlns:xlink="http://www.w3.org/1999/xlink" x="0px" y="0px"
	 width="49px" height="49px" viewBox="0 0 49 49" enable-background="new 0 0 49 49" xml:space="preserve">
<g>
	<path fill="#FFFFFF" d="M13.709,23.623v-2.293c-1.329-0.022-2.683-0.435-3.487-1.009l0.55-1.538
		c0.803,0.528,1.996,0.986,3.28,0.986c1.627,0,2.729-0.941,2.729-2.247c0-1.261-0.896-2.04-2.591-2.729
		c-2.34-0.917-3.784-1.995-3.784-3.99c0-1.902,1.354-3.349,3.44-3.692V4.817h1.444v2.226c1.354,0.045,2.294,0.412,2.982,0.801
		l-0.575,1.515c-0.48-0.274-1.42-0.803-2.888-0.803c-1.766,0-2.43,1.053-2.43,1.995c0,1.168,0.848,1.765,2.842,2.614
		c2.362,0.964,3.556,2.133,3.556,4.174c0,1.836-1.261,3.53-3.623,3.899v2.384L13.709,23.623L13.709,23.623L13.709,23.623z"/>
</g>
<path fill="#FFFFFF" d="M14.5,0C6.492,0,0,6.492,0,14.5S6.492,29,14.5,29S29,22.508,29,14.5S22.508,0,14.5,0z M14.5,27.779
	c-7.354,0-13.316-5.962-13.316-13.316S7.146,1.147,14.5,1.147s13.316,5.961,13.316,13.316C27.816,21.817,21.854,27.779,14.5,27.779z
	"/>
</svg>
