<?xml version="1.0" encoding="utf-8"?>
<!-- Generator: Adobe Illustrator 16.0.0, SVG Export Plug-In . SVG Version: 6.00 Build 0)  -->
<!DOCTYPE svg PUBLIC "-//W3C//DTD SVG 1.1//EN" "http://www.w3.org/Graphics/SVG/1.1/DTD/svg11.dtd">
<svg version="1.1" id="Capa_1" xmlns="http://www.w3.org/2000/svg" xmlns:xlink="http://www.w3.org/1999/xlink" x="0px" y="0px"
	 width="49px" height="49px" viewBox="0 0 49 49" enable-background="new 0 0 49 49" xml:space="preserve">
<g>
	<g>
		<g>
			<path fill="#FFFFFF" d="M27.134,8.853c-0.054,0.116-0.072,0.1-0.146,0.141c-0.034,0.018-0.064,0.048-0.095,0.08h0.411
				c0.01-0.019,0.005-0.042-0.031-0.084C27.191,8.891,27.188,8.74,27.134,8.853z"/>
		</g>
		<g>
			<path fill="#FFFFFF" d="M15.422,27.465c-0.101,0.002-0.197-0.015-0.249-0.016c-0.114-0.001-0.181,0.138-0.08,0.347
				c0.104,0.211-0.17,0.342-0.247,0.437c-0.076,0.095-0.53,0.115-0.641,0.113c-0.111,0-0.024,0.323-0.097,0.417
				c-0.074,0.095-0.219,0.012-0.35-0.013c-0.07-0.014-0.071,0.059-0.05,0.148c-0.534-0.03-1.06-0.09-1.579-0.174
				c0.032-0.176,0.135-0.408,0.068-0.593c-0.094-0.258,0.242-0.402,0.254-0.715c0.013-0.315,0.148-0.61,0.105-0.85
				c-0.043-0.239,0.133-0.446,0.105-0.567c-0.026-0.121,0.067-0.48,0.044-0.604c-0.022-0.125,0.086-0.624,0.028-0.973
				c-0.058-0.349-0.68-0.549-0.775-0.613c-0.095-0.067-0.239-0.084-0.273-0.282c-0.033-0.197-0.188-0.511-0.338-0.68
				c-0.15-0.174-0.136-0.497-0.359-0.641c-0.225-0.145-0.078-0.146-0.177-0.293c-0.1-0.147,0.153-0.245,0.175-0.281
				c0.023-0.039,0.156-0.3-0.003-0.176s-0.104-0.218-0.028-0.429c0.078-0.212,0.201-0.138,0.26-0.287
				c0.058-0.15,0.195-0.251,0.248-0.303c0.054-0.051,0.124-0.343-0.031-0.668c-0.164-0.148-0.069-0.114-0.188-0.285
				c-0.122-0.171-0.282,0.037-0.282,0.037c-0.08,0.049,0.037,0.078-0.022,0.176c-0.056,0.094-0.198-0.168-0.447-0.184
				c-0.25-0.017-0.188-0.179-0.361-0.23c-0.171-0.049-0.162-0.144-0.163-0.211c0-0.068,0.042-0.285-0.309-0.353
				c-0.349-0.066-0.291-0.198-0.578-0.211c-0.291-0.013-0.532-0.346-0.532-0.346s-0.222-0.082-0.394,0.008
				c-0.173,0.09-0.588-0.149-0.758-0.206c-0.17-0.057-0.444-0.196-0.635-0.314c-0.19-0.121-0.386-0.145-0.321-0.309
				c0.113-0.208-0.105-0.413-0.139-0.487c-0.033-0.075-0.243-0.331-0.465-0.508c-0.226-0.178-0.311-0.386-0.311-0.386
				c-0.203-0.15-0.398-0.423-0.444-0.573c-0.047-0.149-0.187-0.179-0.257-0.191c-0.072-0.012-0.125,0.214,0.087,0.397
				c0.213,0.181,0.07,0.203,0.227,0.346c0.157,0.142,0.132,0.153,0.246,0.328c0.112,0.175,0.102,0.229,0.151,0.309
				c0.049,0.078,0.203,0.167,0.158,0.234c-0.045,0.068-0.108-0.076-0.212-0.131c-0.104-0.056-0.212-0.075-0.225-0.274
				c-0.01-0.201-0.228-0.285-0.228-0.285s-0.25-0.108-0.174-0.18c0.077-0.069-0.007-0.223-0.114-0.307
				c-0.106-0.082-0.273-0.41-0.273-0.41s-0.039-0.209-0.143-0.151c-0.104,0.06-0.221-0.107-0.185-0.164
				c0.038-0.06-0.058-0.253-0.233-0.274c-0.175-0.021-0.15-0.11-0.227-0.188c-0.075-0.078-0.169-0.146-0.18-0.236
				c-0.01-0.092-0.051-0.143-0.136-0.083c-0.083,0.061-0.096-0.063-0.096-0.063c-0.105-0.106,0.037-0.233,0.037-0.233
				c-0.232-0.201-0.096-0.563-0.187-0.738c-0.092-0.175,0.003-0.911,0.02-0.953c0.02-0.042,0.04-0.129-0.045-0.246
				c-0.086-0.118-0.048-0.181,0.021-0.204c0.068-0.023-0.266-0.259-0.382-0.298c-0.118-0.041-0.177-0.087-0.287-0.172
				c-0.112-0.086,0.036-0.109,0.146-0.054c0.109,0.054,0.206-0.072,0.048-0.075c-0.157-0.004-0.207-0.203-0.157-0.269
				c0.051-0.064,0.026-0.133-0.037-0.079c-0.063,0.054-0.157-0.188-0.168-0.253c-0.01-0.067,0.086-0.163,0.013-0.129
				c-0.074,0.035-0.023,0.079-0.201-0.003c-0.179-0.083-0.201-0.129-0.095-0.225c0.107-0.097,0.033-0.108,0.033-0.108
				c-0.021,0.094-0.086,0.104-0.159-0.021c-0.07-0.124,0.011-0.079-0.05-0.134c-0.06-0.058-0.098,0.071-0.127,0.135
				c-0.028,0.064,0,0.064-0.065,0.111c-0.063,0.046-0.15-0.222-0.156-0.311C1.465,9.717,1.555,9.86,1.607,9.903
				C1.661,9.946,1.835,9.72,1.668,9.717C1.5,9.714,1.313,9.334,1.251,9.269C1.192,9.2,1.125,9.326,1.125,9.326
				c-0.124,0.124-0.165,0.07-0.179,0C0.337,10.929,0,12.67,0,14.489c0,8.003,6.486,14.489,14.489,14.489
				c0.314,0,0.625-0.013,0.933-0.032V27.465z M1.798,10.775c-0.014,0-0.036-0.009-0.056-0.063c-0.022-0.054-0.105-0.054-0.119-0.126
				c-0.014-0.071-0.122-0.1-0.122-0.164s-0.044-0.138,0.056-0.138c0.006,0,0.013,0,0.02,0c0.089,0,0.146,0.006,0.146,0.1
				c0,0.099-0.05,0.135,0.008,0.182c0.057,0.046,0.017,0.056,0.045,0.1C1.804,10.707,1.909,10.775,1.798,10.775z"/>
		</g>
		<g>
			<path fill="#FFFFFF" d="M2.953,5.851C3.074,5.807,3.07,6.026,3.165,6.094C3.261,6.162,3.256,6.03,3.256,6.03
				C3.263,5.898,3.39,5.938,3.39,5.938c0.146,0.018,0.258,0.058,0.358,0.116c0.1,0.056,0.316,0.059,0.412,0.12
				c0.094,0.062,0.238,0.083,0.362,0.049c0.126-0.037,0.144-0.024,0.273,0.084c0.128,0.11,0.024,0.086-0.099,0.151
				C4.575,6.526,4.99,6.647,5.174,6.606c0.185-0.043,0.196-0.01,0.314-0.058C5.606,6.5,5.666,6.551,5.808,6.628
				c0.144,0.078,0.124,0.127,0.209,0.225C6.102,6.95,6.162,6.758,6.038,6.636c-0.124-0.123,0-0.084,0.141-0.166
				c0.141-0.083,0.262-0.116,0.3-0.064c0.037,0.052,0.172,0.05,0.311,0.071C6.93,6.498,7.011,6.56,7.116,6.582
				c0.055,0.011,0.166,0.002,0.267-0.007C7.47,6.567,7.552,6.559,7.584,6.563C7.652,6.575,7.706,6.566,7.68,6.505
				c-0.026-0.062,0-0.086,0.062-0.118c0.064-0.03,0.12-0.062-0.04-0.142C7.544,6.164,7.63,6.137,7.692,6.038
				c0.062-0.099,0.132-0.112,0.201-0.051c0.069,0.062,0.209,0.125,0.243,0.196s0.02,0.099-0.047,0.137
				C8.021,6.356,7.992,6.333,7.967,6.387C7.952,6.419,7.993,6.414,8.042,6.408C8.074,6.404,8.11,6.401,8.135,6.407
				c0.063,0.019-0.029,0.119-0.051,0.214C8.06,6.714,8.136,6.699,8.195,6.748c0.058,0.05,0.078-0.059,0.019-0.159
				C8.157,6.492,8.323,6.472,8.387,6.446C8.451,6.418,8.51,6.298,8.449,6.265C8.389,6.231,8.528,6.212,8.477,6.142
				c-0.051-0.07,0.011-0.136-0.104-0.127C8.259,6.023,8.207,5.973,8.207,5.973C7.991,5.846,8.154,5.808,8.088,5.698
				C7.975,5.564,8.086,5.401,8.175,5.333c0.089-0.068,0.141-0.192,0.049-0.3S8.22,4.817,8.186,4.684
				C8.154,4.549,8.248,4.595,8.351,4.524C8.386,4.5,8.423,4.493,8.46,4.493c0.028,0,0.058,0.004,0.088,0.009
				C8.593,4.508,8.64,4.515,8.688,4.506c0.119-0.02,0.319,0.019,0.41,0.072c0.089,0.054-0.211,0.168-0.229,0.277
				c-0.017,0.106-0.206,0.12-0.281,0.079c-0.074-0.041-0.13,0.01-0.079,0.072C8.56,5.069,8.528,5.116,8.448,5.211
				C8.37,5.306,8.505,5.383,8.628,5.454c0.123,0.068,0.075,0.14,0.151,0.232c0.077,0.095,0.113,0.119,0.044,0.175
				c-0.069,0.058-0.041,0.062-0.021,0.13C8.815,6.028,8.843,6.02,8.882,6.012C8.917,6.005,8.96,5.998,9.012,6.019
				C9.124,6.064,9.119,6.272,9.106,6.38C9.093,6.483,9.207,6.407,9.224,6.208c0.019-0.2,0.208-0.042,0.286,0.02
				c0.078,0.062,0.085,0.112-0.002,0.184C9.419,6.484,9.572,6.635,9.572,6.635c0.042,0.063,0.031,0.184,0.114,0.117
				c0.135-0.22,0.228-0.147,0.256-0.299c0.009-0.272,0.202-0.175,0.081-0.311c-0.12-0.133,0.072-0.167,0.188-0.196
				c0.115-0.03,0.253,0.008,0.333,0.049c0.082,0.038,0.092,0.108,0.147,0.203c0.058,0.094-0.04,0.131-0.14,0.157
				c-0.103,0.026,0.117,0.17,0.173,0.271c0.055,0.099-0.123,0.21-0.208,0.273C10.432,6.961,10.33,6.93,10.33,6.985
				c0,0.04-0.1,0.04-0.184,0.04c-0.035,0-0.067-0.001-0.088,0.002c-0.072,0.009-0.024-0.034-0.074-0.068
				C9.933,6.928,9.868,6.933,9.799,6.97c-0.07,0.039,0.141,0.053,0.089,0.123c-0.052,0.071-0.153,0.15-0.229,0.175
				C9.581,7.294,9.558,7.297,9.641,7.316c0.082,0.02,0.057,0.041,0.018,0.133c-0.04,0.095-0.267,0.13-0.337,0.21
				C9.25,7.738,9.076,7.794,9.01,7.787C8.943,7.782,8.915,7.792,8.995,7.852C9.074,7.911,8.929,8,8.876,8.019
				C8.825,8.037,8.848,8.006,8.798,8.108C8.748,8.208,8.536,8.419,8.426,8.54C8.317,8.66,8.335,8.878,8.335,8.971
				C8.333,9.065,8.361,9.097,8.509,9.097c0.145,0.001,0.188,0.202,0.221,0.304c0.033,0.103-0.043,0.132,0.062,0.121
				C9.01,9.486,9.169,9.562,9.338,9.59c0.167,0.028,0.523,0.273,0.639,0.347c0.115,0.072,0.443,0.058,0.54,0.088
				c0.098,0.03,0.081,0.298,0.081,0.458c-0.002,0.157,0.171,0.235,0.289,0.395c0.116,0.158,0.234,0.01,0.29-0.047
				c0.059-0.058,0.069-0.257-0.003-0.391c-0.075-0.133-0.042-0.147-0.083-0.265c-0.04-0.115,0.289-0.201,0.369-0.264
				c0.082-0.062,0.123-0.178,0.126-0.339c0.001-0.162-0.078-0.263-0.216-0.367c-0.14-0.103-0.013-0.266,0.024-0.329
				c0.039-0.062,0.058-0.185-0.027-0.285c-0.083-0.1,0.082-0.045,0.01-0.188c-0.072-0.142-0.054-0.212-0.058-0.277
				c-0.003-0.065,0.175-0.105,0.308-0.017c0.13,0.088,0.233,0.075,0.377,0.044s0.161-0.001,0.208,0.047
				c0.047,0.047,0.271,0.195,0.334,0.275c0.061,0.08,0.19,0.068,0.252,0.035c0.062-0.032,0.057,0.042,0.014,0.139
				C12.769,8.747,12.882,8.901,12.882,9s0.195,0.152,0.294,0.199c0.099,0.046,0.244-0.106,0.327-0.189
				c0.083-0.085,0.083-0.186,0.172-0.293c0.087-0.106,0.145,0.091,0.18,0.204c0.033,0.113,0.202,0.232,0.27,0.351
				c0.068,0.119,0.195,0.187,0.12,0.337c-0.077,0.148,0.208,0.226,0.256,0.317c0.049,0.092,0.25,0.134,0.403,0.202
				c0.151,0.07,0.031,0.24,0.17,0.244c0.139,0.001,0.297,0.195,0.228,0.354c-0.071,0.159-0.203,0.182-0.32,0.196
				c-0.115,0.013-0.229,0.058-0.361,0.189c-0.133,0.133-0.305,0.088-0.462,0.072c-0.156-0.017-0.592-0.003-0.668-0.003
				c-0.01,0-0.02,0-0.028,0c-0.061-0.001-0.11-0.005-0.192,0.111c-0.094,0.134-0.251,0.21-0.319,0.257
				c-0.067,0.051-0.315,0.327-0.351,0.399c-0.039,0.072,0.059,0.027,0.227-0.159c0.166-0.184,0.446-0.287,0.55-0.344
				c0.102-0.058,0.284-0.062,0.352,0.014c0.068,0.078,0.068,0.136-0.03,0.201c-0.099,0.066-0.152,0.008-0.215,0.008
				c-0.061,0-0.023,0.027,0.049,0.067c0.073,0.04,0.097,0.027,0.132,0.155c0.036,0.129-0.021,0.075,0.021,0.118
				c0.046,0.043,0.075,0.062,0.142,0.12c0.067,0.059,0.146,0.078,0.202,0.07c0.056-0.01,0.083-0.01,0.194,0.013
				c0.108,0.02,0.05-0.044,0.12-0.14c0.069-0.098,0.058-0.123,0.117-0.146c0.058-0.021,0.051,0.102,0.092,0.214
				c0.041,0.113-0.102,0.088-0.177,0.095c-0.076,0.004-0.064,0.041-0.147,0.119c-0.083,0.078-0.302,0.097-0.389,0.121
				c-0.085,0.024-0.098,0.117-0.175,0.189c-0.078,0.071-0.147,0.005-0.185-0.069c-0.038-0.07,0.106-0.207,0.198-0.254
				c0.09-0.045,0.109-0.192,0.031-0.111c-0.077,0.08-0.371,0.084-0.398,0.155c-0.026,0.072-0.1,0.063-0.235,0.129
				c-0.135,0.067-0.235,0.018-0.313,0.166s-0.151,0.208-0.427,0.474c-0.276,0.268-0.321,0.436-0.364,0.472
				c-0.044,0.035-0.049,0.03-0.12,0.005c-0.068-0.028-0.068,0.011-0.039,0.067c0.031,0.06,0.018,0.092-0.034,0.197
				c-0.032,0.062-0.047,0.042-0.062,0.021c-0.01-0.013-0.021-0.027-0.037-0.013c-0.037,0.033,0.04,0.199,0.016,0.391
				c-0.026,0.194-0.174,0.178-0.3,0.332c-0.124,0.152-0.146,0.029-0.293,0.186c-0.147,0.155-0.272,0.237-0.318,0.375
				c-0.044,0.139-0.112,0.155-0.032,0.337c0.115,0.161,0.156,0.369,0.198,0.497c0.041,0.128,0.048,0.293-0.039,0.386
				c-0.09,0.091-0.202-0.126-0.289-0.238c-0.084-0.113-0.132-0.256-0.126-0.371c0.003-0.117-0.144-0.442-0.337-0.296
				c-0.106,0.08-0.146,0.031-0.184-0.017c-0.031-0.04-0.061-0.081-0.125-0.051c-0.072,0.033-0.12,0.005-0.159-0.024
				c-0.039-0.029-0.067-0.056-0.103-0.026c-0.071,0.063-0.069,0.047-0.168,0.045c-0.099-0.002-0.097,0.019-0.118,0.151
				c-0.013,0.077-0.021,0.062-0.041,0.048c-0.013-0.01-0.033-0.02-0.063-0.001c-0.074,0.048-0.093,0.031-0.178,0.017
				c-0.083-0.01-0.067-0.118-0.14-0.103c-0.077,0.015-0.1,0.061-0.188,0.018c-0.088-0.042-0.142-0.065-0.242,0.025
				c-0.102,0.093-0.21,0.158-0.363,0.199c-0.151,0.04-0.259,0.095-0.218,0.231c0.042,0.139,0.096,0.299,0.017,0.36
				c-0.082,0.061-0.132,0.371-0.053,0.538c0.08,0.167,0.092,0.374,0.177,0.458c0.082,0.082,0.08,0.225,0.229,0.267
				c0.151,0.041,0.208,0.134,0.295,0.091c0.088-0.045,0.226-0.075,0.321-0.04c0.095,0.036,0.171,0.013,0.252-0.259
				c0.083-0.269,0.167-0.223,0.316-0.31c0.149-0.087,0.274-0.028,0.343,0.025c0.068,0.051-0.123,0.229-0.12,0.342
				c0.001,0.115-0.116,0.122-0.094,0.208c0.021,0.09-0.068,0.322-0.105,0.414c-0.039,0.092,0.41,0.098,0.535,0.046
				c0.126-0.052,0.231,0.006,0.377,0.103s-0.077,0.296,0.001,0.413c0.078,0.116,0,0.245,0,0.341c0,0.095,0.058,0.131,0.15,0.242
				c0.093,0.113,0.072,0.035,0.203,0.131c0.131,0.096,0.233,0.01,0.348-0.075c0.113-0.086,0.297,0.047,0.423,0.154
				c0.126,0.107,0.292-0.119,0.292-0.225c0-0.108,0.067-0.101,0.175-0.217c0.052-0.06,0.122-0.06,0.187-0.06
				c0.067,0,0.13,0,0.173-0.06c0.086-0.122,0.104-0.11,0.202-0.135c0.094-0.025,0.065,0.062,0.01,0.123
				c-0.056,0.061,0.017,0.088,0.089,0.139c0.068,0.049,0.148-0.034,0.122-0.114c-0.028-0.081,0.032-0.121,0.074-0.077
				c0.043,0.042,0.068,0.118,0.173,0.109c0.104-0.01,0.09,0.067,0.177,0.148c0.045,0.042,0.118,0.028,0.185,0.013
				c0.061-0.015,0.115-0.031,0.138,0c0.048,0.061,0.136,0.105,0.292,0.049c0.155-0.057,0.104-0.036,0.38,0.033
				c0.276,0.067,0.225,0.216,0.317,0.271c0.095,0.056,0.174-0.014,0.331,0.198c0.157,0.212,0.193,0.27,0.571,0.291
				c0.018,0.001,0.032,0.003,0.05,0.004v-8.016c-0.089,0.034-0.174,0.058-0.128-0.001c0.049-0.065,0.085-0.081,0.066-0.1
				c-0.008-0.007-0.013-0.002-0.018,0.003c-0.007,0.007-0.019,0.016-0.045-0.01c-0.026-0.024-0.041-0.015-0.069-0.005
				c-0.026,0.009-0.064,0.018-0.13-0.004c-0.134-0.042-0.185-0.074-0.273-0.036c-0.089,0.038-0.182,0.06-0.16-0.003
				c0.021-0.064-0.023-0.126,0.084-0.132c0,0,0.02,0.017,0.013-0.05c-0.007-0.068-0.014-0.065,0.026-0.094
				c0.038-0.03,0.03-0.108,0.104-0.179c0.074-0.072,0.198-0.425,0.316-0.43c0.066-0.001,0.118-0.019,0.147-0.019
				c0.022,0,0.03,0.01,0.02,0.046c-0.021,0.082-0.048,0.112-0.122,0.176c-0.072,0.065-0.146,0.171-0.088,0.152
				c0.058-0.019,0.113-0.019,0.155,0.067c0.034,0.07,0.059,0.11,0.104,0.107V9.072h9.22c0.017-0.004,0.031-0.007,0.04-0.007
				c0.008,0,0.014,0.003,0.014,0.007h1.533c0.002-0.009,0.005-0.017,0.014-0.027c0.067-0.087,0.125-0.087,0.078-0.126
				c-0.021-0.018-0.047-0.015-0.07-0.013c-0.031,0.002-0.053,0.006-0.046-0.031c0.01-0.064,0.061-0.026,0.056-0.086
				c-0.003-0.06-0.124-0.07-0.064-0.124c0.062-0.054,0.149-0.076,0.074-0.12c-0.074-0.042-0.182-0.042-0.092-0.224
				c0.086-0.182,0.001-0.167,0.194-0.268c0.192-0.101,0.168-0.111,0.323-0.204c0.146-0.085,0.316-0.189,0.489-0.342
				c-1.212-2.199-2.979-4.05-5.111-5.364c-0.108,0.01-0.204,0.007-0.277-0.014c-0.111-0.032-0.2,0-0.197,0.072
				s-0.027,0.033,0.13,0.005c0.158-0.027,0.404-0.068,0.354,0.018c-0.052,0.085-0.087,0.12-0.22,0.126
				c-0.129,0.006-0.226,0.002-0.168,0.078c0.056,0.079,0.241,0.111,0.125,0.142c-0.116,0.028-0.037,0.091-0.15,0.112
				c-0.117,0.022-0.165,0.009-0.21,0.146c-0.045,0.135-0.189,0.273-0.08,0.251c0.105-0.022,0.108-0.076,0.226-0.025
				c0.12,0.052,0.342,0.116,0.168,0.114s-0.308-0.032-0.173,0.027c0.138,0.059,0.202-0.011,0.294,0.076
				c0.087,0.083,0.275,0.211,0.067,0.214c-0.209,0-0.348-0.076-0.461,0.001c-0.112,0.072-0.24,0.139-0.112,0.18
				c0.13,0.043,0.382,0.052,0.301,0.089c-0.08,0.038-0.185,0.027-0.099,0.069c0.086,0.043,0.311,0.148,0.165,0.198
				c-0.068,0.023-0.128,0.009-0.173-0.007c-0.049-0.017-0.081-0.034-0.084,0.004c-0.008,0.073-0.045,0.136,0.048,0.18
				c0.094,0.042,0.383,0.15,0.236,0.17c-0.148,0.02-0.174,0.038-0.234-0.02c-0.063-0.052-0.161-0.097-0.195-0.015
				c-0.032,0.08-0.123,0.129,0.02,0.148c0.143,0.021,0.292,0.097,0.202,0.15c-0.088,0.054-0.275,0.188-0.385,0.11
				c-0.109-0.079-0.232-0.189-0.316-0.127s-0.288,0.11-0.215,0.185c0.072,0.075,0.017,0.092,0.178,0.182
				C21,5.076,21.206,5.174,21.237,5.29c0.028,0.114,0.148-0.018,0.131,0.149c-0.019,0.165-0.018,0.259-0.165,0.238
				c-0.148-0.021-0.236-0.059-0.314-0.162c-0.078-0.102-0.069-0.191-0.185-0.114c-0.116,0.078-0.206,0.064-0.342,0.125
				c-0.137,0.058-0.404,0.108-0.178,0.168c0.13,0.036,0.201,0.026,0.284,0.015c0.058-0.007,0.126-0.014,0.229-0.006
				c0.247,0.023,0.574,0.038,0.487,0.131c-0.086,0.09-0.167,0.222-0.337,0.253c-0.171,0.025-0.361,0.198-0.645,0.213
				c-0.284,0.013-0.372,0.12-0.573,0.124c-0.2,0.004-0.256,0.159-0.388,0.326c-0.13,0.165-0.663,0.413-0.69,0.314
				s-0.075-0.013-0.117,0.054c-0.043,0.067-0.193,0.024-0.294,0.146c-0.102,0.124-0.283,0.067-0.173,0.141
				c0.11,0.075-0.097,0.086-0.041,0.187c0.056,0.102,0.047,0.293-0.08,0.325c-0.126,0.033-0.179,0.031-0.139,0.193
				c0.041,0.163-0.043,0.543-0.206,0.555c-0.165,0.01-0.182,0.094-0.288,0.008c-0.103-0.085-0.094-0.15-0.221-0.146
				c-0.125,0.003-0.194,0.073-0.328-0.058c-0.133-0.131-0.667-0.687-0.583-0.799c0.086-0.112,0.195-0.264,0.08-0.215
				c-0.115,0.048-0.132,0.273-0.182,0.1c-0.048-0.174,0.005-0.244-0.094-0.3s-0.289-0.211-0.158-0.307
				c0.129-0.097,0.234-0.051,0.074-0.137c-0.161-0.085-0.205-0.178-0.099-0.324c0.109-0.146,0.196-0.215,0.29-0.204
				c0.094,0.01,0.029-0.143,0.16-0.252c0.132-0.11,0.238-0.175,0.045-0.186c-0.069-0.003-0.094,0.013-0.104,0.029
				c-0.02,0.028,0,0.056-0.125-0.023c-0.199-0.122-0.572-0.191-0.385-0.239c0.188-0.05,0.188-0.023,0.352,0.026
				c0.162,0.048,0.317,0.034,0.179-0.069c-0.14-0.105-0.269-0.413-0.391-0.304C15.6,5.375,15.528,5.54,15.44,5.414
				c-0.089-0.126-0.191-0.141-0.071-0.285c0.122-0.146,0.034-0.314-0.073-0.495c-0.108-0.178-0.23-0.076-0.198-0.201
				c0.032-0.123,0.027-0.116-0.135-0.242c-0.16-0.128-0.144-0.116-0.205-0.238c-0.062-0.119-0.545-0.297-0.937-0.247
				c-0.391,0.049-0.326,0.083-0.529,0.057c-0.203-0.026-0.496-0.01-0.405-0.097c0.091-0.09,0.28-0.162,0.124-0.161
				c-0.154,0-0.575-0.02-0.448-0.115c0.13-0.093,0.168-0.088,0.3-0.086c0.131,0.001,0.457,0.083,0.506-0.004
				c0.048-0.09,0.083-0.177-0.054-0.122c-0.136,0.057-0.163,0.1-0.369,0.051c-0.206-0.047-0.329-0.012-0.476-0.107
				c-0.148-0.096-0.354-0.181,0.001-0.29c0.356-0.108,0.403-0.243,0.808-0.228c0,0,0.291,0.034,0.375-0.179
				c0,0-0.039-0.042,0.048-0.099c0.084-0.057,0.075-0.102-0.014-0.102c-0.089,0-0.318,0.083-0.391,0.016
				c-0.073-0.065-0.094-0.098,0.033-0.16c0.129-0.061,0.209-0.104,0.279-0.174c0.07-0.071,0.129-0.118,0.222-0.108
				c0.094,0.01,0.252,0.089,0.353,0.062c0.097-0.027,0.139-0.017,0.081-0.116c-0.056-0.099-0.014-0.094,0.03-0.123
				c0.042-0.028-0.146-0.102,0.005-0.126c0.067-0.012,0.124-0.003,0.167,0.004c0.053,0.009,0.083,0.018,0.083-0.006
				c0.004-0.047-0.055-0.028-0.031-0.07c0.022-0.042,0.602-0.133,0.729-0.13c0.129,0.002,0.29,0.044,0.263,0.133
				c-0.026,0.088-0.136,0.134-0.045,0.134c0.091-0.001,0.033-0.057,0.147-0.097c0.116-0.041,0.361-0.058,0.48-0.006
				c0.117,0.054,0.243,0.092,0.171,0.019c-0.073-0.072-0.397-0.245-0.254-0.283c0.146-0.039,0.75,0.107,1.035,0.304
				c0.179,0.079,0.082-0.038,0.047-0.089c-0.034-0.049,0.046-0.135,0.155-0.135c0.109,0-0.353-0.165-0.253-0.225
				c0.101-0.059-0.085-0.07,0.044-0.122c0.13-0.052,0.208-0.193,0.396-0.094c0.191,0.097,0.492,0.236,0.593,0.147
				c0.049-0.045,0.118-0.043,0.158-0.042c0.042,0.001,0.062,0.003,0.026-0.036c-0.073-0.081-0.231-0.067-0.111-0.115
				c0.076-0.031,0.148-0.026,0.219-0.023c0.043,0.003,0.086,0.005,0.124,0c0.104-0.013-0.076-0.075,0.126-0.075
				c0.067,0,0.215,0.005,0.387,0.013C17.55,0.247,16.047,0,14.486,0c-3.369,0-6.47,1.15-8.931,3.078
				c0.083,0.01,0.132,0.017,0.088,0.038C5.572,3.151,5.691,3.199,5.62,3.245C5.549,3.291,5.486,3.272,5.397,3.299
				C5.329,3.32,5.286,3.341,5.243,3.334C5.1,3.454,4.959,3.576,4.821,3.7c0.009,0.005,0.021,0.01,0.036,0.017
				c0.054,0.024,0.062,0.016,0.071,0.009c0.009-0.01,0.019-0.019,0.108,0.025c0.162,0.082,0.129,0.062,0.177,0.127
				c0.048,0.064,0.074,0.097,0.143,0.094c0.032,0,0.05,0.008,0.069,0.017c0.022,0.01,0.046,0.019,0.098,0.015
				c0.094-0.007,0.189-0.01,0.22-0.032c0.029-0.021,0.079-0.023,0-0.064c-0.082-0.04-0.054-0.042-0.038-0.093
				C5.72,3.762,5.774,3.742,5.702,3.739c-0.024,0-0.053,0.007-0.079,0.013C5.573,3.765,5.529,3.778,5.521,3.739
				C5.51,3.683,5.449,3.663,5.537,3.645c0.085-0.017,0.067-0.092,0.19-0.092c0.004,0,0.01,0,0.015,0
				c0.14,0.007,0.14-0.005,0.151,0.064c0.011,0.069,0.01,0.126,0.056,0.171C5.994,3.836,6.016,3.886,6.07,3.864
				C6.093,3.855,6.1,3.858,6.108,3.862c0.009,0.004,0.021,0.007,0.068-0.011C6.262,3.816,6.289,3.787,6.32,3.857
				c0.031,0.07,0.083,0.069,0.047,0.16c-0.034,0.09-0.027,0.16-0.112,0.178c-0.083,0.015-0.11,0.003-0.198,0
				c-0.087,0-0.124-0.043-0.208-0.018c-0.086,0.027-0.067,0.01-0.147,0.05c-0.082,0.041-0.1-0.004-0.192,0.05
				C5.417,4.334,5.467,4.35,5.38,4.369C5.294,4.39,5.259,4.41,5.166,4.387C5.129,4.38,5.089,4.381,5.052,4.383
				C4.989,4.386,4.929,4.389,4.88,4.354c0,0-0.135-0.081-0.027-0.089c0.11-0.006,0.143-0.04,0.246-0.028
				c0.103,0.01,0.114,0.021,0.174-0.018C5.335,4.18,5.417,4.174,5.34,4.156c-0.078-0.018,0-0.061-0.14-0.016
				C5.059,4.186,5.011,4.188,4.978,4.166C4.946,4.143,4.941,4.125,4.94,4.093C4.939,4.061,4.933,3.969,4.892,4.052
				c-0.041,0.082-0.016,0.137-0.101,0.14c-0.084,0.002-0.075,0.015-0.137-0.01c-0.028-0.013-0.031-0.008-0.04-0.004
				C4.604,4.181,4.589,4.187,4.529,4.17C4.48,4.16,4.439,4.161,4.403,4.163C4.373,4.165,4.351,4.166,4.334,4.158
				C4.211,4.278,4.091,4.4,3.973,4.525c0.089,0.06,0.076-0.034,0.204-0.092c0.03-0.014,0.057-0.019,0.081-0.019
				c0.081,0,0.135,0.067,0.215,0.13c0.101,0.079,0.106,0.095,0.16,0.187c0.032,0.054-0.01,0.048-0.075,0.044
				C4.514,4.772,4.458,4.768,4.412,4.786C4.307,4.828,4.246,4.889,4.136,4.943C4.023,4.996,4.001,4.98,3.916,5.045
				C3.83,5.11,3.797,5.126,3.777,5.255c-0.021,0.126-0.075,0.182-0.17,0.182c-0.096,0-0.236,0.07-0.236,0.07
				C3.233,5.518,3.274,5.42,3.221,5.398C3.217,5.397,3.213,5.396,3.21,5.395c-0.162,0.202-0.321,0.41-0.474,0.621
				C2.749,6.033,2.759,6.048,2.77,6.062C2.88,6.207,2.835,5.898,2.953,5.851z M14.093,12.147c0,0-0.042-0.015-0.105-0.026
				c-0.063-0.007-0.107-0.009-0.151-0.051c-0.042-0.04-0.073-0.046-0.054-0.079c0.015-0.027,0.01-0.076,0.031-0.076
				c0.005,0,0.013,0.004,0.024,0.013c0.05,0.041,0.04,0.06,0.089,0.084c0.05,0.028,0.127,0.028,0.149,0.051
				C14.102,12.084,14.188,12.187,14.093,12.147z M14.234,11.488c-0.09-0.007-0.288-0.083-0.343-0.116
				c-0.056-0.034-0.119-0.067-0.119-0.067s-0.105-0.047-0.014-0.048c0.001,0,0.004,0,0.006,0c0.089,0,0.199,0.03,0.258,0.064
				c0.061,0.033,0.173,0.055,0.2,0.094C14.25,11.452,14.325,11.495,14.234,11.488z M11.644,17.755
				c-0.064,0.024-0.092,0.069-0.189,0.051c0,0-0.235-0.083-0.128-0.115c0.068-0.02,0.095-0.034,0.124-0.034
				c0.017,0,0.034,0.004,0.062,0.014C11.588,17.701,11.708,17.729,11.644,17.755z M11.979,17.378c0,0-0.064,0.049-0.192,0.019
				c-0.129-0.033-0.151-0.004-0.218,0.024c-0.068,0.03-0.246,0.03-0.129-0.039c0.118-0.067,0.061-0.141-0.089-0.14
				c-0.149,0-0.068-0.067-0.143-0.139c-0.076-0.07-0.208,0.004-0.308-0.09c-0.042-0.037-0.073-0.031-0.103-0.025
				c-0.042,0.009-0.085,0.017-0.158-0.094c-0.082-0.083-0.189,0.036-0.237,0.097c-0.045,0.06-0.195,0.126-0.2,0.028
				c-0.009-0.099,0.194-0.227,0.334-0.227c0.045,0,0.096-0.005,0.151-0.005c0.11,0,0.244,0.019,0.44,0.129
				c0.34,0.191,0.139,0.101,0.421,0.195C11.819,17.204,12.08,17.333,11.979,17.378z M12.982,17.701
				c-0.2-0.017-0.274-0.024-0.35,0.033c-0.075,0.058-0.102,0.122-0.172,0.03c-0.067-0.095-0.218-0.05-0.296-0.028
				c-0.078,0.021-0.085,0.067-0.119,0.012c0,0-0.107-0.149,0.043-0.113c0.15,0.041,0.214,0.029,0.214-0.054
				c0-0.083-0.025-0.109-0.086-0.109c-0.06,0-0.078-0.078,0.047-0.083c0.003,0,0.007,0,0.011,0c0.12,0,0.206,0.045,0.311,0.045
				c0.106,0,0.099-0.064,0.26,0.067C13.007,17.634,13.182,17.718,12.982,17.701z M13.54,17.761
				c-0.064,0.011-0.257,0.042-0.264-0.006c0,0-0.021-0.078,0.082-0.067c0.04,0.002,0.077-0.001,0.109-0.003
				c0.023-0.002,0.044-0.005,0.061-0.005c0.02,0,0.033,0.004,0.037,0.013C13.577,17.722,13.604,17.75,13.54,17.761z M20.915,7.189
				c0.028-0.088,0.277-0.334,0.39-0.241c0.114,0.092,0.048,0.2,0.162,0.22c0.112,0.023,0.106,0.061,0.136-0.048
				c0.029-0.109,0.025-0.099,0.121-0.074c0.046,0.012,0.058-0.001,0.075-0.016c0.021-0.014,0.047-0.028,0.13-0.014
				c0.163,0.026,0.106,0.079,0.201,0c0.079-0.067,0.058-0.12,0.133-0.12c0.015,0,0.034,0.001,0.058,0.006
				c0.146,0.026,0.107,0.013,0.216,0.076c0.111,0.064,0.065,0.088,0.169,0.161c0.105,0.072,0.207,0.137,0.101,0.251
				c-0.107,0.113-0.189,0.198-0.407,0.26c-0.216,0.061-0.359,0.202-0.591,0.138c-0.232-0.063-0.375-0.037-0.481-0.106
				c-0.107-0.069,0.036-0.027-0.032-0.134c-0.067-0.108-0.358-0.082-0.272-0.151c0.085-0.071,0.057-0.079,0.171-0.098
				c0.05-0.007,0.107-0.099,0.041-0.106c-0.068-0.008-0.125,0.011-0.19,0.038C20.979,7.26,20.884,7.278,20.915,7.189z M15.451,5.881
				c0,0,0.015-0.143,0.113-0.143c0.018,0,0.039,0.004,0.061,0.015c0.153,0.068,0.372,0.098,0.337,0.177
				c-0.034,0.082,0.02,0.122-0.15,0.143C15.645,6.096,15.5,6.077,15.47,6.008C15.439,5.938,15.446,5.928,15.451,5.881z M6.308,6.32
				c-0.07-0.009-0.093,0.019-0.28,0.107c-0.184,0.089-0.18-0.062-0.18-0.062c0.03-0.069,0.252-0.093,0.394-0.15
				c0.039-0.015,0.063-0.021,0.082-0.021c0.051,0,0.048,0.048,0.1,0.09C6.498,6.344,6.378,6.327,6.308,6.32z M8.003,5.244
				c0.011,0.094-0.05,0.054-0.122,0.105C7.841,5.376,7.82,5.366,7.802,5.356C7.789,5.349,7.775,5.341,7.754,5.349
				c-0.05,0.019-0.11,0.075-0.11,0.075C7.603,5.43,7.567,5.441,7.532,5.392c-0.037-0.05-0.058-0.115-0.139-0.154
				c-0.083-0.04-0.096-0.006-0.211-0.109c-0.115-0.103-0.117-0.039-0.25-0.11C6.799,4.947,6.918,4.897,6.967,4.833
				c0.05-0.064,0.082,0.024,0.218,0.121C7.322,5.05,7.292,4.971,7.334,4.921c0.045-0.05-0.021-0.072-0.153-0.143
				c-0.133-0.07-0.043-0.106,0.007-0.167C7.239,4.55,7.292,4.582,7.36,4.532c0.016-0.013,0.03-0.017,0.044-0.017
				c0.04,0,0.068,0.046,0.13,0.089c0.083,0.056,0.104,0.003,0.164,0c0.061-0.004,0.014,0,0.099-0.034
				c0.086-0.031,0.086,0.007,0.15,0.073c0.065,0.064-0.01,0.042-0.124,0.104s-0.071,0.1,0.007,0.143
				C7.909,4.93,7.9,4.945,7.977,4.98c0.081,0.036,0.044,0.042,0.027,0.109C7.985,5.152,7.991,5.152,8.003,5.244z M7.121,3.834
				C7.045,3.787,6.97,3.807,7.016,3.739c0.045-0.067,0.029-0.143,0.108-0.08c0.078,0.062,0.034,0.08,0.114,0.135
				C7.318,3.846,7.343,3.878,7.37,3.85c0.027-0.03,0.091-0.033,0.018-0.08c-0.072-0.045-0.15-0.02-0.122-0.084
				c0.022-0.049-0.021-0.098,0.022-0.098c0.015,0,0.041,0.007,0.081,0.019c0.091,0.03,0.105,0.02,0.125,0.009
				C7.513,3.608,7.535,3.599,7.6,3.609c0.152,0.024,0.173-0.019,0.218,0.07C7.859,3.767,7.929,3.774,7.855,3.86
				C7.78,3.946,7.778,3.966,7.762,4.024C7.746,4.08,7.735,4.148,7.655,4.163C7.575,4.177,7.497,4.201,7.432,4.18
				C7.369,4.159,7.283,4.159,7.323,4.083c0.041-0.075,0.126-0.069,0.109-0.113c-0.017-0.042-0.019-0.099-0.081-0.05
				C7.291,3.968,7.271,4.029,7.19,3.988c-0.022-0.012-0.038,0-0.088,0.004C7.051,3.999,6.908,4.031,6.935,3.969
				c0.026-0.061,0.053-0.101,0.12-0.083C7.121,3.905,7.153,3.934,7.162,3.91C7.17,3.886,7.198,3.884,7.121,3.834z M8.581,4.137
				C8.568,4.232,8.584,4.263,8.517,4.285C8.45,4.306,8.394,4.335,8.315,4.306C8.239,4.276,8.148,4.291,8.09,4.205
				c0,0-0.085-0.069-0.013-0.12c0.072-0.051,0.059-0.105,0.157-0.105c0.067,0,0.087-0.041,0.123-0.041
				c0.017,0,0.037,0.009,0.068,0.037C8.519,4.061,8.595,4.043,8.581,4.137z M8.998,4.315c-0.079-0.024-0.2-0.027-0.208-0.159
				C8.78,4.021,8.873,4.069,8.805,3.952s-0.156-0.228-0.284-0.23c-0.04,0-0.082,0.004-0.124,0.009
				C8.301,3.738,8.209,3.747,8.183,3.703c0,0,0.035-0.017-0.053-0.054C8.042,3.611,7.972,3.637,8,3.565
				c0.025-0.06-0.041-0.114,0.046-0.114c0.014,0,0.031,0.001,0.052,0.004c0.164,0.022,0.082,0.013,0.2,0.043
				C8.344,3.511,8.37,3.503,8.389,3.496C8.418,3.483,8.435,3.472,8.5,3.53c0.105,0.096,0.056,0.131,0.163,0.105
				c0.108-0.027-0.008-0.054,0.155-0.065c0.164-0.01,0.199,0.022,0.252,0.069c0.055,0.048,0.083,0.013,0.156,0.045
				C9.298,3.717,9.352,3.705,9.301,3.77S9.243,3.881,9.325,3.907c0.083,0.027,0.099,0.121,0.226,0.094
				C9.677,3.974,9.677,4.01,9.757,4.037c0.081,0.024,0.021,0.044,0.124-0.012c0.106-0.058,0.303-0.147,0.373-0.132
				c0.039,0.007,0.051,0.003,0.078,0c0.023-0.003,0.056-0.006,0.119-0.003c0.037,0.001,0.072,0,0.104-0.001
				c0.091-0.002,0.16-0.005,0.214,0.04c0.075,0.062,0.169,0.003,0.191,0.129c0.021,0.125,0.169,0.141,0.028,0.222
				c-0.137,0.082-0.148,0.137-0.342,0.082c-0.192-0.055-0.148-0.119-0.276-0.062c-0.129,0.055-0.137,0.089-0.302,0.084
				c-0.06-0.001-0.106,0.002-0.148,0.006C9.85,4.396,9.798,4.403,9.725,4.38c-0.115-0.037-0.209-0.1-0.262-0.096
				C9.409,4.286,9.074,4.34,8.998,4.315z M11.074,4.626c0.059,0.013,0.117,0.024,0.154,0.018c0.089-0.013,0.067-0.029,0.178,0
				c0.11,0.027,0.131,0.118,0.222,0.215c0.062,0.067,0.026,0.063-0.031,0.06c-0.026-0.002-0.054-0.003-0.08,0.002
				c-0.042,0.007-0.106,0.004-0.171,0c-0.05-0.003-0.102-0.006-0.144-0.004c-0.093,0.005-0.064,0.018-0.175,0.04
				c-0.11,0.019-0.12-0.095-0.194-0.191c-0.075-0.094,0.032-0.146,0.032-0.146c0.015-0.011,0.039-0.014,0.065-0.014
				C10.971,4.606,11.023,4.615,11.074,4.626z M10.573,8.068c-0.04,0.009-0.064,0.053-0.088,0.075
				c-0.06,0.057-0.151,0.044-0.214,0.011c-0.064-0.037-0.018-0.055,0.013-0.087c0.028-0.032,0.05-0.054,0.05-0.088
				c0-0.035,0.058,0,0.107,0.011c0.048,0.011,0.03-0.016,0.085-0.041c0.015-0.007,0.026-0.009,0.036-0.009
				c0.023,0,0.031,0.023,0.062,0.052C10.663,8.03,10.612,8.061,10.573,8.068z M10.81,7.837c-0.122-0.044-0.115-0.059-0.188-0.078
				c-0.072-0.019-0.091,0.004-0.136-0.055c-0.045-0.06-0.153-0.13-0.153-0.066s0.035,0.144-0.053,0.152
				C10.19,7.798,10.112,8,10.025,7.921C9.98,7.882,9.95,7.887,9.978,7.84c0.026-0.05,0.078-0.061,0.014-0.075
				C9.928,7.748,9.888,7.722,9.834,7.752C9.78,7.78,9.787,7.855,9.731,7.811c-0.055-0.045-0.16-0.059-0.034-0.103
				c0.125-0.044,0.172-0.017,0.16-0.067C9.848,7.59,9.756,7.559,9.815,7.52C9.874,7.482,9.85,7.265,9.896,7.218
				C9.935,7.18,9.882,7.12,9.912,7.12c0.009,0,0.024,0.005,0.051,0.017c0.122,0.054,0.073,0.08,0.157,0.13
				c0.037,0.023,0.049,0.015,0.062,0.007c0.015-0.01,0.031-0.02,0.097,0.034c0.114,0.094,0.127,0.096,0.232,0.144
				s0.12,0.027,0.15,0.107c0.03,0.082,0.062,0.051,0.14,0.091C10.879,7.689,10.931,7.88,10.81,7.837z M12.557,5.462
				c0.04,0.119-0.057,0.108,0.086,0.137c0.144,0.028,0.439,0.032,0.381,0.121c-0.058,0.089-0.089,0.127,0.003,0.103
				c0.092-0.023,0.074-0.134,0.139-0.029c0.064,0.104,0.037,0.108-0.014,0.178c-0.05,0.069,0.205,0.045,0.117,0.136
				c-0.089,0.09-0.326,0.189-0.133,0.215c0.191,0.026,0.161,0.005,0.304,0.151c0.144,0.147,0.239-0.013,0.391,0.185
				c0.089,0.115,0.11,0.105,0.131,0.096c0.014-0.007,0.027-0.014,0.066,0.026c0.042,0.045,0.108,0.041,0.164,0.037
				c0.067-0.004,0.119-0.01,0.095,0.066c-0.042,0.139-0.048,0.26-0.206,0.263c-0.16,0.002-0.057,0.406-0.22,0.224
				c-0.161-0.182-0.265-0.078-0.265-0.182c0.001-0.105-0.108-0.072-0.174-0.145c-0.066-0.072-0.176-0.165-0.175-0.056
				c0.002,0.11-0.175,0.06-0.068,0.165c0.108,0.106,0.131,0.075,0.196,0.197c0.064,0.12,0.076,0.086,0.191,0.211
				c0.117,0.124,0.157,0.215,0.117,0.316c-0.038,0.101,0.064,0.224-0.086,0.141c-0.072-0.04-0.11-0.04-0.144-0.04
				c-0.034,0.001-0.062,0.002-0.122-0.049C13.22,7.828,12.94,7.667,13.01,7.778c0.07,0.111,0.222,0.202,0.334,0.274
				c0.113,0.073,0.276,0.238,0.099,0.208c-0.179-0.029-0.324-0.055-0.432-0.082c-0.109-0.029-0.535-0.163-0.557-0.312
				c-0.021-0.152-0.057-0.127-0.099-0.133c-0.045-0.007-0.182-0.048-0.273-0.166c-0.046-0.06-0.099-0.035-0.146-0.009
				c-0.043,0.023-0.08,0.046-0.102,0c0,0-0.034-0.096-0.125-0.029c-0.091,0.067-0.193,0.113-0.303,0.055
				c-0.109-0.059-0.144-0.113-0.067-0.209c0.078-0.097,0.122-0.162,0.254-0.109c0.134,0.054,0.144,0.07,0.255,0.027
				c0.112-0.044,0.316,0.006,0.253-0.082c-0.062-0.089-0.148-0.089-0.069-0.187c0.08-0.1,0.224-0.213,0.286-0.261
				c0.062-0.048,0.072-0.056-0.012-0.165c-0.083-0.109-0.208-0.186-0.322-0.297c-0.113-0.113-0.132-0.117-0.189-0.115
				C11.74,6.19,11.66,6.333,11.614,6.279c-0.045-0.054-0.11-0.099-0.028-0.124c0.042-0.011,0.068-0.011,0.087-0.011
				c0.02,0,0.035,0,0.053-0.011c0.038-0.024,0.105-0.043,0-0.078c-0.105-0.034-0.228-0.066-0.28-0.143
				c-0.053-0.079-0.227-0.234-0.262-0.161c-0.035,0.073,0.075,0.179-0.069,0.155c-0.146-0.024-0.249-0.062-0.309-0.054
				c-0.06,0.009,0.06,0.074-0.001,0.078c-0.031,0-0.067-0.012-0.101-0.025c-0.03-0.013-0.059-0.025-0.075-0.025
				c-0.035,0-0.053,0.058-0.106,0.026c-0.054-0.033-0.292-0.059-0.387-0.032S9.882,5.872,9.829,5.785
				C9.803,5.744,9.723,5.751,9.64,5.759C9.548,5.768,9.454,5.775,9.425,5.72C9.368,5.616,9.261,5.545,9.363,5.531
				c0.043-0.005,0.073,0.006,0.099,0.017c0.034,0.014,0.055,0.029,0.077,0C9.576,5.496,9.514,5.429,9.45,5.454
				C9.385,5.477,9.254,5.499,9.22,5.392C9.187,5.284,9.204,5.047,9.303,4.916C9.387,4.803,9.645,4.568,9.89,4.568
				c0.041,0,0.081,0.006,0.12,0.02c0.274,0.102,0.051,0.105-0.042,0.156C9.875,4.797,9.73,4.863,9.785,5
				c0.056,0.138,0.041,0.251,0.117,0.301c0.075,0.049,0.192,0.162,0.223,0.113c0.03-0.051,0.094-0.051-0.004-0.098
				C10.02,5.268,9.914,5.295,9.962,5.213c0.049-0.082,0.117-0.037,0.086-0.1c-0.029-0.062-0.096-0.03-0.103-0.125
				C9.94,4.893,10.17,4.693,10.329,4.655c0.157-0.038,0.391-0.096,0.445,0.109c0.052,0.202,0.141,0.212,0.094,0.309
				s-0.077,0.216-0.005,0.162s0.012-0.099,0.119-0.098c0.104,0,0.115,0.045,0.169,0.025c0.055-0.017,0.103-0.223,0.303-0.182
				c0.198,0.037,0.304-0.008,0.426,0.133c0.122,0.144,0.122,0.316,0.285,0.303C12.327,5.4,12.518,5.344,12.557,5.462z M11.471,6.508
				c0.01-0.084,0.146-0.127,0.146-0.127c0.012-0.003,0.024-0.004,0.038-0.004c0.048,0,0.108,0.015,0.173,0.038
				c0.081,0.028,0.028,0.074,0.025,0.209c-0.002,0.094-0.035,0.091-0.072,0.088c-0.018,0-0.036-0.001-0.054,0.006
				C11.67,6.74,11.523,6.708,11.47,6.671C11.416,6.632,11.461,6.595,11.471,6.508z M9.399,1.429C9.468,1.392,9.53,1.403,9.602,1.413
				c0.061,0.009,0.127,0.018,0.21-0.001C9.993,1.37,9.768,1.399,9.773,1.318c0.081-0.129,0.577-0.022,0.703,0.011
				c0.126,0.031,0.16,0.014,0.031-0.084c-0.128-0.098,0.14-0.199,0.376-0.191c0.235,0.007,0.173,0.09,0.478-0.021
				c0.337-0.118,0.5-0.141,0.633-0.141c0.04,0,0.079,0.002,0.119,0.004c0.05,0.003,0.102,0.006,0.164,0.003
				c0.139-0.004,0.252,0.017,0.373,0.038c0.117,0.02,0.238,0.04,0.393,0.038c0.311-0.006,0.246,0.079,0.073,0.134
				C12.943,1.162,13.3,1.133,13.55,1.054c0.25-0.075,0.508,0.119,0.708,0.188c0.2,0.068-0.046,0.097-0.144,0.162
				c-0.099,0.067-0.378,0.109-0.492,0.123c-0.112,0.014-0.274,0.056-0.457,0.117s-0.034,0.085,0.13,0.039
				c0.165-0.047,0.175-0.047,0.347-0.071c0.171-0.023,0.073,0.065-0.11,0.12c-0.185,0.054-0.67,0.354-0.747,0.42
				c-0.038,0.031-0.062,0.03-0.083,0.028c-0.022-0.002-0.04-0.003-0.061,0.035c-0.04,0.076-0.068,0.115-0.186,0.178
				c-0.116,0.063-0.173-0.003-0.277-0.028c-0.105-0.024,0.011,0.028,0.001,0.108c-0.005,0.044-0.083,0.04-0.168,0.036
				c-0.071-0.004-0.146-0.008-0.185,0.017c-0.088,0.053,0.106,0.019,0.154,0.097c0.03,0.048-0.017,0.043-0.083,0.038
				c-0.042-0.003-0.088-0.006-0.128,0.003c-0.104,0.024,0.031,0.031,0.128,0.095c0.096,0.064-0.079,0.089-0.147,0.114
				c-0.067,0.024-0.01,0.024,0.063,0.069c0.073,0.044-0.177,0.131-0.304,0.158c-0.066,0.013-0.092,0.007-0.116,0.003
				c-0.022-0.004-0.042-0.01-0.093,0.001c-0.102,0.024,0.002,0.051,0.037,0.126c0.037,0.075-0.074,0.078-0.134,0.097
				c-0.061,0.02-0.067-0.003-0.113,0.039c-0.046,0.042,0.019,0.054,0.115,0.089c0.046,0.018,0.061,0.012,0.072,0.006
				c0.011-0.007,0.019-0.013,0.057,0.009c0.077,0.046,0.007,0.046-0.051,0.119c-0.055,0.073-0.148,0.069-0.24,0.119
				c-0.057,0.03-0.078,0.028-0.108,0.027c-0.02,0-0.042-0.001-0.082,0.005c-0.1,0.018-0.033-0.093-0.033-0.093
				c0.004-0.062-0.257-0.083-0.434,0c-0.178,0.083-0.136,0.1-0.374,0.054C9.778,3.653,9.642,3.625,9.458,3.667
				c-0.181,0.045-0.225-0.12-0.104-0.21c0.121-0.089,0.251-0.026,0.344-0.081C9.792,3.321,9.531,3.243,9.54,3.135
				c0.008-0.109,0.288-0.014,0.389,0.098c0.097,0.111,0.261,0.065,0.379,0.041c0.118-0.027-0.059-0.04-0.198-0.044
				C9.97,3.225,10.011,3.139,10.02,3.075c0.009-0.065-0.017-0.043-0.048-0.085C9.941,2.95,9.878,2.992,9.729,3.024
				s-0.051-0.096,0-0.193c0.054-0.096,0.175-0.09,0.312-0.105c0.136-0.014,0.349,0.015,0.508,0.017c0.078,0,0.022-0.018-0.066-0.037
				c-0.093-0.02-0.224-0.039-0.275-0.036c-0.097,0.006-0.082-0.042-0.022-0.064s-0.091-0.198-0.232-0.208
				C9.814,2.385,9.76,2.293,9.781,2.191c0.022-0.104,0.517-0.067,0.615,0.043c0.096,0.11,0.236,0.164,0.444,0.2
				c0.209,0.034-0.163-0.135-0.339-0.228c-0.178-0.094,0.091-0.128,0.337-0.114c0.247,0.014,0.23-0.033,0.435-0.054
				c0.206-0.021-0.035-0.027-0.184-0.105c-0.119-0.062,0.212-0.09,0.239-0.212c0.01-0.039-0.328,0.165-0.513,0.279
				c-0.184,0.113-0.47,0.067-0.401,0.017c0.07-0.051-0.061-0.065-0.061-0.065c-0.06-0.007-0.092,0.02-0.14,0.047
				c-0.065,0.035-0.16,0.072-0.388,0.028C9.675,2.021,9.814,1.98,9.936,1.869c0.121-0.113-0.122,0.064-0.288,0.129
				C9.48,2.063,9.39,1.923,9.46,1.865c0.037-0.032,0.003-0.029-0.065-0.026c-0.064,0.002-0.156,0.006-0.25-0.02
				C8.953,1.768,9.194,1.717,9.189,1.636C9.187,1.596,9.14,1.609,9.082,1.623c-0.061,0.015-0.138,0.029-0.195-0.02
				C8.773,1.513,9.275,1.497,9.399,1.429z M8.049,2.189C8.003,2.157,8.062,2.104,8.117,2.04c0.035-0.04,0.1-0.031,0.16-0.023
				c0.038,0.004,0.073,0.01,0.1,0.004c0.071-0.016-0.064-0.016-0.165-0.051C8.11,1.936,8.186,1.89,8.26,1.83
				c0.04-0.032,0.098-0.027,0.155-0.023c0.048,0.004,0.094,0.008,0.128-0.01C8.618,1.758,8.417,1.8,8.417,1.718
				c0-0.018,0.018-0.025,0.046-0.025c0.107,0,0.368,0.107,0.45,0.193C9.017,2,8.964,1.983,9.064,2.037
				C9.122,2.067,9.145,2.06,9.182,2.051c0.027-0.006,0.061-0.012,0.12-0.003C9.444,2.065,9.33,2.17,9.415,2.202
				c0.086,0.032,0.002-0.02,0.043-0.097c0.04-0.078,0.214,0.161,0.222,0.238C9.686,2.391,9.7,2.391,9.733,2.391
				c0.02,0,0.047,0,0.083,0.01c0.096,0.029,0.225,0.096,0.241,0.156c0.018,0.059-0.219,0.078-0.331,0.145
				C9.616,2.768,9.612,2.788,9.545,2.749c-0.067-0.041-0.129,0.126-0.242,0.22C9.192,3.062,8.876,2.994,8.876,2.994
				C8.774,2.991,8.734,2.93,8.613,2.859C8.491,2.791,8.49,2.772,8.46,2.654c-0.02-0.078,0.091-0.07,0.225-0.062
				C8.753,2.598,8.83,2.602,8.896,2.594c0.199-0.022-0.346-0.065-0.491-0.039C8.327,2.57,8.296,2.543,8.265,2.518
				C8.24,2.495,8.214,2.473,8.16,2.476C8.042,2.482,8.068,2.398,7.979,2.28S8.093,2.221,8.049,2.189z M7.736,2.798
				C7.787,2.793,7.817,2.78,7.851,2.78c0.027,0,0.056,0.01,0.1,0.035c0.1,0.062,0.041,0.065,0.146,0.067
				c0.028,0,0.051-0.001,0.072-0.004C8.22,2.872,8.246,2.865,8.26,2.924c0.02,0.075,0.077,0.073-0.021,0.13
				c-0.1,0.058-0.209,0.081-0.3,0.067c0,0-0.074-0.003-0.116-0.08C7.781,2.964,7.754,2.978,7.726,2.919
				C7.7,2.859,7.646,2.805,7.736,2.798z M6.426,2.571c0.088-0.017,0.147-0.067,0.203-0.067c0.021,0,0.042,0.006,0.062,0.024
				c0.08,0.064,0.069,0.096,0.194,0.146C6.949,2.7,6.952,2.691,6.961,2.682C6.97,2.673,6.982,2.665,7.053,2.684
				c0.148,0.04,0.137,0.03,0.211,0.102c0.072,0.072,0.237,0.175,0.272,0.229c0.036,0.053,0.133,0.085,0.014,0.116
				C7.433,3.165,7.386,3.216,7.297,3.14C7.205,3.062,7.258,3.002,7.144,2.988C7.028,2.971,7.061,2.977,6.936,2.973
				c-0.04-0.004-0.078,0.003-0.111,0.009c-0.068,0.013-0.119,0.025-0.15-0.031C6.635,2.879,6.645,2.88,6.71,2.881
				c0.01,0,0.021,0.001,0.033,0.001c0,0,0.083-0.021,0-0.095C6.661,2.711,6.692,2.725,6.62,2.737
				c-0.073,0.011-0.117,0.006-0.099-0.03C6.539,2.672,6.51,2.702,6.449,2.665C6.388,2.628,6.306,2.595,6.426,2.571z M4.161,5.107
				c0.034-0.057,0.058-0.075,0.162-0.161C4.427,4.86,4.465,4.901,4.599,4.84c0.137-0.059,0.237-0.056,0.288,0.027
				c0.051,0.082-0.023,0.054-0.012,0.127C4.884,5.07,4.934,4.99,4.991,4.937C5.05,4.883,5.047,4.906,5.161,4.93
				C5.273,4.955,5.34,4.999,5.402,5.08c0.062,0.081,0.059-0.027,0.13-0.048C5.605,5.01,5.52,4.97,5.536,4.908
				C5.552,4.847,5.587,4.901,5.68,4.903c0.094,0,0.07,0.051,0.146,0.108C5.9,5.07,5.873,5.081,5.904,5.186
				c0.029,0.104,0.013,0.083,0.071,0.129c0.06,0.044,0.073-0.028,0.089-0.065C6.08,5.212,6.048,5.164,5.994,5.087
				C5.94,5.01,5.985,4.975,5.95,4.884C5.916,4.793,5.975,4.807,6.068,4.792C6.082,4.791,6.093,4.79,6.104,4.79
				c0.059,0,0.069,0.032,0.149,0.072c0.093,0.048,0.089,0.128,0.153,0.188C6.471,5.106,6.471,5.162,6.498,5.22
				c0.027,0.059,0.083,0.129,0.119,0.183c0.035,0.053,0.002,0.09,0.005,0.169C6.625,5.653,6.727,5.65,6.802,5.67
				c0.075,0.017,0.245,0.122,0.361,0.177C7.282,5.902,7.196,5.92,7.129,5.966s-0.075,0.016-0.171-0.01
				C6.862,5.929,6.891,5.959,6.812,5.988c-0.076,0.03,0.04,0.044,0.122,0.091c0.08,0.044,0.053,0.002,0.105,0.064
				C7.094,6.204,6.984,6.184,6.896,6.22c-0.088,0.04-0.14,0.028-0.257,0.017c-0.118-0.01-0.104-0.067-0.192-0.07
				C6.358,6.161,6.334,6.111,6.299,6.103C6.161,6.072,6.063,6.148,6.01,6.175C5.957,6.202,5.912,6.216,5.788,6.267
				C5.666,6.318,5.438,6.302,5.352,6.334c-0.085,0.032-0.154-0.023-0.299-0.04C4.907,6.28,4.963,6.188,4.926,6.122
				c-0.038-0.063-0.072-0.07-0.25-0.033c-0.176,0.04-0.15-0.037-0.219-0.059C4.388,6.01,4.355,5.926,4.35,5.846
				C4.346,5.787,4.451,5.791,4.576,5.792c0.048,0,0.098,0.001,0.146,0c0.175-0.009,0.2,0.008,0.353,0.023
				c0.152,0.015,0.13,0,0.229-0.062S5.19,5.721,5.077,5.674C4.966,5.626,4.951,5.661,4.828,5.661c-0.122,0-0.235-0.032-0.348-0.023
				c-0.113,0.007-0.15,0.001-0.25-0.017c-0.103-0.018-0.071-0.068-0.05-0.128c0.015-0.041,0.067-0.033,0.122-0.026
				c0.024,0.003,0.048,0.006,0.071,0.005c0.076-0.002,0.151,0,0.217-0.054c0.066-0.055-0.082-0.042-0.205-0.035
				C4.301,5.386,4.283,5.386,4.262,5.386c-0.011,0-0.021,0-0.042,0c-0.061,0-0.123-0.045-0.167-0.116
				C4.011,5.202,4.125,5.164,4.161,5.107z"/>
		</g>
	</g>
	<path fill="#FFFFFF" d="M28.729,14.788c0,0.252-0.205,0.456-0.456,0.456h-9.486c-0.251,0-0.456-0.204-0.456-0.456l0,0
		c0-0.251,0.204-0.455,0.456-0.455h9.486C28.523,14.333,28.729,14.538,28.729,14.788L28.729,14.788z"/>
	<path fill="#FFFFFF" d="M28.729,17.792c0,0.251-0.205,0.455-0.456,0.455h-9.486c-0.251,0-0.456-0.204-0.456-0.455l0,0
		c0-0.251,0.204-0.456,0.456-0.456h9.486C28.523,17.336,28.729,17.54,28.729,17.792L28.729,17.792z"/>
	<path fill="#FFFFFF" d="M28.729,19.958c0,0.251-0.205,0.456-0.456,0.456h-9.486c-0.251,0-0.456-0.204-0.456-0.456l0,0
		c0-0.252,0.204-0.455,0.456-0.455h9.486C28.523,19.502,28.729,19.706,28.729,19.958L28.729,19.958z"/>
	<path fill="#FFFFFF" d="M18.646,27.422c0.064,0.117,0.165,0.182,0.273,0.182c0.094,0,0.183-0.047,0.254-0.134l4.871-5.917
		c0.079-0.095,0.114-0.203,0.097-0.306c-0.013-0.084-0.059-0.158-0.134-0.206c-0.159-0.106-0.407-0.01-0.661,0.267l-4.05,4.056
		c-0.1,0.089-0.204,0.184-0.335,0.184c-0.062,0-0.129-0.02-0.198-0.062l-1.265-0.894c-0.127-0.109-0.262-0.107-0.317-0.012
		c-0.039,0.067-0.025,0.168,0.033,0.265L18.646,27.422z"/>
	<path fill="#FFFFFF" d="M15.422,9.074v19.906h16.266V9.074H15.422z M30.891,28.089H16.143V10.041h14.748V28.089z"/>
	<path fill="#FFFFFF" d="M28.729,23.395c0,0.251-0.081,0.455-0.181,0.455H24.81c-0.099,0-0.179-0.203-0.179-0.455l0,0
		c0-0.251,0.081-0.455,0.179-0.455h3.738C28.647,22.939,28.729,23.143,28.729,23.395L28.729,23.395z"/>
</g>
</svg>
