<?xml version="1.0" encoding="utf-8"?>
<!-- Generator: Adobe Illustrator 16.0.0, SVG Export Plug-In . SVG Version: 6.00 Build 0)  -->
<!DOCTYPE svg PUBLIC "-//W3C//DTD SVG 1.1//EN" "http://www.w3.org/Graphics/SVG/1.1/DTD/svg11.dtd">
<svg version="1.1" id="Capa_1" xmlns="http://www.w3.org/2000/svg" xmlns:xlink="http://www.w3.org/1999/xlink" x="0px" y="0px"
	 width="49px" height="49px" viewBox="0 0 49 49" enable-background="new 0 0 49 49" xml:space="preserve">
<g>
	<path fill="#FFFFFF" d="M28.986,16.837c0-0.558-0.49-1.013-1.1-1.013H4.66c-0.608,0-1.103,0.455-1.103,1.013L0.842,28.014
		c0,0.559,0.492,1.012,1.099,1.012h23.227c0.607,0,1.102-0.453,1.102-1.012L28.986,16.837z"/>
	<path fill="#FFFFFF" d="M0.195,27.238L2.912,16.06c0-0.559,0.494-1.01,1.102-1.01h21.611v-0.647c0-0.609-0.494-1.1-1.103-1.1
		H13.588v-0.84c0-0.608-0.492-1.101-1.1-1.101H1.1C0.493,11.363,0,11.854,0,12.463v1.94v0.128V26.76c0,0.24,0.08,0.463,0.213,0.645
		C0.202,27.352,0.195,27.295,0.195,27.238z"/>
	<path fill="#FFFFFF" d="M30.383,5.354c-2.936-4.746-8.369-6.701-12.132-4.372c-1.479,0.915-2.469,2.36-2.962,4.059l-2.636-0.395
		l4.275,6.944l6.119-5.391l-2.584-0.387c0.39-0.967,1.025-1.785,1.91-2.333c2.673-1.653,6.529-0.267,8.609,3.101
		c0.117,0.189,0.227,0.382,0.326,0.576C31.053,6.546,30.746,5.942,30.383,5.354z"/>
</g>
</svg>
