<?xml version="1.0" encoding="utf-8"?>
<!-- Generator: Adobe Illustrator 16.0.0, SVG Export Plug-In . SVG Version: 6.00 Build 0)  -->
<!DOCTYPE svg PUBLIC "-//W3C//DTD SVG 1.1//EN" "http://www.w3.org/Graphics/SVG/1.1/DTD/svg11.dtd">
<svg version="1.1" id="Capa_1" xmlns="http://www.w3.org/2000/svg" xmlns:xlink="http://www.w3.org/1999/xlink" x="0px" y="0px"
	 width="49px" height="49px" viewBox="0 0 49 49" enable-background="new 0 0 49 49" xml:space="preserve">
<g>
	<g>
		<path fill="#FFFFFF" d="M25.072,18.17c-0.321,0.863-0.637,1.729-0.968,2.587c-0.329,0.861-0.661,1.72-0.999,2.576l-0.195,0.494
			l-0.295-0.473c-0.57-0.911-1.123-1.832-1.675-2.752c-0.559-0.916-1.092-1.847-1.637-2.771c-0.548-0.923-1.075-1.857-1.606-2.789
			c-0.531-0.932-1.066-1.862-1.58-2.804l0.774,0.321l-2.631,0.788c-0.876,0.268-1.758,0.513-2.638,0.766l-0.642,0.185l-0.195-0.631
			l-0.815-2.639l-0.784-2.65C8.921,7.496,8.664,6.612,8.418,5.725C8.171,4.837,7.912,3.954,7.674,3.063l0.804,0.109l-1.11,1.561
			c-0.367,0.522-0.75,1.034-1.125,1.551C5.491,7.317,4.725,8.341,3.94,9.352c0.602-1.129,1.222-2.248,1.858-3.356
			c0.318-0.553,0.629-1.111,0.957-1.66l0.97-1.652l0.47-0.802l0.333,0.912C8.847,3.658,9.143,4.531,9.449,5.4
			c0.31,0.868,0.607,1.739,0.898,2.613l0.881,2.619l0.849,2.629l-0.838-0.447c0.878-0.26,1.753-0.53,2.634-0.777l2.642-0.754
			l0.518-0.148l0.256,0.469c0.511,0.942,1,1.897,1.496,2.849c0.496,0.951,0.994,1.901,1.47,2.861
			c0.481,0.959,0.973,1.913,1.439,2.879c0.473,0.965,0.946,1.929,1.4,2.902l-0.491,0.021c0.401-0.828,0.809-1.654,1.221-2.478
			C24.232,19.809,24.655,18.991,25.072,18.17z"/>
		<polygon fill="#FFFFFF" points="22.86,23.847 16.429,20.982 23.295,22.538 		"/>
	</g>
	<g>
		<polygon fill="#FFFFFF" points="25.01,29 0,29 0,-0.089 1.725,-0.089 1.725,27.275 25.01,27.275 		"/>
	</g>
</g>
</svg>
