<?xml version="1.0" encoding="utf-8"?>
<!-- Generator: Adobe Illustrator 16.0.0, SVG Export Plug-In . SVG Version: 6.00 Build 0)  -->
<!DOCTYPE svg PUBLIC "-//W3C//DTD SVG 1.1//EN" "http://www.w3.org/Graphics/SVG/1.1/DTD/svg11.dtd">
<svg version="1.1" id="Capa_1" xmlns="http://www.w3.org/2000/svg" xmlns:xlink="http://www.w3.org/1999/xlink" x="0px" y="0px"
	 width="49px" height="49px" viewBox="0 0 49 49" enable-background="new 0 0 49 49" xml:space="preserve">
<g>
	<g>
		<path fill="#FFFFFF" d="M26.338,0.164V11.19H49V0.164H26.338z M47.42,10.634H28.016V0.773H47.42V10.634z"/>
	</g>
	<g>
		<path fill="#FFFFFF" d="M0,0.164v27.551h22.664V0.164H0z M21.083,26.328H1.679V1.688h19.404V26.328z"/>
		<path fill="#FFFFFF" d="M18.263,8.071c0,0.463-0.377,0.84-0.841,0.84H5.248c-0.464,0-0.841-0.377-0.841-0.84l0,0
			c0-0.465,0.376-0.842,0.841-0.842h12.173C17.885,7.229,18.263,7.606,18.263,8.071L18.263,8.071z"/>
		<path fill="#FFFFFF" d="M18.263,12.03c0,0.465-0.377,0.842-0.841,0.842H5.248c-0.464,0-0.841-0.377-0.841-0.842l0,0
			c0-0.465,0.376-0.842,0.841-0.842h12.173C17.885,11.19,18.263,11.565,18.263,12.03L18.263,12.03z"/>
		<path fill="#FFFFFF" d="M18.263,15.349c0,0.466-0.377,0.841-0.841,0.841H5.248c-0.464,0-0.841-0.375-0.841-0.841l0,0
			c0-0.465,0.376-0.842,0.841-0.842h12.173C17.885,14.507,18.263,14.884,18.263,15.349L18.263,15.349z"/>
		<path fill="#FFFFFF" d="M18.263,19.358c0,0.463-0.377,0.842-0.841,0.842H5.248c-0.464,0-0.841-0.379-0.841-0.842l0,0
			c0-0.466,0.376-0.842,0.841-0.842h12.173C17.885,18.516,18.263,18.892,18.263,19.358L18.263,19.358z"/>
	</g>
	<path fill="#FFFFFF" d="M19.178,12.636l5.772-6.589l-2.941,0.07c0,0,0.822-3.105,4.151-3.77c0,0,4.462-1.308,8.22,2.9
		c0,0-5.007-7.265-13.319-4.7c0,0-4.045,1.104-4.96,5.976l-3.02,0.121L19.178,12.636z"/>
	<path fill="#FFFFFF" d="M30.393,15.349l-7.762,4.058l2.768,0.996c0,0-1.889,2.6-5.232,2.016c0,0-4.632-0.395-6.617-5.676
		c0,0,2.045,8.583,10.721,9.195c0,0,4.171,0.434,6.785-3.777l2.859,0.979L30.393,15.349z"/>
</g>
<path fill="#FFFFFF" d="M37.699,1.416c-2.363,0-4.282,1.917-4.282,4.282c0,2.367,1.919,4.281,4.282,4.281
	c2.365,0,4.283-1.916,4.283-4.281C41.982,3.333,40.064,1.416,37.699,1.416z M38.062,8.485v0.946h-0.658V8.522
	c-0.604-0.011-1.219-0.174-1.584-0.402l0.252-0.608c0.363,0.209,0.906,0.392,1.49,0.392c0.739,0,1.24-0.373,1.24-0.893
	c0-0.501-0.406-0.811-1.179-1.084c-1.063-0.363-1.722-0.792-1.722-1.585c0-0.755,0.615-1.329,1.564-1.466V1.964h0.656v0.884
	c0.615,0.018,1.044,0.164,1.355,0.318l-0.262,0.601c-0.218-0.108-0.646-0.319-1.312-0.319c-0.803,0-1.104,0.419-1.104,0.792
	c0,0.465,0.386,0.701,1.292,1.037c1.075,0.383,1.616,0.848,1.616,1.658C39.709,7.666,39.137,8.338,38.062,8.485z"/>
</svg>
