<svg xmlns="http://www.w3.org/2000/svg" width="25" height="25" viewBox="0 0 25 25"><title>pedidos_blanco</title><g id="Layer_2" data-name="Layer 2"><g id="Layer_1-2" data-name="Layer 1"><path d="M6.25035,12.45031l-.019-.00079a.20027.20027,0,0,1-.13621-.07354L4.79274,10.7523a.199.199,0,0,1,.31038-.2491l1.17451,1.46433,3.34461-2.833a.19891.19891,0,1,1,.257.30366l-3.5004,2.965A.19915.19915,0,0,1,6.25035,12.45031Z" style="fill:#404040"/><path d="M6.25059,12.70044l-.05713-.00391a.4416.4416,0,0,1-.2915-.16211l-1.3042-1.626a.44821.44821,0,0,1,.06934-.63086.43635.43635,0,0,1,.32861-.0957.445.445,0,0,1,.30225.165l1.01367,1.26465,3.14893-2.667a.45213.45213,0,0,1,.32764-.10547.44918.44918,0,0,1,.41016.48438.44708.44708,0,0,1-.15771.30566l-3.5,2.96484A.44858.44858,0,0,1,6.25059,12.70044Z" style="fill:#fff"/><path d="M6.25035,16.787l-.019-.00079a.20027.20027,0,0,1-.13621-.07354L4.79274,15.08855a.19893.19893,0,0,1,.31038-.2489l1.17451,1.46453L9.62225,13.471a.19891.19891,0,1,1,.257.30366L6.37886,16.7399A.19915.19915,0,0,1,6.25035,16.787Z" style="fill:#404040"/><path d="M6.25059,17.03735l-.02881-.001a.45566.45566,0,0,1-.32129-.168l-1.30273-1.624a.44893.44893,0,0,1,.06787-.62988.45613.45613,0,0,1,.33154-.09668.44521.44521,0,0,1,.30176.167l1.0127,1.2627,3.14893-2.667A.43522.43522,0,0,1,9.7877,13.175a.44377.44377,0,0,1,.30566.1582.45006.45006,0,0,1-.05176.63184l-3.501,2.96484A.44607.44607,0,0,1,6.25059,17.03735Z" style="fill:#fff"/><path d="M6.25035,21.12341l-.019-.00079a.20027.20027,0,0,1-.13621-.07354L4.79274,19.4252a.199.199,0,0,1,.31038-.2491l1.17451,1.46453,3.34461-2.83317a.19891.19891,0,1,1,.257.30366l-3.5004,2.96524A.19915.19915,0,0,1,6.25035,21.12341Z" style="fill:#404040"/><path d="M6.25059,21.37329l-.05713-.00391a.4371.4371,0,0,1-.293-.16406l-1.30273-1.624a.44821.44821,0,0,1,.06934-.63086.44043.44043,0,0,1,.32861-.0957.445.445,0,0,1,.30225.165l1.01367,1.26465,3.14893-2.667a.449.449,0,1,1,.58105.68457l-3.501,2.96484A.44858.44858,0,0,1,6.25059,21.37329Z" style="fill:#fff"/><path d="M15.83262,5.72064a1.96008,1.96008,0,0,0-.03052-.25238,1.92081,1.92081,0,0,0-.02588-.21539c-.00317-.01324-.00952-.02509-.01294-.03821a1.97426,1.97426,0,0,0-1.895-1.45813h-.43237a.19876.19876,0,0,1-.199-.19891,2.66977,2.66977,0,0,0-.042-.47345A2.622,2.622,0,0,0,13.065,2.6109a2.68617,2.68617,0,0,0-5.0271,0,2.64815,2.64815,0,0,0-.13013.47284,2.72834,2.72834,0,0,0-.04175.47388.19871.19871,0,0,1-.19873.19891H7.23447A1.99018,1.99018,0,0,0,5.33579,5.22607c-.0022.00916-.00659.0174-.00879.02661a1.96739,1.96739,0,0,0-.02759.22668,1.98192,1.98192,0,0,0-.0293.24127V6.8291h10.5625Z" style="fill:none"/><path d="M13.26475,19.96606l-2.44629.29883a.32805.32805,0,0,1-.3252-.36621l.293-2.48535a.32057.32057,0,0,1,.09326-.19238l7.28076-7.3429V7.8811A2.42109,2.42109,0,0,0,16.20493,5.509c.00635.071.02563.14032.02563.21167V7.028a.19891.19891,0,0,1-.199.19885H5.07139a.19891.19891,0,0,1-.199-.19885V5.72064c0-.06073.01733-.12085.02222-.1817A2.41758,2.41758,0,0,0,3.05137,7.8811V21.20923a2.42136,2.42136,0,0,0,2.41846,2.41895h10.272a2.42136,2.42136,0,0,0,2.41846-2.41895V15.18976l-4.70264,4.68353A.32665.32665,0,0,1,13.26475,19.96606Z" style="fill:none"/><path d="M18.16025,21.20923a2.42136,2.42136,0,0,1-2.41846,2.41895H5.46982a2.42136,2.42136,0,0,1-2.41846-2.41895V7.8811A2.41758,2.41758,0,0,1,4.89463,5.53894c-.00488.06085-.02222.121-.02222.1817V7.028a.19891.19891,0,0,0,.199.19885H16.03159a.19891.19891,0,0,0,.199-.19885V5.72064c0-.07135-.01929-.14069-.02563-.21167A2.42109,2.42109,0,0,1,18.16025,7.8811V9.87805l.89795-.90558V7.8811a3.31133,3.31133,0,0,0-3.12744-3.2973,2.3493,2.3493,0,0,0-2.0625-1.225h-.23975a3.16454,3.16454,0,0,0-.0415-.34418,3.06416,3.06416,0,0,0-.14966-.54407A3.08378,3.08378,0,0,0,7.516,3.01434a3.18689,3.18689,0,0,0-.04126.34442H7.23447A2.34891,2.34891,0,0,0,5.16611,4.5954,3.30915,3.30915,0,0,0,2.15342,7.8811V21.20923a3.31992,3.31992,0,0,0,3.31641,3.31641h10.272a3.31992,3.31992,0,0,0,3.31641-3.31641V14.29547l-.89795.89429ZM5.27012,5.72064a1.98192,1.98192,0,0,1,.0293-.24127A1.96739,1.96739,0,0,1,5.327,5.25269c.0022-.00922.00659-.01746.00879-.02661a1.95946,1.95946,0,0,1,.16235-.41132A1.95653,1.95653,0,0,1,7.23447,3.75653h.43286a.19871.19871,0,0,0,.19873-.19891,2.72834,2.72834,0,0,1,.04175-.47388,2.64815,2.64815,0,0,1,.13013-.47284,2.68617,2.68617,0,0,1,5.0271,0,2.622,2.622,0,0,1,.12988.47327,2.66977,2.66977,0,0,1,.042.47345.19876.19876,0,0,0,.199.19891h.43237a1.98524,1.98524,0,0,1,1.895,1.45813c.00342.01312.00977.025.01294.03821a1.92081,1.92081,0,0,1,.02588.21539,1.96008,1.96008,0,0,1,.03052.25238V6.8291H5.27012Z" style="fill:#fff"/><polygon points="19.058 13.37 19.86 12.572 19.86 12.572 20.138 12.295 18.406 10.56 18.16 10.808 18.129 10.839 18.128 10.84 11.423 17.603 11.192 19.561 13.075 19.329 18.16 14.265 19.058 13.37" style="fill:none"/><polygon points="20.411 12.55 20.433 12.573 20.433 12.573 20.411 12.55 20.411 12.55" style="fill:none"/><path d="M21.7623,8.71216c-.46875-.43164-1.51123.07715-1.69531.17285L19.0582,9.90247l-.37817.38135L20.41416,12.02l1.6626-1.65546A1.51317,1.51317,0,0,0,21.7623,8.71216Z" style="fill:none"/><path d="M22.20518,8.23071c-.88232-.81641-2.43457.06738-2.499.10449a.36018.36018,0,0,0-.07031.05469l-.57764.58258-.89795.90558-7.28076,7.3429a.32057.32057,0,0,0-.09326.19238l-.293,2.48535a.32805.32805,0,0,0,.3252.36621l2.44629-.29883a.32665.32665,0,0,0,.19287-.09277l4.70264-4.68353.89795-.89429,3.5293-3.515a.34792.34792,0,0,0,.06543-.09473A2.1782,2.1782,0,0,0,22.20518,8.23071Zm-1.772,4.34192-.02246-.02283v-.00012l.02271.02283ZM11.192,19.56079l.231-1.958,6.70532-6.763.00073-.00067.03125-.03149.24561-.24725,1.73242,1.73444-.27783.27673v.00012l-.80225.79883-.89795.89429L13.0748,19.32935Zm7.488-9.277.37817-.38135L20.067,8.885c.18408-.0957,1.22656-.60449,1.69531-.17285a1.51317,1.51317,0,0,1,.31445,1.65234L20.41416,12.02Z" style="fill:#fff"/><rect width="25" height="25" style="fill:none"/></g></g></svg>