<?xml version="1.0" encoding="utf-8"?>
<!-- Generator: Adobe Illustrator 16.0.0, SVG Export Plug-In . SVG Version: 6.00 Build 0)  -->
<!DOCTYPE svg PUBLIC "-//W3C//DTD SVG 1.1//EN" "http://www.w3.org/Graphics/SVG/1.1/DTD/svg11.dtd">
<svg version="1.1" id="Capa_1" xmlns="http://www.w3.org/2000/svg" xmlns:xlink="http://www.w3.org/1999/xlink" x="0px" y="0px"
	 width="49px" height="49px" viewBox="0 0 49 49" enable-background="new 0 0 49 49" xml:space="preserve">
<g>
	<g>
		<circle fill="#FFFFFF" cx="18.677" cy="13.885" r="1.109"/>
		<circle fill="#FFFFFF" cx="22.97" cy="13.885" r="1.109"/>
		<path fill="#FFFFFF" d="M18.021,11.536v-0.798h4.316l2.527-2.631V7.211h-6.843V6.309V5.357H15.79v0.952h1.28v6.18h7.825v-0.952
			L18.021,11.536L18.021,11.536z M19.54,10.054V7.896h1.049v2.158H19.54z M21.257,10.054V7.896h1.049v1.969l-0.18,0.189
			L21.257,10.054L21.257,10.054z M22.975,9.162V7.896h1.204L22.975,9.162z M18.871,7.896v2.158h-0.849V7.896H18.871z"/>
	</g>
	<g>
		<path fill="#FFFFFF" d="M0,5.479v1.247H14.08c0.056-0.423,0.115-0.838,0.178-1.247H0z"/>
		<path fill="#FFFFFF" d="M0,9.554v1.243h13.648c-0.015-0.411-0.028-0.826-0.038-1.243H0z"/>
		<path fill="#FFFFFF" d="M14.653,13.63H0v1.237h14.965C14.857,14.469,14.754,14.055,14.653,13.63z"/>
		<path fill="#FFFFFF" d="M26.456,6.726h5.764V5.479h-5.944C26.338,5.888,26.398,6.303,26.456,6.726z"/>
		<rect x="0" y="1.835" fill="#FFFFFF" width="32.22" height="1.27"/>
		<path fill="#FFFFFF" d="M32.22,10.796V9.553h-5.036c-0.008,0.417-0.022,0.832-0.037,1.243H32.22z"/>
		<path fill="#FFFFFF" d="M25.778,14.867h6.439V13.63h-6.146C25.978,14.055,25.881,14.469,25.778,14.867z"/>
		<rect x="0" y="17.089" fill="#FFFFFF" width="32.22" height="1.235"/>
	</g>
	<g>
		<path fill="#A3A2A2" d="M5.084,27.394c-0.156,0.155-0.424,0.14-0.596-0.033l-1.37-1.367c-0.172-0.172-0.189-0.439-0.034-0.595
			L13.81,14.661c0.155-0.155,0.421-0.14,0.595,0.032l1.368,1.369c0.175,0.173,0.189,0.438,0.034,0.595L5.084,27.394z"/>
	</g>
	<g>
		<path fill="#FFFFFF" d="M4.419,28.945c-0.127,0.126-0.432,0.026-0.684-0.224l-1.977-1.974c-0.25-0.252-0.351-0.558-0.223-0.686
			l8.779-8.791c0.127-0.125,0.434-0.027,0.685,0.225l1.976,1.975c0.251,0.25,0.353,0.557,0.226,0.683L4.419,28.945z"/>
	</g>
	<g>
		<path fill="#A3A2A2" d="M27.807,9.622c-0.155-4.125-3.619-7.345-7.743-7.192c-4.124,0.152-7.343,3.618-7.189,7.742
			c0.152,4.124,3.618,7.341,7.741,7.19C24.74,17.211,27.958,13.744,27.807,9.622z M13.606,10.146
			C13.469,6.427,16.372,3.3,20.09,3.162c3.719-0.137,6.846,2.767,6.985,6.487c0.136,3.719-2.771,6.845-6.488,6.982
			C16.868,16.769,13.744,13.865,13.606,10.146z"/>
	</g>
	<g>
		<path fill="#FFFFFF" d="M27.255,2.961C23.433-0.86,17.238-0.857,13.42,2.968c-3.821,3.823-3.816,10.018,0.007,13.837
			c3.825,3.821,10.017,3.817,13.837-0.007C31.085,12.975,31.078,6.778,27.255,2.961z M15.076,15.154
			c-2.912-2.907-2.916-7.626-0.006-10.537c2.908-2.912,7.627-2.917,10.538-0.007c2.91,2.909,2.914,7.626,0.005,10.538
			C22.707,18.061,17.989,18.064,15.076,15.154z"/>
	</g>
</g>
</svg>
