<?xml version="1.0" encoding="utf-8"?>
<!-- Generator: Adobe Illustrator 16.0.0, SVG Export Plug-In . SVG Version: 6.00 Build 0)  -->
<!DOCTYPE svg PUBLIC "-//W3C//DTD SVG 1.1//EN" "http://www.w3.org/Graphics/SVG/1.1/DTD/svg11.dtd">
<svg version="1.1" id="Capa_1" xmlns="http://www.w3.org/2000/svg" xmlns:xlink="http://www.w3.org/1999/xlink" x="0px" y="0px"
	 width="49px" height="49px" viewBox="0 0 49 49" enable-background="new 0 0 49 49" xml:space="preserve">
<g>
	<path fill="#FFFFFF" d="M0,0v28.908h24.173V0H0z M22.43,27.204H1.713V1.753H22.43V27.204z"/>
	<g>
		<path fill="#FFFFFF" d="M14.616,11.646c1.106-3.997,4.555-6.505,7.708-5.607c1.236,0.354,2.236,1.187,2.935,2.303l1.789-0.822
			l-1.604,5.846l-5.45-2.613l1.751-0.803c-0.475-0.614-1.094-1.069-1.835-1.282c-2.234-0.639-4.683,1.141-5.468,3.978
			c-0.044,0.16-0.081,0.32-0.111,0.479C14.385,12.636,14.479,12.142,14.616,11.646z"/>
		<rect x="3.553" y="5.969" fill="#FFFFFF" width="16.261" height="0.397"/>
		<rect x="3.553" y="11.713" fill="#FFFFFF" width="16.261" height="0.398"/>
		<rect x="3.553" y="17.399" fill="#FFFFFF" width="16.261" height="0.397"/>
		<rect x="3.553" y="22.53" fill="#FFFFFF" width="16.261" height="0.396"/>
		<rect x="3.49" y="6.035" fill="#FFFFFF" width="0.381" height="16.957"/>
		<rect x="11.494" y="6.035" fill="#FFFFFF" width="0.381" height="16.957"/>
		<rect x="19.751" y="6.035" fill="#FFFFFF" width="0.381" height="16.957"/>
	</g>
</g>
</svg>
