<svg xmlns="http://www.w3.org/2000/svg" width="25" height="25" viewBox="0 0 25 25"><title>visitas_blanco</title><g id="Layer_2" data-name="Layer 2"><g id="Layer_1-2" data-name="Layer 1"><path d="M20.68424,24.15114H6.356a3.90114,3.90114,0,0,1-3.8968-3.89655V4.74541A3.90114,3.90114,0,0,1,6.356.84886H20.68424a3.90092,3.90092,0,0,1,3.89655,3.89655V20.25459A3.90092,3.90092,0,0,1,20.68424,24.15114ZM6.356,1.35441a3.39493,3.39493,0,0,0-3.39125,3.391V20.25459a3.39493,3.39493,0,0,0,3.39125,3.391H20.68424a3.39471,3.39471,0,0,0,3.391-3.391V4.74541a3.39471,3.39471,0,0,0-3.391-3.391Z" style="fill:#fff;stroke:#fff;stroke-miterlimit:10;stroke-width:0.5px"/><rect x="0.41921" y="6.77971" width="4.81879" height="0.50555" style="fill:#fff;stroke:#fff;stroke-miterlimit:10;stroke-width:0.5px"/><rect x="0.41921" y="12.24722" width="4.81879" height="0.50555" style="fill:#fff;stroke:#fff;stroke-miterlimit:10;stroke-width:0.5px"/><rect x="0.41921" y="17.71474" width="4.81879" height="0.50555" style="fill:#fff;stroke:#fff;stroke-miterlimit:10;stroke-width:0.5px"/><path d="M7.29718,10.82173A3.6872,3.6872,0,0,1,7.519,9.51294a2.86123,2.86123,0,0,1,.637-1.01116,2.81836,2.81836,0,0,1,1.004-.6506,3.58845,3.58845,0,0,1,1.30879-.22862,3.61434,3.61434,0,0,1,1.29514.21459,2.82155,2.82155,0,0,1,.9414.57477,2.32677,2.32677,0,0,1,.57477.85875,3.06909,3.06909,0,0,1-.02047,2.202,3.16508,3.16508,0,0,1-.568.886,4.48012,4.48012,0,0,1-.8034.69269q-.44985.30483-.92093.57477-.47089.27014-.92775.51942a6.20892,6.20892,0,0,0-.817.52625q-.236.17971-.45724.38066a3.26026,3.26026,0,0,0-.40151.43639,2.12038,2.12038,0,0,0-.2908.519,1.934,1.934,0,0,0-.12474.63051h5.44292v.74766H7.00638a5.85974,5.85974,0,0,1,.15241-1.27429A2.654,2.654,0,0,1,7.76807,15.004a7.30711,7.30711,0,0,1,1.05969-.99714q.54653-.41516,1.07334-.74084.52606-.3253.99714-.59563a5.0281,5.0281,0,0,0,.83069-.58842,2.47491,2.47491,0,0,0,.568-.72036,2.12129,2.12129,0,0,0,.20777-.98311,2.05331,2.05331,0,0,0-.16644-.84472,1.86931,1.86931,0,0,0-.45686-.637,1.91791,1.91791,0,0,0-.67866-.39506,2.61674,2.61674,0,0,0-.84472-.13156,1.91009,1.91009,0,0,0-.87922.20094,2.18,2.18,0,0,0-.67866.53307A2.36291,2.36291,0,0,0,8.3637,9.88a2.4492,2.4492,0,0,0-.12474.94178Z" style="fill:#fff;stroke:#fff;stroke-miterlimit:10;stroke-width:0.5px"/><path d="M17.10247,11.95725A7.75684,7.75684,0,0,0,18.238,11.881a2.425,2.425,0,0,0,.87922-.2908,1.55679,1.55679,0,0,0,.57477-.57477,1.837,1.837,0,0,0,.20777-.92775,1.70465,1.70465,0,0,0-.16606-.78254,1.48748,1.48748,0,0,0-.45-.53307,1.91254,1.91254,0,0,0-.665-.30483,3.2232,3.2232,0,0,0-.79619-.09706,2.28006,2.28006,0,0,0-.85155.15241,1.88811,1.88811,0,0,0-.65781.43639,2.00695,2.00695,0,0,0-.42956.66463,2.237,2.237,0,0,0-.15241.8379h-.886a3.01584,3.01584,0,0,1,.22824-1.1977,2.97656,2.97656,0,0,1,.71316-.99031,2.15959,2.15959,0,0,1,1.032-.53345,5.91043,5.91043,0,0,1,1.18405-.11753,3.91124,3.91124,0,0,1,1.087.14559,2.50691,2.50691,0,0,1,.8796.44283,2.15225,2.15225,0,0,1,.59563.75487,2.42283,2.42283,0,0,1,.22142,1.06652,2.47182,2.47182,0,0,1-.33933,1.31561,2.2012,2.2012,0,0,1-1.04567.85875,2.66762,2.66762,0,0,1,.86557.436,2.22265,2.22265,0,0,1,.53345.59563,2.12761,2.12761,0,0,1,.26312.68548,3.69224,3.69224,0,0,1,.069.69231,3.05976,3.05976,0,0,1-.20777,1.1359,2.70151,2.70151,0,0,1-.60928.92775,2.988,2.988,0,0,1-.99031.64416,3.67145,3.67145,0,0,1-1.33647.25592,6.25737,6.25737,0,0,1-1.468-.152,2.48777,2.48777,0,0,1-1.03846-.50577,2.36739,2.36739,0,0,1-.651-.92775,5.11125,5.11125,0,0,1-.31848-1.43353H15.399a2.10917,2.10917,0,0,0,.67146,1.69665,2.60029,2.60029,0,0,0,1.752.57477,2.65744,2.65744,0,0,0,.98349-.18009,2.43829,2.43829,0,0,0,.78216-.48454,2.09569,2.09569,0,0,0,.49857-.70634,1.91781,1.91781,0,0,0,.15924-.83107,2.00455,2.00455,0,0,0-.27677-.99031,1.77776,1.77776,0,0,0-.67183-.62293,2.866,2.866,0,0,0-.98993-.30483,6.08352,6.08352,0,0,0-1.2049-.0345Z" style="fill:#fff;stroke:#fff;stroke-miterlimit:10;stroke-width:0.5px"/><rect width="25" height="25" style="fill:none"/></g></g></svg>