<?xml version="1.0" encoding="utf-8"?>
<!-- Generator: Adobe Illustrator 16.0.0, SVG Export Plug-In . SVG Version: 6.00 Build 0)  -->
<!DOCTYPE svg PUBLIC "-//W3C//DTD SVG 1.1//EN" "http://www.w3.org/Graphics/SVG/1.1/DTD/svg11.dtd">
<svg version="1.1" id="Capa_1" xmlns="http://www.w3.org/2000/svg" xmlns:xlink="http://www.w3.org/1999/xlink" x="0px" y="0px"
	 width="27px" height="27px" viewBox="0 0 27 27" enable-background="new 0 0 27 27" xml:space="preserve">
<path fill="#FFFFFF" d="M0,0v27h27V0H0z M26.052,26.073H1.017V0.967h25.035V26.073z"/>
<path fill="#FFFFFF" d="M15.509,13.518l5.91-5.911c0.545-0.544,0.545-1.426,0-1.97c-0.545-0.544-1.427-0.544-1.972,0l-5.911,5.911
	L7.625,5.637c-0.545-0.544-1.426-0.544-1.972,0c-0.542,0.544-0.542,1.426,0,1.97l5.911,5.911l-5.911,5.914
	c-0.542,0.543-0.542,1.424,0,1.969c0.546,0.545,1.427,0.545,1.972,0l5.911-5.911l5.911,5.911c0.545,0.545,1.427,0.545,1.972,0
	s0.545-1.426,0-1.969L15.509,13.518z"/>
</svg>
