<?xml version="1.0" encoding="utf-8"?>
<!-- Generator: Adobe Illustrator 16.0.0, SVG Export Plug-In . SVG Version: 6.00 Build 0)  -->
<!DOCTYPE svg PUBLIC "-//W3C//DTD SVG 1.1//EN" "http://www.w3.org/Graphics/SVG/1.1/DTD/svg11.dtd">
<svg version="1.1" id="Capa_1" xmlns="http://www.w3.org/2000/svg" xmlns:xlink="http://www.w3.org/1999/xlink" x="0px" y="0px"
	 width="27px" height="27px" viewBox="0 0 27 27" enable-background="new 0 0 27 27" xml:space="preserve">
<polygon fill="#AEADB3" points="16.137,8.479 14.408,10.207 16.815,12.613 19.22,10.207 19.21,10.197 20.253,9.154 21.45,10.351 
	21.45,5.559 16.659,5.561 17.856,6.758 "/>
<path fill-rule="evenodd" clip-rule="evenodd" fill="#AEADB3" d="M12.895,13.193H0.948H0.022v0.927v11.945v0.927h0.926h11.947h0.926
	v-0.927V14.12v-0.927H12.895z M0.948,26.065V14.12h11.947v11.945H0.948z"/>
<rect x="11.741" y="26.109" fill="#AEADB3" width="2.922" height="0.891"/>
<rect x="5.772" y="26.078" fill="#AEADB3" width="2.922" height="0.891"/>
<rect x="0.002" y="26.078" fill="#AEADB3" width="2.922" height="0.891"/>
<rect x="17.765" y="26.004" fill="#AEADB3" width="2.922" height="0.996"/>
<rect x="23.694" y="26.004" fill="#AEADB3" width="3.306" height="0.996"/>
<rect y="-0.006" fill="#AEADB3" width="0.996" height="2.51"/>
<rect y="5.557" fill="#AEADB3" width="0.996" height="2.947"/>
<rect x="26.009" y="2.317" fill="#AEADB3" width="0.996" height="2.947"/>
<rect x="26.009" y="8.317" fill="#AEADB3" width="0.996" height="2.947"/>
<rect x="26.009" y="14.338" fill="#AEADB3" width="0.996" height="2.947"/>
<rect x="26.009" y="20.359" fill="#AEADB3" width="0.996" height="2.947"/>
<rect y="11.547" fill="#AEADB3" width="0.922" height="2.947"/>
<rect y="17.525" fill="#AEADB3" width="0.922" height="2.947"/>
<rect y="23.553" fill="#AEADB3" width="0.922" height="3.416"/>
<rect x="22.382" fill="#AEADB3" width="2.965" height="0.996"/>
<rect x="16.444" fill="#AEADB3" width="2.965" height="0.996"/>
<rect x="10.514" fill="#AEADB3" width="2.965" height="0.996"/>
<rect x="3.913" fill="#AEADB3" width="3.482" height="0.996"/>
</svg>
