<?xml version="1.0" encoding="utf-8"?>
<!-- Generator: Adobe Illustrator 16.0.0, SVG Export Plug-In . SVG Version: 6.00 Build 0)  -->
<!DOCTYPE svg PUBLIC "-//W3C//DTD SVG 1.1//EN" "http://www.w3.org/Graphics/SVG/1.1/DTD/svg11.dtd" [
	<!ENTITY ns_extend "http://ns.adobe.com/Extensibility/1.0/">
	<!ENTITY ns_ai "http://ns.adobe.com/AdobeIllustrator/10.0/">
	<!ENTITY ns_graphs "http://ns.adobe.com/Graphs/1.0/">
	<!ENTITY ns_vars "http://ns.adobe.com/Variables/1.0/">
	<!ENTITY ns_imrep "http://ns.adobe.com/ImageReplacement/1.0/">
	<!ENTITY ns_sfw "http://ns.adobe.com/SaveForWeb/1.0/">
	<!ENTITY ns_custom "http://ns.adobe.com/GenericCustomNamespace/1.0/">
	<!ENTITY ns_adobe_xpath "http://ns.adobe.com/XPath/1.0/">
]>
<svg version="1.1" id="Capa_1" xmlns:x="&ns_extend;" xmlns:i="&ns_ai;" xmlns:graph="&ns_graphs;"
	 xmlns="http://www.w3.org/2000/svg" xmlns:xlink="http://www.w3.org/1999/xlink" x="0px" y="0px" width="66px" height="60px"
	 viewBox="0 0 66 60" enable-background="new 0 0 66 60" xml:space="preserve">
<metadata>
	<sfw  xmlns="&ns_sfw;">
		<slices></slices>
		<sliceSourceBounds  width="65.924" height="60" bottomLeftOrigin="true" y="-60" x="0.038"></sliceSourceBounds>
	</sfw>
</metadata>
<g>
	<g>
		<path fill="#DE0209" d="M64.093,42.98L42.449,5.462C40.496,2.086,36.892,0,32.983,0c-3.899,0-7.5,2.086-9.452,5.462L1.495,43.623
			c-1.943,3.382-1.943,7.543,0,10.916C3.444,57.926,7.048,60,10.96,60h44.074c6.037,0,10.928-4.881,10.928-10.918
			C65.962,46.824,65.265,44.716,64.093,42.98L64.093,42.98z M37.665,46.636c0,2.575-1.995,4.554-4.667,4.554
			c-2.677,0-4.669-1.979-4.669-4.554v-0.107c0-2.571,1.992-4.558,4.669-4.558c2.672,0,4.667,1.977,4.667,4.558V46.636z
			 M37.773,15.915l-2.312,20.149c-0.153,1.455-1.112,2.359-2.463,2.359c-1.34,0-2.306-0.915-2.467-2.359l-2.305-20.158
			c-0.155-1.561,0.689-2.734,2.144-2.734h5.239C37.067,13.183,37.927,14.356,37.773,15.915L37.773,15.915z M37.773,15.915"/>
	</g>
</g>
</svg>
