<?xml version="1.0" encoding="utf-8"?>
<!-- Generator: Adobe Illustrator 16.0.0, SVG Export Plug-In . SVG Version: 6.00 Build 0)  -->
<!DOCTYPE svg PUBLIC "-//W3C//DTD SVG 1.1//EN" "http://www.w3.org/Graphics/SVG/1.1/DTD/svg11.dtd" [
	<!ENTITY ns_extend "http://ns.adobe.com/Extensibility/1.0/">
	<!ENTITY ns_ai "http://ns.adobe.com/AdobeIllustrator/10.0/">
	<!ENTITY ns_graphs "http://ns.adobe.com/Graphs/1.0/">
	<!ENTITY ns_vars "http://ns.adobe.com/Variables/1.0/">
	<!ENTITY ns_imrep "http://ns.adobe.com/ImageReplacement/1.0/">
	<!ENTITY ns_sfw "http://ns.adobe.com/SaveForWeb/1.0/">
	<!ENTITY ns_custom "http://ns.adobe.com/GenericCustomNamespace/1.0/">
	<!ENTITY ns_adobe_xpath "http://ns.adobe.com/XPath/1.0/">
]>
<svg version="1.1" id="Capa_1" xmlns:x="&ns_extend;" xmlns:i="&ns_ai;" xmlns:graph="&ns_graphs;"
	 xmlns="http://www.w3.org/2000/svg" xmlns:xlink="http://www.w3.org/1999/xlink" x="0px" y="0px" width="24px" height="22px"
	 viewBox="0 0 24 22" enable-background="new 0 0 24 22" xml:space="preserve">
<metadata>
	<sfw  xmlns="&ns_sfw;">
		<slices></slices>
		<sliceSourceBounds  width="23.986" height="22" bottomLeftOrigin="true" y="-22" x="0"></sliceSourceBounds>
	</sfw>
</metadata>
<g>
	<g>
		<path fill="#DE0209" d="M23.306,15.76L15.431,2.003C14.72,0.765,13.408,0,11.986,0c-1.418,0-2.728,0.765-3.438,2.003L0.529,15.996
			c-0.707,1.238-0.707,2.764,0,4.001C1.239,21.238,2.55,22,3.973,22h16.036c2.197,0,3.977-1.79,3.977-4.004
			C23.985,17.17,23.732,16.396,23.306,15.76L23.306,15.76z M13.689,17.1c0,0.943-0.725,1.67-1.697,1.67
			c-0.975,0-1.699-0.727-1.699-1.67v-0.039c0-0.944,0.724-1.671,1.699-1.671c0.973,0,1.697,0.724,1.697,1.671V17.1z M13.729,5.835
			l-0.841,7.388c-0.057,0.533-0.405,0.864-0.896,0.864c-0.488,0-0.839-0.334-0.898-0.864l-0.838-7.392
			c-0.057-0.572,0.25-1.002,0.78-1.002h1.906C13.473,4.833,13.785,5.263,13.729,5.835L13.729,5.835z M13.729,5.835"/>
	</g>
</g>
</svg>
