<?xml version="1.0" encoding="utf-8"?>
<!-- Generator: Adobe Illustrator 16.0.0, SVG Export Plug-In . SVG Version: 6.00 Build 0)  -->
<!DOCTYPE svg PUBLIC "-//W3C//DTD SVG 1.1//EN" "http://www.w3.org/Graphics/SVG/1.1/DTD/svg11.dtd">
<svg version="1.1" id="Capa_1" xmlns="http://www.w3.org/2000/svg" xmlns:xlink="http://www.w3.org/1999/xlink" x="0px" y="0px"
	 width="60px" height="60px" viewBox="0 0 60 60" enable-background="new 0 0 60 60" xml:space="preserve">
<path fill="#00652E" d="M55.979,14.934c-2.68-4.591-6.312-8.228-10.922-10.911C40.468,1.339,35.448,0,30.005,0
	C24.56,0,19.54,1.339,14.946,4.022C10.344,6.7,6.71,10.343,4.025,14.934C1.34,19.539,0,24.549,0,29.996
	c0,5.441,1.34,10.466,4.025,15.062c2.685,4.6,6.317,8.232,10.916,10.916C19.54,58.659,24.559,60,30.004,60
	c5.443,0,10.463-1.342,15.053-4.025c4.605-2.684,8.242-6.316,10.922-10.916C58.661,40.462,60,35.438,60,29.996
	C60,24.549,58.661,19.53,55.979,14.934L55.979,14.934z M35.003,48.707c0,0.366-0.12,0.671-0.358,0.92
	c-0.223,0.251-0.516,0.368-0.853,0.368h-7.495c-0.343,0-0.645-0.129-0.897-0.39c-0.264-0.266-0.396-0.562-0.396-0.898v-7.423
	c0-0.336,0.134-0.634,0.396-0.896c0.25-0.263,0.556-0.395,0.893-0.395h7.501c0.337,0,0.629,0.132,0.852,0.371
	c0.239,0.251,0.354,0.56,0.354,0.919v7.423H35.003L35.003,48.707z M34.93,35.271c-0.025,0.261-0.171,0.49-0.408,0.681
	c-0.248,0.198-0.561,0.297-0.926,0.297h-7.228c-0.363,0-0.675-0.099-0.932-0.297c-0.266-0.188-0.397-0.42-0.397-0.681L24.38,11.011
	c0-0.308,0.123-0.548,0.391-0.702c0.258-0.208,0.574-0.313,0.939-0.313h8.59c0.366,0,0.673,0.103,0.938,0.313
	c0.268,0.154,0.39,0.395,0.39,0.702L34.93,35.271z"/>
</svg>
