<svg xmlns="http://www.w3.org/2000/svg" xmlns:xlink="http://www.w3.org/1999/xlink" width="72.85035" height="90.08362" viewBox="0 0 72.85035 90.08362"><defs><clipPath id="clip-path"><rect x="0.50028" y="0.10616" width="78.76193" height="89.54056" style="fill:#008996;stroke:#008996;stroke-miterlimit:10"/></clipPath></defs><title>ayuda</title><g id="Layer_2" data-name="Layer 2"><g id="Capa_1" data-name="Capa 1"><g style="clip-path:url(#clip-path)"><path d="M58.57839.10616" style="fill:#008a97;stroke:#008996;stroke-miterlimit:10"/><path d="M65.23446,60.442c-2.78005-1.9167-12.48579-7.10245-16.63142-9.31718l-.08656-.04658a1.35734,1.35734,0,0,0-1.47659.12919,17.63971,17.63971,0,0,1-7.074,3.41742,1.35777,1.35777,0,0,0-.97305.84287l-2.56727,6.76807-2.56825-6.76807a1.35778,1.35778,0,0,0-.97306-.84287,17.63648,17.63648,0,0,1-7.07535-3.41742,1.35735,1.35735,0,0,0-1.4766-.12919c-4.09771,2.19027-13.93,7.4844-16.7051,9.35584C2.93174,63.59769.88091,75.04038.51713,77.3017a1.369,1.369,0,0,0,.06046.66875c.16917.47347,4.476,11.61317,35.84795,11.61317,31.37092,0,35.67911-11.1397,35.847-11.61317a1.355,1.355,0,0,0,.06047-.66875C71.3457,71.16206,69.313,63.25308,65.23446,60.442Zm0,0" style="fill:#008a97;stroke:#008996;stroke-miterlimit:10"/></g><path d="M10.3494,40.30624h4.35577a2.96926,2.96926,0,0,0,2.96971-2.9697V24.75526a2.96629,2.96629,0,0,0-1.47891-2.566c.973-10.30179,4.94818-17.44058,20.22955-17.44058,8.774,0,14.25281,2.25107,17.238,7.0846,1.73729,2.8121,2.57355,6.44395,2.96344,10.37151a2.967,2.967,0,0,0-1.45182,2.55042V37.33653a2.97009,2.97009,0,0,0,2.31384,2.895c-1.92165,1.25456-5.89679,2.5372-14.12494,2.5372q-1.00064,0-2.08685-.02577a2.53941,2.53941,0,0,0-2.25471-1.37053H35.392a2.54067,2.54067,0,1,0,0,5.08134h3.63052A2.53526,2.53526,0,0,0,41.081,45.39916c.76423.01949,1.51261.031,2.23686.031,9.2772,0,15.17432-1.58231,17.56185-4.72515.1021-.13415.19494-.267.28019-.39881h1.34079a2.96954,2.96954,0,0,0,2.97-2.9697V24.75526a2.96954,2.96954,0,0,0-2.97-2.96971H60.86284c-.46059-4.746-1.48286-8.78687-3.58394-12.18644C53.49606,3.47633,46.67479.5,36.42454.5,26.174.5,19.353,3.47633,15.56985,9.59912c-2.10107,3.39957-3.122,7.43914-3.58393,12.18644H10.3494A2.97066,2.97066,0,0,0,7.378,24.75526V37.33653a2.9715,2.9715,0,0,0,2.97135,2.9697Zm0,0" style="fill:#008a97;stroke:#008996;stroke-miterlimit:10"/><path d="M19.27406,40.18233c4.07856,9.00627,12.81487,12.92721,17.15147,12.92721,2.84977,0,7.602-1.69565,11.68191-5.41538q-2.23818.15662-4.78959.15728c-.3988,0-.81842-.00364-1.26744-.01158A4.96779,4.96779,0,0,1,39.02254,48.875H35.392a4.9619,4.9619,0,1,1,0-9.9238h3.63052a4.94169,4.94169,0,0,1,3.44715,1.39267q.455.00546.89441.005a40.35733,40.35733,0,0,0,9.79627-.94728,5.42875,5.42875,0,0,1-.40542-2.065V24.75526a5.4071,5.4071,0,0,1,1.3256-3.53239,20.36465,20.36465,0,0,0-2.47542-8.11845C49.10395,9.05559,44.27933,7.17,36.42553,7.17c-6.515,0-11.01547,1.35269-13.75555,4.13539-2.1232,2.15657-3.35462,5.235-3.9302,9.8825a5.40431,5.40431,0,0,1,1.35534,3.56742V37.33653a5.34461,5.34461,0,0,1-.82106,2.8458Zm0,0" style="fill:#008a97;stroke:#008996;stroke-miterlimit:10"/></g></g></svg>