<svg xmlns="http://www.w3.org/2000/svg" width="39.75279" height="37.32406" viewBox="0 0 39.75279 37.32406"><title>contratos_2</title><g id="Layer_2" data-name="Layer 2"><g id="Layer_2-2" data-name="Layer 2"><path d="M15.54908,31.39547c.05314.30989.40812.40449.64771.50357.22884.0982.50629-.08828.69637-.17927,1.17561-.57024,2.76654.0982,4.02591.0982a.57737.57737,0,0,0,0-1.154,24.02008,24.02008,0,0,0-4.1457-.13064.70881.70881,0,0,0-.11893-.35223.91314.91314,0,0,0-.96483-.5414c-.0243-.05317-.045-.109-.07747-.16575a.54068.54068,0,0,0-.36215-.25317,2.39736,2.39736,0,0,0,.40091-2.06566.57308.57308,0,0,0-.49549-.28465c-.77115-.02884-1.43236.781-1.92872,1.26661a37.32211,37.32211,0,0,0-3.39261,3.96914c-.45406.58827.54951,1.1612.99633.58107a41.762,41.762,0,0,1,2.998-3.50162c-.25675.4225-.53153.83779-.81618,1.23507-.41169.6369.56933,1.17561.99543.58464a1.30944,1.30944,0,0,1,.373-.363c-.028.07024-.05586.14051-.0874.21169l.00632.00269c-.02433.04594-.04506.09191-.06309.13424-.26032.64771.70357.94319,1.0558.4468a3.78062,3.78062,0,0,0,.24234-.40086,1.94464,1.94464,0,0,0,.01441.35855Zm0,0" style="fill:#c6c6c6"/><path d="M31.0871,37.32406H0V0H31.0871Zm-29.388-1.69833H29.388V1.69833H1.69906Z" style="fill:#c6c6c6"/><rect x="5.98516" y="7.03731" width="19.15839" height="2.20158" style="fill:#c6c6c6"/><rect x="5.98516" y="11.902" width="19.15839" height="2.20158" style="fill:#c6c6c6"/><rect x="5.98516" y="16.67824" width="19.15839" height="2.20158" style="fill:#c6c6c6"/><rect x="5.98516" y="21.63138" width="16.68965" height="2.20158" style="fill:#c6c6c6"/><path d="M39.73416,10.73771a4.44522,4.44522,0,0,0-2.34-2.53936,4.44721,4.44721,0,0,0-3.37155-.75753.79415.79415,0,0,0-.44158.356l-9.72316,16.8441a.7599.7599,0,0,0-.10381.34143l-.36239,6.07755a.775.775,0,0,0,1.20186.69743L29.676,28.40308a.76968.76968,0,0,0,.24582-.25949l9.72677-16.84774a.7774.7774,0,0,0,.08561-.55814ZM26.55659,29.065a6.73,6.73,0,0,0-.87134-.58726,6.43028,6.43028,0,0,0-.94236-.458l.11017-1.821a5.64958,5.64958,0,0,1,3.22587,1.86013Zm0,0" style="fill:#c6c6c6"/></g></g></svg>