<?xml version="1.0" encoding="utf-8"?>
<!-- Generator: Adobe Illustrator 16.0.0, SVG Export Plug-In . SVG Version: 6.00 Build 0)  -->
<!DOCTYPE svg PUBLIC "-//W3C//DTD SVG 1.1//EN" "http://www.w3.org/Graphics/SVG/1.1/DTD/svg11.dtd">
<svg version="1.1" id="Capa_1" xmlns="http://www.w3.org/2000/svg" xmlns:xlink="http://www.w3.org/1999/xlink" x="0px" y="0px"
	 width="25px" height="25px" viewBox="0 0 25 25" enable-background="new 0 0 25 25" xml:space="preserve">
<g>
	<g>
		<path fill="#660E80" d="M7.891,11.836c-0.234-0.295-0.678-0.479-1.082-0.479c-0.855,0-1.387,0.611-1.387,1.46
			c0,0.892,0.582,1.442,1.387,1.442c0.494,0,0.965-0.248,1.18-0.604l1.252,0.326c-0.426,0.912-1.35,1.516-2.432,1.516
			c-1.48,0-2.676-1.125-2.676-2.681c0-1.558,1.195-2.685,2.676-2.685c1.016,0,1.889,0.545,2.344,1.371L7.891,11.836z"/>
		<path fill="#660E80" d="M12.764,15.395l-0.957-1.68h-0.635v1.68H9.934v-5.158h1.924c1.297,0,2.078,0.707,2.078,1.77
			c0,0.691-0.33,1.209-0.928,1.488l1.143,1.9H12.764z M11.172,12.617h0.857c0.441,0,0.617-0.332,0.617-0.611
			c0-0.281-0.176-0.612-0.617-0.612h-0.857V12.617z"/>
		<path fill="#660E80" d="M20.1,10.236v5.158h-1.215v-1.26c0-1.223,0.043-1.828,0.043-1.828h-0.014c0,0-0.42,0.709-0.465,0.781
			l-0.605,1.033h-0.641L16.6,13.088c-0.045-0.072-0.457-0.781-0.457-0.781h-0.018c0,0,0.039,0.605,0.039,1.828v1.26h-1.217v-5.158
			h1.164l0.967,1.562c0.375,0.611,0.434,0.745,0.434,0.745h0.016c0.008,0,0.066-0.134,0.441-0.745l0.967-1.562H20.1z"/>
	</g>
	<path fill="#660E80" d="M12.5,0C5.598,0,0,5.596,0,12.5S5.598,25,12.5,25C19.404,25,25,19.404,25,12.5S19.404,0,12.5,0z
		 M12.5,22.449c-5.492,0-9.949-4.453-9.949-9.949S7.008,2.549,12.5,2.549c5.496,0,9.951,4.455,9.951,9.951
		S17.996,22.449,12.5,22.449z"/>
</g>
</svg>
