<?xml version="1.0" encoding="utf-8"?>
<!-- Generator: Adobe Illustrator 20.0.0, SVG Export Plug-In . SVG Version: 6.00 Build 0)  -->
<svg version="1.1" id="Capa_1" xmlns="http://www.w3.org/2000/svg" xmlns:xlink="http://www.w3.org/1999/xlink" x="0px" y="0px"
	 viewBox="0 0 16 20" style="enable-background:new 0 0 16 20;" xml:space="preserve">
<style type="text/css">
	.st0{fill:#008894;}
</style>
<g>
	<g>
		<path class="st0" d="M13.8,10.6c0,0.2-0.3,0.4-0.7,0.4H3.7C3.3,11,3,10.8,3,10.6l0,0c0-0.2,0.3-0.4,0.7-0.4h9.4
			C13.5,10.2,13.8,10.4,13.8,10.6L13.8,10.6z"/>
		<path class="st0" d="M13.8,8.7c0,0.2-0.3,0.4-0.7,0.4H3.7C3.3,9.1,3,8.9,3,8.7l0,0c0-0.2,0.3-0.4,0.7-0.4h9.4
			C13.5,8.2,13.8,8.4,13.8,8.7L13.8,8.7z"/>
		<path class="st0" d="M13.8,12.6c0,0.2-0.3,0.4-0.7,0.4H3.7C3.3,13,3,12.8,3,12.6l0,0c0-0.2,0.3-0.4,0.7-0.4h9.4
			C13.5,12.2,13.8,12.4,13.8,12.6L13.8,12.6z"/>
		<path class="st0" d="M13.8,14.5c0,0.2-0.3,0.4-0.7,0.4H3.7c-0.4,0-0.7-0.2-0.7-0.4l0,0C3,14.2,3.3,14,3.7,14h9.4
			C13.5,14,13.8,14.2,13.8,14.5L13.8,14.5z"/>
		<path class="st0" d="M13.8,16.4c0,0.2-0.3,0.4-0.7,0.4H3.7c-0.4,0-0.7-0.2-0.7-0.4l0,0C3,16.2,3.3,16,3.7,16h9.4
			C13.5,16,13.8,16.2,13.8,16.4L13.8,16.4z"/>
	</g>
	<path class="st0" d="M16,0L16,0h-1h-0.1H2.2L0,3.1v15.8l0,0v1V20h14.9h1H16V0L16,0z M1,3.7l1.7-2.6h0.7l0,0H4v3.6H3.7H3.4H1V3.7z
		 M14.8,18.9H1.2L1,6.1h4.1V1.2l9.7-0.1C14.8,1.1,14.8,18.9,14.8,18.9z"/>
</g>
</svg>
