<?xml version="1.0" encoding="utf-8"?>
<!-- Generator: Adobe Illustrator 16.0.0, SVG Export Plug-In . SVG Version: 6.00 Build 0)  -->
<!DOCTYPE svg PUBLIC "-//W3C//DTD SVG 1.1//EN" "http://www.w3.org/Graphics/SVG/1.1/DTD/svg11.dtd" [
	<!ENTITY ns_extend "http://ns.adobe.com/Extensibility/1.0/">
	<!ENTITY ns_ai "http://ns.adobe.com/AdobeIllustrator/10.0/">
	<!ENTITY ns_graphs "http://ns.adobe.com/Graphs/1.0/">
	<!ENTITY ns_vars "http://ns.adobe.com/Variables/1.0/">
	<!ENTITY ns_imrep "http://ns.adobe.com/ImageReplacement/1.0/">
	<!ENTITY ns_sfw "http://ns.adobe.com/SaveForWeb/1.0/">
	<!ENTITY ns_custom "http://ns.adobe.com/GenericCustomNamespace/1.0/">
	<!ENTITY ns_adobe_xpath "http://ns.adobe.com/XPath/1.0/">
]>
<svg version="1.1" id="Capa_1" xmlns:x="&ns_extend;" xmlns:i="&ns_ai;" xmlns:graph="&ns_graphs;"
	 xmlns="http://www.w3.org/2000/svg" xmlns:xlink="http://www.w3.org/1999/xlink" x="0px" y="0px" width="190px" height="172.613px"
	 viewBox="0 87.387 190 172.613" enable-background="new 0 87.387 190 172.613" xml:space="preserve">
<metadata>
	<sfw  xmlns="&ns_sfw;">
		<slices></slices>
		<sliceSourceBounds  y="-122.501" x="-88.502" width="189.588" height="172.614" bottomLeftOrigin="true"></sliceSourceBounds>
	</sfw>
</metadata>
<g>
	<path fill="#424242" d="M69.167,154.441c0,0-2.352-1.435-2.352-2.406v-8.908c0,0,0.501-2.291,1.677-3.006
		c1.176-0.715,8.871-5.089,24.743-5.111c15.873-0.021,25.4,3.885,25.4,3.885s2.579,0.979,3.283,3.194v9.886
		c0,0-0.229,1.756-2.32,2.469l0.115,13.582c0,0-0.346,1.902-4.988,3.35v6.605c0,0,8.57,1.188,8.57,4.67
		c0,3.481-0.033,71.676-0.033,71.676s-0.076,5.337-26.953,5.662c-26.877,0.324-30.779-5.461-30.779-5.461v-71.016
		c0,0-0.342-4.65,8.614-5.521l0.065-6.616c0,0-4.988-1.143-5.016-3.459C69.167,165.6,69.167,154.441,69.167,154.441z"/>
	<path fill="#FFFFFF" d="M67.804,190.436c0,0,15.814-1.709,26.047-1.502c10.233,0.209,27.472,1.715,27.472,1.715l-0.191,47.524
		c0,0-14.942,1.784-26.206,1.501c-11.263-0.283-27.314-1.72-27.314-1.72L67.804,190.436z"/>
</g>
<g>
	<path fill="#424242" d="M135.458,106.82c0,0-2.353-1.435-2.353-2.408v-8.908c0,0,0.502-2.291,1.678-3.006s8.871-5.089,24.742-5.111
		c15.873-0.022,25.4,3.884,25.4,3.884s2.579,0.979,3.282,3.195v9.886c0,0-0.228,1.755-2.321,2.468l0.117,13.583
		c0,0-0.346,1.902-4.99,3.349v6.606c0,0,8.572,1.188,8.572,4.669c0,3.482-0.033,71.677-0.033,71.677s-0.076,5.337-26.953,5.662
		c-26.879,0.323-30.779-5.462-30.779-5.462v-71.014c0,0-0.342-4.651,8.615-5.521l0.064-6.617c0,0-4.988-1.142-5.016-3.459
		C135.458,117.976,135.458,106.82,135.458,106.82z"/>
	<path fill="#FFFFFF" d="M134.096,142.812c0,0,15.813-1.709,26.047-1.5c10.232,0.207,27.473,1.713,27.473,1.713l-0.192,47.525
		c0,0-14.942,1.784-26.205,1.501c-11.263-0.282-27.313-1.72-27.313-1.72L134.096,142.812z"/>
</g>
<g>
	<path fill="#424242" d="M3.638,106.82c0,0-2.352-1.435-2.352-2.408v-8.908c0,0,0.501-2.291,1.677-3.006
		c1.176-0.715,8.871-5.089,24.743-5.111s25.4,3.884,25.4,3.884s2.579,0.979,3.283,3.195v9.886c0,0-0.228,1.755-2.322,2.468
		l0.117,13.583c0,0-0.346,1.902-4.99,3.349v6.606c0,0,8.572,1.188,8.572,4.669c0,3.482-0.034,71.677-0.034,71.677
		s-0.077,5.337-26.954,5.662C3.901,212.689,0,206.904,0,206.904v-71.014c0,0-0.342-4.651,8.614-5.521l0.065-6.617
		c0,0-4.988-1.142-5.016-3.459C3.638,117.976,3.638,106.82,3.638,106.82z"/>
	<path fill="#FFFFFF" d="M2.275,142.812c0,0,15.814-1.709,26.047-1.5c10.233,0.207,27.473,1.713,27.473,1.713l-0.192,47.525
		c0,0-14.943,1.784-26.206,1.501c-11.263-0.282-27.314-1.72-27.314-1.72L2.275,142.812z"/>
</g>
</svg>
