<?xml version="1.0" encoding="utf-8"?>
<!-- Generator: Adobe Illustrator 16.0.0, SVG Export Plug-In . SVG Version: 6.00 Build 0)  -->
<!DOCTYPE svg PUBLIC "-//W3C//DTD SVG 1.1//EN" "http://www.w3.org/Graphics/SVG/1.1/DTD/svg11.dtd" [
	<!ENTITY ns_extend "http://ns.adobe.com/Extensibility/1.0/">
	<!ENTITY ns_ai "http://ns.adobe.com/AdobeIllustrator/10.0/">
	<!ENTITY ns_graphs "http://ns.adobe.com/Graphs/1.0/">
	<!ENTITY ns_vars "http://ns.adobe.com/Variables/1.0/">
	<!ENTITY ns_imrep "http://ns.adobe.com/ImageReplacement/1.0/">
	<!ENTITY ns_sfw "http://ns.adobe.com/SaveForWeb/1.0/">
	<!ENTITY ns_custom "http://ns.adobe.com/GenericCustomNamespace/1.0/">
	<!ENTITY ns_adobe_xpath "http://ns.adobe.com/XPath/1.0/">
]>
<svg version="1.1" id="Capa_1" xmlns:x="&ns_extend;" xmlns:i="&ns_ai;" xmlns:graph="&ns_graphs;"
	 xmlns="http://www.w3.org/2000/svg" xmlns:xlink="http://www.w3.org/1999/xlink" x="0px" y="0px" width="53px" height="107px"
	 viewBox="0 0 53 107" enable-background="new 0 0 53 107" xml:space="preserve">
<metadata>
	<sfw  xmlns="&ns_sfw;">
		<slices></slices>
		<sliceSourceBounds  width="52.637" height="107" bottomLeftOrigin="true" y="-41" x="-13.819"></sliceSourceBounds>
	</sfw>
</metadata>
<path fill="#424242" d="M52.818,1.398C52.818,0.627,52.122,0,51.268,0H1.733C0.88,0,0.181,0.627,0.181,1.398v8.009h52.633
	L52.818,1.398L52.818,1.398z"/>
<path fill="#424242" d="M52.018,24.179l-5.182-8.702H6.166l-5.178,8.702c-0.445,0.967-0.804,2.803-0.804,4.103v65.929
	c0,1.291,0.358,3.131,0.804,4.1l3.179,6.943C4.61,106.223,5.506,107,6.166,107h40.67c0.665,0,1.557-0.777,2.001-1.746l3.181-6.956
	c0.443-0.965,0.801-2.796,0.801-4.087V28.283C52.818,26.982,52.461,25.146,52.018,24.179z M49.173,84.68H3.825V37.796h45.348V84.68z
	"/>
<path fill="#424242" d="M32.902,57.6c-3.303,2.01-3.674,6.314-3.541,9.043c2.513-2.953,5.604-4.518,7.371-4.812
	c-2.84,1.113-4.98,3.329-6.762,5.775c-0.718,1.258-1.379,2.49-1.754,3.851c-0.41-1.593-1.109-3.08-1.863-4.603
	c-2.119-3.303-4.725-6.332-8.318-7.986c2.266,0.515,6.154,2.771,9.181,6.783c0.376-3.52,0.223-9.121-3.9-11.97
	c-4.534-3.133-10.257-4.202-13.085-4.554c-0.643-0.08-1.089,0.625-0.738,1.169c0.927,1.435,2.184,3.99,2.369,7.479
	c0.185,3.487,0.398,9.932,12.851,10.894c1.849,3.381,2.761,5.183,3.097,8.412c0.025,0.246,0.371,0.269,0.432,0.028
	c0.229-0.936,0.831-5.639,2.914-8.032c9.63-0.181,10.085-5.134,10.385-7.81c0.271-2.455,1.206-4.267,1.958-5.369
	c0.358-0.527-0.056-1.238-0.69-1.188C40.509,54.893,36.337,55.511,32.902,57.6L32.902,57.6z"/>
</svg>
