<?xml version="1.0" encoding="utf-8"?>
<!-- Generator: Adobe Illustrator 16.0.0, SVG Export Plug-In . SVG Version: 6.00 Build 0)  -->
<!DOCTYPE svg PUBLIC "-//W3C//DTD SVG 1.1//EN" "http://www.w3.org/Graphics/SVG/1.1/DTD/svg11.dtd">
<svg version="1.1" id="Capa_1" xmlns="http://www.w3.org/2000/svg" xmlns:xlink="http://www.w3.org/1999/xlink" x="0px" y="0px"
	 width="60px" height="60px" viewBox="0 0 60 60" enable-background="new 0 0 60 60" xml:space="preserve">
<g>
	<circle fill="#008996" cx="30.002" cy="29.966" r="30"/>
	<path fill="#FFFFFF" d="M20.117,44.663c0.311,0.547,0.779,0.854,1.293,0.854c0.439,0,0.863-0.221,1.193-0.627l22.948-27.868
		c0.373-0.452,0.541-0.962,0.461-1.437c-0.055-0.398-0.281-0.748-0.633-0.978c-0.752-0.496-1.918-0.043-3.107,1.259L23.185,34.968
		c-0.467,0.421-0.957,0.869-1.572,0.869c-0.297,0-0.609-0.098-0.932-0.296l-5.965-4.207c-0.59-0.515-1.234-0.508-1.486-0.059
		c-0.184,0.325-0.121,0.796,0.154,1.253L20.117,44.663z"/>
</g>
</svg>
