<svg xmlns="http://www.w3.org/2000/svg" width="20.84277" height="18.11499" viewBox="0 0 20.84277 18.11499"><title>hallazgos_revisados</title><g id="Layer_2" data-name="Layer 2"><g id="VISTA"><path d="M20.718,11.86117V2.48275A2.36172,2.36172,0,0,0,18.36035.1251H2.48276A2.36171,2.36171,0,0,0,.12512,2.48275v9.37842a2.36171,2.36171,0,0,0,2.35764,2.35764h.67287V17.0459a.94683.94683,0,0,0,1.66391.61556l2.97835-3.448H18.3657a2.35257,2.35257,0,0,0,2.3523-2.3523ZM7.50065,12.94082a.64189.64189,0,0,0-.48516.21927L4.42834,16.14888V13.57724a.641.641,0,0,0-.64157-.64157h-1.304a1.08174,1.08174,0,0,1-1.07959-1.07959V2.48275A1.08157,1.08157,0,0,1,2.48276,1.40316H18.36035a1.08158,1.08158,0,0,1,1.07959,1.07959v9.37842a1.08163,1.08163,0,0,1-1.07959,1.07965Zm0,0" style="fill:#4ba92b"/><path d="M4.10449,18.115A1.07253,1.07253,0,0,1,3.03027,17.0459V14.34375H2.48242A2.48518,2.48518,0,0,1,0,11.86108V2.48267A2.48518,2.48518,0,0,1,2.48242,0H18.36035a2.48518,2.48518,0,0,1,2.48242,2.48267v9.37842A2.47772,2.47772,0,0,1,18.375,14.33838H7.85547L4.91406,17.74316A1.07768,1.07768,0,0,1,4.10449,18.115ZM2.48242.25A2.23469,2.23469,0,0,0,.25,2.48267v9.37842a2.23469,2.23469,0,0,0,2.23242,2.23267h.79785V17.0459a.82214.82214,0,0,0,1.44531.5332l3.01465-3.49072H18.375a2.22683,2.22683,0,0,0,2.21777-2.22729V2.48267A2.23532,2.23532,0,0,0,18.36035.25ZM4.30371,16.48438V13.57715a.5169.5169,0,0,0-.5166-.51636H2.48242a1.20557,1.20557,0,0,1-1.2041-1.20459V2.48267a1.20557,1.20557,0,0,1,1.2041-1.20459H18.36035a1.20557,1.20557,0,0,1,1.2041,1.20459v9.37842a1.20578,1.20578,0,0,1-1.2041,1.20483H7.501a.51755.51755,0,0,0-.3916.17725ZM2.48242,1.52808a.95525.95525,0,0,0-.9541.95459V11.8562a.95525.95525,0,0,0,.9541.95459H3.78711a.76723.76723,0,0,1,.7666.76636v2.23633L6.9209,13.07837a.7659.7659,0,0,1,.58008-.26245H18.36035a.9553.9553,0,0,0,.9541-.95483V2.48267a.95525.95525,0,0,0-.9541-.95459Z" style="fill:#4ba92b"/><path d="M11.18323,7.39625a.76167.76167,0,1,1-.76154-.76154.76163.76163,0,0,1,.76154.76154Zm0,0" style="fill:#4ba92b"/><path d="M13.73367,7.39625a.76154.76154,0,1,1-.76154-.76154.76146.76146,0,0,1,.76154.76154Zm0,0" style="fill:#4ba92b"/><path d="M8.63246,7.39625A.76151.76151,0,1,1,7.871,6.63471a.76157.76157,0,0,1,.76147.76154Zm0,0" style="fill:#4ba92b"/></g></g></svg>