<?xml version="1.0" encoding="utf-8"?>
<!-- Generator: Adobe Illustrator 16.0.0, SVG Export Plug-In . SVG Version: 6.00 Build 0)  -->
<!DOCTYPE svg PUBLIC "-//W3C//DTD SVG 1.1//EN" "http://www.w3.org/Graphics/SVG/1.1/DTD/svg11.dtd" [
	<!ENTITY ns_extend "http://ns.adobe.com/Extensibility/1.0/">
	<!ENTITY ns_ai "http://ns.adobe.com/AdobeIllustrator/10.0/">
	<!ENTITY ns_graphs "http://ns.adobe.com/Graphs/1.0/">
	<!ENTITY ns_vars "http://ns.adobe.com/Variables/1.0/">
	<!ENTITY ns_imrep "http://ns.adobe.com/ImageReplacement/1.0/">
	<!ENTITY ns_sfw "http://ns.adobe.com/SaveForWeb/1.0/">
	<!ENTITY ns_custom "http://ns.adobe.com/GenericCustomNamespace/1.0/">
	<!ENTITY ns_adobe_xpath "http://ns.adobe.com/XPath/1.0/">
]>
<svg version="1.1" id="Capa_1" xmlns:x="&ns_extend;" xmlns:i="&ns_ai;" xmlns:graph="&ns_graphs;"
	 xmlns="http://www.w3.org/2000/svg" xmlns:xlink="http://www.w3.org/1999/xlink" x="0px" y="0px" width="190px" height="191.768px"
	 viewBox="0 68.232 190 191.768" enable-background="new 0 68.232 190 191.768" xml:space="preserve">
<metadata>
	<sfw  xmlns="&ns_sfw;">
		<slices></slices>
		<sliceSourceBounds  y="-121.569" x="-88.498" width="189.797" height="190.837" bottomLeftOrigin="true"></sliceSourceBounds>
	</sfw>
</metadata>
<g>
	<path fill="#424242" d="M124.057,97.082H65.67c-7.042,0-12.756,7.063-12.756,15.786v75.263c0,8.709,5.714,15.771,12.756,15.771
		h58.387c7.045,0,12.76-7.062,12.76-15.771v-75.263C136.816,104.145,131.102,97.082,124.057,97.082z M110.475,171.186H99.754v10.666
		h-8.995v-10.666H80.094v-8.994h10.665v-10.723h8.995v10.723h10.721V171.186z M127.346,132.689H62.58v-19.766
		c0-2.163,1.415-3.893,3.165-3.893h58.44c1.737,0,3.16,1.729,3.16,3.893V132.689z"/>
	<path fill="#424242" d="M125.023,73.421c0-2.864-13.504-5.189-30.065-5.189c-16.56,0-30.052,2.325-30.052,5.189V91.11h60.117
		V73.421z"/>
</g>
<path fill="#424242" d="M181.759,206.066c-10.72-10.719-28.103-10.719-38.821,0c-10.719,10.72-10.719,28.101,0,38.819
	c10.72,10.722,28.1,10.72,38.821,0C192.479,234.166,192.479,216.786,181.759,206.066z M150.322,240.803
	c-0.666,0.664-1.758,0.649-2.44-0.035l-1.235-1.236c-0.686-0.684-0.698-1.774-0.035-2.438l28.636-28.635
	c0.663-0.664,1.755-0.649,2.44,0.034l1.235,1.236c0.683,0.684,0.698,1.775,0.032,2.439L150.322,240.803z"/>
<path fill="#424242" d="M69.217,243.277c0.759-4.676-0.257-9.424-2.859-13.368l-0.067-0.103l-32.627-42.068
	c-6.366-8.191-18.209-9.676-26.4-3.312c-8.193,6.366-9.676,18.209-3.312,26.4l0.003,0.003l32.634,41.906l0.156,0.187
	c3.179,3.497,7.53,5.651,12.249,6.071c4.748,0.423,9.436-0.958,13.2-3.883C65.959,252.186,68.453,247.982,69.217,243.277
	L69.217,243.277z M25.267,227.811L8.991,206.909c-4.204-5.412-3.222-13.234,2.188-17.438c5.412-4.207,13.236-3.227,17.438,2.186
	l16.237,20.932L25.267,227.811z"/>
</svg>
