<svg id="Capa_1" data-name="Capa 1" xmlns="http://www.w3.org/2000/svg" viewBox="0 0 15 15"><defs><style>.cls-1{fill:#cafe00;}</style></defs><title>cambiar_costo_verde</title>
<path class="class-1" fill="#008894" d="M1812.56,475.9l-2.23.23-1.06-.82,1.51-.16a6.58,6.58,0,0,0-3.51-1,6.46,6.46,0,0,0-6.56,6.22l-0.93,0a7.38,7.38,0,0,1,7.5-7.11,7.68,7.68,0,0,1,4.17,1.23l-0.17-1.57,1.05,0.82Z" transform="translate(-1799.77 -472.89)"/>
<path class="cls-1" fill="#008894" d="M1814.77,480.56a7.42,7.42,0,0,1-7.5,7.32,7.57,7.57,0,0,1-4.65-1.57l0.05,1.59-1-.9-0.07-2.2,2.25-.06,1,0.91-1.53,0a6.63,6.63,0,0,0,3.94,1.29,6.49,6.49,0,0,0,6.56-6.41h0.94Z" transform="translate(-1799.77 -472.89)"/>
<path class="cls-1" fill="#008894" d="M1806.71,485.14V484a4.82,4.82,0,0,1-2-.49l0.35-1.34a4.24,4.24,0,0,0,2,.51c0.67,0,1.13-.25,1.13-0.71s-0.38-.71-1.25-1c-1.26-.41-2.12-1-2.12-2.1a2.14,2.14,0,0,1,2-2v-1.09h1.15v1a4.32,4.32,0,0,1,1.71.38l-0.34,1.3a4,4,0,0,0-1.7-.39c-0.76,0-1,.32-1,0.64s0.41,0.62,1.41,1c1.4,0.48,2,1.11,2,2.15a2.22,2.22,0,0,1-2.1,2.13v1.17h-1.15Z" transform="translate(-1799.77 -472.89)"/></svg>