<svg xmlns="http://www.w3.org/2000/svg" width="25" height="25" viewBox="0 0 25 25"><title>precio_verde</title><g id="Layer_2" data-name="Layer 2"><g id="Maqueta"><path d="M12.87172,19.08408H12.182v-1.1577a3.73766,3.73766,0,0,1-2.1066-.71581,3.12846,3.12846,0,0,1-1.10219-1.91929c-.02024-.13191-.03514-.25916-.04507-.381s-.02024-.24365-.02979-.36547H9.873a2.77533,2.77533,0,0,0,.165.96721,2.41782,2.41782,0,0,0,.472.79185,2.47641,2.47641,0,0,0,.72753.55635,2.33588,2.33588,0,0,0,.92956.24365V12.57975a10.46522,10.46522,0,0,1-1.16214-.3581,3.3955,3.3955,0,0,1-.9521-.53307,2.3129,2.3129,0,0,1-.6374-.81513,2.78215,2.78215,0,0,1-.2322-1.2031,2.72,2.72,0,0,1,.23984-1.1577,2.65449,2.65449,0,0,1,.6523-.8838,2.85114,2.85114,0,0,1,.9521-.556,3.20617,3.20617,0,0,1,1.15451-.175V5.96873h.68973v.92919a3.59007,3.59007,0,0,1,1.13961.175,2.62949,2.62949,0,0,1,.91467.51794,2.42409,2.42409,0,0,1,.61487.84539A3.13926,3.13926,0,0,1,15.796,9.57879h-.97463a1.78446,1.78446,0,0,0-.15773-.75421,1.83723,1.83723,0,0,0-.41972-.58622,1.914,1.914,0,0,0-.61487-.381,2.07456,2.07456,0,0,0-.75732-.137v4.052q.735.18273,1.33477.39612a3.30827,3.30827,0,0,1,1.01969.56333,2.33477,2.33477,0,0,1,.6523.9063,3.73435,3.73435,0,0,1,.2322,1.42463,2.46933,2.46933,0,0,1-.2849,1.19573,2.89614,2.89614,0,0,1-.742.89117,3.40074,3.40074,0,0,1-1.04223.56333,3.95437,3.95437,0,0,1-1.16978.21338ZM12.1671,7.72041a2.23715,2.23715,0,0,0-.78711.137,1.98737,1.98737,0,0,0-.645.38836,1.79682,1.79682,0,0,0-.43461.60174,1.87518,1.87518,0,0,0-.15735.77711,1.965,1.965,0,0,0,.15735.83763,1.53,1.53,0,0,0,.43461.556,2.33523,2.33523,0,0,0,.645.3581q.3672.13734.78711.25878Zm.70462,9.38346a2.30824,2.30824,0,0,0,.87724-.1676,2.396,2.396,0,0,0,.72753-.457,2.08261,2.08261,0,0,0,.49457-.69292,2.411,2.411,0,0,0,0-1.82812,1.67406,1.67406,0,0,0-.48731-.6095,2.43275,2.43275,0,0,0-.71951-.37284,9.131,9.131,0,0,0-.89252-.244Z" style="fill:#008693"/><path d="M13.209,19.42649H11.84523V18.23977a3.93173,3.93173,0,0,1-1.97282-.75651,3.47153,3.47153,0,0,1-1.22861-2.12064c-.02474-.15952-.04092-.29535-.05139-.42538l-.06186-.73476h1.67971v.34224a2.44316,2.44316,0,0,0,.14275.84739,2.087,2.087,0,0,0,.40637.68158,2.12763,2.12763,0,0,0,.62811.48049,1.9089,1.9089,0,0,0,.44253.15855V12.84512c-.32833-.08894-.64428-.19046-.94216-.30309a3.721,3.721,0,0,1-1.04494-.58635,2.64672,2.64672,0,0,1-.72993-.93343,3.12313,3.12313,0,0,1-.26647-1.352A3.07534,3.07534,0,0,1,9.11868,8.367a3.02323,3.02323,0,0,1,.73469-.99579,3.2054,3.2054,0,0,1,1.064-.62116,3.43942,3.43942,0,0,1,.92788-.18707V5.62663H13.209v.94213a3.78212,3.78212,0,0,1,.90695.17934,2.95367,2.95367,0,0,1,1.02971.58394A2.768,2.768,0,0,1,15.847,8.295a3.474,3.474,0,0,1,.28455,1.26745l.01713.35868H14.48422V9.57884a1.44382,1.44382,0,0,0-.12562-.60956,1.47476,1.47476,0,0,0-.3426-.47856,1.58138,1.58138,0,0,0-.50724-.31372,1.64148,1.64148,0,0,0-.29978-.08459v3.41371c.40066.10635.77276.21994,1.1087.33934a3.66048,3.66048,0,0,1,1.122.62213,2.68871,2.68871,0,0,1,.749,1.03688,4.09147,4.09147,0,0,1,.25886,1.55845,2.8298,2.8298,0,0,1-.32642,1.36026,3.26005,3.26005,0,0,1-.82891.99482,3.75424,3.75424,0,0,1-1.14391.61922,4.42028,4.42028,0,0,1-.9393.20931Zm-.69-.68448h.01618V17.593l.32833-.00822a3.64947,3.64947,0,0,0,1.07159-.19626,3.09257,3.09257,0,0,0,.94121-.508,2.589,2.589,0,0,0,.65475-.78744,2.14057,2.14057,0,0,0,.24268-1.03011,3.39313,3.39313,0,0,0-.20556-1.29066,2.00333,2.00333,0,0,0-.55578-.77633,2.98583,2.98583,0,0,0-.91741-.50466c-.38638-.13728-.82415-.26732-1.30284-.38671l-.257-.06381V7.378h.33689a2.39987,2.39987,0,0,1,.87744.16049,2.23524,2.23524,0,0,1,.72137.4481,2.179,2.179,0,0,1,.49773.6927,2.08489,2.08489,0,0,1,.16464.55735h.29026a2.58279,2.58279,0,0,0-.18938-.65886,2.08029,2.08029,0,0,0-.52818-.728,2.30815,2.30815,0,0,0-.79941-.452,3.26424,3.26424,0,0,0-1.03447-.15759h-.33689L12.519,6.31111v.9373l-.34546-.0087a2.93478,2.93478,0,0,0-1.03542.15614,2.543,2.543,0,0,0-.84223.49064,2.34669,2.34669,0,0,0-.56815.77149A2.393,2.393,0,0,0,9.52028,9.6702,2.4627,2.4627,0,0,0,9.71823,10.724a1.94666,1.94666,0,0,0,.54436.69657,3.05817,3.05817,0,0,0,.85841.48,10.06745,10.06745,0,0,0,1.12583.34708l.257.06332v5.15537l-.35688-.02127a2.66622,2.66622,0,0,1-1.06017-.27892,2.81588,2.81588,0,0,1-.82605-.63228,2.77783,2.77783,0,0,1-.53865-.903,3.02059,3.02059,0,0,1-.16845-.74394H9.26428c.00952.11408.02284.23154.04187.35191a2.75762,2.75762,0,0,0,.97261,1.69912,3.42663,3.42663,0,0,0,1.92333.64726l.31691.01885Zm.35307-1.296h-.33689V12.3071l.40922.09088a9.39109,9.39109,0,0,1,.92408.25281,2.786,2.786,0,0,1,.81844.4249,2.01727,2.01727,0,0,1,.58718.73234,2.75143,2.75143,0,0,1,.00381,2.11967,2.42835,2.42835,0,0,1-.57481.80485,2.7442,2.7442,0,0,1-.82986.5211A2.63209,2.63209,0,0,1,12.87208,17.446Zm.33689-4.27995V16.735a1.9083,1.9083,0,0,0,.414-.1165,2.07057,2.07057,0,0,0,.62811-.393,1.7646,1.7646,0,0,0,.414-.58007,2.07329,2.07329,0,0,0,.00381-1.5367,1.31425,1.31425,0,0,0-.38828-.48726,2.12067,2.12067,0,0,0-.62144-.321Q13.44356,13.22941,13.209,13.16609Zm-.70519-1.07748-.42921-.12472c-.28836-.08363-.55958-.17209-.81178-.26683a2.69793,2.69793,0,0,1-.73564-.40943,1.88109,1.88109,0,0,1-.531-.67868,2.309,2.309,0,0,1-.19033-.98419,2.22882,2.22882,0,0,1,.18843-.91989,2.14478,2.14478,0,0,1,.51581-.714,2.34176,2.34176,0,0,1,.75373-.45439,2.57407,2.57407,0,0,1,.90314-.15855h.33689ZM11.83,8.08951a1.809,1.809,0,0,0-.334.08894,1.66555,1.66555,0,0,0-.5377.32291,1.437,1.437,0,0,0-.35117.48774,1.52068,1.52068,0,0,0-.12752.63566,1.62476,1.62476,0,0,0,.12467.68883,1.16915,1.16915,0,0,0,.3388.436,2.01057,2.01057,0,0,0,.55292.3055c.10754.0406.21984.07976.334.11795Z" style="fill:#008693"/><path d="M12.80027,24.65761a12.63339,12.63339,0,0,1-9.89966-4.90678l.39984-.3203a11.78667,11.78667,0,0,0,13.9383,3.76982A12.19162,12.19162,0,0,0,23.326,7.82475l.471-.19652a12.72206,12.72206,0,0,1-6.35187,16.045A11.28474,11.28474,0,0,1,12.80027,24.65761Z" style="fill:#404040"/><path d="M12.80071,25A12.97738,12.97738,0,0,1,2.63587,19.96258l-.20842-.26828.92883-.74442.20842.26877a11.45079,11.45079,0,0,0,13.53757,3.66894A11.84114,11.84114,0,0,0,23.015,7.95464L22.88656,7.638,23.981,7.18219l.12752.31614A13.07269,13.07269,0,0,1,17.581,23.98584,11.5448,11.5448,0,0,1,12.80071,25Z" style="fill:#008693"/><path d="M1.63571,17.75477a12.31083,12.31083,0,0,1-.137-10.725A11.88832,11.88832,0,0,1,11.81709.36467,12.0463,12.0463,0,0,1,22.872,5.81758l-.43067.27584A11.54333,11.54333,0,0,0,11.84618.88124,11.38694,11.38694,0,0,0,1.95771,7.25362a11.94462,11.94462,0,0,0,.13154,10.26572Z" style="fill:#404040"/><path d="M1.4891,18.21512l-.15322-.30454A12.65771,12.65771,0,0,1,1.195,6.882,12.22,12.22,0,0,1,11.79764.02364,12.3881,12.3881,0,0,1,23.15683,5.63533l.17987.28907-1.00116.641-.17891-.28955A11.22752,11.22752,0,0,0,11.86521,1.22245a11.05728,11.05728,0,0,0-9.6043,6.17968,11.59115,11.59115,0,0,0,.12848,9.96173l.15322.30454Z" style="fill:#008693"/></g></g></svg>