<?xml version="1.0" encoding="utf-8"?>
<!-- Generator: Adobe Illustrator 16.0.0, SVG Export Plug-In . SVG Version: 6.00 Build 0)  -->
<!DOCTYPE svg PUBLIC "-//W3C//DTD SVG 1.1//EN" "http://www.w3.org/Graphics/SVG/1.1/DTD/svg11.dtd" [
	<!ENTITY ns_extend "http://ns.adobe.com/Extensibility/1.0/">
	<!ENTITY ns_ai "http://ns.adobe.com/AdobeIllustrator/10.0/">
	<!ENTITY ns_graphs "http://ns.adobe.com/Graphs/1.0/">
	<!ENTITY ns_vars "http://ns.adobe.com/Variables/1.0/">
	<!ENTITY ns_imrep "http://ns.adobe.com/ImageReplacement/1.0/">
	<!ENTITY ns_sfw "http://ns.adobe.com/SaveForWeb/1.0/">
	<!ENTITY ns_custom "http://ns.adobe.com/GenericCustomNamespace/1.0/">
	<!ENTITY ns_adobe_xpath "http://ns.adobe.com/XPath/1.0/">
]>
<svg version="1.1" id="Capa_1" xmlns:x="&ns_extend;" xmlns:i="&ns_ai;" xmlns:graph="&ns_graphs;"
	 xmlns="http://www.w3.org/2000/svg" xmlns:xlink="http://www.w3.org/1999/xlink" x="0px" y="0px" width="190px" height="149.819px"
	 viewBox="0 110.181 190 149.819" enable-background="new 0 110.181 190 149.819" xml:space="preserve">
<metadata>
	<sfw  xmlns="&ns_sfw;">
		<slices></slices>
		<sliceSourceBounds  y="-122.501" x="-88.5" width="190.365" height="149.82" bottomLeftOrigin="true"></sliceSourceBounds>
	</sfw>
</metadata>
<g>
	<g>
		<path fill="#424242" d="M184.025,118.596c-2.657,0-5.168,0.038-7.678,0.098v-8.513h-2.789c-54.303,0-72.502,12.989-78.376,20.002
			c-5.871-7.013-24.079-20.002-78.377-20.002h-2.793v8.513c-2.505-0.06-5.011-0.098-7.674-0.098H0v123.187h6.338
			c66.977,0,80.66,15.354,82.612,18.218h12.569c2.121-2.994,16.062-18.218,82.506-18.218h6.34V118.596H184.025z M90.999,236.223
			c-9.373-6.896-28.985-14.891-69.992-15.432v-103.57c57.42,0.752,68.521,16.472,69.992,19.037V236.223z M169.357,220.791
			c-41.012,0.541-60.623,8.534-69.992,15.432v-99.928c1.6-2.807,12.994-18.322,69.992-19.074V220.791z"/>
	</g>
</g>
<g>
	<g>
		<path fill="#424242" d="M74.327,148.668c-2.651-1.648-6.143-0.834-7.799,1.814c-1.209,1.943-1.095,4.334,0.092,6.127l-3.285,5.268
			H37.563c-1.614,0-2.926,1.323-2.926,2.938c0,1.617,1.312,2.938,2.926,2.938h0.249v26.937c0,3.334,2.712,6.047,6.049,6.047h21.52
			c3.335,0,6.047-2.713,6.047-6.047v-26.937h0.248c1.617,0,2.927-1.321,2.927-2.938c0-1.614-1.31-2.938-2.927-2.938h-2.82
			l1.74-2.792c2.131,0.284,4.33-0.674,5.545-2.616C77.791,153.812,76.983,150.325,74.327,148.668L74.327,148.668z M66.743,194.689
			c0,0.75-0.61,1.361-1.362,1.361H43.86c-0.754,0-1.354-0.611-1.354-1.361v-6.82h2.65c1.293,0,2.344-1.049,2.344-2.34
			c0-1.297-1.051-2.348-2.344-2.348h-2.65v-4.686h2.65c1.293,0,2.344-1.043,2.344-2.339s-1.051-2.347-2.344-2.347h-2.65v-6.06H59.69
			l-14.184,22.765c-0.685,1.104-0.348,2.545,0.75,3.229c0.384,0.235,0.814,0.354,1.239,0.354c0.778,0,1.547-0.391,1.99-1.101
			l15.719-25.248h1.538L66.743,194.689L66.743,194.689z"/>
	</g>
</g>
<path fill="#424242" d="M144.146,163.719v-11.804c1.701-0.003,3.08-1.386,3.08-3.086c0-1.705-1.381-3.087-3.086-3.087h-17.897
	c-1.704,0-3.087,1.382-3.087,3.087c0,1.7,1.38,3.083,3.08,3.086v11.804c-7.147,3.416-11.812,10.691-11.812,18.74
	c0,11.453,9.316,20.768,20.768,20.768s20.769-9.313,20.769-20.768C155.96,174.41,151.294,167.135,144.146,163.719z M130.348,168.688
	c1.234-0.434,2.061-1.602,2.061-2.91v-13.861h5.566v13.861c0,1.31,0.826,2.478,2.062,2.912c5.552,1.951,9.364,7.059,9.721,12.879
	h-3.763h-21.604h-3.765C120.982,175.747,124.795,170.641,130.348,168.688z"/>
</svg>
