<?xml version="1.0" encoding="utf-8"?>
<!-- Generator: Adobe Illustrator 16.0.0, SVG Export Plug-In . SVG Version: 6.00 Build 0)  -->
<!DOCTYPE svg PUBLIC "-//W3C//DTD SVG 1.1//EN" "http://www.w3.org/Graphics/SVG/1.1/DTD/svg11.dtd" [
	<!ENTITY ns_extend "http://ns.adobe.com/Extensibility/1.0/">
	<!ENTITY ns_ai "http://ns.adobe.com/AdobeIllustrator/10.0/">
	<!ENTITY ns_graphs "http://ns.adobe.com/Graphs/1.0/">
	<!ENTITY ns_vars "http://ns.adobe.com/Variables/1.0/">
	<!ENTITY ns_imrep "http://ns.adobe.com/ImageReplacement/1.0/">
	<!ENTITY ns_sfw "http://ns.adobe.com/SaveForWeb/1.0/">
	<!ENTITY ns_custom "http://ns.adobe.com/GenericCustomNamespace/1.0/">
	<!ENTITY ns_adobe_xpath "http://ns.adobe.com/XPath/1.0/">
]>
<svg version="1.1" id="Capa_1" xmlns:x="&ns_extend;" xmlns:i="&ns_ai;" xmlns:graph="&ns_graphs;"
	 xmlns="http://www.w3.org/2000/svg" xmlns:xlink="http://www.w3.org/1999/xlink" x="0px" y="0px" width="190px" height="187.009px"
	 viewBox="0 72.991 190 187.009" enable-background="new 0 72.991 190 187.009" xml:space="preserve">
<metadata>
	<sfw  xmlns="&ns_sfw;">
		<slices></slices>
		<sliceSourceBounds  y="-122.148" x="-87.897" width="189.182" height="186.658" bottomLeftOrigin="true"></sliceSourceBounds>
	</sfw>
</metadata>
<g>
	<path fill="#424242" d="M5.512,75.053c-5.308,3.625-6.5,10.821-2.65,16.034l2.89,3.923l-1.354,0.926
		c-1.529,1.044-1.872,3.106-0.762,4.609c0.477,0.644,1.135,1.076,1.859,1.283c0.968,0.276,2.044,0.144,2.917-0.453l1.355-0.927
		l24.438,33.104c1.208,1.651,2.855,2.977,4.737,3.83l11.366,5.197c0.227,0.098,0.453,0.178,0.686,0.245
		c1.367,0.39,2.803,0.173,3.958-0.604c1.348-0.91,2.083-2.472,1.92-4.064l-1.224-12.105c-0.197-2.036-0.965-4.001-2.201-5.683
		l-24.403-33.07l1.363-0.923c1.53-1.044,1.863-3.106,0.762-4.609c-1.112-1.503-3.248-1.874-4.784-0.832l-1.356,0.926l-2.893-3.914
		c-1.577-2.147-3.878-3.732-6.479-4.475C12.151,72.471,8.451,73.047,5.512,75.053L5.512,75.053z M13.927,97.614l10.964-7.479
		l24.397,33.066c0.7,0.956,1.138,2.071,1.259,3.232l1.14,11.315L41.049,132.9c-1.075-0.485-2.002-1.239-2.697-2.176l-2.511-3.417
		l2.5-1.708c1.144-0.783,1.399-2.328,0.574-3.453c-0.842-1.127-2.441-1.409-3.588-0.625l-2.501,1.708l-2.968-4.022l2.512-1.704
		c1.137-0.786,1.394-2.331,0.564-3.456c-0.834-1.126-2.432-1.407-3.58-0.622l-2.5,1.706l-2.97-4.022l2.5-1.706
		c1.148-0.784,1.405-2.329,0.573-3.452c-0.83-1.127-2.431-1.404-3.585-0.626l-2.501,1.706L13.927,97.614z"/>
	<path fill="#424242" d="M55.861,146.864c-0.583,0-1.109,0.334-1.359,0.834c-1.701,3.528-4.406,9.467-4.406,11.571
		c0,3.071,2.578,5.556,5.765,5.556c3.194,0,5.772-2.483,5.772-5.556c0-2.104-2.716-8.043-4.423-11.571
		C56.966,147.198,56.435,146.864,55.861,146.864L55.861,146.864z"/>
</g>
<g>
	<path fill="#424242" d="M76.672,166.738H38.07c-1.517,0-2.756,1.398-2.756,3.13c0,1.718,1.239,3.118,2.756,3.118h1.902v66.957
		c0,10.871,7.794,19.705,17.398,19.705c4.811,0,9.157-2.213,12.313-5.789c3.142-3.541,5.081-8.479,5.096-13.916l-0.015-66.957h1.906
		c1.531,0,2.75-1.4,2.75-3.118C79.422,168.137,78.203,166.738,76.672,166.738L76.672,166.738z M60.74,205.634
		c-1.695,1.929-4.47,1.929-6.158,0c-1.695-1.932-1.695-5.046,0-6.958c1.707-1.929,4.462-1.929,6.158,0
		C62.448,200.588,62.448,203.702,60.74,205.634L60.74,205.634z M53.566,185.896c1.13-1.299,2.978-1.278,4.1,0
		c1.142,1.272,1.142,3.36,0,4.638c-1.123,1.292-2.97,1.292-4.1,0C52.444,189.257,52.444,187.169,53.566,185.896L53.566,185.896z
		 M61.432,190.922c0.829-0.957,2.189-0.938,3.016,0c0.844,0.938,0.844,2.479,0,3.416c-0.827,0.957-2.188,0.957-3.016,0
		C60.585,193.398,60.585,191.859,61.432,190.922L61.432,190.922z M68.966,215.938l-23.2-6.355v-36.596h23.2V215.938z"/>
</g>
<g>
	<g>
		<path fill="#424242" d="M141.941,198.293c0-2.396-1.957-4.374-4.395-4.374c-2.418,0-4.354,1.978-4.354,4.374
			c0,2.415,1.936,4.373,4.354,4.373C139.984,202.666,141.941,200.708,141.941,198.293z"/>
		<path fill="#424242" d="M125.124,202.834c-3.299,0-5.968,2.689-5.968,5.969c0,3.301,2.669,5.971,5.968,5.971
			c3.302,0,5.972-2.67,5.972-5.971C131.096,205.523,128.426,202.834,125.124,202.834z"/>
		<path fill="#424242" d="M136.518,212.124c0,3.384,2.748,6.138,6.115,6.138c3.387,0,6.139-2.754,6.139-6.138
			s-2.752-6.116-6.139-6.116C139.266,206.008,136.518,208.74,136.518,212.124z"/>
	</g>
	<g>
		<path fill="#424242" d="M129.591,133.771c0,2.396,1.957,4.375,4.394,4.375c2.418,0,4.353-1.979,4.353-4.375
			c0-2.416-1.935-4.373-4.353-4.373C131.548,129.399,129.591,131.355,129.591,133.771z"/>
		<path fill="#424242" d="M146.407,129.231c3.3,0,5.969-2.69,5.969-5.969c0-3.299-2.669-5.97-5.969-5.97
			c-3.302,0-5.972,2.67-5.972,5.97C140.436,126.542,143.105,129.231,146.407,129.231z"/>
		<path fill="#424242" d="M137.223,113.813c0-3.383-2.748-6.137-6.117-6.137c-3.385,0-6.137,2.754-6.137,6.137
			c0,3.385,2.752,6.116,6.137,6.116C134.475,119.93,137.223,117.199,137.223,113.813z"/>
	</g>
	<path fill="#424242" d="M188.457,238.42c0,0-14.609-27.137-38.43-66.213v-22.639h1.478c2.123,0,3.866-1.721,3.866-3.846
		c0-2.121-1.725-3.865-3.866-3.865h-34.83c-2.122,0-3.866,1.744-3.866,3.865c0,2.125,1.725,3.846,3.866,3.846h1.474v22.617
		c-23.815,39.098-38.425,66.316-38.425,66.316c-3.698,11.016,0.379,21.146,12.234,21.146h84.266
		C188.078,259.648,192.177,249.434,188.457,238.42z M97.148,222.593c4.834-8.282,21.67-36.194,27.83-46.308l0.924-1.557v-25.537
		h16.185v25.537h0.19l0.945,1.557c6.157,10.111,22.657,38.066,27.512,46.349L97.148,222.593z"/>
</g>
</svg>
