<?xml version="1.0" encoding="utf-8"?>
<!-- Generator: Adobe Illustrator 16.0.0, SVG Export Plug-In . SVG Version: 6.00 Build 0)  -->
<!DOCTYPE svg PUBLIC "-//W3C//DTD SVG 1.1//EN" "http://www.w3.org/Graphics/SVG/1.1/DTD/svg11.dtd" [
	<!ENTITY ns_extend "http://ns.adobe.com/Extensibility/1.0/">
	<!ENTITY ns_ai "http://ns.adobe.com/AdobeIllustrator/10.0/">
	<!ENTITY ns_graphs "http://ns.adobe.com/Graphs/1.0/">
	<!ENTITY ns_vars "http://ns.adobe.com/Variables/1.0/">
	<!ENTITY ns_imrep "http://ns.adobe.com/ImageReplacement/1.0/">
	<!ENTITY ns_sfw "http://ns.adobe.com/SaveForWeb/1.0/">
	<!ENTITY ns_custom "http://ns.adobe.com/GenericCustomNamespace/1.0/">
	<!ENTITY ns_adobe_xpath "http://ns.adobe.com/XPath/1.0/">
]>
<svg version="1.1" id="Capa_1" xmlns:x="&ns_extend;" xmlns:i="&ns_ai;" xmlns:graph="&ns_graphs;"
	 xmlns="http://www.w3.org/2000/svg" xmlns:xlink="http://www.w3.org/1999/xlink" x="0px" y="0px" width="10px" height="12px"
	 viewBox="0 0 10 12" enable-background="new 0 0 10 12" xml:space="preserve">
<metadata>
	<sfw  xmlns="&ns_sfw;">
		<slices></slices>
		<sliceSourceBounds  height="12" width="9.581" x="0.209" y="-12" bottomLeftOrigin="true"></sliceSourceBounds>
	</sfw>
</metadata>
<g>
	<path fill="#F2BC11" d="M8.315,3.756l0.523-0.741c0.096-0.135,0.064-0.321-0.07-0.416l-0.791-0.56
		c-0.135-0.096-0.32-0.064-0.416,0.07L7.024,2.868c-0.396-0.185-0.822-0.319-1.27-0.39V2.17c0-0.197,0.162-0.359,0.359-0.359h0.199
		c0.197,0,0.358-0.162,0.358-0.359V0.359C6.672,0.161,6.511,0,6.313,0H3.686C3.489,0,3.327,0.161,3.327,0.359v1.092
		c0,0.197,0.162,0.359,0.359,0.359h0.199c0.197,0,0.358,0.162,0.358,0.359v0.309C3.766,2.555,3.311,2.701,2.89,2.909L2.357,2.157
		C2.262,2.023,2.076,1.992,1.942,2.086L1.151,2.646C1.016,2.742,0.985,2.928,1.08,3.062L1.617,3.82
		C0.748,4.688,0.209,5.887,0.209,7.209C0.209,9.85,2.358,12,4.999,12C7.642,12,9.79,9.85,9.79,7.209
		C9.79,5.854,9.224,4.627,8.315,3.756L8.315,3.756z M4.999,10.85c-2.007,0-3.64-1.633-3.64-3.641s1.633-3.641,3.64-3.641
		c2.008,0,3.642,1.633,3.642,3.641S7.007,10.85,4.999,10.85L4.999,10.85z M4.999,10.85"/>
	<path fill="#F2BC11" d="M8.005,7.186H8.001C7.987,5.541,6.647,4.207,4.999,4.207c-0.008,0-0.016,0-0.023,0v2.979H1.993
		c0.013,1.665,1.369,3.016,3.036,3.023v0.001c0.012,0,0.023-0.001,0.035-0.001h0.001c1.628-0.033,2.942-1.365,2.942-3
		C8.007,7.201,8.005,7.193,8.005,7.186z"/>
</g>
</svg>
