<svg xmlns="http://www.w3.org/2000/svg" width="19.99905" height="18.20309" viewBox="0 0 19.99905 18.20309"><title>reporte_pendiente</title><g id="Layer_2" data-name="Layer 2"><g id="Capa_1" data-name="Capa 1"><path d="M19.43265,13.0391,12.86815,1.65629a3.31487,3.31487,0,0,0-5.7402,0L.44235,13.23439a3.31245,3.31245,0,0,0,2.8711,4.9687h13.3741a3.31176,3.31176,0,0,0,2.7451-5.164Zm-8.0176,1.10739a1.41491,1.41491,0,0,1-2.8291,0v-.0313a1.41491,1.41491,0,0,1,2.8291,0Zm.0352-9.3184-.7032,6.11331a.74725.74725,0,0,1-1.4931,0l-.7024-6.11521a.67538.67538,0,0,1,.6506-.8301H10.795a.683.683,0,0,1,.6553.832Zm0,0" style="fill:#db9600"/></g></g></svg>