<?xml version="1.0" encoding="utf-8"?>
<!-- Generator: Adobe Illustrator 16.0.0, SVG Export Plug-In . SVG Version: 6.00 Build 0)  -->
<!DOCTYPE svg PUBLIC "-//W3C//DTD SVG 1.1//EN" "http://www.w3.org/Graphics/SVG/1.1/DTD/svg11.dtd">
<svg version="1.1" id="Capa_1" xmlns="http://www.w3.org/2000/svg" xmlns:xlink="http://www.w3.org/1999/xlink" x="0px" y="0px"
	 width="30px" height="30px" viewBox="0 0 30 30" enable-background="new 0 0 30 30" xml:space="preserve">
<g>
	<path fill="#009BDD" d="M14.997,0C6.715,0,0,6.717,0,14.998C0,23.284,6.715,30,14.997,30C23.283,30,30,23.284,30,14.998
		C30,6.717,23.283,0,14.997,0z M14.997,26.94c-6.591,0-11.938-5.347-11.938-11.942c0-6.591,5.347-11.939,11.938-11.939
		c6.593,0,11.942,5.349,11.942,11.939C26.939,21.594,21.59,26.94,14.997,26.94z"/>
	<g>
		<path fill="#009BDD" d="M13.067,12.64l-2.292,5.958H9.235L6.947,12.64h1.564l1.151,3.283c0.229,0.666,0.331,1.091,0.331,1.091
			h0.017c0,0,0.112-0.425,0.34-1.091L11.5,12.64H13.067z"/>
		<path fill="#009BDD" d="M16.453,17.662h-2.354l-0.343,0.936h-1.541L14.6,12.64h1.354l2.384,5.958h-1.541L16.453,17.662z
			 M15.997,16.409l-0.429-1.157c-0.125-0.34-0.281-0.877-0.286-0.877H15.27c0,0-0.161,0.537-0.286,0.877l-0.429,1.157H15.997z"/>
		<path fill="#009BDD" d="M23.078,17.264v1.334H18.83V12.64h1.43v4.624H23.078z"/>
	</g>
</g>
</svg>
