<?xml version="1.0" encoding="utf-8"?>
<!-- Generator: Adobe Illustrator 16.0.0, SVG Export Plug-In . SVG Version: 6.00 Build 0)  -->
<!DOCTYPE svg PUBLIC "-//W3C//DTD SVG 1.1//EN" "http://www.w3.org/Graphics/SVG/1.1/DTD/svg11.dtd">
<svg version="1.1" id="Capa_1" xmlns="http://www.w3.org/2000/svg" xmlns:xlink="http://www.w3.org/1999/xlink" x="0px" y="0px"
	 width="2110px" height="340px" viewBox="0 0 2110 340" enable-background="new 0 0 2110 340" xml:space="preserve">
<g>
	<g>
		<path fill="#272727" d="M3.408,101.96c7.223-1.209,16.652-2.239,28.706-2.239c14.771,0,25.604,3.426,32.468,9.619
			c6.362,5.501,10.134,13.933,10.134,24.238c0,10.472-3.089,18.727-8.937,24.754c-7.882,8.41-20.786,12.711-35.392,12.711
			c-4.467,0-8.59-0.181-12.028-1.031v46.404H3.408V101.96z M18.359,157.815c3.284,0.851,7.404,1.211,12.389,1.211
			c18.043,0,29.03-8.77,29.03-24.753c0-15.301-10.831-22.691-27.33-22.691c-6.528,0-11.513,0.504-14.089,1.209V157.815z"/>
		<path fill="#272727" d="M165.245,174.136c0,30.755-21.302,44.173-41.406,44.173c-22.525,0-39.872-16.511-39.872-42.799
			c0-27.854,18.211-44.173,41.239-44.173C149.084,131.337,165.245,148.698,165.245,174.136z M99.254,174.986
			c0,18.232,10.483,31.964,25.269,31.964c14.438,0,25.266-13.564,25.266-32.301c0-14.088-7.044-31.94-24.918-31.94
			C106.994,142.709,99.254,159.194,99.254,174.986z"/>
		<path fill="#272727" d="M189.087,133.241l10.998,42.269c2.398,9.276,4.626,17.876,6.183,26.457h0.527
			c1.87-8.409,4.639-17.349,7.381-26.275l13.562-42.451h12.725l12.901,41.599c3.092,9.96,5.5,18.728,7.381,27.127h0.517
			c1.376-8.409,3.616-17.167,6.373-26.98l11.861-41.746h14.952l-26.813,83.176h-13.742l-12.725-39.694
			c-2.924-9.285-5.33-17.529-7.391-27.33h-0.335c-2.061,9.956-4.638,18.559-7.562,27.486l-13.406,39.538h-13.754l-25.087-83.185
			h15.454V133.241z"/>
		<path fill="#272727" d="M316.182,177.573c0.36,20.439,13.419,28.873,28.539,28.873c10.828,0,17.348-1.893,23.027-4.312
			l2.562,10.832c-5.318,2.419-14.425,5.152-27.651,5.152c-25.615,0-40.902-16.825-40.902-41.921c0-25.103,14.785-44.86,39.009-44.86
			c27.15,0,34.374,23.892,34.374,39.18c0,3.092-0.346,5.497-0.515,7.029h-58.443V177.573z M360.535,166.743
			c0.18-9.633-3.94-24.562-20.965-24.562c-15.289,0-21.998,14.075-23.207,24.562H360.535z"/>
		<path fill="#272727" d="M393.82,159.194c0-9.801-0.182-18.226-0.697-25.953h13.227l0.516,16.321h0.707
			c3.772-11.168,12.867-18.212,23.026-18.212c1.714,0,2.913,0.168,4.29,0.515v14.259c-1.547-0.326-3.089-0.518-5.151-0.518
			c-10.652,0-18.211,8.089-20.284,19.423c-0.325,2.062-0.682,4.468-0.682,7.043v44.345H393.82V159.194z"/>
		<path fill="#272727" d="M456.669,177.573c0.348,20.439,13.42,28.873,28.54,28.873c10.831,0,17.349-1.893,23.028-4.312
			l2.564,10.832c-5.32,2.419-14.438,5.152-27.653,5.152c-25.615,0-40.904-16.825-40.904-41.921c0-25.103,14.772-44.86,39.011-44.86
			c27.15,0,34.373,23.892,34.373,39.18c0,3.092-0.347,5.497-0.516,7.029h-58.443V177.573z M501.024,166.743
			c0.169-9.633-3.954-24.562-20.967-24.562c-15.288,0-21.995,14.075-23.206,24.562H501.024z"/>
		<path fill="#272727" d="M606.157,94.401v100.521c0,7.413,0.181,15.814,0.683,21.495h-13.562l-0.695-14.45h-0.36
			c-4.624,9.295-14.771,16.342-28.358,16.342c-20.103,0-35.572-17.016-35.572-42.295c-0.167-27.652,17.025-44.677,37.311-44.677
			c12.7,0,21.3,6.015,25.088,12.714h0.335V94.401H606.157z M591.049,167.078c0-1.868-0.191-4.456-0.708-6.351
			c-2.239-9.632-10.482-17.54-21.816-17.54c-15.636,0-24.921,13.742-24.921,32.133c0,16.857,8.256,30.743,24.584,30.743
			c10.137,0,19.409-6.683,22.165-18.043c0.515-2.06,0.696-4.119,0.696-6.516V167.078L591.049,167.078z"/>
		<path fill="#272727" d="M666.913,216.417c0.335-5.681,0.683-14.092,0.683-21.495V94.401h14.964v52.236h0.333
			c5.32-9.272,14.954-15.288,28.349-15.288c20.642,0,35.247,17.18,35.069,42.449c0,29.728-18.727,44.51-37.298,44.51
			c-12.028,0-21.649-4.65-27.843-15.633h-0.527l-0.672,13.741H666.913L666.913,216.417z M682.56,183.059
			c0,1.895,0.333,3.798,0.684,5.512c2.91,10.471,11.68,17.71,22.691,17.71c15.802,0,25.268-12.895,25.268-31.981
			c0-16.665-8.591-30.921-24.752-30.921c-10.315,0-19.937,7.048-23.027,18.558c-0.337,1.714-0.863,3.801-0.863,6.184V183.059
			L682.56,183.059z"/>
		<path fill="#272727" d="M769.626,133.241l18.222,49.149c1.87,5.485,3.929,12.028,5.32,17.012h0.335
			c1.557-4.983,3.271-11.355,5.344-17.37l16.498-48.791h15.97l-22.68,59.294c-10.832,28.503-18.199,43.146-28.527,52.069
			c-7.394,6.508-14.785,9.097-18.56,9.801l-3.796-12.723c3.796-1.199,8.769-3.619,13.251-7.39c4.12-3.286,9.272-9.097,12.698-16.847
			c0.695-1.559,1.222-2.756,1.222-3.616c0-0.852-0.346-2.063-1.029-3.946l-30.767-76.643H769.626z"/>
	</g>
	<g>
		<g>
			<polygon fill="#97241C" points="926.648,90.218 1062.521,11.755 1198.412,90.218 1198.412,247.109 1062.521,325.565 
				926.648,247.109 			"/>
			<polygon fill="#6D191D" points="1062.521,169.258 926.648,90.218 926.648,247.109 			"/>
			<polygon fill="#363736" points="1062.521,169.258 1062.521,325.565 926.648,247.109 			"/>
			<polygon fill="#5B5B5B" points="1062.521,169.258 1198.412,90.218 1198.412,247.109 1062.521,325.565 			"/>
			<path fill="#272727" d="M1062.521,338.405l-146.358-84.463l0.025-169.007l146.333-84.491l146.34,84.491v169.007L1062.521,338.405
				z M929.99,245.984l132.532,76.509l132.561-76.509V92.916l-132.561-76.537L929.99,92.916V245.984z"/>
		</g>
		<g>
			<g>
				<path fill="#272727" d="M2088.717,88.231c0,0-24.463,30.095-48.789,59.903c-20.688-25.844-41.691-52.045-47.994-59.903h-18.832
					v147.786h17.877c0,0,96.373-119.261,96.564-119.261v119.261h19.049V88.231H2088.717z M1991.889,206.854l0.045-90.816
					c4.002,4.935,19.553,24.347,36.711,45.911C2008.973,186.127,1992.029,206.854,1991.889,206.854z"/>
				<path fill="#272727" d="M1309.691,88.41h45.145c15.467,0,21.947,1.283,27.58,3.332c15.086,5.654,24.873,20.514,24.873,39.944
					c0,18.836-10.424,34.72-26.549,39.944v0.409c0,0,1.676,1.889,4.408,6.685l31.365,57.28h-23.387l-31.174-58.73h-31.584v58.73
					h-20.678V88.41z M1360.059,159.303c16.078,0,26.117-10.281,26.117-26.802c0-10.833-4.189-18.572-11.666-22.751
					c-4.027-2.061-8.797-3.319-20.297-3.319h-23.844v52.873H1360.059z"/>
				<path fill="#272727" d="M1468.367,173.499l-49.578-85.089h23.412l27.377,48.524c4.623,8.146,8.949,18.595,8.949,18.595h0.457
					c0,0,4.383-10.281,8.982-18.595l26.957-48.524h23.412L1489,173.499v62.519h-20.656v-62.519H1468.367z"/>
				<path fill="#272727" d="M1559.037,88.41h20.488l65.635,95.967c5.438,7.931,12.338,21.304,12.338,21.304h0.408
					c0,0-1.463-13.155-1.463-21.304V88.41h20.691v147.608H1656.9l-65.824-95.718c-5.463-8.171-12.363-21.578-12.363-21.578h-0.457
					c0,0,1.486,13.156,1.486,21.578v95.718h-20.691V88.41H1559.037z"/>
				<path fill="#272727" d="M1707.867,88.41h48.904c45.17,0,74.857,26.982,74.857,73.612c0,46.845-29.688,73.996-74.857,73.996
					h-48.904V88.41z M1755.311,218.069c33.236,0,54.994-19.673,54.994-56.047c0-36.183-21.949-55.592-54.994-55.592h-26.764v111.64
					H1755.311z"/>
				<path fill="#272727" d="M1853.148,88.41h85.713v18.02h-65.059v46.161h52.885v17.998h-52.885v47.494h68.582v17.942h-89.236V88.41
					z"/>
			</g>
		</g>
		<g>
			<g>
				<path fill="#272727" d="M1439.637,290.817c-1.248-7.094-7.309-11.31-14.545-11.31c-7.619,0-13.061,3.64-13.061,9.464
					c0,6.386,8.1,8.412,15.814,10.736c8.125,2.42,19.197,6.062,19.197,17.372c0,9.799-8.461,16.965-21.281,16.965
					c-12.484,0-20.367-7.335-22.188-17.135l6.568-1.75c0.836,6.735,6.371,12.728,15.885,12.728c8.648,0,13.873-4.579,13.873-10.641
					c0-8.509-10.09-10.231-18.283-12.795c-6.662-2.083-16.482-5.081-16.482-15.146c0-9.081,8.553-15.791,20.221-15.791
					c10.531,0,18.857,6.229,20.764,15.542L1439.637,290.817z"/>
				<path fill="#272727" d="M1538.672,274.664v6.387h-19.529v51.818h-6.758v-51.818h-19.432v-6.387H1538.672z"/>
				<path fill="#272727" d="M1636.844,274.664v34.066c0,16.494-8.721,25.398-23.914,25.398c-15.217,0-23.891-8.928-23.891-25.398
					v-34.066h6.842v34.17c0,12.644,5.834,18.884,17.07,18.884c11.287,0,17.111-6.24,17.111-18.884v-34.17H1636.844z"/>
				<path fill="#272727" d="M1716.662,274.664c16.615,0,30.119,11.983,30.119,29.441c0,17.202-13.348,28.764-29.617,28.764h-25.041
					v-58.205H1716.662z M1717.164,326.473c12.148,0,22.619-8.483,22.619-22.355c0-14.137-10.471-23.055-23.121-23.055h-17.697v45.41
					H1717.164z"/>
				<path fill="#272727" d="M1799.807,332.869v-58.205h6.807v58.205H1799.807z"/>
				<path fill="#272727" d="M1890.098,273.516c16.689,0,30.238,12.7,30.238,30.263c0,17.553-13.549,30.276-30.238,30.276
					c-16.701,0-30.189-12.724-30.189-30.276C1859.908,286.216,1873.396,273.516,1890.098,273.516z M1890.098,327.384
					c13.131,0,23.197-9.637,23.197-23.605c0-14.137-10.066-23.624-23.197-23.624c-13.229,0-23.205,9.476-23.205,23.624
					C1866.902,317.747,1876.869,327.384,1890.098,327.384z"/>
				<path fill="#272727" d="M2005.307,290.817c-1.223-7.094-7.307-11.31-14.547-11.31c-7.666,0-13.037,3.64-13.037,9.464
					c0,6.386,8.055,8.412,15.793,10.736c8.148,2.42,19.219,6.062,19.219,17.372c0,9.799-8.482,16.965-21.303,16.965
					c-12.459,0-20.344-7.335-22.213-17.135l6.59-1.75c0.828,6.735,6.385,12.728,15.865,12.728c8.613,0,13.896-4.579,13.896-10.641
					c0-8.509-10.039-10.231-18.283-12.795c-6.662-2.083-16.463-5.081-16.463-15.146c0-9.081,8.545-15.791,20.191-15.791
					c10.551,0,18.854,6.229,20.758,15.542L2005.307,290.817z"/>
			</g>
		</g>
	</g>
</g>
</svg>
