<?xml version="1.0" encoding="utf-8"?>
<!-- Generator: Adobe Illustrator 16.0.0, SVG Export Plug-In . SVG Version: 6.00 Build 0)  -->
<!DOCTYPE svg PUBLIC "-//W3C//DTD SVG 1.1//EN" "http://www.w3.org/Graphics/SVG/1.1/DTD/svg11.dtd" [
	<!ENTITY ns_extend "http://ns.adobe.com/Extensibility/1.0/">
	<!ENTITY ns_ai "http://ns.adobe.com/AdobeIllustrator/10.0/">
	<!ENTITY ns_graphs "http://ns.adobe.com/Graphs/1.0/">
	<!ENTITY ns_vars "http://ns.adobe.com/Variables/1.0/">
	<!ENTITY ns_imrep "http://ns.adobe.com/ImageReplacement/1.0/">
	<!ENTITY ns_sfw "http://ns.adobe.com/SaveForWeb/1.0/">
	<!ENTITY ns_custom "http://ns.adobe.com/GenericCustomNamespace/1.0/">
	<!ENTITY ns_adobe_xpath "http://ns.adobe.com/XPath/1.0/">
]>
<svg version="1.1" id="Capa_1" xmlns:x="&ns_extend;" xmlns:i="&ns_ai;" xmlns:graph="&ns_graphs;"
	 xmlns="http://www.w3.org/2000/svg" xmlns:xlink="http://www.w3.org/1999/xlink" x="0px" y="0px" width="60px" height="60px"
	 viewBox="0 0 60 60" enable-background="new 0 0 60 60" xml:space="preserve">
<metadata>
	<sfw  xmlns="&ns_sfw;">
		<slices></slices>
		<sliceSourceBounds  height="60.004" width="60" y="-60.002" x="0" bottomLeftOrigin="true"></sliceSourceBounds>
	</sfw>
</metadata>
<g>
	<path fill="#008894" d="M55.977,14.942c-2.683-4.599-6.315-8.233-10.92-10.918c-4.593-2.683-9.611-4.026-15.055-4.026
		c-5.445,0-10.462,1.345-15.057,4.026c-4.602,2.683-8.235,6.319-10.92,10.918C1.342,19.54,0,24.557,0,30.004
		c0,5.438,1.342,10.458,4.025,15.059c2.685,4.597,6.318,8.23,10.916,10.916c4.599,2.684,9.615,4.023,15.061,4.023
		c5.443,0,10.462-1.341,15.055-4.023c4.603-2.686,8.237-6.319,10.92-10.916C58.658,40.462,60,35.441,60,30.004
		C60,24.557,58.658,19.535,55.977,14.942L55.977,14.942z M35.001,48.711c0,0.363-0.12,0.67-0.356,0.921
		c-0.227,0.248-0.516,0.367-0.854,0.367h-7.499c-0.34,0-0.639-0.129-0.897-0.39c-0.261-0.262-0.391-0.562-0.391-0.898V41.29
		c0-0.339,0.13-0.638,0.391-0.897C25.652,40.133,25.951,40,26.291,40h7.499c0.339,0,0.628,0.126,0.854,0.373
		C34.88,40.62,35,40.926,35,41.29L35.001,48.711L35.001,48.711z M34.927,35.275c-0.03,0.261-0.168,0.484-0.409,0.682
		c-0.252,0.195-0.558,0.293-0.92,0.293h-7.229c-0.363,0-0.677-0.098-0.936-0.293c-0.263-0.196-0.395-0.421-0.395-0.682l-0.66-24.261
		c0-0.311,0.126-0.544,0.389-0.704c0.257-0.205,0.574-0.312,0.939-0.312H34.3c0.365,0,0.673,0.106,0.935,0.312
		c0.265,0.16,0.391,0.395,0.391,0.704L34.927,35.275z"/>
</g>
</svg>
