<?xml version="1.0" encoding="utf-8"?>
<!-- Generator: Adobe Illustrator 16.0.0, SVG Export Plug-In . SVG Version: 6.00 Build 0)  -->
<!DOCTYPE svg PUBLIC "-//W3C//DTD SVG 1.1//EN" "http://www.w3.org/Graphics/SVG/1.1/DTD/svg11.dtd" [
	<!ENTITY ns_extend "http://ns.adobe.com/Extensibility/1.0/">
	<!ENTITY ns_ai "http://ns.adobe.com/AdobeIllustrator/10.0/">
	<!ENTITY ns_graphs "http://ns.adobe.com/Graphs/1.0/">
	<!ENTITY ns_vars "http://ns.adobe.com/Variables/1.0/">
	<!ENTITY ns_imrep "http://ns.adobe.com/ImageReplacement/1.0/">
	<!ENTITY ns_sfw "http://ns.adobe.com/SaveForWeb/1.0/">
	<!ENTITY ns_custom "http://ns.adobe.com/GenericCustomNamespace/1.0/">
	<!ENTITY ns_adobe_xpath "http://ns.adobe.com/XPath/1.0/">
]>
<svg version="1.1" id="Capa_1" xmlns:x="&ns_extend;" xmlns:i="&ns_ai;" xmlns:graph="&ns_graphs;"
	 xmlns="http://www.w3.org/2000/svg" xmlns:xlink="http://www.w3.org/1999/xlink" x="0px" y="0px" width="60px" height="60px"
	 viewBox="0 0 60 60" enable-background="new 0 0 60 60" xml:space="preserve">
<metadata>
	<sfw  xmlns="&ns_sfw;">
		<slices></slices>
		<sliceSourceBounds  height="60.002" width="60" y="-60.001" x="0" bottomLeftOrigin="true"></sliceSourceBounds>
	</sfw>
</metadata>
<path fill="#008894" d="M29.998-0.001C13.43-0.001,0,13.431,0,29.999s13.43,30.002,29.998,30.002S60,46.567,60,29.999
	S46.566-0.001,29.998-0.001z M45.549,17.056L22.6,44.923c-0.328,0.406-0.752,0.627-1.191,0.627c-0.514,0-0.982-0.306-1.293-0.854
	l-6.732-12.135c-0.275-0.457-0.338-0.928-0.154-1.252c0.252-0.449,0.896-0.456,1.486,0.06l5.965,4.207
	c0.322,0.196,0.635,0.294,0.932,0.294c0.614,0,1.105-0.447,1.571-0.869L42.27,15.899c1.189-1.301,2.355-1.754,3.107-1.258
	c0.352,0.229,0.578,0.578,0.633,0.978C46.09,16.093,45.922,16.604,45.549,17.056z"/>
</svg>
