<?xml version="1.0" encoding="utf-8"?>
<!-- Generator: Adobe Illustrator 16.0.0, SVG Export Plug-In . SVG Version: 6.00 Build 0)  -->
<!DOCTYPE svg PUBLIC "-//W3C//DTD SVG 1.1//EN" "http://www.w3.org/Graphics/SVG/1.1/DTD/svg11.dtd" [
	<!ENTITY ns_extend "http://ns.adobe.com/Extensibility/1.0/">
	<!ENTITY ns_ai "http://ns.adobe.com/AdobeIllustrator/10.0/">
	<!ENTITY ns_graphs "http://ns.adobe.com/Graphs/1.0/">
	<!ENTITY ns_vars "http://ns.adobe.com/Variables/1.0/">
	<!ENTITY ns_imrep "http://ns.adobe.com/ImageReplacement/1.0/">
	<!ENTITY ns_sfw "http://ns.adobe.com/SaveForWeb/1.0/">
	<!ENTITY ns_custom "http://ns.adobe.com/GenericCustomNamespace/1.0/">
	<!ENTITY ns_adobe_xpath "http://ns.adobe.com/XPath/1.0/">
]>
<svg version="1.1" id="Capa_1" xmlns:x="&ns_extend;" xmlns:i="&ns_ai;" xmlns:graph="&ns_graphs;"
	 xmlns="http://www.w3.org/2000/svg" xmlns:xlink="http://www.w3.org/1999/xlink" x="0px" y="0px" width="170px" height="30px"
	 viewBox="0 0 170 30" enable-background="new 0 0 170 30" xml:space="preserve">
<metadata>
	<sfw  xmlns="&ns_sfw;">
		<slices></slices>
		<sliceSourceBounds  x="0" y="-30" width="170" height="30" bottomLeftOrigin="true"></sliceSourceBounds>
	</sfw>
</metadata>
<rect fill="#008894" width="170" height="30"/>
<g>
	<path fill="#FFFFFF" d="M54.696,7.651l-5.648,14.697h-3.8L39.6,7.651h3.863l2.834,8.104c0.567,1.638,0.819,2.688,0.84,2.688h0.021
		c0.021,0,0.273-1.05,0.84-2.688l2.834-8.104H54.696z"/>
	<path fill="#FFFFFF" d="M63.055,20.039h-5.816l-0.84,2.31h-3.8l5.879-14.697h3.338l5.879,14.697h-3.8L63.055,20.039z
		 M61.921,16.953l-1.05-2.856c-0.315-0.84-0.693-2.163-0.714-2.163h-0.021c-0.021,0-0.399,1.323-0.714,2.163l-1.05,2.856H61.921z"/>
	<path fill="#FFFFFF" d="M79.393,19.053v3.296H68.916V7.651h3.527v11.401H79.393z"/>
	<path fill="#FFFFFF" d="M81.452,22.349V7.651h3.528v14.697H81.452z"/>
	<path fill="#FFFFFF" d="M94.682,7.651c4.199,0,7.6,3.002,7.6,7.412c0,4.41-3.4,7.286-7.6,7.286h-6.426V7.651H94.682z
		 M94.682,19.053c2.1,0,3.926-1.471,3.926-3.99c0-2.52-1.826-4.115-3.926-4.115h-2.898v8.105H94.682z"/>
	<path fill="#FFFFFF" d="M112.531,20.039h-5.816l-0.84,2.31h-3.801l5.879-14.697h3.338l5.879,14.697h-3.799L112.531,20.039z
		 M111.396,16.953l-1.049-2.856c-0.316-0.84-0.693-2.163-0.715-2.163h-0.021c-0.02,0-0.398,1.323-0.713,2.163l-1.051,2.856H111.396z
		"/>
	<path fill="#FFFFFF" d="M126.453,22.349l-2.729-4.787h-1.807v4.787h-3.527V7.651h5.48c3.695,0,5.92,2.016,5.92,5.039
		c0,1.974-0.943,3.443-2.645,4.241l3.254,5.417H126.453z M121.918,14.433h2.436c1.26,0,1.764-0.945,1.764-1.743
		s-0.504-1.743-1.764-1.743h-2.436V14.433z"/>
</g>
</svg>
