<?xml version="1.0" encoding="utf-8"?>
<!-- Generator: Adobe Illustrator 16.0.0, SVG Export Plug-In . SVG Version: 6.00 Build 0)  -->
<!DOCTYPE svg PUBLIC "-//W3C//DTD SVG 1.1//EN" "http://www.w3.org/Graphics/SVG/1.1/DTD/svg11.dtd" [
	<!ENTITY ns_extend "http://ns.adobe.com/Extensibility/1.0/">
	<!ENTITY ns_ai "http://ns.adobe.com/AdobeIllustrator/10.0/">
	<!ENTITY ns_graphs "http://ns.adobe.com/Graphs/1.0/">
	<!ENTITY ns_vars "http://ns.adobe.com/Variables/1.0/">
	<!ENTITY ns_imrep "http://ns.adobe.com/ImageReplacement/1.0/">
	<!ENTITY ns_sfw "http://ns.adobe.com/SaveForWeb/1.0/">
	<!ENTITY ns_custom "http://ns.adobe.com/GenericCustomNamespace/1.0/">
	<!ENTITY ns_adobe_xpath "http://ns.adobe.com/XPath/1.0/">
]>
<svg version="1.1" id="Capa_1" xmlns:x="&ns_extend;" xmlns:i="&ns_ai;" xmlns:graph="&ns_graphs;"
	 xmlns="http://www.w3.org/2000/svg" xmlns:xlink="http://www.w3.org/1999/xlink" x="0px" y="0px" width="32px" height="23.707px"
	 viewBox="0 0 32 23.707" enable-background="new 0 0 32 23.707" xml:space="preserve">
<metadata>
	<sfw  xmlns="&ns_sfw;">
		<slices></slices>
		<sliceSourceBounds  bottomLeftOrigin="true" width="31.975" height="23.704" x="-8.5" y="-4.352"></sliceSourceBounds>
	</sfw>
</metadata>
<g>
	<g>
		<g>
			<g>
				<path fill="#008894" d="M2.473,14.502c-0.371-0.214-0.717-0.479-1.028-0.79C0.512,12.779-0.001,11.541,0,10.221V9.77
					c0.002-2.722,2.216-4.936,4.939-4.936l11.728,0.002c2.722,0.001,4.935,2.216,4.935,4.939v0.452
					c-0.002,2.72-2.218,4.936-4.938,4.935h-1.038c-0.51,0-0.922-0.414-0.92-0.923c-0.002-0.511,0.412-0.923,0.92-0.923h1.038
					c0.827,0,1.606-0.32,2.188-0.904s0.905-1.36,0.905-2.187v-0.45c0-1.704-1.386-3.093-3.09-3.093L4.937,6.68
					C3.231,6.678,1.845,8.065,1.845,9.771l-0.001,0.452c0,0.826,0.323,1.603,0.906,2.186c0.582,0.584,1.36,0.905,2.186,0.905h2.619
					c0.51,0.002,0.922,0.412,0.922,0.922c0,0.512-0.414,0.925-0.922,0.925H4.936C4.058,15.161,3.215,14.932,2.473,14.502
					L2.473,14.502z"/>
				<path fill="#008894" d="M12.848,18.744c-1.479-0.854-2.477-2.452-2.475-4.279v-0.451c0-2.723,2.216-4.938,4.937-4.936h1.039
					c0.51,0,0.922,0.415,0.922,0.922c0,0.509-0.414,0.922-0.922,0.922H15.31c-0.826,0-1.602,0.323-2.188,0.906
					c-0.583,0.583-0.907,1.359-0.907,2.186v0.451c0,1.704,1.389,3.094,3.094,3.094l11.728,0.002c1.705,0,3.092-1.387,3.092-3.092
					v-0.451c0-0.826-0.322-1.602-0.902-2.186c-0.584-0.583-1.361-0.906-2.188-0.907h-2.619c-0.51,0-0.922-0.413-0.922-0.921
					c0-0.511,0.414-0.924,0.922-0.924h2.621c1.317,0,2.558,0.516,3.489,1.448c0.933,0.932,1.447,2.173,1.445,3.49v0.451
					c0,1.318-0.516,2.561-1.449,3.492c-0.93,0.932-2.172,1.443-3.489,1.443L15.309,19.4C14.413,19.4,13.573,19.164,12.848,18.744
					L12.848,18.744z"/>
			</g>
		</g>
	</g>
	
		<rect x="16.006" y="-3.902" transform="matrix(-0.7071 -0.7071 0.7071 -0.7071 20.6639 32.2658)" fill="#008894" width="2.016" height="31.51"/>
</g>
</svg>
