<?xml version="1.0" encoding="utf-8"?>
<!-- Generator: Adobe Illustrator 16.0.0, SVG Export Plug-In . SVG Version: 6.00 Build 0)  -->
<!DOCTYPE svg PUBLIC "-//W3C//DTD SVG 1.1//EN" "http://www.w3.org/Graphics/SVG/1.1/DTD/svg11.dtd" [
	<!ENTITY ns_extend "http://ns.adobe.com/Extensibility/1.0/">
	<!ENTITY ns_ai "http://ns.adobe.com/AdobeIllustrator/10.0/">
	<!ENTITY ns_graphs "http://ns.adobe.com/Graphs/1.0/">
	<!ENTITY ns_vars "http://ns.adobe.com/Variables/1.0/">
	<!ENTITY ns_imrep "http://ns.adobe.com/ImageReplacement/1.0/">
	<!ENTITY ns_sfw "http://ns.adobe.com/SaveForWeb/1.0/">
	<!ENTITY ns_custom "http://ns.adobe.com/GenericCustomNamespace/1.0/">
	<!ENTITY ns_adobe_xpath "http://ns.adobe.com/XPath/1.0/">
]>
<svg version="1.1" id="Capa_1" xmlns:x="&ns_extend;" xmlns:i="&ns_ai;" xmlns:graph="&ns_graphs;"
	 xmlns="http://www.w3.org/2000/svg" xmlns:xlink="http://www.w3.org/1999/xlink" x="0px" y="0px" width="10px" height="13.725px"
	 viewBox="0 0 10 13.725" enable-background="new 0 0 10 13.725" xml:space="preserve">
<metadata>
	<sfw  xmlns="&ns_sfw;">
		<slices></slices>
		<sliceSourceBounds  bottomLeftOrigin="true" width="9.973" height="13.725" x="2.5" y="0.638"></sliceSourceBounds>
	</sfw>
</metadata>
<g>
	<path fill="#008894" d="M0.72,13.724h8.536c0.176,0,0.319-0.146,0.319-0.321V4.53H0.399v8.873
		C0.399,13.581,0.542,13.724,0.72,13.724L0.72,13.724z M6.829,6.25c0-0.288,0.233-0.521,0.522-0.521h0.012
		c0.287,0,0.522,0.232,0.522,0.521v5.753c0,0.289-0.233,0.524-0.522,0.524H7.352c-0.287,0-0.521-0.233-0.521-0.524L6.829,6.25
		L6.829,6.25z M4.458,6.25c0-0.288,0.233-0.521,0.523-0.521h0.01c0.289,0,0.522,0.232,0.522,0.521v5.753
		c0,0.289-0.234,0.524-0.522,0.524h-0.01c-0.289,0-0.523-0.233-0.523-0.524V6.25z M2.088,6.25c0-0.288,0.234-0.521,0.523-0.521h0.01
		c0.289,0,0.523,0.232,0.523,0.521v5.753c0,0.289-0.233,0.524-0.523,0.524h-0.01c-0.289,0-0.523-0.233-0.523-0.524V6.25z"/>
	<path fill="#008894" d="M7.032,1.52V0.8c0-0.44-0.358-0.8-0.8-0.8H3.74c-0.441,0-0.8,0.359-0.8,0.8V1.52h0.64V0.96
		c0-0.175,0.144-0.319,0.319-0.319H6.07c0.175,0,0.32,0.145,0.32,0.319V1.52H7.032z"/>
	<path fill="#008894" d="M0,2.479V3.57c0,0.177,0.143,0.32,0.319,0.32h9.333c0.178,0,0.32-0.144,0.32-0.319V2.479
		c0-0.175-0.144-0.32-0.32-0.32H0.319C0.143,2.16,0,2.302,0,2.479L0,2.479z"/>
</g>
</svg>
