<?xml version="1.0" encoding="utf-8"?>
<!-- Generator: Adobe Illustrator 16.0.0, SVG Export Plug-In . SVG Version: 6.00 Build 0)  -->
<!DOCTYPE svg PUBLIC "-//W3C//DTD SVG 1.1//EN" "http://www.w3.org/Graphics/SVG/1.1/DTD/svg11.dtd" [
	<!ENTITY ns_extend "http://ns.adobe.com/Extensibility/1.0/">
	<!ENTITY ns_ai "http://ns.adobe.com/AdobeIllustrator/10.0/">
	<!ENTITY ns_graphs "http://ns.adobe.com/Graphs/1.0/">
	<!ENTITY ns_vars "http://ns.adobe.com/Variables/1.0/">
	<!ENTITY ns_imrep "http://ns.adobe.com/ImageReplacement/1.0/">
	<!ENTITY ns_sfw "http://ns.adobe.com/SaveForWeb/1.0/">
	<!ENTITY ns_custom "http://ns.adobe.com/GenericCustomNamespace/1.0/">
	<!ENTITY ns_adobe_xpath "http://ns.adobe.com/XPath/1.0/">
]>
<svg version="1.1" id="Capa_1" xmlns:x="&ns_extend;" xmlns:i="&ns_ai;" xmlns:graph="&ns_graphs;"
	 xmlns="http://www.w3.org/2000/svg" xmlns:xlink="http://www.w3.org/1999/xlink" x="0px" y="0px" width="12px" height="14px"
	 viewBox="0 0 12 14" enable-background="new 0 0 12 14" xml:space="preserve">
<metadata>
	<sfw  xmlns="&ns_sfw;">
		<slices></slices>
		<sliceSourceBounds  height="14.005" width="11.89" y="0.5" x="0.555" bottomLeftOrigin="true"></sliceSourceBounds>
	</sfw>
</metadata>
<g>
	<path fill="#008894" d="M11.945,13.616c-0.019-2.356-1.26-4.486-3.246-5.56L8.467,7.932L8.27,8.109
		C7.643,8.682,6.838,8.993,6,8.993S4.357,8.682,3.731,8.111l-0.196-0.18L3.304,8.059c-1.987,1.071-3.23,3.201-3.245,5.559L0.055,14
		h11.89V13.616z"/>
	<path fill="#008894" d="M2.542,6.351c0.088,0,0.171-0.021,0.251-0.051c0.123,0.239,0.263,0.467,0.433,0.671
		C3.508,7.214,3.875,7.445,4.31,7.485c0.427,0.039,0.853-0.123,1.27-0.467c-0.059-0.084-0.1-0.182-0.1-0.291
		C5.48,6.436,5.713,6.2,5.999,6.2h0.532c0.287,0,0.519,0.236,0.519,0.527c0,0.29-0.231,0.526-0.519,0.526H5.999
		c-0.082,0-0.158-0.024-0.229-0.06C5.284,7.607,4.776,7.799,4.261,7.751c-0.066-0.006-0.126-0.026-0.189-0.04
		C4.626,8.066,5.28,8.273,5.983,8.273c1.39,0,2.601-0.806,3.205-1.979C9.271,6.33,9.363,6.351,9.461,6.351
		c0.412,0,0.75-0.342,0.75-0.762V3.701c0-0.42-0.338-0.761-0.75-0.761c-0.088,0-0.164,0.022-0.238,0.048
		c-0.006-0.01-0.01-0.019-0.016-0.028l0.088,0.005c0.002-0.05,0.057-1.242-0.832-2.11c-0.582-0.572-1.436-0.86-2.528-0.86
		c-1.096,0-1.934,0.288-2.487,0.859C2.606,1.72,2.726,2.904,2.732,2.956l0.033-0.002C2.76,2.962,2.754,2.972,2.749,2.982
		C2.683,2.962,2.617,2.94,2.542,2.94c-0.414,0-0.751,0.34-0.751,0.761V5.59C1.791,6.009,2.129,6.351,2.542,6.351z M3.671,1.043
		c0.495-0.511,1.257-0.77,2.264-0.77c1.006,0,1.782,0.261,2.308,0.772c0.493,0.483,0.661,1.092,0.721,1.488
		C8.311,1.572,7.217,0.938,5.983,0.938c-1.213,0-2.287,0.612-2.942,1.546C3.081,2.091,3.219,1.509,3.671,1.043z"/>
</g>
</svg>
