<?xml version="1.0" encoding="utf-8"?>
<!-- Generator: Adobe Illustrator 16.0.0, SVG Export Plug-In . SVG Version: 6.00 Build 0)  -->
<!DOCTYPE svg PUBLIC "-//W3C//DTD SVG 1.1//EN" "http://www.w3.org/Graphics/SVG/1.1/DTD/svg11.dtd" [
	<!ENTITY ns_extend "http://ns.adobe.com/Extensibility/1.0/">
	<!ENTITY ns_ai "http://ns.adobe.com/AdobeIllustrator/10.0/">
	<!ENTITY ns_graphs "http://ns.adobe.com/Graphs/1.0/">
	<!ENTITY ns_vars "http://ns.adobe.com/Variables/1.0/">
	<!ENTITY ns_imrep "http://ns.adobe.com/ImageReplacement/1.0/">
	<!ENTITY ns_sfw "http://ns.adobe.com/SaveForWeb/1.0/">
	<!ENTITY ns_custom "http://ns.adobe.com/GenericCustomNamespace/1.0/">
	<!ENTITY ns_adobe_xpath "http://ns.adobe.com/XPath/1.0/">
]>
<svg version="1.1" id="Capa_1" xmlns:x="&ns_extend;" xmlns:i="&ns_ai;" xmlns:graph="&ns_graphs;"
	 xmlns="http://www.w3.org/2000/svg" xmlns:xlink="http://www.w3.org/1999/xlink" x="0px" y="0px" width="14px" height="15px"
	 viewBox="0 0 14 15" enable-background="new 0 0 14 15" xml:space="preserve">
<metadata>
	<sfw  xmlns="&ns_sfw;">
		<slices></slices>
		<sliceSourceBounds  bottomLeftOrigin="true" height="14.649" width="13.991" x="0.007" y="-15"></sliceSourceBounds>
	</sfw>
</metadata>
<g>
	<path fill="#008894" d="M10.593,4.243H6.944c-0.113,0-0.206-0.092-0.206-0.206c0-0.114,0.092-0.206,0.206-0.206h3.649
		c0.115,0,0.207,0.092,0.207,0.206C10.8,4.151,10.708,4.243,10.593,4.243L10.593,4.243z M10.593,4.243"/>
	<path fill="#008894" d="M8.908,3.068H6.933c-0.114,0-0.207-0.092-0.207-0.206c0-0.115,0.093-0.206,0.207-0.206h1.976
		c0.113,0,0.206,0.091,0.206,0.206C9.114,2.977,9.021,3.068,8.908,3.068L8.908,3.068z M8.908,3.068"/>
	<path fill="#008894" d="M3.933,14.34C3.944,14.702,3.656,15,3.293,15H0.647c-0.362,0-0.651-0.298-0.64-0.66
		c0,0,0.118-3.864,0.118-5.371c0-1.485-0.118-5.278-0.118-5.278c-0.011-0.363,0.277-0.66,0.64-0.66h2.646
		c0.363,0,0.651,0.296,0.64,0.66c0,0-0.118,3.793-0.118,5.278C3.814,10.476,3.933,14.34,3.933,14.34L3.933,14.34z M3.933,14.34"/>
	<path fill="#008894" d="M13.463,3.031l-0.509,0.007c-0.102,0-0.123-0.125-0.139-0.188c-0.048-0.191-0.161-0.387-0.301-0.501
		l-2.123-1.745c-0.176-0.145-0.479-0.253-0.706-0.253H6.304c-0.288,0-0.524,0.234-0.524,0.522v1.962c0,0,0.006,0.196-0.143,0.196
		H5.199c-0.294,0-0.536,0.241-0.536,0.536v10.897C4.664,14.758,4.905,15,5.199,15h8.264c0.295,0,0.535-0.242,0.535-0.535V3.567
		C13.998,3.272,13.758,3.031,13.463,3.031L13.463,3.031z M10.247,1.111c0-0.09,0.08-0.022,0.08-0.022l1.753,1.498
		c0,0,0.078,0.067-0.032,0.067h-1.665c-0.076,0-0.136-0.061-0.136-0.135C10.247,2.519,10.247,1.463,10.247,1.111L10.247,1.111z
		 M6.168,0.873c0-0.073,0.062-0.135,0.136-0.135h3.381c0.123,0,0.173,0.094,0.173,0.154v1.627c0,0.288,0.235,0.523,0.524,0.523
		h1.974c0.103,0,0.096,0.091,0.096,0.092V6.15c0,0.104-0.088,0.093-0.11,0.093H6.26c-0.022,0-0.092-0.003-0.092-0.083V0.873z
		 M7.767,13.426c0,0.182-0.148,0.331-0.33,0.331H6.275c-0.181,0-0.33-0.149-0.33-0.331v-0.983c0-0.183,0.148-0.33,0.33-0.33h1.162
		c0.182,0,0.33,0.147,0.33,0.33V13.426z M7.767,11.282c0,0.182-0.148,0.33-0.33,0.33H6.275c-0.181,0-0.33-0.148-0.33-0.33v-0.983
		c0-0.182,0.148-0.33,0.33-0.33h1.162c0.182,0,0.33,0.148,0.33,0.33V11.282z M7.767,9.139c0,0.181-0.148,0.33-0.33,0.33H6.275
		c-0.181,0-0.33-0.149-0.33-0.33V8.154c0-0.182,0.148-0.331,0.33-0.331h1.162c0.182,0,0.33,0.148,0.33,0.331V9.139z M10.242,13.426
		c0,0.182-0.148,0.331-0.33,0.331H8.749c-0.18,0-0.327-0.149-0.327-0.331v-0.983c0-0.183,0.147-0.33,0.327-0.33h1.163
		c0.182,0,0.33,0.147,0.33,0.33V13.426z M10.242,11.282c0,0.182-0.148,0.33-0.33,0.33H8.749c-0.18,0-0.327-0.148-0.327-0.33v-0.983
		c0-0.182,0.147-0.33,0.327-0.33h1.163c0.182,0,0.33,0.148,0.33,0.33V11.282z M10.242,9.139c0,0.181-0.148,0.33-0.33,0.33H8.749
		c-0.18,0-0.327-0.149-0.327-0.33V8.154c0-0.182,0.147-0.331,0.327-0.331h1.163c0.182,0,0.33,0.148,0.33,0.331V9.139z
		 M12.716,13.426c0,0.182-0.149,0.331-0.329,0.331h-1.162c-0.182,0-0.33-0.149-0.33-0.331v-0.983c0-0.183,0.148-0.33,0.33-0.33
		h1.162c0.18,0,0.329,0.147,0.329,0.33V13.426z M12.716,11.282c0,0.182-0.149,0.33-0.329,0.33h-1.162c-0.182,0-0.33-0.148-0.33-0.33
		v-0.983c0-0.182,0.148-0.33,0.33-0.33h1.162c0.18,0,0.329,0.148,0.329,0.33V11.282z M12.716,9.139c0,0.181-0.149,0.33-0.329,0.33
		h-1.162c-0.182,0-0.33-0.149-0.33-0.33V8.154c0-0.182,0.148-0.331,0.33-0.331h1.162c0.18,0,0.329,0.148,0.329,0.331V9.139z
		 M12.716,9.139"/>
</g>
</svg>
