<?xml version="1.0" encoding="utf-8"?>
<!-- Generator: Adobe Illustrator 16.0.0, SVG Export Plug-In . SVG Version: 6.00 Build 0)  -->
<!DOCTYPE svg PUBLIC "-//W3C//DTD SVG 1.1//EN" "http://www.w3.org/Graphics/SVG/1.1/DTD/svg11.dtd" [
	<!ENTITY ns_extend "http://ns.adobe.com/Extensibility/1.0/">
	<!ENTITY ns_ai "http://ns.adobe.com/AdobeIllustrator/10.0/">
	<!ENTITY ns_graphs "http://ns.adobe.com/Graphs/1.0/">
	<!ENTITY ns_vars "http://ns.adobe.com/Variables/1.0/">
	<!ENTITY ns_imrep "http://ns.adobe.com/ImageReplacement/1.0/">
	<!ENTITY ns_sfw "http://ns.adobe.com/SaveForWeb/1.0/">
	<!ENTITY ns_custom "http://ns.adobe.com/GenericCustomNamespace/1.0/">
	<!ENTITY ns_adobe_xpath "http://ns.adobe.com/XPath/1.0/">
]>
<svg version="1.1" id="Capa_1" xmlns:x="&ns_extend;" xmlns:i="&ns_ai;" xmlns:graph="&ns_graphs;"
	 xmlns="http://www.w3.org/2000/svg" xmlns:xlink="http://www.w3.org/1999/xlink" x="0px" y="0px" width="14px" height="10px"
	 viewBox="0 0 14 10" enable-background="new 0 0 14 10" xml:space="preserve">
<metadata>
	<sfw  xmlns="&ns_sfw;">
		<slices></slices>
		<sliceSourceBounds  bottomLeftOrigin="true" height="9.803" width="14.002" x="0" y="-10"></sliceSourceBounds>
	</sfw>
</metadata>
<g>
	<path fill="#008894" d="M1.106,0.776l5.044,3.996C6.379,4.952,6.696,5.032,7,5.018c0.306,0.014,0.621-0.065,0.851-0.246
		l5.044-3.996c0.402-0.318,0.311-0.579-0.201-0.579H1.308C0.795,0.197,0.704,0.458,1.106,0.776L1.106,0.776z M1.106,0.776"/>
	<path fill="#008894" d="M13.259,1.83L7.746,6.014C7.54,6.169,7.27,6.244,7.003,6.242c-0.271,0.002-0.54-0.073-0.747-0.229
		L0.743,1.83C0.333,1.52,0,1.687,0,2.2v6.866C0,9.578,0.419,10,0.933,10h12.137c0.514,0,0.933-0.422,0.933-0.935V2.2
		C14.002,1.687,13.669,1.52,13.259,1.83L13.259,1.83z M13.259,1.83"/>
</g>
</svg>
