<?xml version="1.0" encoding="utf-8"?>
<!-- Generator: Adobe Illustrator 16.0.0, SVG Export Plug-In . SVG Version: 6.00 Build 0)  -->
<!DOCTYPE svg PUBLIC "-//W3C//DTD SVG 1.1//EN" "http://www.w3.org/Graphics/SVG/1.1/DTD/svg11.dtd" [
	<!ENTITY ns_extend "http://ns.adobe.com/Extensibility/1.0/">
	<!ENTITY ns_ai "http://ns.adobe.com/AdobeIllustrator/10.0/">
	<!ENTITY ns_graphs "http://ns.adobe.com/Graphs/1.0/">
	<!ENTITY ns_vars "http://ns.adobe.com/Variables/1.0/">
	<!ENTITY ns_imrep "http://ns.adobe.com/ImageReplacement/1.0/">
	<!ENTITY ns_sfw "http://ns.adobe.com/SaveForWeb/1.0/">
	<!ENTITY ns_custom "http://ns.adobe.com/GenericCustomNamespace/1.0/">
	<!ENTITY ns_adobe_xpath "http://ns.adobe.com/XPath/1.0/">
]>
<svg version="1.1" id="Capa_1" xmlns:x="&ns_extend;" xmlns:i="&ns_ai;" xmlns:graph="&ns_graphs;"
	 xmlns="http://www.w3.org/2000/svg" xmlns:xlink="http://www.w3.org/1999/xlink" x="0px" y="0px" width="12px" height="11.853px"
	 viewBox="0 0.147 12 11.853" enable-background="new 0 0.147 12 11.853" xml:space="preserve">
<metadata>
	<sfw  xmlns="&ns_sfw;">
		<slices></slices>
		<sliceSourceBounds  height="11.852" width="11.961" y="1.5" x="0.5" bottomLeftOrigin="true"></sliceSourceBounds>
	</sfw>
</metadata>
<path fill="#008894" d="M11.742,9.402c-0.484-0.516-1.911-1.76-2.336-1.973C8.98,7.217,8.495,6.975,8.04,7.49
	C7.797,7.764,7.706,8.341,7.038,7.977C6.37,7.611,4.7,6.55,4.002,4.94C3.789,4.545,4.245,4.303,4.397,4.15
	c0.152-0.151,0.88-0.545,0.273-1.426C4.063,1.843,3.183,0.842,2.788,0.417C2.485,0.144,2.06-0.007,1.696,0.386
	c-0.365,0.396-1.913,2.005-1.67,2.671c0,0,2.975,5.769,9.044,8.925c0.336,0.091,1.119-0.159,2.064-1.062
	C11.852,10.238,12.229,9.918,11.742,9.402z"/>
</svg>
