<?xml version="1.0" encoding="utf-8"?>
<!-- Generator: Adobe Illustrator 16.0.0, SVG Export Plug-In . SVG Version: 6.00 Build 0)  -->
<!DOCTYPE svg PUBLIC "-//W3C//DTD SVG 1.1//EN" "http://www.w3.org/Graphics/SVG/1.1/DTD/svg11.dtd" [
	<!ENTITY ns_extend "http://ns.adobe.com/Extensibility/1.0/">
	<!ENTITY ns_ai "http://ns.adobe.com/AdobeIllustrator/10.0/">
	<!ENTITY ns_graphs "http://ns.adobe.com/Graphs/1.0/">
	<!ENTITY ns_vars "http://ns.adobe.com/Variables/1.0/">
	<!ENTITY ns_imrep "http://ns.adobe.com/ImageReplacement/1.0/">
	<!ENTITY ns_sfw "http://ns.adobe.com/SaveForWeb/1.0/">
	<!ENTITY ns_custom "http://ns.adobe.com/GenericCustomNamespace/1.0/">
	<!ENTITY ns_adobe_xpath "http://ns.adobe.com/XPath/1.0/">
]>
<svg version="1.1" id="Capa_1" xmlns:x="&ns_extend;" xmlns:i="&ns_ai;" xmlns:graph="&ns_graphs;"
	 xmlns="http://www.w3.org/2000/svg" xmlns:xlink="http://www.w3.org/1999/xlink" x="0px" y="0px" width="20px" height="14.119px"
	 viewBox="0 3.881 20 14.119" enable-background="new 0 3.881 20 14.119" xml:space="preserve">
<metadata>
	<sfw  xmlns="&ns_sfw;">
		<slices></slices>
		<sliceSourceBounds  height="14.118" width="19.984" y="-1.499" x="-3.484" bottomLeftOrigin="true"></sliceSourceBounds>
	</sfw>
</metadata>
<path fill="#008894" d="M14.004,14.904c-0.578-0.612-2.277-2.096-2.783-2.348c-0.507-0.257-1.085-0.546-1.627,0.07
	c-0.291,0.325-0.399,1.014-1.194,0.578c-0.796-0.434-2.785-1.699-3.617-3.616C4.53,9.121,5.072,8.833,5.255,8.65
	C5.435,8.47,6.302,8,5.58,6.951C4.857,5.902,3.809,4.708,3.337,4.203c-0.361-0.325-0.867-0.506-1.3-0.036
	c-0.436,0.469-2.279,2.386-1.99,3.182c0,0,3.545,6.872,10.775,10.629c0.398,0.107,1.33-0.189,2.459-1.266
	C14.133,15.9,14.584,15.521,14.004,14.904z"/>
<g>
	<path fill="#008894" d="M15.134,16.501c0.216-0.508,0.718-1.045,1.515-1.612c0.689-0.494,1.137-0.849,1.341-1.062
		c0.312-0.334,0.468-0.697,0.468-1.095c0-0.321-0.089-0.588-0.27-0.803c-0.179-0.217-0.436-0.32-0.768-0.32
		c-0.456,0-0.766,0.168-0.93,0.51c-0.096,0.195-0.15,0.509-0.17,0.936h-1.454c0.024-0.646,0.142-1.172,0.352-1.57
		c0.4-0.76,1.111-1.142,2.132-1.142c0.808,0,1.447,0.224,1.924,0.671c0.479,0.445,0.718,1.037,0.718,1.772
		c0,0.563-0.171,1.063-0.507,1.503c-0.221,0.291-0.584,0.615-1.09,0.973l-0.601,0.426c-0.376,0.268-0.633,0.459-0.771,0.578
		c-0.14,0.118-0.254,0.258-0.351,0.414H20v1.319h-5.218C14.796,17.452,14.913,16.953,15.134,16.501z"/>
</g>
</svg>
