<?xml version="1.0" encoding="UTF-8"?>
<svg width="11px" height="11px" viewBox="0 0 11 11" version="1.1" xmlns="http://www.w3.org/2000/svg" xmlns:xlink="http://www.w3.org/1999/xlink">
    <!-- Generator: Sketch 52.6 (67491) - http://www.bohemiancoding.com/sketch -->
    <title>Fill 1</title>
    <desc>Created with Sketch.</desc>
    <g id="Page-1" stroke="none" stroke-width="1" fill="none" fill-rule="evenodd">
        <g id="1-copy-3" transform="translate(-2006.000000, -523.000000)" fill="#008894">
            <path d="M2012.40333,529.466571 C2012.39856,529.514327 2012.37229,529.555874 2012.32883,529.591213 C2012.28299,529.62703 2012.22615,529.645177 2012.15882,529.645177 L2010.83402,529.645177 C2010.76716,529.645177 2010.71033,529.62703 2010.66305,529.591213 C2010.61481,529.555874 2010.58998,529.514327 2010.58998,529.466571 L2010.46915,525.018625 C2010.46915,524.961796 2010.4916,524.918338 2010.54127,524.889685 C2010.58807,524.85148 2010.64633,524.831901 2010.71319,524.831901 L2012.28824,524.831901 C2012.3551,524.831901 2012.41145,524.851003 2012.46017,524.889685 C2012.50936,524.918338 2012.5318,524.961796 2012.5318,525.018625 L2012.40333,529.466571 Z M2012.41671,531.929322 C2012.41671,531.99618 2012.39474,532.052531 2012.35128,532.098376 C2012.31068,532.143744 2012.25672,532.165234 2012.19463,532.165234 L2010.82113,532.165234 C2010.75809,532.165234 2010.70269,532.141834 2010.65636,532.094078 C2010.60813,532.045845 2010.58329,531.991404 2010.58329,531.929322 L2010.58329,530.568768 C2010.58329,530.507163 2010.60813,530.451767 2010.65636,530.404489 C2010.70221,530.355778 2010.75809,530.331901 2010.82017,530.331901 L2012.19463,530.331901 C2012.25672,530.331901 2012.31068,530.355778 2012.35128,530.400191 C2012.39474,530.446036 2012.41575,530.502388 2012.41575,530.568768 L2012.41575,531.929322 L2012.41671,531.929322 Z M2014.26063,523.737345 C2013.41914,523.245463 2012.49837,523 2011.50072,523 C2010.50258,523 2009.58229,523.245463 2008.73985,523.737345 C2007.89598,524.228271 2007.22976,524.895893 2006.73833,525.737822 C2006.245,526.582139 2006,527.500955 2006,528.499522 C2006,529.496657 2006.245,530.417383 2006.73833,531.260745 C2007.22976,532.103629 2007.89598,532.769819 2008.73937,533.2617 C2009.58229,533.754537 2010.50258,534 2011.50072,534 C2012.49837,534 2013.41914,533.754059 2014.26063,533.2617 C2015.1045,532.769819 2015.77168,532.103629 2016.26262,531.260745 C2016.75453,530.417383 2017,529.496657 2017,528.499522 C2017,527.500955 2016.75453,526.580229 2016.26262,525.737822 C2015.77168,524.895893 2015.10546,524.229226 2014.26063,523.737345 Z" id="Fill-1"></path>
        </g>
    </g>
</svg>