<?xml version="1.0" encoding="utf-8"?>
<!-- Generator: Adobe Illustrator 16.0.0, SVG Export Plug-In . SVG Version: 6.00 Build 0)  -->
<!DOCTYPE svg PUBLIC "-//W3C//DTD SVG 1.1//EN" "http://www.w3.org/Graphics/SVG/1.1/DTD/svg11.dtd" [
	<!ENTITY ns_extend "http://ns.adobe.com/Extensibility/1.0/">
	<!ENTITY ns_ai "http://ns.adobe.com/AdobeIllustrator/10.0/">
	<!ENTITY ns_graphs "http://ns.adobe.com/Graphs/1.0/">
	<!ENTITY ns_vars "http://ns.adobe.com/Variables/1.0/">
	<!ENTITY ns_imrep "http://ns.adobe.com/ImageReplacement/1.0/">
	<!ENTITY ns_sfw "http://ns.adobe.com/SaveForWeb/1.0/">
	<!ENTITY ns_custom "http://ns.adobe.com/GenericCustomNamespace/1.0/">
	<!ENTITY ns_adobe_xpath "http://ns.adobe.com/XPath/1.0/">
]>
<svg version="1.1" id="Capa_1" xmlns:x="&ns_extend;" xmlns:i="&ns_ai;" xmlns:graph="&ns_graphs;"
	 xmlns="http://www.w3.org/2000/svg" xmlns:xlink="http://www.w3.org/1999/xlink" x="0px" y="0px" width="18px" height="20px"
	 viewBox="0 0 18 20" enable-background="new 0 0 18 20" xml:space="preserve">
<metadata>
	<sfw  xmlns="&ns_sfw;">
		<slices></slices>
		<sliceSourceBounds  width="17.915" height="19.803" bottomLeftOrigin="true" y="-19.901" x="0.042"></sliceSourceBounds>
	</sfw>
</metadata>
<g>
	<path fill="#008894" d="M17.23,6.382l-6.473-5.518C9.744-0.192,7.988-0.15,6.836,0.957L0.812,6.746
		c-1.151,1.107-0.921,4.726,0.093,5.781c0,0,7.496,6.125,8.75,7.375l7.065-7.332C17.873,11.463,18.56,8.553,17.23,6.382z
		 M9.16,12.804c-1.873,0-3.391-1.519-3.391-3.392c0-1.872,1.518-3.391,3.391-3.391c1.872,0,3.391,1.519,3.391,3.391
		C12.551,11.285,11.032,12.804,9.16,12.804z"/>
</g>
</svg>
