<?xml version="1.0" encoding="utf-8"?>
<!-- Generator: Adobe Illustrator 16.0.0, SVG Export Plug-In . SVG Version: 6.00 Build 0)  -->
<!DOCTYPE svg PUBLIC "-//W3C//DTD SVG 1.1//EN" "http://www.w3.org/Graphics/SVG/1.1/DTD/svg11.dtd" [
	<!ENTITY ns_extend "http://ns.adobe.com/Extensibility/1.0/">
	<!ENTITY ns_ai "http://ns.adobe.com/AdobeIllustrator/10.0/">
	<!ENTITY ns_graphs "http://ns.adobe.com/Graphs/1.0/">
	<!ENTITY ns_vars "http://ns.adobe.com/Variables/1.0/">
	<!ENTITY ns_imrep "http://ns.adobe.com/ImageReplacement/1.0/">
	<!ENTITY ns_sfw "http://ns.adobe.com/SaveForWeb/1.0/">
	<!ENTITY ns_custom "http://ns.adobe.com/GenericCustomNamespace/1.0/">
	<!ENTITY ns_adobe_xpath "http://ns.adobe.com/XPath/1.0/">
]>
<svg version="1.1" id="Capa_1" xmlns:x="&ns_extend;" xmlns:i="&ns_ai;" xmlns:graph="&ns_graphs;"
	 xmlns="http://www.w3.org/2000/svg" xmlns:xlink="http://www.w3.org/1999/xlink" x="0px" y="0px" width="70px" height="9.769px"
	 viewBox="0 0 70 9.769" enable-background="new 0 0 70 9.769" xml:space="preserve">
<metadata>
	<sfw  xmlns="&ns_sfw;">
		<slices></slices>
		<sliceSourceBounds  width="70" height="9.769" y="-10" x="0" bottomLeftOrigin="true"></sliceSourceBounds>
	</sfw>
</metadata>
<g>
	<path fill="#008894" d="M32.712,3.276c-0.211-0.119-0.547-0.176-1-0.176c-0.463,0-0.821,0.055-1.075,0.17
		c-0.254,0.114-0.412,0.321-0.472,0.617l-0.539,2.64c-0.03,0.155-0.017,0.284,0.039,0.386c0.059,0.102,0.158,0.174,0.298,0.217
		c0.142,0.043,0.28,0.074,0.409,0.088c0.136,0.017,0.304,0.023,0.504,0.023c0.199,0,0.369-0.007,0.511-0.023
		c0.14-0.014,0.286-0.045,0.441-0.088s0.279-0.115,0.376-0.217c0.098-0.102,0.162-0.23,0.192-0.386l0.538-2.64
		C32.994,3.596,32.919,3.392,32.712,3.276z"/>
	<path fill="#008894" d="M67.781,0H15.761l0.924,5.359l-2.934,4.41h52.021L70,5.359L67.781,0z M25.507,7.242
		c0.433,0,1.038-0.089,1.822-0.269l-0.223,1.094c-0.696,0.138-1.348,0.204-1.955,0.204c-0.242,0-0.471-0.011-0.682-0.031
		c-0.211-0.023-0.441-0.068-0.691-0.139c-0.25-0.072-0.456-0.168-0.616-0.288c-0.161-0.121-0.282-0.292-0.366-0.512
		c-0.082-0.217-0.094-0.477-0.033-0.773l0.539-2.64c0.247-1.212,1.285-1.816,3.115-1.816c0.45,0,1.061,0.066,1.834,0.204
		L28.03,3.358C27.344,3.186,26.743,3.1,26.225,3.1c-0.207,0-0.377,0.005-0.51,0.017c-0.134,0.013-0.276,0.045-0.431,0.093
		c-0.151,0.05-0.274,0.129-0.365,0.238c-0.092,0.108-0.157,0.249-0.191,0.421l-0.521,2.558C24.094,6.97,24.528,7.242,25.507,7.242z
		 M34.355,3.896l-0.537,2.632C33.751,6.869,33.601,7.16,33.375,7.4c-0.224,0.242-0.497,0.422-0.82,0.541
		c-0.323,0.121-0.636,0.206-0.944,0.256c-0.309,0.049-0.629,0.074-0.963,0.074c-0.316,0-0.608-0.021-0.879-0.06
		c-0.266-0.04-0.546-0.117-0.834-0.227c-0.292-0.111-0.504-0.292-0.639-0.54c-0.134-0.245-0.166-0.551-0.09-0.917l0.536-2.632
		c0.06-0.309,0.187-0.58,0.371-0.815c0.184-0.235,0.385-0.415,0.601-0.539c0.217-0.122,0.469-0.224,0.761-0.301
		c0.289-0.076,0.542-0.125,0.759-0.144c0.215-0.018,0.443-0.027,0.678-0.027c0.245,0,0.473,0.009,0.683,0.027
		c0.214,0.019,0.446,0.067,0.706,0.144c0.257,0.077,0.471,0.179,0.639,0.301c0.171,0.124,0.299,0.301,0.384,0.534
		C34.408,3.307,34.421,3.581,34.355,3.896z M40.199,8.178h-1.442l-2.01-4.17l-0.853,4.17H34.63l1.227-6.016h1.442l2.023,4.106
		l0.838-4.106h1.266L40.199,8.178z M47.044,8.178h-1.44l-2.011-4.17l-0.852,4.17h-1.267L42.7,2.163h1.442l2.024,4.106l0.838-4.106
		h1.267L47.044,8.178z M53.267,4.573l-0.211,1.028h-2.789L49.952,7.15h3.181l-0.209,1.028h-4.604l1.226-6.016h4.516l-0.211,1.03
		h-3.091l-0.28,1.38H53.267z M59.244,3.358C58.56,3.186,57.956,3.1,57.442,3.1c-0.209,0-0.379,0.005-0.511,0.017
		c-0.136,0.013-0.278,0.045-0.431,0.093c-0.152,0.05-0.274,0.129-0.367,0.238c-0.091,0.108-0.155,0.249-0.191,0.421l-0.521,2.558
		c-0.109,0.544,0.322,0.815,1.303,0.815c0.431,0,1.041-0.089,1.821-0.269l-0.223,1.094c-0.696,0.138-1.349,0.204-1.956,0.204
		c-0.242,0-0.471-0.011-0.681-0.031c-0.211-0.023-0.443-0.068-0.692-0.139c-0.25-0.072-0.455-0.168-0.614-0.288
		c-0.159-0.121-0.284-0.292-0.366-0.512c-0.084-0.217-0.094-0.477-0.033-0.773l0.537-2.64c0.248-1.212,1.285-1.816,3.117-1.816
		c0.447,0,1.061,0.066,1.836,0.204L59.244,3.358z M64.831,3.193h-1.814l-1.016,4.985h-1.423l1.017-4.985h-1.82l0.208-1.03h5.061
		L64.831,3.193z"/>
	<polygon fill="#008894" points="11.175,0 12.099,5.359 9.167,9.769 12.099,9.769 15.036,5.359 14.11,0 	"/>
	<polygon opacity="0.4" fill="#008894" points="6.593,0 7.518,5.359 4.581,9.769 7.518,9.769 10.451,5.359 9.527,0 	"/>
	<polygon opacity="0.2" fill="#008894" points="2.008,0 2.934,5.359 0,9.769 2.934,9.769 5.868,5.359 4.944,0 	"/>
</g>
</svg>
