<?xml version="1.0" encoding="utf-8"?>
<!-- Generator: Adobe Illustrator 16.0.0, SVG Export Plug-In . SVG Version: 6.00 Build 0)  -->
<!DOCTYPE svg PUBLIC "-//W3C//DTD SVG 1.1//EN" "http://www.w3.org/Graphics/SVG/1.1/DTD/svg11.dtd" [
	<!ENTITY ns_extend "http://ns.adobe.com/Extensibility/1.0/">
	<!ENTITY ns_ai "http://ns.adobe.com/AdobeIllustrator/10.0/">
	<!ENTITY ns_graphs "http://ns.adobe.com/Graphs/1.0/">
	<!ENTITY ns_vars "http://ns.adobe.com/Variables/1.0/">
	<!ENTITY ns_imrep "http://ns.adobe.com/ImageReplacement/1.0/">
	<!ENTITY ns_sfw "http://ns.adobe.com/SaveForWeb/1.0/">
	<!ENTITY ns_custom "http://ns.adobe.com/GenericCustomNamespace/1.0/">
	<!ENTITY ns_adobe_xpath "http://ns.adobe.com/XPath/1.0/">
]>
<svg version="1.1" id="Capa_1" xmlns:x="&ns_extend;" xmlns:i="&ns_ai;" xmlns:graph="&ns_graphs;"
	 xmlns="http://www.w3.org/2000/svg" xmlns:xlink="http://www.w3.org/1999/xlink" x="0px" y="0px" width="20px" height="20px"
	 viewBox="0 0 20 20" enable-background="new 0 0 20 20" xml:space="preserve">
<metadata>
	<sfw  xmlns="&ns_sfw;">
		<slices></slices>
		<sliceSourceBounds  width="19.913" height="19.113" bottomLeftOrigin="true" y="-19.557" x="0.044"></sliceSourceBounds>
	</sfw>
</metadata>
<path fill-rule="evenodd" clip-rule="evenodd" fill="#FFFFFF" d="M19.953,14.014l-6.109-7.432l-1.505-1.833L8.725,5.42
	C8.682,5.327,8.632,5.232,8.574,5.139C8.53,5.069,8.483,5,8.435,4.932C8.364,4.836,8.289,4.742,8.207,4.65
	c-0.116-0.13-0.242-0.254-0.375-0.365L7.794,4.253l-0.02-0.015c0.021-0.042,0.04-0.084,0.058-0.128c0.256-0.614,0.223-1.278,0-1.87
	c-0.093-0.248-0.22-0.484-0.373-0.697C7.176,1.148,6.801,0.825,6.381,0.635C6.375,0.631,6.368,0.627,6.361,0.624
	C5.921,0.428,5.434,0.379,4.954,0.54C4.118,0.819,3.32,1.742,2.874,3.665C2.719,4.332,2.521,4.977,2.14,5.437
	C1.771,5.878,1.212,6.159,0.315,6.141c-0.147-0.003-0.268,0.114-0.271,0.26s0.114,0.268,0.261,0.271
	c1.086,0.022,1.776-0.336,2.243-0.898C3,5.233,3.222,4.517,3.392,3.785c0.397-1.711,1.056-2.516,1.73-2.74
	C5.467,0.93,5.821,0.968,6.146,1.112L6.165,1.12c0.329,0.15,0.63,0.41,0.861,0.733c0.425,0.594,0.606,1.391,0.299,2.088
	C7.137,3.843,6.942,3.772,6.747,3.738C5.944,3.6,5.178,4.049,4.893,5.704C4.809,6.191,4.694,6.761,4.537,7.335
	C4.379,7.909,4.178,8.497,3.921,9.026L3.919,9.028l0,0c-0.312,0.639-0.956,1.095-1.454,1.449c-0.332,0.236-0.608,0.433-0.739,0.648
	c-0.1,0.165-0.189,0.33-0.265,0.494c-0.275,0.595-0.408,1.227-0.286,1.832c0.124,0.612,0.504,1.185,1.256,1.641
	c0.141,0.086,0.29,0.166,0.449,0.239c0.133,0.062,0.291,0.004,0.353-0.131c0.062-0.133,0.003-0.291-0.13-0.354
	c-0.147-0.068-0.28-0.138-0.396-0.209c-0.609-0.37-0.914-0.818-1.01-1.291c-0.098-0.481,0.017-1.004,0.248-1.505
	c0.072-0.152,0.151-0.301,0.238-0.441c0.071-0.118,0.307-0.286,0.593-0.49c0.548-0.388,1.252-0.89,1.624-1.649l0,0l0.002-0.004
	C4.672,8.7,4.884,8.08,5.05,7.475c0.166-0.604,0.283-1.188,0.369-1.683c0.218-1.261,0.723-1.618,1.239-1.529
	c0.14,0.023,0.284,0.079,0.426,0.154c-0.168,0.43-0.165,0.912-0.051,1.327C7.088,5.954,7.174,6.147,7.279,6.31l-1.472,3.807
	l2.025,2.463l0.375,0.457l0.228,0.276l4.987,6.068c0.144,0.025,0.283,0.048,0.422,0.068C17.54,19.98,20.072,18.595,19.953,14.014
	 M8.365,6.148C8.354,6.202,8.327,6.243,8.285,6.27C8.259,6.286,8.232,6.298,8.207,6.305C8.154,6.324,8.102,6.324,8.055,6.311
	L8.049,6.31c0.017-0.02,0.036-0.038,0.055-0.054c0.033-0.027,0.067-0.049,0.103-0.064C8.259,6.168,8.312,6.154,8.365,6.148
	 M7.554,5.639L7.545,5.605C7.47,5.329,7.456,5.019,7.537,4.735c0.106,0.092,0.205,0.191,0.295,0.295
	c0.111,0.125,0.207,0.255,0.29,0.387c0.021,0.035,0.041,0.069,0.06,0.104l-0.35,0.066L7.554,5.639z M8.714,6.997
	C8.632,7.064,8.533,7.101,8.435,7.104c-0.078,0.005-0.156-0.01-0.228-0.043c-0.063-0.03-0.12-0.074-0.168-0.131
	C8.016,6.901,7.996,6.872,7.98,6.839c0.075,0.015,0.151,0.019,0.227,0.01c0.076-0.008,0.151-0.027,0.228-0.06
	c0.042-0.017,0.086-0.041,0.129-0.067c0.13-0.081,0.22-0.187,0.273-0.313C8.937,6.604,8.891,6.851,8.714,6.997 M15.271,14.097
	c-0.076,0.189-0.185,0.351-0.325,0.481c-0.141,0.129-0.31,0.233-0.507,0.314c-0.194,0.077-0.412,0.13-0.65,0.157v0.691h-0.257h-0.41
	v-0.667c-0.228-0.012-0.473-0.044-0.729-0.102s-0.489-0.15-0.696-0.281l0.343-1.009c0.13,0.054,0.26,0.097,0.391,0.129
	c0.13,0.033,0.249,0.059,0.358,0.078c0.107,0.019,0.204,0.03,0.289,0.036c0.084,0.005,0.147,0.008,0.191,0.008
	c0.101,0,0.189-0.006,0.264-0.019c0.106-0.019,0.185-0.05,0.24-0.094c0.093-0.077,0.139-0.202,0.139-0.376
	c0-0.081-0.009-0.149-0.031-0.204c-0.022-0.053-0.059-0.101-0.107-0.142s-0.113-0.079-0.194-0.115l-0.046-0.018
	c-0.072-0.03-0.161-0.063-0.264-0.1c-0.249-0.086-0.474-0.172-0.668-0.256c-0.195-0.085-0.36-0.189-0.497-0.314
	c-0.135-0.124-0.24-0.277-0.313-0.459c-0.073-0.183-0.109-0.412-0.109-0.688c0-0.244,0.036-0.455,0.109-0.632
	c0.073-0.175,0.177-0.325,0.306-0.447c0.13-0.122,0.283-0.219,0.46-0.289c0.176-0.071,0.365-0.12,0.566-0.147V8.951h0.41h0.257v0.66
	c0.206,0.01,0.433,0.044,0.677,0.101c0.244,0.057,0.461,0.146,0.651,0.265l-0.293,0.977c-0.109-0.043-0.223-0.078-0.339-0.105
	c-0.116-0.028-0.225-0.048-0.326-0.065c-0.101-0.017-0.19-0.029-0.272-0.037c-0.082-0.009-0.142-0.011-0.179-0.011
	c-0.064,0-0.121,0.002-0.176,0.01c-0.107,0.014-0.19,0.042-0.248,0.086c-0.086,0.065-0.13,0.173-0.13,0.326
	c0,0.119,0.045,0.213,0.134,0.281c0.06,0.045,0.141,0.088,0.244,0.13c0.055,0.021,0.111,0.042,0.176,0.062
	c0.336,0.108,0.613,0.217,0.83,0.325c0.217,0.109,0.389,0.231,0.514,0.367c0.124,0.136,0.213,0.293,0.261,0.473
	c0.049,0.179,0.073,0.391,0.073,0.634C15.386,13.685,15.347,13.906,15.271,14.097"/>
</svg>
