<?xml version="1.0" encoding="utf-8"?>
<!-- Generator: Adobe Illustrator 16.0.0, SVG Export Plug-In . SVG Version: 6.00 Build 0)  -->
<!DOCTYPE svg PUBLIC "-//W3C//DTD SVG 1.1//EN" "http://www.w3.org/Graphics/SVG/1.1/DTD/svg11.dtd" [
	<!ENTITY ns_extend "http://ns.adobe.com/Extensibility/1.0/">
	<!ENTITY ns_ai "http://ns.adobe.com/AdobeIllustrator/10.0/">
	<!ENTITY ns_graphs "http://ns.adobe.com/Graphs/1.0/">
	<!ENTITY ns_vars "http://ns.adobe.com/Variables/1.0/">
	<!ENTITY ns_imrep "http://ns.adobe.com/ImageReplacement/1.0/">
	<!ENTITY ns_sfw "http://ns.adobe.com/SaveForWeb/1.0/">
	<!ENTITY ns_custom "http://ns.adobe.com/GenericCustomNamespace/1.0/">
	<!ENTITY ns_adobe_xpath "http://ns.adobe.com/XPath/1.0/">
]>
<svg version="1.1" id="Capa_1" xmlns:x="&ns_extend;" xmlns:i="&ns_ai;" xmlns:graph="&ns_graphs;"
	 xmlns="http://www.w3.org/2000/svg" xmlns:xlink="http://www.w3.org/1999/xlink" x="0px" y="0px" width="20px" height="20px"
	 viewBox="0 0 20 20" enable-background="new 0 0 20 20" xml:space="preserve">
<metadata>
	<sfw  xmlns="&ns_sfw;">
		<slices></slices>
		<sliceSourceBounds  width="19.478" height="20" bottomLeftOrigin="true" y="-19.999" x="0.261"></sliceSourceBounds>
	</sfw>
</metadata>
<g>
	<path fill="#FFFFFF" d="M3.609,2.748h2.55h4.735h2.55V2.689h0.016v-1.25h-2.555V1.406C10.905,0.63,9.837,0,8.526,0
		C7.219,0,6.151,0.63,6.151,1.406v0.033H3.593v1.25h0.017V2.748z"/>
	<path fill="#FFFFFF" d="M16.139,17.65c-0.167,0-0.317-0.066-0.43-0.174c-0.249,0.887-1.109,1.541-2.135,1.541H3.444
		c-1.217,0-2.21-0.926-2.208-2.064V7.498C1.234,6.36,2.227,5.437,3.444,5.437h10.13c0.835,0,1.563,0.434,1.94,1.074V6.222
		c0-0.346,0.279-0.626,0.624-0.626h0.654l0,0v-2.35h-3.15H13.63H3.429H3.41H0.261v2.352V20h16.532v-2.35l0,0H16.139z"/>
	<rect x="4.541" y="7.987" fill="#FFFFFF" width="7.972" height="0.707"/>
	<rect x="6.423" y="10.369" fill="#FFFFFF" width="4.135" height="0.708"/>
	<rect x="6.423" y="12.752" fill="#FFFFFF" width="4.135" height="0.705"/>
	<polygon fill="#FFFFFF" points="9.333,15.135 7.719,15.135 7.72,15.135 5.099,15.135 5.099,15.842 8.41,15.842 8.41,15.842 
		9.333,15.842 9.333,15.842 11.881,15.842 11.881,15.135 9.333,15.135 	"/>
	<path fill="#FFFFFF" d="M19.622,12.334c-0.076-0.283-0.215-0.533-0.414-0.75c-0.198-0.217-0.47-0.41-0.814-0.584
		c-0.347-0.171-0.787-0.345-1.322-0.517c-0.102-0.031-0.195-0.065-0.278-0.099c-0.021-0.008-0.036-0.017-0.056-0.025
		c-0.137-0.058-0.251-0.118-0.334-0.181c-0.141-0.107-0.213-0.257-0.213-0.446c0-0.242,0.069-0.414,0.207-0.518
		c0.093-0.07,0.225-0.116,0.396-0.138l0,0c0.084-0.012,0.177-0.018,0.278-0.018c0.061,0,0.155,0.006,0.285,0.019
		C17.485,9.09,17.63,9.11,17.79,9.136c0.16,0.025,0.333,0.06,0.518,0.104c0.187,0.043,0.365,0.099,0.538,0.168l0.467-1.554
		c-0.303-0.191-0.648-0.331-1.036-0.422c-0.39-0.09-0.748-0.144-1.076-0.161V6.222h-0.407l0,0h-0.654V7.31
		c-0.124,0.016-0.243,0.043-0.361,0.07c-0.187,0.043-0.368,0.094-0.54,0.162c-0.279,0.112-0.523,0.266-0.73,0.46
		c-0.208,0.195-0.369,0.432-0.486,0.713c-0.116,0.279-0.174,0.615-0.174,1.003c0,0.441,0.058,0.805,0.174,1.094
		c0.117,0.289,0.283,0.533,0.499,0.732c0.216,0.197,0.479,0.365,0.79,0.498c0.311,0.135,0.665,0.271,1.062,0.408
		c0.164,0.057,0.305,0.109,0.421,0.158l0.07,0.031c0.13,0.055,0.233,0.115,0.312,0.18s0.133,0.141,0.168,0.227
		s0.053,0.195,0.053,0.324c0,0.277-0.073,0.475-0.221,0.598c-0.086,0.068-0.213,0.119-0.382,0.15l-0.17,0.018
		c-0.078,0.008-0.161,0.012-0.251,0.012c-0.069,0-0.172-0.004-0.305-0.014c-0.134-0.008-0.287-0.027-0.461-0.057
		c-0.172-0.031-0.361-0.072-0.568-0.123c-0.207-0.053-0.414-0.121-0.622-0.207l-0.545,1.605c0.329,0.205,0.698,0.355,1.108,0.447
		c0.28,0.061,0.545,0.1,0.804,0.127c0.12,0.014,0.241,0.029,0.355,0.033v1.062h0.654l0,0H17.2v-1.1
		c0.381-0.043,0.727-0.127,1.037-0.252c0.31-0.127,0.578-0.293,0.803-0.5s0.397-0.461,0.518-0.764
		c0.121-0.303,0.182-0.656,0.182-1.062C19.739,12.957,19.7,12.621,19.622,12.334"/>
</g>
</svg>
