<?xml version="1.0" encoding="utf-8"?>
<!-- Generator: Adobe Illustrator 16.0.0, SVG Export Plug-In . SVG Version: 6.00 Build 0)  -->
<!DOCTYPE svg PUBLIC "-//W3C//DTD SVG 1.1 Basic//EN" "http://www.w3.org/Graphics/SVG/1.1/DTD/svg11-basic.dtd">
<svg version="1.1" baseProfile="basic" id="Capa_1" xmlns="http://www.w3.org/2000/svg" xmlns:xlink="http://www.w3.org/1999/xlink"
	 x="0px" y="0px" width="103.384px" height="29.32px" viewBox="0 0 103.384 29.32" xml:space="preserve">
<path fill="#808080" d="M106.062,28.481c0,1.936-1.583,3.519-3.519,3.519H6.198c-1.935,0-3.519-1.583-3.519-3.519V6.197
	c0-1.936,1.583-3.518,3.519-3.518h96.346c1.936,0,3.519,1.582,3.519,3.518V28.481z"/>
<path fill="#E8B83F" d="M103.384,25.803c0,1.936-1.583,3.518-3.519,3.518H3.519C1.583,29.32,0,27.738,0,25.803V3.519
	C0,1.583,1.583,0,3.519,0h96.347c1.936,0,3.519,1.583,3.519,3.519V25.803z"/>
<text transform="matrix(1 0 0 1 20.791 19.4805)" fill="#FFFFFF" font-family="'MyriadPro-Bold'" font-size="16.4196">Check in</text>
</svg>
