<?xml version="1.0" encoding="utf-8"?>
<!-- Generator: Adobe Illustrator 16.0.0, SVG Export Plug-In . SVG Version: 6.00 Build 0)  -->
<!DOCTYPE svg PUBLIC "-//W3C//DTD SVG 1.1//EN" "http://www.w3.org/Graphics/SVG/1.1/DTD/svg11.dtd">
<svg version="1.1" id="Capa_1" xmlns="http://www.w3.org/2000/svg" xmlns:xlink="http://www.w3.org/1999/xlink" x="0px" y="0px"
	 width="30px" height="30px" viewBox="0 0 30 30" enable-background="new 0 0 30 30" xml:space="preserve">
<g>
	<rect fill="#008693" width="30" height="30"/>
</g>
<g>
	<g>
		<path fill="#FFFFFF" d="M10.025,23h9.952c0.205,0,0.373-0.168,0.373-0.374V12.281H9.651v10.345C9.651,22.833,9.818,23,10.025,23
			L10.025,23z M17.148,14.288c0-0.337,0.272-0.611,0.61-0.611h0.013c0.335,0,0.609,0.273,0.609,0.611v6.707
			c0,0.336-0.272,0.61-0.609,0.61h-0.013c-0.336,0-0.61-0.273-0.61-0.61V14.288z M14.385,14.288c0-0.337,0.272-0.611,0.61-0.611
			h0.012c0.337,0,0.61,0.273,0.61,0.611v6.707c0,0.336-0.272,0.61-0.61,0.61h-0.012c-0.337,0-0.61-0.273-0.61-0.61V14.288z
			 M11.621,14.288c0-0.337,0.273-0.611,0.61-0.611h0.013c0.336,0,0.609,0.273,0.609,0.611v6.707c0,0.336-0.272,0.61-0.609,0.61
			h-0.013c-0.336,0-0.61-0.273-0.61-0.61V14.288z M11.621,14.288"/>
		<path fill="#FFFFFF" d="M17.386,8.772v-0.84C17.386,7.418,16.968,7,16.453,7h-2.906c-0.515,0-0.932,0.418-0.932,0.933v0.84h0.746
			V8.119c0-0.204,0.168-0.372,0.372-0.372h2.531c0.205,0,0.373,0.168,0.373,0.372v0.653H17.386z M17.386,8.772"/>
		<path fill="#FFFFFF" d="M9.186,9.891v1.272c0,0.205,0.168,0.372,0.374,0.372h10.882c0.206,0,0.373-0.167,0.373-0.372V9.891
			c0-0.205-0.167-0.373-0.373-0.373H9.56C9.354,9.518,9.186,9.683,9.186,9.891L9.186,9.891z M9.186,9.891"/>
	</g>
</g>
</svg>
