<?xml version="1.0" encoding="utf-8"?>
<!-- Generator: Adobe Illustrator 16.0.0, SVG Export Plug-In . SVG Version: 6.00 Build 0)  -->
<!DOCTYPE svg PUBLIC "-//W3C//DTD SVG 1.1//EN" "http://www.w3.org/Graphics/SVG/1.1/DTD/svg11.dtd" [
	<!ENTITY ns_extend "http://ns.adobe.com/Extensibility/1.0/">
	<!ENTITY ns_ai "http://ns.adobe.com/AdobeIllustrator/10.0/">
	<!ENTITY ns_graphs "http://ns.adobe.com/Graphs/1.0/">
	<!ENTITY ns_vars "http://ns.adobe.com/Variables/1.0/">
	<!ENTITY ns_imrep "http://ns.adobe.com/ImageReplacement/1.0/">
	<!ENTITY ns_sfw "http://ns.adobe.com/SaveForWeb/1.0/">
	<!ENTITY ns_custom "http://ns.adobe.com/GenericCustomNamespace/1.0/">
	<!ENTITY ns_adobe_xpath "http://ns.adobe.com/XPath/1.0/">
]>
<svg version="1.1" id="Capa_1" xmlns:x="&ns_extend;" xmlns:i="&ns_ai;" xmlns:graph="&ns_graphs;"
	 xmlns="http://www.w3.org/2000/svg" xmlns:xlink="http://www.w3.org/1999/xlink" x="0px" y="0px" width="15px" height="15px"
	 viewBox="2.5 2.5 15 15" enable-background="new 2.5 2.5 15 15" xml:space="preserve">
<metadata>
	<sfw  xmlns="&ns_sfw;">
		<slices></slices>
		<sliceSourceBounds  width="14.977" height="14.985" bottomLeftOrigin="true" y="-0.985" x="2"></sliceSourceBounds>
	</sfw>
</metadata>
<g>
	<g>
		<path fill="#424242" d="M12.404,10.005l4.773-4.774c0.399-0.401,0.399-1.053,0-1.458L16.203,2.8c-0.399-0.4-1.051-0.4-1.456,0
			L9.975,7.576L5.23,2.831c-0.4-0.401-1.053-0.4-1.458,0L2.8,3.802c-0.401,0.401-0.399,1.052,0,1.458l4.746,4.745l-4.739,4.738
			c-0.401,0.399-0.401,1.051,0,1.457l0.971,0.972c0.4,0.4,1.052,0.4,1.459,0l4.739-4.737l4.75,4.751
			c0.399,0.399,1.051,0.399,1.458,0l0.971-0.974c0.4-0.4,0.4-1.053,0-1.458L12.404,10.005z M12.404,10.005"/>
	</g>
</g>
</svg>
