<?xml version="1.0" encoding="utf-8"?>
<!-- Generator: Adobe Illustrator 16.0.0, SVG Export Plug-In . SVG Version: 6.00 Build 0)  -->
<!DOCTYPE svg PUBLIC "-//W3C//DTD SVG 1.1//EN" "http://www.w3.org/Graphics/SVG/1.1/DTD/svg11.dtd" [
	<!ENTITY ns_extend "http://ns.adobe.com/Extensibility/1.0/">
	<!ENTITY ns_ai "http://ns.adobe.com/AdobeIllustrator/10.0/">
	<!ENTITY ns_graphs "http://ns.adobe.com/Graphs/1.0/">
	<!ENTITY ns_vars "http://ns.adobe.com/Variables/1.0/">
	<!ENTITY ns_imrep "http://ns.adobe.com/ImageReplacement/1.0/">
	<!ENTITY ns_sfw "http://ns.adobe.com/SaveForWeb/1.0/">
	<!ENTITY ns_custom "http://ns.adobe.com/GenericCustomNamespace/1.0/">
	<!ENTITY ns_adobe_xpath "http://ns.adobe.com/XPath/1.0/">
]>
<svg version="1.1" id="Capa_1" xmlns:x="&ns_extend;" xmlns:i="&ns_ai;" xmlns:graph="&ns_graphs;"
	 xmlns="http://www.w3.org/2000/svg" xmlns:xlink="http://www.w3.org/1999/xlink" x="0px" y="0px" width="170px" height="30px"
	 viewBox="0 0 170 30" enable-background="new 0 0 170 30" xml:space="preserve">
<metadata>
	<sfw  xmlns="&ns_sfw;">
		<slices></slices>
		<sliceSourceBounds  width="170" height="30" bottomLeftOrigin="true" y="-30" x="0"></sliceSourceBounds>
	</sfw>
</metadata>
<rect fill="#C2C3C9" width="170" height="30"/>
<g>
	<path fill="#FFFFFF" d="M46.926,20.039h-5.815l-0.84,2.309H36.47l5.879-14.697h3.338l5.879,14.697h-3.8L46.926,20.039z
		 M45.792,16.953l-1.05-2.856c-0.315-0.84-0.692-2.163-0.714-2.163h-0.021c-0.021,0-0.398,1.323-0.713,2.163l-1.051,2.856H45.792z"
		/>
	<path fill="#FFFFFF" d="M62.068,12.207c-0.672-0.84-1.932-1.364-3.087-1.364c-2.436,0-3.947,1.743-3.947,4.157
		c0,2.542,1.659,4.116,3.947,4.116c1.407,0,2.751-0.715,3.359-1.723l3.569,0.924c-1.218,2.604-3.842,4.326-6.929,4.326
		c-4.22,0-7.622-3.213-7.622-7.643c0-4.43,3.402-7.643,7.622-7.643c2.897,0,5.375,1.554,6.677,3.905L62.068,12.207z"/>
	<path fill="#FFFFFF" d="M78.699,19.053v3.295H67.886V7.651h10.688v3.296h-7.16v2.415h5.605v3.087h-5.605v2.604H78.699z"/>
	<path fill="#FFFFFF" d="M87.416,7.651c3.611,0,5.795,1.89,5.795,5.039c0,3.15-2.184,5.039-5.795,5.039h-2.08v4.619h-3.527V7.651
		H87.416z M87.352,14.433c1.365,0,2.184-0.651,2.184-1.743s-0.818-1.743-2.184-1.743h-2.015v3.486H87.352z"/>
	<path fill="#FFFFFF" d="M106.461,7.651v3.296h-4.473v11.401h-3.527V10.947h-4.41V7.651H106.461z"/>
	<path fill="#FFFFFF" d="M115.658,20.039h-5.814l-0.84,2.309h-3.801l5.879-14.697h3.338l5.879,14.697h-3.801L115.658,20.039z
		 M114.525,16.953l-1.051-2.856c-0.314-0.84-0.691-2.163-0.713-2.163h-0.021c-0.021,0-0.398,1.323-0.713,2.163l-1.051,2.856H114.525
		z"/>
	<path fill="#FFFFFF" d="M129.582,22.348l-2.729-4.787h-1.807v4.787h-3.527V7.651H127c3.695,0,5.922,2.016,5.922,5.039
		c0,1.974-0.945,3.443-2.646,4.242l3.254,5.416H129.582z M125.047,14.433h2.436c1.26,0,1.764-0.945,1.764-1.743
		s-0.504-1.743-1.764-1.743h-2.436V14.433z"/>
</g>
</svg>
