<?xml version="1.0" encoding="utf-8"?>
<!-- Generator: Adobe Illustrator 16.0.0, SVG Export Plug-In . SVG Version: 6.00 Build 0)  -->
<!DOCTYPE svg PUBLIC "-//W3C//DTD SVG 1.1//EN" "http://www.w3.org/Graphics/SVG/1.1/DTD/svg11.dtd" [
	<!ENTITY ns_extend "http://ns.adobe.com/Extensibility/1.0/">
	<!ENTITY ns_ai "http://ns.adobe.com/AdobeIllustrator/10.0/">
	<!ENTITY ns_graphs "http://ns.adobe.com/Graphs/1.0/">
	<!ENTITY ns_vars "http://ns.adobe.com/Variables/1.0/">
	<!ENTITY ns_imrep "http://ns.adobe.com/ImageReplacement/1.0/">
	<!ENTITY ns_sfw "http://ns.adobe.com/SaveForWeb/1.0/">
	<!ENTITY ns_custom "http://ns.adobe.com/GenericCustomNamespace/1.0/">
	<!ENTITY ns_adobe_xpath "http://ns.adobe.com/XPath/1.0/">
]>
<svg version="1.1" id="Capa_1" xmlns:x="&ns_extend;" xmlns:i="&ns_ai;" xmlns:graph="&ns_graphs;"
	 xmlns="http://www.w3.org/2000/svg" xmlns:xlink="http://www.w3.org/1999/xlink" x="0px" y="0px" width="170px" height="30px"
	 viewBox="0 0 170 30" enable-background="new 0 0 170 30" xml:space="preserve">
<metadata>
	<sfw  xmlns="&ns_sfw;">
		<slices></slices>
		<sliceSourceBounds  height="30" width="170" bottomLeftOrigin="true" x="-0.074" y="-29.927"></sliceSourceBounds>
	</sfw>
</metadata>
<rect x="-0.074" y="-0.073" fill="#008894" width="170" height="30"/>
<g>
	<path fill="#FFFFFF" d="M19.112,22.274l-2.729-4.787h-1.806v4.787H11.05V7.578h5.479c3.695,0,5.922,2.016,5.922,5.039
		c0,1.974-0.945,3.443-2.646,4.241l3.255,5.416H19.112z M14.577,14.359h2.436c1.26,0,1.764-0.944,1.764-1.742
		s-0.504-1.742-1.764-1.742h-2.436V14.359z"/>
	<path fill="#FFFFFF" d="M36.143,18.978v3.297H25.33V7.578h10.688v3.297h-7.16v2.414h5.605v3.085h-5.605v2.604H36.143z"/>
	<path fill="#FFFFFF" d="M45.824,12.239c-0.357-1.302-1.491-1.911-2.541-1.911s-1.658,0.525-1.658,1.113
		c0,0.966,1.469,1.322,3.254,1.974c2.184,0.798,4.473,2.036,4.473,4.555c0,2.688-2.311,4.6-5.732,4.6
		c-3.065,0-5.249-1.701-6.215-4.451l3.381-0.904c0.377,1.113,1.428,2.227,2.98,2.227c1.26,0,1.848-0.588,1.848-1.303
		c0-1.176-1.721-1.469-3.82-2.267c-1.764-0.672-3.801-1.637-3.801-4.22c0-2.288,2.31-4.367,5.501-4.367
		c2.813,0,5.039,1.722,5.731,4.031L45.824,12.239z"/>
	<path fill="#FFFFFF" d="M62.498,7.578v3.297h-4.473v11.399h-3.527V10.875h-4.409V7.578H62.498z"/>
	<path fill="#FFFFFF" d="M71.696,19.966h-5.815l-0.84,2.309H61.24l5.879-14.696h3.338l5.879,14.696h-3.8L71.696,19.966z
		 M70.562,16.878l-1.05-2.854c-0.315-0.84-0.692-2.162-0.714-2.162h-0.021c-0.021,0-0.398,1.322-0.713,2.162l-1.051,2.854H70.562z"
		/>
	<path fill="#FFFFFF" d="M83.939,7.578c2.625,0,4.451,1.742,4.451,3.885c0,1.385-0.945,2.561-1.826,2.876v0.021
		c1.385,0.379,2.582,1.974,2.582,3.464c0,2.457-1.617,4.451-5.249,4.451h-6.341V7.578H83.939z M83.205,13.311
		c0.944,0,1.637-0.588,1.637-1.387c0-0.797-0.692-1.385-1.637-1.385h-2.121v2.771H83.205z M83.541,19.313
		c1.176,0,1.91-0.691,1.91-1.658c0-1.029-0.798-1.657-1.91-1.657h-2.457v3.315H83.541z"/>
	<path fill="#FFFFFF" d="M101.893,18.978v3.297H91.416V7.578h3.527v11.399H101.893z"/>
	<path fill="#FFFFFF" d="M114.766,18.978v3.297h-10.812V7.578h10.688v3.297h-7.16v2.414h5.605v3.085h-5.605v2.604H114.766z"/>
	<path fill="#FFFFFF" d="M127.051,12.135c-0.672-0.84-1.932-1.365-3.086-1.365c-2.436,0-3.947,1.742-3.947,4.157
		c0,2.539,1.658,4.115,3.947,4.115c1.406,0,2.75-0.715,3.359-1.723l3.57,0.924c-1.219,2.604-3.844,4.326-6.93,4.326
		c-4.221,0-7.621-3.213-7.621-7.643c0-4.431,3.4-7.643,7.621-7.643c2.898,0,5.375,1.554,6.678,3.905L127.051,12.135z"/>
	<path fill="#FFFFFF" d="M143.684,18.978v3.297h-10.812V7.578h10.686v3.297h-7.158v2.414h5.605v3.085h-5.605v2.604H143.684z"/>
	<path fill="#FFFFFF" d="M154.855,22.274l-2.729-4.787h-1.807v4.787h-3.527V7.578h5.48c3.695,0,5.92,2.016,5.92,5.039
		c0,1.974-0.943,3.443-2.645,4.241l3.254,5.416H154.855z M150.32,14.359h2.436c1.26,0,1.764-0.944,1.764-1.742
		s-0.504-1.742-1.764-1.742h-2.436V14.359z"/>
</g>
</svg>
