<?xml version="1.0" encoding="utf-8"?>
<!-- Generator: Adobe Illustrator 16.0.0, SVG Export Plug-In . SVG Version: 6.00 Build 0)  -->
<!DOCTYPE svg PUBLIC "-//W3C//DTD SVG 1.1//EN" "http://www.w3.org/Graphics/SVG/1.1/DTD/svg11.dtd" [
	<!ENTITY ns_extend "http://ns.adobe.com/Extensibility/1.0/">
	<!ENTITY ns_ai "http://ns.adobe.com/AdobeIllustrator/10.0/">
	<!ENTITY ns_graphs "http://ns.adobe.com/Graphs/1.0/">
	<!ENTITY ns_vars "http://ns.adobe.com/Variables/1.0/">
	<!ENTITY ns_imrep "http://ns.adobe.com/ImageReplacement/1.0/">
	<!ENTITY ns_sfw "http://ns.adobe.com/SaveForWeb/1.0/">
	<!ENTITY ns_custom "http://ns.adobe.com/GenericCustomNamespace/1.0/">
	<!ENTITY ns_adobe_xpath "http://ns.adobe.com/XPath/1.0/">
]>
<svg version="1.1" id="Capa_1" xmlns:x="&ns_extend;" xmlns:i="&ns_ai;" xmlns:graph="&ns_graphs;"
	 xmlns="http://www.w3.org/2000/svg" xmlns:xlink="http://www.w3.org/1999/xlink" x="0px" y="0px" width="35px" height="30px"
	 viewBox="0 0 35 30" enable-background="new 0 0 35 30" xml:space="preserve">
<metadata>
	<sfw  xmlns="&ns_sfw;">
		<slices></slices>
		<sliceSourceBounds  width="34.999" height="29.985" y="-29.985" x="0.001" bottomLeftOrigin="true"></sliceSourceBounds>
	</sfw>
</metadata>
<g>
	<path fill="#424242" d="M34.978,6.036c0.059-0.262,0-0.538-0.16-0.755c-0.162-0.217-0.406-0.355-0.676-0.378L5.603,2.399
		L1.392,0.115C0.935-0.133,0.362,0.037,0.116,0.489c-0.25,0.456-0.08,1.024,0.375,1.272l4.071,2.21l4.653,12.477
		c0.008,0.203,0.08,0.388,0.199,0.535l1.172,3.149c0.137,0.366,0.488,0.61,0.883,0.61h19.535c0.441,0,0.823-0.307,0.918-0.738
		l1.611-7.364V12.64L34.978,6.036z M30.989,15.471h-2.661v-2.083h3.115L30.989,15.471z M21.796,7.556V5.701l4.65,0.409v1.447H21.796
		z M26.446,9.431v2.083h-4.65V9.431H26.446z M19.915,5.646v1.911h-4.652V5.128l4.662,0.409C19.921,5.573,19.915,5.609,19.915,5.646z
		 M19.915,9.431v2.083h-4.652V9.431H19.915z M13.382,11.513h-4L8.606,9.431h4.775V11.513z M10.079,13.388h3.303v2.083h-2.525
		L10.079,13.388z M15.263,13.388h4.652v2.083h-4.652V13.388z M19.915,17.346v1.523h-4.652v-1.523H19.915z M21.796,17.346h4.65v1.523
		h-4.65V17.346z M21.796,15.471v-2.083h4.65v2.083H21.796z M28.328,11.513V9.431h3.981l-0.455,2.083H28.328z M32.72,7.556h-4.392
		V6.274l4.583,0.401L32.72,7.556z M13.382,4.962v2.594H8.024c-0.037,0-0.074,0.005-0.113,0.011L6.724,4.379L13.382,4.962z
		 M11.556,17.346h1.826v1.523h-1.258L11.556,17.346z M28.328,18.869v-1.523h2.251l-0.336,1.523H28.328z"/>
	<path fill="#424242" d="M14.321,22.43c-2.092,0-3.795,1.695-3.795,3.778c0,2.084,1.703,3.777,3.795,3.777
		c2.09,0,3.79-1.693,3.79-3.777C18.111,24.125,16.411,22.43,14.321,22.43z M14.321,28.11c-1.055,0-1.91-0.854-1.91-1.902
		s0.855-1.903,1.91-1.903c1.053,0,1.908,0.854,1.908,1.903S15.374,28.11,14.321,28.11z"/>
	<path fill="#424242" d="M28.659,22.43c-2.092,0-3.791,1.695-3.791,3.778c0,2.084,1.699,3.777,3.791,3.777s3.795-1.693,3.795-3.777
		C32.454,24.125,30.751,22.43,28.659,22.43z M28.659,28.11c-1.053,0-1.91-0.854-1.91-1.902s0.857-1.903,1.91-1.903
		s1.91,0.854,1.91,1.903S29.712,28.11,28.659,28.11z"/>
</g>
</svg>
