<?xml version="1.0" encoding="utf-8"?>
<!-- Generator: Adobe Illustrator 16.0.0, SVG Export Plug-In . SVG Version: 6.00 Build 0)  -->
<!DOCTYPE svg PUBLIC "-//W3C//DTD SVG 1.1//EN" "http://www.w3.org/Graphics/SVG/1.1/DTD/svg11.dtd">
<svg version="1.1" id="Capa_1" xmlns="http://www.w3.org/2000/svg" xmlns:xlink="http://www.w3.org/1999/xlink" x="0px" y="0px"
	 width="15px" height="15px" viewBox="0 0 15 15" enable-background="new 0 0 15 15" xml:space="preserve">
<g>
	<g>
		<path fill="#404040" d="M9.918,7.513l4.783-4.779c0.398-0.401,0.398-1.055,0-1.459l-0.976-0.974c-0.401-0.401-1.052-0.401-1.458,0
			l-4.781,4.78l-4.752-4.75c-0.4-0.402-1.053-0.4-1.459-0.001L0.303,1.303c-0.402,0.402-0.402,1.054,0,1.46l4.751,4.75l-4.745,4.741
			c-0.403,0.4-0.402,1.053,0,1.461l0.971,0.973c0.402,0.4,1.055,0.4,1.461,0l4.746-4.742l4.758,4.754c0.398,0.4,1.055,0.4,1.463,0
			l0.971-0.971c0.402-0.402,0.4-1.057,0-1.463L9.918,7.513z M9.918,7.513"/>
	</g>
</g>
</svg>
