<?xml version="1.0" encoding="utf-8"?>
<!-- Generator: Adobe Illustrator 16.0.0, SVG Export Plug-In . SVG Version: 6.00 Build 0)  -->
<!DOCTYPE svg PUBLIC "-//W3C//DTD SVG 1.1//EN" "http://www.w3.org/Graphics/SVG/1.1/DTD/svg11.dtd">
<svg version="1.1" id="Capa_1" xmlns="http://www.w3.org/2000/svg" xmlns:xlink="http://www.w3.org/1999/xlink" x="0px" y="0px"
	 width="27px" height="15px" viewBox="0 0 27 15" enable-background="new 0 0 27 15" xml:space="preserve">
<g>
	<polygon fill="#008894" points="17.104,7.5 22.051,12.975 27,7.5 	"/>
	<g>
		<path fill="#008894" d="M7.422,0c2.39,0,4.32,1.907,4.32,4.251c0,2.347-1.931,4.25-4.32,4.25c-2.383,0-4.312-1.903-4.312-4.25
			C3.109,1.907,5.039,0,7.422,0"/>
		<path fill="#008894" d="M10.787,8.244c-0.893,0.788-2.069,1.27-3.365,1.27c-1.289,0-2.466-0.48-3.357-1.27
			C1.666,9.498,0.023,12.05,0,15h14.846C14.832,12.05,13.181,9.498,10.787,8.244z"/>
	</g>
</g>
</svg>
