<?xml version="1.0" encoding="utf-8"?>
<!-- Generator: Adobe Illustrator 16.0.0, SVG Export Plug-In . SVG Version: 6.00 Build 0)  -->
<!DOCTYPE svg PUBLIC "-//W3C//DTD SVG 1.1//EN" "http://www.w3.org/Graphics/SVG/1.1/DTD/svg11.dtd" [
	<!ENTITY ns_extend "http://ns.adobe.com/Extensibility/1.0/">
	<!ENTITY ns_ai "http://ns.adobe.com/AdobeIllustrator/10.0/">
	<!ENTITY ns_graphs "http://ns.adobe.com/Graphs/1.0/">
	<!ENTITY ns_vars "http://ns.adobe.com/Variables/1.0/">
	<!ENTITY ns_imrep "http://ns.adobe.com/ImageReplacement/1.0/">
	<!ENTITY ns_sfw "http://ns.adobe.com/SaveForWeb/1.0/">
	<!ENTITY ns_custom "http://ns.adobe.com/GenericCustomNamespace/1.0/">
	<!ENTITY ns_adobe_xpath "http://ns.adobe.com/XPath/1.0/">
]>
<svg version="1.1" id="Capa_1" xmlns:x="&ns_extend;" xmlns:i="&ns_ai;" xmlns:graph="&ns_graphs;"
	 xmlns="http://www.w3.org/2000/svg" xmlns:xlink="http://www.w3.org/1999/xlink" x="0px" y="0px" width="202px" height="25px"
	 viewBox="0 0 202 25" enable-background="new 0 0 202 25" xml:space="preserve">
<metadata>
	<sfw  xmlns="&ns_sfw;">
		<slices></slices>
		<sliceSourceBounds  height="25" width="201.916" bottomLeftOrigin="true" x="0.042" y="-25"></sliceSourceBounds>
	</sfw>
</metadata>
<rect x="0.042" fill="#008894" width="201.916" height="25"/>
<g>
	<path fill="#FFFFFF" d="M19.819,8.04c2.549,0,4.613,1.822,4.613,4.498s-2.064,4.422-4.613,4.422h-3.898V8.04H19.819z
		 M19.819,14.959c1.274,0,2.383-0.892,2.383-2.421s-1.108-2.498-2.383-2.498h-1.759v4.919H19.819z"/>
	<path fill="#FFFFFF" d="M32.339,14.959v2.001h-6.563V8.04h6.486v2h-4.345v1.467h3.4v1.872h-3.4v1.58H32.339z"/>
	<path fill="#FFFFFF" d="M38.216,10.868c-0.217-0.789-0.905-1.158-1.542-1.158c-0.638,0-1.007,0.318-1.007,0.675
		c0,0.586,0.893,0.803,1.976,1.198c1.326,0.483,2.714,1.235,2.714,2.765c0,1.631-1.4,2.79-3.478,2.79
		c-1.861,0-3.185-1.031-3.772-2.701l2.053-0.548c0.229,0.676,0.865,1.351,1.809,1.351c0.764,0,1.121-0.356,1.121-0.79
		c0-0.714-1.044-0.892-2.32-1.376c-1.068-0.407-2.305-0.994-2.305-2.561c0-1.39,1.4-2.65,3.338-2.65
		c1.708,0,3.059,1.045,3.479,2.446L38.216,10.868z"/>
	<path fill="#FFFFFF" d="M47.624,10.806c-0.407-0.51-1.173-0.829-1.872-0.829c-1.479,0-2.396,1.058-2.396,2.523
		c0,1.542,1.007,2.497,2.396,2.497c0.853,0,1.669-0.433,2.038-1.045l2.166,0.562c-0.738,1.579-2.332,2.624-4.204,2.624
		c-2.562,0-4.625-1.949-4.625-4.638s2.062-4.638,4.625-4.638c1.758,0,3.263,0.943,4.051,2.369L47.624,10.806z"/>
	<path fill="#FFFFFF" d="M56.128,15.559h-3.53l-0.509,1.401h-2.307l3.568-8.92h2.025l3.567,8.92h-2.306L56.128,15.559z
		 M55.44,13.685l-0.637-1.732c-0.191-0.51-0.422-1.312-0.434-1.312h-0.013c-0.013,0-0.243,0.803-0.434,1.312l-0.638,1.732H55.44z"/>
	<path fill="#FFFFFF" d="M64.581,16.96l-1.656-2.905H61.83v2.905h-2.142V8.04h3.326c2.243,0,3.594,1.224,3.594,3.059
		c0,1.197-0.574,2.09-1.605,2.574l1.975,3.287H64.581z M61.83,12.156h1.478c0.766,0,1.07-0.573,1.07-1.058
		c0-0.485-0.305-1.059-1.07-1.059H61.83V12.156z"/>
	<path fill="#FFFFFF" d="M74.474,16.233c-0.521,0.561-1.542,0.904-2.42,0.904c-2.562,0-4.625-1.949-4.625-4.638
		s2.062-4.638,4.625-4.638c1.732,0,3.25,0.917,4.051,2.369l-2.18,0.574c-0.419-0.51-1.172-0.829-1.871-0.829
		c-1.479,0-2.396,1.058-2.396,2.523c0,1.567,1.059,2.548,2.523,2.548c1.428,0,2.052-0.738,2.307-1.401v-0.013h-2.345v-1.72h4.167
		v5.046h-1.836c0-0.586,0.014-0.714,0.014-0.727H74.474z"/>
	<path fill="#FFFFFF" d="M83.425,15.559h-3.529l-0.511,1.401h-2.306l3.567-8.92h2.025l3.569,8.92h-2.308L83.425,15.559z
		 M82.736,13.685l-0.638-1.732c-0.19-0.51-0.419-1.312-0.434-1.312h-0.012c-0.013,0-0.241,0.803-0.434,1.312l-0.638,1.732H82.736z"
		/>
	<path fill="#FFFFFF" d="M91.877,16.96l-1.656-2.905h-1.096v2.905h-2.142V8.04h3.326c2.244,0,3.595,1.224,3.595,3.059
		c0,1.197-0.575,2.09-1.606,2.574l1.976,3.287H91.877z M89.125,12.156h1.478c0.766,0,1.071-0.573,1.071-1.058
		c0-0.485-0.306-1.059-1.071-1.059h-1.478V12.156z"/>
	<path fill="#FFFFFF" d="M104.792,10.806c-0.408-0.51-1.172-0.829-1.874-0.829c-1.478,0-2.395,1.058-2.395,2.523
		c0,1.542,1.007,2.497,2.395,2.497c0.855,0,1.671-0.433,2.04-1.045l2.166,0.562c-0.74,1.579-2.332,2.624-4.206,2.624
		c-2.561,0-4.625-1.949-4.625-4.638s2.064-4.638,4.625-4.638c1.76,0,3.263,0.943,4.053,2.369L104.792,10.806z"/>
	<path fill="#FFFFFF" d="M114.89,14.959v2.001h-6.563V8.04h6.486v2h-4.345v1.467h3.4v1.872h-3.4v1.58H114.89z"/>
	<path fill="#FFFFFF" d="M121.673,16.96l-1.658-2.905h-1.096v2.905h-2.139V8.04h3.324c2.242,0,3.594,1.224,3.594,3.059
		c0,1.197-0.572,2.09-1.606,2.574l1.976,3.287H121.673z M118.919,12.156h1.479c0.764,0,1.069-0.573,1.069-1.058
		c0-0.485-0.306-1.059-1.069-1.059h-1.479V12.156z"/>
	<path fill="#FFFFFF" d="M132.112,8.04v2h-2.714v6.92h-2.14v-6.92h-2.677v-2H132.112z"/>
	<path fill="#FFFFFF" d="M133.239,16.96V8.04h2.14v8.92H133.239z"/>
	<path fill="#FFFFFF" d="M139.511,10.04v1.747h3.273v1.923h-3.273v3.25h-2.143V8.04h6.358v2H139.511z"/>
	<path fill="#FFFFFF" d="M145.171,16.96V8.04h2.142v8.92H145.171z"/>
	<path fill="#FFFFFF" d="M155.15,10.806c-0.407-0.51-1.173-0.829-1.872-0.829c-1.479,0-2.396,1.058-2.396,2.523
		c0,1.542,1.006,2.497,2.396,2.497c0.853,0,1.668-0.433,2.037-1.045l2.167,0.562c-0.739,1.579-2.332,2.624-4.204,2.624
		c-2.562,0-4.625-1.949-4.625-4.638s2.062-4.638,4.625-4.638c1.758,0,3.262,0.943,4.051,2.369L155.15,10.806z"/>
	<path fill="#FFFFFF" d="M163.655,15.559h-3.529l-0.511,1.401h-2.306l3.567-8.92h2.025l3.569,8.92h-2.308L163.655,15.559z
		 M162.967,13.685l-0.637-1.732c-0.191-0.51-0.419-1.312-0.435-1.312h-0.012c-0.013,0-0.241,0.803-0.434,1.312l-0.637,1.732H162.967
		z"/>
	<path fill="#FFFFFF" d="M171.113,8.04c2.549,0,4.613,1.822,4.613,4.498s-2.064,4.422-4.613,4.422h-3.898V8.04H171.113z
		 M171.113,14.959c1.274,0,2.385-0.892,2.385-2.421s-1.11-2.498-2.385-2.498h-1.757v4.919H171.113z"/>
	<path fill="#FFFFFF" d="M181.441,7.862c2.561,0,4.638,1.949,4.638,4.638s-2.077,4.638-4.638,4.638
		c-2.563,0-4.626-1.949-4.626-4.638S178.878,7.862,181.441,7.862z M181.441,15.023c1.452,0,2.407-1.032,2.407-2.523
		c0-1.503-0.955-2.523-2.407-2.523c-1.44,0-2.397,1.021-2.397,2.523C179.044,13.991,180.001,15.023,181.441,15.023z"/>
</g>
</svg>
