<?xml version="1.0" encoding="utf-8"?>
<!-- Generator: Adobe Illustrator 16.0.0, SVG Export Plug-In . SVG Version: 6.00 Build 0)  -->
<!DOCTYPE svg PUBLIC "-//W3C//DTD SVG 1.1//EN" "http://www.w3.org/Graphics/SVG/1.1/DTD/svg11.dtd" [
	<!ENTITY ns_extend "http://ns.adobe.com/Extensibility/1.0/">
	<!ENTITY ns_ai "http://ns.adobe.com/AdobeIllustrator/10.0/">
	<!ENTITY ns_graphs "http://ns.adobe.com/Graphs/1.0/">
	<!ENTITY ns_vars "http://ns.adobe.com/Variables/1.0/">
	<!ENTITY ns_imrep "http://ns.adobe.com/ImageReplacement/1.0/">
	<!ENTITY ns_sfw "http://ns.adobe.com/SaveForWeb/1.0/">
	<!ENTITY ns_custom "http://ns.adobe.com/GenericCustomNamespace/1.0/">
	<!ENTITY ns_adobe_xpath "http://ns.adobe.com/XPath/1.0/">
]>
<svg version="1.1" id="Capa_1" xmlns:x="&ns_extend;" xmlns:i="&ns_ai;" xmlns:graph="&ns_graphs;"
	 xmlns="http://www.w3.org/2000/svg" xmlns:xlink="http://www.w3.org/1999/xlink" x="0px" y="0px" width="230px" height="230px"
	 viewBox="0 0 230 230" enable-background="new 0 0 230 230" xml:space="preserve">
<metadata>
	<sfw  xmlns="&ns_sfw;">
		<slices></slices>
		<sliceSourceBounds  height="230" width="230" bottomLeftOrigin="true" x="-0.5" y="0.5"></sliceSourceBounds>
	</sfw>
</metadata>
<g>
	<path fill="#008894" d="M44.913,57.228c-1.371,1.051-2.038,2.828-1.673,4.51c0.368,1.685,1.685,3.002,3.378,3.371
		c1.383,0.306,2.669,0.278,6.624-2.758c1.752-1.347,4.348-3.626,6.747-6.794l1.046-1.396c8.977-11.942,29.982-39.909,60.331-38.388
		c25.021,1.816,42.762,20.733,51.291,54.703c0.288,1.151,0.469,1.864,0.668,2.4c1.307,5.557,3.491,12.479,6.635,14.753
		c0.791,0.57,1.694,0.839,2.588,0.839c1.371,0,2.72-0.639,3.588-1.831c1.384-1.921,1.005-4.561-0.801-6.027
		c-0.869-1.126-2.51-5.858-3.479-10.075c-0.057-0.26-0.145-0.505-0.244-0.739c-0.079-0.29-0.235-0.914-0.379-1.484
		c-1.352-5.379-4.94-19.675-13.66-33.131c-11.262-17.369-26.604-26.866-45.625-28.238c-0.032,0-0.057,0-0.09,0
		c-35.054-1.797-58.066,28.83-67.892,41.906l-1.024,1.373c-2.695,3.561-5.865,5.77-6.969,6.416
		C45.606,56.783,45.25,56.983,44.913,57.228L44.913,57.228z"/>
	<path fill="#008894" d="M157.27,82.076c3.334-8.338,3.412-16.957,0.224-23.643c-2.854-5.958-8.162-10.277-15.354-12.476
		c-10.57-3.236-23.381,2.634-35.11,16.092c-0.157,0.157-16.859,17.745-34.397,28.493c-0.123,0.077-12.968,7.788-26.381,11.45
		c-2.353,0.636-3.732,3.069-3.1,5.424c0.635,2.354,3.076,3.75,5.433,3.105c14.58-3.975,28.052-12.068,28.643-12.424
		c19.021-11.663,36.283-30.045,36.437-30.212c7.113-8.169,17.662-16.004,25.878-13.481c4.84,1.488,8.194,4.131,9.979,7.846
		c2.129,4.454,1.963,10.479-0.455,16.529c-4.506,11.26-18.521,24.853-39.469,38.29c-10.506,6.729-36.964,23.27-55.642,31.263
		c-2.252,0.958-3.288,3.56-2.329,5.8c0.714,1.688,2.353,2.692,4.059,2.692c0.58,0,1.171-0.124,1.739-0.358
		c19.289-8.258,46.25-25.099,56.942-31.953C130.277,114.313,150.637,98.679,157.27,82.076L157.27,82.076z"/>
	<path fill="#008894" d="M86.111,49.05c-2.006,2.208-3.802,4.586-5.742,6.852c-2.54,2.969-5.308,5.746-8.217,8.37
		c-2.967,2.692-5.384,4.609-8.899,6.629c-3.724,2.142-7.525,4.308-11.382,6.194c-1.328,0.646-2.463,1.071-3.959,1.521
		c-2.306,0.688-3.732,3.065-3.088,5.432c0.623,2.289,3.122,3.782,5.429,3.091c4.527-1.362,8.619-3.683,12.703-6.003
		c3.441-1.964,6.855-3.728,10.021-6.14c6.177-4.697,11.484-10.174,16.368-16.182c1.985-2.434,4.091-4.742,6.3-6.965
		c1.218-1.215,2.465-2.385,3.735-3.525c0.657-0.592,1.338-1.172,2.018-1.753c0.349-0.288,0.695-0.566,1.052-0.858
		c0.087-0.078,0.778-0.614,0.946-0.758c3.075-2.354,6.354-4.454,9.8-6.229c3.256-1.675,6.522-2.842,10.494-3.669
		c1.313-0.282,1.604-0.314,2.584-0.415c2.397-0.246,4.428-1.82,4.428-4.419c0-2.223-2.029-4.679-4.428-4.421
		C110.298,27.453,96.637,37.442,86.111,49.05L86.111,49.05z"/>
	<path fill="#008894" d="M51.724,133.73c9.601-3.291,58.895-21.716,86.479-60.432c1.416-1.997,0.959-4.754-1.025-6.17
		c-1.986-1.419-4.75-0.962-6.154,1.025c-26.035,36.529-73.009,54.071-82.165,57.208c-0.201,0.065-0.311,0.111-0.356,0.133
		c-2.286,0.861-3.435,3.417-2.564,5.703c0.668,1.764,2.341,2.857,4.125,2.857c0.502,0,1.018-0.09,1.518-0.269L51.724,133.73z"/>
	<path fill="#008894" d="M171.953,160.061c-6.119-2.043-13.613-7.39-20.861-12.545c-10.492-7.488-19.555-13.949-26.938-12.679
		c-5.553,0.96-15.241,7.165-30.539,17.254c-11.036,7.287-23.538,15.535-28.977,16.997c-2.356,0.637-3.76,3.069-3.125,5.424
		c0.536,1.977,2.32,3.27,4.271,3.27c0.381,0,0.758-0.043,1.147-0.145c6.812-1.841,18.821-9.767,31.543-18.158
		c10.272-6.772,23.047-15.211,27.184-15.926c3.744-0.636,12.934,5.904,20.303,11.172c7.783,5.535,15.822,11.271,23.205,13.728
		c2.307,0.78,4.814-0.479,5.586-2.789C175.521,163.341,174.273,160.829,171.953,160.061L171.953,160.061z"/>
	<path fill="#008894" d="M160.893,181.721c-3.557-1.283-9.344-4.863-14.951-8.324c-11.83-7.32-19.346-11.752-24.741-10.826
		c-5.464,0.949-16.925,8.75-36.193,22.824c-2.362,1.729-4.393,3.213-5.808,4.219c-1.985,1.404-2.465,4.162-1.06,6.16
		c0.858,1.218,2.229,1.863,3.614,1.863c0.879,0,1.771-0.257,2.552-0.805c1.461-1.037,3.525-2.545,5.908-4.284
		c7.672-5.604,28.031-20.491,32.447-21.252c2.754-0.188,12.701,5.95,18.643,9.621c6.256,3.873,12.164,7.522,16.592,9.129
		c2.285,0.827,4.816-0.366,5.652-2.655C164.383,185.092,163.191,182.559,160.893,181.721L160.893,181.721z"/>
	<path fill="#008894" d="M145.975,203.707c-2.485-1.617-4.771-3.248-6.979-4.821c-7.25-5.178-13.504-9.653-20.373-8.461
		c-7.734,1.33-20.036,13.728-22.433,16.194c-1.693,1.751-1.65,4.554,0.101,6.251c0.859,0.837,1.974,1.249,3.078,1.249
		c1.159,0,2.307-0.446,3.176-1.35c5.91-6.117,14.316-13.069,17.584-13.627c3.223-0.56,8.105,2.912,13.748,6.94
		c2.164,1.552,4.629,3.315,7.271,5.032c2.039,1.34,4.781,0.761,6.106-1.281C148.596,207.791,148.014,205.045,145.975,203.707
		L145.975,203.707z"/>
	<path fill="#008894" d="M184.855,112.417c-3.691-1.551-7.539-3.192-10.64-5.77c-3.411-2.847-5.006-6.573-5.709-10.879
		c-0.924-5.617-9.442-3.226-8.519,2.353c1.886,11.473,10.324,17.677,20.404,21.939c2.219,0.938,4.705,0.691,6.043-1.586
		C187.541,116.602,187.074,113.364,184.855,112.417L184.855,112.417z"/>
	<path fill="#008894" d="M176.279,135.494c-3.322-1.016-5.842-2.32-9.355-4.396c-6.422-3.793-12.297-9.309-15.141-16.35
		c-0.902-2.231-2.908-3.783-5.439-3.091c-2.119,0.59-3.994,3.202-3.09,5.446c5.273,12.989,17.361,22.811,30.674,26.918
		C179.391,145.706,181.711,137.169,176.279,135.494L176.279,135.494z"/>
	<path fill="#008894" d="M6.923,6.853h42.928V0H0.067v49.83h6.856V6.853z"/>
	<path fill="#008894" d="M180.217,0v6.853h42.938V49.83H230V0H180.217z"/>
	<path fill="#008894" d="M6.846,180.17H0V230h49.784v-6.854H6.846V180.17z"/>
	<path fill="#008894" d="M223.086,223.146H180.15V230h49.781v-49.83h-6.847L223.086,223.146L223.086,223.146z"/>
</g>
<g>
	<g>
		<path fill="#FFFFFF" stroke="#008894" stroke-miterlimit="10" d="M131.369,115.939l31.785-31.791c2.654-2.671,2.654-7.012,0-9.707
			l-6.494-6.479c-2.656-2.664-6.993-2.664-9.691,0L115.189,99.76L83.596,68.166c-2.661-2.67-7.012-2.664-9.711-0.005l-6.474,6.471
			c-2.669,2.671-2.656,7.007,0,9.714l31.601,31.594l-31.558,31.545c-2.673,2.664-2.673,7.006,0,9.707l6.463,6.47
			c2.667,2.663,7.005,2.663,9.716,0l31.557-31.546l31.631,31.635c2.662,2.661,6.999,2.661,9.711,0l6.463-6.477
			c2.668-2.67,2.668-7.014,0-9.713L131.369,115.939z M131.369,115.939"/>
	</g>
</g>
</svg>
