<?xml version="1.0" encoding="utf-8"?>
<!-- Generator: Adobe Illustrator 16.0.0, SVG Export Plug-In . SVG Version: 6.00 Build 0)  -->
<!DOCTYPE svg PUBLIC "-//W3C//DTD SVG 1.1//EN" "http://www.w3.org/Graphics/SVG/1.1/DTD/svg11.dtd" [
	<!ENTITY ns_extend "http://ns.adobe.com/Extensibility/1.0/">
	<!ENTITY ns_ai "http://ns.adobe.com/AdobeIllustrator/10.0/">
	<!ENTITY ns_graphs "http://ns.adobe.com/Graphs/1.0/">
	<!ENTITY ns_vars "http://ns.adobe.com/Variables/1.0/">
	<!ENTITY ns_imrep "http://ns.adobe.com/ImageReplacement/1.0/">
	<!ENTITY ns_sfw "http://ns.adobe.com/SaveForWeb/1.0/">
	<!ENTITY ns_custom "http://ns.adobe.com/GenericCustomNamespace/1.0/">
	<!ENTITY ns_adobe_xpath "http://ns.adobe.com/XPath/1.0/">
]>
<svg version="1.1" id="Capa_1" xmlns:x="&ns_extend;" xmlns:i="&ns_ai;" xmlns:graph="&ns_graphs;"
	 xmlns="http://www.w3.org/2000/svg" xmlns:xlink="http://www.w3.org/1999/xlink" x="0px" y="0px" width="14px" height="20px"
	 viewBox="0 0 14 20" enable-background="new 0 0 14 20" xml:space="preserve">
<metadata>
	<sfw  xmlns="&ns_sfw;">
		<slices></slices>
		<sliceSourceBounds  width="14" height="20" x="0" y="-20" bottomLeftOrigin="true"></sliceSourceBounds>
	</sfw>
</metadata>
<g>
	<path fill="#99989D" d="M14,3.22c0-0.122-0.108-0.221-0.24-0.221H6.099c-0.129,0-0.239,0.1-0.239,0.221v1.271H14V3.22L14,3.22z"/>
	<path fill="#99989D" d="M13.874,6.875l-0.798-1.378h-6.29L5.984,6.875c-0.07,0.154-0.125,0.444-0.125,0.65v10.448
		c0,0.205,0.055,0.496,0.125,0.65l0.49,1.101C6.544,19.876,6.68,20,6.786,20h6.29c0.102,0,0.237-0.124,0.31-0.276l0.488-1.104
		C13.945,18.469,14,18.178,14,17.973V7.526C14,7.318,13.945,7.028,13.874,6.875z M13.411,14.61H6.398V9.83h7.013V14.61z"/>
	<g>
		<path fill="#99989D" d="M1.109,6.062c0.036,0.027,0.053,0.101,0.053,0.202h2.311c0.004-0.101,0.021-0.174,0.054-0.202
			C3.71,5.907,3.833,5.151,3.729,4.81C3.627,4.471,3.403,2.285,3.403,2.285L3.315,1.062c0,0-0.091-1.104-0.981-1.062
			c-0.003,0-0.009,0.002-0.017,0.003C2.313,0.003,2.309,0.001,2.302,0.001C1.415-0.04,1.321,1.062,1.321,1.062L1.233,2.285
			c0,0-0.224,2.186-0.326,2.524C0.804,5.152,0.926,5.908,1.109,6.062z"/>
		<path fill="#99989D" d="M4.203,7.771c-0.329-0.155-0.58-0.708-0.678-1.142H1.111C1.012,7.062,0.765,7.616,0.437,7.771
			C-0.096,8.02,0.008,8.418,0.008,8.576c0,0.158,0,11.424,0,11.424H4.63c0,0,0-11.266,0-11.424C4.63,8.418,4.733,8.02,4.203,7.771z"
			/>
	</g>
</g>
</svg>
