<?xml version="1.0" encoding="utf-8"?>
<!-- Generator: Adobe Illustrator 16.0.0, SVG Export Plug-In . SVG Version: 6.00 Build 0)  -->
<!DOCTYPE svg PUBLIC "-//W3C//DTD SVG 1.1//EN" "http://www.w3.org/Graphics/SVG/1.1/DTD/svg11.dtd" [
	<!ENTITY ns_extend "http://ns.adobe.com/Extensibility/1.0/">
	<!ENTITY ns_ai "http://ns.adobe.com/AdobeIllustrator/10.0/">
	<!ENTITY ns_graphs "http://ns.adobe.com/Graphs/1.0/">
	<!ENTITY ns_vars "http://ns.adobe.com/Variables/1.0/">
	<!ENTITY ns_imrep "http://ns.adobe.com/ImageReplacement/1.0/">
	<!ENTITY ns_sfw "http://ns.adobe.com/SaveForWeb/1.0/">
	<!ENTITY ns_custom "http://ns.adobe.com/GenericCustomNamespace/1.0/">
	<!ENTITY ns_adobe_xpath "http://ns.adobe.com/XPath/1.0/">
]>
<svg version="1.1" id="Capa_1" xmlns:x="&ns_extend;" xmlns:i="&ns_ai;" xmlns:graph="&ns_graphs;"
	 xmlns="http://www.w3.org/2000/svg" xmlns:xlink="http://www.w3.org/1999/xlink" x="0px" y="0px" width="204px" height="264px"
	 viewBox="0 0 204 264" enable-background="new 0 0 204 264" xml:space="preserve">
<metadata>
	<sfw  xmlns="&ns_sfw;">
		<slices></slices>
		<sliceSourceBounds  width="203.098" height="263.722" x="0" y="-263.86" bottomLeftOrigin="true"></sliceSourceBounds>
	</sfw>
</metadata>
<g>
	<path fill="#E8E9EB" d="M48.602,97.23c56.655,0,51.517,0,108.181,0c14.219,0,14.219-14.634,0-14.634c-56.664,0-51.525,0-108.181,0
		C34.374,82.596,34.374,97.23,48.602,97.23z"/>
	<path fill="#E8E9EB" d="M156.782,123.083c-56.664,0-51.525,0-108.181,0c-14.228,0-14.228,14.633,0,14.633
		c56.655,0,51.517,0,108.181,0C171.001,137.716,171.001,123.083,156.782,123.083z"/>
	<path fill="#E8E9EB" d="M156.782,161.026c-56.664,0-51.525,0-108.181,0c-14.228,0-14.228,14.632,0,14.632
		c56.655,0,51.517,0,108.181,0C171.001,175.658,171.001,161.026,156.782,161.026z"/>
	<path fill="#E8E9EB" d="M156.782,201.505c-56.664,0-51.525,0-108.181,0c-14.228,0-14.228,14.634,0,14.634
		c56.655,0,51.517,0,108.181,0C171.001,216.139,171.001,201.505,156.782,201.505z"/>
	<path fill="#E8E9EB" d="M165.361,0.139H0V263.86h203.098V36.726L165.361,0.139z M185.538,246.295H17.56V17.698h138.76v27.859
		h29.219V246.295L185.538,246.295z"/>
</g>
</svg>
