<?xml version="1.0" encoding="utf-8"?>
<!-- Generator: Adobe Illustrator 16.0.0, SVG Export Plug-In . SVG Version: 6.00 Build 0)  -->
<!DOCTYPE svg PUBLIC "-//W3C//DTD SVG 1.1//EN" "http://www.w3.org/Graphics/SVG/1.1/DTD/svg11.dtd" [
	<!ENTITY ns_extend "http://ns.adobe.com/Extensibility/1.0/">
	<!ENTITY ns_ai "http://ns.adobe.com/AdobeIllustrator/10.0/">
	<!ENTITY ns_graphs "http://ns.adobe.com/Graphs/1.0/">
	<!ENTITY ns_vars "http://ns.adobe.com/Variables/1.0/">
	<!ENTITY ns_imrep "http://ns.adobe.com/ImageReplacement/1.0/">
	<!ENTITY ns_sfw "http://ns.adobe.com/SaveForWeb/1.0/">
	<!ENTITY ns_custom "http://ns.adobe.com/GenericCustomNamespace/1.0/">
	<!ENTITY ns_adobe_xpath "http://ns.adobe.com/XPath/1.0/">
]>
<svg version="1.1" id="Capa_1" xmlns:x="&ns_extend;" xmlns:i="&ns_ai;" xmlns:graph="&ns_graphs;"
	 xmlns="http://www.w3.org/2000/svg" xmlns:xlink="http://www.w3.org/1999/xlink" x="0px" y="0px" width="16px" height="14px"
	 viewBox="0 0 16 14" enable-background="new 0 0 16 14" xml:space="preserve">
<metadata>
	<sfw  xmlns="&ns_sfw;">
		<slices></slices>
		<sliceSourceBounds  width="15.971" height="14.004" bottomLeftOrigin="true" y="-14" x="-0.001"></sliceSourceBounds>
	</sfw>
</metadata>
<g>
	<g>
		<path fill="#DE0209" d="M15.52,10.028l-5.244-8.758C9.802,0.482,8.928-0.004,7.981-0.004c-0.943,0-1.816,0.487-2.29,1.275
			l-5.339,8.907c-0.471,0.788-0.471,1.761,0,2.547C0.825,13.515,1.698,14,2.645,14h10.68c1.463,0,2.646-1.14,2.646-2.549
			C15.971,10.925,15.802,10.433,15.52,10.028L15.52,10.028z M9.115,10.88c0,0.603-0.483,1.064-1.13,1.064
			c-0.649,0-1.131-0.462-1.131-1.064v-0.023c0-0.602,0.482-1.064,1.131-1.064c0.647,0,1.13,0.461,1.13,1.064V10.88z M9.142,3.71
			l-0.56,4.704c-0.037,0.339-0.27,0.55-0.597,0.55c-0.325,0-0.558-0.213-0.598-0.55L6.829,3.708C6.792,3.344,6.996,3.07,7.349,3.07
			h1.269C8.971,3.072,9.179,3.346,9.142,3.71L9.142,3.71z M9.142,3.71"/>
	</g>
</g>
</svg>
