<?xml version="1.0" encoding="utf-8"?>
<!-- Generator: Adobe Illustrator 16.0.0, SVG Export Plug-In . SVG Version: 6.00 Build 0)  -->
<!DOCTYPE svg PUBLIC "-//W3C//DTD SVG 1.1//EN" "http://www.w3.org/Graphics/SVG/1.1/DTD/svg11.dtd" [
	<!ENTITY ns_extend "http://ns.adobe.com/Extensibility/1.0/">
	<!ENTITY ns_ai "http://ns.adobe.com/AdobeIllustrator/10.0/">
	<!ENTITY ns_graphs "http://ns.adobe.com/Graphs/1.0/">
	<!ENTITY ns_vars "http://ns.adobe.com/Variables/1.0/">
	<!ENTITY ns_imrep "http://ns.adobe.com/ImageReplacement/1.0/">
	<!ENTITY ns_sfw "http://ns.adobe.com/SaveForWeb/1.0/">
	<!ENTITY ns_custom "http://ns.adobe.com/GenericCustomNamespace/1.0/">
	<!ENTITY ns_adobe_xpath "http://ns.adobe.com/XPath/1.0/">
]>
<svg version="1.1" id="Capa_1" xmlns:x="&ns_extend;" xmlns:i="&ns_ai;" xmlns:graph="&ns_graphs;"
	 xmlns="http://www.w3.org/2000/svg" xmlns:xlink="http://www.w3.org/1999/xlink" x="0px" y="0px" width="22px" height="32px"
	 viewBox="0 0 22 32" enable-background="new 0 0 22 32" xml:space="preserve">
<metadata>
	<sfw  xmlns="&ns_sfw;">
		<slices></slices>
		<sliceSourceBounds  width="22" height="32" bottomLeftOrigin="true" y="-32" x="0"></sliceSourceBounds>
	</sfw>
</metadata>
<g>
	<rect fill="#008894" width="22" height="32"/>
</g>
<g>
	<path fill="#FFFFFF" d="M9.816,24.856v-2.124c-1.498-0.066-2.952-0.468-3.8-0.961l0.669-2.614c0.938,0.514,2.258,0.983,3.71,0.983
		c1.274,0,2.145-0.492,2.145-1.386c0-0.85-0.715-1.386-2.369-1.945c-2.391-0.804-4.023-1.921-4.023-4.089
		c0-1.967,1.386-3.51,3.777-3.979V6.619h2.19v1.966c1.497,0.067,2.504,0.38,3.242,0.738l-0.648,2.526
		c-0.581-0.247-1.61-0.761-3.218-0.761c-1.455,0-1.923,0.626-1.923,1.251c0,0.738,0.781,1.207,2.681,1.922
		c2.66,0.939,3.733,2.168,3.733,4.18c0,1.988-1.408,3.688-3.978,4.135v2.279H9.816z"/>
</g>
</svg>
