<?xml version="1.0" encoding="utf-8"?>
<!-- Generator: Adobe Illustrator 16.0.0, SVG Export Plug-In . SVG Version: 6.00 Build 0)  -->
<!DOCTYPE svg PUBLIC "-//W3C//DTD SVG 1.1//EN" "http://www.w3.org/Graphics/SVG/1.1/DTD/svg11.dtd" [
	<!ENTITY ns_extend "http://ns.adobe.com/Extensibility/1.0/">
	<!ENTITY ns_ai "http://ns.adobe.com/AdobeIllustrator/10.0/">
	<!ENTITY ns_graphs "http://ns.adobe.com/Graphs/1.0/">
	<!ENTITY ns_vars "http://ns.adobe.com/Variables/1.0/">
	<!ENTITY ns_imrep "http://ns.adobe.com/ImageReplacement/1.0/">
	<!ENTITY ns_sfw "http://ns.adobe.com/SaveForWeb/1.0/">
	<!ENTITY ns_custom "http://ns.adobe.com/GenericCustomNamespace/1.0/">
	<!ENTITY ns_adobe_xpath "http://ns.adobe.com/XPath/1.0/">
]>
<svg version="1.1" id="Capa_1" xmlns:x="&ns_extend;" xmlns:i="&ns_ai;" xmlns:graph="&ns_graphs;"
	 xmlns="http://www.w3.org/2000/svg" xmlns:xlink="http://www.w3.org/1999/xlink" x="0px" y="0px" width="20px" height="20px"
	 viewBox="0 0 20 20" enable-background="new 0 0 20 20" xml:space="preserve">
<metadata>
	<sfw  xmlns="&ns_sfw;">
		<slices></slices>
		<sliceSourceBounds  width="20" height="19.999" y="-19.999" x="0" bottomLeftOrigin="true"></sliceSourceBounds>
	</sfw>
</metadata>
<g>
	<g>
		<path fill="#AF0053" d="M6.105,8.123v1.348h2.531v1.488H6.105v2.511H4.451V6.577h4.914v1.546H6.105z"/>
		<path fill="#AF0053" d="M15.547,11.924v1.546h-5.07V6.577h5.012v1.546h-3.357v1.133h2.629v1.446h-2.629v1.222H15.547z"/>
	</g>
	<path fill="#AF0053" d="M9.998,0C4.477,0,0,4.478,0,10c0,5.523,4.477,9.999,9.998,9.999C15.521,19.999,20,15.523,20,10
		C20,4.478,15.521,0,9.998,0z M9.998,17.961c-4.395,0-7.959-3.563-7.959-7.961c0-4.396,3.564-7.959,7.959-7.959
		c4.396,0,7.961,3.563,7.961,7.959C17.959,14.397,14.395,17.961,9.998,17.961z"/>
</g>
</svg>
