<?xml version="1.0" encoding="utf-8"?>
<!-- Generator: Adobe Illustrator 16.0.0, SVG Export Plug-In . SVG Version: 6.00 Build 0)  -->
<!DOCTYPE svg PUBLIC "-//W3C//DTD SVG 1.1//EN" "http://www.w3.org/Graphics/SVG/1.1/DTD/svg11.dtd" [
	<!ENTITY ns_extend "http://ns.adobe.com/Extensibility/1.0/">
	<!ENTITY ns_ai "http://ns.adobe.com/AdobeIllustrator/10.0/">
	<!ENTITY ns_graphs "http://ns.adobe.com/Graphs/1.0/">
	<!ENTITY ns_vars "http://ns.adobe.com/Variables/1.0/">
	<!ENTITY ns_imrep "http://ns.adobe.com/ImageReplacement/1.0/">
	<!ENTITY ns_sfw "http://ns.adobe.com/SaveForWeb/1.0/">
	<!ENTITY ns_custom "http://ns.adobe.com/GenericCustomNamespace/1.0/">
	<!ENTITY ns_adobe_xpath "http://ns.adobe.com/XPath/1.0/">
]>
<svg version="1.1" id="Capa_1" xmlns:x="&ns_extend;" xmlns:i="&ns_ai;" xmlns:graph="&ns_graphs;"
	 xmlns="http://www.w3.org/2000/svg" xmlns:xlink="http://www.w3.org/1999/xlink" x="0px" y="0px" width="35px" height="35px"
	 viewBox="0 0 35 35" enable-background="new 0 0 35 35" xml:space="preserve">
<metadata>
	<sfw  xmlns="&ns_sfw;">
		<slices></slices>
		<sliceSourceBounds  width="35" height="34.997" y="0.002" x="0" bottomLeftOrigin="true"></sliceSourceBounds>
	</sfw>
</metadata>
<g>
	<g>
		<path fill="#FFFFFF" d="M18.118,10.253c3.563,0,5.715,1.864,5.715,4.971c0,3.104-2.151,4.967-5.715,4.967H16.07v4.557h-3.478
			V10.253H18.118z M18.059,16.942c1.346,0,2.151-0.643,2.151-1.718c0-1.078-0.806-1.72-2.151-1.72H16.07v3.438H18.059z"/>
	</g>
	<path fill="#FFFFFF" d="M17.498,0.001C7.836,0.001,0,7.835,0,17.5c0,9.664,7.836,17.498,17.498,17.498
		C27.164,34.998,35,27.164,35,17.5C35,7.835,27.164,0.001,17.498,0.001z M17.498,31.428C9.805,31.428,3.57,25.193,3.57,17.5
		c0-7.691,6.234-13.93,13.928-13.93c7.691,0,13.932,6.238,13.932,13.93C31.43,25.193,25.189,31.428,17.498,31.428z"/>
</g>
</svg>
