<?xml version="1.0" encoding="utf-8"?>
<!-- Generator: Adobe Illustrator 16.0.0, SVG Export Plug-In . SVG Version: 6.00 Build 0)  -->
<!DOCTYPE svg PUBLIC "-//W3C//DTD SVG 1.1//EN" "http://www.w3.org/Graphics/SVG/1.1/DTD/svg11.dtd" [
	<!ENTITY ns_extend "http://ns.adobe.com/Extensibility/1.0/">
	<!ENTITY ns_ai "http://ns.adobe.com/AdobeIllustrator/10.0/">
	<!ENTITY ns_graphs "http://ns.adobe.com/Graphs/1.0/">
	<!ENTITY ns_vars "http://ns.adobe.com/Variables/1.0/">
	<!ENTITY ns_imrep "http://ns.adobe.com/ImageReplacement/1.0/">
	<!ENTITY ns_sfw "http://ns.adobe.com/SaveForWeb/1.0/">
	<!ENTITY ns_custom "http://ns.adobe.com/GenericCustomNamespace/1.0/">
	<!ENTITY ns_adobe_xpath "http://ns.adobe.com/XPath/1.0/">
]>
<svg version="1.1" id="Capa_1" xmlns:x="&ns_extend;" xmlns:i="&ns_ai;" xmlns:graph="&ns_graphs;"
	 xmlns="http://www.w3.org/2000/svg" xmlns:xlink="http://www.w3.org/1999/xlink" x="0px" y="0px" width="20px" height="20px"
	 viewBox="0 0 20 20" enable-background="new 0 0 20 20" xml:space="preserve">
<metadata>
	<sfw  xmlns="&ns_sfw;">
		<slices></slices>
		<sliceSourceBounds  width="20" height="19.998" y="-19.999" x="0" bottomLeftOrigin="true"></sliceSourceBounds>
	</sfw>
</metadata>
<g>
	<g>
		<path fill="#0098D8" d="M10.354,5.859c2.035,0,3.266,1.065,3.266,2.839s-1.23,2.839-3.266,2.839h-1.17v2.604H7.195V5.859H10.354z
			 M10.318,9.681c0.77,0,1.23-0.367,1.23-0.982s-0.461-0.982-1.23-0.982H9.184v1.965H10.318z"/>
	</g>
	<path fill="#0098D8" d="M9.998,0.001C4.479,0.001,0,4.477,0,10c0,5.521,4.479,9.999,9.998,9.999C15.521,19.999,20,15.521,20,10
		C20,4.477,15.521,0.001,9.998,0.001z M9.998,17.958c-4.395,0-7.957-3.562-7.957-7.958c0-4.396,3.562-7.959,7.957-7.959
		c4.396,0,7.961,3.563,7.961,7.959C17.959,14.396,14.395,17.958,9.998,17.958z"/>
</g>
</svg>
