<?xml version="1.0" encoding="utf-8"?>
<!-- Generator: Adobe Illustrator 16.0.0, SVG Export Plug-In . SVG Version: 6.00 Build 0)  -->
<!DOCTYPE svg PUBLIC "-//W3C//DTD SVG 1.1//EN" "http://www.w3.org/Graphics/SVG/1.1/DTD/svg11.dtd" [
	<!ENTITY ns_extend "http://ns.adobe.com/Extensibility/1.0/">
	<!ENTITY ns_ai "http://ns.adobe.com/AdobeIllustrator/10.0/">
	<!ENTITY ns_graphs "http://ns.adobe.com/Graphs/1.0/">
	<!ENTITY ns_vars "http://ns.adobe.com/Variables/1.0/">
	<!ENTITY ns_imrep "http://ns.adobe.com/ImageReplacement/1.0/">
	<!ENTITY ns_sfw "http://ns.adobe.com/SaveForWeb/1.0/">
	<!ENTITY ns_custom "http://ns.adobe.com/GenericCustomNamespace/1.0/">
	<!ENTITY ns_adobe_xpath "http://ns.adobe.com/XPath/1.0/">
]>
<svg version="1.1" id="Capa_1" xmlns:x="&ns_extend;" xmlns:i="&ns_ai;" xmlns:graph="&ns_graphs;"
	 xmlns="http://www.w3.org/2000/svg" xmlns:xlink="http://www.w3.org/1999/xlink" x="0px" y="0px" width="20px" height="20px"
	 viewBox="0 0 20 20" enable-background="new 0 0 20 20" xml:space="preserve">
<metadata>
	<sfw  xmlns="&ns_sfw;">
		<slices></slices>
		<sliceSourceBounds  width="20" height="19.999" y="-19.999" x="0" bottomLeftOrigin="true"></sliceSourceBounds>
	</sfw>
</metadata>
<g>
	<g>
		<path fill="#008894" d="M11.403,8.143c-0.203-0.747-0.854-1.096-1.46-1.096c-0.602,0-0.949,0.301-0.949,0.639
			c0,0.553,0.844,0.759,1.867,1.133c1.253,0.458,2.566,1.17,2.566,2.615c0,1.543-1.324,2.64-3.29,2.64
			c-1.758,0-3.013-0.977-3.567-2.555l1.94-0.519c0.218,0.639,0.82,1.277,1.713,1.277c0.722,0,1.06-0.337,1.06-0.746
			c0-0.676-0.988-0.845-2.192-1.302C8.078,9.841,6.908,9.287,6.908,7.806c0-1.313,1.324-2.507,3.157-2.507
			c1.616,0,2.892,0.988,3.291,2.314L11.403,8.143z"/>
	</g>
	<path fill="#008894" d="M9.998,0C4.479,0,0,4.477,0,10c0,5.522,4.479,9.999,9.998,9.999C15.521,19.999,20,15.522,20,10
		C20,4.477,15.521,0,9.998,0z M9.998,17.958c-4.395,0-7.959-3.561-7.959-7.958c0-4.396,3.564-7.96,7.959-7.96
		c4.397,0,7.961,3.563,7.961,7.96C17.959,14.397,14.396,17.958,9.998,17.958z"/>
</g>
</svg>
