<?xml version="1.0" encoding="utf-8"?>
<!-- Generator: Adobe Illustrator 16.0.0, SVG Export Plug-In . SVG Version: 6.00 Build 0)  -->
<!DOCTYPE svg PUBLIC "-//W3C//DTD SVG 1.1//EN" "http://www.w3.org/Graphics/SVG/1.1/DTD/svg11.dtd" [
	<!ENTITY ns_extend "http://ns.adobe.com/Extensibility/1.0/">
	<!ENTITY ns_ai "http://ns.adobe.com/AdobeIllustrator/10.0/">
	<!ENTITY ns_graphs "http://ns.adobe.com/Graphs/1.0/">
	<!ENTITY ns_vars "http://ns.adobe.com/Variables/1.0/">
	<!ENTITY ns_imrep "http://ns.adobe.com/ImageReplacement/1.0/">
	<!ENTITY ns_sfw "http://ns.adobe.com/SaveForWeb/1.0/">
	<!ENTITY ns_custom "http://ns.adobe.com/GenericCustomNamespace/1.0/">
	<!ENTITY ns_adobe_xpath "http://ns.adobe.com/XPath/1.0/">
]>
<svg version="1.1" id="Capa_1" xmlns:x="&ns_extend;" xmlns:i="&ns_ai;" xmlns:graph="&ns_graphs;"
	 xmlns="http://www.w3.org/2000/svg" xmlns:xlink="http://www.w3.org/1999/xlink" x="0px" y="0px" width="20.029px"
	 height="20.029px" viewBox="0 0 20.029 20.029" enable-background="new 0 0 20.029 20.029" xml:space="preserve">
<metadata>
	<sfw  xmlns="&ns_sfw;">
		<slices></slices>
		<sliceSourceBounds  width="19.96" height="19.96" y="13.04" x="67" bottomLeftOrigin="true"></sliceSourceBounds>
	</sfw>
</metadata>
<g>
	<g>
		<path fill="#4A72AF" d="M19.041,6.814c-0.165,0.023-0.096-0.13-0.212-0.172c-0.11-0.041-0.055,0.119-0.104,0.167
			c-0.029,0.026-0.043,0.026-0.064,0.026c-0.013-0.002-0.028-0.002-0.055,0.011c-0.058,0.028,0.029,0.083,0.029,0.083
			c0.087,0,0.097,0.047,0.154,0.114c0.062,0.066,0.046,0.018,0.182-0.04c0.137-0.054,0.104,0.092,0.222,0.119
			c0.117,0.026,0.111-0.082,0.244-0.169c0.022-0.011,0.035-0.019,0.051-0.021c-0.035-0.105-0.072-0.213-0.11-0.315
			c-0.011,0.023-0.024,0.048-0.034,0.066C19.281,6.777,19.206,6.794,19.041,6.814z"/>
	</g>
	<g>
		<path fill="#4A72AF" d="M14.409,1.368c0.053-0.038,0.163-0.131,0.262-0.198c-0.03-0.019-0.06-0.035-0.092-0.05
			C14.454,1.269,14.316,1.426,14.409,1.368z"/>
	</g>
	<g>
		<path fill="#4A72AF" d="M13.23,1.021c0.046,0.042,0.133-0.013,0.281-0.026c0.15-0.013,0.685-0.059,0.657,0
			c-0.026,0.062-0.32,0.129-0.195,0.124c0.111-0.001,0.226-0.09,0.341-0.132c-0.053-0.025-0.107-0.048-0.157-0.076
			c-0.03,0.003-0.053,0.006-0.078,0.003C13.924,0.907,13.187,0.974,13.23,1.021z"/>
	</g>
	<g>
		<path fill="#4A72AF" d="M19.882,11.233c-0.165,1.282-0.574,2.488-1.179,3.569c-0.088-0.119-0.258-0.19-0.173-0.273
			c0.096-0.087,0-0.253,0.077-0.325c0.084-0.076,0.058-0.174-0.029-0.241c-0.091-0.071-0.217-0.108-0.327-0.067
			c-0.111,0.042-0.146-0.006-0.166-0.096c-0.019-0.088-0.152-0.186-0.454-0.143c-0.166,0.057-0.106,0.085-0.296,0.113
			c-0.186,0.025-0.05,0.125-0.279,0.049c-0.229-0.078-0.353,0.012-0.471,0.048c-0.119,0.034-0.233,0.052-0.368-0.125
			c-0.133-0.177-0.165-0.122-0.25-0.169c-0.083-0.046-0.122-0.026-0.185-0.253c-0.062-0.226-0.188-0.132-0.266-0.271
			c-0.078-0.142-0.174-0.072-0.174-0.193c0-0.116-0.03-0.24,0.021-0.332c0.052-0.095,0.011-0.167,0.059-0.236
			c0.048-0.071,0.017-0.316-0.042-0.394c-0.06-0.077-0.039-0.204,0.024-0.309c0.062-0.101,0.201-0.415,0.318-0.512
			c0.119-0.096,0.049-0.151,0.189-0.184c0.141-0.035,0.325-0.169,0.315-0.297c-0.013-0.13,0.076-0.434,0.251-0.443
			c0.178-0.008,0.185-0.325,0.257-0.299c0.074,0.026,0.052,0.091,0.154,0.076c0.099-0.014,0.164-0.03,0.242,0.022
			c0.041,0.029,0.086-0.042,0.178-0.113c0.083-0.06,0.193-0.122,0.368-0.122c0.375,0.004,0.31,0.041,0.431-0.013
			c0.12-0.05,0.232-0.027,0.303,0.009c0.029,0.017,0.084,0,0.137-0.016c0.039-0.012,0.075-0.02,0.106-0.02
			c0.027,0,0.047,0.007,0.057,0.031c0.033,0.094-0.012,0.101,0.003,0.146c0.016,0.044,0.111,0.052,0.009,0.167
			c-0.104,0.118-0.089,0.106,0.023,0.143c0.109,0.039,0.109,0.138,0.238,0.101c0.129-0.037,0.262,0.021,0.34,0.175
			c0.045,0.089,0.087,0.076,0.136,0.061c0.039-0.012,0.082-0.024,0.137,0.009c0.129,0.077,0.214,0.135,0.253,0.047
			c0.038-0.089-0.09-0.112,0.029-0.209c0.027-0.019,0.053-0.042,0.079-0.062c0.001-0.103,0.002-0.204,0.002-0.305
			c0-0.195-0.005-0.391-0.017-0.585c-0.029-0.042-0.06-0.081-0.068-0.119c-0.02-0.065-0.086-0.039-0.08-0.16
			c0.007-0.118,0.049-0.118,0.002-0.146c-0.048-0.033-0.181-0.108-0.266-0.159c-0.085-0.049-0.132-0.064-0.196-0.121
			S19.293,8.6,19.24,8.537c-0.051-0.059-0.055-0.106-0.09-0.058c-0.033,0.051-0.043,0.085-0.063,0.022
			c-0.024-0.066-0.03-0.144-0.068-0.113c-0.035,0.034-0.091,0.003-0.091,0.065c0,0.066-0.074,0.08,0.025,0.156
			c0.102,0.076,0.122,0.088,0.148,0.155c0.027,0.064,0.06,0.115,0.113,0.143c0.053,0.031,0.195,0.048,0.178,0.074
			c-0.014,0.027-0.056,0.034-0.002,0.055c0.052,0.021,0.26,0.13,0.275,0.176c0.017,0.045,0.023,0.073-0.013,0.049
			c-0.039-0.025-0.058-0.06-0.101-0.07c-0.044-0.007-0.067-0.065-0.09-0.003c-0.021,0.058-0.048,0.055-0.001,0.102
			c0.047,0.051,0.092,0.05,0.068,0.085c-0.023,0.037-0.032,0.053-0.068,0.062c-0.031,0.014-0.048,0.035-0.069,0.069
			c-0.021,0.033-0.02,0.051-0.044,0.045c-0.023-0.005-0.053-0.039-0.058-0.001c-0.008,0.038,0.017,0.062-0.007,0.108
			c-0.024,0.046-0.053,0.065-0.092,0.037c-0.041-0.028-0.046-0.048-0.085-0.054c-0.038-0.006-0.059-0.017-0.092-0.035
			c-0.035-0.018-0.115-0.02-0.08-0.068c0.035-0.044,0.072-0.04,0.13-0.031c0.06,0.012,0.108,0.029,0.142,0.009
			C19.231,9.5,19.236,9.5,19.246,9.503c0.008,0,0.018,0,0.029-0.002c0.041-0.005,0.041,0.01,0.073-0.031
			c0.035-0.045,0.025-0.035,0.026-0.108c0.002-0.08,0.011-0.092-0.04-0.123c-0.051-0.033-0.132-0.13-0.293-0.181
			c-0.159-0.049-0.288-0.225-0.341-0.319c-0.055-0.1-0.159-0.181-0.231-0.133c-0.075,0.049-0.188,0.178-0.291,0.172
			c-0.102-0.012-0.307-0.08-0.357-0.006c-0.053,0.076-0.217,0.298-0.285,0.317c-0.072,0.024-0.192,0.195-0.147,0.269
			c0.047,0.077,0.004,0.101-0.054,0.157c-0.056,0.052-0.12,0.114-0.157,0.16c-0.038,0.044-0.031,0.054-0.129,0.04
			C16.946,9.7,16.824,9.711,16.79,9.756c-0.031,0.043-0.049,0.1-0.099,0.056c-0.052-0.042-0.043-0.101-0.104-0.131
			c-0.037-0.02-0.075-0.014-0.114-0.008c-0.023,0.001-0.049,0.007-0.075,0.005c-0.071-0.005-0.107-0.011-0.078-0.114
			c0.031-0.107-0.117-0.136-0.058-0.217c0.058-0.08,0.058-0.141,0.081-0.236c0.016-0.096-0.091-0.18-0.026-0.273
			c0.068-0.094,0.038-0.143,0.14-0.139c0.098,0.008,0.1,0.06,0.22,0.034c0.116-0.028,0.185-0.015,0.269,0.004
			c0.087,0.014,0.176,0.062,0.252-0.012c0.075-0.071,0.079-0.311,0.045-0.396c-0.029-0.085-0.077-0.104-0.107-0.161
			c-0.03-0.054-0.058-0.065-0.126-0.074c-0.017,0-0.035,0-0.052,0c-0.047,0-0.089,0-0.104-0.047
			c-0.018-0.063-0.006-0.131,0.06-0.141c0.064-0.009,0.051-0.017,0.149,0c0.098,0.016,0.127,0.01,0.141-0.048
			c0.016-0.06-0.03-0.074,0.045-0.066c0.074,0.004,0.113,0.037,0.176,0c0,0,0.131-0.049,0.183-0.139
			c0.049-0.091,0.039-0.073,0.111-0.104c0.076-0.028,0.098-0.041,0.158-0.091c0.062-0.052-0.013,0.007,0.065-0.099
			c0.082-0.107,0.117-0.202,0.208-0.202c0.093,0,0.067,0.013,0.119-0.012c0.051-0.027,0.038-0.037,0.098-0.026
			c0.06,0.01,0.063,0.061,0.094-0.037c0.03-0.099,0.001-0.111,0.03-0.151c0.033-0.041-0.117-0.063-0.097-0.244
			c0.019-0.181,0.019-0.135,0.133-0.196c0.112-0.064,0.158-0.11,0.206-0.061c0.05,0.052,0.079,0.138,0.083,0.073
			c0.006-0.062-0.111-0.119-0.067-0.186c0.041-0.066,0.093-0.059,0.037-0.129c-0.058-0.067-0.058-0.171-0.097-0.092
			c-0.036,0.076-0.049,0.068-0.099,0.094c-0.053,0.031-0.094,0.099-0.153,0.133c-0.06,0.035-0.078,0.101-0.173,0.034
			c-0.094-0.071-0.232-0.071-0.186-0.128c0.045-0.059,0.086-0.059,0.054-0.088c-0.015-0.012-0.033-0.009-0.05-0.005
			c-0.021,0-0.034,0.002-0.032-0.021c0.007-0.047,0.042-0.018,0.038-0.061c-0.003-0.042-0.084-0.05-0.045-0.084
			c0.042-0.038,0.104-0.054,0.054-0.083c-0.054-0.028-0.127-0.028-0.065-0.155c0.061-0.125,0.002-0.115,0.136-0.184
			c0.132-0.069,0.114-0.076,0.223-0.141c0.1-0.061,0.217-0.13,0.338-0.235c-0.837-1.515-2.054-2.79-3.523-3.697
			c-0.074,0.009-0.141,0.006-0.189-0.007c-0.078-0.023-0.138,0-0.137,0.047c0.003,0.052-0.017,0.024,0.09,0.006
			c0.11-0.018,0.279-0.047,0.246,0.012c-0.036,0.06-0.06,0.083-0.151,0.087c-0.089,0.004-0.156,0-0.117,0.054
			c0.039,0.052,0.167,0.076,0.085,0.096c-0.078,0.021-0.024,0.064-0.104,0.078c-0.079,0.016-0.11,0.008-0.144,0.102
			c-0.03,0.091-0.13,0.187-0.054,0.171c0.069-0.014,0.073-0.05,0.156-0.016c0.08,0.034,0.233,0.078,0.112,0.076
			c-0.12,0-0.213-0.021-0.117,0.021c0.093,0.04,0.138-0.01,0.202,0.05c0.06,0.059,0.19,0.146,0.046,0.147
			c-0.145,0-0.24-0.054-0.317,0.001c-0.08,0.047-0.168,0.096-0.08,0.125c0.089,0.029,0.265,0.034,0.207,0.058
			c-0.054,0.027-0.128,0.021-0.067,0.05c0.06,0.03,0.214,0.103,0.112,0.138c-0.047,0.015-0.085,0.002-0.117-0.007
			c-0.035-0.012-0.056-0.022-0.059,0.003c-0.005,0.051-0.029,0.095,0.035,0.125c0.064,0.029,0.264,0.103,0.163,0.117
			c-0.103,0.012-0.119,0.023-0.163-0.015c-0.043-0.035-0.11-0.067-0.133-0.011c-0.021,0.057-0.085,0.086,0.013,0.102
			c0.099,0.017,0.202,0.069,0.141,0.104c-0.06,0.039-0.19,0.127-0.266,0.076c-0.075-0.051-0.16-0.129-0.217-0.088
			c-0.058,0.043-0.199,0.077-0.148,0.13c0.05,0.051,0.012,0.061,0.122,0.124c0.112,0.062,0.253,0.129,0.273,0.21
			c0.021,0.08,0.104-0.013,0.089,0.105c-0.012,0.111-0.01,0.176-0.112,0.161c-0.099-0.013-0.161-0.042-0.216-0.113
			c-0.053-0.068-0.048-0.132-0.127-0.08c-0.078,0.056-0.143,0.046-0.236,0.088c-0.094,0.04-0.28,0.074-0.122,0.115
			c0.089,0.026,0.137,0.018,0.195,0.014c0.042-0.006,0.087-0.014,0.159-0.006c0.167,0.016,0.395,0.026,0.333,0.092
			c-0.056,0.061-0.112,0.152-0.229,0.173c-0.119,0.016-0.25,0.135-0.445,0.146c-0.196,0.009-0.255,0.083-0.394,0.086
			c-0.139,0.001-0.176,0.109-0.266,0.222c-0.091,0.115-0.458,0.286-0.476,0.217c-0.019-0.069-0.051-0.009-0.082,0.039
			c-0.03,0.046-0.132,0.015-0.202,0.103c-0.07,0.083-0.195,0.045-0.118,0.094c0.074,0.053-0.067,0.061-0.029,0.13
			c0.039,0.071,0.032,0.201-0.054,0.224s-0.125,0.019-0.096,0.133c0.027,0.111-0.031,0.374-0.143,0.381
			c-0.112,0.009-0.127,0.065-0.198,0.006c-0.072-0.058-0.065-0.103-0.152-0.1c-0.087,0.001-0.134,0.05-0.226-0.039
			c-0.092-0.092-0.463-0.475-0.402-0.552c0.057-0.079,0.133-0.184,0.055-0.148c-0.081,0.032-0.09,0.189-0.125,0.07
			c-0.034-0.121,0.002-0.17-0.064-0.206c-0.066-0.042-0.196-0.148-0.106-0.212c0.09-0.068,0.163-0.035,0.051-0.094
			c-0.11-0.06-0.141-0.124-0.067-0.225c0.075-0.101,0.134-0.147,0.2-0.14c0.064,0.005,0.021-0.098,0.108-0.174
			c0.093-0.076,0.165-0.122,0.032-0.126c-0.049-0.004-0.063,0.008-0.071,0.018c-0.014,0.019,0,0.041-0.085-0.016
			c-0.139-0.083-0.393-0.132-0.265-0.165c0.131-0.033,0.131-0.014,0.242,0.018c0.112,0.033,0.22,0.022,0.123-0.049
			c-0.096-0.071-0.184-0.283-0.268-0.209c-0.085,0.078-0.135,0.19-0.196,0.104s-0.131-0.099-0.049-0.193
			c0.082-0.103,0.023-0.217-0.051-0.345c-0.074-0.12-0.158-0.049-0.135-0.136c0.021-0.085,0.017-0.078-0.094-0.165
			c-0.111-0.087-0.1-0.081-0.14-0.164c-0.046-0.083-0.376-0.206-0.646-0.171C9.252,2.583,9.298,2.611,9.158,2.592
			C9.018,2.577,8.816,2.583,8.88,2.524c0.06-0.061,0.19-0.111,0.083-0.111c-0.106,0-0.395-0.011-0.309-0.078
			c0.091-0.064,0.117-0.063,0.208-0.059c0.09,0,0.314,0.059,0.347-0.004C9.242,2.21,9.267,2.149,9.174,2.188
			C9.08,2.228,9.062,2.259,8.919,2.225C8.774,2.188,8.692,2.212,8.59,2.147C8.486,2.083,8.349,2.023,8.592,1.948
			C8.837,1.876,8.87,1.781,9.149,1.792c0,0,0.2,0.023,0.257-0.125c0,0-0.027-0.029,0.031-0.068C9.499,1.56,9.491,1.53,9.431,1.53
			S9.21,1.585,9.161,1.542C9.11,1.493,9.096,1.473,9.183,1.43c0.089-0.042,0.145-0.074,0.191-0.118
			c0.049-0.05,0.091-0.082,0.155-0.077c0.063,0.008,0.174,0.062,0.242,0.044c0.066-0.021,0.099-0.013,0.055-0.08
			C9.791,1.13,9.818,1.137,9.847,1.115c0.029-0.019-0.101-0.072,0.003-0.088c0.048-0.007,0.086,0,0.116,0.004
			c0.035,0.005,0.056,0.012,0.056-0.004c0.005-0.033-0.036-0.021-0.019-0.049c0.015-0.03,0.413-0.091,0.502-0.091
			c0.09,0.002,0.2,0.033,0.183,0.093c-0.02,0.061-0.095,0.091-0.032,0.091c0.061,0,0.022-0.038,0.1-0.065
			c0.08-0.028,0.249-0.038,0.331-0.002c0.081,0.037,0.167,0.062,0.12,0.014c-0.05-0.049-0.275-0.171-0.176-0.195
			c0.1-0.028,0.515,0.073,0.713,0.209c0.123,0.053,0.056-0.025,0.032-0.06c-0.023-0.035,0.034-0.093,0.109-0.093
			c0.076-0.003-0.244-0.115-0.177-0.156c0.071-0.04-0.058-0.048,0.033-0.085c0.09-0.034,0.144-0.131,0.273-0.063
			c0.13,0.067,0.339,0.164,0.407,0.102c0.036-0.033,0.082-0.033,0.111-0.027c0.028,0,0.041,0,0.017-0.026
			c-0.051-0.056-0.16-0.047-0.076-0.079c0.051-0.022,0.102-0.018,0.152-0.016c0.028,0.002,0.058,0.004,0.083,0
			c0.072-0.01-0.053-0.053,0.087-0.053c0.047,0,0.146,0.006,0.266,0.01C12.092,0.169,11.055,0,9.98,0
			C7.661,0,5.522,0.793,3.83,2.118c0.055,0.008,0.09,0.01,0.06,0.025c-0.05,0.024,0.032,0.058-0.018,0.089
			C3.826,2.266,3.78,2.252,3.718,2.27C3.671,2.286,3.643,2.3,3.612,2.293C3.514,2.376,3.417,2.46,3.323,2.547
			c0.005,0,0.013,0.006,0.025,0.012c0.037,0.015,0.041,0.012,0.046,0.005C3.402,2.557,3.409,2.552,3.47,2.581
			c0.112,0.055,0.09,0.042,0.124,0.087c0.033,0.045,0.05,0.069,0.097,0.065c0.023,0,0.035,0.006,0.048,0.011
			C3.753,2.75,3.77,2.759,3.806,2.756c0.065-0.005,0.13-0.009,0.151-0.022c0.02-0.015,0.055-0.017,0-0.044
			C3.901,2.662,3.921,2.659,3.933,2.625c0.007-0.041,0.044-0.049-0.004-0.053c-0.018,0-0.037,0.005-0.055,0.01
			C3.839,2.59,3.807,2.6,3.804,2.572c-0.01-0.039-0.05-0.052,0.012-0.064c0.056-0.012,0.043-0.063,0.13-0.063h0.009
			C4.052,2.448,4.052,2.44,4.061,2.489c0.006,0.049,0.006,0.088,0.039,0.119C4.131,2.64,4.144,2.676,4.184,2.659
			c0.013-0.006,0.02-0.002,0.025-0.001c0.007,0.004,0.013,0.006,0.046-0.007c0.059-0.026,0.079-0.045,0.098,0.006
			c0.023,0.046,0.059,0.044,0.035,0.108C4.364,2.825,4.369,2.874,4.31,2.886c-0.058,0.011-0.077,0.003-0.137,0
			c-0.06,0-0.084-0.03-0.143-0.013C3.972,2.893,3.985,2.882,3.929,2.91c-0.057,0.027-0.07-0.004-0.135,0.034
			C3.731,2.983,3.765,2.996,3.706,3.007C3.647,3.021,3.624,3.033,3.56,3.019C3.534,3.014,3.507,3.015,3.481,3.015
			c-0.044,0.004-0.084,0.006-0.119-0.02c0,0-0.092-0.057-0.019-0.061c0.076-0.006,0.099-0.027,0.171-0.019
			c0.071,0.007,0.078,0.013,0.12-0.013s0.099-0.033,0.045-0.042c-0.054-0.015,0-0.043-0.097-0.013
			C3.486,2.876,3.452,2.882,3.43,2.866C3.409,2.85,3.404,2.839,3.404,2.816C3.403,2.792,3.398,2.729,3.371,2.788
			C3.343,2.844,3.359,2.882,3.3,2.884c-0.058,0-0.053,0.009-0.094-0.008C3.186,2.869,3.184,2.869,3.179,2.874
			c-0.007,0.002-0.016,0.008-0.06-0.005C3.086,2.863,3.057,2.863,3.034,2.865c-0.02,0.002-0.036,0.002-0.049-0.003
			C2.901,2.947,2.818,3.027,2.736,3.113C2.8,3.155,2.79,3.09,2.878,3.052c0.019-0.01,0.039-0.014,0.056-0.014
			c0.055,0,0.094,0.046,0.147,0.09c0.07,0.055,0.075,0.066,0.111,0.13c0.021,0.036-0.009,0.03-0.051,0.027
			C3.11,3.283,3.073,3.282,3.04,3.293c-0.071,0.03-0.113,0.07-0.188,0.11C2.773,3.438,2.759,3.428,2.699,3.471
			c-0.06,0.045-0.081,0.058-0.096,0.144C2.59,3.703,2.552,3.742,2.486,3.742c-0.067,0-0.164,0.048-0.164,0.048
			C2.228,3.796,2.257,3.731,2.22,3.717L2.213,3.714c-0.112,0.137-0.22,0.282-0.327,0.429c0.007,0.01,0.015,0.021,0.023,0.031
			c0.075,0.101,0.046-0.113,0.127-0.146c0.081-0.031,0.079,0.119,0.145,0.167c0.065,0.046,0.062-0.045,0.062-0.045
			c0.004-0.088,0.093-0.063,0.093-0.063c0.102,0.015,0.176,0.043,0.246,0.079c0.068,0.039,0.219,0.042,0.284,0.085
			c0.066,0.042,0.165,0.058,0.25,0.035C3.204,4.257,3.214,4.269,3.305,4.34c0.087,0.078,0.018,0.062-0.069,0.105
			c-0.083,0.048,0.204,0.13,0.329,0.102C3.69,4.52,3.699,4.54,3.78,4.507C3.865,4.476,3.904,4.51,4.002,4.564
			C4.1,4.616,4.087,4.652,4.145,4.717c0.059,0.068,0.1-0.065,0.013-0.146c-0.083-0.087,0-0.06,0.1-0.117
			c0.095-0.057,0.179-0.081,0.205-0.045C4.49,4.446,4.583,4.444,4.677,4.458C4.773,4.474,4.83,4.514,4.903,4.531
			C4.942,4.54,5.016,4.533,5.087,4.528C5.146,4.52,5.202,4.514,5.224,4.52c0.049,0.008,0.084,0,0.065-0.044
			c-0.017-0.039,0-0.057,0.044-0.078c0.044-0.023,0.083-0.046-0.027-0.098C5.197,4.243,5.259,4.223,5.3,4.156
			c0.041-0.07,0.092-0.077,0.139-0.034c0.047,0.041,0.144,0.085,0.166,0.135c0.023,0.048,0.014,0.067-0.032,0.093
			C5.526,4.374,5.507,4.358,5.49,4.397C5.479,4.418,5.509,4.414,5.542,4.409c0.021,0,0.044-0.005,0.062,0
			C5.65,4.424,5.586,4.492,5.57,4.559C5.553,4.622,5.606,4.611,5.648,4.643c0.039,0.035,0.054-0.039,0.013-0.107
			C5.62,4.467,5.732,4.455,5.779,4.438c0.043-0.02,0.084-0.104,0.041-0.125C5.779,4.289,5.877,4.276,5.843,4.229
			C5.806,4.178,5.847,4.135,5.768,4.14C5.69,4.146,5.654,4.112,5.654,4.112C5.507,4.022,5.62,3.998,5.573,3.921
			c-0.077-0.093-0.001-0.205,0.06-0.252c0.064-0.046,0.097-0.132,0.035-0.206C5.605,3.389,5.665,3.315,5.64,3.222
			c-0.02-0.093,0.043-0.06,0.116-0.109C5.779,3.096,5.805,3.091,5.83,3.091c0.019,0,0.04,0.002,0.06,0.006
			c0.033,0.004,0.062,0.01,0.097,0.004C6.069,3.087,6.208,3.113,6.271,3.15c0.06,0.038-0.144,0.117-0.158,0.192
			C6.1,3.416,5.971,3.426,5.917,3.397C5.866,3.368,5.829,3.403,5.865,3.444C5.9,3.49,5.874,3.522,5.82,3.587
			C5.768,3.651,5.86,3.705,5.946,3.754C6.03,3.802,5.998,3.85,6.05,3.912c0.054,0.067,0.078,0.083,0.031,0.123
			S6.054,4.078,6.068,4.125c0.008,0.024,0.026,0.02,0.052,0.012C6.146,4.136,6.176,4.131,6.21,4.145
			c0.078,0.03,0.075,0.173,0.065,0.249c-0.01,0.069,0.067,0.018,0.081-0.118c0.012-0.138,0.143-0.031,0.197,0.013
			c0.052,0.044,0.059,0.078-0.002,0.125s0.045,0.154,0.045,0.154c0.028,0.043,0.021,0.124,0.081,0.078
			C6.77,4.497,6.833,4.548,6.85,4.442C6.859,4.255,6.992,4.322,6.908,4.23C6.825,4.138,6.958,4.115,7.037,4.092
			c0.08-0.02,0.176,0.007,0.229,0.035C7.325,4.154,7.33,4.201,7.368,4.268c0.04,0.065-0.027,0.089-0.097,0.107
			c-0.07,0.019,0.083,0.118,0.121,0.188c0.037,0.068-0.084,0.145-0.143,0.188C7.186,4.792,7.117,4.769,7.117,4.809
			c0,0.027-0.07,0.027-0.127,0.027c-0.025,0-0.049-0.002-0.06,0.004C6.88,4.844,6.913,4.814,6.878,4.789
			C6.844,4.767,6.799,4.773,6.75,4.799C6.703,4.824,6.847,4.834,6.812,4.881c-0.035,0.049-0.106,0.104-0.16,0.124
			C6.599,5.021,6.583,5.022,6.641,5.037C6.7,5.05,6.68,5.066,6.652,5.127C6.625,5.193,6.47,5.217,6.423,5.274
			c-0.05,0.053-0.17,0.093-0.215,0.088C6.161,5.355,6.142,5.364,6.197,5.404c0.052,0.043-0.044,0.104-0.082,0.118
			c-0.035,0.012-0.02-0.011-0.055,0.06C6.027,5.65,5.881,5.796,5.806,5.879C5.729,5.962,5.742,6.114,5.742,6.176
			C5.741,6.244,5.76,6.264,5.861,6.264s0.128,0.137,0.154,0.21c0.022,0.068-0.03,0.088,0.042,0.082
			C6.208,6.532,6.32,6.583,6.434,6.603c0.115,0.017,0.36,0.188,0.439,0.239c0.081,0.048,0.306,0.04,0.373,0.06
			c0.065,0.021,0.055,0.205,0.055,0.315C7.299,7.327,7.419,7.381,7.501,7.491c0.079,0.107,0.16,0.007,0.2-0.034
			c0.04-0.04,0.048-0.177-0.002-0.271C7.647,7.095,7.671,7.087,7.641,7.007c-0.027-0.081,0.201-0.14,0.255-0.18
			c0.056-0.045,0.083-0.125,0.087-0.236c0.002-0.11-0.055-0.183-0.149-0.253C7.735,6.266,7.826,6.156,7.848,6.11
			c0.027-0.042,0.042-0.125-0.017-0.194c-0.057-0.069,0.056-0.034,0.01-0.132C7.79,5.687,7.802,5.64,7.797,5.595
			C7.795,5.55,7.92,5.523,8.01,5.583c0.091,0.06,0.162,0.052,0.261,0.032c0.097-0.022,0.11-0.001,0.143,0.035
			c0.032,0.03,0.188,0.132,0.231,0.188C8.686,5.893,8.773,5.882,8.819,5.86c0.042-0.021,0.039,0.028,0.008,0.095
			C8.796,6.022,8.875,6.13,8.875,6.198c0,0.067,0.135,0.106,0.203,0.135C9.146,6.365,9.246,6.26,9.304,6.205
			c0.058-0.058,0.058-0.126,0.117-0.2c0.061-0.072,0.101,0.06,0.124,0.138c0.023,0.081,0.138,0.162,0.185,0.243
			c0.049,0.082,0.135,0.13,0.082,0.233C9.758,6.719,9.956,6.774,9.99,6.836c0.031,0.063,0.171,0.092,0.275,0.141
			c0.105,0.046,0.023,0.163,0.119,0.165c0.096,0,0.204,0.136,0.155,0.245c-0.048,0.108-0.138,0.124-0.223,0.135
			c-0.076,0.01-0.156,0.039-0.247,0.129c-0.09,0.093-0.208,0.06-0.316,0.05c-0.108-0.01-0.408,0-0.46,0
			c-0.008,0-0.015,0-0.021-0.001c-0.041,0-0.076-0.006-0.132,0.076C9.076,7.868,8.967,7.919,8.921,7.955
			C8.874,7.988,8.705,8.179,8.679,8.231C8.652,8.28,8.719,8.25,8.834,8.12c0.113-0.126,0.309-0.197,0.378-0.235
			C9.286,7.845,9.41,7.84,9.455,7.895c0.049,0.052,0.049,0.093-0.02,0.139C9.367,8.077,9.33,8.038,9.287,8.038
			c-0.042,0-0.015,0.02,0.035,0.046C9.372,8.11,9.389,8.103,9.411,8.19c0.024,0.09-0.015,0.051,0.015,0.083
			c0.032,0.031,0.052,0.042,0.097,0.083c0.048,0.038,0.1,0.052,0.139,0.047C9.7,8.397,9.72,8.397,9.795,8.412
			c0.076,0.013,0.036-0.03,0.083-0.095C9.925,8.25,9.917,8.231,9.96,8.214C10,8.2,9.995,8.285,10.022,8.364
			c0.029,0.076-0.071,0.06-0.123,0.065c-0.052,0.002-0.043,0.027-0.1,0.081C9.742,8.564,9.59,8.577,9.531,8.592
			c-0.06,0.02-0.067,0.08-0.121,0.132C9.359,8.773,9.308,8.727,9.282,8.675C9.256,8.626,9.359,8.533,9.418,8.501
			C9.48,8.47,9.495,8.368,9.44,8.423C9.387,8.479,9.184,8.482,9.165,8.53C9.147,8.581,9.097,8.572,9.002,8.62
			C8.911,8.667,8.842,8.63,8.788,8.732C8.735,8.835,8.684,8.876,8.496,9.06C8.306,9.244,8.272,9.359,8.244,9.383
			c-0.03,0.026-0.035,0.023-0.083,0.006C8.115,9.369,8.115,9.397,8.136,9.436C8.154,9.478,8.146,9.499,8.111,9.57
			C8.09,9.614,8.078,9.6,8.067,9.583C8.06,9.579,8.054,9.566,8.042,9.579C8.014,9.6,8.069,9.713,8.054,9.847
			c-0.017,0.132-0.121,0.12-0.208,0.228c-0.083,0.105-0.099,0.016-0.201,0.128c-0.102,0.107-0.187,0.161-0.218,0.258
			c-0.032,0.096-0.078,0.107-0.023,0.232c0.08,0.112,0.109,0.253,0.137,0.341c0.029,0.089,0.032,0.202-0.026,0.266
			c-0.062,0.064-0.139-0.087-0.201-0.163c-0.057-0.077-0.091-0.176-0.087-0.255c0.004-0.082-0.098-0.304-0.23-0.206
			c-0.074,0.058-0.102,0.021-0.128-0.011c-0.023-0.025-0.04-0.054-0.083-0.034c-0.051,0.022-0.085,0.002-0.112-0.019
			c-0.027-0.019-0.045-0.039-0.071-0.019c-0.049,0.046-0.047,0.032-0.117,0.032c-0.068,0-0.065,0.016-0.081,0.104
			c-0.008,0.056-0.014,0.046-0.028,0.038c-0.009-0.009-0.023-0.017-0.042-0.003c-0.051,0.034-0.065,0.02-0.123,0.011
			c-0.058-0.008-0.046-0.081-0.097-0.07c-0.054,0.01-0.069,0.042-0.131,0.01c-0.059-0.026-0.098-0.042-0.166,0.021
			c-0.069,0.062-0.144,0.108-0.249,0.135c-0.106,0.031-0.18,0.067-0.152,0.162c0.03,0.095,0.067,0.203,0.012,0.246
			c-0.056,0.042-0.092,0.255-0.037,0.369c0.057,0.117,0.067,0.258,0.123,0.316c0.056,0.059,0.055,0.154,0.158,0.183
			c0.104,0.031,0.143,0.094,0.202,0.063c0.062-0.032,0.156-0.051,0.221-0.026c0.067,0.026,0.119,0.009,0.175-0.179
			c0.058-0.184,0.113-0.151,0.217-0.212c0.103-0.06,0.188-0.019,0.237,0.014c0.046,0.039-0.085,0.161-0.083,0.239
			c0.002,0.079-0.081,0.083-0.065,0.146c0.013,0.06-0.047,0.218-0.072,0.281c-0.027,0.063,0.283,0.068,0.369,0.032
			c0.086-0.034,0.158,0.003,0.261,0.07c0.097,0.066-0.054,0.206,0,0.284c0.052,0.081,0,0.172,0,0.236
			c0,0.065,0.039,0.09,0.102,0.167c0.065,0.077,0.048,0.022,0.138,0.089c0.091,0.067,0.161,0.007,0.241-0.052
			c0.079-0.06,0.206,0.034,0.292,0.107c0.088,0.072,0.202-0.082,0.198-0.157c0-0.074,0.049-0.066,0.124-0.147
			c0.035-0.042,0.082-0.042,0.127-0.042c0.045,0,0.091,0,0.12-0.041c0.061-0.083,0.072-0.076,0.139-0.091
			c0.065-0.02,0.045,0.042,0.006,0.083c-0.039,0.042,0.012,0.062,0.062,0.096c0.045,0.037,0.102-0.022,0.083-0.077
			c-0.018-0.055,0.022-0.08,0.051-0.052c0.033,0.028,0.048,0.079,0.119,0.075c0.072-0.008,0.063,0.042,0.122,0.101
			c0.031,0.029,0.081,0.018,0.128,0.011c0.043-0.012,0.08-0.021,0.097,0c0.034,0.039,0.093,0.072,0.202,0.033
			c0.106-0.038,0.07-0.025,0.258,0.021c0.191,0.045,0.155,0.147,0.22,0.188c0.065,0.038,0.12-0.01,0.228,0.135
			c0.107,0.147,0.132,0.188,0.393,0.201c0.261,0.013,0.339,0.103,0.458,0.162c0.119,0.062,0.051,0.188,0.15,0.293
			c0.094,0.105,0.03,0.15-0.07,0.272c-0.059,0.073,0.028,0.055,0.122,0.041c0.066-0.012,0.14-0.027,0.167-0.007
			c0.066,0.05-0.094,0.14-0.003,0.136c0.088-0.006,0.02-0.119,0.236-0.083c0.216,0.041,0.314,0.152,0.285,0.212
			c-0.03,0.064,0.005,0.077,0.108,0.016c0.056-0.034,0.098-0.014,0.155,0.005c0.05,0.02,0.109,0.036,0.201,0.018
			c0.196-0.04,0.327,0.206,0.492,0.273c0.063,0.028,0.092,0.025,0.112,0.022c0.031-0.001,0.031-0.008,0.094,0.116
			c0.1,0.268-0.098,0.463-0.2,0.577c-0.101,0.112-0.038,0.146-0.153,0.221c-0.114,0.074-0.11,0.352-0.11,0.427
			c-0.002,0.077-0.084,0.252-0.084,0.367c0,0.116-0.132,0.225-0.174,0.347c-0.043,0.123-0.211,0.177-0.27,0.177
			c-0.059-0.005-0.089-0.054-0.177,0.029c-0.123,0.123-0.308,0.184-0.367,0.221c-0.056,0.035-0.153,0.083-0.129,0.218
			c0.022,0.13-0.014,0.295-0.05,0.322c-0.033,0.027-0.107,0.107-0.134,0.188c-0.028,0.076-0.116,0.194-0.132,0.172
			c-0.02-0.027,0.063-0.128,0.04-0.151c-0.021-0.023-0.132,0.083-0.131,0.177c0,0.098-0.099,0.125-0.179,0.293
			c-0.084,0.167-0.313,0.106-0.393,0.106c-0.081-0.001-0.125,0.093-0.057,0.239c0.073,0.146-0.117,0.234-0.171,0.3
			c-0.051,0.064-0.363,0.081-0.439,0.078c-0.078,0-0.017,0.222-0.068,0.288c-0.051,0.063-0.151,0.006-0.239-0.012
			c-0.049-0.01-0.049,0.043-0.035,0.104c-0.367-0.021-0.731-0.061-1.086-0.119c0.021-0.123,0.091-0.281,0.045-0.409
			c-0.063-0.178,0.168-0.275,0.175-0.494c0.009-0.214,0.102-0.419,0.074-0.584c-0.03-0.165,0.092-0.306,0.073-0.39
			c-0.02-0.083,0.045-0.332,0.029-0.417c-0.014-0.085,0.061-0.428,0.019-0.668c-0.039-0.244-0.464-0.38-0.532-0.423
			c-0.069-0.044-0.166-0.059-0.189-0.197c-0.023-0.135-0.13-0.349-0.233-0.465c-0.103-0.119-0.091-0.344-0.247-0.44
			c-0.154-0.102-0.054-0.102-0.125-0.204C7.376,14.997,7.552,14.93,7.568,14.9c0.015-0.024,0.107-0.206-0.003-0.118
			c-0.11,0.085-0.071-0.152-0.019-0.296c0.053-0.147,0.139-0.097,0.179-0.201c0.039-0.102,0.132-0.172,0.17-0.206
			c0.037-0.038,0.085-0.236-0.022-0.461c-0.11-0.1-0.046-0.077-0.128-0.196c-0.085-0.116-0.195,0.026-0.195,0.026
			c-0.057,0.035,0.026,0.056-0.015,0.119c-0.039,0.068-0.136-0.113-0.309-0.125c-0.171-0.011-0.129-0.122-0.246-0.157
			c-0.12-0.035-0.113-0.099-0.113-0.148c0-0.044,0.029-0.197-0.213-0.242c-0.242-0.042-0.201-0.135-0.398-0.143
			c-0.2-0.01-0.366-0.242-0.366-0.242s-0.154-0.057-0.273,0.007c-0.118,0.06-0.403-0.103-0.522-0.142
			c-0.117-0.038-0.305-0.135-0.437-0.218c-0.13-0.082-0.265-0.098-0.221-0.211c0.077-0.145-0.072-0.282-0.096-0.334
			c-0.022-0.055-0.167-0.229-0.32-0.352c-0.156-0.122-0.217-0.264-0.217-0.264c-0.137-0.104-0.273-0.293-0.303-0.394
			c-0.033-0.103-0.129-0.125-0.178-0.132c-0.049-0.008-0.088,0.146,0.061,0.275c0.147,0.123,0.045,0.14,0.156,0.238
			c0.108,0.099,0.091,0.104,0.169,0.225c0.078,0.121,0.069,0.16,0.104,0.214c0.035,0.053,0.139,0.114,0.108,0.16
			c-0.03,0.049-0.073-0.052-0.145-0.091c-0.074-0.037-0.147-0.051-0.155-0.187c-0.008-0.138-0.157-0.196-0.157-0.196
			s-0.174-0.078-0.12-0.125c0.053-0.049-0.004-0.154-0.078-0.212c-0.07-0.06-0.186-0.285-0.186-0.285s-0.027-0.145-0.098-0.105
			c-0.071,0.041-0.153-0.073-0.127-0.112c0.026-0.039-0.039-0.178-0.162-0.191c-0.121-0.013-0.103-0.072-0.153-0.127
			C2.485,9.894,2.419,9.85,2.412,9.784C2.407,9.719,2.377,9.685,2.32,9.728c-0.06,0.04-0.066-0.044-0.066-0.044
			c-0.072-0.072,0.024-0.16,0.024-0.16C2.119,9.385,2.212,9.134,2.15,9.015C2.088,8.894,2.152,8.386,2.164,8.357
			C2.176,8.33,2.191,8.27,2.131,8.188C2.073,8.107,2.1,8.061,2.148,8.048c0.045-0.017-0.184-0.179-0.267-0.204
			c-0.08-0.03-0.12-0.062-0.195-0.118C1.609,7.666,1.711,7.647,1.789,7.688c0.076,0.038,0.141-0.05,0.03-0.056
			c-0.105,0-0.141-0.137-0.105-0.183C1.75,7.407,1.732,7.36,1.688,7.396C1.644,7.433,1.581,7.268,1.572,7.223
			c-0.006-0.044,0.061-0.115,0.01-0.089C1.531,7.158,1.566,7.186,1.443,7.131C1.321,7.076,1.305,7.042,1.377,6.976
			c0.076-0.067,0.024-0.074,0.024-0.074c-0.016,0.066-0.06,0.074-0.109-0.017C1.244,6.804,1.3,6.833,1.258,6.794
			C1.218,6.757,1.189,6.846,1.169,6.889c-0.018,0.042,0,0.042-0.044,0.076C1.083,6.999,1.023,6.813,1.019,6.751
			c-0.007-0.06,0.056,0.036,0.09,0.067c0.039,0.027,0.159-0.128,0.043-0.128C1.036,6.686,0.909,6.425,0.865,6.38
			C0.826,6.333,0.778,6.421,0.778,6.421C0.693,6.504,0.665,6.468,0.657,6.419C0.233,7.525,0,8.727,0,9.98
			c0,5.51,4.468,9.98,9.98,9.98C15.067,19.96,19.265,16.152,19.882,11.233z M18.426,9.153c0.069-0.034,0.085-0.02,0.079-0.072
			c-0.005-0.051-0.06-0.047-0.044-0.119c0.016-0.071-0.008-0.082,0.058-0.127c0.03-0.021,0.052-0.03,0.071-0.03
			c0.019,0,0.029,0.02,0.013,0.076c-0.026,0.096-0.076,0.076-0.05,0.15c0.023,0.073,0.07,0.079,0.07,0.145
			c0,0.069-0.01,0.11-0.031,0.145c-0.023,0.036-0.014,0.073-0.083,0.076c0,0-0.07-0.021-0.07-0.099
			C18.438,9.218,18.357,9.192,18.426,9.153z M16.673,6.547c0.035-0.062-0.025-0.065,0.038-0.146c0.062-0.081-0.02-0.114,0.113-0.122
			c0.085-0.007,0.153-0.036,0.18-0.036c0.013,0,0.015,0.008,0,0.038c-0.047,0.078-0.115,0.049-0.074,0.126
			c0.025,0.036,0.079,0.03,0.126,0.023c0.048-0.004,0.09-0.012,0.086,0.028c-0.008,0.076-0.085,0.144-0.06,0.213
			c0.026,0.071,0.115,0.171,0.147,0.238c0.035,0.063,0.054-0.023,0.137,0.102c0.082,0.128,0.025,0.168,0.083,0.224
			c0.059,0.06,0.141,0.049,0.133,0.149c-0.006,0.101-0.132,0.216-0.219,0.216c-0.084,0-0.086-0.007-0.163,0.021
			c-0.077,0.028-0.139,0.111-0.179,0.058c-0.04-0.055-0.001-0.049-0.02-0.111c-0.026-0.058-0.033-0.052-0.099-0.069
			c-0.067-0.014-0.163,0.005-0.129-0.067c0.033-0.074,0.085-0.089,0.091-0.143c0.009-0.055-0.055-0.042,0.01-0.089
			c0.066-0.051,0.107-0.064,0.112-0.129c0,0,0.002-0.118-0.091-0.118c-0.089,0.004-0.135,0.014-0.111-0.052
			c0.025-0.066,0.051-0.096,0.008-0.124c-0.021-0.015-0.037-0.006-0.048,0.004c-0.012,0.006-0.021,0.016-0.034,0.006
			c-0.021-0.017-0.057-0.006-0.028-0.064c0.034-0.057,0.042-0.064,0.022-0.077C16.684,6.632,16.64,6.604,16.673,6.547z
			 M16.235,7.202c0.049-0.094,0.021-0.061,0.071-0.19c0.05-0.127,0.034-0.047,0.125-0.117c0.054-0.043,0.072-0.039,0.095-0.031
			c0.017,0.004,0.035,0.01,0.068-0.004c0.019-0.006,0.029-0.009,0.039-0.009c0.037,0,0.032,0.04,0.066,0.082
			c0.045,0.049,0.025,0.077-0.007,0.129c-0.036,0.055-0.052,0.156-0.054,0.229C16.632,7.365,16.538,7.38,16.461,7.4
			c-0.076,0.017-0.154,0.069-0.154,0.069c-0.117,0.036-0.115,0.002-0.173-0.073C16.074,7.321,16.185,7.294,16.235,7.202z
			 M14.409,4.95c0.018-0.062,0.188-0.231,0.267-0.165c0.078,0.062,0.034,0.137,0.11,0.15c0.079,0.015,0.074,0.042,0.094-0.032
			c0.021-0.077,0.018-0.069,0.083-0.052c0.032,0.008,0.041-0.002,0.053-0.011c0.013-0.008,0.032-0.021,0.088-0.008
			c0.111,0.015,0.075,0.053,0.138,0c0.057-0.046,0.039-0.084,0.091-0.084c0.012,0,0.025,0.002,0.041,0.003
			c0.1,0.02,0.073,0.01,0.15,0.055c0.076,0.041,0.042,0.061,0.117,0.111c0.071,0.047,0.143,0.096,0.068,0.172
			c-0.071,0.077-0.13,0.136-0.281,0.178c-0.148,0.042-0.247,0.142-0.408,0.098c-0.159-0.045-0.257-0.028-0.331-0.075
			c-0.074-0.05,0.024-0.019-0.022-0.093c-0.047-0.072-0.246-0.058-0.188-0.106c0.06-0.048,0.04-0.053,0.117-0.066
			c0.035-0.004,0.076-0.068,0.029-0.073c-0.047-0.006-0.085,0.008-0.13,0.025C14.452,4.998,14.385,5.013,14.409,4.95z M6.477,0.981
			c0.046-0.026,0.089-0.018,0.139-0.01c0.042,0.004,0.087,0.01,0.146-0.002c0.125-0.028-0.031-0.008-0.028-0.066
			C6.789,0.817,7.13,0.889,7.218,0.912c0.086,0.022,0.11,0.009,0.021-0.057C7.151,0.786,7.335,0.717,7.497,0.723
			c0.163,0.002,0.119,0.062,0.33-0.014c0.23-0.079,0.345-0.096,0.436-0.096c0.028,0,0.054,0,0.082,0.002
			c0.036,0,0.07,0.004,0.114,0.004c0.096-0.005,0.174,0.01,0.256,0.021C8.796,0.656,8.879,0.67,8.986,0.667
			c0.213-0.002,0.169,0.056,0.05,0.094c-0.12,0.035,0.126,0.017,0.299-0.038c0.173-0.053,0.35,0.08,0.489,0.127
			C9.957,0.902,9.79,0.921,9.723,0.964C9.654,1.012,9.461,1.037,9.386,1.05c-0.078,0.008-0.19,0.038-0.316,0.081
			c-0.125,0.041-0.02,0.057,0.09,0.025c0.113-0.031,0.12-0.031,0.237-0.049c0.121-0.015,0.051,0.044-0.075,0.084
			C9.195,1.229,8.86,1.436,8.808,1.479C8.782,1.5,8.767,1.5,8.75,1.5C8.734,1.498,8.723,1.495,8.709,1.524
			c-0.03,0.049-0.047,0.08-0.128,0.122C8.502,1.69,8.464,1.643,8.39,1.627C8.317,1.61,8.397,1.646,8.391,1.703
			C8.387,1.731,8.333,1.729,8.275,1.725c-0.049,0-0.103-0.002-0.128,0.015C8.088,1.774,8.22,1.751,8.254,1.806
			c0.02,0.033-0.013,0.028-0.057,0.025c-0.029-0.005-0.06-0.005-0.088,0.002C8.038,1.849,8.129,1.856,8.197,1.897
			c0.066,0.045-0.054,0.061-0.102,0.076c-0.047,0.02-0.006,0.02,0.044,0.048c0.048,0.033-0.124,0.093-0.21,0.107
			C7.883,2.141,7.867,2.136,7.847,2.134C7.833,2.129,7.819,2.126,7.786,2.136c-0.071,0.016,0,0.032,0.026,0.086
			c0.024,0.05-0.054,0.052-0.095,0.069C7.676,2.305,7.674,2.287,7.639,2.316c-0.031,0.031,0.012,0.037,0.08,0.061
			c0.033,0.012,0.043,0.007,0.05,0.004c0.009-0.004,0.013-0.008,0.039,0.007c0.053,0.03,0.006,0.03-0.034,0.084
			c-0.039,0.048-0.102,0.044-0.165,0.08C7.57,2.571,7.554,2.571,7.532,2.571C7.52,2.568,7.504,2.568,7.478,2.573
			C7.407,2.585,7.454,2.509,7.454,2.509c0.002-0.042-0.178-0.06-0.299,0C7.032,2.566,7.061,2.578,6.897,2.545
			C6.736,2.513,6.64,2.495,6.514,2.523C6.389,2.556,6.36,2.44,6.441,2.378c0.083-0.062,0.175-0.016,0.237-0.055
			C6.742,2.286,6.564,2.23,6.57,2.157C6.575,2.08,6.768,2.148,6.838,2.225C6.905,2.3,7.017,2.269,7.099,2.252
			c0.081-0.019-0.042-0.025-0.136-0.03C6.867,2.22,6.894,2.157,6.9,2.115C6.907,2.071,6.89,2.085,6.867,2.057
			c-0.021-0.028-0.063,0-0.166,0.022c-0.105,0.023-0.036-0.068,0-0.13c0.037-0.067,0.12-0.065,0.214-0.071
			c0.096-0.014,0.24,0.006,0.351,0.006c0.055,0,0.015-0.011-0.047-0.024C7.155,1.845,7.065,1.835,7.03,1.836
			C6.963,1.838,6.974,1.806,7.014,1.79c0.041-0.012-0.062-0.135-0.159-0.142C6.76,1.641,6.722,1.577,6.738,1.504
			c0.013-0.069,0.354-0.044,0.42,0.03c0.069,0.074,0.165,0.113,0.309,0.138C7.61,1.695,7.354,1.579,7.233,1.515
			C7.111,1.453,7.295,1.429,7.465,1.439c0.17,0.01,0.157-0.023,0.3-0.037C7.906,1.386,7.739,1.383,7.638,1.33
			C7.556,1.284,7.782,1.268,7.804,1.182C7.81,1.155,7.578,1.296,7.45,1.375C7.323,1.453,7.126,1.42,7.172,1.386
			C7.22,1.351,7.131,1.342,7.131,1.342c-0.04-0.004-0.062,0.015-0.096,0.033C6.99,1.397,6.927,1.426,6.77,1.393
			C6.666,1.389,6.761,1.361,6.845,1.284c0.083-0.078-0.083,0.046-0.198,0.09C6.532,1.417,6.469,1.322,6.519,1.28
			C6.543,1.26,6.52,1.26,6.473,1.264C6.43,1.265,6.366,1.268,6.299,1.252C6.168,1.215,6.334,1.179,6.332,1.124
			C6.328,1.097,6.297,1.106,6.257,1.116C6.215,1.125,6.161,1.134,6.12,1.102C6.044,1.037,6.389,1.028,6.477,0.981z M7.99,3.384
			c-0.018,0-0.038,0-0.055,0.002c-0.03,0.005-0.075,0.003-0.119,0c-0.034-0.002-0.07-0.004-0.099-0.002
			C7.653,3.387,7.673,3.396,7.597,3.412C7.52,3.426,7.515,3.345,7.463,3.282c-0.05-0.066,0.021-0.103,0.021-0.103
			c0.013-0.006,0.027-0.01,0.045-0.01c0.029,0,0.066,0.009,0.098,0.015C7.671,3.191,7.71,3.201,7.735,3.196
			c0.06-0.009,0.044-0.018,0.122,0C7.934,3.215,7.948,3.28,8.009,3.344C8.053,3.391,8.028,3.389,7.99,3.384z M5.545,1.505
			C5.514,1.483,5.553,1.447,5.592,1.402c0.024-0.027,0.07-0.023,0.112-0.017C5.729,1.389,5.753,1.392,5.77,1.389
			c0.05-0.012-0.043-0.012-0.111-0.035C5.587,1.33,5.64,1.298,5.691,1.258C5.718,1.236,5.758,1.24,5.797,1.24
			C5.831,1.245,5.86,1.247,5.886,1.235C5.938,1.208,5.8,1.236,5.8,1.18c0-0.011,0.011-0.018,0.031-0.018
			c0.073,0,0.252,0.074,0.309,0.135c0.071,0.078,0.036,0.067,0.104,0.104C6.286,1.421,6.3,1.417,6.327,1.41
			C6.342,1.409,6.368,1.402,6.41,1.409c0.098,0.011,0.02,0.083,0.076,0.103c0.059,0.023,0.004-0.01,0.033-0.065
			c0.026-0.054,0.146,0.112,0.151,0.163c0.005,0.035,0.016,0.035,0.037,0.035c0.013,0,0.034,0,0.058,0.007
			c0.067,0.02,0.155,0.065,0.165,0.107c0.012,0.039-0.148,0.056-0.226,0.1c-0.078,0.046-0.078,0.06-0.126,0.03
			C6.529,1.861,6.49,1.978,6.413,2.041C6.334,2.106,6.118,2.059,6.118,2.059C6.046,2.058,6.018,2.016,5.937,1.967
			C5.852,1.918,5.85,1.908,5.83,1.824C5.817,1.773,5.891,1.777,5.984,1.782c0.047,0.004,0.1,0.008,0.148,0
			C6.267,1.769,5.891,1.74,5.793,1.758C5.738,1.769,5.716,1.749,5.695,1.73C5.677,1.716,5.66,1.701,5.623,1.701
			C5.538,1.707,5.558,1.649,5.496,1.566C5.436,1.486,5.575,1.527,5.545,1.505z M5.328,1.924C5.365,1.919,5.386,1.912,5.41,1.912
			c0.018,0,0.035,0.006,0.067,0.024c0.068,0.041,0.028,0.045,0.099,0.045c0.021,0,0.036,0,0.05-0.002
			c0.037-0.004,0.052-0.009,0.064,0.031C5.704,2.063,5.743,2.06,5.676,2.099c-0.069,0.042-0.145,0.058-0.207,0.05
			c0,0-0.051-0.002-0.079-0.056C5.36,2.04,5.341,2.049,5.323,2.008C5.308,1.968,5.268,1.931,5.328,1.924z M5.12,2.733
			C5.108,2.703,5.107,2.664,5.066,2.697C5.022,2.73,5.01,2.772,4.954,2.744c-0.013-0.007-0.024,0-0.061,0.003
			C4.859,2.752,4.758,2.775,4.777,2.733C4.795,2.689,4.812,2.662,4.86,2.676C4.907,2.687,4.929,2.709,4.933,2.69
			C4.94,2.676,4.959,2.673,4.907,2.639c-0.054-0.034-0.105-0.02-0.074-0.066c0.031-0.045,0.02-0.097,0.074-0.052
			c0.054,0.04,0.023,0.052,0.081,0.089c0.053,0.036,0.071,0.059,0.09,0.039c0.017-0.02,0.063-0.023,0.012-0.054
			c-0.049-0.03-0.102-0.014-0.083-0.058c0.016-0.034-0.015-0.064,0.016-0.064c0.009,0,0.026,0.003,0.056,0.009
			c0.063,0.022,0.074,0.014,0.085,0.009c0.013-0.007,0.028-0.013,0.072-0.005C5.34,2.5,5.354,2.472,5.386,2.533
			c0.029,0.06,0.078,0.065,0.026,0.124C5.36,2.715,5.358,2.729,5.348,2.771c-0.012,0.038-0.02,0.085-0.075,0.095
			c-0.054,0.01-0.109,0.027-0.154,0.011C5.076,2.863,5.016,2.863,5.046,2.812C5.07,2.759,5.131,2.763,5.12,2.733z M4.429,1.769
			c0.06-0.013,0.101-0.046,0.139-0.046c0.015,0,0.028,0.003,0.042,0.018c0.055,0.042,0.048,0.065,0.132,0.099
			c0.045,0.017,0.048,0.012,0.052,0.006c0.007-0.006,0.017-0.012,0.064,0c0.102,0.028,0.094,0.02,0.143,0.069
			c0.051,0.051,0.165,0.123,0.189,0.16c0.025,0.036,0.092,0.06,0.01,0.081C5.119,2.176,5.089,2.212,5.026,2.16
			C4.963,2.106,5,2.065,4.921,2.055c-0.078-0.011-0.057-0.008-0.143-0.01C4.751,2.044,4.726,2.047,4.703,2.053
			C4.656,2.059,4.62,2.068,4.599,2.033C4.571,1.979,4.578,1.981,4.622,1.981c0.008,0,0.016,0,0.023,0c0,0,0.058-0.011,0-0.063
			C4.588,1.864,4.61,1.878,4.56,1.882C4.509,1.889,4.48,1.887,4.493,1.861c0.012-0.022-0.009-0.003-0.05-0.027
			C4.401,1.806,4.345,1.785,4.429,1.769z M4.347,4.351C4.298,4.347,4.282,4.364,4.153,4.425C4.027,4.488,4.03,4.383,4.03,4.383
			C4.05,4.335,4.204,4.317,4.3,4.28c0.027-0.01,0.045-0.017,0.057-0.017c0.035,0,0.034,0.033,0.071,0.064
			C4.477,4.367,4.394,4.355,4.347,4.351z M4.911,4.105C4.866,4.137,4.859,4.119,4.794,4.098c-0.067-0.017-0.047,0.003-0.1,0.024
			C4.641,4.144,4.719,4.15,4.777,4.185c0.056,0.031,0.037,0,0.073,0.044C4.887,4.271,4.812,4.258,4.751,4.28
			C4.69,4.309,4.656,4.303,4.574,4.293c-0.081-0.005-0.071-0.046-0.132-0.05C4.379,4.239,4.364,4.204,4.339,4.201
			c-0.095-0.023-0.161,0.03-0.198,0.047C4.103,4.27,4.072,4.279,3.987,4.312c-0.083,0.035-0.243,0.025-0.3,0.046
			C3.631,4.383,3.582,4.344,3.481,4.332C3.378,4.321,3.419,4.26,3.394,4.216c-0.024-0.045-0.05-0.053-0.171-0.024
			C3.101,4.217,3.117,4.164,3.07,4.15C3.023,4.137,3.001,4.079,2.998,4.022C2.995,3.984,3.066,3.986,3.153,3.987
			c0.031,0,0.066,0.002,0.1,0C3.375,3.98,3.39,3.993,3.495,4c0.108,0.011,0.091,0,0.161-0.04c0.066-0.042-0.081-0.023-0.161-0.055
			c-0.073-0.032-0.084-0.01-0.169-0.01c-0.083,0-0.161-0.022-0.239-0.014c-0.078,0.001-0.103,0-0.172-0.015
			C2.843,3.857,2.865,3.822,2.88,3.781c0.01-0.028,0.044-0.025,0.083-0.019C2.98,3.765,2.998,3.767,3.012,3.767
			c0.054-0.002,0.105,0,0.152-0.039c0.044-0.038-0.059-0.028-0.143-0.025C2.962,3.708,2.951,3.708,2.936,3.708c0,0-0.014,0-0.029,0
			c-0.042,0-0.083-0.033-0.115-0.081C2.763,3.579,2.843,3.554,2.867,3.513c0.023-0.036,0.039-0.05,0.112-0.108
			c0.072-0.06,0.097-0.032,0.191-0.072C3.263,3.29,3.331,3.293,3.367,3.35c0.036,0.055-0.016,0.036-0.008,0.087
			C3.365,3.49,3.4,3.436,3.439,3.399c0.041-0.037,0.04-0.023,0.117-0.003C3.634,3.41,3.681,3.441,3.721,3.499
			c0.044,0.054,0.043-0.021,0.091-0.035C3.865,3.447,3.804,3.42,3.816,3.376c0.01-0.042,0.035-0.003,0.097-0.002
			C3.977,3.375,3.96,3.41,4.013,3.448C4.066,3.49,4.048,3.499,4.066,3.57c0.022,0.071,0.01,0.057,0.052,0.086
			c0.04,0.032,0.049-0.018,0.06-0.043C4.189,3.588,4.167,3.555,4.13,3.502C4.092,3.447,4.123,3.426,4.1,3.362
			S4.116,3.31,4.181,3.297c0.01-0.002,0.016-0.002,0.025-0.002c0.041,0,0.045,0.023,0.102,0.05c0.065,0.035,0.063,0.092,0.106,0.13
			c0.042,0.039,0.042,0.078,0.062,0.118C4.496,3.634,4.535,3.682,4.56,3.717C4.583,3.756,4.561,3.78,4.562,3.833
			C4.564,3.89,4.635,3.89,4.688,3.904c0.051,0.009,0.165,0.083,0.246,0.122C5.016,4.062,4.958,4.076,4.911,4.105z M5.514,3.609
			c0.008,0.065-0.035,0.038-0.084,0.073c-0.027,0.02-0.04,0.012-0.054,0.004c-0.01-0.004-0.021-0.011-0.035-0.004
			C5.308,3.694,5.265,3.732,5.265,3.732C5.236,3.738,5.211,3.749,5.191,3.71C5.164,3.675,5.152,3.633,5.094,3.604
			C5.038,3.579,5.026,3.6,4.947,3.53C4.869,3.459,4.869,3.502,4.775,3.456c-0.091-0.051-0.01-0.085,0.025-0.129
			C4.833,3.282,4.856,3.342,4.95,3.41c0.096,0.066,0.075,0.01,0.104-0.024c0.029-0.034-0.015-0.048-0.107-0.099
			C4.856,3.24,4.917,3.215,4.951,3.172C4.987,3.131,5.025,3.151,5.07,3.117c0.011-0.006,0.021-0.01,0.031-0.01
			c0.028,0,0.045,0.033,0.09,0.062c0.056,0.039,0.07,0,0.111,0c0.042-0.003,0.012,0,0.069-0.024c0.059-0.02,0.059,0.005,0.104,0.05
			C5.52,3.239,5.468,3.224,5.391,3.267C5.311,3.31,5.339,3.334,5.395,3.363c0.055,0.028,0.046,0.039,0.102,0.064
			C5.55,3.453,5.522,3.457,5.514,3.501C5.502,3.545,5.505,3.545,5.514,3.609z M5.911,2.845C5.903,2.913,5.914,2.935,5.867,2.947
			C5.821,2.964,5.782,2.982,5.729,2.964c-0.055-0.02-0.117-0.01-0.156-0.07c0,0-0.058-0.048-0.008-0.081
			C5.613,2.775,5.604,2.74,5.673,2.74c0.043,0,0.059-0.03,0.083-0.03c0.012,0,0.025,0.009,0.047,0.027
			C5.869,2.795,5.919,2.781,5.911,2.845z M6.197,2.97C6.145,2.954,6.059,2.952,6.055,2.861c-0.006-0.093,0.057-0.059,0.012-0.14
			C6.02,2.636,5.959,2.564,5.869,2.562c-0.026,0-0.056,0.002-0.083,0.004C5.717,2.573,5.658,2.578,5.638,2.548
			c0,0,0.023-0.011-0.038-0.037C5.538,2.484,5.493,2.502,5.511,2.454c0.018-0.043-0.028-0.078,0.034-0.078
			c0.008,0,0.021,0,0.035,0.002c0.111,0.013,0.056,0.009,0.137,0.028c0.03,0.008,0.048,0.004,0.062,0
			c0.02-0.01,0.035-0.018,0.077,0.021C5.927,2.494,5.895,2.52,5.97,2.5c0.071-0.021-0.008-0.038,0.105-0.045
			c0.11-0.007,0.136,0.016,0.173,0.047c0.038,0.034,0.057,0.01,0.107,0.031c0.051,0.023,0.088,0.014,0.051,0.059
			C6.372,2.635,6.367,2.669,6.424,2.689c0.058,0.02,0.069,0.083,0.156,0.063c0.086-0.016,0.086,0.006,0.143,0.026
			c0.054,0.017,0.013,0.03,0.084-0.008c0.072-0.042,0.209-0.101,0.256-0.092c0.028,0.005,0.035,0.003,0.055,0
			c0.015-0.002,0.038-0.002,0.082-0.002c0.025,0.001,0.05,0,0.072,0c0.064,0,0.109-0.002,0.149,0.026
			c0.051,0.043,0.115,0,0.131,0.089c0.014,0.085,0.117,0.098,0.02,0.155C7.477,2.999,7.467,3.04,7.335,2.999
			c-0.136-0.037-0.104-0.083-0.19-0.042C7.056,2.995,7.05,3.02,6.937,3.014c-0.04,0-0.075,0-0.102,0.006
			C6.789,3.023,6.75,3.03,6.701,3.012C6.621,2.988,6.557,2.946,6.52,2.947C6.481,2.947,6.25,2.988,6.197,2.97z M7.283,5.553
			C7.256,5.561,7.239,5.59,7.222,5.607c-0.04,0.041-0.103,0.03-0.146,0.006c-0.044-0.024-0.011-0.038,0.011-0.06
			C7.104,5.531,7.12,5.518,7.12,5.491c0-0.023,0.04,0,0.072,0.01c0.033,0.006,0.02-0.011,0.059-0.031
			c0.01-0.002,0.018-0.006,0.025-0.006c0.017,0,0.023,0.019,0.044,0.036C7.346,5.527,7.311,5.549,7.283,5.553z M7.446,5.395
			c-0.083-0.029-0.08-0.041-0.129-0.053C7.269,5.33,7.253,5.345,7.224,5.307C7.192,5.262,7.117,5.215,7.117,5.26
			c0.002,0.042,0.025,0.099-0.036,0.106C7.022,5.37,6.965,5.507,6.907,5.455c-0.031-0.028-0.05-0.023-0.034-0.056
			c0.018-0.033,0.054-0.044,0.01-0.053c-0.043-0.011-0.07-0.03-0.107-0.007C6.74,5.354,6.743,5.41,6.704,5.379
			C6.666,5.345,6.595,5.338,6.68,5.307C6.768,5.276,6.799,5.293,6.792,5.26c-0.008-0.035-0.07-0.056-0.031-0.083
			c0.041-0.027,0.027-0.174,0.057-0.208c0.026-0.025-0.012-0.066,0.011-0.066c0,0,0.018,0,0.035,0.011
			c0.084,0.037,0.051,0.056,0.11,0.09c0.024,0.014,0.03,0.011,0.041,0.002C7.026,5.002,7.036,4.995,7.081,5.03
			C7.16,5.096,7.168,5.098,7.242,5.131c0.07,0.032,0.083,0.02,0.104,0.074c0.02,0.055,0.042,0.032,0.096,0.062
			C7.495,5.293,7.531,5.423,7.446,5.395z M9.841,4.738C9.811,4.834,9.81,4.917,9.7,4.921C9.59,4.922,9.662,5.198,9.549,5.075
			C9.437,4.948,9.366,5.021,9.366,4.948c0-0.07-0.076-0.048-0.12-0.102C9.2,4.799,9.124,4.736,9.126,4.811
			c0.002,0.076-0.121,0.041-0.047,0.113C9.152,4.998,9.168,4.975,9.212,5.06c0.044,0.083,0.052,0.06,0.13,0.146
			c0.083,0.085,0.109,0.147,0.083,0.218C9.398,5.491,9.47,5.575,9.366,5.52c-0.05-0.028-0.077-0.028-0.1-0.028
			C9.242,5.495,9.223,5.495,9.183,5.458C9.106,5.39,8.914,5.277,8.962,5.354c0.048,0.078,0.153,0.141,0.229,0.19
			c0.078,0.049,0.19,0.163,0.069,0.14C9.136,5.666,9.037,5.65,8.962,5.631c-0.075-0.02-0.368-0.113-0.384-0.214
			C8.564,5.31,8.543,5.327,8.51,5.323C8.479,5.318,8.383,5.291,8.32,5.21C8.29,5.166,8.255,5.185,8.223,5.202
			c-0.029,0.014-0.056,0.033-0.07,0c0,0-0.023-0.067-0.088-0.02C8.004,5.229,7.934,5.26,7.857,5.221
			C7.782,5.178,7.758,5.143,7.811,5.076C7.866,5.008,7.894,4.964,7.987,5c0.091,0.037,0.1,0.048,0.173,0.02
			c0.078-0.031,0.22,0.003,0.178-0.057C8.295,4.903,8.234,4.903,8.287,4.835c0.056-0.07,0.155-0.147,0.198-0.182
			c0.043-0.033,0.05-0.039-0.009-0.115C8.419,4.466,8.333,4.413,8.255,4.337c-0.078-0.078-0.091-0.081-0.13-0.081
			C8.086,4.259,8.03,4.357,8,4.319C7.969,4.285,7.923,4.252,7.978,4.234c0.03-0.007,0.048-0.007,0.062-0.007s0.024,0,0.035-0.008
			c0.026-0.019,0.071-0.029,0-0.056C8.003,4.143,7.919,4.121,7.882,4.066C7.847,4.013,7.727,3.905,7.701,3.957
			C7.678,4.006,7.755,4.08,7.654,4.064c-0.099-0.018-0.17-0.043-0.211-0.037s0.04,0.051,0,0.054c-0.022,0-0.049-0.007-0.07-0.017
			C7.351,4.055,7.334,4.047,7.321,4.047c-0.023,0-0.037,0.039-0.074,0.02C7.21,4.042,7.046,4.026,6.982,4.043
			C6.916,4.061,6.805,4.041,6.769,3.98C6.752,3.95,6.695,3.957,6.638,3.962C6.575,3.967,6.51,3.976,6.491,3.937
			c-0.039-0.073-0.113-0.122-0.043-0.13C6.477,3.801,6.5,3.81,6.516,3.817c0.023,0.011,0.038,0.022,0.054,0
			c0.024-0.037-0.019-0.08-0.062-0.064C6.463,3.769,6.373,3.783,6.349,3.71C6.327,3.636,6.337,3.474,6.405,3.382
			c0.06-0.08,0.238-0.238,0.408-0.238c0.027,0,0.056,0.002,0.083,0.013C7.083,3.227,6.93,3.229,6.863,3.264
			C6.8,3.298,6.7,3.345,6.739,3.441C6.778,3.537,6.767,3.613,6.819,3.65c0.051,0.031,0.131,0.111,0.154,0.075
			C6.995,3.69,7.038,3.69,6.969,3.656C6.9,3.624,6.828,3.644,6.86,3.588c0.035-0.059,0.082-0.027,0.061-0.069
			s-0.066-0.02-0.073-0.086C6.847,3.367,7.004,3.229,7.113,3.202C7.222,3.178,7.38,3.138,7.419,3.281
			c0.037,0.135,0.098,0.146,0.064,0.21C7.453,3.557,7.432,3.639,7.481,3.603c0.049-0.036,0.009-0.067,0.081-0.067
			c0.075,0,0.079,0.032,0.117,0.017c0.039-0.012,0.07-0.153,0.208-0.126c0.139,0.028,0.21-0.005,0.295,0.093
			c0.083,0.096,0.083,0.219,0.195,0.207C8.492,3.717,8.625,3.678,8.65,3.761c0.026,0.081-0.039,0.072,0.06,0.093
			c0.098,0.02,0.302,0.021,0.262,0.083C8.933,4,8.911,4.026,8.975,4.007C9.038,3.994,9.025,3.916,9.07,3.99
			c0.043,0.072,0.024,0.072-0.009,0.123c-0.035,0.046,0.141,0.031,0.081,0.09c-0.06,0.063-0.223,0.131-0.09,0.148
			C9.182,4.372,9.16,4.355,9.258,4.456c0.104,0.104,0.165-0.007,0.271,0.129C9.589,4.663,9.604,4.656,9.62,4.65
			c0.008-0.006,0.018-0.011,0.043,0.02c0.029,0.031,0.076,0.026,0.115,0.022C9.824,4.691,9.858,4.685,9.841,4.738z M7.902,4.48
			c0.007-0.057,0.102-0.088,0.102-0.088c0.007,0,0.013,0,0.024,0c0.035,0,0.076,0.006,0.118,0.022
			c0.058,0.022,0.022,0.052,0.018,0.145c0,0.063-0.021,0.062-0.049,0.062c-0.012,0-0.024-0.003-0.037,0.004
			C8.04,4.639,7.938,4.618,7.901,4.592C7.861,4.565,7.896,4.54,7.902,4.48z M9.707,8.364c0,0-0.027-0.01-0.069-0.017
			C9.592,8.342,9.563,8.34,9.533,8.312c-0.03-0.027-0.05-0.034-0.038-0.056c0.012-0.017,0.008-0.051,0.022-0.051
			c0,0,0.007,0.003,0.015,0.008c0.036,0.028,0.028,0.042,0.062,0.059c0.033,0.02,0.086,0.021,0.103,0.036
			C9.716,8.323,9.773,8.392,9.707,8.364z M9.806,7.911c-0.062-0.005-0.2-0.056-0.238-0.08C9.531,7.807,9.485,7.784,9.485,7.784
			S9.416,7.753,9.478,7.749h0.003c0.062,0,0.138,0.021,0.179,0.044C9.702,7.818,9.78,7.832,9.796,7.858
			C9.817,7.885,9.869,7.917,9.806,7.911z M8.021,12.228c-0.044,0.018-0.063,0.047-0.13,0.035c0,0-0.163-0.056-0.088-0.079
			c0.044-0.014,0.064-0.023,0.083-0.023c0.012,0,0.024,0.002,0.044,0.01C7.983,12.19,8.065,12.208,8.021,12.228z M8.251,11.967
			c0,0-0.042,0.032-0.132,0.013c-0.088-0.023-0.103-0.002-0.149,0.018c-0.047,0.019-0.167,0.021-0.089-0.026
			c0.083-0.046,0.042-0.098-0.061-0.098c-0.103,0-0.047-0.044-0.099-0.095c-0.054-0.049-0.143,0.003-0.211-0.06
			c-0.029-0.028-0.051-0.024-0.07-0.018c-0.032,0.005-0.06,0.012-0.111-0.067c-0.056-0.055-0.129,0.025-0.161,0.067
			c-0.033,0.042-0.135,0.088-0.139,0.021c-0.005-0.069,0.132-0.157,0.23-0.157c0.032,0,0.067-0.002,0.106-0.002
			c0.076,0,0.169,0.012,0.303,0.089c0.234,0.131,0.093,0.07,0.292,0.135C8.143,11.848,8.321,11.937,8.251,11.967z M8.942,12.19
			c-0.136-0.012-0.188-0.016-0.239,0.023c-0.051,0.038-0.071,0.083-0.118,0.022c-0.048-0.065-0.153-0.035-0.205-0.021
			c-0.055,0.016-0.06,0.048-0.081,0.009c0,0-0.074-0.106,0.03-0.078c0.103,0.03,0.147,0.021,0.147-0.038
			c0-0.056-0.018-0.074-0.061-0.074c-0.039,0-0.052-0.054,0.032-0.06h0.008c0.084,0,0.145,0.034,0.216,0.034
			c0.074,0,0.068-0.046,0.178,0.048C8.962,12.144,9.081,12.202,8.942,12.19z M9.327,12.231c-0.043,0.007-0.178,0.03-0.183-0.004
			c0,0-0.013-0.054,0.058-0.046c0.028,0,0.054,0,0.075-0.006c0.018,0,0.032,0,0.042,0c0.015,0,0.023,0,0.024,0.008
			C9.352,12.203,9.371,12.223,9.327,12.231z M10.643,4.047c0,0,0.012-0.098,0.078-0.098c0.012,0,0.027,0,0.041,0.011
			c0.108,0.047,0.257,0.068,0.236,0.122c-0.026,0.055,0.012,0.082-0.104,0.101c-0.117,0.012-0.216,0.001-0.239-0.046
			C10.636,4.086,10.641,4.08,10.643,4.047z M10.886,8.232c-0.042,0.032-0.094,0.061-0.121,0.022
			c-0.028-0.039-0.022-0.043-0.025-0.082c-0.005-0.037,0.007-0.091-0.026-0.049c-0.034,0.039-0.01,0.063-0.076,0.091
			c-0.067,0.025-0.137,0.049-0.103,0.004c0.035-0.042,0.059-0.055,0.046-0.067c-0.007-0.007-0.008-0.003-0.015,0
			c-0.003,0.006-0.012,0.012-0.029-0.007c-0.017-0.015-0.03-0.009-0.046-0.003c-0.02,0.007-0.046,0.014-0.09,0
			c-0.094-0.03-0.128-0.053-0.189-0.027c-0.062,0.027-0.125,0.041-0.11,0c0.014-0.045-0.017-0.091,0.058-0.094
			c0,0,0.013,0.012,0.01-0.034c-0.009-0.047-0.012-0.045,0.017-0.065c0.026-0.02,0.02-0.074,0.071-0.122
			c0.05-0.05,0.136-0.293,0.217-0.296c0.046,0,0.081-0.013,0.102-0.013c0.013,0,0.02,0.007,0.013,0.031
			c-0.013,0.052-0.035,0.076-0.083,0.119c-0.05,0.047-0.1,0.122-0.06,0.107c0.04-0.012,0.078-0.013,0.107,0.046
			c0.029,0.059,0.046,0.09,0.089,0.07c0.048-0.021,0.138-0.052,0.152-0.005c0.014,0.051-0.005,0.078,0.01,0.099
			c0.014,0.014,0.078,0.007,0.059,0.052c-0.013,0.043-0.058,0.031-0.044,0.059c0.005,0.013,0.012,0.005,0.021,0.003
			c0.011-0.005,0.024-0.011,0.036,0.019C10.899,8.141,10.928,8.206,10.886,8.232z M1.239,7.421c-0.009,0-0.023-0.007-0.037-0.045
			C1.186,7.34,1.128,7.34,1.118,7.29c-0.01-0.049-0.083-0.07-0.083-0.11C1.035,7.134,1.004,7.083,1.073,7.083h0.013
			c0.06,0,0.099,0.002,0.099,0.065c0,0.07-0.034,0.098,0.006,0.129C1.23,7.308,1.203,7.314,1.225,7.343
			C1.243,7.373,1.314,7.421,1.239,7.421z"/>
	</g>
</g>
</svg>
