<?xml version="1.0" encoding="utf-8"?>
<!-- Generator: Adobe Illustrator 16.0.0, SVG Export Plug-In . SVG Version: 6.00 Build 0)  -->
<!DOCTYPE svg PUBLIC "-//W3C//DTD SVG 1.1//EN" "http://www.w3.org/Graphics/SVG/1.1/DTD/svg11.dtd" [
	<!ENTITY ns_extend "http://ns.adobe.com/Extensibility/1.0/">
	<!ENTITY ns_ai "http://ns.adobe.com/AdobeIllustrator/10.0/">
	<!ENTITY ns_graphs "http://ns.adobe.com/Graphs/1.0/">
	<!ENTITY ns_vars "http://ns.adobe.com/Variables/1.0/">
	<!ENTITY ns_imrep "http://ns.adobe.com/ImageReplacement/1.0/">
	<!ENTITY ns_sfw "http://ns.adobe.com/SaveForWeb/1.0/">
	<!ENTITY ns_custom "http://ns.adobe.com/GenericCustomNamespace/1.0/">
	<!ENTITY ns_adobe_xpath "http://ns.adobe.com/XPath/1.0/">
]>
<svg version="1.1" id="Capa_1" xmlns:x="&ns_extend;" xmlns:i="&ns_ai;" xmlns:graph="&ns_graphs;"
	 xmlns="http://www.w3.org/2000/svg" xmlns:xlink="http://www.w3.org/1999/xlink" x="0px" y="0px" width="35px" height="35px"
	 viewBox="0 0 35 35" enable-background="new 0 0 35 35" xml:space="preserve">
<metadata>
	<sfw  xmlns="&ns_sfw;">
		<slices></slices>
		<sliceSourceBounds  width="35" height="35" y="0" x="0" bottomLeftOrigin="true"></sliceSourceBounds>
	</sfw>
</metadata>
<g>
	<g>
		<path fill="#FFFFFF" d="M33.389,11.949c-0.289,0.041-0.168-0.229-0.371-0.301c-0.194-0.072-0.096,0.208-0.184,0.292
			c-0.051,0.046-0.076,0.046-0.113,0.045c-0.022-0.003-0.049-0.003-0.096,0.019c-0.102,0.049,0.051,0.145,0.051,0.145
			c0.152,0,0.17,0.083,0.271,0.199c0.107,0.116,0.08,0.032,0.318-0.07c0.239-0.095,0.182,0.162,0.389,0.208
			c0.205,0.045,0.195-0.144,0.428-0.297c0.039-0.019,0.062-0.033,0.09-0.038c-0.062-0.184-0.127-0.373-0.193-0.553
			c-0.02,0.04-0.043,0.085-0.062,0.116C33.811,11.884,33.678,11.914,33.389,11.949z"/>
	</g>
	<g>
		<path fill="#FFFFFF" d="M25.266,2.398c0.094-0.066,0.285-0.23,0.459-0.347c-0.053-0.033-0.104-0.061-0.162-0.088
			C25.346,2.224,25.104,2.5,25.266,2.398z"/>
	</g>
	<g>
		<path fill="#FFFFFF" d="M23.199,1.79c0.08,0.075,0.232-0.023,0.492-0.046c0.264-0.023,1.201-0.104,1.151,0
			c-0.045,0.11-0.561,0.227-0.342,0.217c0.194-0.003,0.396-0.158,0.599-0.232c-0.093-0.044-0.188-0.085-0.275-0.133
			c-0.053,0.006-0.094,0.01-0.137,0.006C24.416,1.591,23.123,1.708,23.199,1.79z"/>
	</g>
	<g>
		<path fill="#FFFFFF" d="M34.863,19.698c-0.289,2.247-1.008,4.362-2.066,6.258c-0.154-0.209-0.453-0.334-0.305-0.479
			c0.168-0.152,0-0.444,0.137-0.57c0.146-0.133,0.1-0.305-0.053-0.422c-0.158-0.125-0.379-0.189-0.572-0.117
			c-0.195,0.072-0.256-0.012-0.292-0.168c-0.032-0.155-0.267-0.326-0.796-0.25c-0.291,0.1-0.186,0.148-0.52,0.197
			c-0.326,0.045-0.088,0.219-0.489,0.086c-0.401-0.137-0.619,0.021-0.825,0.084c-0.209,0.06-0.409,0.092-0.645-0.219
			c-0.234-0.31-0.289-0.214-0.439-0.297c-0.146-0.08-0.213-0.046-0.324-0.443c-0.109-0.396-0.33-0.232-0.467-0.477
			c-0.137-0.248-0.305-0.126-0.305-0.338c0-0.204-0.053-0.421,0.037-0.581c0.092-0.166,0.02-0.293,0.104-0.414
			c0.084-0.125,0.03-0.554-0.072-0.69c-0.104-0.135-0.068-0.357,0.043-0.541c0.109-0.178,0.353-0.728,0.557-0.898
			c0.209-0.168,0.087-0.266,0.332-0.322c0.246-0.061,0.57-0.296,0.552-0.521c-0.022-0.228,0.133-0.76,0.44-0.777
			c0.312-0.014,0.324-0.57,0.451-0.524c0.129,0.046,0.092,0.159,0.271,0.133c0.174-0.024,0.288-0.052,0.424,0.04
			c0.071,0.051,0.151-0.074,0.312-0.199c0.146-0.105,0.338-0.213,0.646-0.213c0.657,0.007,0.543,0.071,0.757-0.022
			c0.21-0.087,0.407-0.048,0.53,0.015c0.051,0.03,0.147,0,0.239-0.028c0.068-0.021,0.133-0.035,0.187-0.035
			c0.049,0,0.083,0.012,0.101,0.054c0.057,0.165-0.021,0.177,0.004,0.255c0.028,0.077,0.197,0.091,0.016,0.294
			c-0.182,0.206-0.156,0.186,0.041,0.251c0.191,0.068,0.191,0.242,0.418,0.177c0.227-0.065,0.459,0.037,0.596,0.307
			c0.08,0.157,0.152,0.133,0.238,0.106c0.068-0.021,0.145-0.043,0.24,0.017c0.227,0.135,0.375,0.237,0.443,0.083
			c0.067-0.157-0.158-0.196,0.051-0.366c0.049-0.033,0.094-0.074,0.139-0.108C34.998,17.854,35,17.677,35,17.5
			c0-0.343-0.008-0.685-0.029-1.026c-0.051-0.072-0.104-0.141-0.119-0.208c-0.035-0.114-0.151-0.068-0.141-0.28
			c0.012-0.206,0.086-0.206,0.004-0.255c-0.084-0.057-0.318-0.19-0.467-0.278c-0.148-0.087-0.23-0.113-0.344-0.213
			c-0.113-0.099-0.074-0.161-0.166-0.27c-0.09-0.103-0.096-0.186-0.158-0.101c-0.059,0.089-0.074,0.149-0.111,0.038
			c-0.043-0.115-0.053-0.252-0.119-0.197c-0.062,0.059-0.16,0.005-0.16,0.114c0,0.116-0.129,0.141,0.045,0.273
			c0.179,0.133,0.214,0.155,0.261,0.272c0.047,0.113,0.104,0.202,0.198,0.251c0.093,0.054,0.343,0.084,0.312,0.13
			c-0.025,0.047-0.099,0.059-0.005,0.096c0.091,0.037,0.456,0.227,0.483,0.309c0.029,0.08,0.041,0.128-0.021,0.085
			c-0.068-0.043-0.102-0.104-0.178-0.122c-0.076-0.012-0.117-0.114-0.156-0.005c-0.038,0.101-0.084,0.096-0.002,0.179
			c0.082,0.09,0.16,0.088,0.119,0.149c-0.041,0.065-0.057,0.093-0.119,0.109c-0.055,0.024-0.084,0.061-0.122,0.12
			c-0.038,0.058-0.034,0.09-0.077,0.08c-0.041-0.009-0.092-0.068-0.102-0.003c-0.014,0.067,0.029,0.108-0.012,0.19
			c-0.043,0.08-0.092,0.114-0.16,0.064c-0.072-0.05-0.08-0.085-0.148-0.095c-0.068-0.01-0.104-0.028-0.162-0.06
			c-0.061-0.032-0.201-0.035-0.141-0.119c0.062-0.077,0.127-0.071,0.229-0.055c0.104,0.021,0.189,0.051,0.248,0.016
			c0.043-0.029,0.051-0.029,0.069-0.025c0.013,0,0.03,0,0.051-0.004c0.072-0.009,0.072,0.018,0.128-0.055
			c0.062-0.078,0.045-0.06,0.047-0.19c0.004-0.139,0.019-0.161-0.07-0.216c-0.09-0.058-0.231-0.227-0.514-0.317
			c-0.279-0.086-0.506-0.394-0.599-0.56c-0.095-0.176-0.278-0.318-0.405-0.234c-0.132,0.086-0.33,0.312-0.51,0.301
			c-0.179-0.02-0.539-0.14-0.627-0.01c-0.094,0.134-0.381,0.524-0.5,0.557c-0.127,0.042-0.338,0.342-0.259,0.471
			c0.083,0.135,0.007,0.177-0.095,0.276c-0.099,0.091-0.211,0.201-0.275,0.28c-0.066,0.077-0.055,0.095-0.227,0.07
			c-0.18-0.023-0.394-0.003-0.453,0.076c-0.055,0.076-0.086,0.174-0.174,0.097c-0.091-0.074-0.076-0.176-0.182-0.229
			c-0.064-0.034-0.132-0.024-0.199-0.014c-0.041,0.002-0.087,0.012-0.132,0.009c-0.125-0.009-0.188-0.02-0.137-0.2
			c0.054-0.188-0.205-0.238-0.103-0.38c0.103-0.14,0.103-0.247,0.142-0.414c0.028-0.169-0.16-0.316-0.046-0.479
			c0.119-0.164,0.066-0.25,0.244-0.243c0.172,0.014,0.176,0.105,0.386,0.059c0.204-0.049,0.323-0.026,0.471,0.007
			c0.152,0.025,0.31,0.108,0.442-0.021c0.132-0.124,0.138-0.545,0.078-0.696c-0.051-0.149-0.135-0.183-0.188-0.282
			c-0.053-0.095-0.102-0.115-0.221-0.129c-0.029,0-0.061,0-0.092,0c-0.082,0-0.156,0-0.183-0.083
			c-0.032-0.111-0.012-0.229,0.104-0.247c0.113-0.016,0.09-0.03,0.262,0c0.172,0.028,0.223,0.018,0.246-0.084
			c0.027-0.105-0.053-0.13,0.08-0.117c0.129,0.007,0.197,0.065,0.309,0c0,0,0.23-0.086,0.32-0.243
			c0.086-0.16,0.068-0.128,0.195-0.181c0.133-0.05,0.172-0.072,0.276-0.16c0.109-0.092-0.022,0.013,0.115-0.174
			c0.144-0.188,0.205-0.354,0.365-0.354c0.163,0,0.118,0.022,0.209-0.022c0.09-0.048,0.067-0.064,0.172-0.046
			c0.104,0.017,0.11,0.106,0.164-0.064c0.053-0.174,0.002-0.196,0.053-0.266c0.058-0.071-0.205-0.111-0.169-0.428
			c0.032-0.317,0.032-0.237,0.232-0.344c0.197-0.112,0.277-0.194,0.361-0.106c0.088,0.091,0.139,0.242,0.146,0.127
			c0.01-0.108-0.195-0.208-0.119-0.325c0.072-0.116,0.162-0.103,0.064-0.226c-0.101-0.118-0.101-0.3-0.168-0.161
			c-0.064,0.133-0.086,0.119-0.174,0.165c-0.093,0.055-0.164,0.173-0.269,0.234c-0.104,0.062-0.138,0.177-0.304,0.06
			c-0.164-0.124-0.407-0.124-0.325-0.225c0.079-0.104,0.151-0.104,0.094-0.155c-0.024-0.021-0.058-0.017-0.086-0.01
			c-0.039,0-0.062,0.004-0.058-0.037c0.013-0.082,0.074-0.031,0.067-0.106c-0.005-0.074-0.147-0.087-0.079-0.148
			c0.074-0.066,0.184-0.095,0.094-0.146c-0.094-0.049-0.223-0.049-0.114-0.272c0.106-0.219,0.004-0.202,0.237-0.323
			c0.231-0.12,0.201-0.133,0.392-0.246c0.174-0.106,0.379-0.228,0.592-0.412c-1.467-2.657-3.601-4.891-6.178-6.482
			c-0.13,0.015-0.247,0.011-0.332-0.013c-0.136-0.041-0.242,0-0.239,0.082c0.005,0.091-0.029,0.043,0.157,0.011
			c0.192-0.031,0.489-0.083,0.432,0.022c-0.063,0.105-0.104,0.146-0.266,0.152c-0.156,0.007-0.272,0-0.205,0.094
			c0.067,0.092,0.292,0.134,0.149,0.168c-0.137,0.037-0.043,0.113-0.182,0.137c-0.139,0.028-0.193,0.014-0.252,0.179
			c-0.054,0.16-0.229,0.328-0.096,0.301c0.121-0.024,0.129-0.088,0.273-0.028c0.141,0.06,0.409,0.137,0.196,0.133
			c-0.21,0-0.373-0.037-0.205,0.037c0.164,0.069,0.242-0.017,0.354,0.088c0.105,0.103,0.334,0.257,0.082,0.258
			c-0.254,0-0.422-0.094-0.557,0.003c-0.14,0.083-0.295,0.168-0.14,0.219c0.155,0.051,0.465,0.06,0.362,0.102
			c-0.096,0.048-0.225,0.037-0.118,0.088c0.104,0.053,0.376,0.18,0.196,0.242c-0.082,0.026-0.149,0.004-0.205-0.013
			c-0.061-0.022-0.098-0.04-0.104,0.005c-0.009,0.09-0.052,0.166,0.061,0.219c0.113,0.051,0.463,0.18,0.285,0.206
			c-0.181,0.021-0.209,0.04-0.285-0.026c-0.076-0.062-0.193-0.118-0.232-0.019c-0.037,0.1-0.15,0.151,0.021,0.178
			c0.174,0.029,0.354,0.121,0.248,0.183c-0.105,0.067-0.334,0.223-0.467,0.132c-0.132-0.09-0.281-0.226-0.38-0.154
			c-0.103,0.076-0.35,0.135-0.26,0.229c0.088,0.089,0.021,0.106,0.213,0.216c0.197,0.11,0.444,0.226,0.479,0.369
			c0.037,0.14,0.183-0.022,0.156,0.186c-0.021,0.194-0.018,0.308-0.197,0.282c-0.174-0.023-0.282-0.074-0.379-0.198
			c-0.094-0.119-0.084-0.232-0.223-0.14c-0.137,0.098-0.25,0.081-0.414,0.154c-0.164,0.069-0.49,0.13-0.214,0.201
			c0.157,0.046,0.241,0.032,0.342,0.024c0.073-0.011,0.153-0.024,0.278-0.011c0.293,0.027,0.691,0.046,0.584,0.162
			c-0.098,0.106-0.197,0.267-0.402,0.304c-0.209,0.028-0.438,0.236-0.781,0.256c-0.344,0.015-0.447,0.145-0.69,0.151
			c-0.244,0.002-0.31,0.191-0.467,0.389c-0.16,0.201-0.804,0.502-0.835,0.381c-0.032-0.121-0.09-0.016-0.143,0.068
			c-0.053,0.082-0.232,0.026-0.354,0.18C21.784,8.922,21.564,8.854,21.7,8.94c0.13,0.092-0.117,0.106-0.05,0.228
			c0.068,0.124,0.056,0.353-0.096,0.392c-0.15,0.04-0.219,0.033-0.168,0.234c0.047,0.195-0.055,0.656-0.25,0.668
			c-0.197,0.015-0.223,0.114-0.348,0.011c-0.127-0.102-0.115-0.18-0.268-0.174c-0.152,0.001-0.234,0.087-0.396-0.069
			c-0.162-0.162-0.812-0.832-0.705-0.968c0.099-0.137,0.233-0.321,0.097-0.26c-0.142,0.057-0.158,0.332-0.22,0.123
			c-0.059-0.213,0.004-0.299-0.112-0.362C19.07,8.69,18.842,8.503,19,8.391c0.158-0.12,0.285-0.062,0.09-0.165
			c-0.193-0.104-0.246-0.216-0.117-0.394c0.131-0.177,0.234-0.259,0.351-0.245c0.112,0.009,0.036-0.172,0.188-0.305
			c0.164-0.133,0.289-0.213,0.057-0.222c-0.086-0.007-0.11,0.014-0.125,0.031c-0.024,0.033,0,0.071-0.149-0.027
			c-0.244-0.146-0.688-0.232-0.465-0.289c0.229-0.057,0.229-0.025,0.424,0.032c0.196,0.057,0.386,0.038,0.215-0.086
			c-0.168-0.124-0.323-0.496-0.471-0.366c-0.149,0.136-0.236,0.334-0.343,0.182c-0.106-0.151-0.23-0.173-0.086-0.339
			c0.144-0.18,0.041-0.38-0.09-0.604c-0.129-0.21-0.276-0.087-0.237-0.239c0.036-0.149,0.03-0.137-0.164-0.29
			c-0.195-0.153-0.174-0.142-0.246-0.286c-0.08-0.146-0.66-0.362-1.133-0.3c-0.475,0.051-0.394,0.099-0.64,0.066
			c-0.245-0.027-0.599-0.016-0.487-0.118c0.105-0.106,0.334-0.196,0.146-0.196c-0.187,0-0.692-0.019-0.542-0.136
			c0.16-0.113,0.205-0.11,0.365-0.104c0.158,0.001,0.551,0.104,0.609-0.007c0.057-0.109,0.101-0.215-0.062-0.146
			c-0.166,0.068-0.197,0.124-0.447,0.064c-0.254-0.064-0.398-0.022-0.578-0.137c-0.182-0.112-0.422-0.217,0.004-0.35
			c0.43-0.125,0.487-0.292,0.977-0.274c0,0,0.35,0.041,0.451-0.219c0,0-0.047-0.051,0.055-0.119
			c0.107-0.068,0.094-0.121-0.012-0.121c-0.107,0-0.387,0.098-0.473,0.021c-0.09-0.085-0.115-0.12,0.039-0.196
			c0.156-0.073,0.254-0.129,0.335-0.207c0.086-0.088,0.159-0.144,0.272-0.135c0.11,0.015,0.305,0.109,0.424,0.078
			c0.115-0.036,0.172-0.022,0.096-0.14c-0.061-0.121-0.014-0.11,0.037-0.148c0.051-0.034-0.176-0.126,0.006-0.154
			c0.084-0.013,0.152-0.001,0.203,0.006c0.062,0.009,0.098,0.022,0.098-0.007c0.01-0.059-0.062-0.036-0.033-0.086
			c0.027-0.053,0.725-0.159,0.88-0.159c0.159,0.004,0.351,0.057,0.321,0.164c-0.035,0.105-0.167,0.16-0.057,0.16
			c0.106,0,0.039-0.066,0.176-0.115c0.141-0.049,0.436-0.067,0.58-0.004c0.141,0.064,0.293,0.107,0.209,0.023
			c-0.088-0.086-0.482-0.3-0.308-0.342c0.175-0.05,0.902,0.128,1.25,0.366c0.216,0.094,0.099-0.044,0.056-0.105
			c-0.041-0.061,0.059-0.163,0.19-0.163c0.134-0.005-0.428-0.201-0.31-0.273c0.125-0.07-0.102-0.084,0.058-0.15
			c0.158-0.059,0.252-0.229,0.479-0.11c0.229,0.117,0.594,0.287,0.713,0.179c0.062-0.057,0.143-0.057,0.195-0.048
			c0.049,0,0.071,0,0.03-0.045c-0.09-0.099-0.28-0.082-0.133-0.139c0.09-0.039,0.178-0.031,0.267-0.028
			c0.049,0.003,0.102,0.007,0.146,0c0.127-0.018-0.093-0.094,0.153-0.094c0.082,0,0.256,0.011,0.467,0.018
			C21.203,0.296,19.385,0,17.5,0C13.433,0,9.684,1.39,6.715,3.714C6.812,3.729,6.873,3.732,6.82,3.759
			C6.732,3.801,6.875,3.86,6.789,3.915c-0.08,0.058-0.16,0.034-0.27,0.065C6.438,4.009,6.387,4.033,6.334,4.022
			C6.162,4.166,5.992,4.314,5.826,4.467c0.01,0,0.023,0.01,0.045,0.021c0.064,0.026,0.072,0.02,0.08,0.009
			c0.014-0.014,0.026-0.023,0.133,0.029C6.281,4.622,6.242,4.6,6.301,4.678c0.057,0.079,0.087,0.121,0.17,0.115
			c0.041,0,0.062,0.011,0.084,0.019c0.027,0.011,0.056,0.026,0.119,0.02c0.115-0.009,0.229-0.015,0.265-0.039
			c0.034-0.026,0.095-0.029,0-0.077C6.84,4.667,6.875,4.662,6.896,4.603c0.012-0.071,0.078-0.087-0.008-0.092
			c-0.031,0-0.064,0.009-0.096,0.018c-0.06,0.013-0.116,0.03-0.122-0.018C6.652,4.442,6.582,4.419,6.691,4.398
			c0.098-0.02,0.076-0.11,0.229-0.11h0.015C7.106,4.293,7.106,4.279,7.12,4.365C7.131,4.451,7.131,4.52,7.188,4.573
			c0.055,0.056,0.078,0.12,0.148,0.089c0.023-0.01,0.035-0.004,0.045-0.002c0.012,0.007,0.023,0.011,0.08-0.012
			C7.564,4.603,7.6,4.569,7.633,4.658C7.674,4.74,7.737,4.737,7.694,4.849C7.652,4.954,7.66,5.04,7.557,5.061
			C7.455,5.08,7.422,5.066,7.317,5.062C7.212,5.061,7.17,5.009,7.066,5.04C6.965,5.073,6.988,5.054,6.889,5.103
			c-0.1,0.048-0.123-0.007-0.236,0.06c-0.111,0.068-0.051,0.09-0.154,0.11C6.396,5.297,6.355,5.318,6.242,5.294
			C6.197,5.285,6.15,5.286,6.104,5.286C6.027,5.294,5.957,5.297,5.896,5.252c0,0-0.162-0.099-0.033-0.106
			c0.133-0.011,0.172-0.047,0.299-0.033c0.125,0.011,0.137,0.022,0.211-0.024c0.074-0.045,0.174-0.058,0.078-0.073
			c-0.094-0.026,0-0.075-0.17-0.022c-0.168,0.05-0.228,0.06-0.267,0.031C5.977,4.998,5.969,4.979,5.969,4.938
			C5.967,4.895,5.959,4.785,5.91,4.889C5.863,4.987,5.89,5.054,5.787,5.057c-0.102,0-0.092,0.016-0.164-0.014
			C5.586,5.031,5.582,5.031,5.574,5.04C5.562,5.044,5.547,5.054,5.469,5.031C5.412,5.02,5.361,5.02,5.32,5.023
			C5.285,5.027,5.256,5.027,5.234,5.017c-0.146,0.15-0.293,0.291-0.436,0.441C4.91,5.533,4.891,5.419,5.047,5.351
			C5.08,5.334,5.115,5.327,5.145,5.327c0.096,0,0.164,0.081,0.259,0.158C5.526,5.581,5.534,5.6,5.598,5.713
			c0.038,0.062-0.016,0.053-0.09,0.048C5.453,5.756,5.389,5.755,5.33,5.774C5.205,5.826,5.131,5.898,5,5.967
			c-0.137,0.061-0.162,0.044-0.268,0.12C4.628,6.166,4.59,6.188,4.564,6.339c-0.023,0.154-0.09,0.223-0.205,0.223
			c-0.118,0-0.287,0.084-0.287,0.084c-0.166,0.011-0.115-0.103-0.18-0.129L3.881,6.513c-0.197,0.24-0.385,0.495-0.574,0.752
			C3.32,7.282,3.334,7.301,3.348,7.319c0.131,0.176,0.08-0.198,0.223-0.255C3.713,7.01,3.709,7.272,3.824,7.356
			c0.115,0.081,0.109-0.08,0.109-0.08c0.008-0.155,0.164-0.11,0.164-0.11c0.178,0.025,0.308,0.075,0.432,0.138
			c0.119,0.068,0.383,0.075,0.498,0.15c0.115,0.074,0.289,0.102,0.438,0.062c0.152-0.051,0.171-0.031,0.33,0.095
			C5.947,7.748,5.826,7.72,5.674,7.796C5.529,7.88,6.031,8.024,6.251,7.974c0.22-0.049,0.235-0.014,0.378-0.071
			c0.148-0.055,0.217,0.005,0.389,0.1c0.172,0.091,0.148,0.155,0.25,0.269c0.104,0.12,0.176-0.114,0.023-0.257
			c-0.145-0.153,0-0.105,0.176-0.205c0.166-0.1,0.314-0.142,0.359-0.078c0.047,0.064,0.209,0.06,0.375,0.084
			c0.169,0.029,0.268,0.1,0.396,0.129C8.666,7.96,8.795,7.949,8.921,7.94C9.023,7.925,9.122,7.916,9.16,7.925
			c0.086,0.015,0.148,0,0.115-0.078c-0.029-0.068,0-0.1,0.078-0.137c0.078-0.04,0.145-0.081-0.047-0.172
			C9.113,7.44,9.221,7.405,9.293,7.288c0.072-0.122,0.162-0.134,0.244-0.059c0.082,0.072,0.252,0.15,0.291,0.236
			c0.041,0.084,0.025,0.118-0.055,0.164C9.691,7.67,9.656,7.642,9.627,7.71C9.607,7.748,9.66,7.739,9.719,7.732
			c0.036,0,0.078-0.009,0.109,0c0.08,0.025-0.033,0.145-0.061,0.261c-0.03,0.111,0.064,0.093,0.137,0.149
			c0.068,0.061,0.094-0.069,0.023-0.189c-0.072-0.12,0.125-0.142,0.207-0.172c0.076-0.034,0.148-0.181,0.072-0.219
			c-0.072-0.042,0.1-0.064,0.039-0.147c-0.064-0.089,0.008-0.165-0.131-0.155c-0.137,0.009-0.2-0.049-0.2-0.049
			C9.656,7.053,9.854,7.01,9.773,6.876C9.637,6.713,9.771,6.517,9.877,6.434c0.113-0.081,0.17-0.232,0.061-0.361
			C9.829,5.943,9.934,5.814,9.889,5.65c-0.035-0.162,0.076-0.104,0.203-0.191c0.041-0.031,0.086-0.039,0.131-0.039
			c0.034,0,0.07,0.004,0.104,0.011c0.058,0.007,0.109,0.017,0.17,0.007c0.145-0.024,0.389,0.021,0.498,0.086
			c0.105,0.066-0.252,0.205-0.277,0.338c-0.022,0.128-0.248,0.146-0.342,0.095c-0.09-0.051-0.155,0.011-0.092,0.083
			c0.061,0.079,0.016,0.137-0.078,0.25c-0.092,0.113,0.07,0.206,0.22,0.293c0.147,0.083,0.091,0.168,0.183,0.277
			c0.094,0.117,0.137,0.145,0.055,0.215c-0.082,0.07-0.049,0.075-0.023,0.159c0.014,0.043,0.045,0.035,0.092,0.022
			c0.045-0.004,0.096-0.013,0.156,0.011c0.137,0.054,0.131,0.305,0.115,0.436c-0.017,0.122,0.117,0.031,0.141-0.206
			c0.021-0.241,0.25-0.055,0.345,0.023c0.091,0.077,0.104,0.136-0.003,0.22s0.08,0.271,0.08,0.271
			c0.049,0.076,0.036,0.217,0.141,0.137c0.162-0.263,0.273-0.173,0.303-0.358c0.016-0.329,0.25-0.212,0.102-0.373
			c-0.146-0.161,0.089-0.202,0.226-0.241c0.14-0.035,0.308,0.012,0.401,0.061c0.104,0.047,0.113,0.129,0.18,0.246
			c0.07,0.115-0.047,0.157-0.17,0.188c-0.123,0.033,0.145,0.206,0.211,0.33c0.065,0.12-0.148,0.254-0.25,0.331
			c-0.111,0.071-0.231,0.031-0.231,0.1c0,0.048-0.123,0.048-0.223,0.048c-0.045,0-0.086-0.004-0.105,0.007
			c-0.087,0.006-0.031-0.045-0.091-0.089c-0.06-0.039-0.138-0.029-0.224,0.018c-0.084,0.043,0.17,0.06,0.109,0.143
			c-0.061,0.087-0.187,0.183-0.281,0.217c-0.094,0.028-0.121,0.031-0.02,0.057c0.104,0.022,0.068,0.051,0.02,0.158
			c-0.047,0.116-0.32,0.157-0.402,0.258c-0.087,0.093-0.297,0.162-0.377,0.154c-0.083-0.012-0.117,0.003-0.02,0.073
			c0.092,0.076-0.078,0.182-0.143,0.208c-0.062,0.02-0.035-0.019-0.096,0.105c-0.059,0.119-0.314,0.375-0.447,0.52
			c-0.135,0.146-0.111,0.411-0.111,0.52c-0.002,0.12,0.031,0.155,0.209,0.155c0.178,0,0.225,0.241,0.27,0.368
			c0.039,0.119-0.053,0.156,0.072,0.144c0.266-0.043,0.463,0.048,0.661,0.082c0.202,0.03,0.632,0.331,0.771,0.42
			c0.141,0.085,0.537,0.07,0.654,0.105c0.115,0.038,0.096,0.359,0.096,0.553c-0.002,0.192,0.207,0.287,0.352,0.479
			c0.138,0.188,0.281,0.013,0.35-0.06c0.07-0.069,0.084-0.31-0.003-0.476c-0.091-0.159-0.05-0.173-0.103-0.314
			c-0.047-0.142,0.352-0.244,0.447-0.316c0.098-0.079,0.145-0.219,0.152-0.413c0.004-0.193-0.096-0.321-0.262-0.444
			c-0.171-0.125-0.012-0.319,0.027-0.398c0.047-0.073,0.074-0.221-0.03-0.341c-0.1-0.122,0.097-0.06,0.017-0.232
			c-0.09-0.17-0.068-0.252-0.076-0.331c-0.004-0.079,0.215-0.126,0.373-0.021c0.16,0.104,0.283,0.091,0.457,0.055
			c0.17-0.038,0.193-0.002,0.251,0.061c0.056,0.053,0.329,0.232,0.405,0.329c0.072,0.098,0.225,0.08,0.305,0.041
			c0.074-0.037,0.068,0.05,0.014,0.167c-0.053,0.117,0.084,0.306,0.084,0.425c0,0.118,0.238,0.186,0.357,0.236
			c0.119,0.057,0.293-0.127,0.395-0.224c0.102-0.101,0.102-0.222,0.205-0.351c0.107-0.126,0.176,0.104,0.217,0.241
			c0.041,0.142,0.242,0.283,0.324,0.426c0.086,0.143,0.236,0.228,0.143,0.409c-0.092,0.177,0.254,0.273,0.314,0.383
			c0.055,0.11,0.301,0.161,0.482,0.247c0.185,0.082,0.04,0.285,0.209,0.29c0.168,0,0.358,0.237,0.272,0.428
			c-0.084,0.19-0.241,0.218-0.391,0.238c-0.134,0.017-0.273,0.068-0.434,0.227c-0.158,0.162-0.365,0.105-0.553,0.087
			c-0.19-0.017-0.715,0-0.807,0c-0.014,0-0.026,0-0.037-0.002c-0.072-0.001-0.133-0.011-0.232,0.133
			c-0.113,0.161-0.304,0.25-0.383,0.312c-0.084,0.06-0.381,0.394-0.426,0.485c-0.047,0.086,0.071,0.034,0.273-0.195
			c0.199-0.221,0.541-0.345,0.664-0.413c0.127-0.068,0.346-0.077,0.424,0.019c0.086,0.091,0.086,0.164-0.035,0.244
			c-0.119,0.074-0.184,0.006-0.26,0.006c-0.074,0-0.025,0.034,0.061,0.082c0.088,0.045,0.119,0.032,0.157,0.185
			c0.042,0.158-0.027,0.09,0.026,0.145c0.057,0.054,0.092,0.073,0.17,0.146c0.084,0.067,0.176,0.091,0.244,0.083
			c0.068-0.011,0.102-0.011,0.234,0.015c0.133,0.023,0.062-0.053,0.146-0.166c0.082-0.117,0.067-0.15,0.143-0.18
			c0.07-0.025,0.061,0.124,0.109,0.262c0.051,0.134-0.125,0.104-0.215,0.114c-0.092,0.003-0.076,0.047-0.176,0.141
			c-0.1,0.097-0.367,0.118-0.471,0.146c-0.104,0.035-0.117,0.14-0.212,0.231c-0.089,0.086-0.179,0.005-0.224-0.086
			c-0.046-0.085,0.135-0.249,0.238-0.306c0.109-0.053,0.135-0.233,0.039-0.136c-0.092,0.098-0.449,0.104-0.482,0.187
			c-0.032,0.09-0.119,0.074-0.285,0.157c-0.16,0.083-0.281,0.02-0.376,0.198c-0.093,0.181-0.183,0.252-0.513,0.575
			c-0.332,0.323-0.391,0.524-0.441,0.566c-0.053,0.045-0.061,0.041-0.145,0.011c-0.082-0.036-0.082,0.014-0.045,0.082
			c0.033,0.074,0.019,0.11-0.043,0.235c-0.037,0.077-0.059,0.053-0.078,0.024c-0.012-0.009-0.023-0.03-0.043-0.009
			c-0.049,0.037,0.047,0.236,0.02,0.47c-0.029,0.232-0.211,0.21-0.365,0.399c-0.146,0.184-0.174,0.028-0.352,0.224
			c-0.178,0.188-0.328,0.283-0.383,0.453c-0.055,0.168-0.137,0.188-0.041,0.407c0.139,0.196,0.191,0.444,0.24,0.599
			c0.051,0.156,0.057,0.354-0.045,0.467c-0.109,0.112-0.244-0.153-0.352-0.285c-0.1-0.135-0.16-0.309-0.153-0.448
			c0.007-0.144-0.171-0.533-0.403-0.36c-0.131,0.102-0.178,0.038-0.225-0.02c-0.041-0.044-0.07-0.094-0.145-0.059
			c-0.09,0.039-0.15,0.004-0.197-0.033c-0.047-0.032-0.079-0.067-0.124-0.032c-0.087,0.08-0.083,0.056-0.206,0.056
			c-0.119,0-0.113,0.028-0.141,0.182c-0.014,0.098-0.025,0.08-0.049,0.066c-0.015-0.016-0.041-0.029-0.074-0.005
			c-0.09,0.06-0.114,0.035-0.215,0.019c-0.102-0.014-0.082-0.142-0.17-0.123c-0.094,0.018-0.121,0.074-0.23,0.018
			c-0.104-0.045-0.172-0.072-0.291,0.037c-0.121,0.109-0.252,0.189-0.436,0.236c-0.186,0.054-0.316,0.117-0.266,0.283
			c0.053,0.166,0.117,0.356,0.021,0.432c-0.098,0.074-0.162,0.447-0.064,0.647c0.1,0.205,0.117,0.453,0.215,0.554
			c0.098,0.104,0.096,0.271,0.277,0.32c0.182,0.055,0.25,0.165,0.354,0.11c0.109-0.056,0.273-0.089,0.388-0.046
			c0.118,0.046,0.208,0.016,0.306-0.314c0.101-0.322,0.199-0.265,0.381-0.371c0.18-0.105,0.33-0.033,0.416,0.024
			c0.082,0.067-0.149,0.282-0.146,0.419c0.003,0.138-0.142,0.146-0.114,0.257c0.023,0.104-0.082,0.383-0.127,0.493
			c-0.047,0.111,0.496,0.12,0.647,0.057c0.151-0.06,0.277,0.006,0.458,0.123c0.17,0.115-0.094,0.36,0,0.497
			c0.092,0.142,0,0.302,0,0.415c0,0.114,0.068,0.158,0.18,0.293c0.113,0.135,0.084,0.04,0.242,0.157
			c0.16,0.118,0.282,0.012,0.422-0.091c0.138-0.104,0.361,0.059,0.512,0.188c0.154,0.127,0.354-0.144,0.348-0.275
			c0-0.131,0.086-0.117,0.217-0.258c0.062-0.074,0.143-0.074,0.223-0.074c0.08,0,0.16,0,0.211-0.071
			c0.107-0.146,0.127-0.133,0.244-0.16c0.115-0.034,0.08,0.072,0.01,0.146c-0.068,0.074,0.021,0.109,0.109,0.168
			c0.08,0.063,0.179-0.039,0.145-0.135c-0.031-0.097,0.039-0.141,0.09-0.092c0.057,0.049,0.084,0.139,0.209,0.131
			c0.127-0.014,0.111,0.075,0.214,0.178c0.054,0.051,0.142,0.031,0.224,0.019c0.076-0.021,0.141-0.036,0.17,0
			c0.061,0.067,0.164,0.126,0.354,0.058c0.186-0.066,0.123-0.045,0.453,0.037c0.336,0.079,0.272,0.258,0.385,0.331
			c0.115,0.066,0.211-0.018,0.4,0.237c0.188,0.258,0.231,0.329,0.688,0.352c0.457,0.023,0.595,0.18,0.804,0.283
			c0.209,0.108,0.09,0.33,0.264,0.514c0.166,0.185,0.054,0.264-0.123,0.478c-0.103,0.128,0.05,0.097,0.214,0.071
			c0.116-0.021,0.245-0.047,0.293-0.012c0.116,0.088-0.164,0.246-0.005,0.239c0.155-0.012,0.035-0.208,0.414-0.146
			c0.379,0.07,0.552,0.266,0.5,0.371c-0.053,0.113,0.009,0.136,0.19,0.028c0.099-0.06,0.172-0.024,0.271,0.009
			c0.088,0.035,0.19,0.063,0.352,0.03c0.344-0.069,0.574,0.361,0.863,0.479c0.11,0.049,0.162,0.045,0.196,0.039
			c0.054-0.002,0.054-0.014,0.164,0.203c0.175,0.47-0.172,0.812-0.351,1.011c-0.178,0.196-0.067,0.255-0.27,0.388
			c-0.199,0.13-0.193,0.617-0.193,0.749c-0.004,0.136-0.147,0.442-0.147,0.644c0,0.203-0.231,0.395-0.306,0.607
			c-0.075,0.216-0.37,0.311-0.473,0.311c-0.104-0.01-0.156-0.095-0.311,0.051c-0.215,0.216-0.539,0.322-0.643,0.388
			c-0.099,0.062-0.269,0.146-0.228,0.382c0.039,0.229-0.024,0.518-0.088,0.564c-0.058,0.048-0.188,0.188-0.234,0.33
			c-0.049,0.134-0.204,0.341-0.231,0.302c-0.035-0.048,0.111-0.226,0.07-0.267c-0.037-0.041-0.232,0.146-0.229,0.311
			c0,0.171-0.173,0.22-0.313,0.514c-0.148,0.293-0.55,0.188-0.689,0.187c-0.141-0.001-0.219,0.163-0.1,0.419
			c0.127,0.257-0.205,0.412-0.3,0.527c-0.09,0.112-0.637,0.141-0.77,0.136c-0.137,0-0.029,0.39-0.119,0.505
			c-0.09,0.111-0.265,0.012-0.42-0.02c-0.086-0.017-0.086,0.074-0.061,0.183c-0.643-0.038-1.281-0.106-1.904-0.209
			c0.037-0.216,0.16-0.493,0.078-0.718c-0.111-0.312,0.295-0.482,0.307-0.865c0.016-0.376,0.178-0.734,0.129-1.024
			c-0.053-0.289,0.162-0.536,0.129-0.685c-0.035-0.146,0.078-0.581,0.051-0.731c-0.025-0.149,0.107-0.751,0.033-1.172
			c-0.068-0.427-0.814-0.666-0.932-0.741c-0.121-0.078-0.291-0.104-0.332-0.346c-0.041-0.236-0.229-0.611-0.41-0.816
			c-0.18-0.209-0.16-0.604-0.432-0.772c-0.27-0.179-0.094-0.179-0.219-0.356c-0.119-0.173,0.189-0.291,0.217-0.343
			c0.027-0.043,0.188-0.36-0.006-0.207c-0.193,0.149-0.125-0.267-0.033-0.519c0.092-0.258,0.244-0.17,0.314-0.354
			c0.068-0.179,0.232-0.301,0.299-0.361c0.064-0.065,0.15-0.414-0.039-0.809c-0.193-0.176-0.08-0.135-0.225-0.345
			c-0.15-0.202-0.342,0.046-0.342,0.046c-0.1,0.061,0.045,0.098-0.027,0.208c-0.068,0.12-0.238-0.198-0.542-0.22
			c-0.3-0.021-0.226-0.215-0.431-0.275c-0.211-0.061-0.199-0.173-0.199-0.26c0-0.078,0.051-0.346-0.373-0.424
			c-0.424-0.075-0.352-0.236-0.699-0.25c-0.35-0.019-0.641-0.424-0.641-0.424s-0.27-0.101-0.479,0.012
			c-0.207,0.105-0.707-0.18-0.916-0.249c-0.205-0.067-0.535-0.237-0.766-0.382c-0.229-0.144-0.465-0.172-0.387-0.371
			c0.135-0.254-0.127-0.494-0.168-0.586c-0.039-0.096-0.293-0.402-0.562-0.617c-0.273-0.213-0.381-0.463-0.381-0.463
			c-0.24-0.182-0.479-0.514-0.531-0.69c-0.058-0.181-0.227-0.218-0.312-0.231c-0.086-0.015-0.154,0.256,0.107,0.481
			c0.258,0.216,0.08,0.245,0.273,0.417c0.189,0.174,0.16,0.184,0.297,0.395c0.137,0.213,0.121,0.281,0.182,0.375
			s0.243,0.201,0.189,0.281c-0.053,0.086-0.129-0.092-0.254-0.16c-0.129-0.065-0.258-0.09-0.271-0.328
			c-0.014-0.241-0.275-0.344-0.275-0.344s-0.305-0.137-0.209-0.219c0.092-0.086-0.008-0.27-0.137-0.372
			c-0.122-0.104-0.326-0.5-0.326-0.5s-0.047-0.255-0.172-0.186C5.103,18.27,4.96,18.07,5.005,18.002
			c0.045-0.069-0.068-0.312-0.285-0.335c-0.211-0.022-0.18-0.127-0.268-0.223c-0.094-0.096-0.211-0.172-0.223-0.288
			c-0.008-0.113-0.061-0.173-0.16-0.099c-0.105,0.071-0.117-0.078-0.117-0.078c-0.127-0.126,0.043-0.281,0.043-0.281
			c-0.279-0.242-0.115-0.681-0.225-0.89c-0.109-0.213,0.004-1.104,0.025-1.153c0.021-0.049,0.047-0.153-0.058-0.298
			c-0.101-0.14-0.055-0.222,0.03-0.245c0.08-0.029-0.322-0.314-0.467-0.358c-0.141-0.052-0.211-0.108-0.342-0.206
			C2.822,13.442,3,13.41,3.137,13.482c0.133,0.066,0.247-0.088,0.053-0.098c-0.184,0-0.247-0.24-0.184-0.321
			c0.062-0.075,0.031-0.157-0.045-0.093c-0.078,0.064-0.189-0.226-0.205-0.304c-0.01-0.078,0.107-0.201,0.018-0.157
			c-0.09,0.042-0.027,0.091-0.244-0.004c-0.213-0.098-0.242-0.156-0.115-0.272c0.133-0.118,0.043-0.13,0.043-0.13
			c-0.027,0.116-0.104,0.13-0.191-0.029c-0.086-0.144,0.012-0.091-0.061-0.16c-0.07-0.065-0.12,0.09-0.156,0.166
			c-0.032,0.075,0,0.075-0.078,0.134c-0.072,0.058-0.178-0.267-0.186-0.375c-0.012-0.105,0.098,0.062,0.158,0.118
			c0.068,0.047,0.278-0.224,0.076-0.224c-0.203-0.009-0.426-0.466-0.504-0.545c-0.068-0.084-0.152,0.071-0.152,0.071
			c-0.148,0.146-0.198,0.083-0.212-0.003C0.408,13.195,0,15.302,0,17.5C0,27.162,7.834,35,17.5,35
			C26.421,35,33.781,28.323,34.863,19.698z M32.311,16.051c0.121-0.06,0.148-0.036,0.138-0.127
			c-0.009-0.089-0.104-0.083-0.076-0.209c0.026-0.124-0.015-0.143,0.101-0.223c0.053-0.036,0.09-0.053,0.125-0.053
			c0.032,0,0.051,0.034,0.022,0.133c-0.046,0.167-0.134,0.133-0.088,0.264c0.042,0.128,0.124,0.138,0.124,0.253
			c0,0.121-0.018,0.193-0.055,0.254c-0.041,0.062-0.024,0.127-0.146,0.133c0,0-0.123-0.038-0.123-0.174
			C32.332,16.164,32.189,16.118,32.311,16.051z M29.236,11.48c0.061-0.11-0.045-0.114,0.065-0.257
			c0.109-0.141-0.034-0.199,0.199-0.214c0.149-0.013,0.269-0.062,0.315-0.062c0.023,0,0.025,0.013,0,0.066
			c-0.082,0.137-0.202,0.087-0.129,0.221c0.043,0.064,0.138,0.053,0.222,0.041c0.084-0.008,0.157-0.021,0.151,0.048
			c-0.014,0.134-0.149,0.253-0.104,0.374c0.046,0.125,0.201,0.299,0.258,0.417c0.062,0.111,0.095-0.041,0.239,0.179
			c0.145,0.224,0.044,0.294,0.146,0.392c0.104,0.104,0.248,0.086,0.233,0.261c-0.011,0.177-0.231,0.378-0.384,0.378
			c-0.147,0-0.151-0.013-0.286,0.038c-0.134,0.049-0.243,0.195-0.313,0.102c-0.07-0.096-0.002-0.086-0.035-0.195
			c-0.045-0.102-0.058-0.091-0.174-0.122c-0.117-0.024-0.285,0.009-0.226-0.117c0.058-0.13,0.149-0.156,0.16-0.251
			c0.016-0.096-0.097-0.073,0.017-0.157c0.116-0.089,0.188-0.113,0.196-0.226c0,0,0.004-0.206-0.16-0.206
			c-0.155,0.007-0.237,0.024-0.194-0.091c0.045-0.116,0.09-0.169,0.014-0.216c-0.037-0.026-0.064-0.011-0.084,0.007
			c-0.021,0.011-0.037,0.028-0.059,0.011c-0.037-0.03-0.101-0.011-0.05-0.112c0.06-0.1,0.074-0.113,0.039-0.135
			C29.256,11.629,29.178,11.58,29.236,11.48z M28.468,12.628c0.087-0.164,0.038-0.106,0.124-0.334
			c0.088-0.223,0.061-0.082,0.219-0.205c0.094-0.077,0.127-0.068,0.166-0.055c0.029,0.007,0.062,0.017,0.119-0.008
			c0.032-0.01,0.051-0.015,0.068-0.015c0.064,0,0.057,0.07,0.115,0.143c0.08,0.086,0.045,0.135-0.012,0.226
			c-0.062,0.096-0.091,0.274-0.095,0.401c-0.008,0.133-0.174,0.16-0.309,0.195c-0.134,0.03-0.271,0.121-0.271,0.121
			c-0.205,0.063-0.201,0.005-0.303-0.128C28.186,12.837,28.381,12.791,28.468,12.628z M25.266,8.68
			c0.031-0.108,0.33-0.405,0.469-0.289c0.137,0.108,0.06,0.241,0.193,0.264c0.139,0.026,0.129,0.074,0.165-0.057
			c0.036-0.135,0.032-0.122,0.146-0.091c0.057,0.014,0.071-0.004,0.094-0.02c0.022-0.015,0.056-0.038,0.153-0.015
			c0.195,0.027,0.132,0.093,0.242,0c0.099-0.081,0.068-0.148,0.16-0.148c0.021,0,0.043,0.004,0.07,0.006
			c0.176,0.034,0.129,0.018,0.264,0.097c0.133,0.072,0.074,0.106,0.205,0.195c0.124,0.083,0.25,0.168,0.119,0.302
			c-0.125,0.135-0.229,0.238-0.492,0.313c-0.26,0.074-0.433,0.248-0.715,0.172c-0.279-0.08-0.451-0.049-0.58-0.132
			c-0.129-0.087,0.042-0.033-0.039-0.163c-0.082-0.126-0.432-0.102-0.33-0.186c0.105-0.084,0.069-0.092,0.205-0.115
			c0.062-0.008,0.133-0.12,0.051-0.128c-0.082-0.01-0.149,0.015-0.229,0.044C25.341,8.763,25.225,8.79,25.266,8.68z M11.357,1.721
			c0.08-0.045,0.156-0.031,0.243-0.017c0.073,0.008,0.153,0.017,0.255-0.005c0.219-0.048-0.055-0.014-0.05-0.115
			c0.099-0.152,0.697-0.026,0.851,0.015c0.152,0.039,0.193,0.016,0.038-0.1c-0.155-0.12,0.169-0.242,0.452-0.231
			c0.286,0.004,0.209,0.109,0.578-0.025c0.404-0.138,0.605-0.169,0.764-0.169c0.049,0,0.094,0.001,0.144,0.005
			c0.062,0.001,0.123,0.008,0.2,0.008C15,1.078,15.137,1.104,15.281,1.124c0.143,0.026,0.289,0.052,0.476,0.046
			c0.374-0.004,0.296,0.097,0.087,0.164c-0.21,0.062,0.221,0.029,0.525-0.066c0.303-0.092,0.613,0.14,0.857,0.222
			c0.234,0.091-0.059,0.125-0.176,0.201c-0.121,0.083-0.46,0.128-0.592,0.151c-0.137,0.013-0.334,0.066-0.555,0.142
			c-0.22,0.071-0.035,0.099,0.158,0.044c0.199-0.055,0.21-0.055,0.416-0.086c0.211-0.027,0.09,0.077-0.131,0.148
			c-0.223,0.064-0.809,0.427-0.902,0.504c-0.045,0.036-0.072,0.036-0.1,0.036c-0.029-0.004-0.049-0.008-0.072,0.042
			c-0.053,0.086-0.082,0.14-0.225,0.214c-0.139,0.078-0.205-0.006-0.336-0.032c-0.127-0.031,0.014,0.032,0.002,0.132
			c-0.006,0.05-0.102,0.046-0.203,0.038c-0.086-0.001-0.18-0.004-0.225,0.027c-0.103,0.061,0.129,0.02,0.189,0.115
			c0.035,0.058-0.022,0.049-0.1,0.044c-0.051-0.009-0.105-0.009-0.155,0.004c-0.124,0.027,0.036,0.041,0.155,0.112
			c0.115,0.08-0.094,0.107-0.179,0.134c-0.082,0.035-0.011,0.035,0.077,0.085c0.084,0.057-0.217,0.162-0.368,0.188
			c-0.081,0.022-0.11,0.013-0.144,0.009c-0.025-0.009-0.049-0.013-0.107,0.003c-0.125,0.028,0,0.057,0.045,0.152
			c0.043,0.088-0.094,0.091-0.166,0.12c-0.072,0.024-0.076-0.007-0.137,0.044c-0.053,0.054,0.021,0.065,0.14,0.106
			c0.058,0.022,0.075,0.012,0.087,0.007c0.016-0.007,0.023-0.015,0.068,0.013c0.092,0.053,0.01,0.053-0.06,0.148
			c-0.068,0.085-0.179,0.077-0.288,0.139c-0.068,0.034-0.096,0.034-0.135,0.034c-0.021-0.005-0.049-0.005-0.094,0.004
			c-0.125,0.021-0.043-0.113-0.043-0.113c0.004-0.073-0.312-0.105-0.525,0c-0.215,0.1-0.164,0.122-0.451,0.064
			c-0.283-0.057-0.451-0.088-0.672-0.039c-0.219,0.057-0.27-0.145-0.127-0.253c0.146-0.108,0.307-0.029,0.416-0.097
			c0.111-0.065-0.201-0.163-0.191-0.292c0.009-0.135,0.348-0.016,0.471,0.119c0.117,0.132,0.313,0.078,0.457,0.048
			c0.143-0.033-0.074-0.044-0.238-0.053c-0.168-0.004-0.121-0.114-0.11-0.188c0.011-0.077-0.019-0.051-0.058-0.101
			c-0.037-0.05-0.111,0.001-0.291,0.039c-0.184,0.04-0.064-0.119,0-0.229c0.064-0.118,0.209-0.114,0.375-0.125
			c0.168-0.025,0.42,0.011,0.615,0.011c0.096,0,0.027-0.019-0.082-0.042c-0.113-0.025-0.271-0.043-0.332-0.041
			C12.21,3.223,12.229,3.166,12.3,3.138c0.07-0.022-0.109-0.236-0.279-0.249c-0.168-0.012-0.235-0.124-0.205-0.251
			c0.023-0.122,0.621-0.077,0.736,0.053c0.121,0.13,0.29,0.198,0.541,0.242c0.252,0.04-0.199-0.165-0.41-0.277
			c-0.214-0.109,0.109-0.151,0.408-0.133c0.297,0.017,0.275-0.04,0.525-0.065c0.247-0.027-0.045-0.033-0.223-0.127
			c-0.143-0.08,0.252-0.108,0.291-0.259c0.01-0.047-0.396,0.201-0.621,0.338c-0.222,0.138-0.568,0.08-0.486,0.021
			c0.084-0.062-0.072-0.078-0.072-0.078c-0.07-0.008-0.109,0.026-0.169,0.057c-0.078,0.04-0.19,0.09-0.465,0.032
			c-0.182-0.006-0.015-0.055,0.131-0.19c0.145-0.137-0.146,0.08-0.347,0.157c-0.202,0.075-0.312-0.09-0.224-0.164
			c0.042-0.036,0.002-0.036-0.081-0.029c-0.075,0.002-0.187,0.007-0.304-0.02c-0.23-0.066,0.061-0.128,0.057-0.226
			c-0.008-0.047-0.061-0.031-0.132-0.013c-0.073,0.016-0.168,0.032-0.239-0.025C10.599,1.818,11.203,1.803,11.357,1.721z
			 M14.01,5.934c-0.031,0-0.066,0-0.096,0.005c-0.053,0.009-0.131,0.005-0.208,0c-0.06-0.005-0.123-0.007-0.173-0.005
			c-0.113,0.005-0.078,0.022-0.211,0.049c-0.136,0.024-0.145-0.118-0.236-0.228c-0.088-0.117,0.037-0.181,0.037-0.181
			c0.023-0.011,0.047-0.017,0.08-0.017c0.051,0,0.115,0.016,0.172,0.026c0.076,0.012,0.145,0.03,0.189,0.021
			c0.105-0.016,0.078-0.032,0.213,0c0.135,0.033,0.16,0.147,0.267,0.26C14.121,5.947,14.078,5.942,14.01,5.934z M9.723,2.639
			C9.668,2.6,9.738,2.537,9.806,2.459c0.042-0.048,0.122-0.04,0.196-0.03c0.043,0.007,0.086,0.012,0.115,0.007
			c0.088-0.021-0.076-0.021-0.195-0.062C9.797,2.332,9.889,2.277,9.979,2.206c0.047-0.038,0.117-0.032,0.187-0.032
			c0.058,0.009,0.11,0.013,0.155-0.008c0.09-0.048-0.15,0.002-0.15-0.097c0-0.019,0.019-0.032,0.055-0.032
			c0.128,0,0.442,0.13,0.542,0.237c0.124,0.137,0.063,0.117,0.183,0.182c0.072,0.035,0.096,0.028,0.143,0.017
			c0.027-0.002,0.072-0.014,0.146-0.002c0.172,0.019,0.035,0.146,0.133,0.181c0.104,0.04,0.008-0.018,0.057-0.115
			c0.047-0.095,0.256,0.196,0.266,0.285c0.008,0.062,0.027,0.062,0.064,0.062c0.023-0.001,0.059-0.001,0.101,0.012
			c0.118,0.035,0.272,0.114,0.29,0.188c0.021,0.068-0.26,0.098-0.396,0.175c-0.137,0.08-0.137,0.104-0.221,0.053
			c-0.084-0.048-0.152,0.156-0.289,0.266c-0.136,0.116-0.516,0.033-0.516,0.033c-0.126-0.003-0.176-0.076-0.318-0.162
			c-0.149-0.086-0.152-0.104-0.187-0.251c-0.022-0.089,0.106-0.082,0.27-0.073c0.083,0.007,0.175,0.014,0.259,0
			c0.237-0.024-0.422-0.074-0.594-0.042c-0.096,0.018-0.135-0.016-0.171-0.05c-0.032-0.023-0.062-0.05-0.128-0.05
			c-0.148,0.01-0.113-0.092-0.222-0.237C9.532,2.606,9.775,2.678,9.723,2.639z M9.342,3.374c0.066-0.009,0.102-0.021,0.145-0.021
			c0.031,0,0.061,0.011,0.118,0.043c0.12,0.072,0.05,0.079,0.174,0.079c0.036,0.001,0.063,0,0.087-0.003
			C9.93,3.464,9.957,3.456,9.979,3.527c0.023,0.091,0.092,0.085-0.027,0.154C9.832,3.755,9.699,3.782,9.59,3.768
			c0,0-0.09-0.004-0.139-0.097C9.399,3.577,9.365,3.594,9.334,3.522C9.307,3.45,9.238,3.386,9.342,3.374z M8.977,4.793
			C8.958,4.739,8.955,4.672,8.883,4.73C8.807,4.788,8.785,4.861,8.686,4.812c-0.023-0.013-0.043,0-0.107,0.005
			C8.52,4.825,8.344,4.866,8.377,4.793c0.031-0.077,0.062-0.126,0.145-0.101C8.605,4.712,8.643,4.75,8.65,4.717
			c0.012-0.024,0.047-0.029-0.045-0.09C8.51,4.568,8.42,4.592,8.475,4.511C8.529,4.432,8.51,4.34,8.605,4.419
			c0.094,0.07,0.041,0.092,0.141,0.156C8.84,4.638,8.871,4.678,8.904,4.644c0.03-0.034,0.111-0.041,0.021-0.095
			C8.84,4.496,8.746,4.525,8.779,4.447c0.027-0.06-0.026-0.113,0.027-0.113c0.016,0,0.046,0.006,0.098,0.015
			c0.111,0.039,0.129,0.025,0.149,0.016C9.076,4.353,9.102,4.343,9.18,4.356c0.184,0.029,0.209-0.022,0.264,0.085
			C9.494,4.547,9.58,4.556,9.49,4.658c-0.091,0.103-0.095,0.127-0.113,0.2c-0.02,0.066-0.035,0.15-0.131,0.167
			c-0.094,0.018-0.192,0.047-0.27,0.019C8.9,5.02,8.795,5.02,8.848,4.932C8.891,4.838,8.998,4.845,8.977,4.793z M7.766,3.102
			C7.871,3.08,7.943,3.021,8.01,3.021c0.025,0,0.049,0.006,0.074,0.031C8.18,3.126,8.169,3.166,8.316,3.225
			c0.08,0.03,0.084,0.021,0.092,0.012c0.012-0.012,0.029-0.021,0.113,0c0.178,0.048,0.164,0.034,0.25,0.121
			c0.09,0.09,0.289,0.216,0.332,0.28C9.148,3.7,9.265,3.742,9.121,3.78c-0.145,0.035-0.197,0.1-0.307,0.007
			C8.703,3.694,8.768,3.622,8.629,3.604c-0.137-0.02-0.1-0.014-0.25-0.018C8.332,3.584,8.287,3.59,8.246,3.599
			C8.164,3.611,8.101,3.626,8.064,3.564c-0.049-0.093-0.037-0.09,0.041-0.09c0.014,0,0.027,0,0.041,0c0,0,0.102-0.019,0-0.111
			C8.045,3.268,8.084,3.293,7.996,3.3c-0.09,0.012-0.139,0.008-0.117-0.036c0.02-0.039-0.016-0.005-0.088-0.048
			C7.717,3.167,7.619,3.13,7.766,3.102z M7.622,7.629C7.537,7.622,7.508,7.652,7.283,7.76C7.062,7.869,7.066,7.686,7.066,7.686
			c0.035-0.085,0.305-0.115,0.475-0.181c0.047-0.018,0.078-0.03,0.1-0.03c0.061,0,0.059,0.058,0.125,0.112
			C7.85,7.657,7.704,7.637,7.622,7.629z M8.611,7.199c-0.078,0.056-0.09,0.023-0.205-0.013c-0.117-0.03-0.082,0.006-0.174,0.043
			c-0.095,0.037,0.043,0.048,0.145,0.11c0.098,0.054,0.065,0,0.129,0.077c0.064,0.074-0.068,0.05-0.174,0.09
			c-0.107,0.05-0.168,0.04-0.312,0.022C7.879,7.519,7.895,7.447,7.789,7.44c-0.111-0.007-0.137-0.068-0.18-0.073
			C7.443,7.326,7.326,7.419,7.262,7.45C7.195,7.487,7.14,7.504,6.992,7.562c-0.146,0.062-0.426,0.044-0.527,0.08
			C6.367,7.686,6.281,7.617,6.104,7.596C5.924,7.577,5.996,7.47,5.95,7.393c-0.042-0.079-0.087-0.092-0.3-0.042
			c-0.213,0.044-0.184-0.05-0.266-0.074C5.301,7.254,5.262,7.153,5.256,7.053C5.252,6.987,5.377,6.989,5.529,6.991
			c0.053,0,0.115,0.004,0.175,0C5.918,6.98,5.945,7.002,6.129,7.014c0.189,0.019,0.16,0,0.281-0.069
			c0.117-0.073-0.142-0.041-0.281-0.096C6,6.793,5.981,6.832,5.832,6.832c-0.146,0-0.283-0.039-0.42-0.024
			c-0.137,0.001-0.18,0-0.301-0.026c-0.125-0.019-0.087-0.08-0.06-0.152c0.018-0.049,0.078-0.044,0.145-0.033
			c0.03,0.004,0.061,0.009,0.086,0.009c0.094-0.005,0.184,0,0.266-0.068c0.078-0.066-0.102-0.049-0.25-0.044
			c-0.103,0.008-0.124,0.008-0.15,0.008c0,0-0.025,0-0.051,0c-0.073,0-0.146-0.057-0.201-0.142c-0.051-0.085,0.09-0.128,0.131-0.2
			c0.041-0.062,0.068-0.087,0.197-0.19C5.35,5.865,5.393,5.914,5.559,5.844c0.163-0.075,0.282-0.069,0.346,0.03
			C5.967,5.97,5.877,5.938,5.891,6.027C5.9,6.12,5.963,6.025,6.031,5.96C6.102,5.895,6.1,5.92,6.236,5.954
			c0.137,0.026,0.219,0.08,0.288,0.181C6.602,6.229,6.6,6.098,6.684,6.073C6.777,6.045,6.67,5.998,6.691,5.92
			c0.018-0.075,0.061-0.006,0.17-0.004c0.113,0.002,0.084,0.064,0.176,0.13C7.131,6.12,7.098,6.135,7.131,6.26
			c0.039,0.124,0.017,0.1,0.09,0.151c0.07,0.056,0.087-0.031,0.105-0.076c0.019-0.043-0.019-0.101-0.084-0.194
			C7.176,6.045,7.23,6.007,7.189,5.895s0.028-0.092,0.143-0.114c0.017-0.004,0.027-0.004,0.043-0.004
			c0.072,0,0.08,0.041,0.179,0.087C7.668,5.926,7.666,6.025,7.74,6.093c0.074,0.068,0.074,0.136,0.11,0.206
			c0.033,0.073,0.102,0.157,0.145,0.218c0.041,0.069,0.002,0.112,0.004,0.205c0.004,0.1,0.129,0.099,0.221,0.124
			C8.309,6.863,8.51,6.991,8.652,7.06C8.795,7.122,8.693,7.148,8.611,7.199z M9.668,6.328C9.682,6.442,9.607,6.394,9.52,6.456
			C9.473,6.49,9.45,6.477,9.426,6.463C9.408,6.456,9.389,6.444,9.365,6.456C9.307,6.477,9.232,6.545,9.232,6.545
			c-0.05,0.009-0.095,0.028-0.13-0.039c-0.048-0.061-0.068-0.135-0.17-0.187C8.834,6.275,8.814,6.312,8.674,6.19
			c-0.137-0.125-0.137-0.049-0.3-0.13C8.215,5.97,8.357,5.91,8.418,5.834C8.475,5.755,8.516,5.86,8.68,5.98
			c0.168,0.115,0.131,0.017,0.182-0.042c0.051-0.06-0.027-0.084-0.188-0.173C8.516,5.682,8.623,5.638,8.682,5.562
			C8.744,5.491,8.811,5.526,8.89,5.465c0.019-0.011,0.036-0.018,0.054-0.018c0.049,0,0.08,0.058,0.158,0.109
			c0.098,0.068,0.123,0.001,0.195,0c0.072-0.005,0.02,0,0.121-0.042c0.104-0.035,0.104,0.009,0.183,0.087
			C9.678,5.68,9.588,5.653,9.452,5.728c-0.14,0.075-0.089,0.118,0.007,0.17C9.555,5.947,9.541,5.966,9.637,6.01
			c0.096,0.045,0.047,0.051,0.031,0.13C9.648,6.217,9.654,6.217,9.668,6.328z M10.365,4.989c-0.014,0.119,0.005,0.157-0.077,0.179
			c-0.081,0.029-0.149,0.062-0.241,0.029C9.951,5.162,9.842,5.18,9.773,5.074c0,0-0.101-0.084-0.014-0.142
			c0.084-0.066,0.068-0.128,0.189-0.128c0.076,0,0.104-0.052,0.146-0.052c0.021,0,0.043,0.015,0.082,0.047
			C10.291,4.902,10.379,4.876,10.365,4.989z M10.867,5.207c-0.092-0.027-0.242-0.031-0.25-0.191c-0.01-0.163,0.1-0.102,0.021-0.245
			c-0.082-0.149-0.188-0.274-0.346-0.278c-0.047,0-0.098,0.004-0.146,0.008c-0.121,0.011-0.225,0.02-0.26-0.033
			c0,0,0.041-0.02-0.066-0.065c-0.109-0.047-0.188-0.016-0.156-0.1c0.031-0.075-0.049-0.137,0.059-0.137
			c0.015,0,0.037,0,0.062,0.004c0.195,0.022,0.098,0.015,0.24,0.049c0.053,0.014,0.085,0.007,0.109,0
			c0.035-0.019,0.061-0.031,0.135,0.037c0.124,0.117,0.068,0.162,0.199,0.128c0.125-0.036-0.014-0.066,0.184-0.079
			c0.193-0.013,0.238,0.028,0.303,0.082c0.066,0.06,0.1,0.018,0.188,0.055c0.09,0.04,0.154,0.024,0.09,0.104
			c-0.06,0.075-0.068,0.134,0.031,0.169c0.102,0.034,0.121,0.146,0.273,0.11c0.152-0.027,0.152,0.012,0.25,0.046
			c0.096,0.03,0.023,0.053,0.148-0.014c0.126-0.073,0.367-0.177,0.449-0.161c0.049,0.008,0.061,0.005,0.096,0
			c0.027-0.005,0.066-0.005,0.143-0.005c0.045,0.002,0.088,0,0.126,0c0.112,0,0.192-0.004,0.261,0.047
			c0.09,0.075,0.201,0,0.229,0.155c0.025,0.149,0.205,0.172,0.035,0.272c-0.164,0.093-0.18,0.165-0.412,0.093
			c-0.238-0.065-0.182-0.145-0.334-0.075c-0.156,0.068-0.166,0.112-0.365,0.102c-0.07,0-0.131,0.001-0.178,0.011
			c-0.08,0.006-0.148,0.018-0.234-0.015c-0.141-0.042-0.254-0.115-0.318-0.114C11.365,5.168,10.959,5.239,10.867,5.207z
			 M12.771,9.737c-0.047,0.014-0.077,0.065-0.107,0.095c-0.07,0.071-0.18,0.052-0.257,0.011c-0.077-0.042-0.019-0.067,0.019-0.105
			c0.031-0.039,0.059-0.063,0.059-0.109c0-0.04,0.07,0,0.127,0.018c0.057,0.01,0.035-0.02,0.104-0.054
			c0.018-0.004,0.031-0.01,0.043-0.01c0.029,0,0.041,0.032,0.078,0.063C12.882,9.692,12.82,9.73,12.771,9.737z M13.057,9.46
			c-0.145-0.051-0.139-0.072-0.227-0.093c-0.084-0.021-0.111,0.006-0.162-0.061c-0.057-0.079-0.188-0.162-0.188-0.083
			c0.004,0.075,0.045,0.174-0.062,0.186c-0.104,0.007-0.205,0.248-0.307,0.156c-0.055-0.05-0.088-0.041-0.059-0.099
			c0.031-0.058,0.094-0.078,0.018-0.093c-0.076-0.02-0.123-0.053-0.188-0.013c-0.064,0.029-0.059,0.126-0.127,0.072
			c-0.066-0.059-0.191-0.072-0.041-0.126c0.154-0.055,0.209-0.025,0.195-0.082c-0.014-0.061-0.123-0.098-0.054-0.145
			c0.072-0.047,0.048-0.305,0.1-0.365c0.046-0.044-0.021-0.117,0.019-0.117c0,0,0.031,0.001,0.061,0.02
			c0.148,0.064,0.09,0.098,0.193,0.158C12.27,8.799,12.281,8.794,12.3,8.78c0.02-0.008,0.038-0.021,0.117,0.041
			c0.137,0.115,0.152,0.119,0.281,0.177c0.123,0.056,0.146,0.035,0.182,0.129c0.035,0.097,0.073,0.056,0.169,0.11
			C13.143,9.282,13.205,9.51,13.057,9.46z M17.257,8.308c-0.054,0.168-0.056,0.314-0.247,0.321c-0.193,0.003-0.068,0.486-0.266,0.27
			c-0.197-0.222-0.32-0.095-0.32-0.222c0-0.124-0.133-0.085-0.211-0.178c-0.08-0.083-0.214-0.194-0.21-0.064
			c0.003,0.134-0.212,0.072-0.083,0.198c0.129,0.13,0.156,0.09,0.234,0.239c0.077,0.146,0.092,0.105,0.229,0.255
			c0.145,0.15,0.19,0.258,0.145,0.383c-0.049,0.119,0.077,0.266-0.104,0.168c-0.088-0.049-0.135-0.049-0.175-0.049
			c-0.044,0.006-0.077,0.006-0.146-0.059c-0.135-0.119-0.473-0.317-0.388-0.182c0.085,0.137,0.269,0.247,0.401,0.333
			c0.137,0.087,0.334,0.286,0.121,0.246c-0.217-0.032-0.391-0.06-0.522-0.093c-0.132-0.035-0.646-0.198-0.673-0.376
			c-0.024-0.187-0.062-0.157-0.119-0.164C14.868,9.326,14.7,9.277,14.59,9.136c-0.054-0.077-0.114-0.045-0.171-0.014
			c-0.051,0.025-0.099,0.058-0.123,0c0,0-0.041-0.117-0.154-0.035c-0.107,0.081-0.23,0.137-0.365,0.068
			c-0.131-0.075-0.174-0.137-0.08-0.255c0.096-0.118,0.145-0.196,0.309-0.132c0.16,0.065,0.174,0.085,0.303,0.035
			c0.137-0.054,0.385,0.006,0.312-0.1c-0.076-0.106-0.182-0.106-0.09-0.224c0.098-0.122,0.273-0.258,0.348-0.319
			c0.076-0.057,0.088-0.068-0.016-0.201c-0.1-0.128-0.25-0.221-0.387-0.354c-0.137-0.137-0.16-0.142-0.229-0.142
			c-0.068,0.005-0.166,0.177-0.219,0.111c-0.055-0.061-0.135-0.117-0.039-0.149c0.054-0.012,0.084-0.012,0.109-0.012
			s0.043,0,0.062-0.014c0.045-0.032,0.125-0.051,0-0.098c-0.127-0.036-0.273-0.075-0.338-0.171
			c-0.062-0.093-0.273-0.283-0.318-0.191c-0.041,0.085,0.094,0.216-0.082,0.187c-0.174-0.031-0.299-0.076-0.371-0.064
			c-0.072,0.012,0.07,0.089,0,0.094c-0.039,0-0.085-0.013-0.123-0.029c-0.039-0.016-0.068-0.031-0.09-0.031
			c-0.041,0-0.064,0.069-0.129,0.035c-0.066-0.042-0.354-0.072-0.465-0.041c-0.117,0.031-0.312-0.005-0.375-0.11
			C11.84,6.926,11.74,6.939,11.64,6.948c-0.11,0.009-0.224,0.023-0.258-0.045c-0.068-0.128-0.199-0.213-0.076-0.229
			c0.051-0.009,0.092,0.006,0.119,0.02c0.041,0.019,0.066,0.038,0.094,0c0.043-0.064-0.033-0.141-0.109-0.113
			c-0.076,0.028-0.235,0.053-0.277-0.075c-0.039-0.13-0.021-0.414,0.098-0.575c0.104-0.14,0.418-0.418,0.715-0.418
			c0.047,0,0.098,0.004,0.145,0.023c0.329,0.122,0.061,0.126-0.057,0.187c-0.11,0.06-0.285,0.142-0.217,0.311
			c0.068,0.167,0.049,0.301,0.141,0.367c0.09,0.055,0.23,0.194,0.27,0.131c0.037-0.061,0.113-0.061-0.008-0.122
			c-0.121-0.055-0.248-0.021-0.191-0.119c0.062-0.102,0.143-0.048,0.107-0.121C12.1,6.096,12.02,6.135,12.008,6.019
			c-0.002-0.114,0.273-0.356,0.464-0.405c0.192-0.042,0.47-0.111,0.538,0.139c0.064,0.237,0.172,0.255,0.113,0.368
			c-0.055,0.117-0.092,0.26-0.004,0.196c0.086-0.062,0.016-0.118,0.141-0.118c0.131,0,0.139,0.056,0.205,0.03
			c0.068-0.021,0.123-0.269,0.365-0.222c0.244,0.049,0.368-0.009,0.518,0.164c0.145,0.168,0.145,0.383,0.342,0.362
			c0.201-0.016,0.434-0.084,0.479,0.062c0.046,0.142-0.068,0.126,0.104,0.164c0.172,0.034,0.529,0.038,0.459,0.145
			c-0.068,0.11-0.107,0.156,0.006,0.123c0.11-0.024,0.088-0.161,0.166-0.031c0.076,0.126,0.043,0.126-0.016,0.215
			c-0.061,0.081,0.247,0.055,0.141,0.158c-0.105,0.111-0.391,0.231-0.158,0.26c0.23,0.037,0.191,0.008,0.364,0.184
			c0.181,0.181,0.288-0.012,0.474,0.226c0.105,0.138,0.133,0.126,0.16,0.115c0.014-0.011,0.031-0.019,0.076,0.035
			c0.051,0.054,0.133,0.045,0.201,0.039C17.227,8.226,17.287,8.215,17.257,8.308z M13.856,7.856c0.013-0.1,0.179-0.155,0.179-0.155
			c0.012,0,0.023,0,0.043,0c0.061,0,0.133,0.012,0.207,0.039c0.101,0.039,0.039,0.092,0.032,0.254
			c-0.001,0.112-0.038,0.11-0.087,0.108c-0.02,0-0.043-0.005-0.064,0.008c-0.068,0.024-0.246-0.013-0.312-0.058
			C13.785,8.006,13.846,7.96,13.856,7.856z M17.021,14.666c0,0-0.047-0.018-0.121-0.029c-0.08-0.009-0.131-0.013-0.184-0.062
			c-0.053-0.048-0.088-0.06-0.066-0.098c0.021-0.03,0.014-0.09,0.039-0.09c0,0,0.012,0.005,0.027,0.014
			c0.062,0.049,0.049,0.073,0.109,0.103c0.059,0.035,0.152,0.037,0.18,0.064C17.037,14.594,17.138,14.715,17.021,14.666z
			 M17.195,13.872c-0.109-0.009-0.35-0.098-0.417-0.14c-0.065-0.042-0.146-0.082-0.146-0.082s-0.121-0.055-0.012-0.062h0.006
			c0.109,0,0.242,0.037,0.314,0.078c0.072,0.044,0.209,0.068,0.238,0.114C17.215,13.827,17.305,13.883,17.195,13.872z
			 M14.066,21.441c-0.078,0.031-0.111,0.082-0.229,0.061c0,0-0.285-0.098-0.154-0.139c0.078-0.024,0.113-0.04,0.146-0.04
			c0.021,0,0.043,0.004,0.077,0.018C13.998,21.375,14.143,21.407,14.066,21.441z M14.469,20.984c0,0-0.074,0.056-0.232,0.022
			c-0.154-0.04-0.18-0.003-0.262,0.032c-0.082,0.033-0.293,0.037-0.156-0.046c0.145-0.081,0.074-0.171-0.107-0.171
			c-0.18,0-0.082-0.077-0.173-0.166c-0.095-0.086-0.251,0.006-0.37-0.105c-0.051-0.049-0.09-0.043-0.123-0.031
			c-0.057,0.01-0.104,0.021-0.195-0.117c-0.098-0.096-0.227,0.045-0.283,0.117c-0.057,0.074-0.236,0.155-0.244,0.037
			c-0.008-0.121,0.232-0.274,0.404-0.274c0.057,0,0.118-0.005,0.186-0.005c0.133,0,0.297,0.021,0.531,0.156
			c0.41,0.229,0.164,0.123,0.512,0.236C14.279,20.775,14.591,20.932,14.469,20.984z M15.68,21.375
			c-0.237-0.021-0.328-0.027-0.418,0.04c-0.09,0.067-0.125,0.146-0.207,0.039c-0.084-0.115-0.268-0.062-0.359-0.038
			c-0.096,0.027-0.104,0.084-0.142,0.016c0,0-0.13-0.187,0.052-0.137c0.18,0.053,0.258,0.036,0.258-0.066
			c0-0.098-0.031-0.129-0.105-0.129c-0.068,0-0.092-0.095,0.055-0.104h0.014c0.147,0,0.254,0.06,0.379,0.06
			c0.129,0,0.119-0.08,0.312,0.084C15.715,21.295,15.924,21.396,15.68,21.375z M16.355,21.448c-0.076,0.012-0.312,0.052-0.32-0.007
			c0,0-0.023-0.096,0.101-0.082c0.05,0,0.095,0,0.132-0.01c0.031,0,0.055,0,0.073,0c0.026,0,0.04,0,0.042,0.014
			C16.399,21.398,16.432,21.434,16.355,21.448z M18.662,7.097c0,0,0.021-0.171,0.137-0.171c0.021,0,0.047,0.001,0.072,0.019
			c0.189,0.082,0.451,0.12,0.414,0.213c-0.046,0.097,0.021,0.143-0.184,0.176c-0.205,0.022-0.379,0.003-0.418-0.08
			C18.65,7.166,18.658,7.155,18.662,7.097z M19.088,14.436c-0.074,0.056-0.164,0.106-0.211,0.039
			c-0.049-0.068-0.039-0.075-0.044-0.143c-0.009-0.064,0.013-0.159-0.046-0.086c-0.061,0.068-0.018,0.112-0.133,0.16
			c-0.117,0.045-0.24,0.086-0.18,0.007c0.061-0.074,0.104-0.096,0.08-0.117c-0.013-0.013-0.015-0.005-0.025,0
			c-0.006,0.01-0.021,0.021-0.051-0.012c-0.029-0.025-0.052-0.015-0.08-0.006c-0.035,0.013-0.082,0.024-0.158-0.001
			c-0.164-0.052-0.225-0.092-0.332-0.047c-0.109,0.047-0.219,0.072-0.193,0c0.024-0.079-0.03-0.16,0.102-0.165
			c0,0,0.023,0.021,0.018-0.06c-0.016-0.082-0.021-0.079,0.029-0.115c0.045-0.035,0.035-0.129,0.125-0.213
			c0.088-0.087,0.238-0.515,0.381-0.519c0.08,0,0.141-0.022,0.178-0.022c0.022,0,0.035,0.013,0.022,0.055
			c-0.022,0.091-0.061,0.133-0.146,0.208c-0.087,0.083-0.175,0.213-0.105,0.187c0.07-0.021,0.137-0.023,0.188,0.082
			c0.051,0.103,0.081,0.157,0.157,0.123c0.084-0.037,0.241-0.091,0.267-0.009c0.024,0.09-0.009,0.137,0.018,0.174
			c0.023,0.025,0.137,0.013,0.104,0.091c-0.023,0.075-0.102,0.054-0.078,0.103c0.01,0.023,0.021,0.008,0.036,0.005
			c0.019-0.009,0.042-0.02,0.063,0.032C19.111,14.276,19.162,14.388,19.088,14.436z M2.172,13.012c-0.016,0-0.041-0.012-0.064-0.078
			C2.08,12.87,1.979,12.87,1.961,12.782c-0.018-0.085-0.146-0.123-0.145-0.193c-0.002-0.08-0.055-0.17,0.066-0.17h0.023
			c0.105,0,0.174,0.005,0.174,0.115c0,0.123-0.059,0.171,0.01,0.226c0.068,0.054,0.021,0.066,0.059,0.116
			C2.18,12.928,2.305,13.012,2.172,13.012z"/>
	</g>
</g>
</svg>
