<?xml version="1.0" encoding="utf-8"?>
<!-- Generator: Adobe Illustrator 16.0.0, SVG Export Plug-In . SVG Version: 6.00 Build 0)  -->
<!DOCTYPE svg PUBLIC "-//W3C//DTD SVG 1.1//EN" "http://www.w3.org/Graphics/SVG/1.1/DTD/svg11.dtd" [
	<!ENTITY ns_extend "http://ns.adobe.com/Extensibility/1.0/">
	<!ENTITY ns_ai "http://ns.adobe.com/AdobeIllustrator/10.0/">
	<!ENTITY ns_graphs "http://ns.adobe.com/Graphs/1.0/">
	<!ENTITY ns_vars "http://ns.adobe.com/Variables/1.0/">
	<!ENTITY ns_imrep "http://ns.adobe.com/ImageReplacement/1.0/">
	<!ENTITY ns_sfw "http://ns.adobe.com/SaveForWeb/1.0/">
	<!ENTITY ns_custom "http://ns.adobe.com/GenericCustomNamespace/1.0/">
	<!ENTITY ns_adobe_xpath "http://ns.adobe.com/XPath/1.0/">
]>
<svg version="1.1" id="Capa_1" xmlns:x="&ns_extend;" xmlns:i="&ns_ai;" xmlns:graph="&ns_graphs;"
	 xmlns="http://www.w3.org/2000/svg" xmlns:xlink="http://www.w3.org/1999/xlink" x="0px" y="0px" width="16px" height="20px"
	 viewBox="0 0 16 20" enable-background="new 0 0 16 20" xml:space="preserve">
<metadata>
	<sfw  xmlns="&ns_sfw;">
		<slices></slices>
		<sliceSourceBounds  height="20" width="15.968" bottomLeftOrigin="true" x="0" y="-20"></sliceSourceBounds>
	</sfw>
</metadata>
<g opacity="0.25">
	<path fill="#008895" d="M13.51,6.259l0.873-1.235c0.158-0.225,0.105-0.534-0.117-0.693l-1.318-0.933
		c-0.225-0.158-0.535-0.105-0.693,0.119l-0.896,1.265c-0.661-0.31-1.371-0.531-2.115-0.649V3.618c0-0.33,0.27-0.599,0.599-0.599
		h0.33c0.33,0,0.6-0.27,0.6-0.598V0.599c0-0.329-0.27-0.599-0.6-0.599H5.795C5.466,0,5.196,0.27,5.196,0.599V2.42
		c0,0.329,0.27,0.598,0.599,0.598h0.331c0.329,0,0.599,0.27,0.599,0.599v0.514C5.927,4.259,5.169,4.505,4.468,4.849L3.581,3.596
		C3.422,3.372,3.112,3.319,2.888,3.478L1.57,4.412C1.346,4.57,1.293,4.88,1.452,5.104l0.895,1.264C0.897,7.813,0,9.812,0,12.016
		C0,16.418,3.582,20,7.984,20c4.403,0,7.984-3.582,7.984-7.984C15.968,9.756,15.023,7.713,13.51,6.259L13.51,6.259z M7.984,18.084
		c-3.346,0-6.067-2.723-6.067-6.068s2.722-6.067,6.067-6.067c3.346,0,6.068,2.722,6.068,6.067S11.33,18.084,7.984,18.084
		L7.984,18.084z M7.984,18.084"/>
	<path fill="#008895" d="M7.984,7.013c-0.014,0-0.027,0-0.04,0v4.962h5.042C12.965,9.235,10.729,7.013,7.984,7.013L7.984,7.013z
		 M7.984,7.013"/>
</g>
</svg>
