<?xml version="1.0" encoding="utf-8"?>
<!-- Generator: Adobe Illustrator 16.0.0, SVG Export Plug-In . SVG Version: 6.00 Build 0)  -->
<!DOCTYPE svg PUBLIC "-//W3C//DTD SVG 1.1//EN" "http://www.w3.org/Graphics/SVG/1.1/DTD/svg11.dtd" [
	<!ENTITY ns_extend "http://ns.adobe.com/Extensibility/1.0/">
	<!ENTITY ns_ai "http://ns.adobe.com/AdobeIllustrator/10.0/">
	<!ENTITY ns_graphs "http://ns.adobe.com/Graphs/1.0/">
	<!ENTITY ns_vars "http://ns.adobe.com/Variables/1.0/">
	<!ENTITY ns_imrep "http://ns.adobe.com/ImageReplacement/1.0/">
	<!ENTITY ns_sfw "http://ns.adobe.com/SaveForWeb/1.0/">
	<!ENTITY ns_custom "http://ns.adobe.com/GenericCustomNamespace/1.0/">
	<!ENTITY ns_adobe_xpath "http://ns.adobe.com/XPath/1.0/">
]>
<svg version="1.1" id="Capa_1" xmlns:x="&ns_extend;" xmlns:i="&ns_ai;" xmlns:graph="&ns_graphs;"
	 xmlns="http://www.w3.org/2000/svg" xmlns:xlink="http://www.w3.org/1999/xlink" x="0px" y="0px" width="16px" height="20px"
	 viewBox="0 0 16 20" enable-background="new 0 0 16 20" xml:space="preserve">
<metadata>
	<sfw  xmlns="&ns_sfw;">
		<slices></slices>
		<sliceSourceBounds  height="20" width="15.968" bottomLeftOrigin="true" x="0.016" y="-20"></sliceSourceBounds>
	</sfw>
</metadata>
<g opacity="0.5">
	<path fill="#008895" d="M13.526,6.259l0.873-1.235c0.158-0.225,0.105-0.534-0.117-0.693l-1.318-0.933
		c-0.225-0.158-0.535-0.105-0.693,0.119l-0.896,1.265c-0.66-0.31-1.371-0.531-2.115-0.649V3.618c0-0.33,0.27-0.599,0.6-0.599h0.33
		c0.33,0,0.6-0.27,0.6-0.598V0.599c0-0.329-0.27-0.599-0.6-0.599H5.811C5.482,0,5.212,0.27,5.212,0.599V2.42
		c0,0.329,0.27,0.598,0.599,0.598h0.331c0.329,0,0.599,0.27,0.599,0.599v0.514C5.943,4.259,5.185,4.505,4.484,4.849L3.597,3.596
		C3.438,3.372,3.128,3.319,2.904,3.478L1.586,4.412C1.361,4.57,1.309,4.88,1.468,5.104l0.895,1.264
		c-1.449,1.445-2.347,3.444-2.347,5.647C0.016,16.418,3.598,20,8,20c4.402,0,7.983-3.582,7.983-7.984
		C15.983,9.756,15.04,7.713,13.526,6.259L13.526,6.259z M8,18.084c-3.346,0-6.067-2.723-6.067-6.068S4.655,5.948,8,5.948
		c3.346,0,6.067,2.722,6.067,6.067S11.347,18.084,8,18.084L8,18.084z M8,18.084"/>
	<path fill="#008895" d="M13.003,11.976c0-0.021-0.004-0.039-0.004-0.06v-0.001l0,0C12.944,9.204,10.726,7.013,8,7.013
		c-0.014,0-0.027,0-0.04,0v4.901v0.061v5.06c2.775-0.021,5.027-2.281,5.039-5.06H13.003z"/>
</g>
</svg>
