<?xml version="1.0" encoding="utf-8"?>
<!-- Generator: Adobe Illustrator 16.0.0, SVG Export Plug-In . SVG Version: 6.00 Build 0)  -->
<!DOCTYPE svg PUBLIC "-//W3C//DTD SVG 1.1//EN" "http://www.w3.org/Graphics/SVG/1.1/DTD/svg11.dtd">
<svg version="1.1" id="Capa_1" xmlns="http://www.w3.org/2000/svg" xmlns:xlink="http://www.w3.org/1999/xlink" x="0px" y="0px"
	 width="122px" height="94px" viewBox="0 0 122 94" enable-background="new 0 0 122 94" xml:space="preserve">
<g>
	<path fill="#40403F" d="M4.217,76.914h2.767l4.141,11.703H8.473l-0.772-2.405H3.391l-0.793,2.405H0.041L4.217,76.914z
		 M4.057,84.194h2.997L5.575,79.59L4.057,84.194z"/>
	<path fill="#40403F" d="M16.712,79.955c0.55,0.227,0.993,0.645,1.332,1.254v-1.246h2.207v8.21c0,1.115-0.188,1.956-0.564,2.523
		c-0.646,0.974-1.884,1.462-3.715,1.462c-1.107,0-2.009-0.219-2.708-0.651c-0.699-0.435-1.084-1.084-1.159-1.944h2.46
		c0.064,0.264,0.167,0.454,0.31,0.57c0.243,0.207,0.654,0.31,1.23,0.31c0.815,0,1.361-0.273,1.636-0.817
		c0.18-0.349,0.27-0.937,0.27-1.762v-0.557c-0.217,0.369-0.449,0.646-0.699,0.834c-0.449,0.343-1.035,0.516-1.754,0.516
		c-1.111,0-2-0.391-2.663-1.171c-0.664-0.782-0.997-1.838-0.997-3.171c0-1.287,0.319-2.369,0.959-3.243
		c0.639-0.878,1.546-1.315,2.719-1.315C16.011,79.756,16.389,79.822,16.712,79.955z M17.482,86.159
		c0.364-0.401,0.546-1.035,0.546-1.909c0-0.821-0.173-1.445-0.518-1.873c-0.346-0.43-0.808-0.644-1.387-0.644
		c-0.791,0-1.336,0.373-1.637,1.119c-0.158,0.397-0.237,0.886-0.237,1.47c0,0.502,0.084,0.948,0.253,1.342
		c0.306,0.729,0.854,1.095,1.645,1.095C16.673,86.759,17.119,86.559,17.482,86.159z"/>
	<path fill="#40403F" d="M28.001,80.138c0.604,0.27,1.103,0.697,1.496,1.28c0.354,0.514,0.585,1.111,0.69,1.788
		c0.061,0.398,0.085,0.971,0.074,1.72h-6.303c0.035,0.866,0.336,1.476,0.905,1.825c0.345,0.217,0.761,0.326,1.248,0.326
		c0.515,0,0.934-0.134,1.256-0.397c0.175-0.143,0.33-0.342,0.465-0.596h2.31c-0.06,0.512-0.34,1.034-0.839,1.564
		c-0.775,0.841-1.86,1.263-3.256,1.263c-1.151,0-2.167-0.356-3.047-1.066c-0.88-0.709-1.321-1.863-1.321-3.463
		c0-1.499,0.397-2.65,1.192-3.45c0.795-0.8,1.827-1.198,3.095-1.198C26.719,79.733,27.398,79.868,28.001,80.138z M24.617,82.093
		c-0.32,0.33-0.52,0.776-0.603,1.34h3.898c-0.042-0.602-0.243-1.056-0.603-1.367c-0.361-0.312-0.809-0.467-1.343-0.467
		C25.387,81.599,24.937,81.763,24.617,82.093z"/>
	<path fill="#40403F" d="M38.384,80.459c0.566,0.469,0.85,1.244,0.85,2.33v5.828h-2.318v-5.265c0-0.456-0.061-0.806-0.182-1.048
		c-0.22-0.444-0.641-0.666-1.261-0.666c-0.762,0-1.285,0.325-1.568,0.977c-0.147,0.343-0.221,0.781-0.221,1.317v4.685h-2.263v-8.638
		h2.191v1.262c0.29-0.444,0.563-0.766,0.822-0.96c0.464-0.35,1.052-0.525,1.763-0.525C37.088,79.756,37.817,79.991,38.384,80.459z"
		/>
	<path fill="#40403F" d="M40.449,81.654v-1.612h1.207v-2.413h2.238v2.413h1.406v1.612h-1.406v4.573c0,0.353,0.045,0.575,0.135,0.662
		c0.09,0.088,0.365,0.132,0.826,0.132c0.069,0,0.142-0.002,0.219-0.004c0.076-0.004,0.152-0.009,0.226-0.013v1.691l-1.072,0.04
		c-1.069,0.035-1.799-0.149-2.191-0.556c-0.254-0.26-0.381-0.659-0.381-1.199v-5.327H40.449z"/>
	<path fill="#40403F" d="M52.391,80.138c0.604,0.27,1.103,0.697,1.495,1.28c0.355,0.514,0.585,1.111,0.69,1.788
		c0.061,0.398,0.085,0.971,0.075,1.72h-6.303c0.035,0.866,0.336,1.476,0.905,1.825c0.346,0.217,0.761,0.326,1.248,0.326
		c0.515,0,0.934-0.134,1.256-0.397c0.176-0.143,0.33-0.342,0.465-0.596h2.31c-0.06,0.512-0.34,1.034-0.838,1.564
		c-0.775,0.841-1.861,1.263-3.257,1.263c-1.151,0-2.167-0.356-3.047-1.066c-0.88-0.709-1.32-1.863-1.32-3.463
		c0-1.499,0.396-2.65,1.191-3.45s1.827-1.198,3.095-1.198C51.109,79.733,51.788,79.868,52.391,80.138z M49.006,82.093
		c-0.32,0.33-0.52,0.776-0.603,1.34h3.898c-0.042-0.602-0.242-1.056-0.603-1.367c-0.361-0.312-0.809-0.467-1.343-0.467
		C49.776,81.599,49.327,81.763,49.006,82.093z"/>
	<path fill="#40403F" d="M63.244,76.914h2.768l4.141,11.703H67.5l-0.771-2.405h-4.311l-0.792,2.405h-2.557L63.244,76.914z
		 M63.084,84.194h2.998l-1.48-4.604L63.084,84.194z"/>
	<path fill="#40403F" d="M76.047,80.102c0.408,0.23,0.738,0.548,0.992,0.957v-4.128h2.295v11.687h-2.199v-1.199
		c-0.32,0.513-0.691,0.885-1.104,1.119c-0.412,0.232-0.926,0.35-1.541,0.35c-1.01,0-1.861-0.409-2.553-1.227
		c-0.689-0.818-1.035-1.868-1.035-3.147c0-1.478,0.342-2.64,1.02-3.485c0.682-0.848,1.592-1.271,2.727-1.271
		C75.174,79.756,75.641,79.872,76.047,80.102z M76.602,86.268c0.334-0.478,0.5-1.094,0.5-1.851c0-1.061-0.266-1.816-0.801-2.271
		c-0.326-0.275-0.709-0.413-1.143-0.413c-0.662,0-1.148,0.25-1.457,0.75c-0.311,0.501-0.465,1.119-0.465,1.862
		c0,0.798,0.158,1.437,0.473,1.918c0.316,0.478,0.793,0.718,1.434,0.718S76.27,86.743,76.602,86.268z"/>
	<path fill="#40403F" d="M83.645,79.963v5.217c0,0.492,0.057,0.86,0.176,1.111c0.203,0.438,0.607,0.658,1.207,0.658
		c0.77,0,1.295-0.313,1.582-0.936c0.146-0.34,0.219-0.787,0.219-1.343v-4.708h2.295v8.654h-2.199v-1.224
		c-0.02,0.026-0.074,0.105-0.158,0.239c-0.084,0.131-0.186,0.248-0.301,0.349c-0.354,0.317-0.693,0.534-1.025,0.651
		c-0.33,0.114-0.717,0.174-1.16,0.174c-1.277,0-2.137-0.46-2.58-1.381c-0.248-0.508-0.373-1.258-0.373-2.246v-5.217H83.645z"/>
	<path fill="#40403F" d="M94.75,83.353c0.42-0.054,0.723-0.118,0.902-0.198c0.326-0.138,0.488-0.354,0.488-0.644
		c0-0.354-0.125-0.599-0.373-0.733c-0.25-0.135-0.617-0.202-1.1-0.202c-0.541,0-0.926,0.13-1.15,0.396
		c-0.16,0.195-0.268,0.461-0.322,0.794h-2.184c0.049-0.759,0.262-1.38,0.641-1.866c0.6-0.762,1.631-1.144,3.092-1.144
		c0.953,0,1.797,0.188,2.537,0.564c0.738,0.375,1.105,1.083,1.105,2.128v3.97c0,0.273,0.008,0.607,0.018,1
		c0.016,0.296,0.061,0.497,0.135,0.604c0.076,0.105,0.186,0.192,0.334,0.262v0.334h-2.461c-0.068-0.175-0.115-0.34-0.145-0.492
		c-0.025-0.155-0.047-0.33-0.062-0.524c-0.314,0.337-0.676,0.627-1.086,0.866c-0.49,0.279-1.045,0.42-1.66,0.42
		c-0.789,0-1.439-0.224-1.953-0.671c-0.514-0.448-0.771-1.082-0.771-1.901c0-1.064,0.412-1.834,1.24-2.311
		c0.453-0.26,1.119-0.444,2-0.556L94.75,83.353z M96.133,84.408c-0.145,0.09-0.291,0.164-0.439,0.22
		c-0.145,0.055-0.348,0.106-0.605,0.154l-0.516,0.096c-0.484,0.082-0.83,0.187-1.039,0.31c-0.357,0.206-0.535,0.526-0.535,0.96
		c0,0.386,0.109,0.666,0.326,0.838c0.217,0.17,0.482,0.258,0.795,0.258c0.494,0,0.949-0.143,1.365-0.428
		c0.418-0.286,0.633-0.809,0.648-1.565V84.408z"/>
	<path fill="#40403F" d="M107.344,80.459c0.566,0.469,0.85,1.244,0.85,2.33v5.828h-2.318v-5.265c0-0.456-0.061-0.806-0.18-1.048
		c-0.223-0.444-0.643-0.666-1.262-0.666c-0.762,0-1.285,0.325-1.57,0.977c-0.146,0.343-0.219,0.781-0.219,1.317v4.685h-2.264v-8.638
		h2.191v1.262c0.289-0.444,0.562-0.766,0.822-0.96c0.463-0.35,1.051-0.525,1.764-0.525
		C106.047,79.756,106.777,79.991,107.344,80.459z"/>
	<path fill="#40403F" d="M113.725,83.353c0.422-0.054,0.723-0.118,0.902-0.198c0.326-0.138,0.488-0.354,0.488-0.644
		c0-0.354-0.123-0.599-0.371-0.733c-0.252-0.135-0.619-0.202-1.1-0.202c-0.543,0-0.926,0.13-1.152,0.396
		c-0.162,0.195-0.268,0.461-0.322,0.794h-2.182c0.047-0.759,0.26-1.38,0.639-1.866c0.598-0.762,1.631-1.144,3.092-1.144
		c0.953,0,1.799,0.188,2.537,0.564c0.738,0.375,1.107,1.083,1.107,2.128v3.97c0,0.273,0.006,0.607,0.016,1
		c0.016,0.296,0.062,0.497,0.135,0.604c0.076,0.105,0.188,0.192,0.334,0.262v0.334h-2.461c-0.068-0.175-0.115-0.34-0.143-0.492
		c-0.027-0.155-0.049-0.33-0.064-0.524c-0.314,0.337-0.676,0.627-1.086,0.866c-0.49,0.279-1.043,0.42-1.66,0.42
		c-0.789,0-1.439-0.224-1.955-0.671c-0.512-0.448-0.77-1.082-0.77-1.901c0-1.064,0.412-1.834,1.24-2.311
		c0.453-0.26,1.119-0.444,2-0.556L113.725,83.353z M115.107,84.408c-0.145,0.09-0.291,0.164-0.438,0.22
		c-0.148,0.055-0.35,0.106-0.607,0.154l-0.514,0.096c-0.484,0.082-0.83,0.187-1.041,0.31c-0.357,0.206-0.535,0.526-0.535,0.96
		c0,0.386,0.107,0.666,0.326,0.838c0.217,0.17,0.482,0.258,0.795,0.258c0.494,0,0.949-0.143,1.365-0.428
		c0.416-0.286,0.633-0.809,0.648-1.565V84.408z"/>
	<path fill="#40403F" d="M121.65,88.617h-2.264V76.914h2.264V88.617z"/>
</g>
<g>
	<g>
		<rect x="32.716" y="19.725" fill="#40403F" width="10.81" height="4.511"/>
		<rect x="32.716" y="31.88" fill="#40403F" width="10.81" height="4.512"/>
		<rect x="32.716" y="43.795" fill="#40403F" width="10.81" height="4.51"/>
	</g>
	<path fill="#40403F" d="M88.465,21.257V7.64h-4.682V1.598h-49.62v12.083h10.81v40.512h-10.81v13.448h49.62V54.109h4.682V40.491
		h-4.682v-2.808h4.682V24.065h-4.682v-2.808H88.465z M62.311,10.538c3.492,0,6.324,2.833,6.324,6.327s-2.832,6.325-6.324,6.325
		c-3.494,0-6.326-2.832-6.326-6.325S58.817,10.538,62.311,10.538z M56.836,21.626c2.368,2.427,4.885,1.897,4.922,2.13
		c0.036,0.234-1.753,1.258-1.753,1.258l2.209,4.611l2.209-4.611c0,0-1.785-1.024-1.75-1.258c0.035-0.232,2.553,0.297,4.92-2.13
		c0,0,6.697,2.924,6.055,10.253H62.564h-0.699H50.78C50.142,24.55,56.836,21.626,56.836,21.626z M74.846,54.109H49.484v-2.738
		h25.362V54.109z M74.846,46.535H49.484v-2.74h25.362V46.535z M74.846,39.13H49.484v-2.739h25.362V39.13z"/>
</g>
</svg>
