<?xml version="1.0" encoding="utf-8"?>
<!-- Generator: Adobe Illustrator 16.0.0, SVG Export Plug-In . SVG Version: 6.00 Build 0)  -->
<!DOCTYPE svg PUBLIC "-//W3C//DTD SVG 1.1//EN" "http://www.w3.org/Graphics/SVG/1.1/DTD/svg11.dtd">
<svg version="1.1" id="Capa_1" xmlns="http://www.w3.org/2000/svg" xmlns:xlink="http://www.w3.org/1999/xlink" x="0px" y="0px"
	 width="30px" height="30px" viewBox="0 0 30 30" enable-background="new 0 0 30 30" xml:space="preserve">
<rect fill="#008894" width="30" height="30"/>
<g>
	<g>
		<path fill="#FFFFFF" d="M12.311,8.006c2.35,0,4.254,1.905,4.254,4.252c0,2.347-1.904,4.252-4.254,4.252s-4.252-1.905-4.252-4.252
			C8.059,9.911,9.961,8.006,12.311,8.006"/>
		<path fill="#FFFFFF" d="M15.623,16.253c-0.879,0.788-2.039,1.269-3.312,1.269c-1.271,0-2.432-0.48-3.311-1.269
			c-2.361,1.255-3.98,3.809-4,6.76h14.625C19.605,20.062,17.984,17.508,15.623,16.253z"/>
	</g>
	<g>
		<path fill="#FFFFFF" d="M25,11.484h-2.307v2.426h-2.205v-2.426h-2.32V9.416h2.309V6.987h2.201v2.429H25V11.484z"/>
	</g>
</g>
</svg>
