<?xml version="1.0" encoding="utf-8"?>
<!-- Generator: Adobe Illustrator 16.0.0, SVG Export Plug-In . SVG Version: 6.00 Build 0)  -->
<!DOCTYPE svg PUBLIC "-//W3C//DTD SVG 1.1//EN" "http://www.w3.org/Graphics/SVG/1.1/DTD/svg11.dtd">
<svg version="1.1" id="Capa_1" xmlns="http://www.w3.org/2000/svg" xmlns:xlink="http://www.w3.org/1999/xlink" x="0px" y="0px"
	 width="130px" height="24px" viewBox="0 0 130 24" enable-background="new 0 0 130 24" xml:space="preserve">
<g>
	<path fill="#008894" d="M10.418,16.45H4.623l-0.837,2.301H0L5.857,4.107h3.326l5.857,14.644h-3.786L10.418,16.45z M9.288,13.375
		l-1.046-2.846c-0.313-0.837-0.69-2.154-0.711-2.154H7.51c-0.021,0-0.397,1.317-0.711,2.154l-1.046,2.846H9.288z"/>
	<path fill="#008894" d="M26.399,17.559c-0.857,0.921-2.531,1.485-3.975,1.485c-4.205,0-7.594-3.201-7.594-7.615
		s3.389-7.614,7.594-7.614c2.845,0,5.334,1.506,6.652,3.891L25.5,8.646c-0.69-0.837-1.925-1.359-3.075-1.359
		c-2.427,0-3.933,1.736-3.933,4.142c0,2.573,1.736,4.185,4.142,4.185c2.343,0,3.368-1.214,3.786-2.302v-0.021h-3.849v-2.824h6.841
		v8.284h-3.013c0-0.962,0.021-1.172,0.021-1.192H26.399z"/>
	<path fill="#008894" d="M40.331,18.751l-2.72-4.77h-1.799v4.77h-3.515V4.107h5.46c3.682,0,5.899,2.008,5.899,5.021
		c0,1.967-0.941,3.431-2.636,4.226l3.242,5.397H40.331z M35.812,10.864h2.427c1.255,0,1.757-0.941,1.757-1.736
		s-0.502-1.736-1.757-1.736h-2.427V10.864z"/>
	<path fill="#008894" d="M57.296,15.467v3.284H46.522V4.107h10.648v3.284h-7.134v2.405h5.585v3.075h-5.585v2.595H57.296z"/>
	<path fill="#008894" d="M70.433,17.559c-0.857,0.921-2.531,1.485-3.975,1.485c-4.205,0-7.594-3.201-7.594-7.615
		s3.389-7.614,7.594-7.614c2.845,0,5.334,1.506,6.652,3.891l-3.577,0.941c-0.69-0.837-1.925-1.359-3.075-1.359
		c-2.427,0-3.933,1.736-3.933,4.142c0,2.573,1.736,4.185,4.142,4.185c2.343,0,3.368-1.214,3.786-2.302v-0.021h-3.849v-2.824h6.841
		v8.284h-3.013c0-0.962,0.021-1.172,0.021-1.192H70.433z"/>
	<path fill="#008894" d="M85.116,16.45h-5.795l-0.837,2.301h-3.786l5.857-14.644h3.326l5.857,14.644h-3.786L85.116,16.45z
		 M83.986,13.375l-1.046-2.846c-0.313-0.837-0.69-2.154-0.711-2.154h-0.021c-0.021,0-0.397,1.317-0.711,2.154l-1.046,2.846H83.986z"
		/>
	<path fill="#008894" d="M98.985,18.751l-2.72-4.77h-1.799v4.77h-3.515V4.107h5.46c3.682,0,5.899,2.008,5.899,5.021
		c0,1.967-0.941,3.431-2.636,4.226l3.242,5.397H98.985z M94.467,10.864h2.427c1.255,0,1.757-0.941,1.757-1.736
		s-0.502-1.736-1.757-1.736h-2.427V10.864z"/>
</g>
<g>
	<polygon fill="#008894" points="111.021,4.94 120.513,11.763 130,4.94 130,9.409 120.513,16.231 111.021,9.409 	"/>
</g>
</svg>
