<?xml version="1.0" encoding="utf-8"?>
<!-- Generator: Adobe Illustrator 16.0.0, SVG Export Plug-In . SVG Version: 6.00 Build 0)  -->
<!DOCTYPE svg PUBLIC "-//W3C//DTD SVG 1.1//EN" "http://www.w3.org/Graphics/SVG/1.1/DTD/svg11.dtd">
<svg version="1.1" id="Capa_1" xmlns="http://www.w3.org/2000/svg" xmlns:xlink="http://www.w3.org/1999/xlink" x="0px" y="0px"
	 width="30px" height="30px" viewBox="0 0 30 30" enable-background="new 0 0 30 30" xml:space="preserve">
<g>
	<polygon fill="#DB9600" points="15.435,13.935 8.589,11.644 14.793,9.159 21.414,11 	"/>
	<polygon fill="#F7BC46" points="14.793,9.159 14.793,18.17 20.454,15.172 21.414,11 	"/>
	<polygon fill="#F2C370" points="15.435,20.777 8.589,18.07 8.589,11.644 15.435,13.935 	"/>
	<polygon fill="#DB9600" points="21.414,11 15.435,13.935 15.435,20.777 21.414,17.168 	"/>
	<g>
		<g>
			<path fill="#DB9600" d="M27.984,15l-0.061-1.205c0.688-0.256,1.335-0.537,1.997-0.851c-0.147-1.245-0.509-2.457-0.963-3.624
				c-0.715,0.051-1.455,0.146-2.167,0.264c-0.181-0.359-0.332-0.736-0.554-1.072c-0.217-0.339-0.399-0.704-0.652-1.017
				c0.455-0.558,0.89-1.139,1.306-1.742c-0.762-0.991-1.653-1.882-2.643-2.645c-0.604,0.416-1.185,0.853-1.742,1.306
				c-0.313-0.253-0.679-0.433-1.017-0.651c-0.336-0.221-0.713-0.375-1.074-0.555c0.118-0.712,0.214-1.452,0.267-2.167
				c-1.168-0.453-2.383-0.815-3.626-0.964c-0.312,0.663-0.597,1.311-0.849,1.999L15,2.016l-1.204,0.062
				c-0.257-0.688-0.539-1.336-0.853-1.999C11.7,0.227,10.487,0.589,9.32,1.042c0.051,0.715,0.146,1.455,0.264,2.167
				c-0.36,0.18-0.736,0.333-1.073,0.555C8.173,3.982,7.81,4.162,7.496,4.415c-0.558-0.453-1.139-0.89-1.743-1.306
				C4.762,3.872,3.874,4.763,3.11,5.754c0.416,0.603,0.852,1.184,1.306,1.742C4.161,7.809,3.981,8.173,3.764,8.513
				C3.542,8.849,3.39,9.226,3.209,9.585C2.496,9.467,1.758,9.372,1.042,9.321c-0.454,1.167-0.815,2.379-0.963,3.624
				c0.663,0.314,1.31,0.595,1.997,0.851L2.016,15l0.06,1.206c-0.688,0.255-1.334,0.536-1.997,0.851
				c0.147,1.244,0.509,2.458,0.963,3.624c0.716-0.052,1.454-0.147,2.167-0.265c0.181,0.36,0.333,0.734,0.555,1.075
				c0.218,0.338,0.397,0.701,0.652,1.014c-0.454,0.557-0.89,1.138-1.306,1.743c0.764,0.989,1.652,1.881,2.644,2.644
				c0.604-0.416,1.185-0.854,1.743-1.307c0.313,0.253,0.677,0.435,1.015,0.652c0.337,0.223,0.713,0.375,1.073,0.555
				c-0.118,0.711-0.213,1.451-0.264,2.167c1.167,0.454,2.38,0.815,3.623,0.962c0.314-0.661,0.596-1.31,0.853-1.996L15,27.984
				l1.207-0.06c0.252,0.687,0.536,1.335,0.849,1.996c1.243-0.146,2.458-0.508,3.626-0.962c-0.053-0.716-0.148-1.456-0.267-2.167
				c0.361-0.18,0.738-0.332,1.074-0.555c0.338-0.218,0.703-0.399,1.017-0.652c0.558,0.453,1.138,0.891,1.742,1.307
				c0.989-0.763,1.881-1.654,2.643-2.644c-0.416-0.605-0.851-1.187-1.306-1.743c0.253-0.312,0.436-0.676,0.652-1.014
				c0.222-0.341,0.373-0.715,0.554-1.075c0.712,0.118,1.452,0.213,2.167,0.265c0.454-1.166,0.815-2.38,0.963-3.624
				c-0.662-0.314-1.309-0.596-1.997-0.851L27.984,15z M15.001,24.346c-5.163,0-9.346-4.185-9.346-9.346
				c0-5.162,4.184-9.345,9.346-9.345c5.161,0,9.344,4.184,9.344,9.345C24.346,20.161,20.162,24.346,15.001,24.346z"/>
		</g>
	</g>
</g>
</svg>
