<?xml version="1.0" encoding="UTF-8"?>
<svg width="20px" height="20px" viewBox="0 0 20 20" version="1.1" xmlns="http://www.w3.org/2000/svg" xmlns:xlink="http://www.w3.org/1999/xlink">
    <!-- Generator: Sketch 48.2 (47327) - http://www.bohemiancoding.com/sketch -->
    <title>AMBIENTE/inhabilitado</title>
    <desc>Created with Sketch.</desc>
    <g id="Page-1" stroke="none" stroke-width="1" fill="none" fill-rule="evenodd">
        <g id="AMBIENTE/inhabilitado">
            <g id="AMBIENTE2">
                <circle id="Oval" fill="#808080" fill-rule="nonzero" cx="10" cy="10" r="10"></circle>
                <path d="M10.5000922,15 C9.29582678,14.9892476 8.14516172,14.5005083 7.30125491,13.6413095 C6.45734811,12.7821108 5.98933548,11.6228413 6.0001845,10.418552 C6.09650437,7.98780062 8.06803695,6.0519122 10.5000922,6 C12.9938091,6.05516356 14.9895732,8.08709178 15,10.581448 C14.9239281,13.0211196 12.9406963,14.9684957 10.5000922,15 Z M10.5000922,7.28280543 C8.72332117,7.28280543 7.28296363,8.7231925 7.28296363,10.5 C7.28296363,12.2768075 8.72332117,13.7171946 10.5000922,13.7171946 C12.2768633,13.7171946 13.7172209,12.2768075 13.7172209,10.5 C13.7172209,9.64674695 13.3782744,8.82844092 12.7749457,8.2250999 C12.1716171,7.62175888 11.3533278,7.28280543 10.5000922,7.28280543 Z" id="Shape" fill="#FFFFFF" fill-rule="nonzero"></path>
                <path d="M5.96530365,14.6397983 C5.94487682,14.7469106 5.88970804,14.8433057 5.80917009,14.9126069 L4.94176141,15.8219691 C4.81472682,15.9680444 4.62226493,16.0306628 4.43866437,15.9856543 C4.25815491,15.9401562 4.10989829,15.805717 4.04094839,15.6250051 C3.97199849,15.4442932 3.99091751,15.2397494 4.09170089,15.0762921 L4.21313811,14.9307942 L5.04585045,14.16693 L5.20198401,14.0396193 C5.28140708,13.9867936 5.38278354,13.9867936 5.46220662,14.0396193 C5.59488502,14.095613 5.71357232,14.1827125 5.80917009,14.2942407 C5.88030549,14.4109796 5.94405258,14.5324892 6,14.6579855 L5.96530365,14.6397983 Z" id="Shape" fill="#FFFFFF" fill-rule="nonzero"></path>
                <path d="M9.99033324,3.52923821 L9.99033324,4.26945888 C9.99245346,4.63060004 9.81737374,4.93766178 9.58189074,4.98580147 C9.43458649,5.0302864 9.28201866,4.96897591 9.16842543,4.81964742 C9.0548322,4.67031894 8.99292181,4.4496786 9.00064564,4.22170271 L9.00064564,2.74126137 C9.00057698,2.54073459 9.05403542,2.34874547 9.14879,2.20921988 C9.24354458,2.06969428 9.37148673,1.99457206 9.5033441,2.0010407 C9.64922595,1.98908611 9.79050686,2.08064305 9.88583638,2.24891438 C9.9811659,2.41718572 10.0197638,2.64314276 9.99033324,2.8606518 L9.99033324,3.57699439 L9.99033324,3.52923821 Z" id="Shape" fill="#FFFFFF" fill-rule="nonzero"></path>
                <path d="M17.5063197,9.00164695 L18.3826064,9.00164695 C18.7287783,9.03323927 18.9898375,9.23121483 18.9983754,9.46861854 C19.0113514,9.60107492 18.9461932,9.73158997 18.8173073,9.83130702 C18.6884214,9.93102407 18.5064246,9.99172898 18.3115561,10 L16.6773999,10 C16.2719201,9.97776713 15.9697223,9.73625488 16.0024223,9.4605673 C16.0351223,9.18487972 16.3903372,8.97941408 16.795817,9.00164695 L17.5063197,9.00164695 Z" id="Shape" fill="#FFFFFF" fill-rule="nonzero"></path>
                <path d="M9.99998076,17.4929589 L9.99998076,18.2749802 C10.0021216,18.6333919 9.82533635,18.9381329 9.58755934,18.9859088 C9.4388201,19.0300575 9.284766,18.9692104 9.17006618,18.8210105 C9.05536635,18.6728106 8.99285285,18.4538379 9.00065193,18.227585 L9.00065193,16.7583327 C8.99637644,16.56347 9.04412618,16.3740604 9.13338352,16.2318244 C9.22264086,16.0895884 9.34608406,16.0061936 9.4765228,16.000009 C9.61142638,15.9989985 9.74027756,16.0835772 9.83102467,16.2327063 C9.92177177,16.3818353 9.9658859,16.5814987 9.95239368,16.7820303 L9.95239368,17.4929589 L9.99998076,17.4929589 Z" id="Shape" fill="#FFFFFF" fill-rule="nonzero"></path>
                <path d="M3.49223696,9.03074378 L4.36418606,9.03074378 C4.59579024,9.05050171 4.79894752,9.1413068 4.91079614,9.27506179 C5.02264476,9.40881677 5.02969847,9.56939399 4.92977466,9.707107 C4.82608158,9.89234676 4.54812281,10.0111351 4.2463551,9.99917294 L2.64385406,9.99917294 C2.26241127,9.97481151 1.98019173,9.75663339 2.00756689,9.50727241 C1.98059873,9.3900222 2.02634805,9.27059461 2.13469791,9.17539961 C2.24304778,9.08020461 2.40507117,9.01708539 2.58493858,9 L3.49223696,9 L3.49223696,9.03074378 Z" id="Shape" fill="#FFFFFF" fill-rule="nonzero"></path>
                <path d="M16,4.65122069 C15.982423,4.79921824 15.9090464,4.93559627 15.7940863,5.03393264 L14.9142731,5.85402967 L14.7457982,5.96337594 C14.6589211,6.01220802 14.551884,6.01220802 14.4650068,5.96337594 L14.2403736,5.83580529 C14.1135687,5.76335841 14.0271989,5.63898786 14.0053888,5.49743232 C13.9835787,5.35587678 14.028666,5.21230916 14.1280571,5.10683015 C14.3947557,4.78545744 14.6823788,4.48109142 14.9891508,4.19561122 C15.1195917,4.03903494 15.3301675,3.96834287 15.5320143,4.01336744 C15.8052239,4.11545367 15.9894173,4.36650484 16,4.65122069 Z" id="Shape" fill="#FFFFFF" fill-rule="nonzero"></path>
                <path d="M6,5.43519161 C5.99876065,5.58554638 5.93644795,5.7296881 5.8259715,5.83775431 L5.651943,5.96584245 C5.56124982,6.01138585 5.45258869,6.01138585 5.3618955,5.96584245 C5.14518426,5.87263574 4.94852248,5.74236376 4.78180051,5.58157804 L4.20170551,5.0509272 C4.05775427,4.93011787 3.98383432,4.7512611 4.00297941,4.57008938 C4.02212451,4.38891765 4.13200735,4.22745431 4.29838801,4.13601196 C4.50583132,3.95466268 4.8257317,3.95466268 5.03317501,4.13601196 L5.8259715,5.08752381 C5.93311498,5.17506156 5.9962979,5.30128609 6,5.43519161 Z" id="Shape" fill="#FFFFFF" fill-rule="nonzero"></path>
                <path d="M15.9999998,15.4196466 C15.9910349,15.5667877 15.9242531,15.704734 15.8137714,15.8043251 C15.72277,15.9141857 15.5909155,15.9837281 15.4475281,15.9974881 C15.3041407,16.0112482 15.1611075,15.9680851 15.0502347,15.8775971 L14.9757433,15.8043251 L14.1377152,14.888424 C14.0495767,14.8024362 14,14.6853859 14,14.5632791 C14,14.4411723 14.0495767,14.3241221 14.1377152,14.2381343 C14.228556,14.1171167 14.3608566,14.032529 14.5101721,14 L14.6219092,14 C14.8469042,14.092068 15.0498785,14.2293287 15.2178403,14.4029965 L15.7951485,14.9525371 C15.9259984,15.0737906 16.0001257,15.2428185 15.9999998,15.4196466 Z" id="Shape" fill="#FFFFFF" fill-rule="nonzero"></path>
            </g>
        </g>
    </g>
</svg>