<svg xmlns="http://www.w3.org/2000/svg" width="20" height="20" viewBox="0 0 20 20"><title>ambiente</title><g id="Layer_2" data-name="Layer 2"><g id="Capa_2" data-name="Capa 2"><circle cx="10" cy="10" r="10" style="fill:#338a9c"/><path d="M10,14.42A4.46,4.46,0,0,1,5.58,9.92036V9.92A4.52,4.52,0,0,1,10,5.58a4.52,4.52,0,0,1,4.42,4.5A4.48,4.48,0,0,1,10,14.42Zm0-7.58a3.16019,3.16019,0,1,0,.00013,0Z" style="fill:#fff"/><path d="M6.18,14.52a.52.52,0,0,1-.18.3l-.96,1a.6.6,0,0,1-.58.18.66.66,0,0,1-.4-.98l.14-.16.92-.88.18-.14a.28.28,0,0,1,.3,0,1.0801,1.0801,0,0,1,.4.28,3.48,3.48,0,0,1,.22.4H6.18Z" style="fill:#fff"/><path d="M10.62,3.08V3.7a.6.6,0,0,1-.52.6.62.62,0,0,1-.74-.64V2.42a.62.62,0,0,1,.61968-.62032q.01015,0,.02032.00032a.6.6,0,0,1,.62.72v.6h0Z" style="fill:#fff"/><path d="M16.94,9.38h.74a.6.6,0,0,1,.52.58.62.62,0,0,1-.57841.659L17.6,10.62H16.24a.622.622,0,0,1,.1-1.24Z" style="fill:#fff"/><path d="M10.62,16.94v.66a.6.6,0,0,1-.52.6.62.62,0,0,1-.74-.64V16.32a.62.62,0,0,1,.59933-.64q.02033-.00066.04067,0a.6.6,0,0,1,.6.66v.6h.02Z" style="fill:#fff"/><path d="M3.06,9.38H3.8a.62.62,0,0,1,.48.88.58.58,0,0,1-.58.38H2.34a.6.6,0,0,1-.54-.6.58.58,0,0,1,.49157-.65663L2.32,9.38Z" style="fill:#fff"/><path d="M16,4.7a.66.66,0,0,1-.22.42l-.94.9-.18.12a.3.3,0,0,1-.3,0l-.24-.1A.52.52,0,0,1,14,5.2a10.58921,10.58921,0,0,1,.92-1.02.58.58,0,0,1,.58-.16A.78.78,0,0,1,16,4.7Z" style="fill:#fff"/><path d="M6.18,5.56A.64.64,0,0,1,6,6.02l-.18.14a.32.32,0,0,1-.3,0,1.99982,1.99982,0,0,1-.6-.42l-.6-.58a.62.62,0,0,1,.1-1.04.56.56,0,0,1,.76,0L6,5.18A.52.52,0,0,1,6.18,5.56Z" style="fill:#fff"/><path d="M16,15.36a.62.62,0,0,1-.2.42.58.58,0,0,1-.9,0l-.9-.96a.5.5,0,0,1-.0337-.7063q.016-.01765.0337-.0337a.68.68,0,0,1,.4-.26h.12a1.88,1.88,0,0,1,.64.44l.62.6A.7.7,0,0,1,16,15.36Z" style="fill:#fff"/></g></g></svg>