<svg xmlns="http://www.w3.org/2000/svg" viewBox="0 0 111.72 120.61"><defs><style>.cls-1{fill:#fff;}.cls-2{fill:#ee3422;}</style></defs><g id="Layer_2" data-name="Layer 2"><g id="Layer_1-2" data-name="Layer 1"><path d="M26.32,88.16s18.81-23.28,29.87-32c11.39-9,24.88-2.93,30.39,18.75,0,0-8.09-48-16.72-64.81C62-5.18,54.29,1.41,54.29,1.41S46.36,7,39.26,31C32,55.78,26.32,88.16,26.32,88.16Z"/><path class="cls-1" d="M49.33,36.39s7.5-6.16,11.9-8.46,9.91-.77,12.11,5c0,0-3.23-12.68-6.66-17.13-3.12-4-6.2-2.3-6.2-2.3s-3.17,1.49-6,7.83A118.54,118.54,0,0,0,49.33,36.39Z"/><path class="cls-2" d="M81.27,79.93s-9.42-14.78-30.95.89-23.41,19-23.41,19A150.89,150.89,0,0,1,52.41,71.5c15-12.5,21.52-9.43,23.41-8S80.58,67.43,81.27,79.93Z"/><path d="M1.33,119.91a1.67,1.67,0,0,1-.7-.19,1.41,1.41,0,0,1-.45-1.86l10.51-17.38a1.41,1.41,0,0,1,1.15-.63h0a1.36,1.36,0,0,1,1.16.67L23.28,117.9a1.34,1.34,0,0,1-.48,1.82,1.37,1.37,0,0,1-1.82-.48l-9.14-15.45L2.48,119.28A1.38,1.38,0,0,1,1.33,119.91Z"/><path d="M18.9,114.37H4.68c-.75,0-1.07-.59-1.07-1.33s.32-1.34,1.07-1.34H18.9c.74,0,1.07.59,1.07,1.34S19.64,114.37,18.9,114.37Z"/><path d="M25.21,119.91a1.33,1.33,0,0,1-1.33-1.34V110.7c0-.23-.15-3,1.45-4.8a3.87,3.87,0,0,1,2.93-1.33l3.38-.08h0a1.37,1.37,0,0,1,1.33,1.3,1.35,1.35,0,0,1-1.3,1.38l-3.38.07a1.3,1.3,0,0,0-1,.45,4.73,4.73,0,0,0-.74,2.93v7.95A1.33,1.33,0,0,1,25.21,119.91Z"/><path d="M42.89,119.46c-2.19,0-3.71-.11-3.78-.11h0a5,5,0,0,1-5.2-4.87v-1.82a3.9,3.9,0,0,1,1-2.71,4.91,4.91,0,0,1,3.79-1.41H48.87a2.43,2.43,0,0,0-2.3-1.37h-3.9a1.34,1.34,0,0,1,0-2.68h3.9A4.89,4.89,0,0,1,51.66,109a47.35,47.35,0,0,1,0,5.72c.07,1-.71,4.28-5,4.61C45.27,119.42,44,119.46,42.89,119.46Zm-4.23-8.24a2.57,2.57,0,0,0-1.82.52,1.12,1.12,0,0,0-.26.78v1.93c.07,2.08,2.23,2.23,2.64,2.23a51.46,51.46,0,0,0,7.2,0c2.42-.19,2.57-1.56,2.57-2,0-.15.11-1.49.07-3.49H38.66Z"/><path d="M54.74,119.91a1.33,1.33,0,0,1-1.33-1.34v-9.88a4.49,4.49,0,0,1,4.42-4.2c2.82-.15,8.28,0,8.54,0a4,4,0,0,1,3.82,3.68c.15,2.23,0,10.1,0,10.44a1.37,1.37,0,0,1-1.33,1.3h0a1.38,1.38,0,0,1-1.3-1.38c0-.07.15-8.06,0-10.21a1.3,1.3,0,0,0-1.3-1.15h0c-.11,0-5.54-.08-8.32,0a1.79,1.79,0,0,0-1.82,1.67v9.73A1.33,1.33,0,0,1,54.74,119.91Z"/><path d="M88.65,119.5H76.32c-3.71-.26-4.9-3.72-5-5.5v-4.86a4.61,4.61,0,0,1,1.52-3.38c1.82-1.53,4.65-1.27,4.87-1.27h11a1.34,1.34,0,0,1,0,2.68H77.51a4.46,4.46,0,0,0-3,.63,1.77,1.77,0,0,0-.56,1.37v4.72c0,.19.3,2.79,2.46,2.93H88.65a1.34,1.34,0,0,1,0,2.68Z"/><path d="M99.21,119.94c-3.35,0-5.72-.81-7.28-2.41-2.38-2.49-2-6-1.75-8.43l0-.56A4.92,4.92,0,0,1,92,105.05a7,7,0,0,1,4.9-1.26h6.54a4.64,4.64,0,0,1,3.38,1.89c1.82,2.45,1.26,6.28,1.19,6.72a1.3,1.3,0,0,1-1.3,1.12H92.82a4.14,4.14,0,0,0,1,2.15c1.15,1.27,3.34,1.86,6.57,1.56h.08a1.34,1.34,0,0,1,.07,2.68C100.1,119.94,99.65,119.94,99.21,119.94Zm-6.5-9.1h12.81a6.12,6.12,0,0,0-.78-3.56,2,2,0,0,0-1.45-.82h-6.5a4.71,4.71,0,0,0-3.12.67,2.42,2.42,0,0,0-.78,1.67l-.07.56C92.78,109.84,92.71,110.32,92.71,110.84Z"/><path d="M110.38,120.61a1.33,1.33,0,0,1-1.34-1.33V101.19a1.34,1.34,0,0,1,2.68,0v18.09A1.33,1.33,0,0,1,110.38,120.61Z"/></g></g></svg>