<svg xmlns="http://www.w3.org/2000/svg" width="695" height="41" viewBox="0 0 695 41"><title>barra_695x41</title><g id="Layer_2" data-name="Layer 2"><g id="Capa_2" data-name="Capa 2"><rect width="695" height="41" style="fill:#333"/><polygon points="49.848 19.907 41.36 19.907 32.872 5.356 41.36 5.356 49.848 19.907" style="fill:#fff"/><polygon points="49.848 19.907 41.36 19.907 32.872 34.458 41.36 34.458 49.848 19.907" style="fill:#fff"/><polygon points="71.675 19.907 63.187 19.907 54.698 5.356 63.187 5.356 71.675 19.907" style="fill:#fff"/><polygon points="71.675 19.907 63.187 19.907 54.698 34.458 63.187 34.458 71.675 19.907" style="fill:#fff"/><polygon points="93.501 19.907 85.013 19.907 76.525 5.356 85.013 5.356 93.501 19.907" style="fill:#fff"/><polygon points="93.501 19.907 85.013 19.907 76.525 34.458 85.013 34.458 93.501 19.907" style="fill:#fff"/><polygon points="115.328 19.907 106.839 19.907 98.351 5.356 106.839 5.356 115.328 19.907" style="fill:#fff"/><polygon points="115.328 19.907 106.839 19.907 98.351 34.458 106.839 34.458 115.328 19.907" style="fill:#fff"/><polygon points="137.154 19.907 128.666 19.907 120.178 5.356 128.666 5.356 137.154 19.907" style="fill:#fff"/><polygon points="137.154 19.907 128.666 19.907 120.178 34.458 128.666 34.458 137.154 19.907" style="fill:#fff"/><polygon points="158.98 19.907 150.492 19.907 142.004 5.356 150.492 5.356 158.98 19.907" style="fill:#fff"/><polygon points="158.98 19.907 150.492 19.907 142.004 34.458 150.492 34.458 158.98 19.907" style="fill:#fff"/><polygon points="180.807 19.907 172.319 19.907 163.831 5.356 172.319 5.356 180.807 19.907" style="fill:#fff"/><polygon points="180.807 19.907 172.319 19.907 163.831 34.458 172.319 34.458 180.807 19.907" style="fill:#fff"/><polygon points="202.633 19.907 194.145 19.907 185.657 5.356 194.145 5.356 202.633 19.907" style="fill:#fff"/><polygon points="202.633 19.907 194.145 19.907 185.657 34.458 194.145 34.458 202.633 19.907" style="fill:#fff"/><polygon points="224.46 19.907 215.972 19.907 207.484 5.356 215.972 5.356 224.46 19.907" style="fill:#fff"/><polygon points="224.46 19.907 215.972 19.907 207.484 34.458 215.972 34.458 224.46 19.907" style="fill:#fff"/><polygon points="246.286 19.907 237.798 19.907 229.31 5.356 237.798 5.356 246.286 19.907" style="fill:#fff"/><polygon points="246.286 19.907 237.798 19.907 229.31 34.458 237.798 34.458 246.286 19.907" style="fill:#fff"/><polygon points="268.113 19.907 259.625 19.907 251.137 5.356 259.625 5.356 268.113 19.907" style="fill:#fff"/><polygon points="268.113 19.907 259.625 19.907 251.137 34.458 259.625 34.458 268.113 19.907" style="fill:#fff"/><polygon points="289.939 19.907 281.451 19.907 272.963 5.356 281.451 5.356 289.939 19.907" style="fill:#fff"/><polygon points="289.939 19.907 281.451 19.907 272.963 34.458 281.451 34.458 289.939 19.907" style="fill:#fff"/><polygon points="311.766 19.907 303.278 19.907 294.79 5.356 303.278 5.356 311.766 19.907" style="fill:#fff"/><polygon points="311.766 19.907 303.278 19.907 294.79 34.458 303.278 34.458 311.766 19.907" style="fill:#fff"/><polygon points="333.592 19.907 325.104 19.907 316.616 5.356 325.104 5.356 333.592 19.907" style="fill:#fff"/><polygon points="333.592 19.907 325.104 19.907 316.616 34.458 325.104 34.458 333.592 19.907" style="fill:#fff"/><polygon points="355.419 19.907 346.931 19.907 338.442 5.356 346.931 5.356 355.419 19.907" style="fill:#fff"/><polygon points="355.419 19.907 346.931 19.907 338.442 34.458 346.931 34.458 355.419 19.907" style="fill:#fff"/><polygon points="377.245 19.907 368.757 19.907 360.269 5.356 368.757 5.356 377.245 19.907" style="fill:#fff"/><polygon points="377.245 19.907 368.757 19.907 360.269 34.458 368.757 34.458 377.245 19.907" style="fill:#fff"/><polygon points="399.071 19.907 390.583 19.907 382.095 5.356 390.583 5.356 399.071 19.907" style="fill:#fff"/><polygon points="399.071 19.907 390.583 19.907 382.095 34.458 390.583 34.458 399.071 19.907" style="fill:#fff"/><polygon points="420.898 19.907 412.41 19.907 403.922 5.356 412.41 5.356 420.898 19.907" style="fill:#fff"/><polygon points="420.898 19.907 412.41 19.907 403.922 34.458 412.41 34.458 420.898 19.907" style="fill:#fff"/><polygon points="442.724 19.907 434.236 19.907 425.748 5.356 434.236 5.356 442.724 19.907" style="fill:#fff"/><polygon points="442.724 19.907 434.236 19.907 425.748 34.458 434.236 34.458 442.724 19.907" style="fill:#fff"/><polygon points="464.551 19.907 456.063 19.907 447.575 5.356 456.063 5.356 464.551 19.907" style="fill:#fff"/><polygon points="464.551 19.907 456.063 19.907 447.575 34.458 456.063 34.458 464.551 19.907" style="fill:#fff"/><polygon points="486.377 19.907 477.889 19.907 469.401 5.356 477.889 5.356 486.377 19.907" style="fill:#fff"/><polygon points="486.377 19.907 477.889 19.907 469.401 34.458 477.889 34.458 486.377 19.907" style="fill:#fff"/><polygon points="508.204 19.907 499.716 19.907 491.228 5.356 499.716 5.356 508.204 19.907" style="fill:#fff"/><polygon points="508.204 19.907 499.716 19.907 491.228 34.458 499.716 34.458 508.204 19.907" style="fill:#fff"/><polygon points="530.03 19.907 521.542 19.907 513.054 5.356 521.542 5.356 530.03 19.907" style="fill:#fff"/><polygon points="530.03 19.907 521.542 19.907 513.054 34.458 521.542 34.458 530.03 19.907" style="fill:#fff"/><polygon points="551.421 19.907 542.933 19.907 534.445 5.356 542.933 5.356 551.421 19.907" style="fill:#fff"/><polygon points="551.421 19.907 542.933 19.907 534.445 34.458 542.933 34.458 551.421 19.907" style="fill:#fff"/><polygon points="573.248 19.907 564.76 19.907 556.271 5.356 564.76 5.356 573.248 19.907" style="fill:#fff"/><polygon points="573.248 19.907 564.76 19.907 556.271 34.458 564.76 34.458 573.248 19.907" style="fill:#fff"/><polygon points="595.074 19.907 586.586 19.907 578.098 5.356 586.586 5.356 595.074 19.907" style="fill:#fff"/><polygon points="595.074 19.907 586.586 19.907 578.098 34.458 586.586 34.458 595.074 19.907" style="fill:#fff"/><polygon points="616.901 19.907 608.412 19.907 599.924 5.356 608.412 5.356 616.901 19.907" style="fill:#fff"/><polygon points="616.901 19.907 608.412 19.907 599.924 34.458 608.412 34.458 616.901 19.907" style="fill:#fff"/><polygon points="638.727 19.907 630.239 19.907 621.751 5.356 630.239 5.356 638.727 19.907" style="fill:#fff"/><polygon points="638.727 19.907 630.239 19.907 621.751 34.458 630.239 34.458 638.727 19.907" style="fill:#fff"/><polygon points="660.553 19.907 652.065 19.907 643.577 5.356 652.065 5.356 660.553 19.907" style="fill:#fff"/><polygon points="660.553 19.907 652.065 19.907 643.577 34.458 652.065 34.458 660.553 19.907" style="fill:#fff"/></g></g></svg>