<svg xmlns="http://www.w3.org/2000/svg" width="10" height="10" viewBox="0 0 10 10"><title>vineta_blanca</title><g id="Layer_2" data-name="Layer 2"><g id="Layer_2-2" data-name="Layer 2"><g id="jvHFBI"><path d="M9.05335,5.41155c.198.08117.37039.14286.53487.22116a.63024.63024,0,0,1,.3782.81044,4.69438,4.69438,0,0,1-.21876.61368A.622.622,0,0,1,8.849,7.4667c-.3653-.14394-.61325-.13569-.79984.23911a.638.638,0,0,1-.23626.2397c-.26038.158-.21143.33512-.09631.56595.26891.53919.16151.82777-.37529,1.0936a4.61963,4.61963,0,0,1-.47672.2113c-.41067.14832-.724.06272-.88149-.34155-.15647-.40179-.3727-.44948-.77325-.43281-.44311.01845-.7389.04633-.86459.55634a.58862.58862,0,0,1-.81209.36073,6.72371,6.72371,0,0,1-.66164-.24273A.64976.64976,0,0,1,2.514,8.8488c.15158-.4942.11052-.45673-.2395-.83975a.72315.72315,0,0,0-1.02335-.22078c-.33286.17646-.6462-.00535-.8303-.369-.09419-.186-.18039-.37659-.26046-.56914A.62087.62087,0,0,1,.49482,5.9818a.58237.58237,0,0,0,.44234-.77524,3.14725,3.14725,0,0,1-.00737-.63509C.7697,4.506.60912,4.44123.4492,4.37484a.63615.63615,0,0,1-.41329-.83566A4.68049,4.68049,0,0,1,.264,2.90144a.61826.61826,0,0,1,.848-.38783.64555.64555,0,0,0,.8642-.22181c.28525-.33444.50977-.55793.2287-1.02008A.56787.56787,0,0,1,2.50739.46264c.167-.09245.34207-.17107.51647-.2493A.70374.70374,0,0,1,4.08568.61217c.1781.37208.17737.36487.57491.32479.198-.02.40144.00892.5978-.018A.34469.34469,0,0,0,5.49654.75175c.329-.81125.51132-.89521,1.33875-.58538.07333.02746.1475.05275.22029.08157a.65714.65714,0,0,1,.4259.91795c-.16018.46275-.12174.42759.20252.78149a.78157.78157,0,0,0,1.09272.24547c.3079-.16367.62563.02548.793.35693q.13518.26765.2528.54408a.66866.66866,0,0,1-.39071.95741.82324.82324,0,0,1-.09652.03987c-.25657.07535-.34172.22114-.29188.50127A4.80006,4.80006,0,0,1,9.05335,5.41155Zm-1.51672-.373A2.53742,2.53742,0,1,0,4.92218,7.52934,2.54054,2.54054,0,0,0,7.53662,5.03856Z" style="fill:#fff"/></g></g></g></svg>