<svg xmlns="http://www.w3.org/2000/svg" width="170" height="30" viewBox="0 0 170 30"><title>boton_planificar</title><g id="Layer_2" data-name="Layer 2"><g id="Capa_1" data-name="Capa 1"><rect width="170" height="30" style="fill:#008894"/><path d="M16.58033,7.99986c3.61133,0,5.79492,1.88965,5.79492,5.03906S20.19166,18.078,16.58033,18.078h-2.0791v4.61914H10.97389V7.99986Zm-.06348,6.78223c1.36426,0,2.18359-.65137,2.18359-1.74316s-.81934-1.74316-2.18359-1.74316H14.50123v3.48633Z" style="fill:#fff"/><path d="M34.70143,19.40123v3.2959H24.22487V7.99986h3.52734V19.40123Z" style="fill:#fff"/><path d="M46.00026,20.38756H40.18385L39.344,22.69713H35.5442L41.42311,7.99986H44.762l5.87891,14.69727H46.8401Zm-1.13379-3.08594-1.0498-2.85547c-.31445-.83984-.69336-2.16309-.71387-2.16309h-.02051c-.02148,0-.39941,1.32324-.71484,2.16309l-1.04883,2.85547Z" style="fill:#fff"/><path d="M65.04615,7.99986V22.69713H61.72877l-3.002-4.09473c-1.34375-1.84766-3.31836-4.63965-3.33887-4.63965h-.02051c-.02148,0,.02051,2.26758.02051,5.47949v3.25488H51.86061V7.99986H55.178l3.12891,4.19922c.94434,1.25977,3.19141,4.43066,3.21191,4.43066h.02051c.02148,0-.02051-2.60352-.02051-5.27051V7.99986Z" style="fill:#fff"/><path d="M68.32448,22.69713V7.99986h3.52734V22.69713Z" style="fill:#fff"/><path d="M78.65553,11.29576v2.877H84.051v3.16992H78.65553v5.35449H75.12819V7.99986H85.60573v3.2959Z" style="fill:#fff"/><path d="M87.97975,22.69713V7.99986h3.52734V22.69713Z" style="fill:#fff"/><path d="M104.42018,12.55552a4.11852,4.11852,0,0,0-3.08594-1.36426A3.83782,3.83782,0,0,0,97.387,15.34849a3.81491,3.81491,0,0,0,3.94727,4.11523,3.99688,3.99688,0,0,0,3.35938-1.72168l3.56934.92383a7.65618,7.65618,0,0,1-14.5498-3.31738,7.63553,7.63553,0,0,1,14.29785-3.7373Z" style="fill:#fff"/><path d="M118.428,20.38756h-5.81641l-.83984,2.30957h-3.7998l5.87891-14.69727h3.33887l5.87891,14.69727h-3.80078Zm-1.13379-3.08594-1.0498-2.85547c-.31445-.83984-.69336-2.16309-.71387-2.16309H115.51c-.02148,0-.39941,1.32324-.71484,2.16309l-1.04883,2.85547Z" style="fill:#fff"/><path d="M132.35084,22.69713,129.62135,17.91h-1.80566v4.78711h-3.52734V7.99986h5.47949c3.69531,0,5.92188,2.01562,5.92188,5.03906a4.41946,4.41946,0,0,1-2.64648,4.24121l3.25488,5.417Zm-4.53516-7.915h2.43555a1.67334,1.67334,0,0,0,1.76367-1.74316,1.67334,1.67334,0,0,0-1.76367-1.74316h-2.43555Z" style="fill:#fff"/><polygon points="147.608 25 155.529 14.997 147.608 5 152.793 5 160.715 14.997 152.793 24.997 147.608 25" style="fill:#fff"/></g></g></svg>