<?xml version="1.0" encoding="utf-8"?>
<!-- Generator: Adobe Illustrator 16.0.0, SVG Export Plug-In . SVG Version: 6.00 Build 0)  -->
<!DOCTYPE svg PUBLIC "-//W3C//DTD SVG 1.1//EN" "http://www.w3.org/Graphics/SVG/1.1/DTD/svg11.dtd" [
	<!ENTITY ns_extend "http://ns.adobe.com/Extensibility/1.0/">
	<!ENTITY ns_ai "http://ns.adobe.com/AdobeIllustrator/10.0/">
	<!ENTITY ns_graphs "http://ns.adobe.com/Graphs/1.0/">
	<!ENTITY ns_vars "http://ns.adobe.com/Variables/1.0/">
	<!ENTITY ns_imrep "http://ns.adobe.com/ImageReplacement/1.0/">
	<!ENTITY ns_sfw "http://ns.adobe.com/SaveForWeb/1.0/">
	<!ENTITY ns_custom "http://ns.adobe.com/GenericCustomNamespace/1.0/">
	<!ENTITY ns_adobe_xpath "http://ns.adobe.com/XPath/1.0/">
]>
<svg version="1.1" id="Capa_1" xmlns:x="&ns_extend;" xmlns:i="&ns_ai;" xmlns:graph="&ns_graphs;"
	 xmlns="http://www.w3.org/2000/svg" xmlns:xlink="http://www.w3.org/1999/xlink" x="0px" y="0px" width="70px" height="44px"
	 viewBox="0 0 70 44" enable-background="new 0 0 70 44" xml:space="preserve">
<metadata>
	<sfw  xmlns="&ns_sfw;">
		<slices></slices>
		<sliceSourceBounds  bottomLeftOrigin="true" height="43.886" width="69.869" y="-43.919" x="0.104"></sliceSourceBounds>
	</sfw>
</metadata>
<rect x="0.604" y="0.533" fill="#ECEEF0" stroke="#C0C1C7" stroke-miterlimit="10" width="68.869" height="42.886"/>
<g>
	<path fill="#424242" d="M46.771,11.969h-0.107v-0.11h-23.25v0.11h-0.107v19.802h0.107v0.322h23.25v-0.322h0.107V11.969z
		 M30.337,20.79h-4.662v-6.564h4.662V20.79z M32.708,14.226h4.662v6.564h-4.662V14.226z M30.337,23.159v6.566h-4.662v-6.566H30.337z
		 M32.708,23.159h4.662v6.566h-4.662V23.159z M39.737,23.159h4.664v6.566h-4.664V23.159z M39.737,20.79v-6.564h4.664v6.564H39.737z"
		/>
</g>
</svg>
