<?xml version="1.0" encoding="utf-8"?>
<!-- Generator: Adobe Illustrator 21.0.0, SVG Export Plug-In . SVG Version: 6.00 Build 0)  -->
<svg version="1.1" id="Capa_1" xmlns="http://www.w3.org/2000/svg" xmlns:xlink="http://www.w3.org/1999/xlink" x="0px" y="0px"
	 viewBox="0 0 170 30" style="enable-background:new 0 0 170 30;" xml:space="preserve">
<style type="text/css">
	.st0{fill:#008894;}
	.st1{fill:#FFFFFF;}
</style>
<rect x="0" class="st0" width="170" height="30"/>
<g>
	<g>
		<polygon class="st1" points="138.6,25.3 146.7,15 138.6,4.7 143.9,4.7 152.1,15 143.9,25.2 		"/>
	</g>
	<g>
		<path class="st1" d="M27.7,22.4L25,17.6h-1.8v4.8h-3.6V7.6h5.5c3.7,0,6,2,6,5.1c0,2-1,3.5-2.7,4.3l3.3,5.5H27.7z M23.1,14.4h2.5
			c1.3,0,1.8-1,1.8-1.8s-0.5-1.8-1.8-1.8h-2.5V14.4z"/>
		<path class="st1" d="M44.8,19.1v3.3H34V7.6h10.8v3.3h-7.2v2.4h5.6v3.1h-5.6v2.6H44.8z"/>
		<path class="st1" d="M56.8,20.1H51l-0.8,2.3h-3.8l5.9-14.8h3.4l5.9,14.8h-3.8L56.8,20.1z M55.7,17l-1.1-2.9
			c-0.3-0.8-0.7-2.2-0.7-2.2h0c0,0-0.4,1.3-0.7,2.2L52.1,17H55.7z"/>
		<path class="st1" d="M73.3,19.1v3.3H62.7V7.6h3.6v11.5H73.3z"/>
		<path class="st1" d="M75.3,22.4V7.6h3.6v14.8H75.3z"/>
		<path class="st1" d="M94.3,10.9L88,17.7c-0.7,0.7-1.4,1.4-1.4,1.4l0,0c0,0,1-0.1,2.3-0.1h5.3v3.3H81.8v-3.3l6.6-6.9
			c0.5-0.6,1.4-1.2,1.4-1.3l0,0c0,0-1.4,0.1-2.3,0.1H82V7.6h12.3V10.9z"/>
		<path class="st1" d="M105.9,20.1h-5.9l-0.8,2.3h-3.8l5.9-14.8h3.4l5.9,14.8h-3.8L105.9,20.1z M104.8,17l-1.1-2.9
			c-0.3-0.8-0.7-2.2-0.7-2.2h0c0,0-0.4,1.3-0.7,2.2l-1.1,2.9H104.8z"/>
		<path class="st1" d="M119.9,22.4l-2.7-4.8h-1.8v4.8h-3.6V7.6h5.5c3.7,0,6,2,6,5.1c0,2-1,3.5-2.7,4.3l3.3,5.5H119.9z M115.3,14.4
			h2.5c1.3,0,1.8-1,1.8-1.8s-0.5-1.8-1.8-1.8h-2.5V14.4z"/>
	</g>
</g>
</svg>
