<?xml version="1.0" encoding="utf-8"?>
<!-- Generator: Adobe Illustrator 16.0.0, SVG Export Plug-In . SVG Version: 6.00 Build 0)  -->
<!DOCTYPE svg PUBLIC "-//W3C//DTD SVG 1.1//EN" "http://www.w3.org/Graphics/SVG/1.1/DTD/svg11.dtd" [
	<!ENTITY ns_extend "http://ns.adobe.com/Extensibility/1.0/">
	<!ENTITY ns_ai "http://ns.adobe.com/AdobeIllustrator/10.0/">
	<!ENTITY ns_graphs "http://ns.adobe.com/Graphs/1.0/">
	<!ENTITY ns_vars "http://ns.adobe.com/Variables/1.0/">
	<!ENTITY ns_imrep "http://ns.adobe.com/ImageReplacement/1.0/">
	<!ENTITY ns_sfw "http://ns.adobe.com/SaveForWeb/1.0/">
	<!ENTITY ns_custom "http://ns.adobe.com/GenericCustomNamespace/1.0/">
	<!ENTITY ns_adobe_xpath "http://ns.adobe.com/XPath/1.0/">
]>
<svg version="1.1" id="Capa_1" xmlns:x="&ns_extend;" xmlns:i="&ns_ai;" xmlns:graph="&ns_graphs;"
	 xmlns="http://www.w3.org/2000/svg" xmlns:xlink="http://www.w3.org/1999/xlink" x="0px" y="0px" width="170px" height="30px"
	 viewBox="0 0 170 30" enable-background="new 0 0 170 30" xml:space="preserve">
<metadata>
	<sfw  xmlns="&ns_sfw;">
		<slices></slices>
		<sliceSourceBounds  width="170" height="30" x="0" y="-30" bottomLeftOrigin="true"></sliceSourceBounds>
	</sfw>
</metadata>
<rect fill="#C2C3C9" width="170" height="30"/>
<g>
	<path fill="#FFFFFF" d="M45.204,21.152c-0.861,0.924-2.541,1.49-3.989,1.49c-4.22,0-7.622-3.213-7.622-7.643
		c0-4.43,3.401-7.643,7.622-7.643c2.855,0,5.354,1.512,6.677,3.905l-3.59,0.945c-0.693-0.84-1.932-1.365-3.086-1.365
		c-2.436,0-3.947,1.743-3.947,4.157c0,2.582,1.743,4.199,4.157,4.199c2.352,0,3.38-1.218,3.8-2.31v-0.021h-3.863v-2.835h6.866v8.314
		h-3.023c0-0.966,0.021-1.176,0.021-1.196H45.204z"/>
	<path fill="#FFFFFF" d="M61.941,19.053v3.296H51.128V7.651h10.687v3.296h-7.16v2.415h5.606v3.087h-5.606v2.604H61.941z"/>
	<path fill="#FFFFFF" d="M78.236,7.651v14.697h-3.317l-3.002-4.095c-1.344-1.848-3.317-4.64-3.338-4.64h-0.021
		c-0.021,0,0.021,2.268,0.021,5.479v3.255h-3.527V7.651h3.317l3.128,4.199c0.945,1.26,3.192,4.431,3.212,4.431h0.021
		c0.021,0-0.021-2.604-0.021-5.271V7.651H78.236z"/>
	<path fill="#FFFFFF" d="M92.327,19.053v3.296H81.515V7.651h10.688v3.296h-7.16v2.415h5.605v3.087h-5.605v2.604H92.327z"/>
	<path fill="#FFFFFF" d="M103.5,22.349l-2.729-4.787h-1.806v4.787h-3.527V7.651h5.479c3.695,0,5.922,2.016,5.922,5.039
		c0,1.974-0.945,3.443-2.646,4.241l3.255,5.417H103.5z M98.965,14.433h2.436c1.26,0,1.764-0.945,1.764-1.743
		s-0.504-1.743-1.764-1.743h-2.436V14.433z"/>
	<path fill="#FFFFFF" d="M118.536,20.039h-5.816l-0.84,2.31h-3.8l5.879-14.697h3.339l5.879,14.697h-3.801L118.536,20.039z
		 M117.402,16.953l-1.05-2.856c-0.314-0.84-0.693-2.163-0.714-2.163h-0.021c-0.021,0-0.399,1.323-0.715,2.163l-1.049,2.856H117.402z
		"/>
	<path fill="#FFFFFF" d="M132.459,22.349l-2.729-4.787h-1.806v4.787h-3.527V7.651h5.479c3.695,0,5.922,2.016,5.922,5.039
		c0,1.974-0.945,3.443-2.646,4.241l3.255,5.417H132.459z M127.924,14.433h2.436c1.26,0,1.764-0.945,1.764-1.743
		s-0.504-1.743-1.764-1.743h-2.436V14.433z"/>
</g>
</svg>
