<?xml version="1.0" encoding="utf-8"?>
<!-- Generator: Adobe Illustrator 20.0.0, SVG Export Plug-In . SVG Version: 6.00 Build 0)  -->
<svg version="1.1" id="Capa_1" xmlns="http://www.w3.org/2000/svg" xmlns:xlink="http://www.w3.org/1999/xlink" x="0px" y="0px"
	 viewBox="0 0 30 30" style="enable-background:new 0 0 30 30;" xml:space="preserve">
<style type="text/css">
	.st0{fill:#008894;}
</style>
<g>
	<path class="st0" d="M30,10.8V6.3C30,4,27.8,2.1,25,2v2.7c0,1.5-1.3,2.8-3,2.8c-1.6,0-3-1.2-3-2.8V2h-8.4v2.7
		c0,1.5-1.3,2.8-2.9,2.8s-3-1.2-3-2.8V2C2.2,2.1,0,4,0,6.3v18.9C0,27.9,2.3,30,5.1,30h19.8c2.8,0,5.1-2.1,5.1-4.8V10.8z M27.8,25.2
		c0,1.5-1.3,2.7-2.9,2.7H5.1c-1.6,0-2.9-1.2-2.9-2.7V10.8h25.6V25.2z M27.8,25.2"/>
	<path class="st0" d="M6.5,1.2v3.5c0,0.7,0.6,1.2,1.3,1.2c0.7,0,1.3-0.5,1.3-1.2V1.2C9.1,0.5,8.5,0,7.8,0C7.1,0,6.5,0.5,6.5,1.2
		L6.5,1.2z M6.5,1.2"/>
	<path class="st0" d="M22.1,0c-0.7,0-1.3,0.5-1.3,1.2v3.5c0,0.7,0.6,1.2,1.3,1.2c0.7,0,1.3-0.5,1.3-1.2V1.2C23.4,0.5,22.8,0,22.1,0
		L22.1,0z M22.1,0"/>
	<path class="st0" d="M11.3,25.2c1.4,0,2.5-0.4,3.3-1.1c0.7-0.8,1.1-1.6,1.1-2.6c0-1-0.3-1.7-1-2.2c-0.2-0.1-0.3-0.3-0.5-0.4
		c-0.3-0.2-0.3-0.3,0-0.4c0.1-0.1,0.3-0.2,0.4-0.4c0.4-0.5,0.7-1.1,0.7-1.8c0-1-0.4-1.8-1.1-2.3c-0.7-0.6-1.7-0.9-2.9-0.9
		c-0.7,0-1.2,0.1-1.6,0.2c-0.4,0.1-0.8,0.4-1.2,0.6c-0.4,0.4-0.8,0.8-1,1.3c-0.1,0.4-0.2,0.8-0.3,1.2c0,0.3,0.2,0.5,0.5,0.5h1.2
		c0.3,0,0.5-0.2,0.6-0.5c0.1-0.3,0.2-0.6,0.4-0.9c0.3-0.3,0.7-0.5,1.3-0.5c0.5,0,0.9,0.1,1.2,0.4c0.3,0.3,0.4,0.6,0.4,1.1
		c0,0.7-0.3,1.2-0.8,1.4c-0.2,0.1-0.6,0.2-1.1,0.2c-0.3,0-0.6,0.3-0.6,0.5v0.6c0,0.3,0.2,0.5,0.6,0.5c0.5,0,1,0.1,1.2,0.2
		c0.7,0.3,1,0.8,1,1.6c0,0.6-0.2,1-0.5,1.3c-0.4,0.3-0.8,0.5-1.3,0.5c-0.8,0-1.3-0.3-1.6-0.9c-0.1-0.2-0.2-0.4-0.2-0.7
		c-0.1-0.3-0.3-0.5-0.6-0.5H7.5c-0.3,0-0.5,0.2-0.5,0.5c0.1,0.7,0.3,1.3,0.6,1.8C8.3,24.6,9.5,25.2,11.3,25.2L11.3,25.2z M11.3,25.2
		"/>
	<path class="st0" d="M18.2,16.8H20c0.3,0,0.6,0.2,0.6,0.5v7.1c0,0.3,0.3,0.5,0.6,0.5h1.4c0.3,0,0.6-0.2,0.6-0.5V13.6
		c0-0.3-0.3-0.5-0.6-0.5h-1c-0.3,0-0.6,0.1-0.6,0.2c0,0.1,0,0.1-0.1,0.2c-0.1,0.4-0.3,0.6-0.5,0.8c-0.3,0.3-0.7,0.5-1.2,0.6
		c-0.2,0-0.6,0.1-1.1,0.1c-0.3,0-0.6,0.3-0.6,0.5v0.5C17.6,16.5,17.9,16.8,18.2,16.8L18.2,16.8z M18.2,16.8"/>
</g>
</svg>
