<?xml version="1.0" encoding="utf-8"?>
<!-- Generator: Adobe Illustrator 16.0.0, SVG Export Plug-In . SVG Version: 6.00 Build 0)  -->
<!DOCTYPE svg PUBLIC "-//W3C//DTD SVG 1.1//EN" "http://www.w3.org/Graphics/SVG/1.1/DTD/svg11.dtd">
<svg version="1.1" id="Capa_1" xmlns="http://www.w3.org/2000/svg" xmlns:xlink="http://www.w3.org/1999/xlink" x="0px" y="0px"
	 width="20px" height="20px" viewBox="0 0 20 20" enable-background="new 0 0 20 20" xml:space="preserve">
<path fill="#ECEEF0" d="M11.032,7.466c-1.297,1.395-2.612,3.121-3.563,4.437L5.667,9.335c-0.305-0.808-0.971-1.22-1.783-0.914
	C3.07,8.727,3.025,9.687,3.332,10.497l2.385,4.931c0,0,0.004,0.01,0.004,0.014c0.08,0.261,0.217,0.496,0.43,0.691
	c0.639,0.586,1.633,0.545,2.223-0.088c0,0,2.342-3.969,4.844-6.664c1.839-1.985,3.443-4.066,3.443-4.066
	c0.411-0.694,0.026-1.422-0.163-1.579l0,0C16.33,3.6,15.434,3.249,14.844,3.613c0,0-0.521,0.487-1.291,1.25l-0.35,0.372"/>
</svg>
