<svg xmlns="http://www.w3.org/2000/svg" width="10.92578" height="10.92578" viewBox="0 0 10.92578 10.92578"><title>check_1</title><g id="Layer_2" data-name="Layer 2"><g id="Layer_2-2" data-name="Layer 2"><rect x="0.46291" y="0.46328" width="10" height="10" rx="1.44143" ry="1.44143" style="fill:#fff"/><path d="M9.02148,10.92578H1.9043A1.90675,1.90675,0,0,1,0,9.02148V1.9043A1.90675,1.90675,0,0,1,1.9043,0H9.02148a1.90675,1.90675,0,0,1,1.9043,1.9043V9.02148A1.90675,1.90675,0,0,1,9.02148,10.92578Zm-7.11719-10a.98026.98026,0,0,0-.97852.97852V9.02148A.98026.98026,0,0,0,1.9043,10H9.02148A.98026.98026,0,0,0,10,9.02148V1.9043A.98026.98026,0,0,0,9.02148.92578Z" style="fill:#bfc0c7"/><polygon points="9.601 3.06 8.632 2.24 4.415 7.216 2.407 5.568 1.601 6.52 4.577 8.989 5.384 8.037 5.383 8.036 9.601 3.06" style="fill:#008996"/></g></g></svg>