<svg xmlns="http://www.w3.org/2000/svg" width="21" height="21" viewBox="0 0 21 21"><title>check_tipo_1</title><g id="Layer_2" data-name="Layer 2"><g id="Layer_2-2" data-name="Layer 2"><rect x="0.5" y="0.5" width="20" height="20" style="fill:#fff;stroke:#008693;stroke-miterlimit:10"/><path d="M16.9981,4.2368a1.7818,1.7818,0,0,0-1.6543-.123s-.5215.487-1.291,1.2502l-.2754.3789-.0567-.0444c-.6425.6396-1.4082,1.4228-2.1894,2.2673a48.96417,48.96417,0,0,0-3.5625,4.4368L6.168,9.8362a1.32386,1.32386,0,0,0-1.7832-.9141c-.8145.3059-.8594,1.2656-.5527,2.0752l2.3847,4.9304.0039.0139a1.54356,1.54356,0,0,0,.4297.6922,1.583,1.583,0,0,0,2.2227-.0877,45.96534,45.96534,0,0,1,4.8437-6.6645c1.8379-1.9849,3.4434-4.0662,3.4434-4.0662a1.355,1.355,0,0,0-.1621-1.5786Z" style="fill:#008693;fill-rule:evenodd"/></g></g></svg>