<?xml version="1.0" encoding="utf-8"?>
<!-- Generator: Adobe Illustrator 16.0.0, SVG Export Plug-In . SVG Version: 6.00 Build 0)  -->
<!DOCTYPE svg PUBLIC "-//W3C//DTD SVG 1.1//EN" "http://www.w3.org/Graphics/SVG/1.1/DTD/svg11.dtd">
<svg version="1.1" id="Capa_1" xmlns="http://www.w3.org/2000/svg" xmlns:xlink="http://www.w3.org/1999/xlink" x="0px" y="0px"
	 width="20px" height="20px" viewBox="0 0 20 20" enable-background="new 0 0 20 20" xml:space="preserve">
<path fill-rule="evenodd" clip-rule="evenodd" fill="#FFFFFF" d="M19.497,0.436c-0.246-0.209-1.559-0.746-2.42-0.189
	c0,0-0.76,0.742-1.887,1.91l-0.4,0.576l-0.086-0.068c-0.936,0.98-2.057,2.176-3.199,3.465c-1.893,2.131-3.811,4.768-5.203,6.777
	l-2.633-3.92C3.224,7.756,2.253,7.125,1.065,7.59c-1.193,0.463-1.256,1.934-0.811,3.168l3.484,7.531l0.008,0.02
	c0.115,0.396,0.318,0.762,0.629,1.059c0.936,0.895,2.385,0.834,3.248-0.135c0,0,3.418-6.061,7.074-10.178
	c2.689-3.031,5.033-6.211,5.033-6.211C20.335,1.785,19.771,0.672,19.497,0.436L19.497,0.436z"/>
</svg>
