<?xml version="1.0" encoding="utf-8"?>
<!-- Generator: Adobe Illustrator 16.0.0, SVG Export Plug-In . SVG Version: 6.00 Build 0)  -->
<!DOCTYPE svg PUBLIC "-//W3C//DTD SVG 1.1//EN" "http://www.w3.org/Graphics/SVG/1.1/DTD/svg11.dtd">
<svg version="1.1" id="Capa_1" xmlns="http://www.w3.org/2000/svg" xmlns:xlink="http://www.w3.org/1999/xlink" x="0px" y="0px"
	 width="15px" height="15px" viewBox="0 0 15 15" enable-background="new 0 0 15 15" xml:space="preserve">
<path fill-rule="evenodd" clip-rule="evenodd" fill="#DC5000" d="M12.248,2.717c-0.123-0.104-0.779-0.373-1.209-0.095
	c0,0-0.381,0.371-0.943,0.955L9.895,3.866L9.852,3.832c-0.467,0.49-1.027,1.088-1.6,1.732c-0.945,1.065-1.904,2.383-2.6,3.389
	l-1.318-1.96C4.111,6.377,3.627,6.062,3.033,6.294C2.436,6.526,2.404,7.261,2.627,7.879l1.742,3.766l0.006,0.01
	c0.057,0.197,0.158,0.381,0.312,0.529c0.469,0.447,1.193,0.416,1.625-0.068c0,0,1.709-3.029,3.537-5.088
	c1.344-1.516,2.516-3.105,2.516-3.105C12.668,3.392,12.385,2.835,12.248,2.717L12.248,2.717z"/>
</svg>
