<?xml version="1.0" encoding="utf-8"?>
<!-- Generator: Adobe Illustrator 16.0.0, SVG Export Plug-In . SVG Version: 6.00 Build 0)  -->
<!DOCTYPE svg PUBLIC "-//W3C//DTD SVG 1.1//EN" "http://www.w3.org/Graphics/SVG/1.1/DTD/svg11.dtd" [
	<!ENTITY ns_extend "http://ns.adobe.com/Extensibility/1.0/">
	<!ENTITY ns_ai "http://ns.adobe.com/AdobeIllustrator/10.0/">
	<!ENTITY ns_graphs "http://ns.adobe.com/Graphs/1.0/">
	<!ENTITY ns_vars "http://ns.adobe.com/Variables/1.0/">
	<!ENTITY ns_imrep "http://ns.adobe.com/ImageReplacement/1.0/">
	<!ENTITY ns_sfw "http://ns.adobe.com/SaveForWeb/1.0/">
	<!ENTITY ns_custom "http://ns.adobe.com/GenericCustomNamespace/1.0/">
	<!ENTITY ns_adobe_xpath "http://ns.adobe.com/XPath/1.0/">
]>
<svg version="1.1" id="Capa_1" xmlns:x="&ns_extend;" xmlns:i="&ns_ai;" xmlns:graph="&ns_graphs;"
	 xmlns="http://www.w3.org/2000/svg" xmlns:xlink="http://www.w3.org/1999/xlink" x="0px" y="0px" width="25px" height="24px"
	 viewBox="0 0 25 24" enable-background="new 0 0 25 24" xml:space="preserve">
<metadata>
	<sfw  xmlns="&ns_sfw;">
		<slices></slices>
		<sliceSourceBounds  width="25" height="23.966" bottomLeftOrigin="true" y="-23.959" x="0"></sliceSourceBounds>
	</sfw>
</metadata>
<path fill-rule="evenodd" clip-rule="evenodd" fill="#008894" d="M24.369,0.559c-0.307-0.248-1.827-0.997-3.021-0.225
	c0,0-0.953,0.89-2.358,2.283l-0.606,0.611c-1.174,1.169-2.572,2.6-3.999,4.143c-2.369,2.547-4.77,5.699-6.508,8.104l-3.289-4.688
	C3.812,9.291,2.813,8.559,1.33,9.117c-1.488,0.559-1.57,2.312-1.009,3.791l4.355,9.006c0,0,0.004,0.019,0.007,0.025
	c0.197,0.485,0.396,0.906,0.785,1.265c1.167,1.068,2.983,0.993,4.061-0.161c0,0,4.277-7.249,8.848-12.172
	c3.356-3.627,6.29-7.429,6.29-7.429C25.418,2.175,24.715,0.846,24.369,0.559L24.369,0.559z"/>
</svg>
