<?xml version="1.0" encoding="utf-8"?>
<!-- Generator: Adobe Illustrator 16.0.0, SVG Export Plug-In . SVG Version: 6.00 Build 0)  -->
<!DOCTYPE svg PUBLIC "-//W3C//DTD SVG 1.1//EN" "http://www.w3.org/Graphics/SVG/1.1/DTD/svg11.dtd" [
	<!ENTITY ns_extend "http://ns.adobe.com/Extensibility/1.0/">
	<!ENTITY ns_ai "http://ns.adobe.com/AdobeIllustrator/10.0/">
	<!ENTITY ns_graphs "http://ns.adobe.com/Graphs/1.0/">
	<!ENTITY ns_vars "http://ns.adobe.com/Variables/1.0/">
	<!ENTITY ns_imrep "http://ns.adobe.com/ImageReplacement/1.0/">
	<!ENTITY ns_sfw "http://ns.adobe.com/SaveForWeb/1.0/">
	<!ENTITY ns_custom "http://ns.adobe.com/GenericCustomNamespace/1.0/">
	<!ENTITY ns_adobe_xpath "http://ns.adobe.com/XPath/1.0/">
]>
<svg version="1.1" id="Capa_1" xmlns:x="&ns_extend;" xmlns:i="&ns_ai;" xmlns:graph="&ns_graphs;"
	 xmlns="http://www.w3.org/2000/svg" xmlns:xlink="http://www.w3.org/1999/xlink" x="0px" y="0px" width="20px" height="20px"
	 viewBox="0 0 20 20" enable-background="new 0 0 20 20" xml:space="preserve">
<metadata>
	<sfw  xmlns="&ns_sfw;">
		<slices></slices>
		<sliceSourceBounds  x="0.25" y="-19.749" bottomLeftOrigin="true" height="19.5" width="19.5"></sliceSourceBounds>
	</sfw>
</metadata>
<rect x="0.5" y="0.499" fill="none" stroke="#404040" stroke-width="0.5" stroke-miterlimit="10" width="19" height="19"/>
<path fill-rule="evenodd" clip-rule="evenodd" fill="#008894" d="M17.121,3.134C16.938,2.987,15.955,2.6,15.309,3l-1.717,1.786
	c0,0-1.605,1.511-2.461,2.438c-1.421,1.529-2.862,3.418-3.905,4.861L5.252,9.271C4.918,8.386,4.188,7.935,3.298,8.269
	c-0.893,0.336-0.942,1.388-0.605,2.274c0,0,2.855,5.964,3.088,6.18c0.7,0.64,1.79,0.597,2.437-0.097c0,0,2.567-4.35,5.308-7.303
	c2.014-2.177,3.773-4.457,3.773-4.457C17.75,4.104,17.33,3.308,17.121,3.134L17.121,3.134z"/>
</svg>
