<svg xmlns="http://www.w3.org/2000/svg" width="20" height="20" viewBox="0 0 20 20"><title>cobrador_20</title><g id="Layer_2" data-name="Layer 2"><g id="Capa_1" data-name="Capa 1"><path d="M16.70413,4.98941l-1.85984.29506a1.961,1.961,0,0,0-.252-.49176,1.23721,1.23721,0,0,0-.37241-.27848V5.95967a5.42741,5.42741,0,0,1,2.02892.85643,1.97451,1.97451,0,0,1,.67631,1.53716,2.0953,2.0953,0,0,1-.24422.99678,2.43494,2.43494,0,0,1-.61995.76029,2.5317,2.5317,0,0,1-.80339.44313,3.79669,3.79669,0,0,1-1.03877.16134v.947h-.73045v-.947a4.564,4.564,0,0,1-1.18906-.23649,2.38663,2.38663,0,0,1-.79123-.4796,2.31691,2.31691,0,0,1-.51275-.65641,3.09588,3.09588,0,0,1-.26964-.85091l2.01787-.23428a1.95051,1.95051,0,0,0,.24312.71388,1.29917,1.29917,0,0,0,.5017.389V7.59628a9.48029,9.48029,0,0,1-1.43107-.48513A1.91626,1.91626,0,0,1,11.0141,5.34967a1.97315,1.97315,0,0,1,.62326-1.48743,2.80472,2.80472,0,0,1,1.851-.663v-.494h.73045V3.2003a3.056,3.056,0,0,1,1.71287.53154A2.115,2.115,0,0,1,16.70413,4.98941Zm-3.21356-.5006a.93819.93819,0,0,0-.44424.2619.57411.57411,0,0,0-.12377.36578.61936.61936,0,0,0,.12487.38457.97249.97249,0,0,0,.44313.27406ZM14.221,9.413a1.1755,1.1755,0,0,0,.62105-.31495.71135.71135,0,0,0,.1956-.48844.66511.66511,0,0,0-.16355-.4365,1.55663,1.55663,0,0,0-.6531-.368Z" style="fill:#008894"/><path d="M13.82515,13.233A6.049,6.049,0,1,1,19.875,7.18418,6.05577,6.05577,0,0,1,13.82515,13.233Zm0-10.993a4.944,4.944,0,1,0,4.94478,4.94424A4.94972,4.94972,0,0,0,13.82515,2.23995Z" style="fill:#008894"/><path d="M8.56967,15.02791a2.30219,2.30219,0,0,0,.19891.20775c.57132.389,1.15149.77024,1.7195,1.16806a2.57814,2.57814,0,0,0,1.61893.36246,16.27973,16.27973,0,0,0,3.19035-.5006,6.4568,6.4568,0,0,1,1.05424-.147.66622.66622,0,0,1,.6962.35583.77054.77054,0,0,1-.07735.91942,2.25609,2.25609,0,0,1-.79234.53928c-1.504.5437-3.018,1.05535-4.53523,1.57142-.46634.16024-.93821.3039-1.41229.43982a1.63715,1.63715,0,0,1-1.23216-.17018c-1.83774-.94926-3.68432-1.87973-5.50659-2.85993A4.89773,4.89773,0,0,0,1.316,16.459c-.31605-.01768-.63321-.00884-.95036,0-.16245.00221-.21991-.05636-.24643-.21549a10.4513,10.4513,0,0,1,.08288-3.60033c.03426-.19007.10277-.25085.29063-.22433.284.03647.57243.04531.85643.07514a6.40983,6.40983,0,0,0,2.73616-.41661,5.8366,5.8366,0,0,1,3.60586-.0862c1.64546.494,3.30528.94373,4.954,1.43107.589.1746.77687.43429.75919.915a.82671.82671,0,0,1-.99457.86306c-.568-.07293-1.12828-.20333-1.69187-.29174a5.55319,5.55319,0,0,0-1.14486-.14034A4.98983,4.98983,0,0,0,8.56967,15.02791Z" style="fill:#008894"/><rect width="20" height="20" style="fill:none"/></g></g></svg>