<svg xmlns="http://www.w3.org/2000/svg" width="20" height="20" viewBox="0 0 20 20"><title>congelacion</title><g id="Layer_2" data-name="Layer 2"><g id="Capa_2" data-name="Capa 2"><circle cx="10" cy="10" r="10" style="fill:#338a9c"/><path d="M10.32743,15.27346v-.95659l.42-.21.51329.51329.49.51329a.35.35,0,0,0,.23332.14.23332.23332,0,0,0,.21-.18665.37332.37332,0,0,0-.14-.23331L11.074,13.85024l-.18665-.18665a1.70311,1.70311,0,0,1-.49-.58329,1.58673,1.58673,0,0,1,0-.72327,2.47138,2.47138,0,0,0,0-.30331.76994.76994,0,0,1,.56-.90993.3733.3733,0,0,1,.30331-.14.60652.60652,0,0,1,.32664,0l.74661.60662a.72326.72326,0,0,1,.39663.49l.37331,1.39989.18665.67661a.21815.21815,0,1,0,.42-.11666l-.23332-.88659-.32664-1.07325.93326.53662.58329.30331a.35.35,0,0,0,.4433-.11666.32664.32664,0,0,0,0-.44329h-.18665l-1.39989-.8866.67661-.18665,1.21324-.32664c.30331,0,.25664-.21.25664-.28s-.14-.09333-.3733-.09333l-1.23657.32664h-.28a1.81975,1.81975,0,0,1-.79327.14,1.67987,1.67987,0,0,1-.65328-.25664l-.30331-.21a.67662.67662,0,0,1-.44921-.84488l.00591-.01838a.46663.46663,0,0,1,.269-.60259l.01095-.004.8166-.46663a.76993.76993,0,0,1,.67661,0l1.95985.49h.23332a.18666.18666,0,0,0,0-.18665.21.21,0,0,0-.16333-.18665l-.86326-.28-.7-.23332.28-.42.74661-.46663a.51326.51326,0,0,0,.23331-.25665.30329.30329,0,0,0,0-.25665.35.35,0,0,0-.53662,0l-1.02659.58329-.16332-.42h0v-.3733a3.6913,3.6913,0,0,1,.21-.83994.53656.53656,0,0,0,0-.25664.35174.35174,0,0,0-.39628.16042l-.00036.0029-.25664.93326-.14.49v.25665a1.63316,1.63316,0,0,1-.25665.69994,1.49316,1.49316,0,0,1-.49.16332l-.28.14a.86327.86327,0,0,1-1.09658,0,.49.49,0,0,1-.35-.53662V6.87412a.84.84,0,0,1,.25664-.46663L11.634,5.31091l.39664-.39663c.23331-.23332.14-.32664,0-.39664a.16334.16334,0,0,0-.11666,0,.44333.44333,0,0,0-.28.16332l-.74661.74661h-.11665l-.37331.51329V4.331a.36507.36507,0,0,0-.72327-.02333v1.6332l-.49-.46663A9.89074,9.89074,0,0,1,8.32092,4.681h0c-.14-.14-.25665-.16332-.3733,0s-.14.14,0,.35l.97992.90993.18665.11666a1.60978,1.60978,0,0,1,.49.58329,1.56306,1.56306,0,0,1,0,.67661,2.17165,2.17165,0,0,0,0,.32664.76994.76994,0,0,1-.51329.90993.39657.39657,0,0,1-.18665,0,.60669.60669,0,0,1-.39664,0,3.78306,3.78306,0,0,1-.83993-.46663.86328.86328,0,0,1-.35-.46663c-.21-.58329-.3733-1.21324-.53662-1.81986V5.56756a.21.21,0,0,0-.18665-.21.21.21,0,0,0-.18665,0,.28.28,0,0,0,0,.23332l.23331.90993L6.8277,7.64406,5.45114,6.85079a.35.35,0,0,0-.53662,0,.37332.37332,0,0,0,.16285.50219l.0238.0111L6.50106,8.274l-1.91318.46663a.42.42,0,0,0-.25665.14.18667.18667,0,0,0,0,.14.329.329,0,0,0,.35.11666l1.30656-.35h.25665a1.72639,1.72639,0,0,1,.7466-.14,1.51648,1.51648,0,0,1,.67662.23331L7.901,9.044a.76994.76994,0,0,1,.5133.95659.41995.41995,0,0,1-.25665.60662l-.32664.18665-.53663.30331a.88658.88658,0,0,1-.56,0L5.5678,10.79381l-.93326-.18665a.21.21,0,0,0-.29689-.00641l-.00642.00641a.21.21,0,0,0,.18665.25665l.53663.25665.28.09332h.25664l.58329.21-.30331.42-.76994.4433a.3733.3733,0,0,0-.19776.48949l.01111.0238a.35.35,0,0,0,.53663,0l1.35322-.79327-.28,1.07325a5.183,5.183,0,0,1-.21.86327.53665.53665,0,0,0,0,.23331.18666.18666,0,0,0,.16332,0,.21.21,0,0,0,.21-.16332v-.3733a6.65,6.65,0,0,0,.25664-1.02659,1.88987,1.88987,0,0,1,1.18991-1.56321.86325.86325,0,0,1,1.04991,0,.46663.46663,0,0,1,.35.53663v.95659a.74659.74659,0,0,1-.23332.58328L7.80763,14.62018a.208.208,0,0,0,0,.32664.23332.23332,0,0,0,.32931.02067l.02066-.02067.49-.49.30331-.30331h.11666l.46663-.35v1.53988a.32664.32664,0,0,0,.46663.3733v.28h0v-.28a.32665.32665,0,0,0,.32664-.4433Zm-1.00326-4.6663a.9099.9099,0,0,1-.25664-.74661.93326.93326,0,0,1,.93326-.93326h0a.91.91,0,0,1,.65328.28.93331.93331,0,0,1,.28.67662.90994.90994,0,0,1-.8863.933q-.01181.0003-.02363.0003h-.02333A.93331.93331,0,0,1,9.32417,10.60716Z" style="fill:#fff"/></g></g></svg>