<?xml version="1.0" encoding="utf-8"?>
<!-- Generator: Adobe Illustrator 20.0.0, SVG Export Plug-In . SVG Version: 6.00 Build 0)  -->
<svg version="1.1" id="Capa_1" xmlns="http://www.w3.org/2000/svg" xmlns:xlink="http://www.w3.org/1999/xlink" x="0px" y="0px"
	 viewBox="0 0 35 35" style="enable-background:new 0 0 35 35;" xml:space="preserve">
<style type="text/css">
	.st0{fill:#58167D;}
</style>
<g>
	<g>
		<path class="st0" d="M11,16.6c-0.3-0.4-0.9-0.7-1.5-0.7c-1.2,0-1.9,0.9-1.9,2c0,1.2,0.8,2,1.9,2c0.7,0,1.4-0.3,1.6-0.8l1.8,0.5
			c-0.6,1.3-1.9,2.1-3.4,2.1c-2.1,0-3.7-1.6-3.7-3.8c0-2.2,1.7-3.8,3.7-3.8c1.4,0,2.6,0.8,3.3,1.9L11,16.6z"/>
		<path class="st0" d="M17.9,21.6l-1.3-2.4h-0.9v2.4h-1.7v-7.2h2.7c1.8,0,2.9,1,2.9,2.5c0,1-0.5,1.7-1.3,2.1l1.6,2.7H17.9z
			 M15.6,17.7h1.2c0.6,0,0.9-0.5,0.9-0.9c0-0.4-0.2-0.9-0.9-0.9h-1.2V17.7z"/>
		<path class="st0" d="M28.1,14.3v7.2h-1.7v-1.8c0-1.7,0.1-2.6,0.1-2.6h0c0,0-0.6,1-0.6,1.1L25,19.8h-0.9l-0.8-1.4
			c-0.1-0.1-0.6-1.1-0.7-1.1h0c0,0,0.1,0.8,0.1,2.6v1.8h-1.7v-7.2h1.6l1.4,2.2c0.5,0.9,0.6,1,0.6,1h0c0,0,0.1-0.2,0.6-1l1.4-2.2
			H28.1z"/>
	</g>
	<path class="st0" d="M17.5,0C7.8,0,0,7.8,0,17.5C0,27.2,7.8,35,17.5,35C27.2,35,35,27.2,35,17.5C35,7.8,27.2,0,17.5,0z M17.5,31.4
		c-7.7,0-13.9-6.2-13.9-13.9c0-7.7,6.2-13.9,13.9-13.9c7.7,0,13.9,6.2,13.9,13.9C31.4,25.2,25.2,31.4,17.5,31.4z"/>
</g>
</svg>
