<?xml version="1.0" encoding="utf-8"?>
<!-- Generator: Adobe Illustrator 21.0.0, SVG Export Plug-In . SVG Version: 6.00 Build 0)  -->
<svg version="1.1" id="Layer_1" xmlns="http://www.w3.org/2000/svg" xmlns:xlink="http://www.w3.org/1999/xlink" x="0px" y="0px"
	 viewBox="0 0 20 20" style="enable-background:new 0 0 20 20;" xml:space="preserve">
<style type="text/css">
	.st0{fill:#58167D;}
</style>
<g id="Layer_2">
	<g id="Capa_1">
		<path class="st0" d="M6.3,9.5C6.1,9.2,5.8,9.1,5.4,9.1c-0.6,0-1.1,0.4-1.1,1c0,0,0,0.1,0,0.1c0,0.6,0.4,1.1,1,1.2c0,0,0.1,0,0.1,0
			c0.4,0,0.7-0.2,0.9-0.5l1,0.3c-0.4,0.8-1.1,1.2-1.9,1.2c-1.2,0-2.1-1-2.1-2.1s1-2.1,2.1-2.1c0.8,0,1.5,0.4,1.9,1.1L6.3,9.5z"/>
		<path class="st0" d="M10.2,12.3L9.4,11H8.9v1.3h-1V8.2h1.5c1,0,1.7,0.6,1.7,1.4c0,0.5-0.3,1-0.7,1.2l0.9,1.5H10.2z M8.9,10.1h0.7
			c0.3,0,0.5-0.2,0.5-0.5S9.9,9.1,9.6,9.1c0,0,0,0,0,0H8.9V10.1z"/>
		<path class="st0" d="M16.1,8.2v4.1h-1v-1c0-1,0-1.5,0-1.5h0c0,0-0.3,0.6-0.4,0.6l-0.5,0.8h-0.5l-0.5-0.8c0-0.1-0.4-0.6-0.4-0.6h0
			c0,0,0,0.5,0,1.5v1h-1V8.2h0.9l0.8,1.2C14,9.9,14,10,14,10h0c0,0,0.1-0.1,0.4-0.6l0.8-1.2H16.1z"/>
		<path class="st0" d="M10,0C4.5,0,0,4.5,0,10s4.5,10,10,10s10-4.5,10-10C20,4.5,15.5,0,10,0z M10,18c-4.4,0-8-3.6-8-8
			c0-4.4,3.6-8,8-8c4.4,0,8,3.6,8,8c0,0,0,0,0,0C18,14.4,14.4,18,10,18C10,18,10,18,10,18z"/>
	</g>
</g>
</svg>
