<?xml version="1.0" encoding="utf-8"?>
<!-- Generator: Adobe Illustrator 16.0.0, SVG Export Plug-In . SVG Version: 6.00 Build 0)  -->
<!DOCTYPE svg PUBLIC "-//W3C//DTD SVG 1.1//EN" "http://www.w3.org/Graphics/SVG/1.1/DTD/svg11.dtd">
<svg version="1.1" id="Capa_1" xmlns="http://www.w3.org/2000/svg" xmlns:xlink="http://www.w3.org/1999/xlink" x="0px" y="0px"
	 width="26px" height="30px" viewBox="0 0 26 30" enable-background="new 0 0 26 30" xml:space="preserve">
<g>
	<g>
		<path fill="#DB9600" d="M22.238,15.512c0,0.39-0.474,0.705-1.058,0.705H5.876c-0.584,0-1.059-0.315-1.059-0.705l0,0
			c0-0.389,0.474-0.704,1.059-0.704h15.304C21.765,14.808,22.238,15.123,22.238,15.512L22.238,15.512z"/>
		<path fill="#DB9600" d="M22.238,12.333c0,0.388-0.474,0.703-1.058,0.703H5.876c-0.584,0-1.059-0.315-1.059-0.703l0,0
			c0-0.39,0.474-0.706,1.059-0.706h15.304C21.765,11.627,22.238,11.943,22.238,12.333L22.238,12.333z"/>
		<path fill="#DB9600" d="M22.238,18.685c0,0.386-0.474,0.703-1.058,0.703H5.876c-0.584,0-1.059-0.317-1.059-0.703l0,0
			c0-0.391,0.474-0.705,1.059-0.705h15.304C21.765,17.979,22.238,18.294,22.238,18.685L22.238,18.685z"/>
		<path fill="#DB9600" d="M22.238,21.68c0,0.388-0.474,0.702-1.058,0.702H5.876c-0.584,0-1.059-0.314-1.059-0.702l0,0
			c0-0.389,0.474-0.706,1.059-0.706h15.304C21.765,20.974,22.238,21.291,22.238,21.68L22.238,21.68z"/>
		<path fill="#DB9600" d="M22.238,24.817c0,0.39-0.474,0.705-1.058,0.705H5.876c-0.584,0-1.059-0.315-1.059-0.705l0,0
			c0-0.389,0.474-0.703,1.059-0.703h15.304C21.765,24.114,22.238,24.429,22.238,24.817L22.238,24.817z"/>
	</g>
	<path fill="#DB9600" d="M25.802,0.521h-0.033h-1.625h-0.234H3.533L0,5.034v22.875v0.065v1.403v0.102h24.144h1.658h0.13V0.521
		H25.802z M1.504,5.912l2.819-3.698l1.065,0.025V2.213h1.003v5.16h-0.49H5.389H1.531L1.504,5.912z M23.909,27.908H1.911L1.567,9.338
		h6.641V2.307l15.701-0.092V27.908z"/>
</g>
</svg>
