<svg xmlns="http://www.w3.org/2000/svg" width="30" height="30" viewBox="0 0 30 30"><title>eliminar</title><g id="Layer_2" data-name="Layer 2"><g id="Layer_1-2" data-name="Layer 1"><rect width="30" height="30" style="fill:#008693"/><path d="M8.78125,25h12.4404a.46822.46822,0,0,0,.4664-.4678V11.6015H8.31445V24.5322A.46575.46575,0,0,0,8.78125,25Zm8.9033-10.8906a.76348.76348,0,0,1,.7632-.7627h.0161a.76261.76261,0,0,1,.7618.7627v8.3847a.76267.76267,0,0,1-.7618.7627h-.0161a.76355.76355,0,0,1-.7632-.7627Zm-3.4536,0a.76306.76306,0,0,1,.7627-.7627h.0152a.7628.7628,0,0,1,.7627.7627v8.3847a.76318.76318,0,0,1-.7627.7627h-.0152a.7628.7628,0,0,1-.7627-.7627Zm-3.4541,0a.76306.76306,0,0,1,.7627-.7627h.0152a.76312.76312,0,0,1,.7627.7627v8.3847a.76318.76318,0,0,1-.7627.7627h-.0152a.7628.7628,0,0,1-.7627-.7627Zm0,0" style="fill:#fff"/><path d="M17.98245,7.2148V6.166A1.16653,1.16653,0,0,0,16.81645,5h-3.6323a1.16612,1.16612,0,0,0-1.1656,1.166V7.2148h.9331V6.3984a.46732.46732,0,0,1,.4654-.4648h3.1635a.46787.46787,0,0,1,.4668.4648v.8164Zm0,0" style="fill:#fff"/><path d="M7.73245,8.6133v1.5898a.467.467,0,0,0,.4658.4658h13.6035a.46658.46658,0,0,0,.4658-.4658V8.6133a.466.466,0,0,0-.4658-.4659H8.19825a.46455.46455,0,0,0-.4658.4659Zm0,0" style="fill:#fff"/></g></g></svg>