<?xml version="1.0" encoding="utf-8"?>
<!-- Generator: Adobe Illustrator 16.0.0, SVG Export Plug-In . SVG Version: 6.00 Build 0)  -->
<!DOCTYPE svg PUBLIC "-//W3C//DTD SVG 1.1//EN" "http://www.w3.org/Graphics/SVG/1.1/DTD/svg11.dtd">
<svg version="1.1" id="Capa_1" xmlns="http://www.w3.org/2000/svg" xmlns:xlink="http://www.w3.org/1999/xlink" x="0px" y="0px"
	 width="170px" height="30px" viewBox="0 0 170 30" enable-background="new 0 0 170 30" xml:space="preserve">
<g>
	<rect x="0" y="0.001" fill="#BFC0C7" width="170" height="29.999"/>
	<g>
		<path fill="#FFFFFF" d="M63.464,19.413l0.001,3.295l-10.813,0.006L52.645,8.018l10.687-0.006l0.001,3.296l-7.159,0.004
			l0.002,2.415l5.606-0.003l0.001,3.087l-5.606,0.003l0.002,2.604L63.464,19.413z"/>
		<path fill="#FFFFFF" d="M79.753,8.004L79.76,22.7l-3.317,0.001l-3.005-4.092c-1.345-1.847-3.318-4.638-3.34-4.638h-0.021
			c-0.021,0,0.022,2.268,0.024,5.479l0.001,3.254l-3.527,0.001L66.567,8.01l3.317-0.001l3.13,4.197
			c0.946,1.26,3.193,4.429,3.215,4.429h0.021c0.021,0-0.022-2.604-0.023-5.271l-0.002-3.359L79.753,8.004z"/>
		<path fill="#FFFFFF" d="M94.013,7.996l0.001,3.296l-4.473,0.002l0.006,11.4l-3.527,0.002l-0.006-11.4l-4.409,0.003l-0.001-3.296
			L94.013,7.996z"/>
		<path fill="#FFFFFF" d="M103.931,22.688l-2.731-4.785l-1.806,0.001l0.002,4.786l-3.526,0.002L95.862,7.995l5.479-0.003
			c3.695-0.002,5.921,2.013,5.922,5.036c0.001,1.974-0.942,3.444-2.642,4.243l3.256,5.414L103.931,22.688z M99.392,14.775
			l2.436-0.001c1.26-0.001,1.764-0.946,1.763-1.744c0-0.798-0.505-1.743-1.765-1.742l-2.436,0.001L99.392,14.775z"/>
		<path fill="#FFFFFF" d="M118.965,20.37l-5.816,0.003l-0.839,2.311l-3.8,0.002l5.872-14.699l3.339-0.002l5.886,14.693l-3.801,0.002
			L118.965,20.37z M117.83,17.286l-1.052-2.855c-0.314-0.84-0.694-2.162-0.715-2.162h-0.021c-0.021,0-0.398,1.323-0.714,2.163
			l-1.047,2.856L117.83,17.286z"/>
		<path fill="#FFFFFF" d="M131.245,7.978c4.199-0.002,7.602,2.999,7.604,7.407c0.002,4.409-3.398,7.287-7.598,7.289l-6.425,0.003
			L124.82,7.98L131.245,7.978z M131.251,19.379c2.1-0.001,3.926-1.473,3.925-3.992c-0.002-2.52-1.83-4.114-3.93-4.113l-2.897,0.001
			l0.005,8.105L131.251,19.379z"/>
		<path fill="#FFFFFF" d="M149.101,20.354l-5.815,0.003l-0.839,2.311l-3.801,0.002l5.872-14.699l3.338-0.002l5.886,14.693
			l-3.8,0.002L149.101,20.354z M147.966,17.271l-1.052-2.854c-0.315-0.84-0.693-2.163-0.715-2.163h-0.021
			c-0.021,0-0.397,1.323-0.712,2.163l-1.049,2.856L147.966,17.271z"/>
	</g>
	<g>
		<path fill-rule="evenodd" clip-rule="evenodd" fill="#FFFFFF" d="M33.373,13.934h-3.9v-4.61c0-0.589-0.48-1.063-1.07-1.063
			c-0.584,0-1.062,0.475-1.062,1.063v6.743h6.033c0.59,0,1.062-0.479,1.062-1.068C34.436,14.412,33.963,13.934,33.373,13.934
			L33.373,13.934z M28.402,4C22.33,4,17.406,8.924,17.406,14.998C17.406,21.073,22.33,26,28.402,26
			c6.076,0,11.004-4.927,11.004-11.002C39.406,8.924,34.479,4,28.402,4L28.402,4z M28.402,23.867c-4.887,0-8.869-3.976-8.869-8.869
			c0-4.889,3.982-8.871,8.869-8.871c4.895,0,8.871,3.982,8.871,8.871C37.273,19.892,33.297,23.867,28.402,23.867L28.402,23.867z
			 M28.402,23.867"/>
	</g>
</g>
</svg>
