<svg xmlns="http://www.w3.org/2000/svg" xmlns:xlink="http://www.w3.org/1999/xlink" width="26.68811" height="30.33495" viewBox="0 0 26.68811 30.33495"><defs><clipPath id="clip-path" transform="translate(0 -0.04741)"><rect width="26.73264" height="30.38231" style="fill:none"/></clipPath></defs><title>entrega</title><g id="Layer_2" data-name="Layer 2"><g id="Layer_2-2" data-name="Layer 2"><g style="clip-path:url(#clip-path)"><path d="M.16532,5.27936A3.27663,3.27663,0,0,1,6.38858,3.226l6.43858,19.51421a4.30241,4.30241,0,0,0-1.87522-.07091L4.71855,3.777a1.51811,1.51811,0,1,0-2.88333.95133.87922.87922,0,1,1-1.66989.551Zm25.3679,15.30818L14.984,24.06814a4.31085,4.31085,0,0,1,.85966,1.50139c.00664.02038.01033.0409.01664.06129l10.224-3.37324a.87929.87929,0,0,0-.551-1.67ZM15.00858,25.8452a3.45393,3.45393,0,1,1-4.3623-2.19791,3.454,3.454,0,0,1,4.3623,2.19791Zm-1.64.541a1.72692,1.72692,0,1,0-1.09888,2.18127,1.7269,1.7269,0,0,0,1.09888-2.18127ZM22.86726,7.35081l3.58156,10.855a.43985.43985,0,0,1-.27979.55522L14.89657,22.4803a.43966.43966,0,0,1-.55527-.27975l-3.58151-10.855a.43958.43958,0,0,1,.27974-.55527L22.312,7.07107a.4397.4397,0,0,1,.55527.27975Zm-1.4912,6.30563-3.83831-2.11183L15.7105,15.52574l1.20975.55674.79-1.72226L19.13706,18.684l1.36531-.45047L19.076,13.91045l1.65932.91336Zm-3.34935-6.476L15.737.2405a.28105.28105,0,0,0-.355-.17883L13.41855.7095l-.00967.01758L13.39244.718,12.3565,1.06l.853,2.58525-1.16827.38568L11.188,1.44546l-1.03608.342-.008.01682L10.12584,1.796l-1.95072.64357a.28115.28115,0,0,0-.17888.35511l2.28976,6.94a.2812.2812,0,0,0,.35511.17883l7.207-2.37788a.28108.28108,0,0,0,.17864-.35511Zm0,0" transform="translate(0 -0.04741)" style="fill:#008693"/></g></g></g></svg>