<?xml version="1.0" encoding="utf-8"?>
<!-- Generator: Adobe Illustrator 16.0.0, SVG Export Plug-In . SVG Version: 6.00 Build 0)  -->
<!DOCTYPE svg PUBLIC "-//W3C//DTD SVG 1.1//EN" "http://www.w3.org/Graphics/SVG/1.1/DTD/svg11.dtd" [
	<!ENTITY ns_extend "http://ns.adobe.com/Extensibility/1.0/">
	<!ENTITY ns_ai "http://ns.adobe.com/AdobeIllustrator/10.0/">
	<!ENTITY ns_graphs "http://ns.adobe.com/Graphs/1.0/">
	<!ENTITY ns_vars "http://ns.adobe.com/Variables/1.0/">
	<!ENTITY ns_imrep "http://ns.adobe.com/ImageReplacement/1.0/">
	<!ENTITY ns_sfw "http://ns.adobe.com/SaveForWeb/1.0/">
	<!ENTITY ns_custom "http://ns.adobe.com/GenericCustomNamespace/1.0/">
	<!ENTITY ns_adobe_xpath "http://ns.adobe.com/XPath/1.0/">
]>
<svg version="1.1" id="Capa_1" xmlns:x="&ns_extend;" xmlns:i="&ns_ai;" xmlns:graph="&ns_graphs;"
	 xmlns="http://www.w3.org/2000/svg" xmlns:xlink="http://www.w3.org/1999/xlink" x="0px" y="0px" width="170px" height="30px"
	 viewBox="0 0 170 30" enable-background="new 0 0 170 30" xml:space="preserve">
<metadata>
	<sfw  xmlns="&ns_sfw;">
		<slices></slices>
		<sliceSourceBounds  bottomLeftOrigin="true" width="170" height="30" x="-50.5" y="7.5"></sliceSourceBounds>
	</sfw>
</metadata>
<g>
	<rect fill="#008894" width="170" height="30"/>
	<g enable-background="new    ">
		<path fill="#FFFFFF" d="M63.463,19.412l0.001,3.297l-10.813,0.005L52.645,8.017l10.687-0.005l0.001,3.297l-7.16,0.003l0.001,2.414
			l5.606-0.003l0.001,3.086l-5.606,0.003l0.001,2.604L63.463,19.412z"/>
		<path fill="#FFFFFF" d="M79.753,8.003L79.76,22.7l-3.317,0.002l-3.004-4.093c-1.345-1.847-3.32-4.639-3.341-4.639h-0.021
			c-0.021,0,0.022,2.268,0.024,5.48l0.001,3.254l-3.527,0.002L66.567,8.01l3.317-0.002l3.13,4.198
			c0.946,1.259,3.194,4.428,3.215,4.428h0.021c0.021,0-0.022-2.604-0.023-5.27l-0.002-3.359L79.753,8.003z"/>
		<path fill="#FFFFFF" d="M94.013,7.996l0.002,3.297l-4.473,0.002l0.006,11.4l-3.527,0.002l-0.006-11.4l-4.41,0.002l-0.001-3.297
			L94.013,7.996z"/>
		<path fill="#FFFFFF" d="M103.933,22.688l-2.732-4.785l-1.806,0.001l0.003,4.787l-3.527,0.002L95.862,7.995l5.48-0.003
			c3.695-0.002,5.921,2.013,5.923,5.036c0.001,1.974-0.943,3.443-2.643,4.242l3.257,5.415L103.933,22.688z M99.394,14.774
			l2.436-0.001c1.26-0.001,1.763-0.945,1.763-1.743c-0.001-0.798-0.505-1.742-1.765-1.741l-2.436,0.001L99.394,14.774z"/>
		<path fill="#FFFFFF" d="M118.966,20.371l-5.816,0.003l-0.838,2.31l-3.8,0.002l5.871-14.7l3.339-0.002l5.887,14.694l-3.801,0.002
			L118.966,20.371z M117.831,17.284l-1.052-2.854c-0.314-0.84-0.694-2.162-0.715-2.162h-0.021c-0.021,0-0.398,1.322-0.714,2.162
			l-1.047,2.856L117.831,17.284z"/>
		<path fill="#FFFFFF" d="M131.246,7.977c4.199-0.002,7.603,2.998,7.604,7.408c0.002,4.408-3.397,7.287-7.597,7.289l-6.425,0.004
			L124.821,7.98L131.246,7.977z M131.252,19.377c2.1-0.001,3.926-1.471,3.925-3.99s-1.829-4.114-3.929-4.113l-2.897,0.002
			l0.004,8.104L131.252,19.377z"/>
		<path fill="#FFFFFF" d="M149.102,20.355l-5.815,0.003l-0.838,2.31l-3.801,0.002l5.871-14.7l3.338-0.001l5.887,14.693l-3.8,0.002
			L149.102,20.355z M147.967,17.269l-1.052-2.854c-0.315-0.84-0.693-2.162-0.715-2.162h-0.021c-0.021,0-0.397,1.323-0.712,2.163
			l-1.049,2.855L147.967,17.269z"/>
	</g>
	<g>
		<path fill="#FFFFFF" d="M33.373,13.934h-3.901V9.323c0-0.589-0.479-1.064-1.069-1.064c-0.585,0-1.063,0.475-1.063,1.064v6.743
			h6.034c0.589,0,1.062-0.479,1.062-1.067C34.436,14.412,33.962,13.934,33.373,13.934L33.373,13.934z M28.402,4
			C22.33,4,17.405,8.924,17.405,14.998S22.33,26,28.402,26c6.075,0,11.003-4.928,11.003-11.002S34.478,4,28.402,4L28.402,4z
			 M28.402,23.867c-4.888,0-8.87-3.977-8.87-8.869c0-4.89,3.982-8.871,8.87-8.871c4.894,0,8.871,3.981,8.871,8.871
			C37.273,19.893,33.296,23.867,28.402,23.867L28.402,23.867z"/>
	</g>
</g>
</svg>
