<?xml version="1.0" encoding="utf-8"?>
<!-- Generator: Adobe Illustrator 16.0.0, SVG Export Plug-In . SVG Version: 6.00 Build 0)  -->
<!DOCTYPE svg PUBLIC "-//W3C//DTD SVG 1.1//EN" "http://www.w3.org/Graphics/SVG/1.1/DTD/svg11.dtd" [
	<!ENTITY ns_extend "http://ns.adobe.com/Extensibility/1.0/">
	<!ENTITY ns_ai "http://ns.adobe.com/AdobeIllustrator/10.0/">
	<!ENTITY ns_graphs "http://ns.adobe.com/Graphs/1.0/">
	<!ENTITY ns_vars "http://ns.adobe.com/Variables/1.0/">
	<!ENTITY ns_imrep "http://ns.adobe.com/ImageReplacement/1.0/">
	<!ENTITY ns_sfw "http://ns.adobe.com/SaveForWeb/1.0/">
	<!ENTITY ns_custom "http://ns.adobe.com/GenericCustomNamespace/1.0/">
	<!ENTITY ns_adobe_xpath "http://ns.adobe.com/XPath/1.0/">
]>
<svg version="1.1" id="Capa_1" xmlns:x="&ns_extend;" xmlns:i="&ns_ai;" xmlns:graph="&ns_graphs;"
	 xmlns="http://www.w3.org/2000/svg" xmlns:xlink="http://www.w3.org/1999/xlink" x="0px" y="0px" width="73px" height="25px"
	 viewBox="0 0 73 25" enable-background="new 0 0 73 25" xml:space="preserve">
<metadata>
	<sfw  xmlns="&ns_sfw;">
		<slices></slices>
		<sliceSourceBounds  height="24.997" width="72.939" y="-24.998" x="0" bottomLeftOrigin="true"></sliceSourceBounds>
	</sfw>
</metadata>
<path fill="#AF0053" d="M72.939,12.499c0,6.902-5.224,12.499-11.664,12.499h-49.61C5.223,24.998,0,19.401,0,12.499l0,0
	C0,5.596,5.223,0.001,11.666,0.001h49.61C67.716,0.001,72.939,5.596,72.939,12.499L72.939,12.499z"/>
<path fill="#FFFFFF" d="M68.355,12.896c0,5.385-3.725,9.75-8.322,9.75H39.178c-4.596,0-8.322-4.365-8.322-9.75l0,0
	c0-5.385,3.726-9.75,8.322-9.75h20.855C64.631,3.145,68.355,7.511,68.355,12.896L68.355,12.896z"/>
<g>
	<g>
		<path fill="#FFFFFF" d="M11.37,9.77v1.958h3.672v2.156H11.37v3.643H8.971v-10h7.127V9.77H11.37z"/>
		<path fill="#FFFFFF" d="M25.065,15.284v2.242h-7.355v-10h7.271V9.77H20.11v1.645h3.812v2.098H20.11v1.771H25.065z"/>
	</g>
</g>
</svg>
