<?xml version="1.0" encoding="utf-8"?>
<!-- Generator: Adobe Illustrator 16.0.0, SVG Export Plug-In . SVG Version: 6.00 Build 0)  -->
<!DOCTYPE svg PUBLIC "-//W3C//DTD SVG 1.1//EN" "http://www.w3.org/Graphics/SVG/1.1/DTD/svg11.dtd">
<svg version="1.1" id="Capa_1" xmlns="http://www.w3.org/2000/svg" xmlns:xlink="http://www.w3.org/1999/xlink" x="0px" y="0px"
	 width="73.5px" height="25px" viewBox="0 0 73.5 25" enable-background="new 0 0 73.5 25" xml:space="preserve">
<path fill="#008895" d="M73.487,12.5c0,6.902-5.262,12.499-11.751,12.499H11.764c-6.49,0-11.751-5.597-11.751-12.499l0,0
	c0-6.902,5.261-12.499,11.751-12.499h49.973C68.226,0.001,73.487,5.598,73.487,12.5L73.487,12.5z"/>
<path fill="#FFFFFF" d="M68.903,12.896c0,5.385-3.726,9.75-8.322,9.75H39.725c-4.596,0-8.321-4.365-8.321-9.75l0,0
	c0-5.384,3.726-9.75,8.321-9.75h20.856C65.178,3.146,68.903,7.513,68.903,12.896L68.903,12.896z"/>
<g>
	<g>
		<path fill="#FFFFFF" d="M11.917,9.771v1.957h3.672v2.156h-3.672v3.643H9.519v-10h7.127v2.244H11.917z"/>
		<path fill="#FFFFFF" d="M25.612,15.285v2.242h-7.355v-10h7.271v2.244h-4.871v1.645h3.812v2.098h-3.812v1.771H25.612z"/>
	</g>
</g>
</svg>
