<?xml version="1.0" encoding="utf-8"?>
<!-- Generator: Adobe Illustrator 16.0.0, SVG Export Plug-In . SVG Version: 6.00 Build 0)  -->
<!DOCTYPE svg PUBLIC "-//W3C//DTD SVG 1.1//EN" "http://www.w3.org/Graphics/SVG/1.1/DTD/svg11.dtd" [
	<!ENTITY ns_extend "http://ns.adobe.com/Extensibility/1.0/">
	<!ENTITY ns_ai "http://ns.adobe.com/AdobeIllustrator/10.0/">
	<!ENTITY ns_graphs "http://ns.adobe.com/Graphs/1.0/">
	<!ENTITY ns_vars "http://ns.adobe.com/Variables/1.0/">
	<!ENTITY ns_imrep "http://ns.adobe.com/ImageReplacement/1.0/">
	<!ENTITY ns_sfw "http://ns.adobe.com/SaveForWeb/1.0/">
	<!ENTITY ns_custom "http://ns.adobe.com/GenericCustomNamespace/1.0/">
	<!ENTITY ns_adobe_xpath "http://ns.adobe.com/XPath/1.0/">
]>
<svg version="1.1" id="Capa_1" xmlns:x="&ns_extend;" xmlns:i="&ns_ai;" xmlns:graph="&ns_graphs;"
	 xmlns="http://www.w3.org/2000/svg" xmlns:xlink="http://www.w3.org/1999/xlink" x="0px" y="0px" width="25px" height="25px"
	 viewBox="0 0 25 25" enable-background="new 0 0 25 25" xml:space="preserve">
<metadata>
	<sfw  xmlns="&ns_sfw;">
		<slices></slices>
		<sliceSourceBounds  height="24.998" width="25" y="-24.999" x="0" bottomLeftOrigin="true"></sliceSourceBounds>
	</sfw>
</metadata>
<g>
	<g>
		<path fill="#AF0053" d="M7.633,10.152v1.687h3.164v1.858H7.633v3.139H5.566V8.22h6.141v1.933H7.633z"/>
		<path fill="#AF0053" d="M19.434,14.903v1.933h-6.338V8.22h6.266v1.933h-4.197v1.415h3.285v1.81h-3.285v1.526H19.434z"/>
	</g>
	<path fill="#AF0053" d="M12.498,0.001C5.598,0.001,0,5.597,0,12.5s5.598,12.498,12.498,12.498C19.402,24.998,25,19.403,25,12.5
		S19.402,0.001,12.498,0.001z M12.498,22.448c-5.492,0-9.947-4.453-9.947-9.948c0-5.494,4.455-9.949,9.947-9.949
		c5.496,0,9.951,4.456,9.951,9.949C22.449,17.995,17.994,22.448,12.498,22.448z"/>
</g>
</svg>
