<?xml version="1.0" encoding="utf-8"?>
<!-- Generator: Adobe Illustrator 16.0.0, SVG Export Plug-In . SVG Version: 6.00 Build 0)  -->
<!DOCTYPE svg PUBLIC "-//W3C//DTD SVG 1.1//EN" "http://www.w3.org/Graphics/SVG/1.1/DTD/svg11.dtd">
<svg version="1.1" id="Capa_1" xmlns="http://www.w3.org/2000/svg" xmlns:xlink="http://www.w3.org/1999/xlink" x="0px" y="0px"
	 width="73.5px" height="25px" viewBox="0 0 73.5 25" enable-background="new 0 0 73.5 25" xml:space="preserve">
<g>
	<path fill="#008895" d="M73.487,12.5c0,6.902-5.262,12.498-11.751,12.498H11.764c-6.49,0-11.751-5.596-11.751-12.498l0,0
		c0-6.903,5.261-12.499,11.751-12.499h49.973C68.226,0.001,73.487,5.597,73.487,12.5L73.487,12.5z"/>
	<path fill="#FFFFFF" d="M68.903,12.896c0,5.385-3.726,9.75-8.322,9.75H39.725c-4.596,0-8.321-4.365-8.321-9.75l0,0
		c0-5.385,3.726-9.75,8.321-9.75h20.856C65.178,3.146,68.903,7.512,68.903,12.896L68.903,12.896z"/>
	<g>
		<path fill="#FFFFFF" d="M11.815,10.146V12.1h3.663v2.15h-3.663v3.635H9.421V7.908h7.111v2.237H11.815z"/>
		<path fill="#FFFFFF" d="M27.093,7.908v9.977h-2.251l-2.038-2.779c-0.913-1.254-2.251-3.15-2.266-3.15h-0.014
			c-0.014,0,0.014,1.539,0.014,3.721v2.209h-2.395V7.908h2.252l2.124,2.85c0.641,0.855,2.167,3.008,2.181,3.008h0.014
			c0.014,0-0.014-1.768-0.014-3.578V7.908H27.093z"/>
	</g>
</g>
</svg>
