<?xml version="1.0" encoding="utf-8"?>
<!-- Generator: Adobe Illustrator 16.0.0, SVG Export Plug-In . SVG Version: 6.00 Build 0)  -->
<!DOCTYPE svg PUBLIC "-//W3C//DTD SVG 1.1//EN" "http://www.w3.org/Graphics/SVG/1.1/DTD/svg11.dtd">
<svg version="1.1" id="Capa_1" xmlns="http://www.w3.org/2000/svg" xmlns:xlink="http://www.w3.org/1999/xlink" x="0px" y="0px"
	 width="270px" height="30px" viewBox="0 0 270 30" enable-background="new 0 0 270 30" xml:space="preserve">
<rect x="-0.038" fill="#008894" width="270.076" height="30"/>
<g>
	<path fill="#FFFFFF" d="M21.549,19.004c-0.738,0.793-2.179,1.279-3.421,1.279c-3.619,0-6.536-2.756-6.536-6.554
		c0-3.799,2.917-6.554,6.536-6.554c2.449,0,4.592,1.296,5.726,3.349l-3.079,0.811c-0.594-0.721-1.656-1.171-2.646-1.171
		c-2.089,0-3.385,1.495-3.385,3.565c0,2.215,1.494,3.601,3.565,3.601c2.016,0,2.898-1.045,3.259-1.981v-0.018h-3.313v-2.431h5.888
		v7.13h-2.593c0-0.828,0.019-1.008,0.019-1.027H21.549z"/>
	<path fill="#FFFFFF" d="M35.895,17.203v2.828h-9.272V7.427h9.165v2.826h-6.14v2.071h4.807v2.646h-4.807v2.232H35.895z"/>
	<path fill="#FFFFFF" d="M49.864,7.427v12.604h-2.845l-2.575-3.512c-1.152-1.584-2.845-3.979-2.862-3.979h-0.019
		c-0.018,0,0.019,1.944,0.019,4.7v2.791h-3.025V7.427h2.845l2.683,3.601c0.811,1.081,2.737,3.8,2.755,3.8h0.019
		c0.018,0-0.019-2.233-0.019-4.52V7.427H49.864z"/>
	<path fill="#FFFFFF" d="M61.941,17.203v2.828h-9.272V7.427h9.165v2.826h-6.14v2.071H60.5v2.646h-4.807v2.232H61.941z"/>
	<path fill="#FFFFFF" d="M71.516,20.031l-2.341-4.106h-1.548v4.106h-3.025V7.427h4.699c3.169,0,5.078,1.729,5.078,4.321
		c0,1.692-0.811,2.952-2.269,3.637l2.79,4.646H71.516z M67.627,13.243h2.088c1.081,0,1.513-0.811,1.513-1.494
		c0-0.685-0.432-1.495-1.513-1.495h-2.088V13.243z"/>
	<path fill="#FFFFFF" d="M84.405,18.051h-4.987l-0.721,1.98h-3.259l5.041-12.604h2.863l5.042,12.604h-3.26L84.405,18.051z
		 M83.432,15.404l-0.9-2.449c-0.27-0.72-0.594-1.854-0.611-1.854h-0.019c-0.018,0-0.342,1.135-0.612,1.854l-0.9,2.449H83.432z"/>
	<path fill="#FFFFFF" d="M96.338,20.031l-2.341-4.106H92.45v4.106h-3.025V7.427h4.699c3.169,0,5.078,1.729,5.078,4.321
		c0,1.692-0.811,2.952-2.269,3.637l2.79,4.646H96.338z M92.45,13.243h2.088c1.081,0,1.513-0.811,1.513-1.494
		c0-0.685-0.432-1.495-1.513-1.495H92.45V13.243z"/>
	<path fill="#FFFFFF" d="M115.149,17.203v2.828h-8.984V7.427h3.025v9.776H115.149z"/>
	<path fill="#FFFFFF" d="M116.91,20.031V7.427h3.025v12.604H116.91z"/>
	<path fill="#FFFFFF" d="M128.917,11.424c-0.306-1.116-1.278-1.639-2.179-1.639s-1.422,0.45-1.422,0.954
		c0,0.828,1.26,1.135,2.791,1.692c1.872,0.685,3.835,1.747,3.835,3.908c0,2.305-1.98,3.943-4.916,3.943
		c-2.629,0-4.501-1.459-5.329-3.818l2.898-0.773c0.324,0.955,1.225,1.908,2.557,1.908c1.081,0,1.585-0.504,1.585-1.115
		c0-1.009-1.477-1.261-3.277-1.945c-1.513-0.576-3.259-1.405-3.259-3.619c0-1.963,1.98-3.745,4.718-3.745
		c2.412,0,4.321,1.477,4.915,3.457L128.917,11.424z"/>
	<path fill="#FFFFFF" d="M143.211,7.427v2.826h-3.836v9.778h-3.025v-9.778h-3.781V7.427H143.211z"/>
	<path fill="#FFFFFF" d="M151.094,18.051h-4.986l-0.721,1.98h-3.26l5.041-12.604h2.863l5.043,12.604h-3.26L151.094,18.051z
		 M150.121,15.404l-0.9-2.449c-0.27-0.72-0.594-1.854-0.611-1.854h-0.018c-0.018,0-0.342,1.135-0.613,1.854l-0.9,2.449H150.121z"/>
	<path fill="#FFFFFF" d="M166.482,7.427c3.602,0,6.518,2.574,6.518,6.355c0,3.782-2.916,6.249-6.518,6.249h-5.51V7.427H166.482z
		 M166.482,17.203c1.801,0,3.367-1.259,3.367-3.42c0-2.16-1.566-3.529-3.367-3.529h-2.484v6.95H166.482z"/>
	<path fill="#FFFFFF" d="M184.16,17.203v2.828h-9.273V7.427h9.166v2.826h-6.141v2.071h4.807v2.646h-4.807v2.232H184.16z"/>
	<path fill="#FFFFFF" d="M198.885,18.051h-4.988l-0.721,1.98h-3.258l5.041-12.604h2.863l5.041,12.604h-3.26L198.885,18.051z
		 M197.912,15.404l-0.9-2.449c-0.27-0.72-0.594-1.854-0.613-1.854h-0.018c-0.018,0-0.342,1.135-0.611,1.854l-0.9,2.449H197.912z"/>
	<path fill="#FFFFFF" d="M210.818,20.031l-2.342-4.106h-1.547v4.106h-3.025V7.427h4.699c3.168,0,5.078,1.729,5.078,4.321
		c0,1.692-0.811,2.952-2.27,3.637l2.791,4.646H210.818z M206.93,13.243h2.088c1.08,0,1.512-0.811,1.512-1.494
		c0-0.685-0.432-1.495-1.512-1.495h-2.088V13.243z"/>
	<path fill="#FFFFFF" d="M223.057,20.031l-2.34-4.106h-1.549v4.106h-3.025V7.427h4.699c3.17,0,5.078,1.729,5.078,4.321
		c0,1.692-0.811,2.952-2.268,3.637l2.789,4.646H223.057z M219.168,13.243h2.088c1.082,0,1.514-0.811,1.514-1.494
		c0-0.685-0.432-1.495-1.514-1.495h-2.088V13.243z"/>
	<path fill="#FFFFFF" d="M228.383,20.031V7.427h3.025v12.604H228.383z"/>
	<path fill="#FFFFFF" d="M239.689,7.427c2.25,0,3.816,1.494,3.816,3.331c0,1.188-0.811,2.196-1.566,2.467v0.018
		c1.189,0.324,2.215,1.692,2.215,2.97c0,2.107-1.387,3.818-4.502,3.818h-5.438V7.427H239.689z M239.059,12.342
		c0.811,0,1.404-0.504,1.404-1.188c0-0.684-0.594-1.188-1.404-1.188h-1.818v2.377H239.059z M239.348,17.492
		c1.008,0,1.639-0.594,1.639-1.422c0-0.883-0.686-1.423-1.639-1.423h-2.107v2.845H239.348z"/>
	<path fill="#FFFFFF" d="M251.857,7.175c3.619,0,6.553,2.755,6.553,6.554c0,3.798-2.934,6.554-6.553,6.554s-6.537-2.756-6.537-6.554
		C245.32,9.93,248.238,7.175,251.857,7.175z M251.857,17.295c2.053,0,3.402-1.459,3.402-3.566c0-2.125-1.35-3.565-3.402-3.565
		c-2.035,0-3.385,1.44-3.385,3.565C248.473,15.835,249.822,17.295,251.857,17.295z"/>
</g>
</svg>
