<?xml version="1.0" encoding="utf-8"?>
<!-- Generator: Adobe Illustrator 16.0.0, SVG Export Plug-In . SVG Version: 6.00 Build 0)  -->
<!DOCTYPE svg PUBLIC "-//W3C//DTD SVG 1.1//EN" "http://www.w3.org/Graphics/SVG/1.1/DTD/svg11.dtd">
<svg version="1.1" id="Capa_1" xmlns="http://www.w3.org/2000/svg" xmlns:xlink="http://www.w3.org/1999/xlink" x="0px" y="0px"
	 width="220px" height="30px" viewBox="0 0 220 30" enable-background="new 0 0 220 30" xml:space="preserve">
<rect y="-0.061" fill="#C2C3C9" width="220" height="30.122"/>
<g>
	<path fill="#FFFFFF" d="M25.604,19.309c-0.794,0.852-2.343,1.375-3.679,1.375c-3.893,0-7.029-2.963-7.029-7.05
		c0-4.086,3.137-7.048,7.029-7.048c2.633,0,4.938,1.394,6.157,3.602l-3.312,0.871C24.132,10.284,22.989,9.8,21.925,9.8
		c-2.246,0-3.641,1.607-3.641,3.834c0,2.382,1.607,3.873,3.834,3.873c2.169,0,3.117-1.123,3.505-2.13v-0.02H22.06v-2.614h6.332
		v7.668h-2.788c0-0.892,0.02-1.084,0.02-1.104h-0.02V19.309z"/>
	<path fill="#FFFFFF" d="M41.034,17.371v3.04h-9.972V6.856h9.855v3.04h-6.603v2.228h5.17v2.846h-5.17v2.401H41.034z"/>
	<path fill="#FFFFFF" d="M56.06,6.856v13.555H53l-2.77-3.775c-1.239-1.704-3.059-4.279-3.078-4.279h-0.02
		c-0.02,0,0.02,2.091,0.02,5.054v3.001h-3.253V6.856h3.059l2.886,3.873c0.871,1.162,2.943,4.086,2.963,4.086h0.019
		c0.02,0-0.019-2.401-0.019-4.86V6.856H56.06z"/>
	<path fill="#FFFFFF" d="M69.051,17.371v3.04h-9.972V6.856h9.855v3.04h-6.603v2.228h5.17v2.846h-5.17v2.401H69.051z"/>
	<path fill="#FFFFFF" d="M79.352,20.411l-2.518-4.415h-1.665v4.415h-3.253V6.856h5.054c3.407,0,5.46,1.859,5.46,4.647
		c0,1.82-0.871,3.176-2.439,3.911l3.001,4.996L79.352,20.411L79.352,20.411z M75.169,13.111h2.246c1.161,0,1.626-0.871,1.626-1.607
		c0-0.735-0.465-1.607-1.626-1.607h-2.246V13.111z"/>
	<path fill="#FFFFFF" d="M93.214,18.281h-5.363l-0.774,2.13h-3.505l5.422-13.555h3.079l5.421,13.555H93.99L93.214,18.281z
		 M92.169,15.435L91.2,12.802c-0.29-0.775-0.639-1.995-0.658-1.995h-0.02c-0.02,0-0.367,1.22-0.658,1.995l-0.968,2.633H92.169z"/>
	<path fill="#FFFFFF" d="M106.052,20.411l-2.518-4.415h-1.665v4.415h-3.253V6.856h5.054c3.407,0,5.46,1.859,5.46,4.647
		c0,1.82-0.871,3.176-2.439,3.911l3.001,4.996L106.052,20.411L106.052,20.411z M101.869,13.111h2.246
		c1.161,0,1.626-0.871,1.626-1.607c0-0.735-0.465-1.607-1.626-1.607h-2.246V13.111z"/>
	<path fill="#FFFFFF" d="M119.875,9.896v2.653h4.977v2.924h-4.977v4.938h-3.253V6.856h9.662v3.04H119.875z"/>
	<path fill="#FFFFFF" d="M134.668,18.281h-5.363l-0.773,2.13h-3.506l5.423-13.555h3.079l5.421,13.555h-3.505L134.668,18.281z
		 M133.623,15.435l-0.969-2.633c-0.29-0.775-0.639-1.995-0.658-1.995h-0.02c-0.021,0-0.367,1.22-0.658,1.995l-0.969,2.633H133.623z"
		/>
	<path fill="#FFFFFF" d="M148.628,11.059c-0.619-0.774-1.78-1.259-2.846-1.259c-2.246,0-3.642,1.607-3.642,3.834
		c0,2.343,1.529,3.796,3.642,3.796c1.297,0,2.536-0.658,3.098-1.588l3.292,0.852c-1.123,2.402-3.544,3.99-6.39,3.99
		c-3.894,0-7.029-2.963-7.029-7.05c0-4.086,3.138-7.048,7.029-7.048c2.672,0,4.957,1.433,6.157,3.602L148.628,11.059z"/>
	<path fill="#FFFFFF" d="M164.312,6.856v3.04h-4.125v10.515h-3.254V9.896h-4.065v-3.04H164.312z"/>
	<path fill="#FFFFFF" d="M177.729,6.856v7.532c0,4.066-2.4,6.293-5.982,6.293c-3.602,0-5.982-2.228-5.982-6.293V6.856h3.252v7.455
		c0,2.324,0.949,3.332,2.73,3.332s2.729-1.008,2.729-3.332V6.856H177.729z"/>
	<path fill="#FFFFFF" d="M187.643,20.411l-2.519-4.415h-1.665v4.415h-3.253V6.856h5.054c3.407,0,5.461,1.859,5.461,4.647
		c0,1.82-0.871,3.176-2.439,3.911l3.001,4.996L187.643,20.411L187.643,20.411z M183.459,13.111h2.246
		c1.161,0,1.626-0.871,1.626-1.607c0-0.735-0.465-1.607-1.626-1.607h-2.246V13.111z"/>
	<path fill="#FFFFFF" d="M201.504,18.281h-5.363l-0.773,2.13h-3.506l5.423-13.555h3.079l5.421,13.555h-3.505L201.504,18.281z
		 M200.459,15.435l-0.969-2.633c-0.29-0.775-0.639-1.995-0.658-1.995h-0.02c-0.021,0-0.367,1.22-0.658,1.995l-0.969,2.633H200.459z"
		/>
</g>
</svg>
