<?xml version="1.0" encoding="utf-8"?>
<!-- Generator: Adobe Illustrator 16.0.0, SVG Export Plug-In . SVG Version: 6.00 Build 0)  -->
<!DOCTYPE svg PUBLIC "-//W3C//DTD SVG 1.1//EN" "http://www.w3.org/Graphics/SVG/1.1/DTD/svg11.dtd">
<svg version="1.1" id="Capa_1" xmlns="http://www.w3.org/2000/svg" xmlns:xlink="http://www.w3.org/1999/xlink" x="0px" y="0px"
	 width="24px" height="30px" viewBox="0 0 24 30" enable-background="new 0 0 24 30" xml:space="preserve">
<g>
	<path fill="#70A83B" d="M19.633,13.178c0,0.371-0.302,0.671-0.673,0.671H4.964c-0.37,0-0.671-0.3-0.671-0.671l0,0
		c0-0.371,0.301-0.672,0.671-0.672H18.96C19.331,12.506,19.633,12.807,19.633,13.178L19.633,13.178z"/>
	<path fill="#70A83B" d="M19.633,16.373c0,0.371-0.302,0.673-0.673,0.673H4.964c-0.37,0-0.671-0.302-0.671-0.673l0,0
		c0-0.371,0.301-0.67,0.671-0.67H18.96C19.331,15.703,19.633,16.002,19.633,16.373L19.633,16.373z"/>
	<path fill="#70A83B" d="M4.756,27.39C4.853,27.56,5,27.655,5.161,27.655c0.138,0,0.271-0.069,0.373-0.195l7.188-8.731
		c0.117-0.14,0.169-0.3,0.146-0.449c-0.018-0.124-0.088-0.233-0.198-0.306c-0.236-0.155-0.602-0.014-0.975,0.394l-5.979,5.983
		c-0.143,0.132-0.298,0.273-0.491,0.273c-0.093,0-0.19-0.03-0.292-0.094l-1.867-1.317c-0.187-0.16-0.386-0.158-0.467-0.017
		c-0.055,0.101-0.038,0.248,0.049,0.392L4.756,27.39z"/>
	<path fill="#70A83B" d="M0,0.315v29.371h24V0.315H0z M22.824,28.372H1.063V1.741h21.761V28.372z"/>
	<path fill="#70A83B" d="M19.633,21.033c0,0.371-0.119,0.671-0.265,0.671h-5.517c-0.146,0-0.266-0.3-0.266-0.671l0,0
		c0-0.371,0.119-0.671,0.266-0.671h5.517C19.514,20.362,19.633,20.662,19.633,21.033L19.633,21.033z"/>
	<path fill="#70A83B" d="M19.633,24.45c0,0.371-0.173,0.671-0.385,0.671h-8.021c-0.214,0-0.386-0.3-0.386-0.671l0,0
		c0-0.371,0.172-0.671,0.386-0.671h8.021C19.46,23.779,19.633,24.079,19.633,24.45L19.633,24.45z"/>
	<g>
		<path fill="#70A83B" d="M11.688,7.443c0,1.132-0.302,2.022-0.909,2.671c-0.605,0.649-1.433,0.974-2.487,0.974
			c-1.057,0-1.887-0.328-2.489-0.985C5.201,9.446,4.902,8.56,4.902,7.443c0-1.125,0.299-2.016,0.902-2.669
			c0.602-0.654,1.432-0.98,2.489-0.98c1.054,0,1.882,0.325,2.487,0.975C11.386,5.418,11.688,6.311,11.688,7.443z M9.873,7.438
			c0-0.417-0.043-0.772-0.129-1.065C9.659,6.079,9.542,5.838,9.397,5.651c-0.15-0.192-0.321-0.33-0.51-0.412
			C8.699,5.157,8.5,5.115,8.296,5.115c-0.214,0-0.411,0.038-0.588,0.115C7.534,5.307,7.364,5.443,7.2,5.642
			c-0.143,0.183-0.261,0.423-0.35,0.724C6.762,6.667,6.718,7.026,6.718,7.443c0,0.43,0.041,0.786,0.126,1.07
			c0.084,0.284,0.201,0.522,0.349,0.712c0.15,0.194,0.321,0.334,0.511,0.417c0.191,0.083,0.388,0.125,0.592,0.125
			c0.208,0,0.409-0.044,0.603-0.135c0.194-0.088,0.363-0.228,0.504-0.415C9.553,9.013,9.669,8.775,9.75,8.503
			C9.833,8.232,9.873,7.877,9.873,7.438z"/>
		<path fill="#70A83B" d="M18.983,7.446c0,0.654-0.143,1.237-0.43,1.753c-0.284,0.516-0.645,0.912-1.08,1.188
			c-0.365,0.234-0.76,0.386-1.188,0.454c-0.428,0.068-0.883,0.101-1.365,0.101h-2.192V3.938H14.9c0.493,0,0.954,0.032,1.382,0.094
			c0.432,0.064,0.832,0.216,1.21,0.457c0.461,0.295,0.825,0.692,1.091,1.191C18.849,6.182,18.983,6.771,18.983,7.446z M17.177,7.433
			c0-0.462-0.08-0.855-0.238-1.183c-0.158-0.328-0.401-0.584-0.731-0.769c-0.238-0.132-0.487-0.204-0.749-0.216
			c-0.262-0.013-0.575-0.019-0.938-0.019h-0.033V9.63h0.033c0.395,0,0.729-0.007,0.999-0.022c0.271-0.014,0.529-0.099,0.775-0.252
			c0.287-0.181,0.507-0.432,0.657-0.751S17.177,7.895,17.177,7.433z"/>
	</g>
</g>
</svg>
