<?xml version="1.0" encoding="utf-8"?>
<!-- Generator: Adobe Illustrator 16.0.0, SVG Export Plug-In . SVG Version: 6.00 Build 0)  -->
<!DOCTYPE svg PUBLIC "-//W3C//DTD SVG 1.1//EN" "http://www.w3.org/Graphics/SVG/1.1/DTD/svg11.dtd">
<svg version="1.1" id="Capa_1" xmlns="http://www.w3.org/2000/svg" xmlns:xlink="http://www.w3.org/1999/xlink" x="0px" y="0px"
	 width="106px" height="92px" viewBox="0 0 106 92" enable-background="new 0 0 106 92" xml:space="preserve">
<g>
	<g>
		<path fill="#464646" d="M94.264,76.682h4.502c1.566,0,2.219,0.126,2.793,0.338c1.521,0.569,2.518,2.072,2.518,4.04
			c0,1.902-1.059,3.511-2.688,4.04v0.041c0,0,0.17,0.191,0.441,0.679l3.174,5.794h-2.061l-3.309-5.943h-3.52v5.943h-1.852V76.682z
			 M99.295,83.851c1.629,0,2.844-1.036,2.844-2.706c0-1.101-0.625-1.884-1.383-2.306c-0.404-0.213-0.891-0.339-2.055-0.339h-2.586
			v5.351H99.295z"/>
		<path fill="#464646" d="M14.1,89.608c-1.53,1.468-3.312,2.202-5.34,2.202c-2.176,0-4.014-0.748-5.513-2.248
			c-1.5-1.5-2.251-3.299-2.251-5.398c0-2.078,0.75-3.874,2.251-5.384c1.499-1.51,3.337-2.266,5.513-2.266
			c2.022,0,3.875,0.771,5.559,2.308l-1.309,1.164c-1.372-1.213-2.79-1.82-4.25-1.82c-1.595,0-2.971,0.582-4.13,1.742
			c-1.161,1.159-1.741,2.579-1.741,4.256c0,1.69,0.58,3.114,1.741,4.271c1.16,1.156,2.536,1.735,4.13,1.735
			c1.364,0,2.521-0.381,3.471-1.142V83.86h1.87V89.608z"/>
		<path fill="#464646" d="M28.613,78.75c1.507,1.509,2.26,3.307,2.26,5.393c0,2.1-0.753,3.901-2.26,5.408
			c-1.506,1.508-3.349,2.26-5.524,2.26c-2.169,0-4.006-0.752-5.512-2.26c-1.507-1.507-2.261-3.309-2.261-5.408
			c0-2.086,0.754-3.884,2.261-5.393c1.506-1.511,3.343-2.266,5.512-2.266C25.264,76.484,27.106,77.239,28.613,78.75z M23.089,78.126
			c-1.593,0-2.973,0.583-4.136,1.751c-1.164,1.166-1.745,2.589-1.745,4.266c0,1.69,0.582,3.117,1.745,4.282
			c1.164,1.163,2.543,1.745,4.136,1.745c1.601,0,2.982-0.582,4.146-1.745c1.165-1.165,1.746-2.592,1.746-4.282
			c0-1.677-0.582-3.1-1.746-4.266C26.071,78.709,24.689,78.126,23.089,78.126z"/>
		<path fill="#464646" d="M32.256,91.646V76.69h1.88v13.323h4.746v1.632H32.256z"/>
		<path fill="#464646" d="M52.171,78.75c1.506,1.509,2.26,3.307,2.26,5.393c0,2.1-0.754,3.901-2.26,5.408
			c-1.507,1.508-3.347,2.26-5.523,2.26c-2.168,0-4.007-0.752-5.514-2.26c-1.506-1.507-2.26-3.309-2.26-5.408
			c0-2.086,0.753-3.884,2.26-5.393c1.507-1.511,3.346-2.266,5.514-2.266C48.824,76.484,50.664,77.239,52.171,78.75z M46.648,78.126
			c-1.594,0-2.972,0.583-4.136,1.751c-1.164,1.166-1.746,2.589-1.746,4.266c0,1.69,0.582,3.117,1.746,4.282
			c1.165,1.163,2.542,1.745,4.136,1.745c1.6,0,2.982-0.582,4.147-1.745c1.164-1.165,1.745-2.592,1.745-4.282
			c0-1.677-0.581-3.1-1.745-4.266C49.63,78.709,48.249,78.126,46.648,78.126z"/>
		<path fill="#464646" d="M67.432,88.352l1.309,1.164c-1.682,1.53-3.535,2.295-5.561,2.295c-2.174,0-4.012-0.748-5.51-2.248
			c-1.502-1.5-2.252-3.299-2.252-5.398c0-2.078,0.75-3.874,2.252-5.384c1.498-1.51,3.336-2.266,5.51-2.266
			c2.025,0,3.879,0.771,5.561,2.308l-1.309,1.164c-1.371-1.213-2.789-1.82-4.252-1.82c-1.594,0-2.969,0.582-4.129,1.742
			c-1.162,1.159-1.74,2.579-1.74,4.256c0,1.69,0.578,3.114,1.74,4.271c1.16,1.156,2.535,1.735,4.129,1.735
			C64.643,90.17,66.061,89.564,67.432,88.352z"/>
		<path fill="#464646" d="M76.67,76.69l5.414,14.955h-1.955l-2.166-6.009h-4.211l-2.238,6.009h-1.963l5.486-14.955H76.67z
			 M77.324,83.86l-1.477-4.021l-1.457,4.021H77.324z"/>
		<path fill="#464646" d="M91.842,76.69v1.634h-6.256v5.536h6.256v1.631h-6.256v4.522h6.256v1.632h-8.139V76.69H91.842z"/>
	</g>
	<g>
		<linearGradient id="SVGID_1_" gradientUnits="userSpaceOnUse" x1="34.3823" y1="49.2842" x2="67.3293" y2="5.5621">
			<stop  offset="0" style="stop-color:#CA6103"/>
			<stop  offset="1" style="stop-color:#E8BB00"/>
		</linearGradient>
		<path fill="url(#SVGID_1_)" d="M71.439,26.024c-0.023-2.915-7.697-0.057-8.473,1.713c-4.201,9.59-15.882,3.501-17.901-4.417
			c-0.387-1.517-0.467-3.093-0.311-4.656c2.595,1.076,5.248,1.809,7.423,2.157c5.762,0.92,12.471-0.338,16.909-4.321
			c3.984-3.575,1.92-8.229-1.811-10.979C59.572-0.155,49.493,1.676,42.9,7.554c-0.492-1.606-0.259-3.382,1.092-5.291
			C45.146,0.636,43.02,0.001,41.756,0c-1.842-0.004-4.479,0.649-5.617,2.255c-3.516,4.966-1.911,9.114,1.624,12.24
			c-0.196,0.433-0.382,0.871-0.546,1.321c-2.042,5.583-1.116,12.091,3.029,16.439c4.323,4.535,11.426,5.774,17.352,4.591
			c1.994-0.397,3.895-1.024,5.643-1.883c0.117,2.531,0.152,5.061-0.219,7.579c-0.594,4.013-3.111,9.033-7.346,10.102
			c-2.951,0.742-6.649-1.115-8.791-2.967c-3.029-2.619-3.615-6.477-2.512-10.167c0.828-2.772-7.651-1.553-8.46,1.154
			c-3.523,11.791,9.079,17.797,19.02,16.248c6.343-0.987,12.226-4.816,15.005-10.72C72.924,39.851,71.492,32.766,71.439,26.024z
			 M56.572,7.343c2.574,0.91,6.523,2.595,6.242,5.817c-0.295,3.399-4.225,3.519-6.582,3.085c-2.651-0.487-6.545-1.899-9.484-3.999
			c0.283-0.533,0.588-1.049,0.915-1.542C49.958,7.252,52.652,5.956,56.572,7.343z"/>
		
			<linearGradient id="SVGID_2_" gradientUnits="userSpaceOnUse" x1="36.0449" y1="28.2109" x2="31.9205" y2="33.1263" gradientTransform="matrix(0.9998 -0.02 0.02 0.9998 7.001 -9.7476)">
			<stop  offset="0" style="stop-color:#BD5B0C"/>
			<stop  offset="0.4506" style="stop-color:#C76F07;stop-opacity:0.5494"/>
			<stop  offset="1" style="stop-color:#D78D00;stop-opacity:0"/>
		</linearGradient>
		<path fill="url(#SVGID_2_)" d="M37.778,14.506c0,0,3.135,2.476,6.977,4.159c0,0-0.396,4.161,1.085,6.752
			c0,0-7.799-2.726-9.543-5.748C36.296,19.669,36.662,16.693,37.778,14.506z"/>
		
			<linearGradient id="SVGID_3_" gradientUnits="userSpaceOnUse" x1="63.6963" y1="-17.9653" x2="68.4886" y2="-25.0702" gradientTransform="matrix(0.9987 0.0518 -0.0518 0.9987 -19.918 25.3066)">
			<stop  offset="0.0123" style="stop-color:#C45E07"/>
			<stop  offset="0.4739" style="stop-color:#CE7603;stop-opacity:0.5326"/>
			<stop  offset="1" style="stop-color:#D78D00;stop-opacity:0"/>
		</linearGradient>
		<path opacity="0.5" fill="url(#SVGID_3_)" d="M42.9,7.554c0,0,1.268,2.539,3.846,4.704c0,0,1.873-3.763,4.439-4.909
			c0,0,1.32-3.088-2.39-3.562C48.795,3.787,45.477,5.198,42.9,7.554z"/>
		<linearGradient id="SVGID_4_" gradientUnits="userSpaceOnUse" x1="61.8486" y1="53.1865" x2="60.9256" y2="42.636">
			<stop  offset="0" style="stop-color:#A25011"/>
			<stop  offset="0.3788" style="stop-color:#B3640B;stop-opacity:0.6212"/>
			<stop  offset="1" style="stop-color:#D78D00;stop-opacity:0"/>
		</linearGradient>
		<path fill="url(#SVGID_4_)" d="M51.593,52.391c0,0,13.864,5.833,19.47-9.319c0.576-1.557-3.203-1.851-8.373,1.083
			C62.689,44.155,59.979,55.128,51.593,52.391z"/>
		<linearGradient id="SVGID_5_" gradientUnits="userSpaceOnUse" x1="63.2402" y1="32.0034" x2="57.0156" y2="32.0034">
			<stop  offset="0" style="stop-color:#C97101"/>
			<stop  offset="0.3746" style="stop-color:#CC7701;stop-opacity:0.6254"/>
			<stop  offset="0.8631" style="stop-color:#D48700;stop-opacity:0.1369"/>
			<stop  offset="1" style="stop-color:#D78D00;stop-opacity:0"/>
		</linearGradient>
		<path fill="url(#SVGID_5_)" d="M63.105,27.503c0,0-0.641,1.072,0.135,7.459c0,0-2.85,1.232-4.16,1.541l-2.064-3.903
			c0,0,1.678-0.197,2.617-0.813C61.922,30.293,62.334,28.826,63.105,27.503z"/>
	</g>
</g>
</svg>
