<?xml version="1.0" encoding="utf-8"?>
<!-- Generator: Adobe Illustrator 16.0.0, SVG Export Plug-In . SVG Version: 6.00 Build 0)  -->
<!DOCTYPE svg PUBLIC "-//W3C//DTD SVG 1.1//EN" "http://www.w3.org/Graphics/SVG/1.1/DTD/svg11.dtd">
<svg version="1.1" id="Capa_1" xmlns="http://www.w3.org/2000/svg" xmlns:xlink="http://www.w3.org/1999/xlink" x="0px" y="0px"
	 width="30px" height="30px" viewBox="0 0 30 30" enable-background="new 0 0 30 30" xml:space="preserve">
<g>
	<rect fill="#008994" width="30" height="30"/>
	<g>
		<path fill="#FFFFFF" d="M10.787,12.234c4.508,0,4.099,0,8.605,0c1.133,0,1.133-1.164,0-1.164c-4.507,0-4.097,0-8.605,0
			C9.655,11.07,9.655,12.234,10.787,12.234z"/>
		<path fill="#FFFFFF" d="M19.393,14.291c-4.507,0-4.097,0-8.605,0c-1.132,0-1.132,1.165,0,1.165c4.508,0,4.099,0,8.605,0
			C20.525,15.455,20.525,14.291,19.393,14.291z"/>
		<path fill="#FFFFFF" d="M19.393,17.31c-4.507,0-4.097,0-8.605,0c-1.132,0-1.132,1.163,0,1.163c4.508,0,4.099,0,8.605,0
			C20.525,18.473,20.525,17.31,19.393,17.31z"/>
		<path fill="#FFFFFF" d="M19.393,20.529c-4.507,0-4.097,0-8.605,0c-1.132,0-1.132,1.164,0,1.164c4.508,0,4.099,0,8.605,0
			C20.525,21.693,20.525,20.529,19.393,20.529z"/>
		<path fill="#FFFFFF" d="M20.076,4.51H6.921v20.98h16.157V7.42L20.076,4.51z M21.682,24.093H8.318V5.907h11.04v2.216h2.324V24.093
			L21.682,24.093z"/>
	</g>
</g>
</svg>
