<?xml version="1.0" encoding="utf-8"?>
<!-- Generator: Adobe Illustrator 16.0.0, SVG Export Plug-In . SVG Version: 6.00 Build 0)  -->
<!DOCTYPE svg PUBLIC "-//W3C//DTD SVG 1.1//EN" "http://www.w3.org/Graphics/SVG/1.1/DTD/svg11.dtd">
<svg version="1.1" id="Capa_1" xmlns="http://www.w3.org/2000/svg" xmlns:xlink="http://www.w3.org/1999/xlink" x="0px" y="0px"
	 width="31px" height="17px" viewBox="0 0 31 17" enable-background="new 0 0 31 17" xml:space="preserve">
<g>
	<path fill="#FFFFFF" d="M1.182,2.385h28.65c0.645,0,1.168-0.53,1.168-1.184s-0.523-1.187-1.168-1.187H1.182
		c-0.645,0-1.169,0.533-1.169,1.187S0.537,2.385,1.182,2.385L1.182,2.385z M1.182,2.385"/>
	<path fill="#FFFFFF" d="M1.182,9.601h28.65C30.477,9.601,31,9.071,31,8.417S30.477,7.23,29.832,7.23H1.182
		c-0.645,0-1.169,0.532-1.169,1.187S0.537,9.601,1.182,9.601L1.182,9.601z M1.182,9.601"/>
	<path fill="#FFFFFF" d="M1.182,16.985h28.65c0.645,0,1.168-0.529,1.168-1.183c0-0.655-0.523-1.188-1.168-1.188H1.182
		c-0.645,0-1.169,0.532-1.169,1.188C0.013,16.456,0.537,16.985,1.182,16.985L1.182,16.985z M1.182,16.985"/>
</g>
</svg>
