<?xml version="1.0" encoding="utf-8"?>
<!-- Generator: Adobe Illustrator 16.0.0, SVG Export Plug-In . SVG Version: 6.00 Build 0)  -->
<!DOCTYPE svg PUBLIC "-//W3C//DTD SVG 1.1//EN" "http://www.w3.org/Graphics/SVG/1.1/DTD/svg11.dtd">
<svg version="1.1" id="Capa_1" xmlns="http://www.w3.org/2000/svg" xmlns:xlink="http://www.w3.org/1999/xlink" x="0px" y="0px"
	 width="12px" height="12px" viewBox="0 0 12 12" enable-background="new 0 0 12 12" xml:space="preserve">
<path fill-rule="evenodd" clip-rule="evenodd" fill="#C2C3C9" d="M11.696,0.769c-0.147-0.121-0.933-0.431-1.45-0.108
	c0,0-2.657,2.637-3.343,3.375C5.767,5.26,4.616,6.773,3.782,7.928L2.201,5.677C1.935,4.969,1.351,4.606,0.64,4.874
	c-0.716,0.268-0.755,1.111-0.486,1.82l2.091,4.322l0.005,0.012c0.068,0.228,0.19,0.437,0.377,0.608
	c0.56,0.514,1.432,0.478,1.948-0.077c0,0,2.052-3.479,4.245-5.843c1.613-1.74,3.02-3.567,3.02-3.567
	C12.201,1.543,11.862,0.903,11.696,0.769L11.696,0.769z"/>
</svg>
