<svg xmlns="http://www.w3.org/2000/svg" xmlns:xlink="http://www.w3.org/1999/xlink" width="120" height="120" viewBox="0 0 120 120"><defs><linearGradient id="linear-gradient" y1="60" x2="120" y2="60" gradientUnits="userSpaceOnUse"><stop offset="0" stop-color="#ebebeb"/><stop offset="0.42591" stop-color="#ebebeb"/><stop offset="0.49601" stop-color="#ebebeb"/><stop offset="0.70392" stop-color="#eaeaea" stop-opacity="0.99613"/><stop offset="0.77883" stop-color="#e5e5e5" stop-opacity="0.98212"/><stop offset="0.8322" stop-color="#dcdcdc" stop-opacity="0.95772"/><stop offset="0.87538" stop-color="#cfcfcf" stop-opacity="0.92286"/><stop offset="0.91236" stop-color="#bfbfbf" stop-opacity="0.87744"/><stop offset="0.94507" stop-color="#ababab" stop-opacity="0.8214"/><stop offset="0.97394" stop-color="#949494" stop-opacity="0.75647"/><stop offset="0.99439" stop-color="gray" stop-opacity="0.7"/></linearGradient><linearGradient id="linear-gradient-2" x1="-1221.3573" y1="1123.07265" x2="-1101.3573" y2="1123.07265" gradientTransform="translate(1221.3573 -1063.07265)" gradientUnits="userSpaceOnUse"><stop offset="0.49415" stop-color="#ebebeb" stop-opacity="0"/><stop offset="0.72415" stop-color="#e9e9e9" stop-opacity="0.01464"/><stop offset="0.80698" stop-color="#e1e1e1" stop-opacity="0.06767"/><stop offset="0.86604" stop-color="#d3d3d3" stop-opacity="0.16003"/><stop offset="0.91378" stop-color="#bebebe" stop-opacity="0.29192"/><stop offset="0.95418" stop-color="#a4a4a4" stop-opacity="0.4613"/><stop offset="0.98983" stop-color="#858585" stop-opacity="0.6688"/><stop offset="0.99439" stop-color="gray" stop-opacity="0.7"/></linearGradient><linearGradient id="linear-gradient-3" x1="-2280.09441" y1="-80.53465" x2="-2160.09441" y2="-80.53465" gradientTransform="translate(2280.09441 140.53465)" xlink:href="#linear-gradient-2"/><linearGradient id="linear-gradient-4" x1="-1152.40157" y1="-1151.27176" x2="-1032.40157" y2="-1151.27176" gradientTransform="translate(1152.40157 1211.27176)" xlink:href="#linear-gradient-2"/></defs><title>logo</title><g id="Layer_2" data-name="Layer 2"><g id="Layer_2-2" data-name="Layer 2"><rect width="120" height="120" rx="6.27461" ry="6.27461" style="fill:url(#linear-gradient)"/><rect width="120" height="120" rx="6.27461" ry="6.27461" transform="translate(0 120) rotate(-90)" style="fill:url(#linear-gradient-2)"/><rect width="120" height="120" rx="6.27461" ry="6.27461" transform="translate(120 120) rotate(180)" style="fill:url(#linear-gradient-3)"/><rect width="120" height="120" rx="6.27461" ry="6.27461" transform="translate(120 0) rotate(90)" style="fill:url(#linear-gradient-4)"/><path d="M54.66933,64.06848V56.29857c7.72654-5.09476,10.42162-6.662,10.42162-9.86215a4.65361,4.65361,0,0,0-5.03088-4.63729c-3.77358,0-5.87024,1.698-7.18789,5.81278l-8.44509-2.5472C46.22356,37.2276,52.27317,32.1986,60.47916,32.1986c9.52369,0,15.09375,5.87783,15.09375,13.51944,0,7.83711-5.151,10.90648-10.84129,14.43367v4.06974a20.28148,20.28148,0,1,0-10.06229-.153Z" style="fill:#353339"/><path d="M75.81126,63.55168a23.63068,23.63068,0,0,1-31.60438,0A36.64209,36.64209,0,0,0,25.10581,95.81077H94.89419A36.60906,36.60906,0,0,0,75.81126,63.55168ZM65.03117,79.68087H54.96883V72.25013H65.03117Z" style="fill:#353339"/></g></g></svg>