<svg xmlns="http://www.w3.org/2000/svg" width="15" height="15" viewBox="0 0 15 15"><title>mas_agregar</title><g id="Layer_2" data-name="Layer 2"><g id="Capa_1" data-name="Capa 1"><path d="M8.84183,8.85885l5.34225-.00068A.82.82,0,0,0,15,8.04121V6.95068a.81883.81883,0,0,0-.81592-.81621L8.84183,6.136V.81764A.82108.82108,0,0,0,8.0259,0H6.9375a.8201.8201,0,0,0-.81592.81764V6.136L.81593,6.13447A.81931.81931,0,0,0,0,6.95068V8.04121a.81932.81932,0,0,0,.81593.817l5.30565.00068v5.32494A.81844.81844,0,0,0,6.9375,15H8.0259a.81985.81985,0,0,0,.81593-.81621Zm0,0" style="fill:#008692"/></g></g></svg>