<svg xmlns="http://www.w3.org/2000/svg" xmlns:xlink="http://www.w3.org/1999/xlink" width="12.43775" height="19.90812" viewBox="0 0 12.43775 19.90812"><defs><clipPath id="clip-path" transform="translate(0 -0.01555)"><rect width="12.43474" height="19.97024" style="fill:none"/></clipPath></defs><title>notas</title><g id="Layer_2" data-name="Layer 2"><g id="Layer_2-2" data-name="Layer 2"><g style="clip-path:url(#clip-path)"><path d="M0,.01555V19.92367H12.43775V.01555Zm11.82778,19.2981H10.30585a4.38537,4.38537,0,0,0,1.52192-1.52212Zm-3.43647-.01235V15.87723h3.42412a3.74739,3.74739,0,0,1-3.42412,3.42407Zm3.43647-17.107H11.5103v.61h.31748V15.26721H7.78153v4.04644H.61V2.80438H.92745v-.61H.61V.62558H11.82778Zm0,0" transform="translate(0 -0.01555)" style="fill:#007381"/></g><rect x="1.54982" y="2.1788" width="0.62256" height="0.61002" style="fill:#007381"/><rect x="2.7949" y="2.1788" width="0.62256" height="0.61002" style="fill:#007381"/><rect x="4.04017" y="2.1788" width="0.62256" height="0.61002" style="fill:#007381"/><rect x="5.28486" y="2.1788" width="0.62256" height="0.61002" style="fill:#007381"/><rect x="6.53013" y="2.1788" width="0.62256" height="0.61002" style="fill:#007381"/><rect x="7.77545" y="2.1788" width="0.62237" height="0.61002" style="fill:#007381"/><rect x="9.02014" y="2.1788" width="0.62256" height="0.61002" style="fill:#007381"/><rect x="10.26541" y="2.1788" width="0.62237" height="0.61002" style="fill:#007381"/><rect x="1.54982" y="5.3604" width="9.33777" height="0.61002" style="fill:#007381"/><rect x="1.54982" y="8.40396" width="9.33777" height="0.61002" style="fill:#007381"/><rect x="1.54982" y="11.37817" width="9.33777" height="0.61002" style="fill:#007381"/><rect x="1.54982" y="14.00658" width="9.33777" height="0.61002" style="fill:#007381"/><rect x="1.54982" y="17.1191" width="5.91408" height="0.61002" style="fill:#007381"/></g></g></svg>