<?xml version="1.0" encoding="utf-8"?>
<!-- Generator: Adobe Illustrator 16.0.0, SVG Export Plug-In . SVG Version: 6.00 Build 0)  -->
<!DOCTYPE svg PUBLIC "-//W3C//DTD SVG 1.1//EN" "http://www.w3.org/Graphics/SVG/1.1/DTD/svg11.dtd">
<svg version="1.1" id="Capa_1" xmlns="http://www.w3.org/2000/svg" xmlns:xlink="http://www.w3.org/1999/xlink" x="0px" y="0px"
	 width="176px" height="82px" viewBox="0 0 176 82" enable-background="new 0 0 176 82" xml:space="preserve">
<g>
	<path fill="#001D7E" d="M107.206,0H0.011v47.51h171.361C147.78,10.85,107.206,0,107.206,0z"/>
	<g>
		<path fill="#EDEEF0" d="M13.263,19.559c0-1.578,0.237-3.24,0.709-4.988c0.62-2.341,1.563-4.375,2.831-6.099
			c1.268-1.723,2.867-3.085,4.797-4.086c1.929-1,4.126-1.502,6.59-1.502c3.301,0,5.968,1.026,8.001,3.077
			c2.032,2.052,3.049,4.769,3.049,8.156c0,2.815-0.662,5.54-1.984,8.173c-1.323,2.634-3.12,4.66-5.389,6.08
			c-2.27,1.419-4.836,2.129-7.701,2.129c-2.488,0-4.575-0.563-6.262-1.693c-1.687-1.128-2.883-2.527-3.586-4.196
			S13.263,21.257,13.263,19.559z M18.688,19.45c0,1.832,0.558,3.367,1.675,4.605c1.117,1.237,2.585,1.856,4.405,1.856
			c1.48,0,2.904-0.488,4.269-1.466c1.365-0.977,2.494-2.457,3.385-4.441c0.893-1.984,1.338-3.917,1.338-5.798
			c0-2.1-0.563-3.747-1.693-4.942c-1.128-1.196-2.566-1.793-4.313-1.793c-2.683,0-4.864,1.25-6.545,3.75
			C19.528,13.721,18.688,16.464,18.688,19.45z"/>
		<path fill="#EDEEF0" d="M40.623,30.025l5.589-26.687h7.19c2.002,0,3.282,0.03,3.841,0.09c1.104,0.109,2.09,0.334,2.958,0.674
			c0.868,0.34,1.657,0.816,2.366,1.43c0.71,0.612,1.323,1.35,1.839,2.211c0.516,0.862,0.913,1.854,1.192,2.976
			c0.279,1.123,0.418,2.352,0.418,3.686c0,2.876-0.549,5.429-1.647,7.656c-1.099,2.227-2.479,3.995-4.142,5.306
			c-1.274,1.02-2.919,1.772-4.933,2.257c-1.141,0.267-2.895,0.4-5.261,0.4H40.623z M47.013,25.729h2.785
			c2.015,0,3.475-0.124,4.378-0.373c0.904-0.249,1.733-0.713,2.484-1.394c1.081-0.983,1.99-2.293,2.731-3.932
			c0.74-1.638,1.111-3.568,1.111-5.789c0-1.893-0.307-3.315-0.919-4.268c-0.614-0.953-1.369-1.587-2.267-1.903
			c-0.632-0.218-1.754-0.328-3.368-0.328h-3.186L47.013,25.729z"/>
		<path fill="#EDEEF0" d="M82.802,30.025h-5.206l-0.965-22.3l-4.242,22.3h-4.952l5.571-26.687h7.828l0.819,18.696l9.103-18.696
			h7.918l-5.59,26.687h-5.004l5.26-22.136L82.802,30.025z"/>
	</g>
	<g>
		<path fill="#EDEEF0" d="M62.878,42.559l2.218-10.629h7.881l-0.37,1.776h-5.692l-0.507,2.415h5.502l-0.37,1.777h-5.503
			l-0.667,2.886h6.185l-0.377,1.776H62.878z"/>
		<path fill="#EDEEF0" d="M74.551,42.559h-2.828l4.691-5.379l-2.64-5.25h2.284l1.038,1.994c0.033,0.073,0.27,0.563,0.71,1.472
			c0.029,0.048,0.061,0.113,0.095,0.195c0.59-0.72,1.085-1.31,1.486-1.769l1.675-1.893h2.748l-4.865,5.598l2.617,5.031h-2.465
			l-0.797-1.602c-0.416-0.847-0.691-1.453-0.827-1.82c-0.188,0.286-0.674,0.876-1.457,1.77L74.551,42.559z"/>
		<path fill="#EDEEF0" d="M84.869,42.559h-2.19l2.226-10.629h4.32c0.771,0,1.377,0.09,1.823,0.272
			c0.449,0.181,0.802,0.481,1.063,0.899c0.261,0.418,0.392,0.917,0.392,1.498c0,0.536-0.104,1.058-0.312,1.566
			c-0.209,0.507-0.463,0.914-0.765,1.218c-0.303,0.304-0.628,0.535-0.976,0.692c-0.349,0.157-0.816,0.277-1.406,0.359
			c-0.343,0.049-0.987,0.073-1.929,0.073h-1.399L84.869,42.559z M86.079,36.744h0.675c1.155,0,1.926-0.073,2.313-0.217
			c0.387-0.146,0.69-0.377,0.913-0.696s0.333-0.67,0.333-1.051c0-0.256-0.056-0.467-0.169-0.631
			c-0.113-0.165-0.273-0.284-0.48-0.359c-0.204-0.075-0.663-0.113-1.373-0.113h-1.566L86.079,36.744z"/>
		<path fill="#EDEEF0" d="M94.824,42.559h-2.19l2.226-10.629h4.719c0.813,0,1.445,0.083,1.897,0.25
			c0.451,0.167,0.817,0.473,1.095,0.917c0.278,0.445,0.417,0.983,0.417,1.617c0,0.904-0.271,1.649-0.813,2.237
			c-0.54,0.587-1.359,0.951-2.457,1.091c0.281,0.25,0.544,0.582,0.79,0.993c0.489,0.831,1.031,2.007,1.632,3.524h-2.35
			c-0.188-0.6-0.558-1.535-1.109-2.806c-0.299-0.686-0.618-1.148-0.956-1.385c-0.208-0.14-0.571-0.209-1.088-0.209h-0.892
			L94.824,42.559z M96.078,36.563h1.16c1.174,0,1.954-0.07,2.338-0.211c0.385-0.14,0.685-0.36,0.901-0.659
			c0.219-0.3,0.328-0.614,0.328-0.943c0-0.387-0.158-0.677-0.473-0.87c-0.192-0.116-0.61-0.175-1.254-0.175h-2.406L96.078,36.563z"
			/>
		<path fill="#EDEEF0" d="M103.313,42.559l2.219-10.629h7.881l-0.37,1.776h-5.69l-0.508,2.415h5.502l-0.369,1.777h-5.503
			l-0.667,2.886h6.184l-0.376,1.776H103.313z"/>
		<path fill="#EDEEF0" d="M113.552,39.115l2.081-0.108c0.027,0.662,0.143,1.109,0.339,1.342c0.32,0.376,0.909,0.565,1.77,0.565
			c0.716,0,1.232-0.129,1.552-0.385c0.32-0.257,0.479-0.565,0.479-0.929c0-0.314-0.131-0.58-0.391-0.797
			c-0.186-0.159-0.688-0.417-1.513-0.775c-0.823-0.358-1.426-0.656-1.805-0.896c-0.38-0.239-0.679-0.549-0.895-0.931
			c-0.219-0.381-0.328-0.829-0.328-1.342c0-0.895,0.324-1.635,0.974-2.225c0.647-0.59,1.583-0.885,2.812-0.885
			c1.246,0,2.212,0.292,2.896,0.877c0.685,0.585,1.061,1.363,1.127,2.335l-2.095,0.094c-0.052-0.507-0.237-0.896-0.552-1.167
			c-0.313-0.27-0.778-0.406-1.391-0.406c-0.604,0-1.035,0.106-1.295,0.319c-0.259,0.212-0.388,0.481-0.388,0.805
			c0,0.305,0.119,0.556,0.354,0.754c0.238,0.203,0.763,0.481,1.574,0.834c1.223,0.526,2.001,0.955,2.334,1.283
			c0.498,0.482,0.747,1.104,0.747,1.863c0,0.938-0.37,1.739-1.113,2.404c-0.741,0.663-1.774,0.997-3.099,0.997
			c-0.913,0-1.705-0.154-2.376-0.459c-0.669-0.309-1.141-0.734-1.415-1.282C113.659,40.453,113.532,39.825,113.552,39.115z"/>
		<path fill="#EDEEF0" d="M123.455,39.115l2.081-0.108c0.029,0.662,0.143,1.109,0.341,1.342c0.318,0.376,0.909,0.565,1.77,0.565
			c0.716,0,1.232-0.129,1.552-0.385c0.318-0.257,0.479-0.565,0.479-0.929c0-0.314-0.131-0.58-0.393-0.797
			c-0.184-0.159-0.687-0.417-1.512-0.775c-0.824-0.358-1.425-0.656-1.806-0.896c-0.378-0.239-0.677-0.549-0.895-0.931
			c-0.217-0.381-0.326-0.829-0.326-1.342c0-0.895,0.324-1.635,0.972-2.225c0.647-0.59,1.585-0.885,2.812-0.885
			c1.248,0,2.214,0.292,2.898,0.877c0.683,0.585,1.059,1.363,1.127,2.335l-2.097,0.094c-0.053-0.507-0.235-0.896-0.55-1.167
			c-0.313-0.27-0.778-0.406-1.393-0.406c-0.604,0-1.035,0.106-1.295,0.319c-0.257,0.212-0.386,0.481-0.386,0.805
			c0,0.305,0.117,0.556,0.354,0.754c0.236,0.203,0.761,0.481,1.572,0.834c1.223,0.526,2.003,0.955,2.336,1.283
			c0.498,0.482,0.747,1.104,0.747,1.863c0,0.938-0.372,1.739-1.113,2.404c-0.743,0.663-1.774,0.997-3.101,0.997
			c-0.913,0-1.705-0.154-2.374-0.459c-0.669-0.309-1.143-0.734-1.418-1.282C123.564,40.453,123.436,39.825,123.455,39.115z"/>
	</g>
	<g>
		<path fill="#C2C3C9" d="M0.877,75.264v-8.869h2.681l1.609,6.053l1.591-6.053h2.686v8.869H7.78v-6.98l-1.759,6.98H4.295
			l-1.754-6.98v6.98H0.877z"/>
		<path fill="#C2C3C9" d="M11.222,75.264v-8.869h6.577v1.502h-4.786v1.967h4.454v1.492h-4.454v2.416h4.956v1.492H11.222z"/>
		<path fill="#C2C3C9" d="M19.506,75.264v-8.869h1.742l3.63,5.924v-5.924h1.664v8.869h-1.797l-3.576-5.783v5.783H19.506z"/>
		<path fill="#C2C3C9" d="M27.981,72.379l1.743-0.168c0.105,0.584,0.318,1.014,0.639,1.287c0.32,0.275,0.752,0.41,1.298,0.41
			c0.576,0,1.011-0.119,1.304-0.363c0.292-0.244,0.438-0.531,0.438-0.857c0-0.209-0.062-0.387-0.184-0.535
			c-0.123-0.146-0.337-0.275-0.645-0.385c-0.21-0.072-0.688-0.201-1.434-0.387c-0.96-0.236-1.633-0.529-2.021-0.877
			c-0.545-0.488-0.817-1.084-0.817-1.785c0-0.451,0.127-0.875,0.384-1.268c0.256-0.393,0.625-0.693,1.106-0.898
			c0.483-0.207,1.064-0.309,1.746-0.309c1.114,0,1.951,0.244,2.514,0.732c0.563,0.486,0.858,1.139,0.887,1.953l-1.791,0.078
			c-0.077-0.453-0.241-0.781-0.493-0.982c-0.252-0.199-0.63-0.299-1.134-0.299c-0.521,0-0.928,0.107-1.223,0.32
			c-0.189,0.139-0.284,0.322-0.284,0.553c0,0.207,0.088,0.387,0.266,0.537c0.225,0.189,0.774,0.387,1.646,0.594
			c0.871,0.203,1.515,0.416,1.933,0.637s0.744,0.521,0.98,0.9c0.236,0.383,0.354,0.854,0.354,1.414c0,0.508-0.142,0.984-0.423,1.428
			c-0.283,0.443-0.682,0.773-1.198,0.99c-0.516,0.215-1.16,0.322-1.93,0.322c-1.122,0-1.982-0.258-2.583-0.777
			C28.457,74.127,28.098,73.371,27.981,72.379z"/>
		<path fill="#C2C3C9" d="M44.699,75.264H42.75l-0.774-2.014h-3.545l-0.732,2.014h-1.899l3.455-8.869h1.894L44.699,75.264z
			 M41.401,71.756l-1.222-3.291l-1.198,3.291H41.401z"/>
		<path fill="#C2C3C9" d="M48.849,66.395h1.785v5.615c0,0.734-0.064,1.299-0.194,1.695c-0.172,0.516-0.487,0.93-0.943,1.242
			c-0.456,0.312-1.057,0.469-1.803,0.469c-0.876,0-1.55-0.246-2.021-0.734c-0.472-0.49-0.71-1.209-0.714-2.156l1.688-0.193
			c0.021,0.506,0.095,0.865,0.224,1.076c0.193,0.318,0.488,0.477,0.884,0.477c0.398,0,0.682-0.111,0.846-0.34
			c0.166-0.229,0.249-0.703,0.249-1.42V66.395z"/>
		<path fill="#C2C3C9" d="M52.539,75.264v-8.869h6.577v1.502H54.33v1.967h4.453v1.492H54.33v2.416h4.955v1.492H52.539z"/>
		<path fill="#C2C3C9" d="M60.811,75.264v-8.869h3.769c0.948,0,1.636,0.08,2.066,0.24c0.429,0.16,0.773,0.443,1.032,0.85
			c0.258,0.408,0.387,0.875,0.387,1.396c0,0.668-0.196,1.215-0.587,1.65c-0.391,0.434-0.977,0.705-1.754,0.818
			c0.387,0.227,0.707,0.475,0.958,0.746c0.252,0.27,0.592,0.748,1.02,1.439l1.083,1.729h-2.142l-1.295-1.928
			c-0.459-0.691-0.774-1.125-0.944-1.305c-0.17-0.18-0.349-0.303-0.538-0.369c-0.189-0.066-0.491-0.1-0.901-0.1h-0.364v3.701H60.811
			z M62.601,70.146h1.325c0.859,0,1.396-0.037,1.609-0.109c0.215-0.072,0.381-0.195,0.502-0.373c0.122-0.178,0.182-0.4,0.182-0.668
			c0-0.299-0.08-0.537-0.24-0.721c-0.159-0.186-0.384-0.301-0.674-0.35c-0.145-0.02-0.581-0.029-1.308-0.029h-1.397V70.146z"/>
		<path fill="#C2C3C9" d="M69.492,65.889l0.835-1.811h1.905l-1.664,1.811H69.492z M69.698,75.264v-8.869h1.79v8.869H69.698z"/>
		<path fill="#C2C3C9" d="M81.193,75.264h-1.948l-0.774-2.014h-3.545l-0.732,2.014h-1.899l3.455-8.869h1.894L81.193,75.264z
			 M77.896,71.756l-1.222-3.291l-1.198,3.291H77.896z"/>
		<path fill="#C2C3C9" d="M87.23,75.264v-3.732l-3.249-5.137h2.1l2.087,3.512l2.046-3.512h2.062l-3.261,5.148v3.721H87.23z"/>
		<path fill="#C2C3C9" d="M96.384,75.264v-8.869h2.875c1.088,0,1.798,0.045,2.13,0.135c0.509,0.133,0.934,0.422,1.277,0.867
			c0.341,0.445,0.513,1.023,0.513,1.727c0,0.547-0.098,1.002-0.297,1.375c-0.196,0.371-0.448,0.662-0.753,0.873
			c-0.304,0.213-0.614,0.352-0.928,0.422c-0.427,0.084-1.047,0.127-1.856,0.127h-1.168v3.344H96.384z M98.177,67.896v2.516h0.979
			c0.706,0,1.178-0.047,1.416-0.139c0.237-0.094,0.425-0.238,0.56-0.434c0.135-0.199,0.203-0.43,0.203-0.691
			c0-0.324-0.094-0.588-0.285-0.799c-0.189-0.209-0.429-0.34-0.72-0.393c-0.212-0.041-0.644-0.061-1.289-0.061H98.177z"/>
		<path fill="#C2C3C9" d="M111.729,75.264h-1.948l-0.774-2.014h-3.546l-0.732,2.014h-1.9l3.456-8.869h1.894L111.729,75.264z
			 M108.431,71.756l-1.223-3.291l-1.197,3.291H108.431z"/>
		<path fill="#C2C3C9" d="M119.818,74.139c0.438,0.316,0.916,0.566,1.433,0.752l-0.659,1.264c-0.271-0.08-0.534-0.191-0.793-0.332
			c-0.057-0.029-0.453-0.291-1.192-0.787c-0.581,0.254-1.225,0.381-1.929,0.381c-1.363,0-2.432-0.4-3.204-1.205
			c-0.772-0.801-1.158-1.928-1.158-3.381c0-1.447,0.386-2.574,1.16-3.379c0.776-0.805,1.825-1.207,3.153-1.207
			c1.314,0,2.358,0.402,3.129,1.207c0.77,0.805,1.154,1.932,1.154,3.379c0,0.766-0.107,1.441-0.32,2.02
			C120.431,73.295,120.173,73.725,119.818,74.139z M118.377,73.129c0.229-0.27,0.403-0.596,0.519-0.979
			c0.115-0.385,0.172-0.824,0.172-1.32c0-1.023-0.227-1.789-0.677-2.295c-0.453-0.508-1.044-0.76-1.773-0.76
			c-0.73,0-1.322,0.254-1.776,0.764c-0.454,0.506-0.681,1.271-0.681,2.291c0,1.037,0.227,1.811,0.681,2.326s1.028,0.771,1.723,0.771
			c0.257,0,0.501-0.043,0.73-0.127c-0.362-0.238-0.73-0.424-1.107-0.557l0.503-1.021C117.278,72.424,117.841,72.725,118.377,73.129z
			"/>
		<path fill="#C2C3C9" d="M122.303,66.395h1.792v4.807c0,0.76,0.021,1.256,0.066,1.48c0.076,0.363,0.26,0.654,0.546,0.875
			c0.289,0.221,0.683,0.328,1.184,0.328c0.51,0,0.892-0.102,1.149-0.311c0.259-0.207,0.413-0.463,0.466-0.766
			c0.053-0.301,0.08-0.805,0.08-1.508v-4.906h1.79v4.66c0,1.064-0.049,1.816-0.146,2.256c-0.096,0.441-0.274,0.811-0.534,1.113
			c-0.262,0.303-0.608,0.545-1.043,0.725c-0.438,0.178-1.005,0.268-1.707,0.268c-0.846,0-1.49-0.098-1.927-0.293
			c-0.438-0.195-0.784-0.449-1.037-0.764c-0.256-0.312-0.422-0.639-0.503-0.982c-0.117-0.508-0.176-1.258-0.176-2.25V66.395z"/>
		<path fill="#C2C3C9" d="M131.264,75.264v-8.869h6.576v1.502h-4.786v1.967h4.455v1.492h-4.455v2.416h4.956v1.492H131.264z"/>
		<path fill="#C2C3C9" d="M141.523,75.264v-7.367h-2.631v-1.502h7.049v1.502h-2.625v7.367H141.523z"/>
		<path fill="#C2C3C9" d="M147.096,75.264v-8.869h6.578v1.502h-4.786v1.967h4.452v1.492h-4.452v2.416h4.956v1.492H147.096z"/>
		<path fill="#C2C3C9" d="M155.368,75.264v-8.869h3.769c0.947,0,1.636,0.08,2.067,0.24c0.429,0.16,0.771,0.443,1.031,0.85
			c0.258,0.408,0.386,0.875,0.386,1.396c0,0.668-0.194,1.215-0.587,1.65c-0.39,0.434-0.975,0.705-1.753,0.818
			c0.386,0.227,0.706,0.475,0.957,0.746c0.254,0.27,0.594,0.748,1.021,1.439l1.082,1.729H161.2l-1.296-1.928
			c-0.458-0.691-0.773-1.125-0.943-1.305s-0.35-0.303-0.538-0.369c-0.189-0.066-0.489-0.1-0.901-0.1h-0.362v3.701H155.368z
			 M157.159,70.146h1.324c0.859,0,1.396-0.037,1.608-0.109c0.215-0.072,0.383-0.195,0.503-0.373c0.121-0.178,0.182-0.4,0.182-0.668
			c0-0.299-0.08-0.537-0.239-0.721c-0.158-0.186-0.385-0.301-0.673-0.35c-0.146-0.02-0.582-0.029-1.309-0.029h-1.396V70.146z"/>
		<path fill="#C2C3C9" d="M164.049,65.889l0.835-1.811h1.905l-1.663,1.811H164.049z M164.256,75.264v-8.869h1.79v8.869H164.256z"/>
		<path fill="#C2C3C9" d="M175.75,75.264h-1.948l-0.773-2.014h-3.546l-0.733,2.014h-1.899l3.456-8.869h1.894L175.75,75.264z
			 M172.452,71.756l-1.223-3.291l-1.197,3.291H172.452z"/>
	</g>
	<rect x="0.011" y="51.604" fill="#BF0411" width="175.989" height="8.684"/>
	<path fill="#EDEEF0" d="M147.78,0C164.246,8.26,176,23.754,176,23.754V0H147.78z"/>
	<path fill="#EDEEF0" d="M142.212,0h-24.247C152.972,10.567,176,47.51,176,47.51V28.341C160.477,8.845,142.212,0,142.212,0z"/>
</g>
</svg>
