<svg xmlns="http://www.w3.org/2000/svg" width="73.333" height="24.9971" viewBox="0 0 73.333 24.9971"><title>p2_amarillo</title><g id="Layer_2" data-name="Layer 2"><g id="Capa_2" data-name="Capa 2"><path d="M73.333,12.4996c0,6.9013-5.251,12.4975-11.7285,12.4975H11.7285C5.251,24.9971,0,19.4009,0,12.4996H0C0,5.5957,5.251,0,11.7285,0h49.876C68.082,0,73.333,5.5957,73.333,12.4996Z" style="fill:#fbb03b"/><path d="M68.333,12.8956c0,5.3842-3.72562,9.75-8.32232,9.75H39.15428c-4.5957,0-8.32128-4.3658-8.32128-9.75h0c0-5.3848,3.72558-9.75,8.32128-9.75h20.8564c4.5967,0,8.32232,4.3652,8.32232,9.75Z" style="fill:#fff"/><path d="M11.67094,7.71146c2.40918,0,3.86621,1.26049,3.86621,3.36181,0,2.10108-1.457,3.36182-3.86621,3.36182H10.28422v3.08154h-2.353V7.71146Zm-.042,4.52441c.91064,0,1.457-.43433,1.457-1.1626,0-.72851-.54639-1.16284-1.457-1.16284H10.28422v2.32544Z" style="fill:#fff"/><path d="M16.68071,10.24661a3.71446,3.71446,0,0,1,3.71191-2.73144A3.2663,3.2663,0,0,1,23.95073,10.709c0,1.835-1.26075,2.68946-2.46534,3.52979-.79882.57446-1.65332,1.1206-1.65332,1.13476l.01416.01392c.01416,0,.9668-.07007,2.45118-.07007h1.667v2.19922H16.76469V15.59769c1.34473-1.19068,2.67529-2.36744,4.02-3.55811a1.91218,1.91218,0,0,0,.78467-1.33057,1.15762,1.15762,0,0,0-1.24658-1.1206,1.61642,1.61642,0,0,0-1.4712,1.23266Z" style="fill:#fff"/></g></g></svg>