<svg xmlns="http://www.w3.org/2000/svg" width="73.4746" height="24.9971" viewBox="0 0 73.4746 24.9971"><title>p3_verde</title><g id="Layer_2" data-name="Layer 2"><g id="Capa_2" data-name="Capa 2"><path d="M73.4746,12.4996c0,6.9013-5.2617,12.4975-11.751,12.4975H11.751C5.2607,24.9971,0,19.4009,0,12.4996H0C0,5.5957,5.2607,0,11.751,0H61.7236c6.4893,0,11.751,5.5957,11.751,12.4996Z" style="fill:#39b54a"/><path d="M68.8906,12.8956c0,5.3842-3.72562,9.75-8.3222,9.75H39.7119c-4.5957,0-8.3213-4.3658-8.3213-9.75h0c0-5.3848,3.7256-9.75,8.3213-9.75H60.5684c4.59658,0,8.3222,4.3652,8.3222,9.75Z" style="fill:#fff"/><path d="M12.146,7.71146c2.40918,0,3.86621,1.26049,3.86621,3.36181,0,2.10108-1.457,3.36182-3.86621,3.36182H10.75932v3.08154h-2.353V7.71146Zm-.042,4.52441c.91065,0,1.457-.43433,1.457-1.1626,0-.72851-.54639-1.16284-1.457-1.16284H10.75932v2.32544Z" style="fill:#fff"/><path d="M17.07182,10.26077a3.65835,3.65835,0,0,1,3.7539-2.7456c2.22706,0,3.52979,1.26074,3.52979,2.89965a2.07608,2.07608,0,0,1-1.87695,2.031V12.46a2.05474,2.05474,0,0,1,2.05908,2.14307c0,1.80688-1.541,3.10962-3.71192,3.10962a3.946,3.946,0,0,1-3.9082-2.71753l2.1294-.58814a1.672,1.672,0,0,0,1.68066,1.20459,1.21706,1.21706,0,0,0,1.35889-1.13452c0-.63037-.56055-1.0647-1.415-1.0647h-.82617v-1.835h.82617c.85449,0,1.24658-.44824,1.24658-.99463,0-.60229-.50391-.99438-1.24658-.99438-.728,0-1.19043.36426-1.49854,1.23266Z" style="fill:#fff"/></g></g></svg>