<svg xmlns="http://www.w3.org/2000/svg" width="90" height="57.86" viewBox="0 0 90 57.86"><defs><style>.cls-1{fill:#39b54a;}</style></defs><title>Recurso 252</title><g id="Capa_2" data-name="Capa 2"><g id="Capa_1-2" data-name="Capa 1"><path class="cls-1" d="M87.81,11.27l-51.43,45-.06,0a6.89,6.89,0,0,1-.84.61l-.14.08a6.46,6.46,0,0,1-.92.44l-.14.05a6.74,6.74,0,0,1-1,.26l-.11,0a7.18,7.18,0,0,1-1,.09h0a4.58,4.58,0,0,1-.64,0l-.17,0-.47-.07-.21,0-.42-.12L30,57.48l-.38-.14-.24-.11L29,57.05l-.25-.15-.3-.2-.26-.19L28,56.29l-.25-.22L27.6,56,1.88,30.26A6.43,6.43,0,0,1,11,21.17L32.43,42.63l46.91-41a6.43,6.43,0,0,1,8.47,9.68Z"/></g></g></svg>