<?xml version="1.0" encoding="utf-8"?>
<!-- Generator: Adobe Illustrator 16.0.0, SVG Export Plug-In . SVG Version: 6.00 Build 0)  -->
<!DOCTYPE svg PUBLIC "-//W3C//DTD SVG 1.1//EN" "http://www.w3.org/Graphics/SVG/1.1/DTD/svg11.dtd">
<svg version="1.1" id="Capa_1" xmlns="http://www.w3.org/2000/svg" xmlns:xlink="http://www.w3.org/1999/xlink" x="0px" y="0px"
	 width="172px" height="70px" viewBox="0 0 172 70" enable-background="new 0 0 172 70" xml:space="preserve">
<g>
	<g>
		<path d="M94.514,30.068c-0.668,0.558-1.621,0.836-2.859,0.836h-2.377v4.104h-2.369V23.596h4.9c1.127,0,2.029,0.294,2.701,0.883
			s1.006,1.5,1.006,2.733C95.516,28.559,95.184,29.511,94.514,30.068z M92.695,25.958c-0.303-0.253-0.725-0.38-1.27-0.38h-2.148
			v3.36h2.148c0.545,0,0.967-0.136,1.27-0.41c0.301-0.273,0.451-0.707,0.451-1.3S92.996,26.209,92.695,25.958z"/>
		<path d="M102.75,26.74c0.588,0.263,1.076,0.679,1.459,1.248c0.344,0.502,0.568,1.083,0.672,1.744
			c0.059,0.388,0.082,0.947,0.072,1.675h-6.146c0.035,0.847,0.33,1.44,0.883,1.781c0.338,0.212,0.744,0.317,1.217,0.317
			c0.502,0,0.91-0.129,1.225-0.388c0.172-0.139,0.322-0.333,0.453-0.58h2.254c-0.059,0.5-0.332,1.009-0.816,1.525
			c-0.758,0.82-1.816,1.231-3.176,1.231c-1.123,0-2.113-0.346-2.971-1.039c-0.859-0.692-1.289-1.818-1.289-3.378
			c0-1.461,0.387-2.583,1.162-3.363s1.781-1.17,3.018-1.17C101.5,26.344,102.16,26.476,102.75,26.74z M99.449,28.646
			c-0.311,0.321-0.506,0.757-0.588,1.307h3.801c-0.041-0.585-0.236-1.03-0.586-1.334c-0.354-0.303-0.789-0.454-1.311-0.454
			C100.201,28.164,99.762,28.324,99.449,28.646z"/>
		<path d="M110.543,26.705c0.398,0.224,0.721,0.535,0.969,0.933v-4.026h2.236v11.396h-2.145v-1.169
			c-0.312,0.5-0.674,0.864-1.076,1.092s-0.9,0.341-1.5,0.341c-0.986,0-1.816-0.399-2.49-1.196s-1.01-1.82-1.01-3.069
			c0-1.44,0.332-2.574,0.994-3.399c0.664-0.826,1.551-1.239,2.66-1.239C109.691,26.368,110.146,26.48,110.543,26.705z
			 M111.086,32.716c0.324-0.464,0.486-1.065,0.486-1.804c0-1.032-0.258-1.77-0.781-2.213c-0.318-0.269-0.691-0.403-1.115-0.403
			c-0.643,0-1.117,0.244-1.42,0.732c-0.301,0.488-0.453,1.093-0.453,1.815c0,0.779,0.156,1.402,0.461,1.87
			c0.309,0.468,0.775,0.701,1.398,0.701C110.287,33.413,110.76,33.181,111.086,32.716z"/>
		<path d="M120.441,26.372c0.029,0.003,0.094,0.007,0.189,0.012v2.26c-0.139-0.016-0.264-0.026-0.371-0.031
			c-0.109-0.005-0.195-0.008-0.264-0.008c-0.887,0-1.482,0.29-1.787,0.868c-0.17,0.325-0.256,0.825-0.256,1.502v4.033h-2.223v-8.438
			h2.107v1.471c0.34-0.562,0.637-0.948,0.889-1.154c0.414-0.346,0.951-0.519,1.611-0.519
			C120.379,26.368,120.414,26.369,120.441,26.372z"/>
		<path d="M125.268,29.875c0.41-0.051,0.703-0.116,0.881-0.193c0.316-0.135,0.475-0.344,0.475-0.627
			c0-0.345-0.121-0.584-0.363-0.716c-0.244-0.132-0.602-0.197-1.072-0.197c-0.529,0-0.902,0.129-1.123,0.387
			c-0.156,0.19-0.262,0.449-0.314,0.774h-2.129c0.047-0.738,0.254-1.344,0.623-1.819c0.586-0.743,1.592-1.115,3.018-1.115
			c0.928,0,1.754,0.183,2.473,0.55c0.721,0.367,1.08,1.057,1.08,2.075v3.871c0,0.268,0.006,0.593,0.016,0.975
			c0.016,0.29,0.061,0.485,0.131,0.588c0.074,0.104,0.184,0.189,0.326,0.255v0.325h-2.4c-0.066-0.17-0.111-0.33-0.139-0.48
			c-0.025-0.15-0.047-0.32-0.062-0.511c-0.307,0.33-0.658,0.611-1.059,0.844c-0.479,0.274-1.018,0.411-1.621,0.411
			c-0.768,0-1.402-0.218-1.904-0.654c-0.498-0.437-0.75-1.054-0.75-1.854c0-1.038,0.402-1.789,1.209-2.253
			c0.441-0.252,1.092-0.434,1.949-0.542L125.268,29.875z M126.615,30.904c-0.141,0.089-0.283,0.159-0.428,0.213
			c-0.143,0.054-0.34,0.104-0.592,0.151l-0.502,0.093c-0.471,0.083-0.809,0.183-1.014,0.302c-0.348,0.201-0.523,0.514-0.523,0.937
			c0,0.377,0.107,0.649,0.32,0.817c0.211,0.167,0.471,0.251,0.773,0.251c0.482,0,0.926-0.14,1.332-0.418s0.617-0.787,0.633-1.525
			V30.904z"/>
		<path d="M130.262,28.365v-1.796h6.674v1.834l-4.141,4.793h4.289v1.811h-7.115v-1.718l4.182-4.924H130.262z"/>
		<path d="M142.012,29.875c0.41-0.051,0.705-0.116,0.881-0.193c0.318-0.135,0.477-0.344,0.477-0.627
			c0-0.345-0.123-0.584-0.363-0.716c-0.244-0.132-0.604-0.197-1.074-0.197c-0.527,0-0.9,0.129-1.121,0.387
			c-0.156,0.19-0.262,0.449-0.314,0.774h-2.127c0.045-0.738,0.252-1.344,0.623-1.819c0.584-0.743,1.59-1.115,3.014-1.115
			c0.93,0,1.754,0.183,2.475,0.55c0.721,0.367,1.08,1.057,1.08,2.075v3.871c0,0.268,0.006,0.593,0.016,0.975
			c0.016,0.29,0.061,0.485,0.131,0.588c0.074,0.104,0.182,0.189,0.326,0.255v0.325h-2.4c-0.066-0.17-0.113-0.33-0.141-0.48
			c-0.025-0.15-0.045-0.32-0.061-0.511c-0.307,0.33-0.658,0.611-1.061,0.844c-0.477,0.274-1.018,0.411-1.619,0.411
			c-0.768,0-1.402-0.218-1.904-0.654c-0.498-0.437-0.75-1.054-0.75-1.854c0-1.038,0.402-1.789,1.209-2.253
			c0.441-0.252,1.092-0.434,1.949-0.542L142.012,29.875z M143.361,30.904c-0.141,0.089-0.285,0.159-0.428,0.213
			c-0.145,0.054-0.342,0.104-0.592,0.151l-0.502,0.093c-0.473,0.083-0.809,0.183-1.014,0.302c-0.35,0.201-0.523,0.514-0.523,0.937
			c0,0.377,0.107,0.649,0.32,0.817c0.211,0.167,0.471,0.251,0.773,0.251c0.482,0,0.926-0.14,1.332-0.418s0.617-0.787,0.633-1.525
			V30.904z"/>
		<path d="M86.854,42.639h8.136v2.005h-5.768v2.625h5.055v1.981h-5.055v4.784h-2.368V42.639z"/>
		<path d="M103.396,53.001c-0.711,0.881-1.791,1.32-3.242,1.32c-1.449,0-2.531-0.439-3.244-1.32
			c-0.713-0.879-1.068-1.938-1.068-3.175c0-1.217,0.355-2.271,1.068-3.163c0.713-0.893,1.795-1.338,3.244-1.338
			c1.451,0,2.531,0.445,3.242,1.338c0.713,0.892,1.07,1.946,1.07,3.163C104.467,51.063,104.109,52.122,103.396,53.001z
			 M101.633,51.781c0.346-0.459,0.518-1.109,0.518-1.955s-0.172-1.495-0.518-1.952c-0.344-0.455-0.84-0.684-1.486-0.684
			c-0.645,0-1.143,0.229-1.49,0.684c-0.348,0.457-0.521,1.106-0.521,1.952s0.174,1.496,0.521,1.955s0.846,0.689,1.49,0.689
			C100.793,52.471,101.289,52.24,101.633,51.781z"/>
		<path d="M110.732,45.399c0.029,0.002,0.094,0.005,0.191,0.01v2.262c-0.141-0.016-0.264-0.027-0.373-0.031
			c-0.107-0.006-0.195-0.008-0.262-0.008c-0.887,0-1.482,0.288-1.789,0.867c-0.17,0.325-0.256,0.825-0.256,1.502v4.033h-2.223
			v-8.438h2.107v1.471c0.34-0.564,0.639-0.949,0.891-1.154c0.414-0.346,0.949-0.518,1.609-0.518
			C110.672,45.396,110.707,45.396,110.732,45.399z"/>
		<path d="M116.195,45.597h2.238l1.285,6.077l1.314-6.077h2.299l-2.445,8.438h-2.268l-1.324-6.146l-1.34,6.146h-2.291l-2.369-8.438
			h2.369l1.316,6.054L116.195,45.597z"/>
		<path d="M127.893,48.902c0.41-0.053,0.703-0.117,0.879-0.194c0.318-0.136,0.477-0.345,0.477-0.627
			c0-0.347-0.121-0.584-0.363-0.716c-0.244-0.132-0.602-0.198-1.072-0.198c-0.529,0-0.902,0.128-1.123,0.388
			c-0.156,0.189-0.262,0.449-0.314,0.774h-2.129c0.047-0.739,0.254-1.346,0.623-1.82c0.586-0.742,1.592-1.113,3.018-1.113
			c0.928,0,1.752,0.182,2.473,0.549c0.719,0.365,1.08,1.057,1.08,2.075v3.871c0,0.267,0.006,0.592,0.016,0.975
			c0.014,0.289,0.059,0.484,0.131,0.589c0.074,0.103,0.182,0.188,0.324,0.256v0.324h-2.398c-0.066-0.17-0.113-0.33-0.141-0.479
			c-0.023-0.151-0.045-0.321-0.061-0.511c-0.307,0.328-0.658,0.611-1.059,0.844c-0.479,0.272-1.018,0.41-1.621,0.41
			c-0.768,0-1.402-0.219-1.904-0.654c-0.5-0.438-0.752-1.055-0.752-1.854c0-1.037,0.404-1.788,1.211-2.252
			c0.441-0.254,1.092-0.434,1.949-0.543L127.893,48.902z M129.24,49.932c-0.141,0.086-0.285,0.158-0.428,0.213
			s-0.34,0.104-0.592,0.15l-0.502,0.094c-0.471,0.08-0.809,0.182-1.014,0.301c-0.348,0.201-0.523,0.514-0.523,0.938
			c0,0.375,0.107,0.648,0.32,0.816c0.211,0.167,0.471,0.252,0.773,0.252c0.482,0,0.926-0.14,1.332-0.418
			c0.406-0.279,0.617-0.788,0.633-1.525V49.932z"/>
		<path d="M138.055,45.399c0.029,0.002,0.094,0.005,0.189,0.01v2.262c-0.139-0.016-0.264-0.027-0.371-0.031
			c-0.109-0.006-0.195-0.008-0.264-0.008c-0.887,0-1.482,0.288-1.789,0.867c-0.17,0.325-0.254,0.825-0.254,1.502v4.033h-2.223
			v-8.438h2.105v1.471c0.34-0.564,0.639-0.949,0.891-1.154c0.414-0.346,0.951-0.518,1.611-0.518
			C137.992,45.396,138.027,45.396,138.055,45.399z"/>
		<path d="M144.012,45.731c0.398,0.225,0.721,0.534,0.967,0.933v-4.025h2.238v11.396h-2.145v-1.169
			c-0.312,0.5-0.674,0.863-1.076,1.092c-0.402,0.227-0.902,0.341-1.502,0.341c-0.984,0-1.816-0.398-2.488-1.196
			c-0.674-0.797-1.01-1.821-1.01-3.07c0-1.439,0.332-2.573,0.994-3.397c0.664-0.826,1.549-1.238,2.658-1.238
			C143.16,45.396,143.615,45.507,144.012,45.731z M144.553,51.743c0.326-0.465,0.488-1.067,0.488-1.804
			c0-1.033-0.26-1.771-0.781-2.215c-0.32-0.269-0.691-0.402-1.115-0.402c-0.645,0-1.119,0.244-1.422,0.731
			c-0.301,0.488-0.451,1.092-0.451,1.815c0,0.778,0.154,1.402,0.459,1.87c0.309,0.466,0.775,0.7,1.398,0.7
			C143.754,52.439,144.229,52.207,144.553,51.743z"/>
		<path d="M151.49,44.589h-2.236v-2.035h2.236V44.589z M149.254,45.597h2.236v8.438h-2.236V45.597z"/>
		<path d="M160.432,46.079c0.553,0.457,0.828,1.214,0.828,2.272v5.683H159v-5.132c0-0.445-0.059-0.786-0.176-1.022
			c-0.215-0.434-0.625-0.65-1.229-0.65c-0.744,0-1.254,0.317-1.531,0.952c-0.143,0.335-0.215,0.763-0.215,1.285v4.567h-2.207v-8.422
			h2.137v1.23c0.283-0.434,0.551-0.748,0.803-0.938c0.451-0.34,1.025-0.51,1.719-0.51C159.168,45.396,159.881,45.622,160.432,46.079
			z"/>
		<path d="M167.486,45.589c0.537,0.221,0.971,0.629,1.299,1.223v-1.215h2.152v8.004c0,1.088-0.182,1.908-0.549,2.463
			c-0.629,0.947-1.838,1.424-3.623,1.424c-1.078,0-1.959-0.213-2.641-0.635c-0.682-0.424-1.057-1.057-1.131-1.896h2.4
			c0.062,0.258,0.162,0.443,0.303,0.557c0.238,0.201,0.639,0.303,1.199,0.303c0.797,0,1.328-0.268,1.596-0.797
			c0.176-0.342,0.262-0.914,0.262-1.72v-0.542c-0.211,0.36-0.436,0.631-0.68,0.813c-0.438,0.335-1.008,0.503-1.711,0.503
			c-1.084,0-1.949-0.381-2.598-1.142c-0.646-0.763-0.973-1.793-0.973-3.094c0-1.254,0.312-2.309,0.938-3.162
			c0.623-0.854,1.508-1.28,2.652-1.28C166.805,45.396,167.174,45.458,167.486,45.589z M168.238,51.639
			c0.355-0.391,0.531-1.01,0.531-1.861c0-0.803-0.168-1.41-0.504-1.828c-0.338-0.418-0.787-0.627-1.354-0.627
			c-0.77,0-1.303,0.364-1.594,1.092c-0.156,0.387-0.232,0.863-0.232,1.432c0,0.49,0.082,0.926,0.248,1.309
			c0.297,0.713,0.832,1.068,1.602,1.068C167.451,52.223,167.885,52.027,168.238,51.639z"/>
	</g>
	<g>
		<path fill="#D6AD4E" d="M26.427,69.81c-1.43,0-2.585-1.156-2.585-2.585v-28.11c0-8.896,7.238-16.135,16.136-16.135
			c8.896,0,16.135,7.239,16.135,16.135c0,8.897-7.24,16.136-16.135,16.136c-2.962,0-5.862-0.812-8.38-2.346
			c-1.219-0.741-1.607-2.332-0.865-3.552c0.744-1.22,2.334-1.607,3.553-0.863c1.709,1.04,3.678,1.589,5.692,1.589
			c6.047,0,10.964-4.917,10.964-10.964c0-6.045-4.917-10.964-10.964-10.964c-6.046,0-10.966,4.919-10.966,10.964v28.11
			C29.012,68.653,27.854,69.81,26.427,69.81z"/>
		<path fill="#D6AD4E" d="M18.835,65.858c-1.428,0-2.587-1.158-2.587-2.586V39.114c0-13.084,10.645-23.729,23.729-23.729
			S63.706,26.03,63.706,39.114c0,8.421-4.526,16.287-11.813,20.523c-1.233,0.718-2.817,0.3-3.535-0.933
			c-0.719-1.235-0.3-2.817,0.935-3.535c5.7-3.316,9.242-9.47,9.242-16.056c0-10.233-8.325-18.558-18.558-18.558
			S21.42,28.881,21.42,39.114v24.158C21.42,64.7,20.263,65.858,18.835,65.858z"/>
		<path fill="#D6AD4E" d="M11.357,61.717c-1.428,0-2.586-1.158-2.586-2.586V39.114c0-17.207,14-31.207,31.206-31.207
			c12.611,0,23.913,7.518,28.79,19.148c0.552,1.318-0.068,2.833-1.385,3.385c-1.316,0.553-2.833-0.068-3.385-1.384
			c-4.068-9.706-13.496-15.977-24.02-15.977c-14.355,0-26.034,11.679-26.034,26.034v20.017
			C13.944,60.559,12.786,61.717,11.357,61.717z"/>
		<path fill="#D6AD4E" d="M3.648,57.765c-1.427,0-2.585-1.158-2.585-2.586V39.114c0-10.287,3.976-19.986,11.195-27.312
			C19.469,4.484,29.093,0.365,39.356,0.205c1.436-0.022,2.604,1.117,2.625,2.544c0.022,1.429-1.116,2.603-2.543,2.626
			C30.54,5.514,22.194,9.087,15.941,15.432c-6.26,6.353-9.706,14.764-9.706,23.683v16.064C6.235,56.606,5.076,57.765,3.648,57.765z"
			/>
	</g>
</g>
</svg>
