<?xml version="1.0" encoding="utf-8"?>
<!-- Generator: Adobe Illustrator 16.0.0, SVG Export Plug-In . SVG Version: 6.00 Build 0)  -->
<!DOCTYPE svg PUBLIC "-//W3C//DTD SVG 1.1//EN" "http://www.w3.org/Graphics/SVG/1.1/DTD/svg11.dtd">
<svg version="1.1" id="Capa_1" xmlns="http://www.w3.org/2000/svg" xmlns:xlink="http://www.w3.org/1999/xlink" x="0px" y="0px"
	 width="228px" height="70px" viewBox="0 0 228 70" enable-background="new 0 0 228 70" xml:space="preserve">
<g>
	<g>
		<path fill="#3E3E3E" d="M81.45,17.291c4.499,0,7.221,2.333,7.221,6.195c0,3.859-2.722,6.221-7.221,6.221h-3.694v7.025h-2.278
			V17.291H81.45z M81.394,27.567c3.195,0,4.944-1.556,4.944-4.081c0-2.613-1.888-4.059-4.944-4.059h-3.639v8.14H81.394z"/>
		<path fill="#3E3E3E" d="M107.115,17.291v19.441h-2.248v-8.998h-10.64v8.998h-2.274V17.291h2.274v8.306h10.64v-8.306H107.115z"/>
		<path fill="#3E3E3E" d="M124.283,31.649h-9.748l-2.167,5.083h-2.445l8.445-19.441h2.084l8.443,19.441h-2.443L124.283,31.649z
			 M123.424,29.621l-3.086-7.218c-0.416-1.002-0.889-2.362-0.914-2.362h-0.029c-0.025,0-0.5,1.36-0.916,2.362l-3.084,7.218H123.424z
			"/>
		<path fill="#3E3E3E" d="M142.979,36.732l-4.387-7.277c-0.307,0.028-0.668,0.028-1,0.028h-3.641v7.249h-2.275V17.291h5.916
			c4.555,0,7.275,2.388,7.275,6.136c0,2.778-1.471,4.75-4.053,5.585l4.721,7.721H142.979z M137.812,27.457
			c3.111,0,4.723-1.695,4.723-4.03c0-2.472-1.75-3.999-4.723-3.999h-3.861v8.029H137.812z"/>
		<path fill="#3E3E3E" d="M167.342,17.291v19.441h-2.25v-8.75c0-3,0.139-6.859,0.109-6.859h-0.027c-0.027,0-0.998,1.777-1.691,2.944
			l-4.531,7.888h-1.193l-4.525-7.888c-0.695-1.167-1.666-2.944-1.695-2.944h-0.025c-0.029,0,0.107,3.859,0.107,6.859v8.75h-2.248
			V17.291h2.141l4.83,8.22c1.666,2.834,1.971,3.612,1.998,3.612h0.031c0.025,0,0.332-0.778,2-3.612l4.83-8.22H167.342z"/>
		<path fill="#3E3E3E" d="M184.482,31.649h-9.748l-2.166,5.083h-2.443l8.441-19.441h2.082l8.443,19.441h-2.445L184.482,31.649z
			 M183.621,29.621l-3.082-7.218c-0.416-1.002-0.889-2.362-0.916-2.362h-0.029c-0.027,0-0.5,1.36-0.916,2.362l-3.082,7.218H183.621z
			"/>
		<path fill="#3E3E3E" d="M82.483,44.416c-0.312-1.762-1.825-2.821-3.627-2.821c-1.909,0-3.256,0.912-3.256,2.364
			c0,1.598,2.012,2.094,3.938,2.674c2.031,0.604,4.789,1.511,4.789,4.335c0,2.444-2.111,4.229-5.307,4.229
			c-3.108,0-5.08-1.826-5.533-4.273l1.638-0.435c0.206,1.678,1.595,3.169,3.957,3.169c2.157,0,3.463-1.137,3.463-2.65
			c0-2.115-2.509-2.551-4.561-3.193c-1.659-0.517-4.105-1.264-4.105-3.773c0-2.258,2.135-3.938,5.036-3.938
			c2.636,0,4.707,1.553,5.185,3.877L82.483,44.416z"/>
		<path fill="#3E3E3E" d="M98.426,44.352c-0.993-1.596-2.84-2.588-4.87-2.588c-3.316,0-5.785,2.38-5.785,5.885
			c0,3.503,2.528,5.867,5.785,5.867c2.217,0,4.166-1.183,5.119-3.006l1.681,0.458c-1.205,2.568-3.774,4.229-6.8,4.229
			c-4.168,0-7.525-3.175-7.525-7.549c0-4.375,3.357-7.545,7.525-7.545c2.838,0,5.285,1.491,6.591,3.814L98.426,44.352z"/>
		<path fill="#3E3E3E" d="M102.616,54.906V40.393h1.7v14.514H102.616z"/>
		<path fill="#3E3E3E" d="M117.979,53.309v1.598h-9.807V40.393h9.682v1.598h-7.981v4.477h6.407v1.515h-6.407v5.327H117.979z"/>
		<path fill="#3E3E3E" d="M133.113,40.393v14.514h-1.596l-6.445-8.688c-1.244-1.72-2.154-3.046-2.178-3.046h-0.023
			c-0.018,0,0.047,1.804,0.047,4.126v7.608h-1.703V40.393h1.596l6.445,8.666c1.102,1.472,2.158,2.984,2.178,2.984h0.021
			c0.021,0-0.041-1.948-0.041-4.021v-7.629H133.113z"/>
		<path fill="#3E3E3E" d="M146.902,40.393v1.598h-4.873v12.916h-1.678V41.99h-4.85v-1.598H146.902z"/>
		<path fill="#3E3E3E" d="M149.287,54.906V40.393h1.701v14.514H149.287z"/>
		<path fill="#3E3E3E" d="M156.545,41.99v4.912h6.197v1.534h-6.197v6.47h-1.699V40.393h9.471v1.598H156.545z"/>
		<path fill="#3E3E3E" d="M166.953,54.906V40.393h1.699v14.514H166.953z"/>
		<path fill="#3E3E3E" d="M183.766,44.352c-0.994-1.596-2.838-2.588-4.871-2.588c-3.316,0-5.783,2.38-5.783,5.885
			c0,3.503,2.529,5.867,5.783,5.867c2.219,0,4.166-1.183,5.121-3.006l1.678,0.458c-1.201,2.568-3.77,4.229-6.799,4.229
			c-4.168,0-7.525-3.175-7.525-7.549c0-4.375,3.357-7.545,7.525-7.545c2.84,0,5.285,1.491,6.592,3.814L183.766,44.352z"/>
		<path fill="#3E3E3E" d="M193.346,54.906V40.393h1.701v14.514H193.346z"/>
		<path fill="#3E3E3E" d="M210.803,40.393v14.514h-1.596l-6.447-8.688c-1.244-1.72-2.156-3.046-2.178-3.046h-0.021
			c-0.02,0,0.043,1.804,0.043,4.126v7.608h-1.699V40.393h1.596l6.445,8.666c1.098,1.472,2.156,2.984,2.178,2.984h0.02
			c0.023,0-0.041-1.948-0.041-4.021v-7.629H210.803z"/>
		<path fill="#3E3E3E" d="M225.918,44.352c-0.996-1.596-2.842-2.588-4.871-2.588c-3.316,0-5.785,2.38-5.785,5.885
			c0,3.503,2.529,5.867,5.785,5.867c2.217,0,4.166-1.183,5.119-3.006l1.68,0.458c-1.203,2.568-3.773,4.229-6.799,4.229
			c-4.168,0-7.527-3.175-7.527-7.549c0-4.375,3.359-7.545,7.527-7.545c2.84,0,5.285,1.491,6.592,3.814L225.918,44.352z"/>
	</g>
	<g>
		<linearGradient id="SVGID_1_" gradientUnits="userSpaceOnUse" x1="53.8013" y1="58.9951" x2="7.4593" y2="11.0066">
			<stop  offset="0" style="stop-color:#752C5B"/>
			<stop  offset="1" style="stop-color:#9E0071"/>
		</linearGradient>
		<path fill="url(#SVGID_1_)" d="M59.095,16.24l-0.383-0.219l-25.631-14.8c-0.022-0.015-0.044-0.03-0.068-0.046l-0.381-0.223
			c-0.025-0.011-0.054-0.023-0.076-0.034c-0.584-0.286-1.235-0.446-1.926-0.446c-0.678,0-1.32,0.154-1.893,0.428l-0.587,0.336
			L2.652,15.96l-0.579,0.335c-1.159,0.793-1.918,2.123-1.918,3.632v30.142c0,1.525,0.775,2.869,1.956,3.657l0.49,0.284L28.15,68.76
			l0.589,0.34c0.572,0.273,1.214,0.428,1.892,0.428c0.679,0,1.319-0.154,1.894-0.428l0.587-0.34l25.479-14.71l0.618-0.356
			c1.146-0.792,1.9-2.115,1.9-3.618V19.933C61.108,18.385,60.305,17.025,59.095,16.24z M25.584,49.534l7.306-18.746l-2.645-7.386
			l-9.727,26.135h-3.571l11.52-30.979h3.605l2.677,7.47l2.896-7.47h3.601l-4.772,12.281l6.699,18.695H25.584z"/>
		<linearGradient id="SVGID_2_" gradientUnits="userSpaceOnUse" x1="38.0205" y1="46.5479" x2="30.9098" y2="39.1845">
			<stop  offset="0" style="stop-color:#752C5B"/>
			<stop  offset="1" style="stop-color:#9E0071"/>
		</linearGradient>
		<polygon fill="url(#SVGID_2_)" points="30.494,46.177 38.406,46.177 34.619,35.603 		"/>
	</g>
</g>
</svg>
