<?xml version="1.0" encoding="utf-8"?>
<!-- Generator: Adobe Illustrator 16.0.0, SVG Export Plug-In . SVG Version: 6.00 Build 0)  -->
<!DOCTYPE svg PUBLIC "-//W3C//DTD SVG 1.1//EN" "http://www.w3.org/Graphics/SVG/1.1/DTD/svg11.dtd" [
	<!ENTITY ns_extend "http://ns.adobe.com/Extensibility/1.0/">
	<!ENTITY ns_ai "http://ns.adobe.com/AdobeIllustrator/10.0/">
	<!ENTITY ns_graphs "http://ns.adobe.com/Graphs/1.0/">
	<!ENTITY ns_vars "http://ns.adobe.com/Variables/1.0/">
	<!ENTITY ns_imrep "http://ns.adobe.com/ImageReplacement/1.0/">
	<!ENTITY ns_sfw "http://ns.adobe.com/SaveForWeb/1.0/">
	<!ENTITY ns_custom "http://ns.adobe.com/GenericCustomNamespace/1.0/">
	<!ENTITY ns_adobe_xpath "http://ns.adobe.com/XPath/1.0/">
]>
<svg version="1.1" id="Capa_1" xmlns:x="&ns_extend;" xmlns:i="&ns_ai;" xmlns:graph="&ns_graphs;"
	 xmlns="http://www.w3.org/2000/svg" xmlns:xlink="http://www.w3.org/1999/xlink" x="0px" y="0px" width="20px" height="20px"
	 viewBox="0 0 20 20" enable-background="new 0 0 20 20" xml:space="preserve">
<metadata>
	<sfw  xmlns="&ns_sfw;">
		<slices></slices>
		<sliceSourceBounds  height="19.998" width="20" bottomLeftOrigin="true" x="0" y="-19.999"></sliceSourceBounds>
	</sfw>
</metadata>
<g>
	<g>
		<path fill="#008895" d="M10.354,5.86c2.036,0,3.266,1.063,3.266,2.839c0,1.773-1.229,2.839-3.266,2.839h-1.17v2.604H7.195V5.86
			H10.354z M10.319,9.681c0.769,0,1.229-0.366,1.229-0.981c0-0.615-0.461-0.981-1.229-0.981H9.184v1.963H10.319z"/>
	</g>
	<path fill="#008895" d="M9.999,0.001C4.479,0.001,0,4.478,0,10.001c0,5.521,4.479,9.998,9.999,9.998
		c5.523,0,10.001-4.477,10.001-9.998C20,4.478,15.522,0.001,9.999,0.001z M9.999,17.959c-4.396,0-7.958-3.562-7.958-7.958
		s3.562-7.96,7.958-7.96s7.961,3.564,7.961,7.96S14.395,17.959,9.999,17.959z"/>
</g>
</svg>
