<?xml version="1.0" encoding="utf-8"?>
<!-- Generator: Adobe Illustrator 16.0.0, SVG Export Plug-In . SVG Version: 6.00 Build 0)  -->
<!DOCTYPE svg PUBLIC "-//W3C//DTD SVG 1.1//EN" "http://www.w3.org/Graphics/SVG/1.1/DTD/svg11.dtd">
<svg version="1.1" id="Capa_1" xmlns="http://www.w3.org/2000/svg" xmlns:xlink="http://www.w3.org/1999/xlink" x="0px" y="0px"
	 width="186px" height="38px" viewBox="0 0 186 38" enable-background="new 0 0 186 38" xml:space="preserve">
<g>
	<g>
		<g>
			<g>
				
					<linearGradient id="SVGID_1_" gradientUnits="userSpaceOnUse" x1="-73.666" y1="84.1631" x2="-39.3193" y2="84.1631" gradientTransform="matrix(1 0 0 1 75.5527 -75.5781)">
					<stop  offset="0" style="stop-color:#5B5B5F"/>
					<stop  offset="0.9755" style="stop-color:#434142"/>
				</linearGradient>
				<path fill="url(#SVGID_1_)" d="M19.059,0C9.851,0,2.314,7.282,1.898,16.386c-0.006,0.129-0.011,0.649-0.012,0.783h5.085
					c0.001-0.075,0.005-0.54,0.011-0.609c0.323-6.385,5.616-11.476,12.076-11.476c6.439,0,11.723,5.059,12.079,11.413
					c0.003,0.09,0.012,0.578,0.012,0.672h5.084c-0.001-0.094-0.004-0.58-0.009-0.667C35.868,7.344,28.304,0,19.059,0z"/>
				
					<linearGradient id="SVGID_2_" gradientUnits="userSpaceOnUse" x1="-73.6313" y1="103.9072" x2="-39.3149" y2="103.9072" gradientTransform="matrix(1 0 0 1 75.5527 -75.5781)">
					<stop  offset="0" style="stop-color:#3E899A"/>
					<stop  offset="0.9939" style="stop-color:#306C78"/>
				</linearGradient>
				<polygon fill="url(#SVGID_2_)" points="36.233,27.869 36.238,18.884 31.167,18.884 31.16,24.593 19.069,32.037 6.995,24.576 
					6.997,18.884 1.925,18.884 1.921,27.847 19.069,37.773 				"/>
			</g>
		</g>
		<g>
			<g>
				<g>
					<path fill="#424242" d="M47.544,4.189c5.045,0,8.113,2.647,8.113,7.032c0,4.414-3.068,7.061-8.113,7.061h-3.338v6.946h-4.173
						V4.189H47.544z M47.454,14.381c2.466,0,3.876-1.206,3.876-3.16c0-1.982-1.469-3.124-3.876-3.124h-3.247v6.283H47.454z"/>
					<path fill="#424242" d="M69.691,25.229l-4.176-7.185c-0.089,0-0.157,0-0.239,0h-3.189v7.185h-4.175V4.189h7.364
						c5.166,0,8.257,2.797,8.257,7.032c0,2.884-1.406,4.987-3.964,6.041l4.811,7.966H69.691z M62.087,14.318h3.724
						c2.317,0,3.396-1.503,3.396-3.097c0-1.646-1.109-3.124-3.396-3.124h-3.724V14.318z"/>
					<path fill="#424242" d="M86.504,3.773c6.039,0,10.936,4.596,10.936,10.934c0,6.344-4.897,10.941-10.936,10.941
						c-6.04,0-10.908-4.598-10.908-10.941C75.596,8.37,80.464,3.773,86.504,3.773z M86.504,21.526c3.874,0,6.579-2.791,6.579-6.819
						c0-4.051-2.705-6.82-6.579-6.82c-3.85,0-6.553,2.769-6.553,6.82C79.951,18.736,82.654,21.526,86.504,21.526z"/>
					<path fill="#424242" d="M141.712,4.189v11.905c0,6.187-3.546,9.554-9.076,9.554c-5.558,0-9.071-3.367-9.071-9.554V4.189h4.179
						v11.843c0,3.905,1.68,5.708,4.893,5.708c3.189,0,4.869-1.803,4.869-5.708V4.189H141.712z"/>
					<path fill="#424242" d="M144.332,25.229V4.189h4.178v21.039H144.332z"/>
					<path fill="#424242" d="M155.466,8.098v5.138h8.569l-1.542,3.758h-7.027v8.234h-4.178V4.189h16.46l-1.576,3.909H155.466z"/>
					<path fill="#424242" d="M176.67,21.201h-9.105l-1.557,4.027h-4.515l8.655-21.039h3.932l8.659,21.039h-4.505L176.67,21.201z
						 M175.229,17.503l-2.077-5.317c-0.446-1.171-0.993-2.917-1.021-2.917h-0.027c-0.034,0-0.569,1.746-1.021,2.917l-2.073,5.317
						H175.229z"/>
					<path fill="#424242" d="M121.855,22.673l-2.175-2.125c1.071-1.69,1.696-3.692,1.696-5.841c0-6.029-4.895-10.919-10.922-10.919
						c-6.035,0-10.929,4.89-10.929,10.919c0,6.033,4.894,10.924,10.929,10.924c2.382,0,4.581-0.764,6.377-2.057l2.117,2.074
						L121.855,22.673z M103.619,14.707c0-3.771,3.062-6.832,6.836-6.832c3.775,0,6.832,3.061,6.832,6.832
						c0,3.778-3.057,6.84-6.832,6.84C106.682,21.547,103.619,18.485,103.619,14.707z"/>
				</g>
			</g>
		</g>
	</g>
	<g>
		<path fill="#008894" d="M147.287,30.873c-0.117-0.664-0.688-1.062-1.367-1.062c-0.719,0-1.227,0.344-1.227,0.891
			c0,0.602,0.758,0.789,1.484,1.008c0.766,0.227,1.805,0.57,1.805,1.633c0,0.922-0.797,1.594-2,1.594
			c-1.172,0-1.914-0.688-2.086-1.609l0.617-0.164c0.078,0.633,0.602,1.195,1.492,1.195c0.812,0,1.305-0.43,1.305-1
			c0-0.797-0.945-0.961-1.719-1.203c-0.625-0.195-1.547-0.477-1.547-1.422c0-0.852,0.805-1.484,1.898-1.484
			c0.992,0,1.773,0.586,1.953,1.461L147.287,30.873z"/>
		<path fill="#008894" d="M152.697,34.225v0.602h-3.695v-5.469h3.648v0.602h-3.008v1.688h2.414v0.57h-2.414v2.008H152.697z"/>
		<path fill="#008894" d="M157.091,34.826l-1.234-2.047c-0.086,0.008-0.188,0.008-0.281,0.008h-1.023v2.039h-0.641v-5.469h1.664
			c1.281,0,2.047,0.672,2.047,1.727c0,0.781-0.414,1.336-1.141,1.57l1.328,2.172H157.091z M155.638,32.217
			c0.875,0,1.328-0.477,1.328-1.133c0-0.695-0.492-1.125-1.328-1.125h-1.086v2.258H155.638z"/>
		<path fill="#008894" d="M163.431,29.357l-2.336,5.469h-0.648l-2.336-5.469h0.695l1.648,3.914c0.156,0.391,0.305,0.836,0.312,0.836
			h0.008c0.008,0,0.164-0.445,0.312-0.836l1.656-3.914H163.431z"/>
		<path fill="#008894" d="M164.176,34.826v-5.469h0.641v5.469H164.176z"/>
		<path fill="#008894" d="M170.51,30.85c-0.375-0.602-1.07-0.977-1.836-0.977c-1.25,0-2.18,0.898-2.18,2.219s0.953,2.211,2.18,2.211
			c0.836,0,1.57-0.445,1.93-1.133l0.633,0.172c-0.453,0.969-1.422,1.594-2.562,1.594c-1.57,0-2.836-1.195-2.836-2.844
			s1.266-2.844,2.836-2.844c1.07,0,1.992,0.562,2.484,1.438L170.51,30.85z"/>
		<path fill="#008894" d="M172.083,34.826v-5.469h0.641v5.469H172.083z"/>
		<path fill="#008894" d="M176.581,29.248c1.57,0,2.844,1.195,2.844,2.844s-1.273,2.844-2.844,2.844s-2.836-1.195-2.836-2.844
			S175.011,29.248,176.581,29.248z M176.581,34.311c1.234,0,2.18-0.906,2.18-2.219c0-1.328-0.945-2.219-2.18-2.219
			c-1.242,0-2.18,0.891-2.18,2.219C174.401,33.404,175.339,34.311,176.581,34.311z"/>
		<path fill="#008894" d="M183.419,30.873c-0.117-0.664-0.688-1.062-1.367-1.062c-0.719,0-1.227,0.344-1.227,0.891
			c0,0.602,0.758,0.789,1.484,1.008c0.766,0.227,1.805,0.57,1.805,1.633c0,0.922-0.797,1.594-2,1.594
			c-1.172,0-1.914-0.688-2.086-1.609l0.617-0.164c0.078,0.633,0.602,1.195,1.492,1.195c0.812,0,1.305-0.43,1.305-1
			c0-0.797-0.945-0.961-1.719-1.203c-0.625-0.195-1.547-0.477-1.547-1.422c0-0.852,0.805-1.484,1.898-1.484
			c0.992,0,1.773,0.586,1.953,1.461L183.419,30.873z"/>
	</g>
</g>
</svg>
