<?xml version="1.0" encoding="utf-8"?>
<!-- Generator: Adobe Illustrator 16.0.0, SVG Export Plug-In . SVG Version: 6.00 Build 0)  -->
<!DOCTYPE svg PUBLIC "-//W3C//DTD SVG 1.1//EN" "http://www.w3.org/Graphics/SVG/1.1/DTD/svg11.dtd">
<svg version="1.1" id="Capa_1" xmlns="http://www.w3.org/2000/svg" xmlns:xlink="http://www.w3.org/1999/xlink" x="0px" y="0px"
	 width="186px" height="38px" viewBox="0 0 186 38" enable-background="new 0 0 186 38" xml:space="preserve">
<g>
	<g>
		<g>
			<g>
				
					<linearGradient id="SVGID_1_" gradientUnits="userSpaceOnUse" x1="228.7324" y1="-293.1904" x2="263.1885" y2="-293.1904" gradientTransform="matrix(1 0 0 -1 -226.4473 -284.5781)">
					<stop  offset="0" style="stop-color:#5B5B5F"/>
					<stop  offset="0.9755" style="stop-color:#434142"/>
				</linearGradient>
				<path fill="url(#SVGID_1_)" d="M19.512,0C10.274,0,2.714,7.305,2.297,16.438c-0.007,0.13-0.011,0.652-0.012,0.786h5.102
					c0.001-0.074,0.006-0.541,0.011-0.611c0.324-6.405,5.634-11.512,12.114-11.512c6.459,0,11.76,5.075,12.117,11.449
					c0.003,0.091,0.012,0.581,0.012,0.674h5.1c-0.001-0.093-0.004-0.581-0.009-0.669C36.375,7.367,28.786,0,19.512,0z"/>
				
					<linearGradient id="SVGID_2_" gradientUnits="userSpaceOnUse" x1="228.7676" y1="-312.9971" x2="263.1924" y2="-312.9971" gradientTransform="matrix(1 0 0 -1 -226.4473 -284.5781)">
					<stop  offset="0" style="stop-color:#3E899A"/>
					<stop  offset="0.9939" style="stop-color:#306C78"/>
				</linearGradient>
				<polygon fill="url(#SVGID_2_)" points="36.741,27.957 36.745,18.944 31.659,18.944 31.651,24.671 19.522,32.141 7.41,24.654 
					7.411,18.944 2.323,18.944 2.32,27.936 19.522,37.895 				"/>
			</g>
		</g>
		<g>
			<g>
				<g>
					<path fill="#424242" d="M48.088,4.203c5.062,0,8.139,2.655,8.139,7.054c0,4.428-3.078,7.083-8.139,7.083H44.74v6.969h-4.187
						V4.203H48.088z M47.996,14.427c2.475,0,3.889-1.209,3.889-3.169c0-1.988-1.474-3.133-3.889-3.133h-3.257v6.303h3.257V14.427z"
						/>
					<path fill="#424242" d="M70.305,25.309l-4.189-7.208c-0.089,0-0.157,0-0.24,0h-3.199v7.208h-4.189V4.203h7.388
						c5.182,0,8.283,2.805,8.283,7.054c0,2.894-1.411,5.003-3.977,6.06l4.826,7.992H70.305L70.305,25.309z M62.677,14.364h3.735
						c2.324,0,3.407-1.508,3.407-3.106c0-1.652-1.113-3.133-3.407-3.133h-3.735V14.364z"/>
					<path fill="#424242" d="M87.171,3.785c6.057,0,10.969,4.611,10.969,10.969c0,6.364-4.913,10.977-10.969,10.977
						c-6.06,0-10.943-4.611-10.943-10.977C76.228,8.396,81.112,3.785,87.171,3.785z M87.171,21.596c3.886,0,6.598-2.8,6.598-6.842
						c0-4.064-2.712-6.842-6.598-6.842c-3.862,0-6.574,2.778-6.574,6.842C80.597,18.795,83.309,21.596,87.171,21.596z"/>
					<path fill="#424242" d="M142.557,4.203v11.942c0,6.207-3.559,9.585-9.105,9.585c-5.574,0-9.102-3.379-9.102-9.585V4.203h4.191
						v11.88c0,3.918,1.686,5.728,4.909,5.728c3.199,0,4.884-1.81,4.884-5.728V4.203H142.557z"/>
					<path fill="#424242" d="M145.184,25.309V4.203h4.188v21.105H145.184L145.184,25.309z"/>
					<path fill="#424242" d="M156.352,8.124v5.154h8.597l-1.546,3.77h-7.051v8.261h-4.19V4.203h16.515l-1.582,3.921H156.352z"/>
					<path fill="#424242" d="M177.625,21.27h-9.135l-1.562,4.039h-4.526l8.683-21.104h3.944l8.687,21.104h-4.52L177.625,21.27z
						 M176.178,17.559l-2.082-5.334c-0.449-1.175-0.996-2.926-1.023-2.926h-0.025c-0.035,0-0.572,1.751-1.025,2.926l-2.079,5.334
						H176.178z"/>
					<path fill="#424242" d="M122.637,22.745l-2.182-2.132c1.074-1.696,1.701-3.704,1.701-5.859c0-6.049-4.909-10.954-10.956-10.954
						c-6.056,0-10.964,4.905-10.964,10.954c0,6.053,4.908,10.958,10.964,10.958c2.39,0,4.594-0.767,6.396-2.062l2.123,2.08
						L122.637,22.745z M104.342,14.754c0-3.783,3.073-6.854,6.858-6.854c3.786,0,6.854,3.07,6.854,6.854
						c0,3.79-3.067,6.861-6.854,6.861C107.415,21.615,104.342,18.544,104.342,14.754z"/>
				</g>
			</g>
		</g>
	</g>
	<g>
		<path fill="#008894" d="M131.895,29.607c1.269,0,2.035,0.656,2.035,1.746c0,1.088-0.768,1.752-2.035,1.752h-1.041v1.98h-0.643
			v-5.479H131.895z M131.881,32.504c0.899,0,1.393-0.438,1.393-1.15c0-0.735-0.532-1.144-1.393-1.144h-1.025v2.294H131.881z"/>
		<path fill="#008894" d="M138.042,35.087l-1.237-2.051c-0.086,0.008-0.188,0.008-0.281,0.008h-1.024v2.043h-0.644v-5.479h1.668
			c1.283,0,2.052,0.674,2.052,1.73c0,0.782-0.415,1.338-1.144,1.573l1.33,2.176H138.042z M136.586,32.473
			c0.877,0,1.331-0.478,1.331-1.135c0-0.697-0.493-1.128-1.331-1.128h-1.088v2.263H136.586z"/>
		<path fill="#008894" d="M142.113,29.498c1.574,0,2.85,1.197,2.85,2.85c0,1.651-1.275,2.85-2.85,2.85
			c-1.573,0-2.842-1.197-2.842-2.85S140.54,29.498,142.113,29.498z M142.113,34.57c1.236,0,2.186-0.908,2.186-2.223
			c0-1.332-0.947-2.225-2.186-2.225c-1.244,0-2.184,0.893-2.184,2.225C139.93,33.662,140.869,34.57,142.113,34.57z"/>
		<path fill="#008894" d="M150.461,29.607l-2.341,5.479h-0.649l-2.34-5.479h0.696l1.651,3.922c0.156,0.392,0.306,0.838,0.312,0.838
			h0.008c0.008,0,0.164-0.446,0.312-0.838l1.66-3.922H150.461z"/>
		<path fill="#008894" d="M154.916,34.484v0.603h-3.703v-5.479h3.656v0.604h-3.014v1.691h2.419v0.57h-2.419v2.012H154.916
			L154.916,34.484z"/>
		<path fill="#008894" d="M159.842,34.484v0.603h-3.703v-5.479h3.656v0.604h-3.014v1.691h2.419v0.57h-2.419v2.012H159.842
			L159.842,34.484z"/>
		<path fill="#008894" d="M163.374,29.607c1.565,0,2.834,1.127,2.834,2.771c0,1.62-1.253,2.708-2.786,2.708h-2.357v-5.479H163.374z
			 M163.422,34.484c1.143,0,2.129-0.799,2.129-2.105c0-1.331-0.986-2.169-2.177-2.169h-1.667v4.274H163.422z"/>
		<path fill="#008894" d="M169.855,29.498c1.574,0,2.851,1.197,2.851,2.85c0,1.651-1.276,2.85-2.851,2.85
			c-1.573,0-2.84-1.197-2.84-2.85S168.283,29.498,169.855,29.498z M169.855,34.57c1.238,0,2.186-0.908,2.186-2.223
			c0-1.332-0.947-2.225-2.186-2.225c-1.243,0-2.184,0.893-2.184,2.225C167.674,33.662,168.612,34.57,169.855,34.57z"/>
		<path fill="#008894" d="M176.889,35.087l-1.236-2.051c-0.086,0.008-0.188,0.008-0.281,0.008h-1.025v2.043h-0.643v-5.479h1.668
			c1.283,0,2.051,0.674,2.051,1.73c0,0.782-0.414,1.338-1.143,1.573l1.33,2.176H176.889z M175.432,32.473
			c0.877,0,1.332-0.478,1.332-1.135c0-0.697-0.494-1.128-1.332-1.128h-1.088v2.263H175.432z"/>
		<path fill="#008894" d="M182.15,33.654h-2.747l-0.61,1.433h-0.689l2.381-5.479h0.587l2.38,5.479h-0.688L182.15,33.654z
			 M181.908,33.083l-0.869-2.035c-0.117-0.282-0.25-0.665-0.258-0.665h-0.008c-0.008,0-0.143,0.383-0.26,0.665l-0.869,2.035H181.908
			z"/>
	</g>
</g>
</svg>
