<?xml version="1.0" encoding="utf-8"?>
<!-- Generator: Adobe Illustrator 16.0.0, SVG Export Plug-In . SVG Version: 6.00 Build 0)  -->
<!DOCTYPE svg PUBLIC "-//W3C//DTD SVG 1.1//EN" "http://www.w3.org/Graphics/SVG/1.1/DTD/svg11.dtd">
<svg version="1.1" id="Capa_1" xmlns="http://www.w3.org/2000/svg" xmlns:xlink="http://www.w3.org/1999/xlink" x="0px" y="0px"
	 width="186px" height="38px" viewBox="0 0 186 38" enable-background="new 0 0 186 38" xml:space="preserve">
<g>
	<g>
		<g>
			<g>
				
					<linearGradient id="SVGID_1_" gradientUnits="userSpaceOnUse" x1="-73.5039" y1="84.1895" x2="-39.0483" y2="84.1895" gradientTransform="matrix(1 0 0 1 75.5527 -75.5781)">
					<stop  offset="0" style="stop-color:#5B5B5F"/>
					<stop  offset="0.9755" style="stop-color:#434142"/>
				</linearGradient>
				<path fill="url(#SVGID_1_)" d="M19.275,0C10.038,0,2.478,7.305,2.061,16.438c-0.006,0.13-0.011,0.652-0.012,0.786H7.15
					c0.001-0.074,0.006-0.541,0.011-0.611c0.324-6.405,5.634-11.512,12.114-11.512c6.459,0,11.76,5.075,12.117,11.449
					c0.003,0.091,0.012,0.581,0.012,0.674h5.1c-0.001-0.093-0.004-0.581-0.009-0.669C36.139,7.367,28.55,0,19.275,0z"/>
				
					<linearGradient id="SVGID_2_" gradientUnits="userSpaceOnUse" x1="-73.4692" y1="103.9971" x2="-39.0439" y2="103.9971" gradientTransform="matrix(1 0 0 1 75.5527 -75.5781)">
					<stop  offset="0" style="stop-color:#3E899A"/>
					<stop  offset="0.9939" style="stop-color:#306C78"/>
				</linearGradient>
				<polygon fill="url(#SVGID_2_)" points="36.504,27.957 36.509,18.944 31.423,18.944 31.415,24.671 19.286,32.14 7.173,24.654 
					7.175,18.944 2.087,18.944 2.083,27.936 19.286,37.894 				"/>
			</g>
		</g>
		<g>
			<g>
				<g>
					<path fill="#424242" d="M47.852,4.203c5.062,0,8.139,2.655,8.139,7.054c0,4.428-3.078,7.083-8.139,7.083h-3.348v6.968h-4.187
						V4.203H47.852z M47.76,14.427c2.475,0,3.889-1.209,3.889-3.169c0-1.988-1.474-3.133-3.889-3.133h-3.257v6.303H47.76z"/>
					<path fill="#424242" d="M70.069,25.309l-4.189-7.208c-0.089,0-0.157,0-0.24,0h-3.199v7.208h-4.189V4.203h7.388
						c5.182,0,8.283,2.805,8.283,7.054c0,2.894-1.411,5.003-3.977,6.06l4.826,7.991H70.069z M62.441,14.364h3.735
						c2.324,0,3.407-1.508,3.407-3.106c0-1.652-1.113-3.133-3.407-3.133h-3.735V14.364z"/>
					<path fill="#424242" d="M86.935,3.785c6.057,0,10.97,4.611,10.97,10.969c0,6.364-4.914,10.977-10.97,10.977
						c-6.06,0-10.943-4.612-10.943-10.977C75.992,8.396,80.875,3.785,86.935,3.785z M86.935,21.595c3.886,0,6.6-2.799,6.6-6.841
						c0-4.064-2.713-6.842-6.6-6.842c-3.862,0-6.574,2.778-6.574,6.842C80.361,18.795,83.073,21.595,86.935,21.595z"/>
					<path fill="#424242" d="M142.319,4.203v11.942c0,6.207-3.557,9.585-9.104,9.585c-5.574,0-9.102-3.378-9.102-9.585V4.203h4.192
						v11.88c0,3.918,1.685,5.727,4.909,5.727c3.198,0,4.883-1.809,4.883-5.727V4.203H142.319z"/>
					<path fill="#424242" d="M144.947,25.309V4.203h4.19v21.105H144.947z"/>
					<path fill="#424242" d="M156.116,8.124v5.154h8.597l-1.547,3.77h-7.05v8.261h-4.19V4.203h16.514l-1.581,3.921H156.116z"/>
					<path fill="#424242" d="M177.39,21.269h-9.136l-1.562,4.04h-4.526l8.683-21.105h3.942l8.687,21.105h-4.518L177.39,21.269z
						 M175.942,17.559l-2.082-5.334c-0.449-1.175-0.996-2.926-1.026-2.926h-0.024c-0.036,0-0.574,1.751-1.027,2.926l-2.079,5.334
						H175.942z"/>
					<path fill="#424242" d="M122.4,22.745l-2.182-2.132c1.075-1.696,1.7-3.704,1.7-5.859c0-6.049-4.907-10.954-10.956-10.954
						c-6.055,0-10.962,4.905-10.962,10.954c0,6.053,4.907,10.958,10.962,10.958c2.39,0,4.596-0.766,6.396-2.062l2.124,2.081
						L122.4,22.745z M104.105,14.754c0-3.783,3.072-6.854,6.857-6.854c3.787,0,6.854,3.07,6.854,6.854
						c0,3.79-3.066,6.861-6.854,6.861C107.178,21.615,104.105,18.544,104.105,14.754z"/>
				</g>
			</g>
		</g>
	</g>
	<g>
		<path fill="#008894" d="M135.637,34.258v0.603h-3.703v-5.479h3.656v0.603h-3.014v1.691h2.419v0.571h-2.419v2.012H135.637z"/>
		<path fill="#008894" d="M140.438,34.258v0.603h-3.578v-5.479h0.643v4.877H140.438z"/>
		<path fill="#008894" d="M146.224,30.899c-0.117-0.665-0.688-1.064-1.369-1.064c-0.721,0-1.229,0.345-1.229,0.893
			c0,0.603,0.76,0.79,1.487,1.01c0.768,0.227,1.809,0.571,1.809,1.636c0,0.924-0.799,1.597-2.004,1.597
			c-1.175,0-1.918-0.688-2.09-1.612l0.618-0.164c0.078,0.634,0.603,1.197,1.495,1.197c0.813,0,1.307-0.431,1.307-1.002
			c0-0.799-0.947-0.963-1.722-1.205c-0.626-0.196-1.55-0.478-1.55-1.425c0-0.854,0.806-1.487,1.902-1.487
			c0.994,0,1.776,0.587,1.957,1.464L146.224,30.899z"/>
		<path fill="#008894" d="M151.305,33.428h-2.747l-0.61,1.433h-0.689l2.38-5.479h0.587l2.38,5.479h-0.688L151.305,33.428z
			 M151.062,32.856l-0.869-2.035c-0.117-0.282-0.25-0.665-0.258-0.665h-0.008c-0.008,0-0.142,0.383-0.259,0.665l-0.869,2.035
			H151.062z"/>
		<path fill="#008894" d="M156.968,34.258v0.603h-3.578v-5.479h0.643v4.877H156.968z"/>
		<path fill="#008894" d="M161.813,29.381l-2.341,5.479h-0.649l-2.341-5.479h0.697l1.651,3.922c0.156,0.392,0.306,0.838,0.313,0.838
			h0.008c0.008,0,0.164-0.446,0.312-0.838l1.66-3.922H161.813z"/>
		<path fill="#008894" d="M165.321,33.428h-2.747l-0.61,1.433h-0.689l2.38-5.479h0.587l2.38,5.479h-0.688L165.321,33.428z
			 M165.079,32.856l-0.869-2.035c-0.117-0.282-0.25-0.665-0.258-0.665h-0.008c-0.008,0-0.142,0.383-0.259,0.665l-0.869,2.035
			H165.079z"/>
		<path fill="#008894" d="M169.716,29.381c1.565,0,2.834,1.127,2.834,2.771c0,1.62-1.253,2.708-2.787,2.708h-2.356v-5.479H169.716z
			 M169.763,34.258c1.143,0,2.129-0.799,2.129-2.105c0-1.331-0.986-2.169-2.176-2.169h-1.667v4.274H169.763z"/>
		<path fill="#008894" d="M176.198,29.271c1.573,0,2.85,1.197,2.85,2.85c0,1.651-1.276,2.849-2.85,2.849s-2.841-1.197-2.841-2.849
			C173.357,30.469,174.625,29.271,176.198,29.271z M176.198,34.344c1.237,0,2.185-0.908,2.185-2.223
			c0-1.331-0.947-2.224-2.185-2.224c-1.244,0-2.184,0.893-2.184,2.224C174.015,33.436,174.954,34.344,176.198,34.344z"/>
		<path fill="#008894" d="M183.23,34.86l-1.237-2.051c-0.086,0.008-0.188,0.008-0.281,0.008h-1.025v2.043h-0.643v-5.479h1.668
			c1.283,0,2.051,0.673,2.051,1.73c0,0.782-0.415,1.338-1.143,1.573l1.33,2.176H183.23z M181.774,32.246
			c0.877,0,1.331-0.478,1.331-1.135c0-0.697-0.493-1.128-1.331-1.128h-1.088v2.263H181.774z"/>
	</g>
</g>
</svg>
