<?xml version="1.0" encoding="utf-8"?>
<!-- Generator: Adobe Illustrator 16.0.0, SVG Export Plug-In . SVG Version: 6.00 Build 0)  -->
<!DOCTYPE svg PUBLIC "-//W3C//DTD SVG 1.1//EN" "http://www.w3.org/Graphics/SVG/1.1/DTD/svg11.dtd" [
	<!ENTITY ns_extend "http://ns.adobe.com/Extensibility/1.0/">
	<!ENTITY ns_ai "http://ns.adobe.com/AdobeIllustrator/10.0/">
	<!ENTITY ns_graphs "http://ns.adobe.com/Graphs/1.0/">
	<!ENTITY ns_vars "http://ns.adobe.com/Variables/1.0/">
	<!ENTITY ns_imrep "http://ns.adobe.com/ImageReplacement/1.0/">
	<!ENTITY ns_sfw "http://ns.adobe.com/SaveForWeb/1.0/">
	<!ENTITY ns_custom "http://ns.adobe.com/GenericCustomNamespace/1.0/">
	<!ENTITY ns_adobe_xpath "http://ns.adobe.com/XPath/1.0/">
]>
<svg version="1.1" id="Capa_1" xmlns:x="&ns_extend;" xmlns:i="&ns_ai;" xmlns:graph="&ns_graphs;"
	 xmlns="http://www.w3.org/2000/svg" xmlns:xlink="http://www.w3.org/1999/xlink" x="0px" y="0px" width="73px" height="25px"
	 viewBox="0 0 73 25" enable-background="new 0 0 73 25" xml:space="preserve">
<metadata>
	<sfw  xmlns="&ns_sfw;">
		<slices></slices>
		<sliceSourceBounds  height="24.997" width="72.969" y="-24.999" x="0.016" bottomLeftOrigin="true"></sliceSourceBounds>
	</sfw>
</metadata>
<path fill="#70A53B" d="M72.984,12.5c0,6.902-5.225,12.498-11.67,12.498H11.686c-6.445,0-11.67-5.596-11.67-12.498l0,0
	c0-6.903,5.225-12.499,11.67-12.499h49.629C67.76,0.002,72.984,5.597,72.984,12.5L72.984,12.5z"/>
<path fill="#FFFFFF" d="M67.4,12.897c0,5.384-3.726,9.75-8.322,9.75H38.222c-4.596,0-8.321-4.365-8.321-9.75l0,0
	c0-5.385,3.726-9.75,8.321-9.75h20.856C63.675,3.147,67.4,7.512,67.4,12.897L67.4,12.897z"/>
<g>
	<g>
		<path fill="#FFFFFF" d="M16.196,17.402l-1.856-3.258h-1.229v3.258h-2.399V7.401h3.727c2.516,0,4.028,1.373,4.028,3.429
			c0,1.343-0.643,2.342-1.799,2.886l2.214,3.686H16.196z M13.111,12.016h1.656c0.857,0,1.2-0.642,1.2-1.186
			c0-0.543-0.343-1.187-1.2-1.187h-1.656V12.016z"/>
	</g>
</g>
</svg>
