<svg xmlns="http://www.w3.org/2000/svg" width="20" height="20" viewBox="0 0 20 20"><title>refrigeracion</title><g id="Layer_2" data-name="Layer 2"><g id="Capa_2" data-name="Capa 2"><circle cx="10" cy="10" r="10" style="fill:#338a9c"/><path d="M15.8,6.38a3.68056,3.68056,0,0,0-.5-.22A3.34086,3.34086,0,0,0,14.72,6,4.18025,4.18025,0,0,0,14,5.92a3.73978,3.73978,0,0,0-.9,0h-.48L12,6.16a4.95962,4.95962,0,0,0-.94.36L10,7l-.54.24-.58.22a3.21994,3.21994,0,0,1-.6.16,3.16005,3.16005,0,0,1-.6,0,2.68025,2.68025,0,0,1-.58,0H6.54a3.2402,3.2402,0,0,1-.96-.34,3.48,3.48,0,0,1-1.14-.94,2.12,2.12,0,0,1-.24-.46,3.39918,3.39918,0,0,0,.4.36,3.80008,3.80008,0,0,0,1.2.64,3.52037,3.52037,0,0,0,.86.16h.98a5.22047,5.22047,0,0,0,1.02-.26l.5-.26.52-.26,1.1-.48A4.57973,4.57973,0,0,1,12,5.48a4.68029,4.68029,0,0,1,.56-.1h.48a3.65967,3.65967,0,0,1,.52,0l.44.08a3.04015,3.04015,0,0,1,.8.26,3.53988,3.53988,0,0,1,.56.3,2.76031,2.76031,0,0,1,.32.26Z" style="fill:#fff"/><path d="M15.8,9.84a3.68056,3.68056,0,0,0-.5-.22,3.18,3.18,0,0,0-.58-.16,4.0002,4.0002,0,0,0-.76,0,3.73978,3.73978,0,0,0-.9,0h-.48L12,9.62a4.96043,4.96043,0,0,0-1.02.36l-.98.54-.54.24-.56.16a3.3801,3.3801,0,0,1-.6.16,3.23972,3.23972,0,0,1-.6,0,2.5602,2.5602,0,0,1-.58,0H6.56a3.22006,3.22006,0,0,1-.96-.34A3.48,3.48,0,0,1,4.46,9.8a2.11976,2.11976,0,0,1-.26-.46,3.34036,3.34036,0,0,0,.4.36,3.78,3.78,0,0,0,1.2.64,3.52025,3.52025,0,0,0,.86.18h.98a5.16008,5.16008,0,0,0,1.02-.26l.5-.2.52-.26,1.1-.48A4.62028,4.62028,0,0,1,12,8.94a4.84146,4.84146,0,0,1,.56-.1h.48a3.63906,3.63906,0,0,1,.52,0l.44.08a3.07975,3.07975,0,0,1,.8.26,3.48082,3.48082,0,0,1,.56.3,2.66114,2.66114,0,0,1,.32.26Z" style="fill:#fff"/><path d="M15.8,13.3a3.68056,3.68056,0,0,0-.5-.22,3.26041,3.26041,0,0,0-.56-.16,4.10005,4.10005,0,0,0-.76,0,3.70024,3.70024,0,0,0-.9,0H12.6l-.6.16a4.90027,4.90027,0,0,0-1.02.36l-.98.48-.54.24-.58.22a3.3801,3.3801,0,0,1-.6.16,3.16005,3.16005,0,0,1-.6,0,2.5602,2.5602,0,0,1-.58,0l-.52-.02a3.20017,3.20017,0,0,1-.96-.34,3.48,3.48,0,0,1-1.14-.94,2.1199,2.1199,0,0,1-.28-.44,3.33951,3.33951,0,0,0,.4.36,3.78,3.78,0,0,0,1.2.64,3.5199,3.5199,0,0,0,.86.16h.98a5.16008,5.16008,0,0,0,1.02-.26l.5-.2.52-.26,1.1-.52A4.6198,4.6198,0,0,1,12,12.4a4.68029,4.68029,0,0,1,.56-.1h.48a3.63906,3.63906,0,0,1,.52,0l.44.08a3.04015,3.04015,0,0,1,.8.26,3.45974,3.45974,0,0,1,.56.3,2.53883,2.53883,0,0,1,.32.26Z" style="fill:#fff"/></g></g></svg>