<?xml version="1.0" encoding="UTF-8"?>
<svg width="21px" height="21px" viewBox="0 0 21 21" version="1.1" xmlns="http://www.w3.org/2000/svg" xmlns:xlink="http://www.w3.org/1999/xlink">
    <!-- Generator: Sketch 48.2 (47327) - http://www.bohemiancoding.com/sketch -->
    <title>refrigeracion</title>
    <desc>Created with Sketch.</desc>
    <g id="Page-1" stroke="none" stroke-width="1" fill="none" fill-rule="evenodd">
        <g id="refrigeracion" fill-rule="nonzero">
            <circle id="Oval" fill="#808080" cx="10.5" cy="10.5" r="10.5"></circle>
            <path d="M16.59,6.699 C16.4209645,6.60909988 16.2454812,6.53188721 16.065,6.468 C15.8674676,6.39379269 15.6636408,6.33756462 15.456,6.3 C15.2069057,6.2501747 14.953956,6.22206918 14.7,6.216 C14.3861484,6.17796075 14.0688516,6.17796075 13.755,6.216 L13.251,6.216 L12.6,6.468 C12.2591224,6.56047848 11.9284472,6.68712005 11.613,6.846 L10.5,7.35 L9.933,7.602 L9.324,7.833 C9.11990272,7.90916544 8.90892192,7.96542698 8.694,8.001 C8.48447533,8.02098183 8.27352467,8.02098183 8.064,8.001 C7.86159775,8.0230311 7.65740225,8.0230311 7.455,8.001 L6.867,8.001 C6.4998289,7.94023401 6.1451167,7.81963186 5.817,7.644 C5.35194996,7.40447465 4.94375025,7.06788893 4.62,6.657 C4.5165411,6.50692504 4.43190743,6.34471051 4.368,6.174 C4.49779294,6.31089895 4.63823272,6.43729476 4.788,6.552 C5.16417239,6.84994686 5.59100691,7.07759195 6.048,7.224 C6.35623953,7.3066205 6.67388137,7.34897275 6.993,7.35 L8.043,7.35 C8.40116715,7.2939487 8.75288973,7.20250082 9.093,7.077 L9.618,6.804 L10.164,6.531 L11.319,6.027 C11.7315515,5.87800541 12.162548,5.78615371 12.6,5.754 C12.7936896,5.70710936 12.9900522,5.67204461 13.188,5.649 L13.65,5.649 C13.8317698,5.63605469 14.0142302,5.63605469 14.196,5.649 L14.658,5.733 C14.9494318,5.78409805 15.2322109,5.87600128 15.498,6.006 C15.7030447,6.09316498 15.8998369,6.1985894 16.086,6.321 C16.20465,6.4034953 16.3169633,6.49474986 16.422,6.594 L16.59,6.699 Z" id="Shape" fill="#FFFFFF"></path>
            <path d="M16.59,10.332 C16.4209645,10.2420999 16.2454812,10.1648872 16.065,10.101 C15.8677658,10.0258786 15.6638534,9.96962692 15.456,9.933 C15.1906029,9.90767273 14.9233971,9.90767273 14.658,9.933 C14.3441484,9.89496075 14.0268516,9.89496075 13.713,9.933 L13.209,9.933 L12.6,10.101 C12.2367383,10.1960677 11.884724,10.3298331 11.55,10.5 L10.5,11.067 L9.933,11.319 L9.345,11.487 C9.14059988,11.5622126 8.92971012,11.6184499 8.715,11.655 C8.50545204,11.6744863 8.29454796,11.6744863 8.085,11.655 C7.88265547,11.6780703 7.67834453,11.6780703 7.476,11.655 L6.888,11.655 C6.52073572,11.5946057 6.16596399,11.4739834 5.838,11.298 C5.38605549,11.04745 4.99239316,10.7038901 4.683,10.29 C4.57221357,10.1410149 4.48050139,9.9787549 4.41,9.807 C4.53960495,9.94409174 4.68006073,10.0705019 4.83,10.185 C5.20591818,10.4833347 5.63282642,10.7110191 6.09,10.857 C6.381925,10.9574668 6.68528771,11.0209614 6.993,11.046 L8.043,11.046 C8.40125241,10.9903598 8.75301549,10.8989014 9.093,10.773 L9.618,10.563 L10.164,10.29 L11.319,9.786 C11.7254572,9.59430664 12.1565798,9.46002256 12.6,9.387 C12.7937719,9.3405021 12.9901109,9.30544156 13.188,9.282 L13.65,9.282 C13.8317673,9.26898338 14.0142327,9.26898338 14.196,9.282 L14.658,9.366 C14.9491675,9.41815593 15.2318028,9.51001241 15.498,9.639 C15.7031943,9.72585246 15.9000142,9.8312917 16.086,9.954 C16.2048946,10.0361696 16.317232,10.1274438 16.422,10.227 L16.59,10.332 Z" id="Shape" fill="#FFFFFF"></path>
            <path d="M16.59,13.965 C16.4209645,13.8750999 16.2454812,13.7978872 16.065,13.734 C15.8744049,13.6605691 15.6776198,13.6043448 15.477,13.566 C15.2115737,13.5412932 14.9444263,13.5412932 14.679,13.566 C14.3651736,13.5275465 14.0478264,13.5275465 13.734,13.566 L13.23,13.566 L12.6,13.734 C12.2373299,13.8215569 11.8852594,13.9483023 11.55,14.112 L10.5,14.616 L9.933,14.868 L9.324,15.099 C9.11959988,15.1742126 8.90871012,15.2304499 8.694,15.267 C8.48447533,15.2869818 8.27352467,15.2869818 8.064,15.267 C7.86165547,15.2900703 7.65734453,15.2900703 7.455,15.267 L6.909,15.267 C6.54164154,15.2069823 6.18680914,15.0863393 5.859,14.91 C5.39394996,14.6704747 4.98575025,14.3338889 4.662,13.923 C4.54535873,13.7816873 4.4466117,13.6265134 4.368,13.461 C4.49760495,13.5980917 4.63806073,13.7245019 4.788,13.839 C5.16391818,14.1373347 5.59082642,14.3650191 6.048,14.511 C6.34084377,14.6043285 6.64418551,14.6607642 6.951,14.679 L8.001,14.679 C8.35925241,14.6233598 8.71101549,14.5319014 9.051,14.406 L9.576,14.196 L10.122,13.923 L11.277,13.377 C11.6988861,13.1959984 12.1443292,13.0757995 12.6,13.02 C12.7936896,12.9731094 12.9900522,12.9380446 13.188,12.915 L13.65,12.915 C13.8317673,12.9019834 14.0142327,12.9019834 14.196,12.915 L14.658,12.999 C14.9494318,13.0500981 15.2322109,13.1420013 15.498,13.272 C15.7032453,13.3587458 15.9000747,13.4641902 16.086,13.587 C16.205213,13.6687443 16.3175831,13.760045 16.422,13.86 L16.59,13.965 Z" id="Shape" fill="#FFFFFF"></path>
        </g>
    </g>
</svg>