<?xml version="1.0" encoding="utf-8"?>
<!-- Generator: Adobe Illustrator 16.0.0, SVG Export Plug-In . SVG Version: 6.00 Build 0)  -->
<!DOCTYPE svg PUBLIC "-//W3C//DTD SVG 1.1//EN" "http://www.w3.org/Graphics/SVG/1.1/DTD/svg11.dtd" [
	<!ENTITY ns_extend "http://ns.adobe.com/Extensibility/1.0/">
	<!ENTITY ns_ai "http://ns.adobe.com/AdobeIllustrator/10.0/">
	<!ENTITY ns_graphs "http://ns.adobe.com/Graphs/1.0/">
	<!ENTITY ns_vars "http://ns.adobe.com/Variables/1.0/">
	<!ENTITY ns_imrep "http://ns.adobe.com/ImageReplacement/1.0/">
	<!ENTITY ns_sfw "http://ns.adobe.com/SaveForWeb/1.0/">
	<!ENTITY ns_custom "http://ns.adobe.com/GenericCustomNamespace/1.0/">
	<!ENTITY ns_adobe_xpath "http://ns.adobe.com/XPath/1.0/">
]>
<svg version="1.1" id="Capa_1" xmlns:x="&ns_extend;" xmlns:i="&ns_ai;" xmlns:graph="&ns_graphs;"
	 xmlns="http://www.w3.org/2000/svg" xmlns:xlink="http://www.w3.org/1999/xlink" x="0px" y="0px" width="25px" height="25px"
	 viewBox="0 0 25 25" enable-background="new 0 0 25 25" xml:space="preserve">
<metadata>
	<sfw  xmlns="&ns_sfw;">
		<slices></slices>
		<sliceSourceBounds  height="24.998" width="25" y="-25.02" x="0" bottomLeftOrigin="true"></sliceSourceBounds>
	</sfw>
</metadata>
<g>
	<g>
		<path fill="#70A53B" d="M14.369,17.683l-1.953-3.427h-1.293v3.427H8.598V7.161h3.922c2.646,0,4.238,1.443,4.238,3.608
			c0,1.413-0.676,2.464-1.893,3.036l2.33,3.878H14.369z M11.123,12.016h1.742c0.902,0,1.264-0.676,1.264-1.247
			S13.768,9.52,12.865,9.52h-1.742V12.016z"/>
	</g>
	<path fill="#70A53B" d="M12.498,0.022C5.598,0.022,0,5.618,0,12.521S5.598,25.02,12.498,25.02C19.402,25.02,25,19.425,25,12.521
		S19.402,0.022,12.498,0.022z M12.498,22.47c-5.492,0-9.947-4.453-9.947-9.948c0-5.494,4.455-9.95,9.947-9.95
		c5.496,0,9.951,4.457,9.951,9.95C22.449,18.017,17.994,22.47,12.498,22.47z"/>
</g>
</svg>
