<svg xmlns="http://www.w3.org/2000/svg" xmlns:xlink="http://www.w3.org/1999/xlink" width="22.00782" height="30.41662" viewBox="0 0 22.00782 30.41662"><defs><clipPath id="clip-path" transform="translate(0 -0.03285)"><rect width="21.99468" height="30.52846" style="fill:none"/></clipPath></defs><title>revision</title><g id="Layer_2" data-name="Layer 2"><g id="Layer_2-2" data-name="Layer 2"><g style="clip-path:url(#clip-path)"><path d="M19.93851,2.13525h-3.7929a1.546,1.546,0,0,0-1.4627-1.0512H13.07872a2.57318,2.57318,0,0,0-4.14962,0H7.32491a1.546,1.546,0,0,0-1.4627,1.0512H2.06931A2.07168,2.07168,0,0,0,0,4.20456V28.38016a2.07168,2.07168,0,0,0,2.06931,2.06931h17.8692a2.07168,2.07168,0,0,0,2.06931-2.06931V4.20456a2.07168,2.07168,0,0,0-2.06931-2.06931ZM5.86221,5.22267a1.546,1.546,0,0,0,1.4627,1.0512h7.358a1.546,1.546,0,0,0,1.4627-1.0512H18.92V27.362H3.08783V5.22267Zm1.4627-3.1532h1.8682a.49291.49291,0,0,0,.426-.24513,1.59249,1.59249,0,0,1,2.76954,0,.49278.49278,0,0,0,.4257.24513h1.86853a.55913.55913,0,0,1,.55849.55849V4.72872L15.24107,4.73v.00066a.55892.55892,0,0,1-.55816.55783h-7.358a.55949.55949,0,0,1-.55849-.55718L6.76675,4.73l-.00033-.00255V2.628a.55913.55913,0,0,1,.55849-.55849ZM21.0224,28.38016" transform="translate(0 -0.03285)" style="fill:#008693"/></g><path d="M11.00391,4.17147a.49263.49263,0,0,0,.49271-.49271V2.628a.49271.49271,0,1,0-.98542,0V3.67876a.49263.49263,0,0,0,.49271.49271Zm0,0" transform="translate(0 -0.03285)" style="fill:#008693"/><path d="M11.52931,11.00408h3.15361a.49271.49271,0,0,0,0-.98542H11.52931a.49271.49271,0,0,0,0,.98542Zm0,0" transform="translate(0 -0.03285)" style="fill:#008693"/><path d="M11.52931,13.10607h5.2556a.49271.49271,0,1,0,0-.98542h-5.2556a.49271.49271,0,0,0,0,.98542Zm0,0" transform="translate(0 -0.03285)" style="fill:#008693"/><path d="M6.45116,12.9617a.49246.49246,0,0,0,.6967,0l2.6278-2.6278A.49264.49264,0,0,0,9.079,9.63721L6.79951,11.91666,5.57126,10.68841a.49267.49267,0,1,0-.69678.69669Zm0,0" transform="translate(0 -0.03285)" style="fill:#008693"/><path d="M11.52931,16.25968h3.15361a.49271.49271,0,0,0,0-.98542H11.52931a.49271.49271,0,0,0,0,.98542Zm0,0" transform="translate(0 -0.03285)" style="fill:#008693"/><path d="M11.52931,18.36167h5.2556a.49271.49271,0,0,0,0-.98543h-5.2556a.49271.49271,0,0,0,0,.98543Zm0,0" transform="translate(0 -0.03285)" style="fill:#008693"/><path d="M6.45116,18.2173a.49246.49246,0,0,0,.6967,0l2.6278-2.6278a.49264.49264,0,0,0-.69669-.69669L6.79951,17.17226,5.57126,15.944a.49267.49267,0,1,0-.69678.69669Zm0,0" transform="translate(0 -0.03285)" style="fill:#008693"/><path d="M11.52931,21.51528h3.15361a.49271.49271,0,0,0,0-.98542H11.52931a.49271.49271,0,0,0,0,.98542Zm0,0" transform="translate(0 -0.03285)" style="fill:#008693"/><path d="M11.52931,23.61727h5.2556a.49271.49271,0,1,0,0-.98542h-5.2556a.49271.49271,0,0,0,0,.98542Zm0,0" transform="translate(0 -0.03285)" style="fill:#008693"/><path d="M6.45116,23.4729a.49246.49246,0,0,0,.6967,0l2.6278-2.6278a.49264.49264,0,0,0-.69669-.6967L6.79951,22.42786,5.57126,21.19961a.49267.49267,0,0,0-.69678.6967Zm0,0" transform="translate(0 -0.03285)" style="fill:#008693"/></g></g></svg>