<?xml version="1.0" encoding="utf-8"?>
<!-- Generator: Adobe Illustrator 20.0.0, SVG Export Plug-In . SVG Version: 6.00 Build 0)  -->
<svg version="1.1" id="Capa_1" xmlns="http://www.w3.org/2000/svg" xmlns:xlink="http://www.w3.org/1999/xlink" x="0px" y="0px"
	 viewBox="0 0 44 35" style="enable-background:new 0 0 44 35;" xml:space="preserve">
<style type="text/css">
	.st0{fill:#FFFFFF;}
</style>
<g>
	<g>
		<path class="st0" d="M16.9,0c5.4,0,9.8,4.4,9.8,9.8c0,5.4-4.4,9.8-9.8,9.8c-5.4,0-9.8-4.4-9.8-9.8C7.1,4.4,11.4,0,16.9,0"/>
		<path class="st0" d="M24.5,19.4c-1.8,1.6-4,2.6-6.5,2.9l2.1,2.1l-3.2,9.9l-3.3-10l2.2-2C13.3,22,11,21,9.2,19.4
			C3.8,22.3,0,28.2,0,35h33.7C33.7,28.2,29.9,22.3,24.5,19.4z"/>
	</g>
	<g>
		<path class="st0" d="M42.9,10.2c-0.7-1.3-1.7-2.3-3-3c-1.3-0.7-2.6-1.1-4.1-1.1c-1.5,0-2.9,0.4-4.1,1.1c-1.3,0.7-2.3,1.7-3,3
			c-0.7,1.3-1.1,2.6-1.1,4.1c0,1.5,0.4,2.9,1.1,4.1c0.7,1.3,1.7,2.3,3,3c1.3,0.7,2.6,1.1,4.1,1.1c1.5,0,2.9-0.4,4.1-1.1
			c1.3-0.7,2.3-1.7,3-3c0.7-1.3,1.1-2.6,1.1-4.1C44,12.9,43.7,11.5,42.9,10.2L42.9,10.2z M37.2,19.5c0,0.1,0,0.2-0.1,0.3
			c-0.1,0.1-0.1,0.1-0.2,0.1h-2.1c-0.1,0-0.2,0-0.2-0.1c-0.1-0.1-0.1-0.2-0.1-0.2v-2c0-0.1,0-0.2,0.1-0.2c0.1-0.1,0.2-0.1,0.2-0.1
			h2.1c0.1,0,0.2,0,0.2,0.1c0.1,0.1,0.1,0.2,0.1,0.3V19.5z M37.1,15.8c0,0.1,0,0.1-0.1,0.2c-0.1,0.1-0.2,0.1-0.3,0.1h-2
			c-0.1,0-0.2,0-0.3-0.1c-0.1-0.1-0.1-0.1-0.1-0.2l-0.2-6.7c0-0.1,0-0.1,0.1-0.2c0.1-0.1,0.2-0.1,0.3-0.1H37c0.1,0,0.2,0,0.3,0.1
			c0.1,0,0.1,0.1,0.1,0.2L37.1,15.8z M37.1,15.8"/>
	</g>
</g>
</svg>
