<?xml version="1.0" encoding="utf-8"?>
<!-- Generator: Adobe Illustrator 16.0.0, SVG Export Plug-In . SVG Version: 6.00 Build 0)  -->
<!DOCTYPE svg PUBLIC "-//W3C//DTD SVG 1.1//EN" "http://www.w3.org/Graphics/SVG/1.1/DTD/svg11.dtd">
<svg version="1.1" id="Capa_1" xmlns="http://www.w3.org/2000/svg" xmlns:xlink="http://www.w3.org/1999/xlink" x="0px" y="0px"
	 width="200px" height="64px" viewBox="0 0 200 64" enable-background="new 0 0 200 64" xml:space="preserve">
<g>
	<g>
		<polygon fill="#424242" points="40.215,21.602 23.431,21.602 37.528,0.667 92.373,0.667 78.662,21.602 63.42,21.602 
			52.011,38.518 28.065,38.463 		"/>
		<polygon fill="#424242" points="72.481,37.973 96.241,0.667 120.566,0.667 120.566,16.696 131.723,0.667 156.68,0.667 
			131.723,38.518 103.573,37.973 103.573,24.035 93.338,37.973 		"/>
		<polygon fill="#424242" points="161.893,0.281 136.788,38.463 184.478,38.463 199.55,19.371 174.832,19.371 186.611,0.281 		"/>
	</g>
	<g>
		<polygon fill="#FFA300" points="8.476,43.539 0.451,55.896 55.295,55.896 63.42,43.539 		"/>
		<g>
			<g>
				<path fill="#424242" d="M64.286,51.711l-1.742,2.473h11.602l-1.745,2.472h-14.5l8.712-12.362h14.501l-1.744,2.472H67.771
					l-1.742,2.472h11.678l-1.745,2.475H64.286z"/>
				<path fill="#424242" d="M96.332,56.655h-2.899l8.712-12.362h13.054c0.874,0,1.416,0.225,1.628,0.675
					c0.21,0.453,0.055,1.053-0.473,1.797l-1.74,2.472c-0.525,0.747-1.212,1.344-2.057,1.796c-0.843,0.452-1.707,0.679-2.586,0.679
					H99.816L96.332,56.655z M112.585,48.001c0.32-0.455,0.41-0.774,0.271-0.96c-0.135-0.185-0.419-0.276-0.853-0.276h-8.703
					l-1.739,2.472h8.699c0.435,0,0.848-0.091,1.245-0.277C111.901,48.777,112.264,48.458,112.585,48.001z"/>
				<path fill="#424242" d="M123.753,51.711h-6.533l-3.485,4.944h-2.899l8.713-12.362h13.053c0.873,0,1.415,0.225,1.626,0.675
					c0.213,0.453,0.056,1.053-0.47,1.797l-1.741,2.472c-0.525,0.747-1.212,1.344-2.058,1.796c-0.842,0.452-1.705,0.679-2.585,0.679
					h-0.047l-0.538,4.944h-3.621L123.753,51.711z M129.987,48.001c0.319-0.455,0.409-0.774,0.272-0.96
					c-0.136-0.185-0.419-0.276-0.853-0.276h-8.703l-1.741,2.472h8.7c0.434,0,0.847-0.091,1.246-0.277
					C129.305,48.777,129.664,48.458,129.987,48.001z"/>
				<path fill="#424242" d="M134.62,51.711l-1.74,2.473h11.602l-1.744,2.472h-14.501l8.715-12.362h14.499l-1.741,2.472h-11.604
					l-1.739,2.472h11.875l-2.126,2.475H134.62z"/>
				<path fill="#424242" d="M150.289,48.001l0.869-1.236c0.527-0.744,1.215-1.344,2.062-1.797c0.848-0.45,1.711-0.675,2.583-0.675
					h10.152c0.873,0,1.417,0.225,1.626,0.675c0.211,0.453,0.057,1.053-0.469,1.797l-0.87,1.236h-2.901
					c0.275-0.389,0.38-0.692,0.315-0.911c-0.064-0.216-0.362-0.325-0.896-0.325h-7.248c-0.537,0-0.989,0.109-1.355,0.325
					c-0.371,0.219-0.693,0.522-0.966,0.911H150.289z M156.839,51.711h-6.263c-0.875,0-1.416-0.227-1.632-0.679
					c-0.209-0.452-0.051-1.049,0.474-1.796l0.871-1.235h2.901c-0.275,0.39-0.382,0.691-0.316,0.912
					c0.062,0.217,0.358,0.323,0.894,0.323h4.815L156.839,51.711z M149.705,52.947c-0.275,0.39-0.382,0.693-0.317,0.909
					c0.062,0.217,0.361,0.327,0.896,0.327h7.25c0.534,0,0.985-0.11,1.354-0.327c0.371-0.216,0.693-0.52,0.969-0.909h2.901
					l-0.875,1.236c-0.525,0.744-1.21,1.343-2.06,1.795c-0.848,0.451-1.709,0.677-2.582,0.677H147.09
					c-0.873,0-1.417-0.226-1.629-0.677c-0.211-0.452-0.054-1.051,0.471-1.795l0.872-1.236H149.705z M156.203,49.236h6.267
					c0.874,0,1.415,0.227,1.627,0.678c0.212,0.453,0.056,1.051-0.47,1.797l-0.869,1.236h-2.901c0.272-0.391,0.378-0.692,0.315-0.911
					c-0.064-0.216-0.363-0.325-0.896-0.325h-4.813L156.203,49.236z"/>
				<path fill="#424242" d="M167.688,48.001l0.872-1.236c0.526-0.744,1.215-1.344,2.061-1.797c0.849-0.45,1.712-0.675,2.584-0.675
					h10.151c0.873,0,1.416,0.225,1.627,0.675c0.212,0.453,0.057,1.053-0.469,1.797l-0.87,1.236h-2.902
					c0.276-0.389,0.381-0.692,0.317-0.911c-0.065-0.216-0.364-0.325-0.898-0.325h-7.247c-0.537,0-0.988,0.109-1.358,0.325
					c-0.369,0.219-0.691,0.522-0.965,0.911H167.688z M174.241,51.711h-6.265c-0.873,0-1.415-0.227-1.63-0.679
					c-0.211-0.452-0.051-1.049,0.473-1.796l0.869-1.235h2.902c-0.274,0.39-0.38,0.691-0.315,0.912
					c0.062,0.217,0.36,0.323,0.893,0.323h4.818L174.241,51.711z M167.106,52.947c-0.275,0.39-0.381,0.693-0.314,0.909
					c0.059,0.217,0.358,0.327,0.893,0.327h7.251c0.534,0,0.985-0.11,1.355-0.327c0.37-0.216,0.692-0.52,0.967-0.909h2.9
					l-0.873,1.236c-0.525,0.744-1.209,1.343-2.06,1.795c-0.847,0.451-1.71,0.677-2.582,0.677h-10.151
					c-0.872,0-1.417-0.226-1.63-0.677c-0.21-0.452-0.052-1.051,0.474-1.795l0.868-1.236H167.106z M173.606,49.236h6.266
					c0.873,0,1.415,0.227,1.627,0.678c0.211,0.453,0.057,1.051-0.47,1.797l-0.871,1.236h-2.9c0.273-0.391,0.381-0.692,0.315-0.911
					c-0.064-0.216-0.363-0.325-0.896-0.325h-4.812L173.606,49.236z"/>
			</g>
			<polygon fill="#FFA300" points="85.034,42.753 86,48.077 61.861,63.719 67.269,63.719 87.545,51.456 89.09,55.896 93.53,55.896 
				91.89,49.718 102.285,42.753 98.07,42.753 89.959,47.208 89.282,42.753 			"/>
		</g>
	</g>
</g>
</svg>
