<?xml version="1.0" encoding="utf-8"?>
<!-- Generator: Adobe Illustrator 16.0.0, SVG Export Plug-In . SVG Version: 6.00 Build 0)  -->
<!DOCTYPE svg PUBLIC "-//W3C//DTD SVG 1.1//EN" "http://www.w3.org/Graphics/SVG/1.1/DTD/svg11.dtd">
<svg version="1.1" id="Capa_1" xmlns="http://www.w3.org/2000/svg" xmlns:xlink="http://www.w3.org/1999/xlink" x="0px" y="0px"
	 width="73.5px" height="25px" viewBox="0 0 73.5 25" enable-background="new 0 0 73.5 25" xml:space="preserve">
<path fill="#008895" d="M73.333,12.5c0,6.902-5.251,12.499-11.729,12.499H11.729C5.251,24.999,0,19.402,0,12.5l0,0
	C0,5.598,5.251,0.001,11.729,0.001h49.876C68.082,0.001,73.333,5.598,73.333,12.5L73.333,12.5z"/>
<path fill="#FFFFFF" d="M68.333,12.896c0,5.385-3.726,9.75-8.322,9.75H39.154c-4.596,0-8.321-4.365-8.321-9.75l0,0
	c0-5.384,3.726-9.75,8.321-9.75h20.856C64.607,3.146,68.333,7.513,68.333,12.896L68.333,12.896z"/>
<g>
	<path fill="#FFFFFF" d="M21.03,7.474v5.544c0,2.993-1.767,4.632-4.404,4.632c-2.651,0-4.404-1.639-4.404-4.632V7.474h2.394v5.487
		c0,1.71,0.699,2.451,2.01,2.451c1.312,0,2.01-0.741,2.01-2.451V7.474H21.03z"/>
</g>
</svg>
