<?xml version="1.0" encoding="utf-8"?>
<!-- Generator: Adobe Illustrator 16.0.0, SVG Export Plug-In . SVG Version: 6.00 Build 0)  -->
<!DOCTYPE svg PUBLIC "-//W3C//DTD SVG 1.1//EN" "http://www.w3.org/Graphics/SVG/1.1/DTD/svg11.dtd">
<svg version="1.1" id="Capa_1" xmlns="http://www.w3.org/2000/svg" xmlns:xlink="http://www.w3.org/1999/xlink" x="0px" y="0px"
	 width="20px" height="20px" viewBox="0 0 20 20" enable-background="new 0 0 20 20" xml:space="preserve">
<g>
	<path fill="#008895" d="M9.998,0.001c-5.52,0-9.999,4.477-9.999,10c0,5.521,4.479,9.998,9.999,9.998
		c5.523,0,10.002-4.477,10.002-9.998C20,4.478,15.521,0.001,9.998,0.001z M9.998,17.959c-4.393,0-7.958-3.562-7.958-7.958
		s3.564-7.96,7.958-7.96c4.398,0,7.961,3.564,7.961,7.96S14.396,17.959,9.998,17.959z"/>
	<g>
		<path fill="#008895" d="M13.616,6.658v4.458c0,2.406-1.407,3.725-3.508,3.725c-2.112,0-3.508-1.318-3.508-3.725V6.658h1.908v4.412
			c0,1.375,0.556,1.971,1.601,1.971c1.044,0,1.601-0.596,1.601-1.971V6.658H13.616z"/>
	</g>
</g>
</svg>
