<?xml version="1.0" encoding="utf-8"?>
<!-- Generator: Adobe Illustrator 16.0.0, SVG Export Plug-In . SVG Version: 6.00 Build 0)  -->
<!DOCTYPE svg PUBLIC "-//W3C//DTD SVG 1.1//EN" "http://www.w3.org/Graphics/SVG/1.1/DTD/svg11.dtd">
<svg version="1.1" id="Capa_1" xmlns="http://www.w3.org/2000/svg" xmlns:xlink="http://www.w3.org/1999/xlink" x="0px" y="0px"
	 width="50px" height="30px" viewBox="0 0 50 30" enable-background="new 0 0 50 30" xml:space="preserve">
<rect x="0.021" fill="#C2C3C9" width="49.959" height="30"/>
<g>
	<path fill="#FFFFFF" d="M19.78,7.852l-4.572,11.899H12.13L7.558,7.852h3.128l2.295,6.562c0.459,1.326,0.662,2.176,0.68,2.176h0.017
		c0.018,0,0.222-0.851,0.681-2.176l2.294-6.562H19.78z"/>
	<path fill="#FFFFFF" d="M29.691,17.082v2.669h-8.754V7.852h8.651v2.669h-5.795v1.955h4.538v2.499h-4.538v2.107H29.691z"/>
	<path fill="#FFFFFF" d="M38.736,19.751l-2.211-3.875h-1.461v3.875h-2.855V7.852h4.436c2.992,0,4.793,1.632,4.793,4.08
		c0,1.598-0.764,2.788-2.141,3.434l2.635,4.386L38.736,19.751L38.736,19.751z M35.064,13.343h1.971c1.02,0,1.428-0.765,1.428-1.411
		s-0.408-1.411-1.428-1.411h-1.971V13.343z"/>
</g>
</svg>
