<svg xmlns="http://www.w3.org/2000/svg" xmlns:xlink="http://www.w3.org/1999/xlink" width="30.01245" height="26.16468" viewBox="0 0 30.01245 26.16468"><defs><clipPath id="clip-path" transform="translate(-0.00018 -0.03307)"><rect width="30.14456" height="26.37107" style="fill:none"/></clipPath></defs><title>visita</title><g id="Layer_2" data-name="Layer 2"><g id="Layer_2-2" data-name="Layer 2"><g style="clip-path:url(#clip-path)"><path d="M29.57221,9.71385,20.33059.47223A1.50547,1.50547,0,0,0,18.20294.4744L16.78047,1.89614A1.502,1.502,0,0,0,16.7783,4.0238l.41657.41656a17.14283,17.14283,0,0,0-2.003.95241c-.823-.62765-1.49295-1.12464-1.90952-1.43042a1.50247,1.50247,0,0,0-.05223-2.06548L11.8077.47368A1.50832,1.50832,0,0,0,9.67987.47223L.43916,9.71385a1.50612,1.50612,0,0,0,.002,2.12765L1.86361,13.264a1.495,1.495,0,0,0,2.06349.05367c.33054.45542.87326,1.19385,1.52006,2.0438L3.99361,16.815a.50241.50241,0,0,0,0,.71006L5.76975,19.3012l.71006.711.00072-.00072L7.5459,21.07752l4.97277,4.97258a.50154.50154,0,0,0,.71078,0l1.55313-1.55241c.94446.70536,1.63283,1.198,1.70693,1.251a.50109.50109,0,0,0,.64735-.05367L23.885,18.947l.00072-.00073.00072-.00072,1.77542-1.77542a.50294.50294,0,0,0,.05367-.64753c-.05656-.079-.61138-.85338-1.39066-1.89325L25.34221,12.587l.67771.67844a1.50547,1.50547,0,0,0,2.12765-.00217L29.57,11.84149a1.50241,1.50241,0,0,0,.00217-2.12765ZM5.05952,17.17011l1.00464-1.00465c.4059.523.8315,1.061,1.25873,1.58277l-.84235.84289Zm3.19662,3.19716L7.19077,19.3012l.778-.77783c.34807.4088.6862.78922,1.00445,1.12663Zm2.13127,2.13054-1.42048-1.4203.71656-.71729c.44187.41657.96018.86837,1.51283,1.32922Zm2.4862,2.48711-1.77542-1.77614L11.977,22.329c.67572.54434,1.36247,1.07729,1.995,1.558ZM24.649,16.762l-1.119,1.11813L18.913,13.26252a.50241.50241,0,0,0-.71079.71024l4.61765,4.61765-1.42048,1.421-4.61765-4.61765a.50241.50241,0,1,0-.71078.71024l4.61819,4.61765-1.421,1.421-4.61764-4.61836a.50266.50266,0,0,0-.71078.711l4.61837,4.61765L16.72878,24.682A72.124,72.124,0,0,1,10.033,19.3012a47.44055,47.44055,0,0,1-3.46283-4.12753.49141.49141,0,0,0-.08964-.13481c-.00849-.0085-.019-.01067-.02819-.01844-.78777-1.03066-1.457-1.942-1.8009-2.415L12.57017,4.686c.34934.25554.94518.69614,1.69355,1.26307A14.567,14.567,0,0,0,11.84927,7.8777a24.114,24.114,0,0,0-2.42548,2.68681c-.21181.29783-.70681.99543-.23368,1.46692.11006.11078.31627.31627,2.27657.50043q.02331.00217.04663.00216a.50818.50818,0,0,0,.214-.04735,11.13683,11.13683,0,0,1,3.70481-1.15409c1.15211.12922,2.85831-.82663,3.78235-1.34765a.44118.44118,0,0,0,.05367.08114A72.20383,72.20383,0,0,1,24.649,16.762Zm-9.10264-6.42777c-1.14561-.13192-3.49645.89874-4.11976,1.18392-.47024-.04808-.98982-.11783-1.3153-.18217a18.75668,18.75668,0,0,1,2.449-2.74825,15.44766,15.44766,0,0,1,5.41536-3.36741l6.61752,6.6177-.94518,1.89759a49.43261,49.43261,0,0,0-3.66958-4.38054.50377.50377,0,0,0-.21886-.12072.46982.46982,0,0,0-.0318-.103.50114.50114,0,0,0-.67988-.204c-.08313.04446-.189.10446-.3141.17512m10.12554,2.02825" transform="translate(-0.00018 -0.03307)" style="fill:#008693"/></g></g></g></svg>