<?xml version="1.0" encoding="utf-8"?>
<!-- Generator: Adobe Illustrator 16.0.0, SVG Export Plug-In . SVG Version: 6.00 Build 0)  -->
<!DOCTYPE svg PUBLIC "-//W3C//DTD SVG 1.1//EN" "http://www.w3.org/Graphics/SVG/1.1/DTD/svg11.dtd" [
	<!ENTITY ns_extend "http://ns.adobe.com/Extensibility/1.0/">
	<!ENTITY ns_ai "http://ns.adobe.com/AdobeIllustrator/10.0/">
	<!ENTITY ns_graphs "http://ns.adobe.com/Graphs/1.0/">
	<!ENTITY ns_vars "http://ns.adobe.com/Variables/1.0/">
	<!ENTITY ns_imrep "http://ns.adobe.com/ImageReplacement/1.0/">
	<!ENTITY ns_sfw "http://ns.adobe.com/SaveForWeb/1.0/">
	<!ENTITY ns_custom "http://ns.adobe.com/GenericCustomNamespace/1.0/">
	<!ENTITY ns_adobe_xpath "http://ns.adobe.com/XPath/1.0/">
]>
<svg version="1.1" id="Capa_1" xmlns:x="&ns_extend;" xmlns:i="&ns_ai;" xmlns:graph="&ns_graphs;"
	 xmlns="http://www.w3.org/2000/svg" xmlns:xlink="http://www.w3.org/1999/xlink" x="0px" y="0px" width="30px" height="30px"
	 viewBox="0 0 30 30" enable-background="new 0 0 30 30" xml:space="preserve">
<metadata>
	<sfw  xmlns="&ns_sfw;">
		<slices></slices>
		<sliceSourceBounds  width="30" height="30" x="0" y="-30" bottomLeftOrigin="true"></sliceSourceBounds>
	</sfw>
</metadata>
<g>
	<rect y="0" fill="#008894" width="30" height="30"/>
	<g>
		<path fill="#FFFFFF" d="M15,8.75c-6.248,0-10,6.21-10,6.21s3.752,6.29,10,6.29c6.25,0,10-6.25,10-6.25S21.25,8.75,15,8.75L15,8.75
			z M15,19.998C9.531,19.998,6.564,15,6.564,15S9.531,10.002,15,10.002S23.438,15,23.438,15S20.469,19.998,15,19.998L15,19.998z
			 M15,19.998"/>
		<path fill="#FFFFFF" d="M17.66,15c0,1.468-1.193,2.658-2.66,2.658c-1.469,0-2.658-1.189-2.658-2.658
			c0-1.468,1.189-2.658,2.658-2.658C16.467,12.342,17.66,13.533,17.66,15L17.66,15z M17.66,15"/>
	</g>
</g>
</svg>
