<?xml version="1.0" encoding="utf-8"?>
<!-- Generator: Adobe Illustrator 16.0.0, SVG Export Plug-In . SVG Version: 6.00 Build 0)  -->
<!DOCTYPE svg PUBLIC "-//W3C//DTD SVG 1.1//EN" "http://www.w3.org/Graphics/SVG/1.1/DTD/svg11.dtd">
<svg version="1.1" id="Capa_1" xmlns="http://www.w3.org/2000/svg" xmlns:xlink="http://www.w3.org/1999/xlink" x="0px" y="0px"
	 width="42px" height="30px" viewBox="0 0 42 30" enable-background="new 0 0 42 30" xml:space="preserve">
<g>
	<rect x="-0.003" y="-0.227" fill="#008996" width="42.006" height="30.454"/>
	<g>
		<path fill="#FFFFFF" d="M20.999,7.1c-7.898,0-12.64,7.85-12.64,7.85s4.741,7.951,12.64,7.951c7.901,0,12.642-7.9,12.642-7.9
			S28.9,7.1,20.999,7.1L20.999,7.1z M20.999,21.318C14.087,21.318,10.335,15,10.335,15s3.752-6.318,10.664-6.318
			C27.914,8.682,31.666,15,31.666,15S27.914,21.318,20.999,21.318L20.999,21.318z M20.999,21.318"/>
		<path fill="#FFFFFF" d="M24.361,15c0,1.855-1.509,3.359-3.362,3.359c-1.855,0-3.358-1.504-3.358-3.359
			c0-1.855,1.503-3.359,3.358-3.359C22.853,11.641,24.361,13.145,24.361,15L24.361,15z M24.361,15"/>
	</g>
</g>
</svg>
