<svg xmlns="http://www.w3.org/2000/svg" width="25" height="15" viewBox="0 0 25 15"><title>visualizar_inactivo</title><g id="Layer_2" data-name="Layer 2"><g id="Maqueta"><path d="M12.5.26289C5.2641.26289.91886,7.45362.91886,7.45362S5.2641,14.73711,12.5,14.73711c7.23821,0,11.58114-7.236,11.58114-7.236S19.73821.26289,12.5.26289Zm0,13.02658c-6.33338,0-9.76927-5.78837-9.76927-5.78837S6.16662,1.71285,12.5,1.71285,22.27159,7.5011,22.27159,7.5011,18.83349,13.28947,12.5,13.28947Zm0,0" style="fill:#9b999f"/><path d="M15.58082,7.5011A3.07966,3.07966,0,1,1,12.5,4.4226a3.0805,3.0805,0,0,1,3.08082,3.0785Zm0,0" style="fill:#9b999f"/><rect width="25" height="15" style="fill:none"/></g></g></svg>