<?xml version="1.0" encoding="utf-8"?>
<!-- Generator: Adobe Illustrator 16.0.0, SVG Export Plug-In . SVG Version: 6.00 Build 0)  -->
<!DOCTYPE svg PUBLIC "-//W3C//DTD SVG 1.1//EN" "http://www.w3.org/Graphics/SVG/1.1/DTD/svg11.dtd" [
	<!ENTITY ns_extend "http://ns.adobe.com/Extensibility/1.0/">
	<!ENTITY ns_ai "http://ns.adobe.com/AdobeIllustrator/10.0/">
	<!ENTITY ns_graphs "http://ns.adobe.com/Graphs/1.0/">
	<!ENTITY ns_vars "http://ns.adobe.com/Variables/1.0/">
	<!ENTITY ns_imrep "http://ns.adobe.com/ImageReplacement/1.0/">
	<!ENTITY ns_sfw "http://ns.adobe.com/SaveForWeb/1.0/">
	<!ENTITY ns_custom "http://ns.adobe.com/GenericCustomNamespace/1.0/">
	<!ENTITY ns_adobe_xpath "http://ns.adobe.com/XPath/1.0/">
]>
<svg version="1.1" id="Capa_1" xmlns:x="&ns_extend;" xmlns:i="&ns_ai;" xmlns:graph="&ns_graphs;"
	 xmlns="http://www.w3.org/2000/svg" xmlns:xlink="http://www.w3.org/1999/xlink" x="0px" y="0px" width="20px" height="20px"
	 viewBox="0 0 20 20" enable-background="new 0 0 20 20" xml:space="preserve">
<metadata>
	<sfw  xmlns="&ns_sfw;">
		<slices></slices>
		<sliceSourceBounds  bottomLeftOrigin="true" height="44.064" width="49.001" y="-44.063" x="0.026"></sliceSourceBounds>
	</sfw>
</metadata>
<g>
	<g>
		<path fill-rule="evenodd" clip-rule="evenodd" fill="#008894" d="M15.714,9.188h-4.875V4.313c0-0.449-0.363-0.812-0.812-0.812
			c-0.448,0-0.812,0.363-0.812,0.812v4.875H4.339c-0.448,0-0.812,0.363-0.812,0.812s0.364,0.812,0.812,0.812h4.875v4.875
			c0,0.448,0.364,0.812,0.812,0.812c0.449,0,0.812-0.364,0.812-0.812v-4.875h4.875c0.449,0,0.812-0.363,0.812-0.812
			S16.163,9.188,15.714,9.188L15.714,9.188z M15.714,9.188"/>
	</g>
	<path fill-rule="evenodd" clip-rule="evenodd" fill="#008894" d="M10.027-0.001C4.504-0.001,0.026,4.478,0.026,10
		c0,5.523,4.478,10.001,10.001,10.001s10-4.478,10-10.001C20.027,4.478,15.551-0.001,10.027-0.001z M10.026,18.442
		c-4.662,0-8.442-3.781-8.442-8.442c0-4.663,3.78-8.442,8.442-8.442S18.47,5.337,18.47,10C18.47,14.661,14.688,18.442,10.026,18.442
		z"/>
</g>
</svg>
