<?xml version="1.0" encoding="utf-8"?>
<!-- Generator: Adobe Illustrator 16.0.0, SVG Export Plug-In . SVG Version: 6.00 Build 0)  -->
<!DOCTYPE svg PUBLIC "-//W3C//DTD SVG 1.1//EN" "http://www.w3.org/Graphics/SVG/1.1/DTD/svg11.dtd">
<svg version="1.1" id="Capa_1" xmlns="http://www.w3.org/2000/svg" xmlns:xlink="http://www.w3.org/1999/xlink" x="0px" y="0px"
	 width="21px" height="22px" viewBox="0 0 21 22" enable-background="new 0 0 21 22" xml:space="preserve">
<path fill-rule="evenodd" clip-rule="evenodd" fill="#FFFFFF" d="M11.923,11.002l8.781-9.204c0.395-0.411,0.395-1.078,0-1.488
	c-0.393-0.414-1.035-0.414-1.428,0l-8.775,9.2l-8.784-9.2c-0.393-0.414-1.028-0.414-1.421,0c-0.394,0.41-0.394,1.077,0,1.495
	l8.782,9.197l-8.782,9.191c-0.394,0.414-0.394,1.085,0,1.498C0.493,21.898,0.747,22,1.011,22c0.254,0,0.511-0.102,0.707-0.309
	l8.784-9.202l8.775,9.202C19.479,21.898,19.735,22,19.989,22c0.256,0,0.518-0.102,0.715-0.309c0.395-0.413,0.395-1.084,0-1.498
	L11.923,11.002z M11.923,11.002"/>
</svg>
