<?xml version="1.0" encoding="UTF-8"?>
<svg width="15px" height="14px" viewBox="0 0 15 14" version="1.1" xmlns="http://www.w3.org/2000/svg" xmlns:xlink="http://www.w3.org/1999/xlink">
    <!-- Generator: Sketch 51.3 (57544) - http://www.bohemiancoding.com/sketch -->
    <title>Group 3</title>
    <desc>Created with Sketch.</desc>
    <defs></defs>
    <g id="Page-1" stroke="none" stroke-width="1" fill="none" fill-rule="evenodd">
        <g id="1" transform="translate(-1174.000000, -164.000000)" fill="#9B9B9B">
            <g id="Group-4" transform="translate(522.000000, 84.000000)">
                <g id="Group-3" transform="translate(652.000000, 80.000000)">
                    <path d="M6.10269712,14 C5.81086428,13.9989359 5.5750718,13.7595214 5.57639351,13.4658395 C5.57692219,13.325915 5.63216953,13.1921089 5.73024017,13.0928849 L13.2610607,5.51940459 C13.7255084,5.04775793 13.974518,4.40320075 13.9486125,3.73975643 C13.8875497,2.28518003 12.7268268,1.12189133 11.2814084,1.06629395 C10.6242558,1.04022437 9.9856071,1.2876194 9.51534386,1.7499555 L1.46086314,9.8634486 C1.18330473,10.1451597 1.03553792,10.5311492 1.05377748,10.9275133 C1.06778757,11.350213 1.24304588,11.7510993 1.54280896,12.0474413 C2.11828006,12.6693871 3.08497635,12.7063634 3.70538548,12.1299063 L11.7572228,4.01641325 C11.9636734,3.8083886 11.9636734,3.47134612 11.7572228,3.26358749 C11.5505079,3.05556285 11.2155874,3.05556285 11.0091368,3.26358749 L3.66044746,10.6588369 C3.45373253,10.8668616 3.11881205,10.8668616 2.91236146,10.6588369 C2.70538219,10.4510783 2.70538219,10.1140358 2.91236146,9.90601119 L10.2607864,2.51076174 C10.8806669,1.88695383 11.8854283,1.88695383 12.5053088,2.51076174 C13.1246605,3.13430364 13.1246605,4.1456971 12.5053088,4.769239 L4.45056373,12.8720915 C3.41751776,13.8624696 1.7828309,13.8257594 0.79472296,12.7896264 C0.305955818,12.3006887 0.0220532157,11.6420327 0.0016989323,10.9487946 C-0.0236778366,10.2624729 0.236169703,9.59663438 0.718328312,9.11062285 L8.76725786,1.00511023 C9.44159262,0.331025266 10.3630865,-0.0320868025 11.312865,0.00222928304 C13.3157793,0.078575923 14.9219173,1.69489015 14.9977833,3.71049465 C15.0318833,4.66629074 14.6713217,5.5936231 14.0014808,6.27223034 L6.47541841,13.8457106 C6.37629041,13.9446686 6.24226935,14 6.10269712,14" id="Fill-1"></path>
                </g>
            </g>
        </g>
    </g>
</svg>