<?xml version="1.0" encoding="utf-8"?>
<!-- Generator: Adobe Illustrator 16.0.0, SVG Export Plug-In . SVG Version: 6.00 Build 0)  -->
<!DOCTYPE svg PUBLIC "-//W3C//DTD SVG 1.1 Basic//EN" "http://www.w3.org/Graphics/SVG/1.1/DTD/svg11-basic.dtd">
<svg version="1.1" baseProfile="basic" id="Capa_1" xmlns="http://www.w3.org/2000/svg" xmlns:xlink="http://www.w3.org/1999/xlink"
	 x="0px" y="0px" width="127px" height="133px" viewBox="0 0 127 133" xml:space="preserve">
<path fill="#ABABAB" d="M63.49,0C31.071,0,4.53,25.64,3.069,57.696c-0.021,0.455-0.042,2.291-0.047,2.762h17.909
	c0.004-0.266,0.021-1.902,0.036-2.146c1.135-22.484,19.775-40.408,42.523-40.408c22.671,0,41.279,17.816,42.522,40.185
	c0.016,0.317,0.042,2.037,0.042,2.369h17.904c-0.006-0.333-0.01-2.042-0.026-2.349C122.678,25.858,96.042,0,63.49,0z"/>
<polygon fill="#ABABAB" points="123.958,98.125 123.979,66.495 106.122,66.489 106.096,86.595 63.521,112.81 21.009,86.538 
	21.019,66.489 3.157,66.495 3.146,98.053 63.521,133 "/>
</svg>
