<?xml version="1.0" encoding="utf-8"?>
<!-- Generator: Adobe Illustrator 16.0.0, SVG Export Plug-In . SVG Version: 6.00 Build 0)  -->
<!DOCTYPE svg PUBLIC "-//W3C//DTD SVG 1.1//EN" "http://www.w3.org/Graphics/SVG/1.1/DTD/svg11.dtd">
<svg version="1.1" id="Capa_1" xmlns="http://www.w3.org/2000/svg" xmlns:xlink="http://www.w3.org/1999/xlink" x="0px" y="0px"
	 width="20px" height="20px" viewBox="0 0 20 20" enable-background="new 0 0 20 20" xml:space="preserve">
<path fill="#F09600" d="M18.659,4.979c-0.893-1.531-2.104-2.743-3.641-3.637C13.488,0.446,11.815,0,10.001,0
	c-1.815,0-3.488,0.445-5.02,1.341c-1.535,0.893-2.745,2.106-3.64,3.637C0.446,6.514,0,8.184,0,10c0,1.812,0.446,3.487,1.342,5.021
	c0.895,1.532,2.104,2.743,3.639,3.638C6.513,19.554,8.186,20,10.001,20c1.814,0,3.487-0.447,5.018-1.342
	c1.536-0.895,2.748-2.105,3.641-3.638C19.554,13.487,20,11.812,20,10C20,8.184,19.554,6.511,18.659,4.979L18.659,4.979z
	 M11.667,16.236c0,0.121-0.04,0.223-0.12,0.307c-0.073,0.083-0.171,0.121-0.283,0.121H8.767c-0.115,0-0.216-0.042-0.301-0.128
	c-0.088-0.089-0.131-0.188-0.131-0.3v-2.475c0-0.111,0.043-0.211,0.131-0.299c0.084-0.088,0.186-0.132,0.298-0.132h2.5
	c0.112,0,0.21,0.044,0.283,0.125c0.08,0.083,0.118,0.185,0.118,0.306v2.475H11.667z M11.643,11.759
	c-0.009,0.085-0.057,0.162-0.137,0.226c-0.082,0.066-0.186,0.1-0.308,0.1H8.789c-0.122,0-0.225-0.033-0.311-0.1
	c-0.088-0.063-0.133-0.141-0.133-0.226L8.127,3.671c0-0.103,0.04-0.183,0.129-0.234C8.342,3.366,8.448,3.331,8.57,3.331h2.862
	c0.122,0,0.225,0.035,0.314,0.106c0.089,0.051,0.129,0.131,0.129,0.234L11.643,11.759z"/>
</svg>
