<?xml version="1.0" encoding="utf-8"?>
<!-- Generator: Adobe Illustrator 16.0.0, SVG Export Plug-In . SVG Version: 6.00 Build 0)  -->
<!DOCTYPE svg PUBLIC "-//W3C//DTD SVG 1.1//EN" "http://www.w3.org/Graphics/SVG/1.1/DTD/svg11.dtd">
<svg version="1.1" id="Capa_1" xmlns="http://www.w3.org/2000/svg" xmlns:xlink="http://www.w3.org/1999/xlink" x="0px" y="0px"
	 width="20px" height="20px" viewBox="0 0 20 20" enable-background="new 0 0 20 20" xml:space="preserve">
<g>
	<circle fill="#4BA92B" cx="10" cy="9.999" r="10"/>
	<path fill-rule="evenodd" clip-rule="evenodd" fill="#FFFFFF" d="M14.948,5.017c-0.129-0.108-0.813-0.389-1.261-0.1
		c0,0-0.396,0.387-0.982,0.996l-0.21,0.3l-0.044-0.035c-0.487,0.51-1.071,1.133-1.668,1.806c-0.984,1.109-1.982,2.483-2.707,3.53
		L6.701,9.471c-0.23-0.641-0.735-0.97-1.356-0.728c-0.622,0.241-0.653,1.008-0.422,1.65l1.815,3.924l0.005,0.011
		c0.06,0.206,0.167,0.396,0.327,0.551c0.488,0.466,1.243,0.434,1.692-0.07c0,0,1.78-3.157,3.687-5.302
		c1.4-1.579,2.621-3.235,2.621-3.235C15.385,5.719,15.09,5.14,14.948,5.017L14.948,5.017z"/>
</g>
</svg>
