<?xml version="1.0" encoding="utf-8"?>
<!-- Generator: Adobe Illustrator 16.0.0, SVG Export Plug-In . SVG Version: 6.00 Build 0)  -->
<!DOCTYPE svg PUBLIC "-//W3C//DTD SVG 1.1//EN" "http://www.w3.org/Graphics/SVG/1.1/DTD/svg11.dtd">
<svg version="1.1" id="Capa_1" xmlns="http://www.w3.org/2000/svg" xmlns:xlink="http://www.w3.org/1999/xlink" x="0px" y="0px"
	 width="30px" height="30px" viewBox="0 0 30 30" enable-background="new 0 0 30 30" xml:space="preserve">
<g>
	<rect fill="#008994" width="30" height="30"/>
	<g>
		<path fill="#FFFFFF" d="M15,8.752c-6.248,0-10,6.209-10,6.209s3.752,6.289,10,6.289c6.25,0,10-6.248,10-6.248
			S21.25,8.752,15,8.752L15,8.752z M15,20c-5.469,0-8.436-4.998-8.436-4.998S9.531,10.004,15,10.004s8.438,4.998,8.438,4.998
			S20.469,20,15,20L15,20z M15,20"/>
		<path fill="#FFFFFF" d="M17.661,15.002c0,1.467-1.194,2.656-2.661,2.656c-1.469,0-2.659-1.189-2.659-2.656
			c0-1.469,1.19-2.658,2.659-2.658C16.467,12.344,17.661,13.533,17.661,15.002L17.661,15.002z M17.661,15.002"/>
	</g>
</g>
</svg>
