<?xml version="1.0" encoding="utf-8"?>
<!-- Generator: Adobe Illustrator 16.0.0, SVG Export Plug-In . SVG Version: 6.00 Build 0)  -->
<!DOCTYPE svg PUBLIC "-//W3C//DTD SVG 1.1//EN" "http://www.w3.org/Graphics/SVG/1.1/DTD/svg11.dtd" [
	<!ENTITY ns_extend "http://ns.adobe.com/Extensibility/1.0/">
	<!ENTITY ns_ai "http://ns.adobe.com/AdobeIllustrator/10.0/">
	<!ENTITY ns_graphs "http://ns.adobe.com/Graphs/1.0/">
	<!ENTITY ns_vars "http://ns.adobe.com/Variables/1.0/">
	<!ENTITY ns_imrep "http://ns.adobe.com/ImageReplacement/1.0/">
	<!ENTITY ns_sfw "http://ns.adobe.com/SaveForWeb/1.0/">
	<!ENTITY ns_custom "http://ns.adobe.com/GenericCustomNamespace/1.0/">
	<!ENTITY ns_adobe_xpath "http://ns.adobe.com/XPath/1.0/">
]>
<svg version="1.1" id="Capa_1" xmlns:x="&ns_extend;" xmlns:i="&ns_ai;" xmlns:graph="&ns_graphs;"
	 xmlns="http://www.w3.org/2000/svg" xmlns:xlink="http://www.w3.org/1999/xlink" x="0px" y="0px" width="30px" height="30px"
	 viewBox="0 0 30 30" enable-background="new 0 0 30 30" xml:space="preserve">
<metadata>
	<sfw  xmlns="&ns_sfw;">
		<slices></slices>
		<sliceSourceBounds  height="30" width="29.999" bottomLeftOrigin="true" x="0.006" y="-30"></sliceSourceBounds>
	</sfw>
</metadata>
<rect x="0.006" fill="#C2C3C9" width="29.999" height="30"/>
<g>
	<path fill="#FFFFFF" d="M15.005,8.75c-6.248,0-10,6.209-10,6.209s3.752,6.289,10,6.289c6.25,0,10-6.248,10-6.248
		S21.256,8.75,15.005,8.75L15.005,8.75z M15.005,19.998C9.537,19.998,6.57,15,6.57,15s2.967-4.998,8.436-4.998
		c5.469,0,8.438,4.998,8.438,4.998S20.475,19.998,15.005,19.998L15.005,19.998z M15.005,19.998"/>
	<path fill="#FFFFFF" d="M17.666,15c0,1.466-1.193,2.656-2.661,2.656c-1.469,0-2.658-1.189-2.658-2.656
		c0-1.469,1.189-2.658,2.658-2.658C16.473,12.342,17.666,13.532,17.666,15L17.666,15z M17.666,15"/>
</g>
</svg>
