<?xml version="1.0" encoding="UTF-8"?>
<svg width="50px" height="66px" viewBox="0 0 50 66" version="1.1" xmlns="http://www.w3.org/2000/svg" xmlns:xlink="http://www.w3.org/1999/xlink">
    <!-- Generator: Sketch 48.2 (47327) - http://www.bohemiancoding.com/sketch -->
    <title>Recurso 1</title>
    <desc>Created with Sketch.</desc>
    <defs></defs>
    <g id="INICIO" stroke="none" stroke-width="1" fill="none" fill-rule="evenodd" transform="translate(-503.000000, -240.000000)">
        <g id="Recurso-1" transform="translate(503.000000, 240.000000)" fill="#4A4A4A" fill-rule="nonzero">
            <path d="M49.9887871,0 C49.9887871,0.234621586 50,0.467647107 50,0.702268693 C50,21.9831382 50,43.2608155 50,64.5353007 C50,64.787479 50,65.0396573 50,65.3333333 L0.0384442878,65.3333333 C0.0256295252,65.1561701 0,64.9726226 0,64.7906712 C0,43.296993 0,21.806507 0,0.319213042 C0,0.212276673 0,0.106936369 0.0112129173,0 L49.9887871,0 Z M1.96386237,63.390922 L48.01211,63.390922 L48.01211,14.9375743 L1.96386237,14.9375743 L1.96386237,63.390922 Z M35.3623374,11.0240224 L1.96706606,11.0240224 L1.96706606,12.8914187 L48.0185173,12.8914187 L48.0185173,10.9761405 L45.1752419,10.9761405 L45.1752419,9.04968974 L48.0089063,9.04968974 L48.0089063,1.97433267 L1.97026975,1.97433267 L1.97026975,9.07203466 L35.3623374,9.07203466 L35.3623374,11.0240224 Z" id="Shape"></path>
            <polygon id="Shape" points="46 17.3333333 46 22.6666667 43.8666667 22.6666667 43.8666667 19.4666667 40.6666667 19.4666667 40.6666667 17.3333333"></polygon>
            <polygon id="Shape" points="36.6666667 19.3333333 36.6666667 17.3333333 38.6666667 17.3333333 38.6666667 19.3333333"></polygon>
            <polygon id="Shape" points="46.6666667 25.3333333 44.6666667 25.3333333 44.6666667 23.3333333 46.6666667 23.3333333"></polygon>
            <polygon id="Shape" points="36.6666667 9.33333333 38.6666667 9.33333333 38.6666667 11.3333333 36.6666667 11.3333333"></polygon>
            <polygon id="Shape" points="41.3333333 9.33333333 43.3333333 9.33333333 43.3333333 11.3333333 41.3333333 11.3333333"></polygon>
        </g>
    </g>
</svg>