<?xml version="1.0" encoding="UTF-8"?>
<svg width="50px" height="50px" viewBox="0 0 50 50" version="1.1" xmlns="http://www.w3.org/2000/svg" xmlns:xlink="http://www.w3.org/1999/xlink">
    <!-- Generator: Sketch 48.2 (47327) - http://www.bohemiancoding.com/sketch -->
    <title>empaques</title>
    <desc>Created with Sketch.</desc>
    <defs></defs>
    <g id="INICIO" stroke="none" stroke-width="1" fill="none" fill-rule="evenodd" transform="translate(-327.000000, -448.000000)">
        <g id="empaques" transform="translate(327.000000, 448.000000)" fill="#4A4A4A" fill-rule="nonzero">
            <path d="M3.51708498,31.9647552 L0,31.9647552 L1.1947992,28.365443 C2.03620709,25.9546624 2.80188827,23.5523112 3.58439761,21.1415307 C3.67695248,20.8633637 3.79474958,20.7453535 4.08924235,20.7790707 C4.38373511,20.8127879 4.71188419,20.7790707 5.09051774,20.7790707 L5.09051774,20.231166 C5.09051774,17.1628999 5.09051774,14.0946337 5.09051774,11.0263676 C4.97760088,9.30953647 5.97905738,7.71450969 7.57267101,7.07302471 C8.11958614,6.82857493 8.36359443,6.53354934 8.27945364,5.93506886 C8.25300857,5.5759065 8.25300857,5.21528049 8.27945364,4.85611813 L8.02703127,4.78025441 C7.25110164,4.66258614 6.68035319,3.99011402 6.68919273,3.20397483 C6.68919273,2.68135807 6.68919273,2.15031201 6.68919273,1.62769525 C6.67500023,1.19202307 6.84152921,0.769913484 7.14920329,0.461682722 C7.45687738,0.15345196 7.87822462,-0.0133783155 8.31310996,0.000839856537 C10.9495213,0.000839856537 13.5859327,0.000839856537 16.2223441,0.000839856537 C16.65497,-0.0130582707 17.0743827,0.15125364 17.3828283,0.455478855 C17.6912738,0.75970407 17.861805,1.17726404 17.8546754,1.61083665 C17.8546754,1.99015526 17.8546754,2.37790318 17.8546754,2.75722179 C17.8546754,4.04690509 17.5349404,4.44308231 16.2560004,4.83925953 C16.2560004,5.38716419 16.2560004,5.95192747 16.2560004,6.52512004 C16.2871164,6.65352664 16.3733765,6.76154681 16.4915946,6.82014563 C17.3364793,7.16119346 18.0786381,7.71591533 18.6455988,8.43014242 C19.209982,7.72241709 19.9456934,7.17108611 20.7827749,6.82857493 C20.9204301,6.74750159 21.0134398,6.6077346 21.0351973,6.44925632 C21.0351973,5.92663956 21.0351973,5.4040228 21.0351973,4.85611813 L20.7491186,4.77182511 C20.0035791,4.64564285 19.454697,4.00353049 19.4449363,3.24612134 C19.4449363,2.68978737 19.4449363,2.14188271 19.4449363,1.56026083 C19.4448385,1.14076796 19.6134494,0.738926537 19.9126895,0.445489528 C20.2119297,0.152052519 20.6165599,-0.00823027139 21.0351973,0.000839856537 C23.6996556,0.000839856537 26.3641139,0.000839856537 29.0285722,0.000839856537 C29.4538991,-0.00613337371 29.8637351,0.160641603 30.1637322,0.462771671 C30.4637294,0.76490174 30.6280381,1.17635362 30.6188331,1.60240734 C30.6188331,2.1250241 30.6188331,2.65607016 30.6188331,3.17868692 C30.6188331,4.06376369 30.1392306,4.52737533 29.0285722,4.86454743 C29.0285722,5.42931071 29.0285722,6.00250328 29.0285722,6.55040795 C29.0285722,6.65155958 29.1884397,6.76114051 29.2978227,6.82857493 C29.6764563,7.0477368 30.0887462,7.21632285 30.4505515,7.46077262 C30.7968984,7.72302941 31.1283674,8.00444362 31.4434129,8.30370288 C32.009784,7.64655914 32.7294897,7.13982671 33.5385185,6.82857493 C33.6708621,6.74744812 33.7602922,6.61151558 33.7825268,6.45768562 C33.7825268,5.93506886 33.7825268,5.4124521 33.7825268,4.86454743 L33.4964481,4.78025441 C32.7539841,4.65465793 32.206045,4.01719038 32.1922659,3.26297995 C32.1630457,2.70140766 32.1630457,2.13869172 32.1922659,1.57711944 C32.1853023,1.15549358 32.3500023,0.749202082 32.6484317,0.451822967 C32.9468611,0.154443851 33.3532915,-0.00838488723 33.7741127,0.000839856537 C36.438571,0.000839856537 39.1030294,0.000839856537 41.7674877,0.000839856537 C42.1942602,-0.00845791338 42.6063042,0.157290744 42.9081492,0.459681962 C43.2099943,0.76207318 43.3754436,1.17486267 43.3661627,1.60240734 C43.3661627,2.1250241 43.3661627,2.65607016 43.3661627,3.17868692 C43.3661627,4.07219299 42.8865602,4.54423394 41.7759017,4.86454743 C41.7759017,5.4208814 41.7759017,6.00250328 41.7759017,6.55040795 C41.7759017,6.63470097 41.8852848,6.74428191 41.9694256,6.78642842 C42.2134339,6.92972656 42.4742703,7.0393075 42.7266927,7.17417634 C44.1257285,7.83562816 44.9986666,9.26665685 44.9480095,10.815635 C44.9480095,13.9429063 44.9480095,17.0617482 44.9480095,20.1890195 C44.9480095,20.3576055 44.9480095,20.5261916 44.9480095,20.7537828 C45.3434712,20.7537828 45.7052766,20.7537828 46.067082,20.7537828 C46.2030291,20.7760991 46.3210495,20.8601074 46.386817,20.9813739 C47.5984443,24.5834959 48.8016576,28.1884276 49.9964568,31.7961691 C50.0011811,31.8381828 50.0011811,31.880595 49.9964568,31.9226087 L46.5719267,31.9226087 L46.5719267,49.5145631 L3.51708498,49.5145631 L3.51708498,31.9647552 Z M21.0351973,47.9298542 L44.9311813,47.9298542 L44.9311813,31.9647552 L44.3421958,31.9647552 C37.324854,31.9647552 30.3131216,31.9647552 23.3069986,31.9647552 C22.9115369,31.9647552 22.7769116,31.8467449 22.6927708,31.4758556 C22.3562076,30.0428742 21.9944023,28.6098928 21.6325969,27.1853406 C21.4643153,26.5109964 21.2876196,25.8366522 21.119338,25.162308 L21.0351973,25.162308 L21.0351973,27.9186899 L19.4281082,27.9186899 L19.4281082,26.8313099 C19.3282318,26.917121 19.2576271,27.0320612 19.2261703,27.1600527 C18.7465678,28.6098928 18.2501371,30.0597328 17.7873628,31.5180021 C17.7646967,31.6603415 17.6861148,31.7876747 17.5691427,31.8716036 C17.4521705,31.9555325 17.3065368,31.9890768 17.164721,31.9647552 C13.3194869,31.9647552 9.48266692,31.9647552 5.63743286,31.9647552 L5.13258813,31.9647552 L5.13258813,47.9298542 L19.4365223,47.9298542 L19.4365223,29.5876918 L21.0351973,29.5876918 L21.0351973,47.9298542 Z M47.8340386,30.3463291 C47.7835541,30.1693137 47.7498978,30.0428742 47.7078274,29.924864 C46.916904,27.5478006 46.1175665,25.1707373 45.3434712,22.7852447 C45.318931,22.6427077 45.2382841,22.5160132 45.1196326,22.4335993 C45.0009811,22.3511854 44.8542646,22.319956 44.7124153,22.3469209 L22.078543,22.3469209 C22.078543,22.5323656 22.1374416,22.6672344 22.1710979,22.8021033 C22.7516694,25.1370201 23.349069,27.4719369 23.9128122,29.815283 C24.0137812,30.2198895 24.1736487,30.3378998 24.5859386,30.3378998 C32.1530002,30.3378998 39.7256712,30.3378998 47.3039516,30.3378998 L47.8340386,30.3463291 Z M19.1252013,22.4143554 L18.8391227,22.4143554 L5.1830726,22.4143554 C4.905408,22.4143554 4.82968129,22.5239363 4.75395458,22.7599568 C4.00229686,25.0077708 3.24222507,27.2808727 2.4737392,29.5792625 L2.22131683,30.3463291 L2.44008288,30.3463291 L16.1802737,30.3463291 C16.4747665,30.3463291 16.533665,30.1861723 16.6009777,29.9838691 L18.1491682,25.3056061 L19.1252013,22.4143554 Z M30.5935909,14.4149472 L19.4617645,14.4149472 L19.4617645,20.7537828 L30.5935909,20.7537828 L30.5935909,14.4149472 Z M43.3745767,20.7622121 L43.3745767,20.3407469 C43.3745767,17.9721129 43.3745767,15.5950496 43.3745767,13.2264156 C43.3745767,12.8723849 43.2736078,12.7712332 42.9202165,12.7712332 C39.4928817,12.7712332 36.0627422,12.7712332 32.629798,12.7712332 C32.2764067,12.7712332 32.1754377,12.8723849 32.1754377,13.2264156 C32.1754377,15.5950496 32.1754377,17.9636836 32.1754377,20.3407469 L32.1754377,20.7622121 L43.3745767,20.7622121 Z M6.68077865,20.7622121 L17.8378473,20.7622121 C17.8378473,20.6694897 17.8378473,20.6020553 17.8378473,20.5261916 C17.8378473,18.0732645 17.8378473,15.6119082 17.8378473,13.1589812 C17.8378473,12.7880918 17.6527375,12.7965211 17.3919011,12.7965211 C13.9645663,12.7965211 10.5344268,12.7965211 7.10148259,12.7965211 C6.75650536,12.7965211 6.64712233,12.8892435 6.64712233,13.2432742 C6.64712233,15.5107566 6.64712233,17.7866683 6.64712233,20.0541507 C6.68077865,20.231166 6.68077865,20.4924744 6.68077865,20.7537828 L6.68077865,20.7622121 Z M22.6675286,4.84768883 C22.6675286,5.69061909 22.6675286,6.53354934 22.6675286,7.3764796 C22.6996998,7.58922957 22.5759164,7.79472741 22.3730358,7.86537915 C21.8345348,8.11825822 21.3044478,8.38799591 20.7743608,8.65773359 C20.1980156,8.89373214 19.7694137,9.39206062 19.621632,9.9979927 C19.4701786,10.9083574 19.4701786,11.8355807 19.4028659,12.7712332 L30.6188331,12.7712332 C30.5994506,12.3949747 30.5994506,12.0179652 30.6188331,11.6417067 C30.9382159,10.1417533 30.0222669,8.6557513 28.5405556,8.26998567 C28.1341644,8.19554778 27.7780816,7.95256582 27.5601334,7.6009701 C27.3421852,7.24937439 27.2826605,6.82189527 27.3962409,6.42396841 C27.4376082,5.89654494 27.4376082,5.366683 27.3962409,4.83925953 L22.6675286,4.84768883 Z M35.4232722,4.84768883 C35.4232722,5.62318467 35.4232722,6.34810469 35.4232722,7.0645954 C35.4909968,7.48533272 35.2345993,7.89052255 34.8258726,8.00867729 C34.3541153,8.20558169 33.8959409,8.4336754 33.4543777,8.6914508 C32.5324045,9.16653834 32.0505254,10.208447 32.2848207,11.2202416 L43.3409204,11.2202416 C43.5178685,10.1914528 43.006522,9.16690951 42.0788086,8.6914508 C41.6354003,8.43961465 41.1774259,8.21443526 40.7073137,8.01710659 C40.318651,7.90993845 40.079498,7.51922947 40.1603986,7.12360052 C40.202469,6.3818219 40.1603986,5.63161397 40.1603986,4.88140604 L35.4232722,4.84768883 Z M6.73126312,11.1696658 L17.812605,11.1696658 C18.0067612,10.1516566 17.5152708,9.12586579 16.6009777,8.64087498 C16.104547,8.3711373 15.5997023,8.10139962 15.0780294,7.88223775 C14.7769545,7.79291327 14.5893827,7.49297819 14.6404973,7.18260564 C14.6404973,6.3902512 14.6404973,5.60632606 14.6404973,4.81397162 L9.87812863,4.81397162 C9.87812863,5.65690188 9.87812863,6.49983213 9.87812863,7.34276239 C9.90539002,7.54133149 9.78928518,7.73166499 9.60046403,7.79794473 C9.03672074,8.05925311 8.48139153,8.33742009 7.91764825,8.64087498 C7.01310691,9.13354712 6.53267786,10.157586 6.73126312,11.1696658 Z M41.7590736,1.64455386 L33.8245972,1.64455386 L33.8245972,3.18711623 L41.7590736,3.18711623 L41.7590736,1.64455386 Z M29.00333,1.64455386 L21.0351973,1.64455386 L21.0351973,3.18711623 L28.9696737,3.18711623 L29.00333,1.64455386 Z M16.2475864,1.64455386 L8.31310996,1.64455386 L8.31310996,3.18711623 L16.2391723,3.18711623 L16.2475864,1.64455386 Z" id="Shape"></path>
            <path d="M43.2038835,45.631068 L22.815534,45.631068 L22.815534,33.0097087 L43.2038835,33.0097087 L43.2038835,45.631068 Z M24.3845071,44.0076082 L41.6349103,44.0076082 L41.6349103,34.6081922 L24.3845071,34.6081922 L24.3845071,44.0076082 Z" id="Shape"></path>
            <polygon id="Shape" points="41.7475728 14.0776699 41.7475728 16.0194175 36.8932039 16.0194175 36.8932039 14.0776699"></polygon>
            <polygon id="Shape" points="33.4951456 16.9902913 38.3495146 16.9902913 38.3495146 18.9320388 33.4951456 18.9320388"></polygon>
            <polygon id="Shape" points="33.4951456 16.0194175 33.4951456 14.0776699 35.4368932 14.0776699 35.4368932 16.0194175"></polygon>
            <polygon id="Shape" points="41.7475728 16.9902913 41.7475728 18.9320388 39.8058252 18.9320388 39.8058252 16.9902913"></polygon>
            <polygon id="Shape" points="7.76699029 14.0776699 15.5339806 14.0776699 15.5339806 16.0194175 7.76699029 16.0194175"></polygon>
            <polygon id="Shape" points="7.76699029 18.9320388 7.76699029 16.9902913 15.5339806 16.9902913 15.5339806 18.9320388"></polygon>
            <path d="M38.8349515,36.407767 L40.776699,36.407767 L40.776699,42.7184466 C40.2159805,42.7184466 39.6448783,42.7184466 39.073776,42.7184466 C38.9803229,42.7184466 38.8453351,42.4760496 38.8453351,42.3506719 C38.8453351,40.6789687 38.8453351,39.0072655 38.8453351,37.2937697 C38.8349515,36.9928631 38.8349515,36.7003151 38.8349515,36.407767 Z" id="Shape"></path>
            <path d="M28.5994095,42.7184466 L26.9964321,42.7184466 C26.6241276,42.7184466 26.706862,42.5011252 26.706862,42.3255963 C26.706862,40.6538931 26.706862,39.0100517 26.706862,37.3940719 L26.706862,36.407767 L28.6407767,36.407767 L28.5994095,42.7184466 Z" id="Shape"></path>
            <polygon id="Shape" points="31.5533981 39.8058252 29.6116505 39.8058252 29.6116505 36.407767 31.5428451 36.407767"></polygon>
            <polygon id="Shape" points="34.4660194 39.8058252 32.5242718 39.8058252 32.5242718 36.407767 34.4660194 36.407767"></polygon>
            <polygon id="Shape" points="35.4368932 36.407767 37.3786408 36.407767 37.3786408 39.8058252 35.4368932 39.8058252"></polygon>
            <path d="M29.6116505,41.7475728 L31.5533981,41.7475728 C31.5533981,42.318675 31.5533981,42.8897773 31.5533981,43.4608795 C31.5533981,43.5439489 31.3539753,43.6893204 31.2385201,43.6893204 C30.7137234,43.6893204 30.1889268,43.6893204 29.6221464,43.6893204 L29.6116505,41.7475728 Z" id="Shape"></path>
            <path d="M34.4660194,41.7475728 L34.4660194,43.6893204 C33.8814072,43.6893204 33.3281136,43.6893204 32.7643804,43.6893204 C32.6461905,43.6534823 32.5552429,43.559088 32.5242718,43.4401121 C32.5242718,42.8897773 32.5242718,42.3394424 32.5242718,41.7579565 L34.4660194,41.7475728 Z" id="Shape"></path>
            <path d="M35.4368932,41.7475728 L37.3786408,41.7475728 C37.3786408,42.3353451 37.3786408,42.8916295 37.3786408,43.4479139 C37.3433685,43.5667428 37.2504647,43.6581819 37.1333674,43.6893204 C36.591722,43.6893204 36.0398569,43.6893204 35.4777721,43.6893204 L35.4368932,41.7475728 Z" id="Shape"></path>
        </g>
    </g>
</svg>