<?xml version="1.0" encoding="UTF-8"?>
<svg width="22px" height="50px" viewBox="0 0 22 50" version="1.1" xmlns="http://www.w3.org/2000/svg" xmlns:xlink="http://www.w3.org/1999/xlink">
    <!-- Generator: Sketch 48.2 (47327) - http://www.bohemiancoding.com/sketch -->
    <title>Page 1</title>
    <desc>Created with Sketch.</desc>
    <defs></defs>
    <g id="INICIO" stroke="none" stroke-width="1" fill="none" fill-rule="evenodd" transform="translate(-517.000000, -447.000000)">
        <g id="Page-1" transform="translate(517.000000, 447.000000)" fill="#4A4A4A">
            <g id="Group-3" transform="translate(2.941176, 0.000000)">
                <path d="M14.8743464,0.147039216 C15.0269141,0.200862745 15.1785948,0.258215686 15.3329365,0.307627451 C17.1610878,0.888215686 18.1643091,2.89468627 17.5247666,4.69203922 C17.088352,5.91762745 15.9157096,6.7717451 14.6038049,6.76027451 C14.071592,6.75586275 13.6857376,6.97645098 13.5038982,7.41498039 C13.2377918,8.05645098 13.0284547,8.72968627 12.876774,9.40733333 C12.7304155,10.0593922 12.7357376,10.1043922 12.0545051,10.1052745 C9.97710084,10.1052745 7.8979225,10.0955686 5.81963119,10.1123333 C5.37966853,10.1158627 5.17476657,9.97292157 5.08783847,9.5317451 C4.99381419,9.05086275 4.80310458,8.58762745 4.62570028,8.02733333 C4.4820028,8.22586275 4.39241363,8.34145098 4.30992063,8.46233333 C3.4823296,9.68439216 2.65828665,10.909098 1.82803455,12.1293922 C1.51669001,12.5882157 1.0660831,12.7205686 0.655392157,12.4876275 C0.208333333,12.2335098 0.10987395,11.7226275 0.432749767,11.2382157 C1.37387955,9.82556863 2.32033147,8.41733333 3.26500934,7.00733333 C3.35637255,6.87056863 3.44596172,6.73203922 3.54176004,6.58468627 C3.50273109,6.53527451 3.47966853,6.47703922 3.4370915,6.45498039 C2.74521475,6.08439216 2.69110644,5.47556863 2.714169,4.77409804 C2.75852007,3.43821569 2.71594304,2.10056863 2.73811858,0.763803922 C2.74166667,0.557333333 2.89334734,0.352627451 2.97672736,0.147039216 L14.8743464,0.147039216 Z" id="Fill-1"></path>
            </g>
            <path d="M3.66066068,0 C3.74671453,0.202927671 3.90234383,0.404984408 3.90692116,0.609653948 C3.92980783,1.83331652 3.91973769,3.05872095 3.9169913,4.28325445 C3.9169913,4.79013816 3.79889612,4.89900494 3.25968637,4.90074681 C2.78730567,4.90248868 2.31492497,4.90248868 1.84345974,4.89987588 C1.51022994,4.89900494 1.34361504,4.73614024 1.34269957,4.41999112 C1.34178411,4.05332782 1.34269957,3.68579358 1.34269957,3.30084066 C0.843770348,3.19458669 0.480330158,2.95246698 0.490400289,2.43251925 C0.50047042,1.93347395 0.851094079,1.69657984 1.29509532,1.6164539 C1.48917421,1.06950721 1.0799607,0.460724198 1.59994565,0 L3.66066068,0 Z" id="Fill-4"></path>
            <g id="Group-8" transform="translate(0.000000, 21.078431)">
                <path d="M10.5584697,25.5776292 C12.4463214,25.5776292 14.3350682,25.5785205 16.2229199,25.5776292 C16.9918457,25.576738 17.3087255,25.2826203 17.2765004,24.5152406 C17.1753495,22.0811943 17.101948,19.6453654 16.923815,17.2166667 C16.7304646,14.5794118 16.3768841,11.9573084 15.6777792,9.39670232 C15.3170375,8.0785205 14.8918457,6.78172906 14.0289301,5.68279857 C13.3969608,4.87887701 12.596705,4.53306595 11.559237,4.7442959 C10.56026,4.94839572 9.74478687,5.45374332 9.04120631,6.15516934 C7.59555413,7.59723708 6.72547741,9.38600713 6.03979966,11.2665775 C4.4777792,15.5535651 3.90041347,20.0081105 3.84939045,24.5455437 C3.84133419,25.2835116 4.14299659,25.576738 4.89401961,25.5776292 C6.78187127,25.5785205 8.67061807,25.5776292 10.5584697,25.5776292 M10.5343009,28.9216578 C7.54005541,28.9216578 4.54670503,28.9216578 1.55335465,28.9207665 C0.779057971,28.9207665 0.488137255,28.6328877 0.489927536,27.8646168 C0.501564365,24.1444742 0.641206309,20.4332442 1.14427536,16.7398396 C1.63749787,13.1141711 2.70719096,9.69081996 4.56281756,6.51702317 C5.07483802,5.64090909 5.47765132,4.70329768 5.96281756,3.81114082 C6.06844416,3.61595365 6.28327792,3.41096257 6.48916027,3.34946524 C9.99363598,2.3040107 13.5043777,1.28083779 17.0142242,0.253208556 C17.5172933,0.106149733 17.6766283,0.200623886 17.7867306,0.698841355 C18.8993905,5.73270945 19.6924851,10.8155971 20.1534825,15.9501783 C20.5106436,19.9207665 20.6762447,23.8975936 20.640439,27.8833333 C20.6332779,28.6311052 20.3468329,28.9207665 19.5984953,28.9207665 C16.5773956,28.9216578 13.5554007,28.9216578 10.5343009,28.9216578" id="Fill-6"></path>
            </g>
            <path d="M11.8151641,11.7673991 C12.9030089,11.7673991 13.9899501,11.7718166 15.0777949,11.7647487 C15.3949323,11.7620982 15.5774445,11.882252 15.6424983,12.1958887 C16.126788,14.5044311 16.6146918,16.81209 17.1080168,19.1188654 C17.2191504,19.6383537 17.17036,19.7426048 16.6463152,19.892797 C13.6429963,20.7550769 10.6405809,21.6173568 7.63726203,22.4778697 C6.96865312,22.6695857 6.76084225,22.4814037 6.90721339,21.8214415 C7.5975069,18.7212979 7.93813603,15.5849314 7.9263902,12.4123421 C7.92367962,11.8610484 8.02216391,11.7682826 8.5949991,11.7673991 C9.66838745,11.7665157 10.7417758,11.7673991 11.8151641,11.7673991" id="Fill-9"></path>
            <path d="M10.5230458,45.0962312 C9.00816525,45.0962312 7.49236988,45.0926477 5.9774893,45.098023 C5.59328045,45.0998147 5.37739167,44.953787 5.39294299,44.5551223 C5.56766653,40.1957915 6.19520764,35.9224647 7.96988659,31.8757944 C8.4849094,30.7021974 9.11336529,29.5886239 10.0107674,28.6434751 C10.492858,28.1364095 11.0307504,27.7028057 11.7369628,27.5236306 C12.3626744,27.3659565 12.7048032,27.4385224 12.9975338,28.0056117 C13.3808278,28.7482926 13.7220419,29.5277044 13.9562263,30.3259296 C14.6596944,32.7268763 15.0109711,35.1959095 15.2396668,37.6765892 C15.4427486,39.8768597 15.5479487,42.0869849 15.676933,44.2944225 C15.7208426,45.0388952 15.6357678,45.0962312 14.8545432,45.0962312 L10.5230458,45.0962312 Z" id="Fill-11"></path>
        </g>
    </g>
</svg>