<svg xmlns="http://www.w3.org/2000/svg" viewBox="0 0 65.12 103.4"><defs><style>.cls-1{fill:#008895;}</style></defs><title>Mobiliario</title><g id="Capa_2" data-name="Capa 2"><g id="Capa_1-2" data-name="Capa 1"><path class="cls-1" d="M32.56,52.06c-4.27,0-8.55,0-12.82,0a10.85,10.85,0,0,1-7.86-2.93C9,46.32,8.29,42.85,9,39c1.65-8.83,3.26-17.67,5-26.48C15.34,5.66,22.17.08,29.16,0a67.54,67.54,0,0,1,8.5.18,16,16,0,0,1,13.6,12.85q2.5,13,4.87,26.12C57.45,46.41,52.82,52,45.48,52,41.18,52.09,36.87,52.06,32.56,52.06Z"/><path class="cls-1" d="M32.67,55.31c6.47,0,12.95,0,19.42,0a6.4,6.4,0,0,1,6.06,4.17,6.52,6.52,0,0,1-6.23,8.81q-19.37,0-38.74,0a6.49,6.49,0,0,1-1.54-12.83,8.71,8.71,0,0,1,1.9-.15Z"/><path class="cls-1" d="M26.43,71.61H38.66c0,1.26.08,2.47,0,3.66A3.11,3.11,0,0,1,36.14,78l-.85.17c0,.86,0,1.71,0,2.56,0,.21.23.42.39.6.79.91,1.57,1.83,2.41,2.69a1.74,1.74,0,0,0,1,.45c3.61.35,7.25.5,10.83,1a14.66,14.66,0,0,1,4.75,1.89A6.6,6.6,0,0,1,58,92.3c.18,1.09,0,1.34-1.08,1.34s-2.24,0-3.35,0a1.27,1.27,0,0,1-1-.55,2.77,2.77,0,0,0-2.1-1.78A63.64,63.64,0,0,0,43,90.09c-2.53-.2-5.08,0-7.77,0,0,.82,0,1.7,0,2.58,0,.72-.23,1.06-1,1-1.18,0-2.36,0-3.54,0-.65,0-.93-.27-.92-.91,0-.89,0-1.78,0-2.69a1.21,1.21,0,0,0-.38-.15c-4.4.07-8.81-.06-13.15.88a11.27,11.27,0,0,0-2.34.8,2.16,2.16,0,0,0-1.12,1c-.37,1.06-1.08,1.17-2,1.11s-1.79,0-2.68,0-1.17-.23-1-1.22A7.25,7.25,0,0,1,10.87,87a18.17,18.17,0,0,1,7.76-2.18c2.48-.22,5-.3,7.45-.39a1.16,1.16,0,0,0,1.06-.6,8.25,8.25,0,0,1,1.71-2,2.3,2.3,0,0,0,1-2.36,9.28,9.28,0,0,1,0-1.2c-.09-.08-.13-.16-.18-.16-2.21-.26-3.44-1.73-3.24-4.24C26.48,73.12,26.43,72.36,26.43,71.61Z"/><path class="cls-1" d="M59.94,43.27c0-3,0-6,0-9a2.58,2.58,0,0,1,2.6-2.89c1.57,0,2.58,1.13,2.58,2.91q0,9,0,18.08a2.61,2.61,0,1,1-5.18,0Q59.93,47.82,59.94,43.27Z"/><path class="cls-1" d="M5.19,43.36q0,4.5,0,9A2.67,2.67,0,0,1,2.61,55.3,2.64,2.64,0,0,1,0,52.39q0-9,0-18.08c0-1.79,1-2.91,2.57-2.92s2.62,1.13,2.62,3Q5.19,38.86,5.19,43.36Z"/><path class="cls-1" d="M59.2,99.46a3.89,3.89,0,1,1-7.78,0,3.89,3.89,0,1,1,7.78,0Z"/><path class="cls-1" d="M5.93,99.49a3.89,3.89,0,1,1,3.84,3.92A3.89,3.89,0,0,1,5.93,99.49Z"/><path class="cls-1" d="M36.44,99.51a3.88,3.88,0,1,1-3.85-3.92A3.87,3.87,0,0,1,36.44,99.51Z"/></g></g></svg>