<?xml version="1.0" encoding="UTF-8"?>
<svg width="50px" height="46px" viewBox="0 0 50 46" version="1.1" xmlns="http://www.w3.org/2000/svg" xmlns:xlink="http://www.w3.org/1999/xlink">
    <!-- Generator: Sketch 48.2 (47327) - http://www.bohemiancoding.com/sketch -->
    <title>Pepeleria</title>
    <desc>Created with Sketch.</desc>
    <defs></defs>
    <g id="INICIO" stroke="none" stroke-width="1" fill="none" fill-rule="evenodd" transform="translate(-327.000000, -249.000000)">
        <g id="Pepeleria" transform="translate(327.000000, 249.000000)" fill="#4A4A4A" fill-rule="nonzero">
            <path d="M0.000209375402,37.0707172 C-0.0162011942,34.7020376 0.932676356,32.4269218 2.6321084,30.7602349 C11.8462055,21.6278343 21.0635701,12.5067603 30.284202,3.3970127 C33.4258171,0.280605272 37.2486871,-0.69509238 41.488152,0.484482393 C45.7276169,1.66405717 48.4918461,4.47950313 49.5994982,8.69296363 C50.6385347,12.6540048 49.6289049,16.1975834 46.8842802,19.250886 C46.7421479,19.4062209 46.5902133,19.5567017 46.4382787,19.7071824 L23.8539385,42.0802693 C23.6220341,42.3852494 23.2591993,42.5649309 22.8737154,42.5656911 C22.489919,42.5771129 22.1437046,42.3386584 22.0209213,41.9783308 C21.9733236,41.6512718 22.0086953,41.3176214 22.1238447,41.0074873 C22.1630536,40.8618608 22.3394938,40.7550681 22.4571206,40.6337126 C29.9329554,33.2391218 37.410424,25.8429129 44.8895262,18.4450859 C46.8931727,16.5374949 47.965513,13.8645957 47.8301955,11.115218 C47.6410667,7.35759729 45.217497,4.06982776 41.6614679,2.74683694 C38.1054387,1.42384612 34.095745,2.31817399 31.4555686,5.02317545 C22.3068197,14.0682001 13.1727741,23.1148428 4.05343189,32.1631037 C1.31298448,34.6472717 1.10419177,38.8540996 3.58543367,41.5924938 C6.06667557,44.330888 10.3119015,44.5788234 13.1008911,42.1482284 C13.2920346,41.983185 13.478277,41.8084332 13.6596183,41.6288271 L37.537853,17.9596642 C38.9444731,16.5665039 39.3022545,14.7995688 38.5180761,13.1831145 C37.939266,11.964967 36.7887964,11.1098939 35.4461233,10.8999215 C34.1034501,10.6899491 32.742949,11.1523469 31.8133501,12.1346036 C25.4353651,18.4450859 19.0639149,24.7555683 12.6989996,31.0660506 C12.4705732,31.2872001 12.186102,31.4431683 11.8756122,31.5174928 C11.4590215,31.579513 11.0537817,31.3507366 10.8953891,30.964112 C10.7228531,30.6098367 10.793451,30.1864176 11.0718293,29.9058927 C11.1355438,29.8330794 11.2090605,29.7602662 11.2776761,29.6923071 C17.6981374,23.3494633 24.1333021,17.0114738 30.5831701,10.6783385 C32.0083131,9.26325167 34.0444462,8.63194353 36.0298945,8.98956795 C38.0153428,9.34719237 39.696682,10.6481019 40.5275334,12.4695446 C41.5371632,14.7413182 41.1744807,16.8868822 39.6257282,18.8334233 C39.4818153,19.0039608 39.327986,19.166043 39.1650233,19.318845 C31.1435309,27.2635805 23.1220386,35.2066978 15.1005462,43.1481971 C11.8141131,46.4532249 6.49289385,46.6386338 2.9800876,43.570514 C1.0820606,41.9344651 -0.00524229387,39.5628085 0.000209375402,37.0707172 Z" id="Shape"></path>
        </g>
    </g>
</svg>