<?xml version="1.0" encoding="utf-8"?>
<!-- Generator: Adobe Illustrator 16.0.0, SVG Export Plug-In . SVG Version: 6.00 Build 0)  -->
<!DOCTYPE svg PUBLIC "-//W3C//DTD SVG 1.1//EN" "http://www.w3.org/Graphics/SVG/1.1/DTD/svg11.dtd" [
	<!ENTITY ns_extend "http://ns.adobe.com/Extensibility/1.0/">
	<!ENTITY ns_ai "http://ns.adobe.com/AdobeIllustrator/10.0/">
	<!ENTITY ns_graphs "http://ns.adobe.com/Graphs/1.0/">
	<!ENTITY ns_vars "http://ns.adobe.com/Variables/1.0/">
	<!ENTITY ns_imrep "http://ns.adobe.com/ImageReplacement/1.0/">
	<!ENTITY ns_sfw "http://ns.adobe.com/SaveForWeb/1.0/">
	<!ENTITY ns_custom "http://ns.adobe.com/GenericCustomNamespace/1.0/">
	<!ENTITY ns_adobe_xpath "http://ns.adobe.com/XPath/1.0/">
]>
<svg version="1.1" id="Capa_1" xmlns:x="&ns_extend;" xmlns:i="&ns_ai;" xmlns:graph="&ns_graphs;"
	 xmlns="http://www.w3.org/2000/svg" xmlns:xlink="http://www.w3.org/1999/xlink" x="0px" y="0px" width="17px" height="22px"
	 viewBox="0 0 17 22" enable-background="new 0 0 17 22" xml:space="preserve">
<metadata>
	<sfw  xmlns="&ns_sfw;">
		<slices></slices>
		<sliceSourceBounds  bottomLeftOrigin="true" width="16.944" height="21.217" y="-21.559" x="0.028"></sliceSourceBounds>
	</sfw>
</metadata>
<g>
	<path fill="#F2BC11" d="M14.36,6.981l0.926-1.31c0.168-0.238,0.114-0.565-0.124-0.735l-1.4-0.99
		C13.525,3.78,13.2,3.835,13.029,4.072l-0.952,1.342c-0.697-0.327-1.451-0.564-2.24-0.689V4.18c0-0.347,0.282-0.636,0.632-0.636
		h0.353c0.351,0,0.638-0.286,0.638-0.635v-1.93c0-0.352-0.287-0.637-0.638-0.637H6.178c-0.35,0-0.637,0.285-0.637,0.637v1.93
		c0,0.349,0.288,0.635,0.637,0.635h0.354c0.346,0,0.631,0.289,0.631,0.636v0.544C6.318,4.86,5.516,5.118,4.771,5.486L3.828,4.159
		C3.66,3.92,3.331,3.864,3.093,4.03L1.694,5.023C1.455,5.191,1.401,5.52,1.569,5.755l0.949,1.342
		c-1.538,1.534-2.49,3.656-2.49,5.992c0,4.669,3.801,8.47,8.473,8.47c4.668,0,8.471-3.801,8.471-8.47
		C16.972,10.691,15.963,8.524,14.36,6.981L14.36,6.981z M8.5,19.527c-3.551,0-6.441-2.889-6.441-6.438
		c0-3.548,2.89-6.437,6.441-6.437c3.546,0,6.435,2.888,6.435,6.437C14.936,16.639,12.047,19.527,8.5,19.527L8.5,19.527z M8.5,19.527
		"/>
	<path fill="#F2BC11" d="M13.812,13.048h-0.008C13.781,10.14,11.412,7.781,8.5,7.781c-0.018,0-0.031,0-0.044,0v5.267H3.184
		c0.024,2.942,2.418,5.332,5.367,5.346l0,0c0.021,0,0.042,0,0.064,0l0,0c2.878-0.058,5.198-2.414,5.198-5.305
		C13.812,13.074,13.812,13.062,13.812,13.048z"/>
</g>
</svg>
